<svg width="28" height="28" viewBox="0 0 28 28" fill="none" xmlns="http://www.w3.org/2000/svg">
<path d="M4,3.75c0,-0.4142 0.3358,-0.75 0.75,-0.75h18.5c0.4142,0 0.75,0.3358 0.75,0.75v13.5c0,0.4142 -0.3358,0.75 -0.75,0.75h-17.75v6.25c0,0.4142 -0.3358,0.75 -0.75,0.75c-0.4142,0 -0.75,-0.3358 -0.75,-0.75zM10,16.5l-0.0303,-0.0303l5.9696,-5.9697l-5.9696,-5.9697l0.0303,-0.0303h-2.5l6,6l-6,6zM5.5,16l5.5,-5.5l-5.5,-5.5v2.5l3,3l-3,3zM16.0606,12.5l-1.9999,2h8.4393v-2zM16.0606,8.5l1.4697,1.4697c0.1465,0.1464 0.2197,0.3384 0.2197,0.5303h4.75v-2zM22.5,6.5v-2h-10.4393l2,2z" fill="#212121"/>
</svg>
