<svg width="28" height="28" viewBox="0 0 28 28" fill="none" xmlns="http://www.w3.org/2000/svg">
<path d="M4,3.75c0,-0.4142 0.3358,-0.75 0.75,-0.75h18.5c0.4142,0 0.75,0.3358 0.75,0.75v13.5c0,0.4142 -0.3358,0.75 -0.75,0.75h-17.75v6.25c0,0.4142 -0.3358,0.75 -0.75,0.75c-0.4142,0 -0.75,-0.3358 -0.75,-0.75zM18.0606,12.5l-1.9999,2h6.4393v-2zM18.0606,8.5l1.4697,1.4697c0.1465,0.1464 0.2197,0.3384 0.2197,0.5303h2.75v-2zM22.5,6.5v-2h-8.4393l2,2zM8.5,4.5h-1.5l6,6l-6,6h1.5l6,-6zM12,16.5l-0.0303,-0.0303l5.9696,-5.9697l-5.9696,-5.9697l0.0303,-0.0303h-2l6,6l-6,6zM5.5,4.5v12l6,-6zM10,10.5c0,1.1046 -0.8954,2 -2,2c-1.1046,0 -2,-0.8954 -2,-2c0,-1.1046 0.8954,-2 2,-2c1.1046,0 2,0.8954 2,2zM7,10.5c0,0.5523 0.4477,1 1,1c0.5523,0 1,-0.4477 1,-1c0,-0.5523 -0.4477,-1 -1,-1c-0.5523,0 -1,0.4477 -1,1z" fill="#212121"/>
</svg>
