<svg width="32" height="32" viewBox="0 0 32 32" fill="none" xmlns="http://www.w3.org/2000/svg">
<path d="M5,3h22c0.5523,0 1,0.4477 1,1v16c0,0.5523 -0.4477,1 -1,1h-21v7c0,0.5523 -0.4477,1 -1,1c-0.5523,0 -1,-0.4477 -1,-1v-24c0,-0.5523 0.4477,-1 1,-1zM20.4142,14l-3,3h8.5858v-3zM20.4142,10l1.2929,1.2929c0.1952,0.1953 0.2929,0.4512 0.2929,0.7071h4v-2zM26,7v-2h-10.5858l2,2zM9,5h-1.5l7,7l-7,7h1.5l7,-7zM10.5,19h2.0858l7,-7l-7,-7h-2.0858l7,7zM6,5v14l7,-7zM6.5,12c0,-1.1046 0.8954,-2 2,-2c1.1046,0 2,0.8954 2,2c0,1.1046 -0.8954,2 -2,2c-1.1046,0 -2,-0.8954 -2,-2zM8.5,11c-0.5523,0 -1,0.4477 -1,1c0,0.5523 0.4477,1 1,1c0.5523,0 1,-0.4477 1,-1c0,-0.5523 -0.4477,-1 -1,-1z" fill="#212121"/>
</svg>
