<svg width="24" height="24" viewBox="0 0 24 24" fill="none" xmlns="http://www.w3.org/2000/svg">
<path d="M10,3l0.0303,-0.0303l0.0304,0.0303h10.1893c0.4142,0 0.75,0.3358 0.75,0.75v12c0,0.4142 -0.3358,0.75 -0.75,0.75h-9.6893l-0.0304,0.0303l-0.0303,-0.0303h-6v4.75c0,0.4142 -0.3358,0.75 -0.75,0.75c-0.4142,0 -0.75,-0.3358 -0.75,-0.75v-17.5c0,-0.4142 0.3358,-0.75 0.75,-0.75zM15.0606,12l-1.4999,1.5h5.9393v-1.5zM15.0607,8l1.4696,1.4697c0.1465,0.1464 0.2197,0.3384 0.2197,0.5303h2.75v-2zM19.5,6v-1.5h-7.9393l1.5,1.5zM4.5,4.5v2.5l3,3l-3,3v2h0.5l5,-5zM7.5,15h2.4393l5,-5l-5.5,-5.5h-2.4393l5.5,5.5z" fill="#212121"/>
</svg>
