<svg width="24" height="24" viewBox="0 0 24 24" fill="none" xmlns="http://www.w3.org/2000/svg">
<path d="M10.5,3l0.0303,-0.0303l0.0304,0.0303h9.6893c0.4142,0 0.75,0.3358 0.75,0.75v12c0,0.4142 -0.3358,0.75 -0.75,0.75h-9.1893l-0.0304,0.0303l-0.0303,-0.0303h-6.5v4.75c0,0.4142 -0.3358,0.75 -0.75,0.75c-0.4142,0 -0.75,-0.3358 -0.75,-0.75v-17.5c0,-0.4142 0.3358,-0.75 0.75,-0.75zM5.5,4.5h-1v10.5h1.5l5,-5zM7,15h1l5,-5l-5.5,-5.5h-1l5.5,5.5zM9,15h1.4393l5,-5l-5.5,-5.5h-1.4393l5.5,5.5zM9,10c0,1.1046 -0.8954,2 -2,2c-1.1046,0 -2,-0.8954 -2,-2c0,-1.1046 0.8954,-2 2,-2c1.1046,0 2,0.8954 2,2zM6,10c0,0.5523 0.4477,1 1,1c0.5523,0 1,-0.4477 1,-1c0,-0.5523 -0.4477,-1 -1,-1c-0.5523,0 -1,0.4477 -1,1zM15.5606,12l-1.4999,1.5h5.4393v-1.5zM15.5607,8l1.4696,1.4697c0.1465,0.1464 0.2197,0.3384 0.2197,0.5303h2.25v-2zM19.5,6v-1.5h-7.4393l1.5,1.5z" fill="#212121"/>
</svg>
