<svg width="20" height="20" viewBox="0 0 20 20" fill="none" xmlns="http://www.w3.org/2000/svg">
<path d="M3.5,16.25v-7.5c0,-0.4142 0.3358,-0.75 0.75,-0.75c0.4142,0 0.75,0.3358 0.75,0.75v7.5c0,0.4142 -0.3358,0.75 -0.75,0.75c-0.4142,0 -0.75,-0.3358 -0.75,-0.75zM8.9999,16.25v-7.5c0,-0.4142 0.3358,-0.75 0.75,-0.75c0.4142,0 0.75,0.3358 0.75,0.75v7.5c0,0.4142 -0.3358,0.75 -0.75,0.75c-0.4142,0 -0.75,-0.3358 -0.75,-0.75zM15.25,17c-0.4142,0 -0.75,-0.3358 -0.75,-0.75v-7.5c0,-0.4142 0.3358,-0.75 0.75,-0.75c0.4142,0 0.75,0.3358 0.75,0.75v7.5c0,0.4142 -0.3358,0.75 -0.75,0.75zM16.7844,4.4711c0.0106,-0.0103 0.0361,-0.0331 0.0652,-0.0766c0.0588,-0.0881 0.1504,-0.2835 0.1504,-0.6601c0,-0.5085 -0.2839,-0.6717 -0.4563,-0.6781c-0.0914,-0.0034 -0.1821,0.0299 -0.2551,0.1106c-0.0781,0.0862 -0.1636,0.2579 -0.1636,0.5675c0,0.2761 -0.2239,0.5 -0.5,0.5c-0.2762,0 -0.5,-0.2239 -0.5,-0.5c0,-0.3096 -0.0855,-0.4812 -0.1636,-0.5675c-0.0731,-0.0807 -0.1638,-0.114 -0.2552,-0.1106c-0.1724,0.0064 -0.4562,0.1696 -0.4562,0.6781c0,0.3766 0.0916,0.572 0.1504,0.6602c0.029,0.0434 0.0541,0.0677 0.0649,0.0767c0.0014,0.0009 0.0024,0.0017 0.0035,0.0028c0.2267,0.1314 0.3159,0.4181 0.1972,0.6558c-0.1235,0.2468 -0.4241,0.3466 -0.6709,0.2235l-0.0128,-0.0066l-0.0149,-0.0082c-0.0112,-0.0063 -0.0247,-0.0143 -0.0393,-0.0237c-0.0288,-0.0185 -0.0638,-0.0434 -0.1027,-0.0758c-0.0775,-0.0646 -0.1695,-0.1585 -0.257,-0.2899c-0.1767,-0.2649 -0.3184,-0.656 -0.3184,-1.2148c0,-0.9844 0.6474,-1.6485 1.4187,-1.6774c0.3435,-0.0129 0.6876,0.1066 0.9563,0.3595c0.2686,-0.2528 0.6127,-0.3724 0.9562,-0.3595c0.7713,0.0289 1.4188,0.693 1.4188,1.6774c0,0.5588 -0.1417,0.9499 -0.3184,1.2149c-0.0876,0.1313 -0.1795,0.2252 -0.2571,0.2898c-0.0388,0.0324 -0.0739,0.0573 -0.1028,0.0758c-0.0141,0.0091 -0.0276,0.0172 -0.0386,0.0234l-0.0148,0.0082l-0.0128,0.0067c-0.247,0.1235 -0.548,0.0236 -0.6715,-0.2233c-0.1187,-0.2376 -0.0305,-0.5244 0.1961,-0.6558zM8.9511,4.5566c0.1918,0.1955 0.1903,0.5092 -0.0038,0.7033c-0.1952,0.1953 -0.5132,0.1939 -0.7084,-0.0014l-0.0045,-0.0048l-0.0088,-0.0088c-0.009,-0.01 -0.0169,-0.0188 -0.0241,-0.0269l-0.0035,-0.0042c-0.0188,-0.0211 -0.0432,-0.0489 -0.0706,-0.0837c-0.0579,-0.0737 -0.1323,-0.1788 -0.2061,-0.3128c-0.1471,-0.2674 -0.2962,-0.6588 -0.2963,-1.146c0.0001,-0.003 0.0004,-0.0056 0.0005,-0.0084c0.0057,-0.3571 0.0988,-0.7444 0.3292,-1.0556c0.2449,-0.3308 0.6239,-0.5447 1.1079,-0.5447c0.5244,0 0.8912,0.2319 1.1531,0.5461c0.1977,0.2372 0.3472,0.5414 0.4687,0.789c0.0193,0.0393 0.0379,0.0772 0.0559,0.1132c0.1438,0.2876 0.2699,0.5061 0.4384,0.6593c0.056,0.0509 0.1199,0.0973 0.1964,0.135v-1.7426c0,-0.2761 0.2239,-0.5 0.5,-0.5c0.2761,0 0.5,0.2244 0.5,0.5005v2.3433c0,0.2761 -0.2239,0.5 -0.5,0.5c-0.5896,0 -1.0323,-0.1902 -1.3691,-0.4963c-0.3156,-0.2869 -0.5116,-0.6549 -0.6602,-0.952c-0.0235,-0.0471 -0.0461,-0.0928 -0.0674,-0.1358c-0.1241,-0.2506 -0.2139,-0.433 -0.3309,-0.5734c-0.1034,-0.124 -0.2064,-0.1863 -0.3849,-0.1863c-0.1563,0 -0.243,0.0571 -0.3043,0.1399c-0.0758,0.1023 -0.1292,0.2682 -0.1333,0.4732c0.0008,0.2772 0.0857,0.5018 0.1724,0.6595c0.0434,0.0788 0.0862,0.1387 0.1162,0.177c0.0147,0.0187 0.026,0.0318 0.0324,0.0389zM2.5,3h3.75c0.2761,0 0.5,0.2239 0.5,0.5c0,0.2761 -0.2239,0.5 -0.5,0.5c0,0 -2.352,0 -2.3515,0.0005c0.166,0.195 0.3249,0.4221 0.4549,0.6821c0.1235,0.247 0.0234,0.5474 -0.2236,0.6709c-0.247,0.1235 -0.5473,0.0234 -0.6708,-0.2236c-0.1916,-0.3833 -0.4858,-0.6813 -0.7441,-0.8879c-0.1276,-0.1022 -0.2421,-0.1784 -0.3232,-0.2283c-0.0371,-0.0229 -0.0748,-0.0452 -0.1134,-0.0655c-0.2039,-0.1078 -0.3189,-0.3346 -0.2649,-0.5631c0.0532,-0.2257 0.2547,-0.3851 0.4866,-0.3851z" fill="#212121"/>
</svg>
