<svg width="20" height="20" viewBox="0 0 20 20" fill="none" xmlns="http://www.w3.org/2000/svg">
<path d="M3,3.5c0,-0.276 0.224,-0.5 0.5,-0.5l13,0c0.276,0 0.5,0.224 0.5,0.5l0,8c0,0.276 -0.224,0.5 -0.5,0.5l-12.5,0l0,5.5c0,0.276 -0.224,0.5 -0.5,0.5c-0.276,0 -0.5,-0.224 -0.5,-0.5l0,-14Zm1,6.5l0,1l0.5,0l3.5,-3.5l-3.5,-3.5l-0.5,0l0,1l2.5,2.5l-2.5,2.5Zm2,1l1.293,0l3.5,-3.5l-3.5,-3.5l-1.293,0l3.5,3.5l-3.5,3.5Zm4.707,-2l-1,1l6.293,0l0,-1l-5.293,0Zm0,-3l1.147,1.146c0.097,0.098 0.146,0.226 0.146,0.354l4,0l0,-1.5l-5.293,0Zm5.293,-1l0,-1l-7.293,0l1,1l6.293,0Z" fill="#212121"/>
</svg>
