<svg width="20" height="20" viewBox="0 0 20 20" fill="none" xmlns="http://www.w3.org/2000/svg">
<path d="M16.5,12l-12.5,0l0,5.5c0,0.276 -0.224,0.5 -0.5,0.5c-0.276,0 -0.5,-0.224 -0.5,-0.5l0,-14c0,-0.276 0.224,-0.5 0.5,-0.5l13,0c0.276,0 0.5,0.224 0.5,0.5l0,8c0,0.276 -0.224,0.5 -0.5,0.5Zm-11.5,-8l-1,0l0,7l1,0l3.5,-3.5l-3.5,-3.5Zm1,7l1,0l3.5,-3.5l-3.5,-3.5l-1,0l3.5,3.5l-3.5,3.5Zm2,0l1.293,0l3.5,-3.5l-3.5,-3.5l-1.293,0l3.5,3.5l-3.5,3.5Zm-3.75,-3.5c0,-0.828 0.672,-1.5 1.5,-1.5c0.828,0 1.5,0.672 1.5,1.5c0,0.828 -0.672,1.5 -1.5,1.5c-0.828,0 -1.5,-0.672 -1.5,-1.5Zm1.5,-0.5c-0.276,0 -0.5,0.224 -0.5,0.5c0,0.276 0.224,0.5 0.5,0.5c0.276,0 0.5,-0.224 0.5,-0.5c0,-0.276 -0.224,-0.5 -0.5,-0.5Zm6.957,2l-1,1l4.293,0l0,-1l-3.293,0Zm0,-3l1.147,1.146c0.097,0.098 0.146,0.226 0.146,0.354l2,0l0,-1.5l-3.293,0Zm3.293,-1l0,-1l-5.293,0l1,1l4.293,0Z" fill="#212121"/>
</svg>
