<svg width="20" height="20" viewBox="0 0 20 20" fill="none" xmlns="http://www.w3.org/2000/svg">
<path d="M5.5,17c-1.3807,0 -2.5,-1.1193 -2.5,-2.5v-9c0,-1.3807 1.1193,-2.5 2.5,-2.5h9c1.3807,0 2.5,1.1193 2.5,2.5v9c0,1.3807 -1.1193,2.5 -2.5,2.5zM16,5.5c0,-0.8284 -0.6716,-1.5 -1.5,-1.5h-9c-0.8284,0 -1.5,0.6716 -1.5,1.5v9c0,0.8284 0.6716,1.5 1.5,1.5h9c0.8284,0 1.5,-0.6716 1.5,-1.5zM10.5,13h-5c-0.2761,0 -0.5,-0.2239 -0.5,-0.5c0,-0.2761 0.2239,-0.5 0.5,-0.5h5c0.276,0 0.5,0.224 0.5,0.5c0,0.276 -0.224,0.5 -0.5,0.5zM8.5,15h-3c-0.2761,0 -0.5,-0.2239 -0.5,-0.5c0,-0.2761 0.2239,-0.5 0.5,-0.5h3c0.2761,0 0.5,0.2239 0.5,0.5c0,0.2761 -0.2239,0.5 -0.5,0.5zM8,5c0.1976,0 0.3767,0.1164 0.4569,0.2969l2,4.5c0.1122,0.2524 -0.0015,0.5479 -0.2538,0.66c-0.2524,0.1122 -0.5478,-0.0015 -0.66,-0.2538l-0.5347,-1.2031h-2.0168l-0.5347,1.2031c-0.1122,0.2523 -0.4076,0.366 -0.66,0.2538c-0.2523,-0.1121 -0.366,-0.4076 -0.2538,-0.66l2,-4.5c0.0802,-0.1805 0.2593,-0.2969 0.4569,-0.2969zM8.5639,8l-0.5639,-1.2689l-0.564,1.2689zM13.5,5.5v1h1c0.2761,0 0.5,0.2239 0.5,0.5c0,0.2761 -0.2239,0.5 -0.5,0.5h-1v1c0,0.2761 -0.2239,0.5 -0.5,0.5c-0.2761,0 -0.5,-0.2239 -0.5,-0.5v-1h-1c-0.2761,0 -0.5,-0.2239 -0.5,-0.5c0,-0.2761 0.2239,-0.5 0.5,-0.5h1v-1c0,-0.2761 0.2239,-0.5 0.5,-0.5c0.2761,0 0.5,0.2239 0.5,0.5z" fill="#212121"/>
</svg>
