<svg width="20" height="20" viewBox="0 0 20 20" fill="none" xmlns="http://www.w3.org/2000/svg">
<path d="M5.5,5c-1.38071,0 -2.5,1.11929 -2.5,2.5v5c0,1.3807 1.11929,2.5 2.5,2.5h5c1.38071,0 2.5,-1.1193 2.5,-2.5v-0.1272l2.0354,1.4054c0.8292,0.5725 1.9603,-0.021 1.9603,-1.0286v-5.49744c0,-1.00763 -1.1311,-1.60115 -1.9603,-1.02863l-2.0354,1.40543v-0.12896c0,-1.38071 -1.11929,-2.5 -2.5,-2.5zM13,8.84418l2.6036,-1.79775c0.1659,-0.1145 0.3921,0.0042 0.3921,0.20573v5.49744c0,0.2015 -0.2262,0.3202 -0.3921,0.2057l-2.6036,-1.79773zM4,7.5c0,-0.82843 0.67157,-1.5 1.5,-1.5h5c0.82843,0 1.5,0.67157 1.5,1.5v5c0,0.8284 -0.67157,1.5 -1.5,1.5h-5c-0.82843,0 -1.5,-0.6716 -1.5,-1.5z" fill="#212121"/>
</svg>
