<svg width="20" height="20" viewBox="0 0 20 20" fill="none" xmlns="http://www.w3.org/2000/svg">
<path d="M6,17c-1.5977,0 -2.9037,-1.24892 -2.9949,-2.82373l-0.0051,-0.17627v-4.3787c0,-0.4715 0.1665,-0.9258 0.4669,-1.2844l0.1189,-0.1298l4.6213,-4.6213c0.3334,-0.3334 0.7724,-0.5369 1.2384,-0.5781l0.1758,-0.0077h4.3787c1.59768,0 2.90366,1.2489 2.99491,2.8237l0.00509,0.1763v8c0,1.59768 -1.24892,2.90366 -2.82373,2.99491l-0.17627,0.00509zM6,16h8c1.05436,0 1.91817,-0.81588 1.99451,-1.85074l0.00549,-0.14926v-8c0,-1.0544 -0.81588,-1.9182 -1.85074,-1.9945l-0.14926,-0.0055h-4v3c0,1.5977 -1.2489,2.9037 -2.8237,2.9949l-0.1763,0.0051h-3v4c0,1.05436 0.8159,1.91817 1.8507,1.99451zM4.2175,8.9987l2.7825,0.0013c1.0544,0 1.9182,-0.8159 1.9945,-1.8507l0.0055,-0.1493v-2.781l-0.0858,0.0739l-4.6213,4.6213c-0.0268,0.0268 -0.052,0.0551 -0.0754,0.0845z" fill="#212121"/>
</svg>
