<svg width="20" height="20" viewBox="0 0 20 20" fill="none" xmlns="http://www.w3.org/2000/svg">
<path d="M6 2C4.89543 2 4 2.89543 4 4V16C4 17.1046 4.89543 18 6 18H14C15.1046 18 16 17.1046 16 16V4C16 2.89543 15.1046 2 14 2H6ZM7.5 6H12.5C12.7761 6 13 6.22386 13 6.5C13 6.77614 12.7761 7 12.5 7H7.5C7.22386 7 7 6.77614 7 6.5C7 6.22386 7.22386 6 7.5 6ZM7.5 10H12.5C12.7761 10 13 10.22386 13 10.5C13 10.7761 12.7761 11 12.5 11H7.5C7.22386 11 7 10.7761 7 10.5C7 10.22386 7.22386 10 7.5 10Z" fill="#212121"/>
</svg>
