<svg width="20" height="20" viewBox="0 0 20 20" fill="none" xmlns="http://www.w3.org/2000/svg">
<path d="M10 2C14.4183 2 18 5.58172 18 10C18 14.4183 14.4183 18 10 18C5.58172 18 2 14.4183 2 10C2 5.58172 5.58172 2 10 2ZM10 3C6.13401 3 3 6.13401 3 10C3 13.866 6.13401 17 10 17C13.866 17 17 13.866 17 10C17 6.13401 13.866 3 10 3ZM8,12.5c0.4142,0 0.75,0.3358 0.75,0.75c0,0.4142 -0.3358,0.75 -0.75,0.75c-0.41421,0 -0.75,-0.3358 -0.75,-0.75c0,-0.4142 0.33579,-0.75 0.75,-0.75zM8,6c0.2455,0 0.4496,0.17688 0.4919,0.41012l0.0081,0.08988v4.5c0,0.2761 -0.2239,0.5 -0.5,0.5c-0.24546,0 -0.44961,-0.1769 -0.49194,-0.4101l-0.00806,-0.0899v-4.5c0,-0.27614 0.22386,-0.5 0.5,-0.5z" fill="#212121"/>
</svg>
