<svg width="20" height="20" viewBox="0 0 20 20" xmlns="http://www.w3.org/2000/svg">
  <path d="M4,4.5c0,-1.38071 1.11929,-2.5 2.5,-2.5h7c1.3807,0 2.5,1.11929 2.5,2.5v11c0,1.3807 -1.1193,2.5 -2.5,2.5h-7c-1.38071,0 -2.5,-1.1193 -2.5,-2.5v-1.8108zM7.5,5c-0.27614,0 -0.5,0.22386 -0.5,0.5c0,0.27614 0.22386,0.5 0.5,0.5h5c0.2761,0 0.5,-0.22386 0.5,-0.5c0,-0.27614 -0.2239,-0.5 -0.5,-0.5zM7,8.5c0,0.27614 0.22386,0.5 0.5,0.5h3c0.2761,0 0.5,-0.22386 0.5,-0.5c0,-0.27614 -0.2239,-0.5 -0.5,-0.5h-3c-0.27614,0 -0.5,0.22386 -0.5,0.5z" fill="#212121" />
</svg>