<svg width="20" height="20" viewBox="0 0 20 20" fill="none" xmlns="http://www.w3.org/2000/svg">
<path d="M17.5644 8.8033C18.1501 8.21751 18.1501 7.26777 17.5644 6.68198L13.3217 2.43934C12.7359 1.85355 11.7862 1.85355 11.2004 2.43934L2.43934 11.2004C1.85355 11.7862 1.85355 12.7359 2.43934 13.3217L6.68198 17.5644C7.26777 18.1501 8.21751 18.1501 8.8033 17.5644ZM13.7563 11.1971L10.4935 14.4599L5.54375 9.5102L11.9075 3.14645C12.1028 2.95118 12.4193 2.95118 12.6146 3.14645L16.8572 7.38909C17.0525 7.58435 17.0525 7.90093 16.8572 8.09619L13.7563 11.1971ZM3.14645 12.6146C2.95118 12.4193 2.95118 12.1028 3.14645 11.9075L4.83664 10.2173L9.78639 15.1671L8.09619 16.8572C7.90093 17.0525 7.58435 17.0525 7.38909 16.8572L3.14645 12.6146Z" fill="#212121"/>
</svg>
