<svg width="20" height="20" viewBox="0 0 20 20" fill="none" xmlns="http://www.w3.org/2000/svg">
<path d="M16,5.5c0,-0.82843 -0.6716,-1.5 -1.5,-1.5h-9c-0.82843,0 -1.5,0.67157 -1.5,1.5v9c0,0.8284 0.67157,1.5 1.5,1.5h9c0.82843,0 1.5,-0.67157 1.5,-1.5zM5.5,17c-1.38071,0 -2.5,-1.1193 -2.5,-2.5v-9c0,-1.38071 1.11929,-2.5 2.5,-2.5h9c1.3807,0 2.5,1.11929 2.5,2.5v9c0,1.38071 -1.11929 2.5 -2.5,2.5zM13.5,6h-7l-0.08988,0.00806c-0.23324,0.04233 -0.41012,0.24648 -0.41012,0.49194c0,0.27614 0.22386,0.5 0.5,0.5h7l0.0899,-0.00806c0.2332,-0.04233 0.4101,-0.24648 0.4101,-0.49194c0,-0.27614 -0.2239,-0.5 -0.5,-0.5zM13.5,9.5h-7l-0.08988,0.00806c-0.23324,0.04233 -0.41012,0.24648 -0.41012,0.49194c0,0.27614 0.22386,0.5 0.5,0.5h7l0.0899,-0.00806c0.2332,-0.04233 0.4101,-0.24648 0.4101,-0.49194c0,-0.27614 -0.2239,-0.5 -0.5,-0.5zM13.5,13h-7l-0.08988,0.00806c-0.23324,0.04233 -0.41012,0.24648 -0.41012,0.49194c0,0.27614 0.22386,0.5 0.5,0.5h7l0.0899,-0.00806c0.2332,-0.04233 0.4101,-0.24648 0.4101,-0.49194c0,-0.27614 -0.2239,-0.5 -0.5,-0.5z" fill="#212121"/>
</svg>
