<svg width="20" height="20" viewBox="0 0 20 20" fill="none" xmlns="http://www.w3.org/2000/svg">
<path d="M14.5,17h-9c-1.3807,0 -2.5,-1.1193 -2.5,-2.5v-9c0,-1.3807 1.1193,-2.5 2.5,-2.5h9c1.3807,0 2.5,1.1193 2.5,2.5v9c0,1.3807 -1.1193,2.5 -2.5,2.5zM13.5,5.5c0,-0.2761 -0.2239,-0.5 -0.5,-0.5c-0.2761,0 -0.5,0.2239 -0.5,0.5v1h-1c-0.2761,0 -0.5,0.2239 -0.5,0.5c0,0.2761 0.2239,0.5 0.5,0.5h1v1c0,0.2761 0.2239,0.5 0.5,0.5c0.2761,0 0.5,-0.2239 0.5,-0.5v-1h1c0.2761,0 0.5,-0.2239 0.5,-0.5c0,-0.2761 -0.2239,-0.5 -0.5,-0.5h-1zM5.5,14c-0.2761,0 -0.5,0.2239 -0.5,0.5c0,0.2761 0.2239,0.5 0.5,0.5h2c0.2761,0 0.5,-0.2239 0.5,-0.5c0,-0.2761 -0.2239,-0.5 -0.5,-0.5zM8,5c-0.1976,0 -0.3767,0.1164 -0.4569,0.2969l-2,4.5c-0.1122,0.2524 0.0015,0.5479 0.2538,0.66c0.2524,0.1122 0.5479,-0.0015 0.66,-0.2538l0.5347,-1.2031h2.0168l0.5347,1.2031c0.1122,0.2523 0.4076,0.366 0.66,0.2538c0.2523,-0.1121 0.366,-0.4076 0.2538,-0.66l-2,-4.5c-0.0802,-0.1805 -0.2593,-0.2969 -0.4569,-0.2969zM8.564,8h-1.1279l0.5639,-1.2689zM5.5,12c-0.2761,0 -0.5,0.2239 -0.5,0.5c0,0.2761 0.2239,0.5 0.5,0.5h5c0.276,0 0.5,-0.224 0.5,-0.5c0,-0.276 -0.224,-0.5 -0.5,-0.5z" fill="#212121"/>
</svg>
