<svg width="20" height="20" viewBox="0 0 20 20" xmlns="http://www.w3.org/2000/svg">
  <path d="M4.5,3c-1.38071,0 -2.5,1.11929 -2.5,2.5v9c0,1.3807 1.11929,2.5 2.5,2.5h11c1.3807,0 2.5,-1.1193 2.5,-2.5v-9c0,-1.38071 -1.1193,-2.5 -2.5,-2.5zM6.76512,7.07608l3.99998,2.50156c0.1442,0.09016 0.2327,0.24741 0.2349,0.41744c0.0022,0.17002 -0.0822,0.32952 -0.224,0.42342l-3.99997,2.6484c-0.15351,0.1016 -0.35046,0.1107 -0.51266,0.0236c-0.16219,-0.0872 -0.26337,-0.2564 -0.26337,-0.4405v-5.15c0,-0.18179 0.09867,-0.34925 0.25768,-0.43736c0.15901,-0.0881 0.35331,-0.08295 0.50744,0.01344z" fill="#212121" />
</svg>