<svg width="20" height="20" viewBox="0 0 20 20" xmlns="http://www.w3.org/2000/svg">
  <path d="M10,2c4.4183,0 8,3.58172 8,8c0,4.4183 -3.5817,8 -8,8c-4.41828,0 -8,-3.5817 -8,-8c0,-4.41828 3.58172,-8 8,-8zM12.3584,7.64645c-0.1735,-0.17357 -0.443,-0.19285 -0.6378,-0.05786l-0.0693,0.05786l-3.6513,3.65155l-1.64645,-1.64669l-0.06924,-0.05785c-0.19487,-0.135 -0.4643,-0.11571 -0.63786,0.05785c-0.17357,0.17357 -0.19285,0.44299 -0.05786,0.63789l0.05786,0.0692l2,2l0.06924,0.0579c0.17051,0.1181 0.39811,0.1181 0.56862,0l0.06924,-0.0579l4.00485,-4.00485l0.0579,-0.06924c0.135,-0.19487 0.1157,-0.4643 -0.0579,-0.63786z" fill="#212121" />
</svg>