<svg width="20" height="20" viewBox="0 0 20 20" fill="none" xmlns="http://www.w3.org/2000/svg">
<path d="M6,17c-1.5977,0 -2.9037,-1.24892 -2.9949,-2.82373l-0.0051,-0.17627v-4h4l0.1763,-0.0051c1.5165,-0.0879 2.7307,-1.3021 2.8186,-2.8186l0.0051,-0.1763v-4h4c1.59768,0 2.90366,1.2489 2.99491,2.8237l0.00509,0.1763v8c0,1.59768 -1.24892,2.90366 -2.82373,2.99491l-0.17627,0.00509zM3.0993,8.999c0.0775,-0.2366 0.1989,-0.458 0.3591,-0.6518l0.1274,-0.1401l4.6213,-4.6213c0.2242,-0.2242 0.4961,-0.3897 0.7919,-0.4865l0.001,3.9007l-0.0055,0.1493c-0.0725,0.9831 -0.8557,1.7686 -1.8378,1.8447l-0.1567,0.006z" fill="#212121"/>
</svg>
