<svg width="20" height="20" viewBox="0 0 20 20" fill="none" xmlns="http://www.w3.org/2000/svg">
<path d="
M17,6.14041C17 5.55533 16.6598 5.02365 16.1286 4.77847L11.4667 2.62683C10.5361 2.19731 9.46393 2.19731 8.5333 2.62683L3.87141 4.77847C3.34019 5.02365 3 5.55533 3 6.14041V13.8607C3 14.4458 3.3402 14.9775 3.8714 15.2227L8.5333 17.3743C9.4639 17.8038 10.5361 17.8038 11.4667 17.3743L16.1286 15.2227C16.6598 14.9775 17 14.4458 17 13.8607ZM4 6.14041C4 5.94538 4.1134 5.76815 4.29047 5.68643L8.95235 3.53479C9.61709 3.22799 10.3829 3.22799 11.0476 3.53479L15.7095 5.68643C15.8866 5.76815 16 5.94538 16 6.14041V13.8607C16 14.0558 15.8866 14.233 15.7095 14.3147L11.0476 16.4664C10.3829 16.7732 9.6171 16.7732 8.9523 16.4664L4.2905 14.3147C4.1134 14.233 4 14.0558 4 13.8607ZM6.04031 6.80366C6.14909 6.54984 6.44303 6.43227 6.69684 6.54104L9.99988 7.95663L13.3029 6.54104C13.5567 6.43227 13.8507 6.54984 13.9595 6.80366C14.0682 7.05747 13.9507 7.35141 13.6968 7.46019L10.4999 8.83031V11.0006C10.4999 11.2768 10.276 11.5006 9.99988 11.5006C9.72374 11.5006 9.49988 11.2768 9.49988 11.0006V8.83031L6.30292 7.46019C6.04911 7.35141 5.93153 7.05747 6.04031 6.80366Z" fill="#212121"/>
</svg>