<svg width="20" height="20" viewBox="0 0 20 20" fill="none" xmlns="http://www.w3.org/2000/svg">
<path d="M13.184,4.745l2.256,2.256l-3.44,-0.001l-0.258,-0.004c-2.8,-0.088 -4.492,-1.617 -4.492,-3.746c0,-0.414 -0.336,-0.75 -0.75,-0.75c-0.414,0 -0.75,0.336 -0.75,0.75l0.004,0.213c0.113,2.96 2.595,5.037 6.246,5.037l3.44,0.001l-2.256,2.254l-0.072,0.084c-0.218,0.294 -0.194,0.711 0.072,0.977c0.293,0.293 0.768,0.293 1.061,0l3.536,-3.536c0.033,-0.033 0.062,-0.069 0.088,-0.106l0.035,-0.056l0.046,-0.098l0.031,-0.1l0.015,-0.094l0.004,-0.059l-0.004,-0.093l-0.009,-0.062l-0.015,-0.068l-0.033,-0.092l-0.049,-0.094l-0.041,-0.06l-0.068,-0.078l-3.536,-3.536l-0.084,-0.072c-0.294,-0.218 -0.71,-0.194 -0.977,0.072c-0.293,0.293 -0.293,0.768 0,1.061z" fill="#212121"/>
</svg>
