<svg width="20" height="20" viewBox="0 0 20 20" fill="none" xmlns="http://www.w3.org/2000/svg">
<path d="M13.6109 4.31802L16.293 7.00053L12 7L11.7385 6.99596C8.80747 6.90459 7 5.27317 7 3C7 2.72386 6.77614 2.5 6.5 2.5C6.22386 2.5 6 2.72386 6 3L6.00405 3.20758C6.11461 6.0242 8.47823 8 12 8L16.293 8.00053L13.6109 10.682L13.5531 10.7512C13.4181 10.9461 13.4373 11.2155 13.6109 11.3891C13.8062 11.5843 14.1228 11.5843 14.318 11.3891L17.8683 7.83816L17.9228 7.76701L17.9622 7.69104L17.9832 7.62883L17.9982 7.54252V7.47569L18 7.5C18 7.4639 17.9962 7.4287 17.9889 7.39501L17.984 7.37429L17.9612 7.30666L17.9336 7.25085L17.884 7.17971L14.318 3.61091L14.2488 3.55306C14.0539 3.41806 13.7845 3.43735 13.6109 3.61091C13.4157 3.80617 13.4157 4.12276 13.6109 4.31802Z" fill="#212121"/>
</svg>
