<svg width="32" height="32" viewBox="0 0 32 32" xmlns="http://www.w3.org/2000/svg">
  <path d="M12.75,28l-8.75,0c-1.105,0 -2,-0.895 -2,-2l0,-20c0,-1.105 0.895,-2 2,-2l8.75,0c1.389,0 2.602,0.755 3.25,1.878c0.648,-1.123 1.861,-1.878 3.25,-1.878l8.75,0c1.105,0 2,0.895 2,2l0,20c0,1.105 -0.895,2 -2,2l-8.75,0c-1.389,0 -2.602,-0.756 -3.25,-1.879c-0.648,1.123 -1.861,1.879 -3.25,1.879Zm2.75,-3.75l0,-16.5c0,-1.519 -1.231,-2.75 -2.75,-2.75l-8.75,0c-0.552,0 -1,0.448 -1,1l0,20c0,0.552 0.448,1 1,1l8.75,0c1.518,0 2.75,-1.232 2.75,-2.75Zm1,0c0,1.518 1.232,2.75 2.75,2.75l8.75,0c0.552,0 1,-0.448 1,-1l0,-20c0,-0.552 -0.448,-1 -1,-1l-8.75,0c-1.519,0 -2.75,1.231 -2.75,2.75l0,16.5Z" fill="#212121" />
</svg>
