<svg width="20" height="20" viewBox="0 0 20 20" fill="none" xmlns="http://www.w3.org/2000/svg">
<path d="M4 3C2.89543 3 2 3.89543 2 5V8.67133C2.28512 8.31899 2.62236 8.01056 3 7.75777V5C3 4.44772 3.44772 4 4 4H16C16.5523 4 17 4.44772 17 5V13C17 13.5523 16.5523 14 16 14H9.24223C9.16639 14.1133 9.08554 14.223 9 14.3287V15H16C17.1046 15 18 14.1046 18 13V5C18 3.89543 17.1046 3 16 3H4ZM5 6.5C5 6.22386 5.22386 6 5.5 6H14.5C14.7761 6 15 6.22386 15 6.5C15 6.77614 14.7761 7 14.5 7H5.5C5.22386 7 5 6.77614 5 6.5ZM10.5 10C10.2239 10 10 10.2239 10 10.5C10 10.7761 10.2239 11 10.5 11H14.5C14.7761 11 15 10.7761 15 10.5C15 10.2239 14.7761 10 14.5 10H10.5Z" fill="#212121"/>
</svg>
