<svg width="20" height="20" viewBox="0 0 20 20" fill="none" xmlns="http://www.w3.org/2000/svg">
<path d="M15.2507,15.0023h-7.4828l-1.8516,2.7778c-0.1532,0.2299 -0.4637,0.2919 -0.6934,0.1387c-0.2298,-0.1532 -0.2919,-0.4636 -0.1387,-0.6935l1.4818,-2.223h-1.8159c-1.5188,0 -2.7501,-1.2314 -2.7501,-2.7505v-6.5011c0,-1.5188 1.2312,-2.7507 2.75,-2.7507h4.7504v-0.4999c0,-0.2762 0.2238,-0.5001 0.5,-0.5001c0.2762,0 0.5,0.2239 0.5,0.5001v0.4999h4.7496c0.2597,0 0.511,0.036 0.7491,0.1033c1.1551,0.326 2.0017,1.3878 2.0017,2.6474v6.5011c0,1.5191 -1.2313,2.7505 -2.7501,2.7505zM15.2508,14c0.9502,0 1.7234,-0.7572 1.7493,-1.7011c0.0004,-0.0156 -0.0001,-6.5489 -0.0001,-6.5489c0,-0.6491 -0.3534,-1.2156 -0.8782,-1.5178l-0.0252,-0.0142c-0.2508,-0.1387 -0.5391,-0.2176 -0.8459,-0.2176h-10.5006c-0.9665,0 -1.75,0.7836 -1.75,1.7503v6.5011c0,0.0158 0.0002,0.0315 0.0006,0.0471c0.0259,0.9439 0.7992,1.7011 1.7493,1.7011zM5.0002,6.5008c0,-0.2762 0.2238,-0.5001 0.5,-0.5001h3.0001c0.2762,0 0.5001,0.2239 0.5001,0.5001c-0.0001,0.2762 -0.2239,0.5001 -0.5001,0.5001h-3.0001c-0.2762,0 -0.5,-0.2239 -0.5,-0.5001zM5.0002,9.0012c0,-0.2762 0.2238,-0.5 0.5,-0.5h5.0002c0.2762,0 0.5,0.2238 0.5,0.5c0,0.2762 -0.2238,0.5001 -0.5,0.5001h-5.0002c-0.2762,0 -0.5,-0.2239 -0.5,-0.5001zM5.5002,11.0016h4.0002c0.2761,0 0.5,0.2239 0.5,0.5001c0,0.2762 -0.2239,0.5001 -0.5,0.5001h-4.0002c-0.2762,0 -0.5,-0.2239 -0.5,-0.5001c0,-0.2762 0.2238,-0.5001 0.5,-0.5001z" fill="#212121"/>
</svg>
