<svg width="20" height="20" viewBox="0 0 20 20" fill="none" xmlns="http://www.w3.org/2000/svg">
<path d="M5,6.5008c0,-0.2762 0.2239,-0.5001 0.5,-0.5001h3.0002c0.2761,0 0.5,0.2239 0.5,0.5001c0,0.2762 -0.2239,0.5001 -0.5,0.5001h-3.0002c-0.2761,0 -0.5,-0.2239 -0.5,-0.5001zM5.5,11.0016h4.0002c0.2762,0 0.5,0.2239 0.5,0.5001c0,0.2762 -0.2238,0.5001 -0.5,0.5001h-4.0002c-0.2761,0 -0.5,-0.2239 -0.5,-0.5001c0,-0.2762 0.2239,-0.5001 0.5,-0.5001zM5.5,8.5012h5.0003c0.2761,0 0.5,0.2239 0.5,0.5001c0,0.2762 -0.2239,0.5001 -0.5,0.5001h-5.0003c-0.2761,0 -0.5,-0.2239 -0.5,-0.5001c0,-0.2762 0.2239,-0.5001 0.5,-0.5001zM15.25,15c1.5188,0 2.75,-1.2312 2.75,-2.75l0.0008,-6.4993c0,-1.2566 -0.8426,-2.3164 -1.9935,-2.6451c-0.2406,-0.0688 -0.4947,-0.1056 -0.7573,-0.1056h-4.7496v-0.4999c0,-0.2762 -0.2239,-0.5001 -0.5,-0.5001c-0.2762,0 -0.5,0.2239 -0.5,0.5001v0.4999h-4.7504c-1.5188,0 -2.75,1.2312 -2.75,2.75v6.5018c0,1.5191 1.2313,2.7505 2.7501,2.7505h1.8159l-1.4818,2.223c-0.1532,0.2299 -0.0911,0.5403 0.1387,0.6935c0.2297,0.1532 0.5402,0.0912 0.6934,-0.1387l1.8516,-2.7778h2.244l0.0002,-0.0023z" fill="#212121"/>
</svg>
