<svg width="20" height="20" viewBox="0 0 20 20" fill="none" xmlns="http://www.w3.org/2000/svg">
<path d="M8.49921,2c-3.58985,0 -6.5,2.91015 -6.5,6.5c0,1.151 0.29959,2.23335 0.82525,3.1719l-0.79574,2.0823c-0.29328,0.7674 0.4127,1.5415 1.20382,1.3199l2.48738,-0.6967c0.84321,0.3994 1.78582,0.6226 2.77929,0.6226c3.58989,0 6.49999,-2.9101 6.49999,-6.5c0,-3.58985 -2.9101,-6.5 -6.49999,-6.5zM2.99921,8.5c0,-3.03757 2.46244,-5.5 5.5,-5.5c3.03759,0 5.49999,2.46243 5.49999,5.5c0,3.0376 -2.4624,5.5 -5.49999,5.5c-0.90212,0 -1.75215,-0.2168 -2.50221,-0.6007l-0.17421,-0.0892l-2.85995,0.801l0.96911,-2.5358l-0.12829,-0.2098c-0.51026,-0.83415 -0.80445,-1.81471 -0.80445,-2.8655z" fill="#212121"/>
</svg>
