<svg width="20" height="20" viewBox="0 0 20 20" fill="none" xmlns="http://www.w3.org/2000/svg">
<path d="M8.53828 2C4.94843 2 2.03828 4.91015 2.03828 8.5C2.03828 9.651 2.33787 10.7334 2.86353 11.6719L2.06779 13.7542C1.7745 14.5216 2.48048 15.2957 3.2716 15.0741L5.75898 14.3774C6.60219 14.7768 7.5448 15 8.53828 15C12.1281 15 15.0383 12.0899 15.0383 8.5C15.0383 4.91015 12.1281 2 8.53828 2ZM3.03828 8.5C3.03828 5.46243 5.50071 3 8.53828 3C11.5758 3 14.0383 5.46243 14.0383 8.5C14.0383 11.5376 11.5758 14 8.53828 14C7.63615 14 6.78612 13.7832 6.03606 13.3993L5.86185 13.3101L3.0019 14.1111L3.97101 11.5753L3.84272 11.3655C3.33247 10.5313 3.03828 9.55079 3.03828 8.5Z" fill="#212121"/>
</svg>
