<svg width="20" height="20" viewBox="0 0 20 20" xmlns="http://www.w3.org/2000/svg">
  <path d="M10,2c4.4183,0 8,3.58172 8,8c0,4.4183 -3.5817,8 -8,8c-4.41828,0 -8,-3.5817 -8,-8c0,-4.41828 3.58172,-8 8,-8zM10,3c-3.86599,0 -7,3.13401 -7,7c0,3.866 3.13401,7 7,7c3.866,0 7,-3.134 7,-7c0,-3.86599 -3.134,-7 -7,-7zM12.3584,7.64645c0.1736,0.17356 0.1929,0.44299 0.0579,0.63786l-0.0579,0.06924l-4.00485,4.00485c-0.17356,0.1736 -0.44299,0.1929 -0.63786,0.0579l-0.06924,-0.0579l-2,-2c-0.19527,-0.1952 -0.19527,-0.51182 0,-0.70709c0.17356,-0.17356 0.44299,-0.19285 0.63786,-0.05785l0.06924,0.05785l1.64645,1.64669l3.6513,-3.65155c0.1953,-0.19527 0.5119,-0.19527 0.7071,0z" fill="#212121" />
</svg>