<svg width="20" height="20" viewBox="0 0 20 20" fill="none" xmlns="http://www.w3.org/2000/svg">
<path d="M4.4669 3C4.09054 3 3.77247 3.27893 3.72332 3.65207L3.59077 4.65857C3.53668 5.06924 3.82574 5.44599 4.23641 5.50008C4.64708 5.55417 5.02384 5.2651 5.07792 4.85443L5.1246 4.5H7.90113L6.32613 13.5H5.75002C5.33581 13.5 5.00002 13.8358 5.00002 14.25C5.00002 14.6642 5.33581 15 5.75002 15H8.25002C8.66424 15 9.00002 14.6642 9.00002 14.25C9.00002 13.8358 8.66424 13.5 8.25002 13.5H7.84892L9.42393 4.5H12.1074L12.0865 4.65857C12.0324 5.06924 12.3215 5.44599 12.7321 5.50008C13.1428 5.55417 13.5196 5.2651 13.5737 4.85443L13.7062 3.84793C13.7344 3.63379 13.6689 3.41789 13.5265 3.2555C13.3841 3.09311 13.1786 3 12.9626 3H4.4669ZM2.75 15.5C2.33579 15.5 2 15.8358 2 16.25C2 16.6642 2.33579 17 2.75 17H9.59971C9.36173 16.5345 9.18814 16.0306 9.09069 15.5H2.75Z" fill="#212121"/>
</svg>
