<svg width="20" height="20" viewBox="0 0 20 20" fill="none" xmlns="http://www.w3.org/2000/svg">
<path d="M8.5,2c-0.65311,0 -1.20873,0.4174 -1.41465,1h-1.58535c-0.82843,0 -1.5,0.67157 -1.5,1.5v12c0,0.8284 0.67157,1.5 1.5,1.5h9c0.8284,0 1.5,-0.6716 1.5,-1.5v-12c0,-0.82843 -0.6716,-1.5 -1.5,-1.5h-1.5854c-0.2059,-0.5826 -0.7615,-1 -1.4146,-1zM8,3.5c0,-0.27614 0.22386,-0.5 0.5,-0.5h3c0.2761,0 0.5,0.22386 0.5,0.5c0,0.27614 -0.2239,0.5 -0.5,0.5h-3c-0.27614,0 -0.5,-0.22386 -0.5,-0.5zM11.3536,6.35355l-3.50005,3.50005c-0.19526,0.1952 -0.51184,0.1952 -0.7071,0l-1.5,-1.5c-0.19527,-0.1953 -0.19527,-0.5119 0,-0.7072c0.19526,-0.1952 0.51184,-0.1952 0.7071,0l1.14645,1.1465l3.1464,-3.14645c0.1953,-0.19527 0.5119,-0.19527 0.7072,0c0.1952,0.19526 0.1952,0.51184 0,0.7071z" fill="#212121"/>
</svg>
