<svg width="20" height="20" viewBox="0 0 20 20" fill="none" xmlns="http://www.w3.org/2000/svg">
<path d="
M2.99609 5.5C2.99609 4.11929 4.11538 3 5.49609 3H14.4961C15.8768 3 16.9961 4.11929 16.9961 5.5V6H16.999V7H16.9961V14.5C16.9961 15.8807 15.8768 17 14.4961 17H5.49609C4.11538 17 2.99609 15.8807 2.99609 14.5V5.5ZM3.99609 7V14.5C3.99609 15.3284 4.66767 16 5.49609 16H14.4961C15.3245 16 15.9961 15.3284 15.9961 14.5V7H3.99609ZM9 14.5V8.50003C9 8.22389 8.77614 8.00003 8.5 8.00003H5.5C5.22386 8.00003 5 8.22389 5 8.50003V14.5C5 14.7762 5.22386 15 5.5 15H8.5C8.77614 15 9 14.7762 9 14.5ZM6 14V9.00003H8V14H6ZM9.99756 8.50003C9.99756 8.22389 10.2214 8.00003 10.4976 8.00003H14.4999C14.7761 8.00003 14.9999 8.22389 14.9999 8.50003C14.9999 8.77617 14.7761 9.00003 14.4999 9.00003H10.4976C10.2214 9.00003 9.99756 8.77617 9.99756 8.50003Z" fill="#212121"/>
</svg>
