<svg width="20" height="20" viewBox="0 0 20 20" fill="none" xmlns="http://www.w3.org/2000/svg">
<path d="M2.99707 5.5C2.99707 4.11929 4.11636 3 5.49707 3H14.4971C15.8778 3 16.9971 4.11929 16.9971 5.5V6H17V7H16.9971V14.5C16.9971 15.8807 15.8778 17 14.4971 17H5.49707C4.11636 17 2.99707 15.8807 2.99707 14.5V5.5ZM15.9971 6V5.5C15.9971 4.67157 15.3255 4 14.4971 4H5.49707C4.66864 4 3.99707 4.67157 3.99707 5.5V6H15.9971ZM3.99707 7V14.5C3.99707 15.3284 4.66864 16 5.49707 16H14.4971C15.3255 16 15.9971 15.3284 15.9971 14.5V7H3.99707ZM9 14.5V8.50003C9 8.22389 8.77614 8.00003 8.5 8.00003H5.5C5.22386 8.00003 5 8.22389 5 8.50003V14.5C5 14.7762 5.22386 15 5.5 15H8.5C8.77614 15 9 14.7762 9 14.5ZM6 14V9.00003H8V14H6ZM9.99756 8.50003C9.99756 8.22389 10.2214 8.00003 10.4976 8.00003H14.4999C14.7761 8.00003 14.9999 8.22389 14.9999 8.50003C14.9999 8.77617 14.7761 9.00003 14.4999 9.00003H10.4976C10.2214 9.00003 9.99756 8.77617 9.99756 8.50003Z" fill="#212121"/>
</svg>
