<svg width="20" height="20" viewBox="0 0 20 20" fill="none" xmlns="http://www.w3.org/2000/svg">
<path d="M17 13.8607C17 14.4458 16.6598 14.9775 16.1286 15.2227L11.4667 17.3743C10.5361 17.8038 9.4639 17.8038 8.5333 17.3743L3.8714 15.2227C3.3402 14.9775 3 14.4458 3 13.8607V6.1404C3 5.5553 3.3402 5.0236 3.8714 4.7785L8.5333 2.6268C9.4639 2.1973 10.5361 2.1973 11.4667 2.6268L16.1286 4.7785C16.6598 5.0236 17 5.5553 17 6.1404ZM6.69684 6.54104C6.44303 6.43227 6.14909 6.54984 6.04031 6.80366C5.93153 7.05747 6.04911 7.35141 6.30292 7.46019L9.49988 8.83031V10.5006C9.49988 10.7768 9.72374 11.0006 9.99988 11.0006C10.276 11.0006 10.4999 10.7768 10.4999 10.5006V8.83031L13.6968 7.46019C13.9507 7.35141 14.0682 7.05747 13.9595 6.80366C13.8507 6.54984 13.5567 6.43227 13.3029 6.54104L9.99988 7.95663L6.69684 6.54104Z" fill="#212121"/>
</svg>
