<svg width="20" height="20" viewBox="0 0 20 20" fill="none" xmlns="http://www.w3.org/2000/svg">
<path d="M10,2.5c0,-0.27614 0.22386,-0.5 0.5,-0.5c3.5899,0 6.5,2.91015 6.5,6.5c0,0.27614 -0.2239,0.5 -0.5,0.5h-6c-0.27614,0 -0.5,-0.22386 -0.5,-0.5zM9,4.52246c0,-0.14041 -0.05904,-0.27435 -0.16269,-0.36908c-0.10364,-0.09472 -0.24234,-0.1415 -0.38219,-0.1289c-3.05862,0.27563 -5.45512,2.84544 -5.45512,5.97556c0,3.31366 2.68629,5.99996 6,5.99996c3.1301,0 5.6999,-2.3965 5.9756,-5.45508c0.0126,-0.13985 -0.0342,-0.27855 -0.1289,-0.38219c-0.0948,-0.10365 -0.2287,-0.16269 -0.3691,-0.16269h-4.4776a1,1 0 0,1 -1,-1z" fill="#212121"/>
</svg>
