<svg width="20" height="20" viewBox="0 0 20 20" fill="none" xmlns="http://www.w3.org/2000/svg">
<path d="M10.5,2c-0.27614,0 -0.5,0.22386 -0.5,0.5v6c0,0.27614 0.22386,0.5 0.5,0.5h6c0.2761,0 0.5,-0.22386 0.5,-0.5c0,-3.58985 -2.9101,-6.5 -6.5,-6.5zM11,8v-4.97758c2.6386,0.23778 4.7398,2.33901 4.9776,4.97758zM9,4.52246c0,-0.14041 -0.05904,-0.27435 -0.16269,-0.36908c-0.10364,-0.09472 -0.24234,-0.1415 -0.38219,-0.1289c-3.05862,0.27563 -5.45512,2.84544 -5.45512,5.97556c0,3.31366 2.68629,5.99996 6,5.99996c3.1301,0 5.6999,-2.3965 5.9756,-5.45508c0.0126,-0.13985 -0.0342,-0.27855 -0.1289,-0.38219c-0.0948,-0.10365 -0.2287,-0.16269 -0.3691,-0.16269h-4.4776a1,1 0 0,1 -1,-1zM4,10.00004c0,-2.41887 1.71795,-4.43698 4,-4.90006v3.90006a2,1.99996 0 0,0 2,1.99996h3.9001c-0.4631,2.2821 -2.48123,4 -4.9001,4c-2.76142,0 -5,-2.2385 -5,-4.99996z" fill="#212121"/>
</svg>
