<svg width="20" height="20" viewBox="0 0 20 20" fill="none" xmlns="http://www.w3.org/2000/svg">
<path d="M8.5 3C7.11929 3 6 4.11929 6 5.5V9.5C6 10.8807 7.11929 12 8.5 12C9.88071 12 11 10.8807 11 9.5V5.5C11 4.11929 9.88071 3 8.5 3ZM7 5.5C7 4.67157 7.67157 4 8.5 4C9.32843 4 10 4.67157 10 5.5V9.5C10 10.3284 9.32843 11 8.5 11C7.67157 11 7 10.3284 7 9.5V5.5ZM3 12C3.55228 12 4 11.5523 4 11C4 10.4477 3.55228 10 3 10C2.44772 10 2 10.4477 2 11C2 11.5523 2.44772 12 3 12ZM15.5 3C14.1193 3 13 4.11929 13 5.5V9.20703C13.3223 9.11588 13.6566 9.05337 14 9.02242V5.5C14 4.67157 14.6716 4 15.5 4C16.3284 4 17 4.67157 17 5.5V9.5C17 9.53296 16.9989 9.56567 16.9968 9.5981C17.3196 9.76285 17.624 9.95855 17.906 10.1813C17.9673 9.9647 18 9.73617 18 9.5V5.5C18 4.11929 16.8807 3 15.5 3Z" fill="#212121"/>
</svg>
