<svg width="20" height="20" viewBox="0 0 20 20" fill="none" xmlns="http://www.w3.org/2000/svg">
<path d="M9,4h2c0,-0.5523 -0.4477,-1 -1,-1c-0.5523,0 -1,0.4477 -1,1zM8,4c0,-1.1046 0.8954,-2 2,-2c1.1046,0 2,0.8954 2,2h5.5c0.2761,0 0.5,0.2239 0.5,0.5c0,0.2761 -0.2239,0.5 -0.5,0.5h-1.0544l-1.1935,10.3439c-0.1747,1.5137 -1.4564,2.6561 -2.9802,2.6561h-4.5438c-1.5238,0 -2.8055,-1.1424 -2.9802,-2.6561l-1.1935,-10.3439h-1.0544c-0.2761,0 -0.5,-0.2239 -0.5,-0.5c0,-0.2761 0.2239,-0.5 0.5,-0.5zM5.7413,15.2292c0.1165,1.0092 0.971,1.7708 1.9868,1.7708h4.5438c1.0159,0 1.8703,-0.7616 1.9868,-1.7708l1.1803,-10.2292h-10.878z" fill="#212121"/>
</svg>
