<svg width="20" height="20" viewBox="0 0 20 20" fill="none" xmlns="http://www.w3.org/2000/svg">
<path d="M6 2H14C15.1046 2 16 2.89543 16 4L16 16C16 17.1046 15.1046 18 14 18H6C4.89543 18 4 17.1046 4 16V4C4 2.89543 4.89543 2 6 2ZM6 3C5.44772 3 5 3.44772 5 4V16C5 16.5523 5.44772 17 6 17H14C14.5523 17 15 16.5523 15 16L15 4C15 3.44771 14.5523 3 14 3L6 3ZM13 6.5C13 6.74546 12.8231 6.94961 12.5899 6.99194L12.5 7H7.5C7.22386 7 7 6.77614 7 6.5C7 6.25454 7.17688 6.05039 7.41012 6.00806L7.5 6H12.5C12.7761 6 13 6.22386 13 6.5ZM13 10.5C13 10.7455 12.8231 10.9496 12.5899 10.9919L12.5 11H7.5C7.22386 11 7 10.7761 7 10.5C7 10.25454 7.17688 10.05039 7.41012 10.00806L7.5 10H12.5C12.7761 10 13 10.22386 13 10.5Z" fill="#212121"/>
</svg>
