<svg width="20" height="20" viewBox="0 0 20 20" xmlns="http://www.w3.org/2000/svg">
  <path d="M6.5,15c-0.27614,0 -0.5,0.2239 -0.5,0.5c0,0.2761 0.22386,0.5 0.5,0.5h6c0.2761,0 0.5,-0.2239 0.5,-0.5c0,-0.2761 -0.2239,-0.5 -0.5,-0.5zM4,4c0,-1.10457 0.89543,-2 2,-2h4.5858c0.3978,0 0.7793,0.15804 1.0606,0.43934l3.9143,3.91421c0.2813,0.28131 0.4393,0.66284 0.4393,1.06066v8.58579c0,1.1046 -0.8954,2 -2,2h-8c-1.10457,0 -2,-0.8954 -2,-2zM6,3c-0.55228,0 -1,0.44772 -1,1v12c0,0.5523 0.44772,1 1,1h8c0.5523,0 1,-0.4477 1,-1v-8h-3.5c-0.8284,0 -1.5,-0.67157 -1.5,-1.5v-3.5zM11.5,7h3.2929l-3.7929,-3.79289v3.29289c0,0.27614 0.2239,0.5 0.5,0.5z" fill="#212121" />
</svg>