<svg width="32" height="32" viewBox="0 0 32 32" xmlns="http://www.w3.org/2000/svg">
  <path d="M8.25 2C6.45507 2 5 3.45508 5 5.25V26.75C5 28.5449 6.45507 30 8.25 30H20V29H8.25C7.00736 29 6 27.9926 6 26.75V5.25C6 4.00736 7.00736 3 8.25 3H23.75C24.9926 3 26 4.00736 26 5.25V20H27V5.25C27 3.45507 25.5449 2 23.75 2H8.25ZM9.5 17.25C10.4665 17.25 11.25 16.4665 11.25 15.5C11.25 14.5335 10.4665 13.75 9.5 13.75C8.5335 13.75 7.75 14.5335 7.75 15.5C7.75 16.4665 8.5335 17.25 9.5 17.25Z" fill="#212121" />
</svg>