<svg width="20" height="20" viewBox="0 0 20 20" fill="none" xmlns="http://www.w3.org/2000/svg">
<path d="M10 2C14.4183 2 18 5.58172 18 10C18 14.4183 14.4183 18 10 18C5.58172 18 2 14.4183 2 10C2 5.58172 5.58172 2 10 2ZM7,12.5c-0.41421,0 -0.75,0.3358 -0.75,0.75c0,0.4142 0.33579,0.75 0.75,0.75c0.4142,0 0.75,-0.3358 0.75,-0.75c0,-0.4142 -0.3358,-0.75 -0.75,-0.75zM7,6c-0.24546,0 -0.44961,0.17688 -0.49194,0.41012l-0.00806,0.08988v4.5l0.00806,0.0899c0.04233,0.2332 0.24648,0.4101 0.49194,0.4101c0.2455,0 0.4496,-0.1769 0.4919,-0.4101l0.0081,-0.0899v-4.5l-0.0081,-0.08988c-0.0423,-0.23324 -0.2464,-0.41012 -0.4919,-0.41012z" fill="#212121"/>
</svg>
