<svg width="32" height="32" viewBox="0 0 32 32" xmlns="http://www.w3.org/2000/svg">
  <path d="M25.5,28l-19,0c-2.485,0 -4.5,-2.015 -4.5,-4.5l0,-15c0,-2.485 2.015,-4.5 4.5,-4.5l4.172,0c0.663,0 1.298,0.263 1.767,0.732l2.268,2.268l10.793,0c2.485,0 4.5,2.015 4.5,4.5l0,12c0,2.485 -2.015,4.5 -4.5,4.5Zm3.5,-4.5l0,-12c0,-1.933 -1.567,-3.5 -3.5,-3.5l-10.273,0l-2.753,3.146c-0.475,0.543 -1.161,0.854 -1.882,0.854l-7.592,0l0,11.5c0,1.933 1.567,3.5 3.5,3.5l19,0c1.933,0 3.5,-1.567 3.5,-3.5Zm-26,-15l0,2.5l7.592,0c0.433,0 0.845,-0.187 1.129,-0.512l2.361,-2.699l-2.35,-2.35c-0.281,-0.281 -0.663,-0.439 -1.06,-0.439l-4.172,0c-1.933,0 -3.5,1.567 -3.5,3.5Z" fill="#212121" />
</svg>
