<svg width="20" height="20" viewBox="0 0 20 20" fill="none" xmlns="http://www.w3.org/2000/svg">
<path d="M14.801,8.601c0.449,0.45 0.816,0.982 1.061,1.635l0.938,2.494c0.209,0.563 0.244,1.175 0.102,1.758c-0.143,0.583 -0.457,1.11 -0.902,1.512l-1.22,1.1c-0.611,0.542 -1.404,0.834 -2.22,0.82c-0.515,-0.003 -1.024,-0.104 -1.5,-0.3c-2.184,-0.845 -4.509,-1.266 -6.85,-1.24c-0.218,0.006 -0.433,-0.046 -0.623,-0.152c-0.19,-0.105 -0.348,-0.26 -0.457,-0.448c-0.088,-0.152 -0.134,-0.324 -0.134,-0.5c-0,-0.176 0.046,-0.348 0.134,-0.5c0.323,-0.451 0.733,-0.833 1.205,-1.125c0.472,-0.292 0.997,-0.487 1.545,-0.575l-3.46,-3.45c-0.146,-0.145 -0.261,-0.317 -0.34,-0.507c-0.079,-0.189 -0.119,-0.393 -0.119,-0.598c-0,-0.205 0.04,-0.409 0.119,-0.598c0.079,-0.19 0.194,-0.362 0.34,-0.507c0.136,-0.133 0.296,-0.242 0.47,-0.32c-0.241,-0.255 -0.389,-0.583 -0.42,-0.933c-0.031,-0.349 0.056,-0.698 0.248,-0.992c0.192,-0.293 0.477,-0.514 0.809,-0.625c0.332,-0.112 0.693,-0.108 1.023,0.01c0.069,-0.24 0.2,-0.457 0.38,-0.63c0.144,-0.145 0.315,-0.26 0.504,-0.339c0.189,-0.079 0.391,-0.119 0.596,-0.119c0.204,0 0.407,0.04 0.596,0.119c0.188,0.079 0.36,0.194 0.504,0.339c0.078,-0.177 0.186,-0.34 0.32,-0.48c0.144,-0.145 0.315,-0.26 0.504,-0.339c0.189,-0.079 0.391,-0.119 0.596,-0.119c0.204,0 0.407,0.04 0.596,0.119c0.188,0.079 0.36,0.194 0.504,0.339l5.151,5.151Zm-5.793,-4.433l-0.008,-0.008c-0.112,-0.111 -0.263,-0.174 -0.42,-0.174c-0.078,0 -0.155,0.015 -0.228,0.045c-0.072,0.03 -0.137,0.074 -0.192,0.129c-0.055,0.055 -0.099,0.121 -0.129,0.193c-0.03,0.072 -0.045,0.149 -0.045,0.227c-0,0.158 0.062,0.309 0.174,0.42l0.7,0.65l1.323,1.356l1.252,1.368c0.011,0.041 0.016,0.083 0.016,0.126c0,0.066 -0.013,0.13 -0.039,0.191c-0.026,0.06 -0.064,0.114 -0.112,0.159c-0.045,0.048 -0.099,0.086 -0.16,0.112c-0.06,0.026 -0.125,0.04 -0.19,0.04c-0.066,-0 -0.131,-0.014 -0.191,-0.04c-0.06,-0.026 -0.114,-0.064 -0.159,-0.112l-2.5,-2.49l-0.7,-0.7l-1,-1.06c-0.108,-0.103 -0.251,-0.16 -0.4,-0.16c-0.149,-0 -0.292,0.057 -0.4,0.16c-0.105,0.107 -0.164,0.25 -0.164,0.4c-0,0.15 0.059,0.293 0.164,0.4l2.75,2.75c0.093,0.093 0.145,0.219 0.145,0.35c-0,0.131 -0.052,0.257 -0.145,0.35c-0.093,0.093 -0.219,0.145 -0.35,0.145c-0.132,-0 -0.257,-0.052 -0.35,-0.145l-1.86,-1.85l-1.4,-1.4c-0.105,-0.104 -0.247,-0.163 -0.395,-0.163c-0.148,-0 -0.29,0.059 -0.395,0.163c-0.105,0.107 -0.164,0.25 -0.164,0.4c-0,0.15 0.059,0.293 0.164,0.4l1.07,1.06l2.18,2.19c0.093,0.093 0.145,0.219 0.145,0.35c-0,0.131 -0.052,0.257 -0.145,0.35c-0.093,0.093 -0.219,0.145 -0.35,0.145c-0.132,-0 -0.257,-0.052 -0.35,-0.145l-1.15,-1.14l-1.04,-1.04c-0.105,-0.104 -0.247,-0.163 -0.395,-0.163c-0.148,-0 -0.29,0.059 -0.395,0.163c-0.054,0.049 -0.098,0.11 -0.127,0.177c-0.029,0.067 -0.044,0.14 -0.043,0.213c-0.006,0.081 0.007,0.163 0.036,0.239c0.03,0.076 0.075,0.144 0.134,0.201l4.19,4.15c0.069,0.07 0.116,0.16 0.134,0.257c0.018,0.097 0.008,0.197 -0.031,0.288c-0.038,0.091 -0.103,0.168 -0.185,0.223c-0.083,0.054 -0.18,0.083 -0.278,0.082c-0,-0 -2.15,-0 -2.99,1.35c-0,0.04 0.08,0.11 0.2,0.11c0.046,-0.005 0.093,-0.005 0.14,-0c2.427,-0.003 4.834,0.441 7.1,1.31c0.429,0.202 0.907,0.278 1.378,0.22c0.47,-0.059 0.915,-0.249 1.282,-0.55l1.25,-1.15c0.298,-0.272 0.508,-0.627 0.6,-1.02c0.093,-0.392 0.065,-0.804 -0.08,-1.18l-0.825,-2.193l-0.118,-0.314c-0.192,-0.513 -0.481,-0.93 -0.834,-1.283l-5.095,-5.132Zm0.715,9.779c-0.247,0.123 -0.547,0.022 -0.67,-0.225c-0.124,-0.247 -0.023,-0.547 0.224,-0.67c0.603,-0.301 1.461,-0.436 2.305,-0.295c0.856,0.143 1.742,0.577 2.334,1.466c0.153,0.229 0.091,0.54 -0.139,0.693c-0.229,0.153 -0.54,0.091 -0.693,-0.139c-0.408,-0.611 -1.022,-0.926 -1.666,-1.034c-0.656,-0.109 -1.298,0.005 -1.695,0.204Z" fill="#212121"/>
</svg>
