<svg width="20" height="20" viewBox="0 0 20 20" fill="none" xmlns="http://www.w3.org/2000/svg">
<path d="M9.9615,3.4885l4.5225,4.5225c0.3,0.301 1.02,1.413 1.349,2.256l0.962,2.463c0.449,1.15 0.147,2.458 -0.761,3.296l-1.251,1.153c-1.026,0.947 -2.516,1.013 -3.714,0.521c-2.083,-0.854 -4.698,-1.252 -6.853,-1.236c-0.398,0.003 -0.771,-0.179 -0.997,-0.475c-0.24,-0.314 -0.309,-0.76 -0.055,-1.165c0.595,-0.95 1.592,-1.394 2.372,-1.607c0.177,-0.048 0.347,-0.086 0.505,-0.115l-3.822,-3.822c-0.293,-0.293 -0.293,-0.767 0,-1.06c0.293,-0.293 0.768,-0.293 1.061,0l2.303,2.303c0.19,0.19 0.499,0.19 0.689,-0.001c0.19,-0.19 0.19,-0.499 0,-0.689l-4.053,-4.053c-0.293,-0.293 -0.293,-0.767 0,-1.06c0.293,-0.293 0.768,-0.293 1.061,0l3.989,3.989c0.225,0.225 0.59,0.225 0.815,0c0.225,-0.225 0.225,-0.59 0,-0.815l-3.865,-3.864c-0.293,-0.292 -0.293,-0.767 0,-1.06c0.293,-0.293 0.768,-0.293 1.061,0l3.892,3.891c0.237,0.237 0.621,0.237 0.858,0c0.237,-0.237 0.237,-0.621 0,-0.858l-2.5605,-2.7225c-0.293,-0.292 -0.293,-0.767 0,-1.06c0.293,-0.293 0.768,-0.293 1.061,0c0.286,0.286 0.651,0.604 1.057,0.947c0,0 0.257,0.206 0.374,0.321zM9.723,13.947c0.397,-0.198 1.039,-0.313 1.694,-0.204c0.644,0.108 1.259,0.423 1.666,1.034c0.154,0.23 0.464,0.292 0.694,0.139c0.23,-0.153 0.292,-0.464 0.138,-0.693c-0.592,-0.889 -1.477,-1.323 -2.333,-1.466c-0.845,-0.141 -1.703,-0.006 -2.306,0.295c-0.247,0.123 -0.347,0.423 -0.224,0.67c0.123,0.247 0.423,0.348 0.671,0.225z" style="fill:#212121;fill-rule:nonzero;"/>
</svg>
