<svg width="20" height="20" viewBox="0 0 20 20" fill="none" xmlns="http://www.w3.org/2000/svg">
<path d="M6,11c-0.276,0 -0.5,-0.224 -0.5,-0.5c0,-0.276 0.224,-0.5 0.5,-0.5h1.75c0.276,0 0.5,0.224 0.5,0.5c0,0.276 -0.224,0.5 -0.5,0.5zM12.25,11c-0.276,0 -0.5,-0.224 -0.5,-0.5c0,-0.276 0.224,-0.5 0.5,-0.5h1.75c0.276,0 0.5,0.224 0.5,0.5c0,0.276 -0.224,0.5 -0.5,0.5zM3,13.5c0,1.6569 1.3431,3 3,3h0.9645c0.7956,0 1.5587,-0.3161 2.1213,-0.8787l0.5606,-0.5606c0.1953,-0.1953 0.5119,-0.1953 0.7071,-0.0001l0.5607,0.5607c0.5626,0.5626 1.3257,0.8787 2.1213,0.8787h0.9645c1.6569,0 3,-1.3431 3,-3v-1.5h0.5c0.276,0 0.5,-0.224 0.5,-0.5v-2.5c0,-0.276 -0.224,-0.5 -0.5,-0.5h-0.5c0,-1.6569 -1.3432,-3 -3,-3h-2.25v-1.25c0,-0.276 -0.224,-0.5 -0.5,-0.5h-2.5c-0.276,0 -0.5,0.224 -0.5,0.5v1.25h-2.25c-1.6568,0 -3,1.3431 -3,3h-0.5c-0.276,0 -0.5,0.224 -0.5,0.5v2.5c0,0.276 0.224,0.5 0.5,0.5h0.5z" fill="#212121"/>
</svg>
