<svg width="20" height="20" viewBox="0 0 20 20" fill="none" xmlns="http://www.w3.org/2000/svg">
<path d="M18,10c0,-4.41828 -3.5817,-8 -8,-8c-4.41828,0 -8,3.58172 -8,8c0,4.4183 3.58172,8 8,8c4.4183,0 8,-3.5817 8,-8zM7.50806,8.91012c0.04233,-0.23325 0.24648,-0.41013 0.49194,-0.41013c0.2455,0 0.4496,0.17688 0.4919,0.41013l0.0081,0.08987v4.50211l-0.0081,0.0899c-0.0423,0.2333 -0.2464,0.4101 -0.4919,0.4101c-0.24546,0 -0.44961,-0.1768 -0.49194,-0.4101l-0.00806,-0.0899v-4.50211zM7.25,6.74999c0,-0.41421 0.33579,-0.75 0.75,-0.75c0.4142,0 0.75,0.33579 0.75,0.75c0,0.41422 -0.3358,0.75 -0.75,0.75c-0.41421,0 -0.75,-0.33578 -0.75,-0.75z" fill="#212121"/>
</svg>
