<svg width="20" height="20" viewBox="0 0 20 20" fill="none" xmlns="http://www.w3.org/2000/svg">
<path d="M8.4921,8.91012c-0.0424,-0.23325 -0.2465,-0.41013 -0.492,-0.41013c-0.27613,0 -0.49999,0.22386 -0.49999,0.5v4.50211l0.00806,0.0899c0.04234,0.2333 0.24648,0.4101 0.49193,0.4101c0.2762,0 0.5,-0.2238 0.5,-0.5v-4.50211zM8.7988,6.74999c0,-0.41421 -0.3358,-0.75 -0.75,-0.75c-0.41419,0 -0.74997,0.33579 -0.74997,0.75c0,0.41422 0.33578,0.75 0.74997,0.75c0.4142,0 0.75,-0.33578 0.75,-0.75zM18,10c0,-4.41828 -3.5817,-8 -8,-8c-4.41828,0 -8,3.58172 -8,8c0,4.4183 3.58172,8 8,8c4.4183,0 8,-3.5817 8,-8zM3,10c0,-3.86599 3.13401,-7 7,-7c3.866,0 7,3.13401 7,7c0,3.866 -3.134,7 -7,7c-3.86599,0 -7,-3.134 -7,-7z" fill="#212121"/>
</svg>
