<svg width="20" height="20" viewBox="0 0 20 20" fill="none" xmlns="http://www.w3.org/2000/svg">
<path d="M10 3.08319L3.4855 6.99188L3.47195 7.00016L10 10.917L16.5279 7.00008L10 3.08319ZM9.97705 11.9996C9.89573 11.9958 9.81512 11.9723 9.74275 11.9288L3 7.88318V13.5001C3 14.3285 3.67157 15.0001 4.5 15.0001H11.4999C11.2815 15.2908 11.125 15.6306 11.05 16.0001H4.5C3.11929 16.0001 2 14.8808 2 13.5001V7.84938C2 7.14685 2.3686 6.49584 2.97101 6.13439L9.73336 2.07698C9.88783 1.97981 10.0901 1.97102 10.2573 2.07133L17.1853 6.22835C17.7678 6.57791 17.7679 7.42223 17.1853 7.77181L15.0925 9.02757C14.2616 9.1404 13.5388 9.59344 13.0691 10.2418L10.2576 11.9288C10.1698 11.9815 10.0722 12.0041 9.97705 11.9996Z" fill="#212121"/>
</svg>
