<svg width="20" height="20" viewBox="0 0 20 20" fill="none" xmlns="http://www.w3.org/2000/svg">
<path d="M8.9992,4v3.5c0,0.2761 -0.2239,0.5 -0.5,0.5h-1.5c-0.5523,0 -1,0.4477 -1,1v1h8v-1c0,-0.5523 -0.4478,-1 -1,-1h-1.5c-0.2762,0 -0.5,-0.2239 -0.5,-0.5v-3.5c0,-0.5523 -0.4477,-1 -1,-1c-0.5523,0 -1,0.4477 -1,1zM14.9992,9v1.4708c0.0005,0.0097 0.0008,0.0194 0.0008,0.0292c0,0.0098 -0.0003,0.0195 -0.0008,0.0292l0.0008,5.4708h-1l-0.0008,-5h-8v0.5c0,1.8184 -0.3896,3.3756 -0.7781,4.4773c-0.1424,0.404 -0.2852,0.7481 -0.4094,1.0227h1.3731l0.0175,-0.0377c0.0912,-0.1976 0.2125,-0.4706 0.3335,-0.773c0.1213,-0.3034 0.2398,-0.63 0.3272,-0.936c0.0896,-0.3137 0.137,-0.5732 0.137,-0.7533c0,-0.2761 0.2239,-0.5 0.5,-0.5c0.2761,0 0.5,0.2239 0.5,0.5c0,0.3199 -0.0776,0.6854 -0.1755,1.028c-0.1001,0.3502 -0.2316,0.7111 -0.3603,1.0327c-0.0624,0.156 -0.1247,0.3042 -0.1833,0.4393h1.2371c0.0538,-0.1152 0.1182,-0.2591 0.1823,-0.4165c0.1676,-0.4116 0.2964,-0.8293 0.2964,-1.0835c0,-0.2761 0.2239,-0.5 0.5,-0.5c0.2762,0 0.5,0.2239 0.5,0.5c0,0.4712 -0.2044,1.0534 -0.3702,1.4606l-0.0162,0.0394h3.3897v1c0,0 -4.1737,0.0001 -4.1804,0c0,0 -2.3235,0.0001 -2.3305,0h-2.4891c-0.1801,0 -0.3462,-0.0968 -0.435,-0.2534c-0.0887,-0.1565 -0.0865,-0.3485 0.0057,-0.5029l0.0121,-0.021c0.0093,-0.0162 0.0237,-0.0417 0.0425,-0.0762c0.0375,-0.0689 0.0925,-0.1735 0.1592,-0.3108c0.1334,-0.2747 0.3132,-0.6795 0.4935,-1.1909c0.3612,-1.0243 0.7212,-2.4671 0.7212,-4.1448v-2.5c0,-1.1046 0.8954,-2 2,-2h1v-3c0,-1.1046 0.8954,-2 2,-2c1.1045,0 2,0.8954 2,2v3h1c1.1045,0 2,0.8954 2,2z" fill="#212121"/>
</svg>
