<svg width="20" height="20" viewBox="0 0 20 20" fill="none" xmlns="http://www.w3.org/2000/svg">
<path d="M8.25,3h-2.25c-1.6569,0 -3,1.3432 -3,3v1.25c0,0.4142 0.3358,0.75 0.75,0.75c0.4142,0 0.75,-0.3358 0.75,-0.75v-1.25c0,-0.8284 0.6716,-1.5 1.5,-1.5h2.25c0.4142,0 0.75,-0.3358 0.75,-0.75c0,-0.4142 -0.3358,-0.75 -0.75,-0.75zM12.75,17c-0.4141,0 -0.75,-0.3358 -0.75,-0.75c0,-0.4142 0.3359,-0.75 0.75,-0.75h1.25c0.8285,0 1.5,-0.6715 1.5,-1.5v-2.25c0,-0.4141 0.3358,-0.75 0.75,-0.75c0.4142,0 0.75,0.3359 0.75,0.75v2.25c0,1.6569 -1.3431,3 -3,3zM17,8.25c0,0.4142 -0.3358,0.75 -0.75,0.75c-0.4142,0 -0.75,-0.3358 -0.75,-0.75v-2.25c0,-0.8284 -0.6715,-1.5 -1.5,-1.5h-2.25c-0.4141,0 -0.75,-0.3358 -0.75,-0.75c0,-0.4142 0.3359,-0.75 0.75,-0.75h2.25c1.6569,0 3,1.3432 3,3z" fill="#212121"/>
</svg>
