<svg width="20" height="20" viewBox="0 0 20 20" fill="none" xmlns="http://www.w3.org/2000/svg">
<path d="M8.5,3h-2.5c-1.6569,0 -3,1.3432 -3,3v1.5c0,0.2761 0.2239,0.5 0.5,0.5c0.2761,0 0.5,-0.2239 0.5,-0.5v-1.5c0,-1.1046 0.8954,-2 2,-2h2.5c0.2761,0 0.5,-0.2239 0.5,-0.5c0,-0.2761 -0.2239,-0.5 -0.5,-0.5zM12.5,17c-0.2761,0 -0.5,-0.2239 -0.5,-0.5c0,-0.2761 0.2239,-0.5 0.5,-0.5h1.5c1.1046,0 2,-0.8954 2,-2v-2.5c0,-0.2761 0.2239,-0.5 0.5,-0.5c0.2761,0 0.5,0.2239 0.5,0.5v2.5c0,1.6569 -1.3431,3 -3,3zM17,8.5c0,0.2761 -0.2239,0.5 -0.5,0.5c-0.2761,0 -0.5,-0.2239 -0.5,-0.5v-2.5c0,-1.1046 -0.8954,-2 -2,-2h-2.5c-0.2761,0 -0.5,-0.2239 -0.5,-0.5c0,-0.2761 0.2239,-0.5 0.5,-0.5h2.5c1.6569,0 3,1.3432 3,3z" fill="#212121"/>
</svg>
