<svg width="20" height="20" viewBox="0 0 20 20" fill="none" xmlns="http://www.w3.org/2000/svg">
<path d="M2 7C2 5.34315 3.34315 4 5 4H15C16.6569 4 18 5.34315 18 7V10.3411C17.4625 9.53275 16.5435 9 15.5 9C13.8431 9 12.5 10.3431 12.5 12C12.5 12.7733 12.7926 13.4782 13.273 14.0102C12.166 14.1098 11.267 14.9311 11.05 16H5C3.34315 16 2 14.6569 2 13V7ZM6 7.5V12.5C6 12.7761 6.22386 13 6.5 13C6.77614 13 7 12.7761 7 12.5V11H8C9.10457 11 10 10.1046 10 9C10 7.89543 9.10457 7 8 7H6.5C6.22386 7 6 7.22386 6 7.5ZM7 10H8C8.55228 10 9 9.55228 9 9C9 8.44772 8.55228 8 8 8H7V10Z" fill="#212121"/>
</svg>
