<svg width="20" height="20" viewBox="0 0 20 20" fill="none" xmlns="http://www.w3.org/2000/svg">
<path d="M15,7c1.6569,0 3,1.34315 3,3v4c0,1.65685 -1.34315,3 -3,3h-10c-1.65685,0 -3,-1.3431 -3,-3v-4c0,-1.65685 1.34315,-3 3,-3zM5,8c-1.10457,0 -2,0.89543 -2,2v4c0,1.10457 0.8954,2 2,2h10c1.10457,0 2,-0.89543 2,-2v-4c0,-1.10457 -0.8954,-2 -2,-2zM9.5 12C9.77614 12 10 12.2239 10 12.5C10 12.7761 9.77614 13 9.5 13H5.5C5.22386 13 5 12.7761 5 12.5C5 12.2239 5.22386 12 5.5 12H9.5ZM11.5 10C11.7761 10 12 10.2239 12 10.5C12 10.7761 11.7761 11 11.5 11H5.5C5.22386 11 5 10.7761 5 10.5C5 10.2239 5.22386 10 5.5 10H11.5ZM16.5 3C17.3284 3 18 3.67157 18 4.5C18 5.32843 17.3284 6 16.5 6H3.5C2.67157 6 2 5.32843 2 4.5C2 3.67157 2.67157 3 3.5 3H16.5Z" fill="#212121"/>
</svg>
