<svg width="20" height="20" viewBox="0 0 20 20" fill="none" xmlns="http://www.w3.org/2000/svg">
<path d="M16,16v-12c0,-1.1046 -0.8954,-2 -2,-2h-8c-1.1046,0 -2,0.8954 -2,2v12c0,1.1046 0.8954,2 2,2h8c1.1046,0 2,-0.8954 2,-2zM9.5,9h4c0.2761,0 0.5,0.2239 0.5,0.5c0,0.2761 -0.2239,0.5 -0.5,0.5h-4c-0.2761,0 -0.5,-0.2239 -0.5,-0.5c0,-0.2761 0.2239,-0.5 0.5,-0.5zM13.5,5c0.2761,0 0.5,0.2239 0.5,0.5c0,0.2761 -0.2239,0.5 -0.5,0.5h-4c-0.2761,0 -0.5,-0.2239 -0.5,-0.5c0,-0.2761 0.2239,-0.5 0.5,-0.5zM9.5,13h4c0.2761,0 0.5,0.2239 0.5,0.5c0,0.2761 -0.2239,0.5 -0.5,0.5h-4c-0.2761,0 -0.5,-0.2239 -0.5,-0.5c0,-0.2761 0.2239,-0.5 0.5,-0.5zM7,6.5c-0.5523,0 -1,-0.4477 -1,-1c0,-0.5523 0.4477,-1 1,-1c0.5523,0 1,0.4477 1,1c0,0.5523 -0.4477,1 -1,1zM6,9.5c0,-0.5523 0.4477,-1 1,-1c0.5523,0 1,0.4477 1,1c0,0.5523 -0.4477,1 -1,1c-0.5523,0 -1,-0.4477 -1,-1zM6,13.5c0,-0.5523 0.4477,-1 1,-1c0.5523,0 1,0.4477 1,1c0,0.5523 -0.4477,1 -1,1c-0.5523,0 -1,-0.4477 -1,-1z" fill="#212121"/>
</svg>
