<svg width="20" height="20" viewBox="0 0 20 20" fill="none" xmlns="http://www.w3.org/2000/svg">
<path d="M5.99994 2C6.206 1.99982 6.39106 2.12607 6.46607 2.31799L9.96631 11.2738C10.0668 11.531 9.93982 11.821 9.68262 11.9215C9.42542 12.022 9.13544 11.895 9.03491 11.6378L8.00516 9.00305H4.00814L2.96614 11.6827C2.86607 11.9401 2.5763 12.0676 2.31893 11.9675C2.06156 11.8675 1.93405 11.5777 2.03413 11.3203L5.53436 2.31879C5.60904 2.12675 5.79389 2.00018 5.99994 2ZM6.00156 3.87659L4.39699 8.00305H7.61432L6.00156 3.87659ZM11.5002 2C11.7764 2 12.0002 2.22386 12.0002 2.5V6.02297H12.0038C12.2292 5.61729 12.538 5.29951 12.9301 5.06962C13.3268 4.83974 13.7708 4.72479 14.2621 4.72479C15.1501 4.72479 15.8668 5.0561 16.4122 5.71871C16.9576 6.38132 17.2303 7.26254 17.2303 8.36239C17.2303 8.50371 17.2258 8.64142 17.2169 8.77551L17.1732 8.73175C16.8422 8.40076 16.4416 8.18217 16.0186 8.07574C15.9798 7.4114 15.8022 6.87364 15.4859 6.46245C15.1253 5.99367 14.634 5.75928 14.0119 5.75928C13.4124 5.75928 12.9211 6.00043 12.538 6.48274C12.2467 6.85028 12.0675 7.30585 12.0002 7.84944V8.87809C12.0532 9.30828 12.1756 9.68305 12.3675 10.0024L11.0002 11.3696V2.5C11.0002 2.22386 11.2241 2 11.5002 2Z" fill="#212121"/>
</svg>
