<svg width="20" height="20" viewBox="0 0 20 20" xmlns="http://www.w3.org/2000/svg">
  <path d="M17.25,11.5l0,4.75c0,0.414 -0.336,0.75 -0.75,0.75c-0.414,0 -0.75,-0.336 -0.75,-0.75l0,-4.75l1.5,0Zm-5.132,0l-0.062,0.93l2.132,-0.177c0.412,-0.035 0.775,0.272 0.809,0.685c0.035,0.412 -0.272,0.775 -0.685,0.809l-3,0.25c-0.217,0.019 -0.432,-0.059 -0.588,-0.212c-0.156,-0.153 -0.237,-0.367 -0.222,-0.585l0.113,-1.7l1.503,0Zm-2.618,0l-0,4.75c-0,0.414 -0.336,0.75 -0.75,0.75c-0.414,0 -0.75,-0.336 -0.75,-0.75l-0,-4.75l1.5,0Zm-3.011,0c-0.62,1.005 -1.685,1.727 -3.373,1.991c-0.409,0.064 -0.793,-0.216 -0.857,-0.625c-0.064,-0.409 0.216,-0.793 0.625,-0.857c0.659,-0.103 1.153,-0.282 1.526,-0.509l2.079,0Zm1.511,-6.75c0,-0.414 0.336,-0.75 0.75,-0.75c0.414,0 0.75,0.336 0.75,0.75l0,4.25l-1.5,0l0,-4.25Zm3.002,0.95c0.027,-0.413 0.385,-0.726 0.798,-0.698c0.413,0.027 0.726,0.385 0.698,0.798l-0.213,3.2l-1.503,0l0.22,-3.3Zm4.748,-0.95c-0,-0.414 0.336,-0.75 0.75,-0.75c0.414,0 0.75,0.336 0.75,0.75l-0,4.25l-1.5,0l-0,-4.25Zm-10.013,3.75l-2.737,0c-0.414,0 -0.75,-0.336 -0.75,-0.75c-0,-0.414 0.336,-0.75 0.75,-0.75l3.5,0c0.414,0 0.75,0.336 0.75,0.75c-0,0.388 -0.005,0.813 -0.039,1.25l-1.507,0c0.016,-0.163 0.026,-0.329 0.033,-0.5Z" fill="#212121" />
</svg>
