<svg width="20" height="20" viewBox="0 0 20 20" fill="none" xmlns="http://www.w3.org/2000/svg">
<path d="M18,5.75c0,-0.41421 -0.3358,-0.75 -0.75,-0.75h-14.5c-0.41422,0 -0.75,0.33579 -0.75,0.75c0,0.41421 0.33579,0.75 0.75,0.75h14.5c0.4142,0 0.75,-0.33579 0.75,-0.75zM18,8.75c0,-0.41421 -0.3358,-0.75 -0.75,-0.75h-14.5c-0.41422,0 -0.75,0.33579 -0.75,0.75c0,0.41421 0.33579,0.75 0.75,0.75h14.5c0.4142,0 0.75,-0.33579 0.75,-0.75zM18,11.75c0,-0.41421 -0.3358,-0.75 -0.75,-0.75h-14.5c-0.41422,0 -0.75,0.33579 -0.75,0.75c0,0.41421 0.33579,0.75 0.75,0.75h14.5c0.4142,0 0.75,-0.33579 0.75,-0.75zM18,14.75c0,-0.41421 -0.3358,-0.75 -0.75,-0.75h-14.5c-0.41422,0 -0.75,0.33579 -0.75,0.75c0,0.41421 0.33579,0.75 0.75,0.75h14.5c0.4142,0 0.75,-0.33579 0.75,-0.75z" fill="#212121"/>
</svg>
