<svg width="20" height="20" viewBox="0 0 20 20" fill="none" xmlns="http://www.w3.org/2000/svg">
<path d="M18,5.5c0,-0.27614 -0.2239,-0.5 -0.5,-0.5h-15c-0.27614,0 -0.5,0.22386 -0.5,0.5c0,0.27614 0.22386,0.5 0.5,0.5h15c0.2761,0 0.5,-0.22386 0.5,-0.5zM18,8.5c0,-0.27614 -0.2239,-0.5 -0.5,-0.5h-15c-0.27614,0 -0.5,0.22386 -0.5,0.5c0,0.27614 0.22386,0.5 0.5,0.5h15c0.2761,0 0.5,-0.22386 0.5,-0.5zM18,11.5c0,-0.27614 -0.2239,-0.5 -0.5,-0.5h-15c-0.27614,0 -0.5,0.22386 -0.5,0.5c0,0.27614 0.22386,0.5 0.5,0.5h15c0.2761,0 0.5,-0.22386 0.5,-0.5zM18,14.5c0,-0.27614 -0.2239,-0.5 -0.5,-0.5h-15c-0.27614,0 -0.5,0.22386 -0.5,0.5c0,0.27614 0.22386,0.5 0.5,0.5h15c0.2761,0 0.5,-0.22386 0.5,-0.5z" fill="#212121"/>
</svg>
