<svg width="20" height="20" viewBox="0 0 20 20" xmlns="http://www.w3.org/2000/svg">
  <path d="M17.5,11l0,5.5c0,0.276 -0.224,0.5 -0.5,0.5c-0.276,0 -0.5,-0.224 -0.5,-0.5l0,-5.5l1,0Zm-5.878,0l-0.084,1.218l3.683,-0.217c0.275,-0.016 0.512,0.194 0.528,0.47c0.016,0.275 -0.194,0.512 -0.47,0.528l-4.25,0.25c-0.143,0.009 -0.283,-0.045 -0.384,-0.147c-0.101,-0.102 -0.154,-0.243 -0.144,-0.386l0.119,-1.716l1.002,-0Zm-2.122,-0l0,5.5c0,0.276 -0.224,0.5 -0.5,0.5c-0.276,0 -0.5,-0.224 -0.5,-0.5l0,-5.5l1,0Zm-2.924,0c-0.681,0.988 -1.792,1.727 -3.499,1.994c-0.273,0.043 -0.528,-0.144 -0.571,-0.417c-0.043,-0.273 0.144,-0.528 0.417,-0.571c1.069,-0.167 1.812,-0.534 2.333,-1.006l1.32,0Zm2.424,-7c0.276,0 0.5,0.224 0.5,0.5l0,4.5l-1,0l0,-4.5c0,-0.276 0.224,-0.5 0.5,-0.5Zm-1.629,5l-1.02,0c0.072,-0.325 0.115,-0.661 0.135,-1l-3.486,0c-0.276,0 -0.5,-0.224 -0.5,-0.5c0,-0.276 0.224,-0.5 0.5,-0.5l4,0c0.276,0 0.5,0.224 0.5,0.5c0,0.481 -0.034,0.991 -0.129,1.5Zm3.386,0l0.244,-3.534c0.019,-0.276 0.258,-0.484 0.533,-0.465c0.276,0.019 0.484,0.258 0.465,0.533l-0.239,3.466l-1.003,0Zm5.743,0l0,-4.5c0,-0.276 0.224,-0.5 0.5,-0.5c0.276,0 0.5,0.224 0.5,0.5l0,4.5l-1,0Z" fill="#212121" />
</svg>
