<svg width="20" height="20" viewBox="0 0 20 20" fill="none" xmlns="http://www.w3.org/2000/svg">
  <path d="M2,11.75c0,-4.556 3.694,-8.25 8.25,-8.25l2.75,0c1.381,0 2.5,1.119 2.5,2.5l0,7.5l1.5,0l0,-1.5c0,-0.276 0.224,-0.5 0.5,-0.5c0.276,0 0.5,0.224 0.5,0.5l0,4c0,0.276 -0.224,0.5 -0.5,0.5c-0.276,0 -0.5,-0.224 -0.5,-0.5l0,-1.5l-12.25,0c-1.518,0 -2.75,-1.232 -2.75,-2.75Zm11,-4.75c0,-0.552 -0.448,-1 -1,-1l-1.5,0c-0.552,0 -1,0.448 -1,1l0,1.5c0,0.552 0.448,1 1,1l1.5,0c0.552,0 1,-0.448 1,-1l0,-1.5Z" fill="#212121"/>
</svg>
