<svg width="20" height="20" viewBox="0 0 20 20" fill="none" xmlns="http://www.w3.org/2000/svg">
  <path d="M2,11.75c0,-4.556 3.694,-8.25 8.25,-8.25l2.75,0c1.381,0 2.5,1.119 2.5,2.5l0,7.5l1.5,0l0,-1.5c0,-0.276 0.224,-0.5 0.5,-0.5c0.276,0 0.5,0.224 0.5,0.5l0,4c0,0.276 -0.224,0.5 -0.5,0.5c-0.276,0 -0.5,-0.224 -0.5,-0.5l0,-1.5l-12.25,-0c-1.518,-0 -2.75,-1.232 -2.75,-2.75Zm2.75,1.75l9.75,-0l0,-7.5c0,-0.828 -0.672,-1.5 -1.5,-1.5l-2.75,-0c-4.004,0 -7.25,3.246 -7.25,7.25c0,0.966 0.784,1.75 1.75,1.75Zm8.25,-6.5l0,2.5c0,0.552 -0.448,1 -1,1l-2.5,0c-0.552,0 -1,-0.448 -1,-1l0,-2.5c0,-0.552 0.448,-1 1,-1l2.5,0c0.552,0 1,0.448 1,1Zm-3.5,0l0,2.5l2.5,-0l-0,-2.5l-2.5,0Z" fill="#212121"/>
</svg>
