<svg width="20" height="20" viewBox="0 0 20 20" xmlns="http://www.w3.org/2000/svg">
  <path d="M6.76512,7.07608c-0.15413,-0.09639 -0.34843,-0.10154 -0.50744,-0.01344c-0.15901,0.08811 -0.25768,0.25557 -0.25768,0.43736v5.15c0,0.1841 0.10118,0.3533 0.26337,0.4405c0.1622,0.0871 0.35915,0.078 0.51266,-0.0236l3.99997,-2.6484c0.1418,-0.0939 0.2262,-0.2534 0.224,-0.42342c-0.0022,-0.17003 -0.0907,-0.32728 -0.2349,-0.41744zM4.5,3c-1.38071,0 -2.5,1.11929 -2.5,2.5v9c0,1.3807 1.11929,2.5 2.5,2.5h11c1.3807,0 2.5,-1.1193 2.5,-2.5v-9c0,-1.38071 -1.1193,-2.5 -2.5,-2.5zM3,5.5c0,-0.82843 0.67157,-1.5 1.5,-1.5h11c0.8284,0 1.5,0.67157 1.5,1.5v9c0,0.8284 -0.6716,1.5 -1.5,1.5h-11c-0.82843,0 -1.5,-0.6716 -1.5,-1.5z" fill="#212121" />
</svg>