<svg width="20" height="20" viewBox="0 0 20 20" fill="none" xmlns="http://www.w3.org/2000/svg">
<path d="M3,7.5c0,-1.38071 1.11929,-2.5 2.5,-2.5h4c1.38071,0 2.5,1.11929 2.5,2.5v5c0,1.3807 -1.11929,2.5 -2.5,2.5h-4c-1.38071,0 -2.5,-1.1193 -2.5,-2.5zM15.0355,13.7782l-2.1356,-1.4746c0.013,-0.0921 0.0198,-0.1863 0.0198,-0.2821v-4.04103c0,-0.09584 -0.0068,-0.1901 -0.0198,-0.28234l2.1356,-1.4746c0.8292,-0.57252 1.9603,0.021 1.9603,1.02863v5.49744c0,1.0076 -1.1311,1.6011 -1.9603,1.0286z" fill="#212121"/>
</svg>
