<svg width="20" height="20" viewBox="0 0 20 20" fill="none" xmlns="http://www.w3.org/2000/svg">
<path d="M9.56195,3.26181c0.18914,-0.3491 0.69015,-0.34908 0.87925,0.00005l6.5006,12.00094c0.1804,0.3331 -0.0608,0.7381 -0.4397,0.7381h-13.00268c-0.37891,0 -0.62012,-0.405 -0.43962,-0.7382zM11.3205,2.78557c-0.5673,-1.04736 -2.07036,-1.04744 -2.63779,-0.00013l-6.50215,12.00096c-0.54151,0.9994 0.18214,2.2145 1.31886,2.2145h13.00268c1.1367,0 1.8603,-1.2149 1.3189,-2.2144zM8.5,9c0,-0.27614 -0.2239,-0.5 -0.5,-0.5c-0.27614,0 -0.5,0.22386 -0.5,0.5v3c0,0.2761 0.22386,0.5 0.5,0.5c0.2761,0 0.5,-0.2239 0.5,-0.5zM8.75,14.25c0,-0.4142 -0.3358,-0.75 -0.75,-0.75c-0.41421,0 -0.75,0.3358 -0.75,0.75c0,0.4142 0.33579,0.75 0.75,0.75c0.4142,0 0.75,-0.3358 0.75,-0.75z" fill="#212121"/>
</svg>
