<svg width="20" height="20" viewBox="0 0 20 20" fill="none" xmlns="http://www.w3.org/2000/svg">
<path d="M8.68149,2.78544c0.56743,-1.04731 2.07051,-1.04723 2.63781,0.00013l6.5005,12.00093c0.5414,0.9995 -0.1823,2.2144 -1.3189,2.2144h-13.0027c-1.13673,0 -1.86037,-1.2151 -1.31886,-2.2145zM8,9c0,-0.27614 -0.2239,-0.5 -0.5,-0.5c-0.27614,0 -0.5,0.22386 -0.5,0.5v3.5c0,0.2761 0.22386,0.5 0.5,0.5c0.2761,0 0.5,-0.2239 0.5,-0.5zM8.25,14.75c0,-0.4142 -0.3358,-0.75 -0.75,-0.75c-0.41421,0 -0.75,0.3358 -0.75,0.75c0,0.4142 0.33579,0.75 0.75,0.75c0.4142,0 0.75,-0.3358 0.75,-0.75z" fill="#212121"/>
</svg>
