<svg width="48" height="48" viewBox="0 0 48 48" fill="none" xmlns="http://www.w3.org/2000/svg">
<path d="M8.25,6h31.5c0.6904,0 1.25,0.5596 1.25,1.25v24.5c0,0.6904 -0.5596,1.25 -1.25,1.25h-30.25v7.75c0,0.6904 -0.5596,1.25 -1.25,1.25c-0.6904,0 -1.25,-0.5596 -1.25,-1.25v-33.5c0,-0.6904 0.5596,-1.25 1.25,-1.25zM15,8.5h-3l10.5,10.5l-11.5,11.5h3l11.5,-11.5zM17,30.5h3.2322l11.5,-11.5l-10.5,-10.5h-3.2322l10.5,10.5zM9.5,9v20l10,-10zM11,19c0,-1.3807 1.1193,-2.5 2.5,-2.5c1.3807,0 2.5,1.1193 2.5,2.5c0,1.3807 -1.1193,2.5 -2.5,2.5c-1.3807,0 -2.5,-1.1193 -2.5,-2.5zM13.5,17.5c-0.8284,0 -1.5,0.6716 -1.5,1.5c0,0.8284 0.6716,1.5 1.5,1.5c0.8284,0 1.5,-0.6716 1.5,-1.5c0,-0.8284 -0.6716,-1.5 -1.5,-1.5zM31.2678,23l-4,4h11.2322v-4zM32.2678,16l2.1161,2.1161c0.244,0.2441 0.3661,0.564 0.3661,0.8839h3.75v-3zM38.5,12v-3.5h-13.7322l3.5,3.5z" fill="#212121"/>
</svg>
