<svg width="48" height="48" viewBox="0 0 48 48" fill="none" xmlns="http://www.w3.org/2000/svg">
<path d="M8.25,6h31.5c0.6904,0 1.25,0.5596 1.25,1.25v24.5c0,0.6904 -0.5596,1.25 -1.25,1.25h-30.25v7.75c0,0.6904 -0.5596,1.25 -1.25,1.25c-0.6904,0 -1.25,-0.5596 -1.25,-1.25v-33.5c0,-0.6904 0.5596,-1.25 1.25,-1.25zM10,30.5h3.2314l11.4999,-11.5l-10.5,-10.5h-3.2313l10.5,10.5zM9.5,28l9,-9l-9,-9v3l6,6l-6,6zM24.2669,23l-4,4h18.2331v-4zM25.2669,16l2.1161,2.1161c0.2441,0.2441 0.3661,0.564 0.3661,0.8839h10.7509v-3zM38.5,12v-3.5h-20.7331l3.5,3.5z" fill="#212121"/>
</svg>
