<svg width="20" height="20" viewBox="0 0 20 20" fill="none" xmlns="http://www.w3.org/2000/svg">
<path d="M9.5,9.5v-2.5c0,-0.27614 0.22386,-0.5 0.5,-0.5c0.2761,0 0.5,0.22386 0.5,0.5v2.5h2.5c0.2761,0 0.5,0.22386 0.5,0.5c0,0.2761 -0.2239,0.5 -0.5,0.5h-2.5v2.5c0,0.2761 -0.2239,0.5 -0.5,0.5c-0.27614,0 -0.5,-0.2239 -0.5,-0.5v-2.5h-2.5c-0.27614,0 -0.5,-0.2239 -0.5,-0.5c0,-0.27614 0.22386,-0.5 0.5,-0.5zM8.0268,16.4042l0.0199,-0.0075v-0.0002l0.0001,0.0002c0.1586,-0.0646 0.3407,-0.0157 0.4458,0.1194l0.9382,1.2063c0.2885,0.3708 0.8491,0.3707 1.1375,-0.0001l0.9382,-1.2062c0.105,-0.1351 0.2872,-0.184 0.4457,-0.1195l1.4157,0.5756c0.4353,0.1769 0.9207,-0.1034 0.9851,-0.5688l0.2094,-1.5137c0.0234,-0.1695 0.1568,-0.3029 0.3263,-0.3264l1.5138,-0.2093c0.4654,-0.0644 0.7456,-0.5498 0.5687,-0.9851l-0.5594,-1.376l-0.0086,-0.0198l-0.0075,-0.0198v0v-0.0001c-0.0645,-0.1585 -0.0157,-0.3406 0.1194,-0.4458c0.0001,0 1.2063,-0.9381 1.2063,-0.9381c0.3709,-0.2884 0.3709,-0.8491 -0.0001,-1.1376l-1.2061,-0.9381c-0.1352,-0.1051 -0.184,-0.2873 -0.1195,-0.4459l0.5755,-1.4156c0.1769,-0.4352 -0.1032,-0.9206 -0.5687,-0.9851l-1.5138,-0.2093c-0.1695,-0.0235 -0.3029,-0.1568 -0.3263,-0.3263l-0.2094,-1.5138c-0.0644,-0.4654 -0.5497,-0.7457 -0.9851,-0.5688l-1.4156,0.5756c-0.1586,0.0644 -0.3407,0.0157 -0.4458,-0.1194l-0.9382,-1.2063c-0.2884,-0.3709 -0.8491,-0.3709 -1.1376,0l-0.9381,1.2062c-0.1051,0.1351 -0.2872,0.1839 -0.4458,0.1195c-0.0001,-0.0001 -1.4156,-0.5756 -1.4156,-0.5756c-0.4352,-0.1769 -0.9207,0.1033 -0.9852,0.5688l-0.2093,1.5137c-0.0235,0.1696 -0.1568,0.3029 -0.3264,0.3264l-1.5137,0.2093c-0.4655,0.0645 -0.7457,0.5499 -0.5687,0.9852l0.5755,1.4155c0.0645,0.1586 0.0157,0.3408 -0.1195,0.4459l-1.2062,0.9382c-0.3709,0.2885 -0.3709,0.8491 0,1.1375l1.2062,0.9381c0.1351,0.1051 0.184,0.2873 0.1195,0.4458l-0.5756,1.4157c-0.1769,0.4353 0.1033,0.9206 0.5688,0.9851l1.5137,0.2093c0.1696,0.0235 0.3029,0.1569 0.3264,0.3264l0.2093,1.5138c0.0645,0.4653 0.5498,0.7456 0.9852,0.5687l1.3758,-0.5594zM9.9995,3.1762l0.7176,0.9226c0.3798,0.4885 1.0384,0.6651 1.6119,0.4319l1.0827,-0.4402l0.1601,1.1578c0.0846,0.6129 0.5668,1.0951 1.1799,1.1799l1.1578,0.1602l-0.4402,1.0827c-0.2331,0.5734 -0.0566,1.2319 0.4319,1.6118l0.9226,0.7176l-0.9228,0.7177c-0.4885,0.3801 -0.6647,1.0387 -0.4316,1.6117l0.0084,0.0194l0.0077,0.0202l0.424,1.0431l-1.1579,0.1602c-0.613,0.0848 -1.0952,0.5672 -1.1798,1.1802l-0.1601,1.1575l-1.0827,-0.4402c-0.5732,-0.2332 -1.232,-0.0567 -1.612,0.432l-0.7175,0.9225l-0.7176,-0.9226c-0.38,-0.4886 -1.0386,-0.6651 -1.612,-0.4318v0v0l-0.0193,0.0084l-0.0202,0.0077l-1.043,0.424l-0.1601,-1.1578c-0.0848,-0.6129 -0.5668,-1.0951 -1.1799,-1.1799l-1.1579,-0.1602l0.4402,-1.0827c0.2331,-0.573 0.0569,-1.2316 -0.4317,-1.6118l-0.9227,-0.7176l0.9225,-0.7175c0.4886,-0.38 0.6651,-1.0385 0.4319,-1.6119l-0.4402,-1.0827l1.1578,-0.1602c0.6131,-0.0848 1.0952,-0.5668 1.18,-1.1799l0.1601,-1.1578l1.0827,0.4402c0.5734,0.2331 1.2319,0.0567 1.6119,-0.4319z" fill="#212121"/>
</svg>
