<svg width="20" height="20" viewBox="0 0 20 20" fill="none" xmlns="http://www.w3.org/2000/svg">
<path d="M8.782,11.7104l-2.1424,-0.0726l-0.9574,1.6761c-0.2424,0.4243 -0.6936,0.6861 -1.1822,0.6861c-0.5523,0 -1,-0.4477 -1,-1v-1.4664l-0.1613,-0.0121c-0.7576,-0.0963 -1.3387,-0.7429 -1.3387,-1.5215c0,-0.7786 0.5811,-1.4252 1.3379,-1.5215l0.1621,-0.0121v-1.4664c0,-0.5523 0.4477,-1 1,-1c0.4886,0 0.9398,0.2618 1.1822,0.686l0.9573,1.6752l2.1425,-0.0716l-0.6119,-4.8972c-0.0848,-0.6789 0.3967,-1.298 1.0755,-1.3828l0.0767,-0.0072l0.1793,-0.0024c0.6352,0 1.2103,0.3761 1.4648,0.9581l2.2658,5.183l2.752,-0.0909c1.0278,-0.0342 1.8965,0.7331 2.0045,1.7395l0.0102,0.1453l0.0011,0.065c0,1.0774 -0.8734,1.9508 -1.9592,1.9508l-2.8084,-0.0923l-2.266,5.1834c-0.2545,0.582 -0.8296,0.9581 -1.4648,0.9581l-0.1793,-0.0024l-0.0767,-0.0072c-0.6788,-0.0848 -1.1603,-0.7039 -1.0755,-1.3828zM9.91,9.2525l-3.8396,0.1283l-1.2565,-2.1986c-0.0643,-0.1127 -0.1841,-0.1822 -0.3139,-0.1822v2.4317l-0.9839,0.0347c-0.2878,0.0096 -0.5161,0.2457 -0.5161,0.5336c0,0.2879 0.2283,0.524 0.5161,0.5336l0.9839,0.0328v2.4336l0.0763,-0.0081c0.0992,-0.0214 0.1861,-0.0839 0.2376,-0.174l1.2565,-2.1997l3.8396,0.1293l-0.7476,5.9841c-0.0164,0.1309 0.0764,0.2505 0.2073,0.2669l0.1319,0.0015c0.2365,-0.0034 0.4533,-0.1408 0.5486,-0.3588l2.5373,-5.8041l3.4617,0.1137c0.5251,0 0.9508,-0.4257 0.9508,-0.9508l-0.0005,-0.0317c-0.0175,-0.5248 -0.4572,-0.9361 -0.9822,-0.9186l-3.4298,0.1132l-2.5373,-5.8041c-0.0953,-0.218 -0.3121,-0.3554 -0.5486,-0.3588l-0.1319,0.0015c-0.1309,0.0164 -0.2237,0.136 -0.2073,0.2669z" fill="#212121"/>
</svg>
