<svg width="20" height="20" viewBox="0 0 20 20" fill="none" xmlns="http://www.w3.org/2000/svg">
<path d="M12.4497 16.0011C12.2174 17.1415 11.2089 17.9996 10 17.9996C8.79108 17.9996 7.78257 17.1415 7.55033 16.0011H12.4497ZM9.99765 1.99957C13.1466 1.99957 15.7415 4.33445 15.9821 7.35498L15.9955 7.57719L16 7.80171L15.999 11.4076L16.9528 13.9947L16.9784 14.0792L16.9939 14.166L16.9991 14.2541C16.9991 14.5692 16.8034 14.8446 16.4771 14.9614L16.3636 14.9942L16.2491 15.0041H3.75136C3.66286 15.0041 3.57506 14.9885 3.49203 14.9579C3.20513 14.8521 3.01636 14.586 3.00958 14.2418L3.01418 14.1243L3.04762 13.9948L3.99901 11.4106L4.00009 7.79238L4.00439 7.56781C4.12701 4.45072 6.77103 1.99957 9.99765 1.99957ZM17,8C16.724,8 16.5,7.776 16.5,7.5C16.5,7.224 16.724,7 17,7L17.5,7C17.776,7 18,7.224 18,7.5C18,7.776 17.776,8 17.5,8L17,8ZM2.5,8C2.224,8 2,7.776 2,7.5C2,7.224 2.224,7 2.5,7L3,7C3.276,7 3.5,7.224 3.5,7.5C3.5,7.776 3.276,8 3,8L2.5,8ZM17.2,2.851C17.421,2.685 17.734,2.73 17.9,2.951C18.066,3.172 18.021,3.485 17.8,3.651L16.334,4.751C16.113,4.916 15.799,4.871 15.634,4.651C15.468,4.43 15.513,4.116 15.734,3.951L17.2,2.851ZM2.2,3.651C1.979,3.485 1.934,3.172 2.1,2.951C2.266,2.73 2.579,2.685 2.8,2.851L4.266,3.951C4.487,4.116 4.532,4.43 4.366,4.651C4.201,4.871 3.887,4.916 3.666,4.751L2.2,3.651Z" fill="#212121"/>
</svg>
