<svg width="20" height="20" viewBox="0 0 20 20" fill="none" xmlns="http://www.w3.org/2000/svg">
<path d="M5.35328 4.52317C3.7357 4.88178 2.7151 6.48379 3.07371 8.10137L3.1621 8.50009H16.1776L15.4795 5.35108C15.1209 3.7335 13.5188 2.7129 11.9013 3.07151L5.35328 4.52317ZM4.52536 14.6494L3.82718 11.5001H16.8427L16.9311 11.8991C17.2897 13.5167 16.2691 15.1187 14.6516 15.4773L8.10357 16.929C6.48599 17.2876 4.88397 16.267 4.52536 14.6494ZM2,10C2,9.724 2.224,9.5 2.5,9.5L4,9.5C4.276,9.5 4.5,9.724 4.5,10C4.5,10.276 4.276,10.5 4,10.5L2.5,10.5C2.224,10.5 2,10.276 2,10ZM6.5,10C6.5,9.724 6.724,9.5 7,9.5L8.5,9.5C8.776,9.5 9,9.724 9,10C9,10.276 8.776,10.5 8.5,10.5L7,10.5C6.724,10.5 6.5,10.276 6.5,10ZM11.5,9.5C11.224,9.5 11,9.724 11,10C11,10.276 11.224,10.5 11.5,10.5L13,10.5C13.276,10.5 13.5,10.276 13.5,10C13.5,9.724 13.276,9.5 13,9.5L11.5,9.5ZM15.5,10C15.5,9.724 15.724,9.5 16,9.5L17.5,9.5C17.776,9.5 18,9.724 18,10C18,10.276 17.776,10.5 17.5,10.5L16,10.5C15.724,10.5 15.5,10.276 15.5,10Z" fill="#212121"/>
</svg>
