<svg width="20" height="20" viewBox="0 0 20 20" fill="none" xmlns="http://www.w3.org/2000/svg">
    <path d="M16,4c0,-1.1046 -0.8954,-2 -2,-2h-8c-1.1046,0 -2,0.8954 -2,2v0.625c0,1.1046 0.8954,2 2,2h8c1.1046,0 2,-0.8954 2,-2zM14,3c0.5523,0 1,0.4477 1,1v0.625c0,0.5523 -0.4477,1 -1,1h-8c-0.5523,0 -1,-0.4477 -1,-1v-0.625c0,-0.5523 0.4477,-1 1,-1z    M16,15.375c0,-1.1046 -0.8954,-2 -2,-2h-8c-1.1046,0 -2,0.8954 -2,2v0.625c0,1.1046 0.8954,2 2,2h8c1.1046,0 2,-0.8954 2,-2zM14,14.375c0.5523,0 1,0.4477 1,1v0.625c0,0.5523 -0.4477,1 -1,1h-8c-0.5523,0 -1,-0.4477 -1,-1v-0.625c0,-0.5523 0.4477,-1 1,-1z" fill="#212121"/>
</svg>
