<svg width="20" height="20" viewBox="0 0 20 20" fill="none" xmlns="http://www.w3.org/2000/svg">
<path d="M7.7941,7.2353c1.0684,0 1.8235,-0.9817 1.8235,-2.0441c0,-1.0624 -0.7551,-2.0441 -1.8235,-2.0441c-1.0683,0 -1.8235,0.9817 -1.8235,2.0441c0,1.0624 0.7552,2.0441 1.8235,2.0441zM7.7941,4.1471c0.5187,0 0.8235,0.5283 0.8235,1.0441c0,0.5157 -0.3048,1.0441 -0.8235,1.0441c-0.5186,0 -0.8235,-0.5284 -0.8235,-1.0441c0,-0.5158 0.3049,-1.0441 0.8235,-1.0441zM12.2059,7.2353c1.0683,0 1.8235,-0.9817 1.8235,-2.0441c0,-1.0624 -0.7552,-2.0441 -1.8235,-2.0441c-1.0684,0 -1.8235,0.9817 -1.8235,2.0441c0,1.0624 0.7551,2.0441 1.8235,2.0441zM12.2059,4.1471c0.5186,0 0.8235,0.5283 0.8235,1.0441c0,0.5157 -0.3049,1.0441 -0.8235,1.0441c-0.5187,0 -0.8235,-0.5284 -0.8235,-1.0441c0,-0.5158 0.3048,-1.0441 0.8235,-1.0441zM2,7.3971c0,1.0624 0.7552,2.0441 1.8235,2.0441c1.0684,0 1.8236,-0.9817 1.8236,-2.0441c0,-1.0624 -0.7552,-2.0442 -1.8236,-2.0442c-1.0683,0 -1.8235,0.9818 -1.8235,2.0442zM4.6471,7.3971c0,0.5157 -0.3049,1.0441 -0.8236,1.0441c-0.5186,0 -0.8235,-0.5284 -0.8235,-1.0441c0,-0.5158 0.3049,-1.0442 0.8235,-1.0442c0.5187,0 0.8236,0.5284 0.8236,1.0442zM16.1765,9.4412c1.0683,0 1.8235,-0.9817 1.8235,-2.0441c0,-1.0624 -0.7552,-2.0442 -1.8235,-2.0442c-1.0684,0 -1.8236,0.9818 -1.8236,2.0442c0,1.0624 0.7552,2.0441 1.8236,2.0441zM16.1765,6.3529c0.5186,0 0.8235,0.5284 0.8235,1.0442c0,0.5157 -0.3049,1.0441 -0.8235,1.0441c-0.5187,0 -0.8236,-0.5284 -0.8236,-1.0441c0,-0.5158 0.3049,-1.0442 0.8236,-1.0442zM5.7399,15.8317c0.6245,0.4436 1.4344,0.6683 2.2261,0.6683h4.068c0.7917,0 1.6016,-0.2247 2.226,-0.6683c0.6387,-0.4536 1.0929,-1.1464 1.0929,-2.0376c0,-2.9563 -2.3966,-5.3529 -5.3529,-5.3529c-2.9563,0 -5.3529,2.3966 -5.3529,5.3529c0,0.8912 0.4541,1.584 1.0928,2.0376zM10,9.4412c2.4041,0 4.3529,1.9489 4.3529,4.3529c0,0.5376 -0.2867,0.9487 -0.672,1.2223c-0.4611,0.3276 -1.0622,0.4836 -1.6469,0.4836h-4.068c-0.5847,0 -1.1858,-0.156 -1.647,-0.4836c-0.3853,-0.2736 -0.6719,-0.6847 -0.6719,-1.2223c0,-2.404 1.9488,-4.3529 4.3529,-4.3529z" fill="#212121"/>
</svg>
