<svg width="20" height="20" viewBox="0 0 20 20" fill="none" xmlns="http://www.w3.org/2000/svg">
<path d="M7.7941,7.2353c1.0684,0 1.8235,-0.9817 1.8235,-2.0441c0,-1.0624 -0.7551,-2.0441 -1.8235,-2.0441c-1.0683,0 -1.8235,0.9817 -1.8235,2.0441c0,1.0624 0.7552,2.0441 1.8235,2.0441zM12.2059,7.2353c1.0683,0 1.8235,-0.9817 1.8235,-2.0441c0,-1.0624 -0.7552,-2.0441 -1.8235,-2.0441c-1.0684,0 -1.8235,0.9817 -1.8235,2.0441c0,1.0624 0.7551,2.0441 1.8235,2.0441zM2,7.3971c0,1.0624 0.7552,2.0441 1.8235,2.0441c1.0684,0 1.8236,-0.9817 1.8236,-2.0441c0,-1.0624 -0.7552,-2.0442 -1.8236,-2.0442c-1.0683,0 -1.8235,0.9818 -1.8235,2.0442zM16.1765,9.4412c1.0683,0 1.8235,-0.9817 1.8235,-2.0441c0,-1.0624 -0.7552,-2.0442 -1.8235,-2.0442c-1.0684,0 -1.8236,0.9818 -1.8236,2.0442c0,1.0624 0.7552,2.0441 1.8236,2.0441zM5.7399,15.8317c0.6245,0.4436 1.4344,0.6683 2.2261,0.6683h4.068c0.7917,0 1.6016,-0.2247 2.226,-0.6683c0.6387,-0.4536 1.0929,-1.1464 1.0929,-2.0376c0,-2.9563 -2.3966,-5.3529 -5.3529,-5.3529c-2.9563,0 -5.3529,2.3966 -5.3529,5.3529c0,0.8912 0.4541,1.584 1.0928,2.0376z" fill="#212121"/>
</svg>
