<svg width="20" height="20" viewBox="0 0 20 20" fill="none" xmlns="http://www.w3.org/2000/svg">
<path d="M13.3467,8.1398c0.199,0.1915 0.205,0.508 0.0135,0.7069l-3.8499,4c-0.0943,0.098 -0.2244,0.1533 -0.3603,0.1533c-0.1359,0 -0.266,-0.0553 -0.3602,-0.1533l-1.6501,-1.7143c-0.1914,-0.199 -0.1854,-0.5155 0.0136,-0.707c0.1989,-0.1915 0.5155,-0.1855 0.7069,0.0135l1.2898,1.3401l3.4898,-3.6257c0.1915,-0.199 0.508,-0.205 0.7069,-0.0135zM11.2929,5h-1.2929c-3.3115,0 -6,2.6885 -6,6c0,3.3115 2.6885,6 6,6c3.3115,0 6,-2.6885 6,-6c0,-0.276 0.224,-0.5 0.5,-0.5c0.276,0 0.5,0.224 0.5,0.5c0,3.8634 -3.1366,7 -7,7c-3.8634,0 -7,-3.1366 -7,-7c0,-3.8634 3.1366,-7 7,-7h1.2929l-1.1465,-1.1464c-0.1951,-0.1952 -0.1951,-0.512 0,-0.7072c0.1952,-0.1951 0.512,-0.1951 0.7072,0l2,2c0.1952,0.1953 0.1952,0.5119 0,0.7072l-2,2c-0.1952,0.1951 -0.512,0.1951 -0.7072,0c-0.1951,-0.1952 -0.1951,-0.512 0,-0.7072z" fill="#212121"/>
</svg>
