<svg width="20" height="20" viewBox="0 0 20 20" fill="none" xmlns="http://www.w3.org/2000/svg">
<path d="M13.5201,7.9596c0.2984,0.2873 0.3075,0.7621 0.0203,1.0605l-3.85,4c-0.1414,0.1469 -0.3365,0.2299 -0.5404,0.2299c-0.2039,0 -0.399,-0.083 -0.5403,-0.2299l-1.6501,-1.7144c-0.2872,-0.2984 -0.2781,-0.7732 0.0203,-1.0605c0.2985,-0.2872 0.7732,-0.2781 1.0605,0.0203l1.1096,1.153l3.3096,-3.4386c0.2873,-0.2984 0.7621,-0.3075 1.0605,-0.0203zM10.4393,5.5h-0.4393c-3.0355,0 -5.5,2.4645 -5.5,5.5c0,3.0355 2.4645,5.5 5.5,5.5c3.0355,0 5.5,-2.4645 5.5,-5.5c0,-0.4139 0.3361,-0.75 0.75,-0.75c0.4139,0 0.75,0.3361 0.75,0.75c0,3.8634 -3.1366,7 -7,7c-3.8634,0 -7,-3.1366 -7,-7c0,-3.8634 3.1366,-7 7,-7h0.4393l-0.7196,-0.7197c-0.2927,-0.2927 -0.2927,-0.7679 0,-1.0606c0.2927,-0.2927 0.7679,-0.2927 1.0606,0l2,2c0.2929,0.2929 0.2929,0.7677 0,1.0606l-2,2c-0.2927,0.2927 -0.7679,0.2927 -1.0606,0c-0.2927,-0.2927 -0.2927,-0.7679 0,-1.0606z" fill="#212121"/>
</svg>
