<svg width="20" height="20" viewBox="0 0 20 20" fill="none" xmlns="http://www.w3.org/2000/svg">
<path d="M15.999,5.405c0.897,0.518 1.501,1.485 1.501,2.595l0,4.502c0,2.761 -2.239,5 -5,5l-4.5,0c-1.111,0 -2.08,-0.605 -2.597,-1.503l0.097,0.001l6.5,0c2.209,0 4,-1.791 4,-4l0,-6.502l-0.001,-0.093Zm-11.322,1.095c-0.215,-0.723 -0.885,-1.25 -1.677,-1.25c-0.172,0 -0.338,0.025 -0.495,0.071c0.092,-1.574 1.397,-2.823 2.995,-2.823l6.5,0c1.657,0 3,1.343 3,3l0,6.502c0,1.657 -1.343,3 -3,3l-6.5,0c-1.657,0 -3,-1.343 -3,-3l-0,-3.323c0.158,0.048 0.326,0.073 0.5,0.073c0.792,0 1.462,-0.527 1.677,-1.25l0.573,-0c0.834,0 1.607,0.477 2.07,1.256c0.652,1.096 1.755,1.744 2.93,1.744l1.043,0l-1.647,1.647c-0.195,0.195 -0.195,0.511 0,0.707c0.196,0.195 0.512,0.195 0.708,-0l2.5,-2.5c0.093,-0.094 0.146,-0.221 0.146,-0.354c0,-0.133 -0.053,-0.26 -0.146,-0.354l-2.5,-2.5c-0.196,-0.195 -0.512,-0.195 -0.708,0c-0.195,0.196 -0.195,0.512 0,0.708l1.647,1.646l-1.043,0c-0.834,-0 -1.607,-0.477 -2.07,-1.256c-0.652,-1.096 -1.755,-1.744 -2.93,-1.744l-0.573,0Zm-1.677,-0.25c0.414,0 0.75,0.336 0.75,0.75c0,0.414 -0.336,0.75 -0.75,0.75c-0.414,0 -0.75,-0.336 -0.75,-0.75c0,-0.414 0.336,-0.75 0.75,-0.75Z" fill="#212121"/>
</svg>
