<svg width="20" height="20" viewBox="0 0 20 20" fill="none" xmlns="http://www.w3.org/2000/svg">
<path d="M13.03,4.72C13.323,5.013 13.323,5.487 13.03,5.78L10.53,8.28C10.237,8.573 9.763,8.573 9.47,8.28L6.97,5.78C6.677,5.487 6.677,5.013 6.97,4.72C7.263,4.427 7.737,4.427 8.03,4.72L9.25,5.939L9.25,2.75C9.25,2.336 9.586,2 10,2C10.414,2 10.75,2.336 10.75,2.75L10.75,5.939L11.97,4.72C12.263,4.427 12.737,4.427 13.03,4.72ZM4.72,6.97C5.013,6.677 5.487,6.677 5.78,6.97L8.28,9.47C8.573,9.763 8.573,10.237 8.28,10.53L5.78,13.03C5.487,13.323 5.013,13.323 4.72,13.03C4.427,12.737 4.427,12.263 4.72,11.97L5.939,10.75L2.75,10.75C2.336,10.75 2,10.414 2,10C2,9.586 2.336,9.25 2.75,9.25L5.939,9.25L4.72,8.03C4.427,7.737 4.427,7.263 4.72,6.97ZM14.22,6.97C14.513,6.677 14.987,6.677 15.28,6.97C15.573,7.263 15.573,7.737 15.28,8.03L14.061,9.25L17.25,9.25C17.664,9.25 18,9.586 18,10C18,10.414 17.664,10.75 17.25,10.75L14.061,10.75L15.28,11.97C15.573,12.263 15.573,12.737 15.28,13.03C14.987,13.323 14.513,13.323 14.22,13.03L11.72,10.53C11.427,10.237 11.427,9.763 11.72,9.47L14.22,6.97ZM13.03,15.28C13.323,14.987 13.323,14.513 13.03,14.22L10.53,11.72C10.237,11.427 9.763,11.427 9.47,11.72L6.97,14.22C6.677,14.513 6.677,14.987 6.97,15.28C7.263,15.573 7.737,15.573 8.03,15.28L9.25,14.061L9.25,17.25C9.25,17.664 9.586,18 10,18C10.414,18 10.75,17.664 10.75,17.25L10.75,14.061L11.97,15.28C12.263,15.573 12.737,15.573 13.03,15.28Z" fill="#212121"/>
</svg>
