<svg width="20" height="20" viewBox="0 0 20 20" fill="none" xmlns="http://www.w3.org/2000/svg">
<path d="M4,17.5c0,0.2761 -0.2239,0.5 -0.5,0.5c-0.2761,0 -0.5,-0.2239 -0.5,-0.5v-0.5c0,-0.8284 0.6716,-1.5 1.5,-1.5h10c0.8284,0 1.5,0.6716 1.5,1.5v0.5c0,0.2761 -0.2239,0.5 -0.5,0.5c-0.2761,0 -0.5,-0.2239 -0.5,-0.5v-0.5c0,-0.2761 -0.2239,-0.5 -0.5,-0.5h-10c-0.2761,0 -0.5,0.2239 -0.5,0.5zM9.5,14.5c0.2761,0 0.5,-0.2239 0.5,-0.5v-6.7929l3.1464,3.1465c0.1953,0.1952 0.5119,0.1952 0.7072,-0.0001c0.1952,-0.1952 0.1952,-0.5118 0,-0.7071l-4.0001,-4c-0.1952,-0.1952 -0.5118,-0.1952 -0.707,0l-4.0001,4c-0.1952,0.1953 -0.1952,0.5119 0,0.7072c0.1953,0.1952 0.5119,0.1952 0.7071,-0.0001l3.1465,-3.1464v6.7929c0,0.2761 0.2239,0.5 0.5,0.5zM3,3c0,0.8284 0.6716,1.5 1.5,1.5h10c0.8284,0 1.5,-0.6716 1.5,-1.5v-0.5c0,-0.2761 -0.2239,-0.5 -0.5,-0.5c-0.2761,0 -0.5,0.2239 -0.5,0.5v0.5c0,0.2761 -0.2239,0.5 -0.5,0.5h-10c-0.2761,0 -0.5,-0.2239 -0.5,-0.5v-0.5c0,-0.2761 -0.2239,-0.5 -0.5,-0.5c-0.2761,0 -0.5,0.2239 -0.5,0.5z" fill="#212121"/>
</svg>
