<svg width="20" height="20" viewBox="0 0 20 20" fill="none" xmlns="http://www.w3.org/2000/svg">
<path d="M14.5,9.999C14.5,12.484 12.485,14.499 10,14.499C7.515,14.499 5.5,12.484 5.5,9.999C5.5,7.514 7.515,5.499 10,5.499C12.485,5.499 14.5,7.514 14.5,9.999ZM11.853,8.853C12.049,8.658 12.049,8.341 11.853,8.146C11.658,7.951 11.342,7.951 11.146,8.146L10,9.292L8.853,8.146C8.658,7.951 8.342,7.951 8.146,8.146C7.951,8.341 7.951,8.658 8.146,8.853L9.293,9.999L8.146,11.146C7.951,11.341 7.951,11.658 8.146,11.853C8.342,12.048 8.658,12.048 8.853,11.853L10,10.706L11.146,11.853C11.342,12.048 11.658,12.048 11.853,11.853C12.049,11.658 12.049,11.341 11.853,11.146L10.707,9.999L11.853,8.853ZM10.056,4.499c-1.427,-0.014 -2.857,0.523 -3.945,1.611c-2.148,2.148 -2.148,5.63 0,7.778c0.189,0.189 0.388,0.361 0.595,0.517c0.221,0.165 0.266,0.479 0.1,0.7c-0.165,0.221 -0.479,0.265 -0.7,0.1c-0.245,-0.184 -0.48,-0.387 -0.702,-0.61c-2.539,-2.538 -2.539,-6.654 0,-9.192c1.137,-1.137 2.59,-1.765 4.077,-1.883l-0.6666,-0.6666c-0.195,-0.195 -0.195,-0.511 0,-0.707c0.196,-0.195 0.512,-0.195 0.707,0l1.7416,1.7416c0.195,0.195 0.195,0.511 0,0.707l-0.042,0.042l-0.038,-0.009c-0.359,-0.078 -0.76,-0.125 -1.127,-0.129zM9.944,15.501c1.427,0.014 2.857,-0.523 3.945,-1.611c2.148,-2.148 2.148,-5.63 0,-7.778c-0.189,-0.189 -0.388,-0.361 -0.595,-0.517c-0.221,-0.165 -0.266,-0.479 -0.1,-0.7c0.165,-0.221 0.479,-0.265 0.7,-0.1c0.245,0.184 0.48,0.387 0.702,0.61c2.539,2.538 2.539,6.654 0,9.192c-1.137,1.137 -2.59,1.765 -4.077,1.883l0.6666,0.6666c0.195,0.195 0.195,0.511 0,0.707c-0.196,0.195 -0.512,0.195 -0.707,0l-1.7416,-1.7416c-0.195,-0.195 -0.195,-0.511 0,-0.707l0.042,-0.042l0.038,0.009c0.359,0.078 0.76,0.125 1.127,0.129z" fill="#212121"/>
</svg>
