<svg width="20" height="20" viewBox="0 0 20 20" fill="none" xmlns="http://www.w3.org/2000/svg">
<path d="M15.999,5.406c0.897,0.518 1.501,1.486 1.501,2.596l0,4.5c0,2.761 -2.239,5 -5,5l-4.5,0c-1.111,0 -2.079,-0.605 -2.597,-1.503l0.097,0.001l1.177,0c0.352,0.312 0.815,0.502 1.323,0.502l4.5,0c2.209,0 4,-1.791 4,-4l0,-4.5c0,-0.507 -0.189,-0.969 -0.5,-1.321l0,-1.181l-0.001,-0.094Zm-3.999,-2.906c1.657,0 3,1.343 3,3l0,6.5c0,1.657 -1.343,3 -3,3l-6.5,0c-1.657,0 -3,-1.343 -3,-3l0,-3.066c0.16,0.041 0.327,0.066 0.5,0.066c0.173,0 0.34,-0.025 0.5,-0.066l0,3.066c0,1.105 0.895,2 2,2l6.5,0c1.105,0 2,-0.895 2,-2l0,-6.5c0,-1.105 -0.895,-2 -2,-2l-6.5,0c-0.959,0 -1.76,0.676 -1.954,1.577c-0.174,-0.049 -0.357,-0.077 -0.546,-0.077c-0.161,0 -0.318,0.021 -0.468,0.057c0.215,-1.447 1.462,-2.557 2.968,-2.557l6.5,0Zm-7,5l-1.135,0c-0.173,0.299 -0.495,0.5 -0.865,0.5c-0.552,0 -1,-0.448 -1,-1c0,-0.552 0.448,-1 1,-1c0.37,0 0.692,0.201 0.865,0.5l1.135,0c1.175,0 2.278,0.648 2.93,1.744c0.463,0.779 1.236,1.256 2.07,1.256l1.293,0l-1.647,-1.646c-0.195,-0.196 -0.195,-0.512 0,-0.708c0.196,-0.195 0.512,-0.195 0.707,0l2.5,2.5c0.094,0.094 0.147,0.221 0.147,0.354c-0,0.133 -0.053,0.26 -0.147,0.354l-2.5,2.5c-0.195,0.195 -0.511,0.195 -0.707,-0c-0.195,-0.196 -0.195,-0.512 0,-0.707l1.647,-1.647l-1.293,-0c-1.175,-0 -2.278,-0.648 -2.93,-1.744c-0.463,-0.779 -1.236,-1.256 -2.07,-1.256Z" fill="#212121"/>
</svg>
