<svg width="20" height="20" viewBox="0 0 20 20" fill="none" xmlns="http://www.w3.org/2000/svg">
<path d="M15.44,9.4998l-2.963,2.963c-0.2929,0.2929 -0.2929,0.7677 0,1.0606c0.2663,0.2663 0.683,0.2905 0.9766,0.0726l0.0841,-0.0726l4.2426,-4.2426c0.2663,-0.2663 0.2905,-0.683 0.0726,-0.9766l-0.0726,-0.0841l-4.2426,-4.2426c-0.2929,-0.2929 -0.7678,-0.2929 -1.0607,0c-0.2662,0.2662 -0.2904,0.6829 -0.0726,0.9765l0.0726,0.0841l2.963,2.9617l-5.44,0.0007c-4.1979,-0.0001 -7.6163,3.3376 -7.7462,7.5039l-0.0038,0.2461c0,0.4142 0.3358,0.75 0.75,0.75c0.4142,0 0.75,-0.3358 0.75,-0.75c0,-3.3751 2.6752,-6.1254 6.0209,-6.2459l0.2291,-0.0042z" fill="#212121"/>
</svg>
