<svg width="20" height="20" viewBox="0 0 20 20" fill="none" xmlns="http://www.w3.org/2000/svg">
<path d="M14.5,9.999C14.5,12.484 12.485,14.499 10,14.499C7.515,14.499 5.5,12.484 5.5,9.999C5.5,7.514 7.515,5.499 10,5.499C12.485,5.499 14.5,7.514 14.5,9.999ZM12.104,8.396C11.908,8.201 11.592,8.201 11.396,8.396L9,10.792L8.104,9.896C7.908,9.701 7.592,9.701 7.396,9.896C7.201,10.092 7.201,10.408 7.396,10.604L8.646,11.853C8.842,12.048 9.158,12.048 9.354,11.853L12.104,9.104C12.299,8.908 12.299,8.592 12.104,8.396ZM10.056,4.499c-1.427,-0.014 -2.857,0.523 -3.945,1.611c-2.148,2.148 -2.148,5.63 0,7.778c0.189,0.189 0.388,0.361 0.595,0.517c0.221,0.165 0.266,0.479 0.1,0.7c-0.165,0.221 -0.479,0.265 -0.7,0.1c-0.245,-0.184 -0.48,-0.387 -0.702,-0.61c-2.539,-2.538 -2.539,-6.654 0,-9.192c1.137,-1.137 2.59,-1.765 4.077,-1.883l-0.6666,-0.6666c-0.195,-0.195 -0.195,-0.511 0,-0.707c0.196,-0.195 0.512,-0.195 0.707,0l1.7416,1.7416c0.195,0.195 0.195,0.511 0,0.707l-0.042,0.042l-0.038,-0.009c-0.359,-0.078 -0.76,-0.125 -1.127,-0.129zM9.944,15.501c1.427,0.014 2.857,-0.523 3.945,-1.611c2.148,-2.148 2.148,-5.63 0,-7.778c-0.189,-0.189 -0.388,-0.361 -0.595,-0.517c-0.221,-0.165 -0.266,-0.479 -0.1,-0.7c0.165,-0.221 0.479,-0.265 0.7,-0.1c0.245,0.184 0.48,0.387 0.702,0.61c2.539,2.538 2.539,6.654 0,9.192c-1.137,1.137 -2.59,1.765 -4.077,1.883l0.6666,0.6666c0.195,0.195 0.195,0.511 0,0.707c-0.196,0.195 -0.512,0.195 -0.707,0l-1.7416,-1.7416c-0.195,-0.195 -0.195,-0.511 0,-0.707l0.042,-0.042l0.038,0.009c0.359,0.078 0.76,0.125 1.127,0.129z" fill="#212121"/>
</svg>
