<svg width="20" height="20" viewBox="0 0 20 20" fill="none" xmlns="http://www.w3.org/2000/svg">
<path d="M9.402,5.2874c-2.3397,0.2944 -4.152,2.2935 -4.152,4.7126c0,1.4657 0.6655,2.7771 1.7102,3.6488c0.3179,0.2652 0.3606,0.7385 0.0954,1.0563c-0.2652,0.3179 -0.7385,0.3606 -1.0564,0.0954c-1.3744,-1.1467 -2.2492,-2.8723 -2.2492,-4.8005c0,-3.2683 2.5141,-5.9541 5.7122,-6.2271l-0.4925,-0.4926c-0.2929,-0.2929 -0.2929,-0.7677 0,-1.0606c0.2929,-0.2929 0.7678,-0.2929 1.0606,0l1.75,1.75c0.2929,0.2929 0.2929,0.7677 0,1.0606l-1.75,1.75c-0.2928,0.2929 -0.7677,0.2929 -1.0606,0c-0.2929,-0.2929 -0.2929,-0.7677 0,-1.0606zM10.5378,16.2271l0.4925,0.4926c0.2929,0.2929 0.2929,0.7677 0,1.0606c-0.2929,0.2929 -0.7677,0.2929 -1.0606,0l-1.75,-1.75c-0.1407,-0.1406 -0.2197,-0.3314 -0.2197,-0.5303c0,-0.1989 0.079,-0.3897 0.2197,-0.5303l1.75,-1.75c0.2929,-0.2929 0.7677,-0.2929 1.0606,0c0.2929,0.2929 0.2929,0.7677 0,1.0606l-0.4323,0.4324c2.3397,-0.2945 4.152,-2.2936 4.152,-4.7127c0,-1.4657 -0.6655,-2.7771 -1.7102,-3.6488c-0.3179,-0.2652 -0.3606,-0.7385 -0.0954,-1.0563c0.2652,-0.3179 0.7385,-0.3606 1.0564,-0.0954c1.3744,1.1468 2.2492,2.8723 2.2492,4.8005c0,3.2683 -2.5141,5.954 -5.7122,6.2271z" fill="#212121"/>
</svg>
