<svg width="20" height="20" viewBox="0 0 20 20" fill="none" xmlns="http://www.w3.org/2000/svg">
<path d="M9.6465,8.3536l-2.1214,-2.1214c-0.1952,-0.1952 -0.1952,-0.5118 0,-0.7071c0.1953,-0.1952 0.5119,-0.1952 0.7071,0l1.2678,1.2678v-4.2929c0,-0.2761 0.2239,-0.5 0.5,-0.5c0.2761,0 0.5,0.2239 0.5,0.5v4.2929l1.2678,-1.2678c0.1952,-0.1952 0.5118,-0.1952 0.7071,0c0.1952,0.1953 0.1952,0.5119 0,0.7071l-2.1213,2.1214c-0.1953,0.1952 -0.5119,0.1952 -0.7072,0zM4.0001,10.0004c0,-0.2761 0.2239,-0.5 0.5,-0.5h11c0.2761,0 0.5,0.2239 0.5,0.5c0,0.2762 -0.2239,0.5 -0.5,0.5h-11c-0.2761,0 -0.5,-0.2238 -0.5,-0.5zM10.5001,13.2071v4.2929c0,0.2761 -0.2239,0.5 -0.5,0.5c-0.2761,0 -0.5,-0.2239 -0.5,-0.5v-4.2929l-1.2678,1.2678c-0.1952,0.1953 -0.5118,0.1953 -0.7071,0c-0.1952,-0.1953 -0.1952,-0.5118 0,-0.7071l2.1213,-2.1213c0.1953,-0.1953 0.5119,-0.1953 0.7072,0l2.1213,2.1213c0.1952,0.1953 0.1952,0.5118 0,0.7071c-0.1953,0.1953 -0.5119,0.1953 -0.7071,0z" fill="#212121"/>
</svg>
