<svg width="20" height="20" viewBox="0 0 20 20" fill="none" xmlns="http://www.w3.org/2000/svg">
<path d="M16.2503 11.0001L16.3518 11.0069C16.7179 11.0566 17.0003 11.3704 17.0003 11.7501L16.9934 11.8516C16.9438 12.2176 16.6299 12.4999 16.2503 12.5001H13.5618L17.78033 16.71967A.75 .75 180 0 1 16.71967 17.78033L12.5003 13.5596V16.2501L12.4934 16.3516C12.4438 16.7176 12.1299 16.9999 11.7503 17.0001C11.3361 17.0001 11.0003 16.6643 11.0003 16.2501V11.7501L11.0071 11.6485C11.0568 11.2824 11.3706 11.0001 11.7503 11.0001H16.2503ZM2.21967 3.28033A.75 .75 180 0 1 3.28033 2.21967L8.00028 6.93758V3.75008L8.00711 3.64851C8.05678 3.28244 8.37058 3.00008 8.75028 3.00008C9.16437 3.00022 9.50028 3.33595 9.50028 3.75008V8.75008L9.49344 8.85164C9.44379 9.21763 9.12986 9.49995 8.75028 9.50008H3.75028L3.64871 9.49324C3.28266 9.44358 3.0003 9.12975 3.00028 8.75008L3.00711 8.64851C3.05677 8.28244 3.37058 8.00008 3.75028 8.00008H6.93973L2.21967 3.28033Z" fill="#212121"/>
</svg>
