<svg width="20" height="20" viewBox="0 0 20 20" fill="none" xmlns="http://www.w3.org/2000/svg">
<path d="M7.7803,3.7197c0.2929,0.2929 0.2929,0.7677 0,1.0606l-3.9696,3.9697l3.9696,3.9697c0.2929,0.2929 0.2929,0.7677 0,1.0606c-0.2929,0.2929 -0.7677,0.2929 -1.0606,0l-4.5,-4.5c-0.2929,-0.2929 -0.2929,-0.7677 0,-1.0606l4.5,-4.5c0.2929,-0.2929 0.7677,-0.2929 1.0606,0zM11.7803,3.7197c0.2929,0.2929 0.2929,0.7677 0,1.0606l-3.2196,3.2197h2.1893c4.0041,0 7.25,3.2459 7.25,7.25c0,0.4142 -0.3358,0.75 -0.75,0.75c-0.4142,0 -0.75,-0.3358 -0.75,-0.75c0,-3.1756 -2.5744,-5.75 -5.75,-5.75h-2.1893l3.2196,3.2197c0.2929,0.2929 0.2929,0.7677 0,1.0606c-0.2929,0.2929 -0.7677,0.2929 -1.0606,0l-4.5,-4.5c-0.2929,-0.2929 -0.2929,-0.7677 0,-1.0606l4.5,-4.5c0.2929,-0.2929 0.7677,-0.2929 1.0606,0z" fill="#212121"/>
</svg>
