<svg width="20" height="20" viewBox="0 0 20 20" fill="none" xmlns="http://www.w3.org/2000/svg">
<path d="M13.9697,7.2803c0.2929,0.2929 0.7677,0.2929 1.0606,0c0.2929,-0.2929 0.2929,-0.7677 0,-1.0606l-4,-4c-0.2929,-0.2929 -0.7677,-0.2929 -1.0606,0l-4,4c-0.2929,0.2929 -0.2929,0.7677 0,1.0606c0.2929,0.2929 0.7677,0.2929 1.0606,0l2.7197,-2.7196v5.1893c0,1.9473 -0.2452,3.3213 -0.7403,4.3664c-0.4856,1.0253 -1.2426,1.7987 -2.3956,2.4905c-0.3552,0.2131 -0.4703,0.6738 -0.2572,1.029c0.2131,0.3552 0.6738,0.4703 1.029,0.2572c1.347,-0.8082 2.34,-1.7848 2.9794,-3.1345c0.6299,-1.3298 0.8847,-2.9559 0.8847,-5.0086v-5.1893z" fill="#212121"/>
</svg>
