<svg width="20" height="20" viewBox="0 0 20 20" fill="none" xmlns="http://www.w3.org/2000/svg">
<path d="M9.7889,4.504c-2.9379,0.1111 -5.2889,2.5312 -5.2889,5.496c0,1.7353 0.8056,3.284 2.0626,4.2924c0.2153,0.1726 0.2498,0.4876 0.0772,0.7029c-0.1727,0.2152 -0.4877,0.2498 -0.7029,0.0771c-1.4854,-1.1916 -2.4369,-3.0218 -2.4369,-5.0724c0,-3.5192 2.8028,-6.389 6.296,-6.4969l-0.6496,-0.6495c-0.1952,-0.1953 -0.1952,-0.5119 0,-0.7071c0.1953,-0.1953 0.5119,-0.1953 0.7071,0l1.5,1.5c0.1953,0.1952 0.1953,0.5118 0,0.7071l-1.5,1.5c-0.1952,0.1952 -0.5118,0.1952 -0.7071,0c-0.1952,-0.1953 -0.1952,-0.5119 0,-0.7071zM10.204,16.4969l0.6495,0.6495c0.1953,0.1953 0.1953,0.5119 0,0.7072c-0.1952,0.1952 -0.5118,0.1952 -0.7071,0l-1.5,-1.5c-0.0937,-0.0938 -0.1464,-0.221 -0.1464,-0.3536c0,-0.1326 0.0527,-0.2598 0.1464,-0.3536l1.5,-1.5c0.1953,-0.1952 0.5119,-0.1952 0.7071,0c0.1953,0.1953 0.1953,0.5119 0,0.7072l-0.6424,0.6424c2.9379,-0.1111 5.2889,-2.5311 5.2889,-5.496c0,-1.7354 -0.8056,-3.2841 -2.0628,-4.2925c-0.2152,-0.1727 -0.2498,-0.4876 -0.0771,-0.7029c0.1726,-0.2152 0.4876,-0.2498 0.7028,-0.0771c1.4856,1.1916 2.4371,3.0218 2.4371,5.0725c0,3.5192 -2.8028,6.389 -6.296,6.4969z" fill="#212121"/>
</svg>
