<svg width="20" height="20" viewBox="0 0 20 20" fill="none" xmlns="http://www.w3.org/2000/svg">
<path d="M9.5762,8.0743l-2.1213,-2.1214c-0.2343,-0.2343 -0.2343,-0.6142 0,-0.8485c0.2343,-0.2343 0.6142,-0.2343 0.8485,0l1.0972,1.0972v-3.6016c0,-0.3314 0.2686,-0.6 0.6,-0.6c0.3314,0 0.6,0.2686 0.6,0.6v3.6014l1.0969,-1.097c0.2344,-0.2343 0.6143,-0.2343 0.8486,0c0.2343,0.2343 0.2343,0.6142 0,0.8485l-2.1213,2.1214c-0.2344,0.2343 -0.6143,0.2343 -0.8486,0zM3.9004,10.0008c0,-0.3314 0.2686,-0.6 0.6,-0.6h11c0.3314,0 0.6,0.2686 0.6,0.6c0,0.3314 -0.2686,0.6 -0.6,0.6h-11c-0.3314,0 -0.6,-0.2686 -0.6,-0.6zM10.6004,13.7984v3.6016c0,0.3313 -0.2686,0.6 -0.6,0.6c-0.3314,0 -0.6,-0.2687 -0.6,-0.6v-3.6014l-1.097,1.0969c-0.2343,0.2343 -0.6142,0.2343 -0.8485,0c-0.2343,-0.2343 -0.2343,-0.6142 0,-0.8485l2.1213,-2.1213c0.2343,-0.2343 0.6142,-0.2343 0.8486,0l2.1213,2.1213c0.2343,0.2343 0.2343,0.6142 0,0.8485c-0.2343,0.2343 -0.6142,0.2343 -0.8486,0z" fill="#212121"/>
</svg>
