<svg width="20" height="20" viewBox="0 0 20 20" fill="none" xmlns="http://www.w3.org/2000/svg">
<path d="M2.75,3.75c0.4142,0 0.75,0.3358 0.75,0.75v11c0,0.4142 -0.3358,0.75 -0.75,0.75c-0.4142,0 -0.75,-0.3358 -0.75,-0.75v-11c0,-0.4142 0.3358,-0.75 0.75,-0.75zM5,10c0,-0.4142 0.3358,-0.75 0.75,-0.75h9.6893l-2.7196,-2.7197c-0.2929,-0.2929 -0.2929,-0.7677 0,-1.0606c0.2929,-0.2929 0.7677,-0.2929 1.0606,0l3.9967,3.9966c0.0121,0.0121 0.0239,0.0245 0.0352,0.0373c0.0504,0.0569 0.0906,0.1196 0.1207,0.1858c0.0431,0.0947 0.0671,0.1998 0.0671,0.3106c0,0.1122 -0.0247,0.2187 -0.0688,0.3143c-0.0293,0.0635 -0.0679,0.1237 -0.1159,0.1786c-0.0124,0.0142 -0.0253,0.0279 -0.0387,0.0411l-3.9963,3.9963c-0.2929,0.2929 -0.7677,0.2929 -1.0606,0c-0.2929,-0.2929 -0.2929,-0.7677 0,-1.0606l2.7196,-2.7197h-9.6893c-0.4142,0 -0.75,-0.3358 -0.75,-0.75z" fill="#212121"/>
</svg>
