<svg width="20" height="20" viewBox="0 0 20 20" fill="none" xmlns="http://www.w3.org/2000/svg">
<path d="M7.146,15.354C7.342,15.549 7.658,15.549 7.854,15.354L9.5,13.707L9.5,17.5C9.5,17.776 9.724,18 10,18C10.276,18 10.5,17.776 10.5,17.5L10.5,13.707L12.146,15.354C12.342,15.549 12.658,15.549 12.854,15.354C13.049,15.158 13.049,14.842 12.854,14.646L10.354,12.146C10.158,11.951 9.842,11.951 9.646,12.146L7.146,14.646C6.951,14.842 6.951,15.158 7.146,15.354ZM15.354,7.854C15.549,7.658 15.549,7.342 15.354,7.146C15.158,6.951 14.842,6.951 14.646,7.146L12.146,9.646C11.951,9.842 11.951,10.158 12.146,10.354L14.646,12.854C14.842,13.049 15.158,13.049 15.354,12.854C15.549,12.658 15.549,12.342 15.354,12.146L13.707,10.5L17.5,10.5C17.776,10.5 18,10.276 18,10C18,9.724 17.776,9.5 17.5,9.5L13.707,9.5L15.354,7.854ZM4.646,7.854C4.451,7.658 4.451,7.342 4.646,7.146C4.842,6.951 5.158,6.951 5.354,7.146L7.854,9.646C8.049,9.842 8.049,10.158 7.854,10.354L5.354,12.854C5.158,13.049 4.842,13.049 4.646,12.854C4.451,12.658 4.451,12.342 4.646,12.146L6.293,10.5L2.5,10.5C2.224,10.5 2,10.276 2,10C2,9.724 2.224,9.5 2.5,9.5L6.293,9.5L4.646,7.854ZM7.854,4.646C7.658,4.451 7.342,4.451 7.146,4.646C6.951,4.842 6.951,5.158 7.146,5.354L9.646,7.854C9.842,8.049 10.158,8.049 10.354,7.854L12.854,5.354C13.049,5.158 13.049,4.842 12.854,4.646C12.658,4.451 12.342,4.451 12.146,4.646L10.5,6.293L10.5,2.5C10.5,2.224 10.276,2 10,2C9.724,2 9.5,2.224 9.5,2.5L9.5,6.293L7.854,4.646Z" fill="#212121"/>
</svg>
