<svg width="16" height="16" viewBox="0 0 16 16" xmlns="http://www.w3.org/2000/svg">
  <path d="M11.5,3c1.3807,0 2.5,1.11929 2.5,2.5v0.83333l1.1667,0.00227c0.1517,0 0.2941,0.04059 0.4166,0.1115c0.2491,0.14409 0.4167,0.41342 0.4167,0.72184v1.66666c0,0.3084 -0.1676,0.5778 -0.4167,0.7218c-0.1225,0.071 -0.2649,0.1115 -0.4166,0.1115l-1.1667,-0.0022v0.8333c0,1.3807 -1.1193,2.5 -2.5,2.5h-9c-1.38071,0 -2.5,-1.1193 -2.5,-2.5v-5c0,-1.38071 1.11929,-2.5 2.5,-2.5zM2.5,4.94604c-0.27614,0 -0.5,0.22386 -0.5,0.5v4.99996c0,0.2762 0.22386,0.5 0.5,0.5c0.27614,0 0.5,-0.2238 0.5,-0.5v-4.99996c0,-0.27614 -0.22386,-0.5 -0.5,-0.5z" fill="#212121" />
</svg>