<svg width="16" height="16" viewBox="0 0 16 16" xmlns="http://www.w3.org/2000/svg">
  <path d="M11.5,3c1.3807,0 2.5,1.11929 2.5,2.5v0.83333l1.1667,0.00227c0.1517,0 0.2941,0.04059 0.4166,0.1115c0.2491,0.14409 0.4167,0.41342 0.4167,0.72184v1.66666c0,0.3084 -0.1676,0.5778 -0.4167,0.7218c-0.1225,0.071 -0.2649,0.1115 -0.4166,0.1115l-1.1667,-0.0022v0.8333c0,1.3807 -1.1193,2.5 -2.5,2.5h-9c-1.38071,0 -2.5,-1.1193 -2.5,-2.5v-5c0,-1.38071 1.11929,-2.5 2.5,-2.5zM11.75,3.94604h-9.25c-0.64975,0 -1.40516,0.49574 -1.49178,1.12962l-0.00822,0.12038v5.49526c0,0.6472 0.49187,1.1796 1.12219,1.2436l0.12781,0.0064h9.5c0.6472,0 1.1795,-0.4919 1.2435,-1.1222l0.0065,-0.1278v-5.49526c0,-0.64721 -0.4919,-1.17953 -1.1222,-1.24354zM2.83436,4.94867h1.33026c0.42588,0 0.77732,0.31869 0.82887,0.73059l0.00651,0.10479v4.32665c0,0.4259 -0.31869,0.7773 -0.73059,0.8288l-0.10479,0.0065h-1.33026c-0.42588,0 -0.77732,-0.3186 -0.82887,-0.7305l-0.00651,-0.1048v-4.32665c0,-0.42587 0.31869,-0.77732 0.73059,-0.82887l0.10479,-0.00651h1.33026z" fill="#212121" />
</svg>