<svg width="20" height="20" viewBox="0 0 20 20" fill="none" xmlns="http://www.w3.org/2000/svg">
<path d="M11.2092,11.3919c1.4736,0.3506 2.7397,1.3235 3.6246,2.6113c-0.0122,-0.0008 -0.0244,-0.0015 -0.0366,-0.002c-0.3599,-0.0145 -0.7015,0.1003 -0.9731,0.3085c-0.9599,-1.2531 -2.3361,-2.0597 -3.8241,-2.0597c-1.488,0 -2.8642,0.8066 -3.8241,2.0597c-0.2715,-0.2082 -0.6132,-0.323 -0.9731,-0.3085c-0.0122,0.0005 -0.0244,0.0012 -0.0366,0.002c1.1189,-1.6283 2.8472,-2.7532 4.8338,-2.7532c0.0459,0 0.0918,0.0006 0.1374,0.0018l1.9468,-3.4069l-3.8342,-2.2136c-0.1148,-0.0663 -0.1986,-0.1756 -0.233,-0.3036c-0.0343,-0.1281 -0.0163,-0.2646 0.05,-0.3795l0.1964,-0.3402c1.4399,-2.4939 4.6289,-3.3484 7.1229,-1.9085c2.4939,1.4398 3.3484,4.6289 1.9085,7.1228l-0.1964,0.3402c-0.0663,0.1149 -0.1755,0.1987 -0.3036,0.233c-0.1281,0.0343 -0.2646,0.0163 -0.3794,-0.05l-3.4651,-2.0006zM9.1842,5.0159l1.7027,0.9831c0.0037,-0.0056 0.0076,-0.0111 0.0115,-0.0166c0.536,-0.7413 1.0399,-1.3094 1.6981,-1.8082c0.4468,-0.3385 0.9545,-0.6374 1.5746,-0.9376c-1.8424,-0.6469 -3.9376,0.0622 -4.9869,1.7793zM14.8696,8.2984l1.6116,0.9304c0.9152,-1.6806 0.5681,-3.7245 -0.7421,-5.0149c0.0714,0.5604 0.0898,1.0885 0.0229,1.6236c-0.099,0.7909 -0.3795,1.5624 -0.8924,2.4609zM14.0036,7.7984c0.4655,-0.8164 0.688,-1.4603 0.7661,-2.085c0.0629,-0.5031 0.0354,-1.0158 -0.0584,-1.6268c-0.629,0.2984 -1.1066,0.5783 -1.5108,0.8846c-0.5352,0.4055 -0.962,0.8726 -1.4431,1.5303zM5.7378,15.3428c0.6424,1.939 3.159,1.9145 3.7894,0.0805c0.0694,-0.2019 0.2593,-0.3375 0.4728,-0.3375c0.2135,0 0.4035,0.1356 0.4729,0.3375c0.6303,1.834 3.1469,1.8585 3.7893,-0.0805c0.0681,-0.2055 0.2607,-0.3439 0.4772,-0.3428c0.2166,0.0012 0.4077,0.1415 0.4737,0.3477c0.3236,1.0121 1.3039,1.6523 2.2869,1.6523c0.2761,0 0.5,0.2239 0.5,0.5c0,0.2762 -0.2239,0.5 -0.5,0.5c-1.0569,0 -2.1154,-0.5186 -2.7648,-1.4113c-1.1747,1.5945 -3.5587,1.611 -4.7352,0.0571c-1.1581,1.5298 -3.4866,1.5375 -4.6795,0.0162c-0.2361,0.375 -0.5363,0.6623 -0.8845,0.8725c-0.6027,0.3639 -1.2981,0.4655 -1.936,0.4655c-0.2761,0 -0.5,-0.2238 -0.5,-0.5c0,-0.2761 0.2239,-0.5 0.5,-0.5c0.5464,0 1.0351,-0.0897 1.4192,-0.3216c0.3669,-0.2214 0.6887,-0.6026 0.8582,-1.2969c0.0529,-0.2167 0.2428,-0.3721 0.4656,-0.3811c0.2228,-0.0089 0.4247,0.1307 0.4948,0.3424z" fill="#212121"/>
</svg>
