<svg width="20" height="20" viewBox="0 0 20 20" fill="none" xmlns="http://www.w3.org/2000/svg">
<path d="M5.1662,14.0032c1.1189,-1.6283 2.8472,-2.7532 4.8338,-2.7532c0.0459,0 0.0918,0.0006 0.1374,0.0018l1.9468,-3.4069l-3.8342,-2.2137c-0.1148,-0.0663 -0.1986,-0.1755 -0.233,-0.3036c-0.0343,-0.128 -0.0163,-0.2645 0.05,-0.3794l0.1964,-0.3402c1.4399,-2.4939 4.6289,-3.3484 7.1229,-1.9086c2.4939,1.4399 3.3484,4.6289 1.9085,7.1229l-0.1964,0.3402c-0.0663,0.1149 -0.1755,0.1987 -0.3036,0.233c-0.1281,0.0343 -0.2646,0.0163 -0.3794,-0.05l-3.4651,-2.0006l-1.7411,3.047c1.4736,0.3506 2.7397,1.3235 3.6246,2.6113c-0.0295,-0.0019 -0.0592,-0.003 -0.0891,-0.0032c-0.6494,-0.0033 -1.2275,0.4118 -1.4317,1.0283c-0.1336,0.403 -0.4077,0.6581 -0.7278,0.7397c-0.4603,0.1174 -0.9783,-0.1216 -1.1666,-0.6697c-0.2082,-0.6057 -0.7781,-1.0125 -1.4186,-1.0125c-0.6405,0 -1.2104,0.4068 -1.4185,1.0125c-0.1884,0.5481 -0.7064,0.7871 -1.1667,0.6697c-0.3201,-0.0816 -0.5942,-0.3367 -0.7277,-0.7397c-0.2104,-0.635 -0.816,-1.0538 -1.4843,-1.0271c-0.0122,0.0005 -0.0244,0.0012 -0.0366,0.002zM5.7378,15.3428c0.6424,1.939 3.159,1.9145 3.7894,0.0805c0.0694,-0.2019 0.2593,-0.3375 0.4728,-0.3375c0.2135,0 0.4035,0.1356 0.4729,0.3375c0.6303,1.834 3.1469,1.8585 3.7893,-0.0805c0.0681,-0.2055 0.2607,-0.3439 0.4772,-0.3428c0.2166,0.0012 0.4077,0.1415 0.4737,0.3477c0.3236,1.0121 1.3039,1.6523 2.2869,1.6523c0.2761,0 0.5,0.2239 0.5,0.5c0,0.2762 -0.2239,0.5 -0.5,0.5c-1.0569,0 -2.1154,-0.5186 -2.7648,-1.4113c-1.1747,1.5945 -3.5587,1.611 -4.7352,0.0571c-1.1581,1.5298 -3.4866,1.5375 -4.6795,0.0162c-0.2361,0.375 -0.5363,0.6623 -0.8845,0.8725c-0.6027,0.3639 -1.2981,0.4655 -1.936,0.4655c-0.2761,0 -0.5,-0.2238 -0.5,-0.5c0,-0.2761 0.2239,-0.5 0.5,-0.5c0.5464,0 1.0351,-0.0897 1.4192,-0.3216c0.3669,-0.2214 0.6887,-0.6026 0.8582,-1.2969c0.0529,-0.2167 0.2428,-0.3721 0.4656,-0.3811c0.2228,-0.0089 0.4247,0.1307 0.4948,0.3424z" fill="#212121"/>
</svg>
