<svg width="20" height="20" viewBox="0 0 20 20" xmlns="http://www.w3.org/2000/svg">
  <path d="M4,7c0,-1.1046 0.8954,-2 2,-2h8c1.1046,0 2,0.8954 2,2v3c1.1046,0 2,0.8954 2,2c0,1.1046 -0.8954,2 -2,2v1.5c0,0.2761 -0.2239,0.5 -0.5,0.5c-0.2761,0 -0.5,-0.2239 -0.5,-0.5v-1.5h-10v1.5c0,0.2761 -0.2239,0.5 -0.5,0.5c-0.2761,0 -0.5,-0.2239 -0.5,-0.5v-1.5c-1.1046,0 -2,-0.8954 -2,-2c0,-1.1046 0.8954,-2 2,-2zM16,13c0.5523,0 1,-0.4477 1,-1c0,-0.5523 -0.4477,-1 -1,-1h-12c-0.5523,0 -1,0.4477 -1,1c0,0.5523 0.4477,1 1,1zM15,7c0,-0.5523 -0.4477,-1 -1,-1h-8c-0.5523,0 -1,0.4477 -1,1v3h10z" fill="#212121" />
</svg>