<svg width="20" height="20" viewBox="0 0 20 20" fill="none" xmlns="http://www.w3.org/2000/svg">
<path d="M14,4L15.999,4C16.142,4 16.277,4.061 16.372,4.167C16.467,4.274 16.512,4.416 16.496,4.557L15.149,16.229C15.033,17.238 14.179,18 13.163,18L6.836,18C5.821,18 4.966,17.238 4.85,16.229L3.502,4.557C3.486,4.416 3.531,4.274 3.626,4.167C3.721,4.061 3.856,4 3.999,4L6,4L6,3.207C6,2.54 6.54,2 7.207,2C7.527,2 7.834,2.127 8.061,2.354L9,3.293C9,2.579 9.579,2 10.293,2L12.707,2C13.421,2 14,2.579 14,3.293L14,4ZM10,3.293L10,4L13,4L13,3.293C13,3.131 12.869,3 12.707,3L10.293,3C10.131,3 10,3.131 10,3.293ZM4.56,5L5.843,16.115C5.901,16.619 6.328,17 6.836,17L13.163,17C13.671,17 14.098,16.619 14.156,16.115L15.438,5L4.56,5ZM9,12C9.276,12 9.5,12.224 9.5,12.5C9.5,12.776 9.276,13 9,13L8.268,13C7.113,13 6.391,11.75 6.969,10.75L7.076,10.564C7.209,10.335 7.496,10.248 7.733,10.367C7.991,10.495 8.086,10.814 7.942,11.064L7.835,11.25C7.642,11.583 7.883,12 8.268,12L9,12ZM11.299,7.75L11.751,8.532C11.895,8.782 11.799,9.101 11.541,9.229C11.305,9.348 11.017,9.261 10.884,9.032L10.433,8.25C10.241,7.917 9.759,7.917 9.567,8.25L9.115,9.032C8.983,9.261 8.695,9.348 8.459,9.229C8.201,9.101 8.105,8.782 8.249,8.532L8.701,7.75C9.278,6.75 10.722,6.75 11.299,7.75ZM12.165,11.25L12.057,11.064C11.914,10.814 12.009,10.495 12.267,10.367C12.503,10.248 12.791,10.335 12.924,10.564L13.031,10.75C13.608,11.75 12.887,13 11.732,13L11,13C10.724,13 10.5,12.776 10.5,12.5C10.5,12.224 10.724,12 11,12L11.732,12C12.117,12 12.357,11.583 12.165,11.25ZM7.207,3C7.093,3 7,3.093 7,3.207L7,4L8.293,4L7.354,3.061C7.315,3.022 7.262,3 7.207,3Z" fill="#212121"/>
</svg>
