<svg width="20" height="20" viewBox="0 0 20 20" fill="none" xmlns="http://www.w3.org/2000/svg">
<path d="M14,4L15.999,4C16.142,4 16.277,4.061 16.372,4.167C16.467,4.274 16.512,4.416 16.496,4.557L15.149,16.229C15.033,17.238 14.179,18 13.163,18L6.836,18C5.821,18 4.966,17.238 4.85,16.229L3.502,4.557C3.486,4.416 3.531,4.274 3.626,4.167C3.721,4.061 3.856,4 3.999,4L6,4L6,3.207C6,2.54 6.54,2 7.207,2C7.527,2 7.834,2.127 8.061,2.354L9,3.293C9,2.579 9.579,2 10.293,2L12.707,2C13.421,2 14,2.579 14,3.293L14,4ZM10,3.293L10,4L13,4L13,3.293C13,3.131 12.869,3 12.707,3L10.293,3C10.131,3 10,3.131 10,3.293ZM9,12L8.268,12C7.883,12 7.642,11.583 7.835,11.25L7.942,11.064C8.086,10.814 7.991,10.495 7.733,10.367C7.496,10.248 7.209,10.335 7.076,10.564L6.969,10.75C6.391,11.75 7.113,13 8.268,13L9,13C9.276,13 9.5,12.776 9.5,12.5C9.5,12.224 9.276,12 9,12ZM11.299,7.75C10.722,6.75 9.278,6.75 8.701,7.75L8.249,8.532C8.105,8.782 8.201,9.101 8.459,9.229C8.695,9.348 8.983,9.261 9.115,9.032L9.567,8.25C9.759,7.917 10.241,7.917 10.433,8.25L10.884,9.032C11.017,9.261 11.305,9.348 11.541,9.229C11.799,9.101 11.895,8.782 11.751,8.532L11.299,7.75ZM12.165,11.25C12.357,11.583 12.117,12 11.732,12L11,12C10.724,12 10.5,12.224 10.5,12.5C10.5,12.776 10.724,13 11,13L11.732,13C12.887,13 13.608,11.75 13.031,10.75L12.924,10.564C12.791,10.335 12.503,10.248 12.267,10.367C12.009,10.495 11.914,10.814 12.057,11.064L12.165,11.25ZM7.207,3C7.093,3 7,3.093 7,3.207L7,4L8.293,4L7.354,3.061C7.315,3.022 7.262,3 7.207,3Z" fill="#212121"/>
</svg>
