<svg width="20" height="20" viewBox="0 0 20 20" fill="none" xmlns="http://www.w3.org/2000/svg">
<path d="M9.6429,5.5254c0.1166,-0.0167 0.2359,-0.0253 0.3571,-0.0253c0.0167,0 0.0334,0.0002 0.0501,0.0005c-0.0329,-0.1617 -0.0501,-0.3291 -0.0501,-0.5005c0,-0.1711 0.0172,-0.3382 0.0499,-0.4997c0.2315,-1.1412 1.2405,-2.0003 2.4501,-2.0003c1.2096,0 2.2186,0.8591 2.4501,2.0003c0.0327,0.1615 0.0499,0.3286 0.0499,0.4997c0,0.1714 -0.0173,0.3388 -0.0501,0.5005c0.0166,-0.0003 0.0334,-0.0005 0.0501,-0.0005c0.3301,0 0.6453,0.064 0.9337,0.1802c0.9182,0.3699 1.5663,1.2692 1.5663,2.3198c0,1.3807 -1.1193,2.5 -2.5,2.5c-0.078,0 -0.1552,-0.0036 -0.2314,-0.0106c-0.4112,-0.0377 -0.7936,-0.175 -1.1228,-0.3876l0.4491,1.8538c0.1905,0.7867 -0.4054,1.5443 -1.2149,1.5443h-0.7623c-0.8099,0 -1.4059,-0.7583 -1.2146,-1.5453l0.4504,-1.8524c-0.1456,0.0939 -0.3015,0.1732 -0.4657,0.2356c-0.127,-0.362 -0.3551,-0.6764 -0.6505,-0.9093c0.1697,-0.4437 0.2627,-0.9253 0.2627,-1.4286c0,-0.9343 -0.3203,-1.7938 -0.8571,-2.4746zM6.5,5c1.6568,0 3,1.3432 3,3c0,0.7684 -0.2889,1.4692 -0.7639,2h0.2639c0.5523,0 1,0.4477 1,1c0,0.5523 -0.4477,1 -1,1h-0.5191c0.3707,1.798 1.3516,2.8358 1.8985,3.2932c0.3469,0.2902 0.6206,0.7358 0.6206,1.2556c0,0.8015 -0.6497,1.4512 -1.4512,1.4512h-6.0976c-0.8015,0 -1.4512,-0.6497 -1.4512,-1.4512c0,-0.5198 0.2737,-0.9654 0.6206,-1.2556c0.5469,-0.4574 1.5278,-1.4952 1.8985,-3.2932h-0.5191c-0.5523,0 -1,-0.4477 -1,-1c0,-0.5523 0.4477,-1 1,-1h0.2639c-0.4751,-0.5308 -0.7639,-1.2316 -0.7639,-2c0,-1.6568 1.3431,-3 3,-3z" fill="#212121"/>
</svg>
