<svg width="20" height="20" viewBox="0 0 20 20" fill="none" xmlns="http://www.w3.org/2000/svg">
<path d="M12.5003,3c-1.1046,0 -2,0.8954 -2,2c0,0.1378 0.0138,0.2717 0.0401,0.4008c0.055,0.2704 -0.1198,0.5347 -0.3902,0.5897c-0.2704,0.0551 -0.5347,-0.1197 -0.5897,-0.3901c-0.0394,-0.1934 -0.0602,-0.394 -0.0602,-0.6004c0,-1.6569 1.3431,-3 3,-3c1.6568,0 3,1.3432 3,3l-0.0003,0.0414c1.419,0.238 2.5003,1.472 2.5003,2.9586c0,1.6569 -1.3432,3 -3,3c-0.219,0 -0.4328,-0.0235 -0.6387,-0.0682l0.2195,0.9061c0.2668,1.1014 -0.5676,2.162 -1.7008,2.162h-0.7623c-0.7264,0 -1.3302,-0.4357 -1.5994,-1.0388c-0.1125,-0.252 0.0008,-0.5479 0.2528,-0.6604c0.252,-0.1125 0.5479,0.0008 0.6604,0.2528c0.1155,0.2589 0.3744,0.4464 0.6862,0.4464h0.7623c0.4857,0 0.8432,-0.4545 0.7289,-0.9265l-0.4491,-1.8539c-0.0481,-0.1988 0.0297,-0.4069 0.1964,-0.5253c0.1668,-0.1185 0.3889,-0.1234 0.5608,-0.0124c0.3118,0.2013 0.683,0.3182 1.083,0.3182c1.1045,0 2,-0.8954 2,-2c0,-1.1046 -0.8955,-2 -2,-2c-0.0135,0 -0.0269,0.0001 -0.0403,0.0004c-0.1518,0.003 -0.2967,-0.0631 -0.3939,-0.1797c-0.0972,-0.1166 -0.1361,-0.271 -0.1059,-0.4198c0.0262,-0.1291 0.0401,-0.2631 0.0401,-0.4009c0,-1.1046 -0.8955,-2 -2,-2zM6.5,5c1.6569,0 3,1.3432 3,3c0,0.3629 -0.0646,0.7112 -0.1829,1.0336c0.6761,0.1455 1.1829,0.7468 1.1829,1.4664c0,0.8284 -0.6716,1.5 -1.5,1.5h-0.5191c0.3707,1.7979 1.3516,2.8358 1.8985,3.2932c0.3469,0.2902 0.6206,0.7358 0.6206,1.2556c0,0.8015 -0.6497,1.4512 -1.4512,1.4512h-6.0976c-0.8015,0 -1.4512,-0.6497 -1.4512,-1.4512c0,-0.5198 0.2737,-0.9654 0.6206,-1.2556c0.5469,-0.4574 1.5278,-1.4952 1.8985,-3.2932h-0.5191c-0.8284,0 -1.5,-0.6716 -1.5,-1.5c0,-0.7197 0.5068,-1.3209 1.1829,-1.4664c-0.1183,-0.3224 -0.1829,-0.6707 -0.1829,-1.0336c0,-1.6569 1.3432,-3 3,-3zM4.5,8c0,0.4508 0.1486,0.8655 0.3996,1.1997c0.1138,0.1515 0.1322,0.3543 0.0475,0.5237c-0.0847,0.1695 -0.2578,0.2766 -0.4473,0.2766h-0.4998c-0.2761,0 -0.5,0.2239 -0.5,0.5c0,0.2761 0.2239,0.5 0.5,0.5h1.1071c0.1431,0 0.2795,0.0614 0.3744,0.1686c0.0949,0.1072 0.1392,0.25 0.1219,0.3921c-0.3021,2.4699 -1.609,3.8871 -2.3412,4.4995c-0.1741,0.1456 -0.2622,0.3291 -0.2622,0.4886c0,0.2492 0.202,0.4512 0.4512,0.4512h6.0976c0.2492,0 0.4512,-0.202 0.4512,-0.4512c0,-0.1595 -0.0881,-0.343 -0.2622,-0.4886c-0.7322,-0.6124 -2.0391,-2.0296 -2.3412,-4.4995c-0.0174,-0.1421 0.027,-0.2849 0.1219,-0.3921c0.0949,-0.1072 0.2313,-0.1686 0.3744,-0.1686h1.1071c0.2761,0 0.5,-0.2239 0.5,-0.5c0,-0.2761 -0.2239,-0.5 -0.5,-0.5h-0.4998c-0.1895,0 -0.3627,-0.1071 -0.4473,-0.2766c-0.0847,-0.1694 -0.0663,-0.3722 0.0475,-0.5237c0.251,-0.3342 0.3996,-0.7489 0.3996,-1.1997c0,-1.1046 -0.8954,-2 -2,-2c-1.1046,0 -2,0.8954 -2,2z" fill="#212121"/>
</svg>
