<svg width="20" height="20" viewBox="0 0 20 20" fill="none" xmlns="http://www.w3.org/2000/svg">
<path d="M9,15h-4.5c-1.3807,0 -2.5,-1.1193 -2.5,-2.5v-8c0,-1.3807 1.1193,-2.5 2.5,-2.5h8c1.3807,0 2.5,1.1193 2.5,2.5v1.5h-3c-0.8885,0 -1.6868,0.3863 -2.2361,1h-4.2639c-0.2761,0 -0.5,0.2239 -0.5,0.5c0,0.2761 0.2239,0.5 0.5,0.5h3.6707c-0.1105,0.3128 -0.1707,0.6494 -0.1707,1h-3.5c-0.2761,0 -0.5,0.2239 -0.5,0.5c0,0.2761 0.2239,0.5 0.5,0.5h3.5zM5,5.5c0,0.2761 0.2239,0.5 0.5,0.5h6c0.2761,0 0.5,-0.2239 0.5,-0.5c0,-0.2761 -0.2239,-0.5 -0.5,-0.5h-6c-0.2761,0 -0.5,0.2239 -0.5,0.5zM18,9v6.4969c0,0.2762 -0.2239,0.5 -0.5,0.5h-6.5v0.0031c0,0.5523 0.4477,1 1,1h5.5c0.2761,0 0.5,0.2239 0.5,0.5c0,0.2761 -0.2239,0.5 -0.5,0.5h-5.5c-1.1046,0 -2,-0.8954 -2,-2v-7c0,-1.1046 0.8954,-2 2,-2h4c1.1046,0 2,0.8954 2,2zM11,14.9969h6v-5.9969c0,-0.5523 -0.4477,-1 -1,-1h-4c-0.5523,0 -1,0.4477 -1,1z" fill="#212121"/>
</svg>
