<svg width="20" height="20" viewBox="0 0 20 20" fill="none" xmlns="http://www.w3.org/2000/svg">
<path d="M11.5,5.25c0,-1.7949 1.4551,-3.25 3.25,-3.25c1.7949,0 3.25,1.4551 3.25,3.25c0,1.7949 -1.4551,3.25 -3.25,3.25c-1.7949,0 -3.25,-1.4551 -3.25,-3.25zM14.75,3c-1.2426,0 -2.25,1.0074 -2.25,2.25c0,1.2426 1.0074,2.25 2.25,2.25c1.2426,0 2.25,-1.0074 2.25,-2.25c0,-1.2426 -1.0074,-2.25 -2.25,-2.25zM7,5c2.7614,0 5,2.2386 5,5c0,2.7614 -2.2386,5 -5,5c-2.7614,0 -5,-2.2386 -5,-5c0,-2.7614 2.2386,-5 5,-5zM3,10c0,2.2091 1.7909,4 4,4c2.2091,0 4,-1.7909 4,-4c0,-2.2091 -1.7909,-4 -4,-4c-2.2091,0 -4,1.7909 -4,4zM7.6666,7.2005c0.9945,0.3514 1.7819,1.1386 2.1337,2.1329c0.0921,0.2603 -0.0442,0.546 -0.3046,0.6382c-0.2603,0.0921 -0.546,-0.0443 -0.6381,-0.3046c-0.2511,-0.7096 -0.8145,-1.2729 -1.5242,-1.5237c-0.2604,-0.092 -0.3968,-0.3777 -0.3048,-0.6381c0.092,-0.2603 0.3777,-0.3968 0.638,-0.3047zM12.4989,17.9989c-1.5505,0 -2.8655,-1.0082 -3.3252,-2.4048c0.3174,-0.1234 0.6217,-0.273 0.9102,-0.4463c0.2858,1.0661 1.2587,1.8511 2.415,1.8511c1.3807,0 2.5,-1.1193 2.5,-2.5c0,-1.3276 -1.0347,-2.4134 -2.3417,-2.4951c0.1118,-0.3156 0.198,-0.6433 0.2559,-0.9807c1.7378,0.2049 3.0858,1.6829 3.0858,3.4758c0,1.933 -1.567,3.5 -3.5,3.5z" fill="#212121"/>
</svg>
