<svg width="20" height="20" viewBox="0 0 20 20" fill="none" xmlns="http://www.w3.org/2000/svg">
<path d="M7.5,15L3.25,15C2.56,15 2,14.44 2,13.75L2,3.25C2,2.56 2.56,2 3.25,2L8.75,2C9.44,2 10,2.56 10,3.25L10,5.75C10,5.888 10.112,6 10.25,6L11.75,6C12.356,6 12.861,6.431 12.975,7.002C12.633,7.044 12.298,7.165 12,7.365L12,7.25C12,7.112 11.888,7 11.75,7L10.25,7C9.56,7 9,6.44 9,5.75L9,3.25C9,3.112 8.888,3 8.75,3L3.25,3C3.112,3 3,3.112 3,3.25L3,13.75C3,13.888 3.112,14 3.25,14L7.5,14L7.5,15ZM14.061,8.284L17.532,11.244C17.829,11.497 18,11.868 18,12.258L18,16.874C18,17.496 17.496,17.999 16.875,17.999L15.125,17.999C14.504,17.999 14,17.496 14,16.874L14,15.125C14,15.056 13.944,15 13.875,15L12.625,15C12.556,15 12.5,15.056 12.5,15.125L12.5,16.874C12.5,17.496 11.996,17.999 11.375,17.999L9.625,17.999C9.004,17.999 8.5,17.496 8.5,16.874L8.5,12.258C8.5,11.868 8.671,11.497 8.968,11.244L12.439,8.284C12.906,7.886 13.594,7.886 14.061,8.284ZM13.088,9.045L9.617,12.005C9.543,12.068 9.5,12.161 9.5,12.258L9.5,16.874C9.5,16.943 9.556,16.999 9.625,16.999L11.375,16.999C11.444,16.999 11.5,16.943 11.5,16.874L11.5,15.125C11.5,14.504 12.004,14 12.625,14L13.875,14C14.496,14 15,14.504 15,15.125L15,16.874C15,16.943 15.056,16.999 15.125,16.999L16.875,16.999C16.944,16.999 17,16.943 17,16.874L17,12.258C17,12.161 16.957,12.068 16.883,12.005L13.412,9.045C13.319,8.966 13.181,8.966 13.088,9.045ZM5.5,4.75C5.5,5.164 5.164,5.5 4.75,5.5C4.336,5.5 4,5.164 4,4.75C4,4.336 4.336,4 4.75,4C5.164,4 5.5,4.336 5.5,4.75ZM4.75,7.75C4.336,7.75 4,7.414 4,7C4,6.586 4.336,6.25 4.75,6.25C5.164,6.25 5.5,6.586 5.5,7C5.5,7.414 5.164,7.75 4.75,7.75ZM5.5,9.25C5.5,9.664 5.164,10 4.75,10C4.336,10 4,9.664 4,9.25C4,8.836 4.336,8.5 4.75,8.5C5.164,8.5 5.5,8.836 5.5,9.25ZM7.25,5.5C6.836,5.5 6.5,5.164 6.5,4.75C6.5,4.336 6.836,4 7.25,4C7.664,4 8,4.336 8,4.75C8,5.164 7.664,5.5 7.25,5.5ZM8,7C8,7.414 7.664,7.75 7.25,7.75C6.836,7.75 6.5,7.414 6.5,7C6.5,6.586 6.836,6.25 7.25,6.25C7.664,6.25 8,6.586 8,7ZM7.25,10C6.836,10 6.5,9.664 6.5,9.25C6.5,8.836 6.836,8.5 7.25,8.5C7.664,8.5 8,8.836 8,9.25C8,9.664 7.664,10 7.25,10Z" fill="#212121"/>
</svg>
