<svg width="20" height="20" viewBox="0 0 20 20" fill="none" xmlns="http://www.w3.org/2000/svg">
<path d="M6.171,15L3.25,15C2.56,15 2,14.44 2,13.75L2,3.25C2,2.56 2.56,2 3.25,2L8.75,2C9.44,2 10,2.56 10,3.25L10,5.75C10,5.888 10.112,6 10.25,6L11.75,6C12.355,6 12.859,6.429 12.975,7L9,7C8.641,7 8.297,7.063 7.979,7.178C7.993,7.121 8,7.061 8,7C8,6.586 7.664,6.25 7.25,6.25C6.836,6.25 6.5,6.586 6.5,7C6.5,7.344 6.732,7.634 7.047,7.722C6.791,7.942 6.572,8.205 6.402,8.499C6.147,8.941 6,9.453 6,10L6,14C6,14.351 6.06,14.687 6.171,15ZM4,4.75C4,5.164 4.336,5.5 4.75,5.5C5.164,5.5 5.5,5.164 5.5,4.75C5.5,4.336 5.164,4 4.75,4C4.336,4 4,4.336 4,4.75ZM4.75,7.75C5.164,7.75 5.5,7.414 5.5,7C5.5,6.586 5.164,6.25 4.75,6.25C4.336,6.25 4,6.586 4,7C4,7.414 4.336,7.75 4.75,7.75ZM7.25,5.5C7.664,5.5 8,5.164 8,4.75C8,4.336 7.664,4 7.25,4C6.836,4 6.5,4.336 6.5,4.75C6.5,5.164 6.836,5.5 7.25,5.5ZM4,9.25C4,9.664 4.336,10 4.75,10C5.164,10 5.5,9.664 5.5,9.25C5.5,8.836 5.164,8.5 4.75,8.5C4.336,8.5 4,8.836 4,9.25ZM7.268,9C7.613,8.402 8.26,8 9,8L16,8C17.105,8 18,8.895 18,10L18,14C18,15.105 17.105,16 16,16L14,16L14,17L15.5,17C15.776,17 16,17.224 16,17.5C16,17.776 15.776,18 15.5,18L9.5,18C9.224,18 9,17.776 9,17.5C9,17.224 9.224,17 9.5,17L11,17L11,16L9,16C7.895,16 7,15.105 7,14L7,10C7,9.636 7.097,9.294 7.268,9ZM9,9C8.448,9 8,9.448 8,10L8,14C8,14.552 8.448,15 9,15L16,15C16.552,15 17,14.552 17,14L17,10C17,9.448 16.552,9 16,9L9,9ZM13,17L13,16L12,16L12,17L13,17Z" fill="#212121"/>
</svg>
