<svg width="20" height="20" viewBox="0 0 20 20" fill="none" xmlns="http://www.w3.org/2000/svg">
<path d="M4.7989,10.7498c-0.2595,0.4481 -0.7443,0.7498 -1.2989,0.7498c-0.8279,0 -1.5,-0.6722 -1.5,-1.5c0,-0.8279 0.6721,-1.5 1.5,-1.5c0.5548,0 1.0397,0.3019 1.2992,0.7502l0.568,0.0001c0.0966,0 0.1846,-0.0556 0.2259,-0.143l1.0113,-2.1348c0.2929,-0.6185 0.9283,-1.001 1.612,-0.9704c0.6836,0.0306 1.2823,0.4682 1.5189,1.1103l1.9369,5.2573c0.0278,0.0754 0.0981,0.1268 0.1784,0.1304c0.0803,0.0036 0.1549,-0.0413 0.1894,-0.114l1.0113,-2.1352c0.2895,-0.6112 0.9053,-1.0009 1.5816,-1.0009h0.568c0.2595,-0.4484 0.7444,-0.7502 1.2993,-0.7502c0.828,0 1.5002,0.6722 1.5002,1.5002c0,0.828 -0.6722,1.5002 -1.5002,1.5002c-0.5548,0 -1.0397,-0.3019 -1.2993,-0.7502h-0.568c-0.0967,0 -0.1846,0.0556 -0.226,0.143l-1.0113,2.1352c-0.293,0.6185 -0.9283,1.001 -1.612,0.9704c-0.6837,-0.0306 -1.2824,-0.4682 -1.519,-1.1104l-1.9368,-5.2572c-0.0278,-0.0754 -0.0981,-0.1268 -0.1784,-0.1304c-0.0803,-0.0036 -0.155,0.0413 -0.1894,0.114l-1.0112,2.1349c-0.2896,0.6112 -0.9055,1.0009 -1.5819,1.0008z" fill="#212121"/>
</svg>
