<svg width="20" height="20" viewBox="0 0 20 20" fill="none" xmlns="http://www.w3.org/2000/svg">
<path d="M4.9144,10.4998c-0.2062,0.5823 -0.7619,0.9998 -1.4144,0.9998c-0.8279,0 -1.5,-0.6722 -1.5,-1.5c0,-0.8279 0.6721,-1.5 1.5,-1.5c0.6527,0 1.2086,0.4177 1.4146,1.0002l0.4674,0.0001c0.1894,0 0.3625,-0.107 0.4472,-0.2764l0.9406,-1.8811c0.2695,-0.5391 0.8316,-0.8687 1.4337,-0.8408c0.6022,0.028 1.1313,0.4082 1.3497,0.97l1.8256,4.6943c0.0751,0.1931 0.257,0.3238 0.464,0.3334c0.207,0.0096 0.4003,-0.1037 0.493,-0.2891l0.9406,-1.8814c0.2541,-0.5082 0.7735,-0.8292 1.3417,-0.8292h0.4674c0.2061,-0.5825 0.762,-1.0002 1.4147,-1.0002c0.828,0 1.5002,0.6722 1.5002,1.5002c0,0.828 -0.6722,1.5002 -1.5002,1.5002c-0.6527,0 -1.2086,-0.4177 -1.4147,-1.0002h-0.4674c-0.1894,0 -0.3625,0.107 -0.4473,0.2764l-0.9406,1.8814c-0.2695,0.5392 -0.8316,0.8688 -1.4337,0.8408c-0.6022,-0.0279 -1.1313,-0.4081 -1.3498,-0.9699l-1.8255,-4.6942c-0.0751,-0.1932 -0.257,-0.3239 -0.464,-0.3335c-0.2071,-0.0096 -0.4003,0.1037 -0.493,0.2891l-0.9406,1.881c-0.2541,0.5083 -0.7736,0.8293 -1.3418,0.8292z" fill="#212121"/>
</svg>
