<svg width="20" height="20" viewBox="0 0 20 20" fill="none" xmlns="http://www.w3.org/2000/svg">
<path d="M9.4958,3h-0.2455c-0.6904,0 -1.25,0.5597 -1.25,1.25v1.5001c0,0.6903 0.5597,1.25 1.25,1.25c0.6904,0 1.25,-0.5597 1.25,-1.25h-1c-0.2761,0 -0.5,-0.2239 -0.5,-0.5c0,-0.2762 0.2239,-0.5 0.5,-0.5h1.5c0.2762,0 0.5,0.2238 0.5,0.5v0.5c0,1.2426 -1.0073,2.25 -2.25,2.25c-1.2426,0 -2.25,-1.0074 -2.25,-2.25v-1.5001c0,-1.2426 1.0073,-2.2499 2.2499,-2.25h0.25c0.0284,0 1.1168,-0.0002 1.6474,1.0192c0.1276,0.2449 0.0324,0.5468 -0.2126,0.6744c-0.2449,0.1275 -0.5468,0.0323 -0.6743,-0.2126c-0.1236,-0.2374 -0.3098,-0.3554 -0.4784,-0.4183c-0.1516,-0.0565 -0.2758,-0.0622 -0.2865,-0.0627zM16.5037,5.001c0.2454,0 0.4496,0.1768 0.4919,0.4101l0.0081,0.0899v11.0002c0,0.2762 -0.2239,0.5 -0.5,0.5c-0.2455,0 -0.4496,-0.1769 -0.492,-0.4101l-0.008,-0.0899v-11.0002c0,-0.2762 0.2238,-0.5 0.5,-0.5zM7.5037,10.9999c0.2454,0 0.4496,0.1769 0.4919,0.4101l0.0081,0.0899v5.0003c0,0.2761 -0.2239,0.5 -0.5,0.5c-0.2455,0 -0.4496,-0.1769 -0.492,-0.4102l-0.008,-0.0898v-5.0003c0,-0.2761 0.2238,-0.5 0.5,-0.5zM4.5003,13.0002c0.2455,0 0.4496,0.1768 0.492,0.4101l0.008,0.0899v3c0,0.2761 -0.2238,0.5 -0.5,0.5c-0.2454,0 -0.4496,-0.1769 -0.4919,-0.4102l-0.0081,-0.0898v-3c0,-0.2762 0.2239,-0.5 0.5,-0.5zM10.5003,8.9977c0.2455,0 0.4496,0.1769 0.492,0.4101l0.008,0.0899v7.0025c0,0.2761 -0.2238,0.5 -0.5,0.5c-0.2454,0 -0.4496,-0.1769 -0.4919,-0.4102l-0.0081,-0.0898v-7.0025c0,-0.2761 0.2239,-0.5 0.5,-0.5zM13.5003,7.0023c0.2455,0 0.4496,0.1768 0.492,0.4101l0.008,0.0899v8.9979c0,0.2761 -0.2238,0.5 -0.5,0.5c-0.2454,0 -0.4496,-0.1769 -0.4919,-0.4102l-0.0081,-0.0898v-8.9979c0,-0.2762 0.2239,-0.5 0.5,-0.5zM5.5,6h0.25c0.276,0 0.5,0.224 0.5,0.5c0,0.276 -0.224,0.5 -0.5,0.5h-0.25v0.5c0,0.276 -0.224,0.5 -0.5,0.5c-0.276,0 -0.5,-0.224 -0.5,-0.5v-0.5h-2c-0.1818,0 -0.3492,-0.0986 -0.4373,-0.2576c-0.0881,-0.159 -0.083,-0.3533 0.0133,-0.5074l2.5,-4c0.1182,-0.1891 0.3474,-0.2771 0.5618,-0.2156c0.2145,0.0615 0.3622,0.2575 0.3622,0.4806zM4.5,6v-1.7566l-1.0979,1.7566z" fill="#212121"/>
</svg>
