<svg width="20" height="20" viewBox="0 0 20 20" fill="none" xmlns="http://www.w3.org/2000/svg">
<path d="M2,8.1727v-3.1727c0,-1.1046 0.8954,-2 2,-2h12c1.1046,0 2,0.8954 2,2v8c0,1.1046 -0.8954,2 -2,2h-7v-1h7c0.5523,0 1,-0.4477 1,-1v-8c0,-0.5523 -0.4477,-1 -1,-1h-12c-0.5523,0 -1,0.4477 -1,1v2.2587c-0.3776,0.253 -0.7149,0.5615 -1,0.914zM5.0007,6.5274c-0.0005,-0.009 -0.0007,-0.0182 -0.0007,-0.0274c0,-0.2761 0.2239,-0.5 0.5,-0.5h9c0.2761,0 0.5,0.2239 0.5,0.5c0,0.2761 -0.2239,0.5 -0.5,0.5h-6.9377c-0.618,-0.3195 -1.3192,-0.5 -2.0623,-0.5c-0.1687,0 -0.3353,0.0093 -0.4993,0.0274zM10.5,10h4c0.2761,0 0.5,0.2239 0.5,0.5c0,0.2761 -0.2239,0.5 -0.5,0.5h-4c-0.2761,0 -0.5,-0.2239 -0.5,-0.5c0,-0.2761 0.2239,-0.5 0.5,-0.5zM5.5,14.5c-1.933,0 -3.5,-1.567 -3.5,-3.5c0,-1.933 1.567,-3.5 3.5,-3.5c1.933,0 3.5,1.567 3.5,3.5c0,1.933 -1.567,3.5 -3.5,3.5zM3,14.7413c0.7151,0.4787 1.5749,0.7578 2.5,0.7578c0.9251,0 1.785,-0.2791 2.5,-0.7578v2.7578c0,0.412 -0.4704,0.6472 -0.8,0.4l-1.4,-1.05c-0.1778,-0.1333 -0.4222,-0.1333 -0.6,0l-1.4,1.05c-0.3296,0.2472 -0.8,0.012 -0.8,-0.4z" fill="#212121"/>
</svg>
