<svg width="20" height="20" viewBox="0 0 20 20" fill="none" xmlns="http://www.w3.org/2000/svg">
<path d="M9,13.8273c0.6253,-0.7729 1,-1.7567 1,-2.8273c0,-1.7405 -0.9903,-3.2516 -2.4377,-4h6.9377c0.2761,0 0.5,-0.2239 0.5,-0.5c0,-0.2761 -0.2239,-0.5 -0.5,-0.5h-9c-0.2761,0 -0.5,0.2239 -0.5,0.5c0,0.0092 0.0002,0.0184 0.0007,0.0274c-1.2088,0.1337 -2.274,0.7471 -3.0007,1.6453v-3.1727c0,-1.1046 0.8954,-2 2,-2h12c1.1046,0 2,0.8954 2,2v8c0,1.1046 -0.8954,2 -2,2h-7zM11,10.5c0,0.2761 0.2239,0.5 0.5,0.5h3c0.2761,0 0.5,-0.2239 0.5,-0.5c0,-0.2761 -0.2239,-0.5 -0.5,-0.5h-3c-0.2761,0 -0.5,0.2239 -0.5,0.5zM5.5,14.5c-1.933,0 -3.5,-1.567 -3.5,-3.5c0,-1.933 1.567,-3.5 3.5,-3.5c1.933,0 3.5,1.567 3.5,3.5c0,1.933 -1.567,3.5 -3.5,3.5zM3,14.7413c0.7151,0.4787 1.5749,0.7578 2.5,0.7578c0.9251,0 1.785,-0.2791 2.5,-0.7578v2.7578c0,0.412 -0.4704,0.6472 -0.8,0.4l-1.4,-1.05c-0.1778,-0.1333 -0.4222,-0.1333 -0.6,0l-1.4,1.05c-0.3296,0.2472 -0.8,0.012 -0.8,-0.4z" fill="#212121"/>
</svg>
