<svg width="20" height="20" viewBox="0 0 20 20" fill="none" xmlns="http://www.w3.org/2000/svg">
<path d="M13.8255,9h2.1745c1.105,0 2,0.895 2,2v5c0,1.105 -0.895,2 -2,2h-7c-1.105,0 -2,-0.895 -2,-2v-2.0192c0.165,0.0126 0.3317,0.019 0.4999,0.019c0.1683,0 0.335,-0.0064 0.5001,-0.019v2.0192c0,0.552 0.448,1 1,1h7c0.552,0 1,-0.448 1,-1v-3.191l-4.276,2.138c-0.141,0.071 -0.307,0.071 -0.448,0l-2.6246,-1.3123c0.4054,-0.1423 0.7924,-0.3237 1.1566,-0.5397l1.692,0.846l4.5,-2.25v-0.691c0,-0.552 -0.448,-1 -1,-1h-2.4992c0.1341,-0.3211 0.2432,-0.6553 0.3247,-1zM2.6616,10.1156c-0.4219,-0.7782 -0.6616,-1.6691 -0.6616,-2.6157c0,-3.0355 2.4644,-5.4999 5.4999,-5.4999c3.0355,0 5.4999,2.4644 5.4999,5.4999c0,3.0355 -2.4644,5.4999 -5.4999,5.4999c-0.9953,0 -1.9292,-0.265 -2.7347,-0.728l-2.1069,0.7023c-0.1759,0.0587 -0.3699,0.0151 -0.5039,-0.1131c-0.134,-0.1283 -0.1859,-0.3202 -0.135,-0.4986zM9,7c0.276,0 0.5,-0.224 0.5,-0.5c0,-0.276 -0.224,-0.5 -0.5,-0.5h-3c-0.276,0 -0.5,0.224 -0.5,0.5c0,0.276 0.224,0.5 0.5,0.5zM8,9c0.276,0 0.5,-0.224 0.5,-0.5c0,-0.276 -0.224,-0.5 -0.5,-0.5h-1.9996c-0.2759,0 -0.5,0.224 -0.5,0.5c0,0.276 0.2241,0.5 0.5,0.5z" fill="#212121"/>
</svg>
