<svg width="20" height="20" viewBox="0 0 20 20" fill="none" xmlns="http://www.w3.org/2000/svg">
<path d="M8.5485,2.36l0.933,0.3672c0.3329,0.131 0.7031,0.131 1.0359,0l0.9331,-0.3672c1.1421,-0.4495 2.4351,0.0861 2.9249,1.2115l0.4001,0.9195c0.1427,0.328 0.4044,0.5897 0.7325,0.7325l0.9194,0.4001c1.1254,0.4898 1.6611,1.7827 1.2115,2.9249l-0.3671,0.933c-0.1311,0.3329 -0.1311,0.7031 0,1.0359l0.3671,0.9331c0.4496,1.1421 -0.0861,2.4351 -1.2115,2.9249l-0.9194,0.4001c-0.3281,0.1427 -0.5898,0.4044 -0.7325,0.7325l-0.4001,0.9194c-0.4898,1.1254 -1.7828,1.6611 -2.9249,1.2115l-0.9331,-0.3671c-0.3328,-0.1311 -0.703,-0.1311 -1.0359,0l-0.933,0.3671c-1.1422,0.4496 -2.4351,-0.0861 -2.9249,-1.2115l-0.4001,-0.9194c-0.1428,-0.3281 -0.4045,-0.5898 -0.7325,-0.7325l-0.9195,-0.4001c-1.1254,-0.4898 -1.661,-1.7828 -1.2115,-2.9249l0.3672,-0.9331c0.131,-0.3328 0.131,-0.703 0,-1.0359l-0.3672,-0.933c-0.4495,-1.1422 0.0861,-2.4351 1.2115,-2.9249l0.9195,-0.4001c0.328,-0.1428 0.5897,-0.4045 0.7325,-0.7325l0.4001,-0.9195c0.4898,-1.1254 1.7827,-1.661 2.9249,-1.2115zM8.9781,11.771l-1.6251,-1.6251l-0.0692,-0.0578c-0.1949,-0.135 -0.4643,-0.1157 -0.6379,0.0578c-0.1952,0.1953 -0.1952,0.5119 0,0.7071l2,2l0.0723,0.06c0.2033,0.1387 0.4851,0.1098 0.655,-0.0813l4,-4.5l0.0537,-0.0726c0.1233,-0.2024 0.0882,-0.4703 -0.0952,-0.6333c-0.2064,-0.1835 -0.5225,-0.1649 -0.7059,0.0415z" fill="#212121"/>
</svg>
