<svg width="20" height="20" viewBox="0 0 20 20" fill="none" xmlns="http://www.w3.org/2000/svg">
<path d="M13,7.5c0,3.0376 -2.4624,5.5 -5.5,5.5c-3.0376,0 -5.5,-2.4624 -5.5,-5.5c0,-3.0376 2.4624,-5.5 5.5,-5.5c3.0376,0 5.5,2.4624 5.5,5.5zM10.3536,5.6464c-0.1953,-0.1952 -0.5119,-0.1952 -0.7071,0l-2.6465,2.6465l-1.1464,-1.1465c-0.1953,-0.1952 -0.5119,-0.1952 -0.7071,0c-0.1953,0.1953 -0.1953,0.5119 0,0.7071l1.5,1.5c0.1952,0.1953 0.5118,0.1953 0.7071,0l3,-3c0.1952,-0.1952 0.1952,-0.5118 0,-0.7071zM8,15v-1.0709c0.3419,-0.0489 0.6759,-0.1225 1,-0.219v1.2899c0,1.1046 0.8954,2 2,2h4c1.1046,0 2,-0.8954 2,-2v-4c0,-1.1046 -0.8954,-2 -2,-2h-1.2899c0.0965,-0.3241 0.1701,-0.6581 0.219,-1h1.0709c1.6569,0 3,1.3432 3,3v4c0,1.6569 -1.3431,3 -3,3h-4c-1.6568,0 -3,-1.3431 -3,-3zM10.5593,13.2365c0.2961,-0.1583 0.5786,-0.3388 0.8451,-0.5393l1.0956,1.0957l2.6464,-2.6465c0.1953,-0.1952 0.5119,-0.1952 0.7072,0c0.1952,0.1953 0.1952,0.5119 0,0.7072l-3,3c-0.1953,0.1952 -0.5119,0.1952 -0.7072,0l-1.5,-1.5c-0.0355,-0.0355 -0.0645,-0.075 -0.0871,-0.1171z" fill="#212121"/>
</svg>
