<svg width="20" height="20" viewBox="0 0 20 20" fill="none" xmlns="http://www.w3.org/2000/svg">
<path d="M11.5245,18c0.2989,-0.4063 0.4755,-0.9081 0.4755,-1.4512c0,-0.8339 -0.4224,-1.557 -0.979,-2.0226c-0.2159,-0.1806 -0.5116,-0.4719 -0.7951,-0.8888c0.604,-1.2756 1.2667,-3.1794 1.4649,-5.6479c-0.4774,-0.1335 -0.9067,-0.3819 -1.2562,-0.7137c-0.1321,-0.7226 -0.4584,-1.3773 -0.9228,-1.9082c-0.0078,-0.0882 -0.0118,-0.1774 -0.0118,-0.2676v-2.6c0,-0.2761 0.2239,-0.5 0.5,-0.5h0.75c0.4142,0 0.75,0.3358 0.75,0.75v0.75c0,0.2757 0.2231,0.4993 0.4987,0.5c0.2757,0.0007 0.4999,-0.2218 0.5013,-0.4975l0.0038,-0.7562c0.002,-0.4128 0.3372,-0.7463 0.75,-0.7463h0.4924c0.4128,0 0.748,0.3335 0.75,0.7463l0.0038,0.7537v0.0025c0.0014,0.2757 0.2256,0.4982 0.5012,0.4975c0.2757,-0.0007 0.4988,-0.2243 0.4988,-0.5v-0.75c0,-0.4142 0.3358,-0.75 0.75,-0.75h0.75c0.2761,0 0.5,0.2239 0.5,0.5v2.6c0,1.3766 -0.9269,2.5362 -2.1908,2.8895c0.3198,3.9822 1.8483,6.4949 2.3891,7.2715c0.1831,0.263 0.3017,0.5841 0.3017,0.9316v0.3074c0,0.8284 -0.6716,1.5 -1.5,1.5zM6.5,5c1.6568,0 3,1.3431 3,3c0,0.7683 -0.2889,1.4692 -0.7639,2h0.2639c0.5523,0 1,0.4477 1,1c0,0.5523 -0.4477,1 -1,1h-0.5191c0.3707,1.798 1.3516,2.8358 1.8985,3.2932c0.3469,0.2902 0.6206,0.7358 0.6206,1.2556c0,0.8015 -0.6497,1.4512 -1.4512,1.4512h-6.0976c-0.8015,0 -1.4512,-0.6497 -1.4512,-1.4512c0,-0.5198 0.2737,-0.9654 0.6206,-1.2556c0.5469,-0.4574 1.5278,-1.4952 1.8985,-3.2932h-0.5191c-0.5523,0 -1,-0.4477 -1,-1c0,-0.5523 0.4477,-1 1,-1h0.2639c-0.4751,-0.5308 -0.7639,-1.2317 -0.7639,-2c0,-1.6569 1.3431,-3 3,-3z" fill="#212121"/>
</svg>
