<svg width="20" height="20" viewBox="0 0 20 20" fill="none" xmlns="http://www.w3.org/2000/svg">
<path d="M6.5,5c1.6569,0 3,1.3432 3,3c0,0.3629 -0.0646,0.7112 -0.1829,1.0336c0.6761,0.1455 1.1829,0.7468 1.1829,1.4664c0,0.8284 -0.6716,1.5 -1.5,1.5h-0.5191c0.3707,1.7979 1.3516,2.8358 1.8985,3.2932c0.3469,0.2902 0.6206,0.7358 0.6206,1.2556c0,0.8015 -0.6497,1.4512 -1.4512,1.4512h-6.0976c-0.8015,0 -1.4512,-0.6497 -1.4512,-1.4512c0,-0.5198 0.2737,-0.9654 0.6206,-1.2556c0.5469,-0.4574 1.5278,-1.4952 1.8985,-3.2932h-0.5191c-0.8284,0 -1.5,-0.6716 -1.5,-1.5c0,-0.7197 0.5068,-1.3209 1.1829,-1.4664c-0.1183,-0.3224 -0.1829,-0.6707 -0.1829,-1.0336c0,-1.6569 1.3432,-3 3,-3zM4.5,8c0,0.4508 0.1486,0.8655 0.3996,1.1997c0.1138,0.1515 0.1322,0.3543 0.0475,0.5237c-0.0847,0.1695 -0.2578,0.2766 -0.4473,0.2766h-0.4998c-0.2761,0 -0.5,0.2239 -0.5,0.5c0,0.2761 0.2239,0.5 0.5,0.5h1.1071c0.1431,0 0.2795,0.0614 0.3744,0.1686c0.0949,0.1072 0.1392,0.25 0.1219,0.3921c-0.3021,2.4699 -1.609,3.8871 -2.3412,4.4995c-0.1741,0.1456 -0.2622,0.3291 -0.2622,0.4886c0,0.2492 0.202,0.4512 0.4512,0.4512h6.0976c0.2492,0 0.4512,-0.202 0.4512,-0.4512c0,-0.1595 -0.0881,-0.343 -0.2622,-0.4886c-0.7322,-0.6124 -2.0391,-2.0296 -2.3412,-4.4995c-0.0174,-0.1421 0.027,-0.2849 0.1219,-0.3921c0.0949,-0.1072 0.2313,-0.1686 0.3744,-0.1686h1.1071c0.2761,0 0.5,-0.2239 0.5,-0.5c0,-0.2761 -0.2239,-0.5 -0.5,-0.5h-0.4998c-0.1895,0 -0.3627,-0.1071 -0.4473,-0.2766c-0.0847,-0.1694 -0.0663,-0.3722 0.0475,-0.5237c0.251,-0.3342 0.3996,-0.7489 0.3996,-1.1997c0,-1.1046 -0.8954,-2 -2,-2c-1.1046,0 -2,0.8954 -2,2zM9.5,5.3542v-2.3542c0,-0.5523 0.4477,-1 1,-1h0.5c0.3854,0 0.7368,0.1453 1.0025,0.3842c0.2657,-0.2389 0.6172,-0.3842 1.0025,-0.3842h0.99c0.3853,0 0.7368,0.1453 1.0025,0.3842c0.2657,-0.2389 0.6171,-0.3842 1.0025,-0.3842h0.5c0.5523,0 1,0.4477 1,1v2.5c0,1.1917 -0.8338,2.1887 -1.9499,2.4393c0.2842,4.0434 1.6999,6.5853 2.1869,7.3514c0.1599,0.2517 0.263,0.5522 0.263,0.876v0.3333c0,0.8284 -0.6716,1.5 -1.5,1.5h-4.9755c0.2141,-0.291 0.3654,-0.6309 0.4341,-1h4.5414c0.2761,0 0.5,-0.2239 0.5,-0.5v-0.3333c0,-0.109 -0.0348,-0.226 -0.107,-0.3395c-0.5726,-0.9009 -2.1552,-3.7746 -2.369,-8.3038c-0.0064,-0.1355 0.0426,-0.2678 0.1357,-0.3666c0.0931,-0.0987 0.2223,-0.1553 0.358,-0.1569c0.8202,-0.0094 1.4823,-0.6774 1.4823,-1.4999v-2.5h-0.5c-0.2761,0 -0.5,0.2239 -0.5,0.5v1c0,0.2757 -0.2231,0.4993 -0.4988,0.5c-0.2756,0.0007 -0.4998,-0.2218 -0.5012,-0.4975v-0.0025l-0.005,-1.0025c-0.0014,-0.2752 -0.2248,-0.4975 -0.5,-0.4975h-0.99c-0.2752,0 -0.4986,0.2223 -0.5,0.4975l-0.005,1.005c-0.0014,0.2757 -0.2256,0.4982 -0.5013,0.4975c-0.2756,-0.0007 -0.4987,-0.2243 -0.4987,-0.5v-1c0,-0.2761 -0.2239,-0.5 -0.5,-0.5h-0.5v2.5c0,0.8225 0.6621,1.4905 1.4823,1.4999c0.1357,0.0016 0.2649,0.0582 0.358,0.1569c0.0931,0.0988 0.1421,0.2311 0.1357,0.3666c-0.1464,3.1016 -0.9347,5.4269 -1.6011,6.8739c-0.2127,-0.1975 -0.4708,-0.4805 -0.7144,-0.8588c0.1372,-0.3265 0.2769,-0.6917 0.4117,-1.0947c0.566,-0.4583 0.9278,-1.1588 0.9278,-1.9438c0,-0.3652 -0.0783,-0.7121 -0.2191,-1.0248c0.0732,-0.4849 0.1311,-0.9971 0.169,-1.5359c-0.3646,-0.0819 -0.6991,-0.2434 -0.9842,-0.4653c-0.106,-0.8072 -0.4527,-1.5386 -0.9657,-2.1198z" fill="#212121"/>
</svg>
