<svg width="20" height="20" viewBox="0 0 20 20" fill="none" xmlns="http://www.w3.org/2000/svg">
<path d="M12.5,18c-3.0376,0 -5.5,-2.4624 -5.5,-5.5c0,-3.0376 2.4624,-5.5 5.5,-5.5c3.0376,0 5.5,2.4624 5.5,5.5c0,3.0376 -2.4624,5.5 -5.5,5.5zM15.3536,10.6464c-0.1953,-0.1952 -0.5119,-0.1952 -0.7072,0l-2.6464,2.6465l-1.1464,-1.1465c-0.1953,-0.1952 -0.5119,-0.1952 -0.7072,0c-0.1952,0.1953 -0.1952,0.5119 0,0.7072l1.5,1.5c0.1953,0.1952 0.5119,0.1952 0.7072,0l3,-3c0.1952,-0.1953 0.1952,-0.5119 0,-0.7072zM6.0065,12.7926c-0.5539,-0.1568 -1.0815,-0.3996 -1.5616,-0.7196c-0.2297,-0.153 -0.2918,-0.4637 -0.1388,-0.6933c0.1531,-0.2297 0.4638,-0.2918 0.6934,-0.1388c0.3243,0.2162 0.6751,0.3894 1.0427,0.5155c-0.0279,0.244 -0.0422,0.4921 -0.0422,0.7436c0,0.098 0.0022,0.1956 0.0065,0.2926zM11.7574,6.042c-0.0304,-0.0884 -0.0637,-0.1765 -0.0999,-0.2641c-0.1151,-0.2777 -0.2547,-0.5377 -0.4154,-0.7787c-0.1532,-0.2296 -0.0911,-0.5403 0.1385,-0.6934c0.2295,-0.1531 0.5402,-0.0911 0.6934,0.1385c0.1963,0.2943 0.3669,0.6118 0.5073,0.9509c0.0837,0.202 0.1544,0.406 0.2125,0.6113c-0.0974,-0.0043 -0.1953,-0.0065 -0.2938,-0.0065c-0.2511,0 -0.4989,0.0143 -0.7426,0.042zM4.9992,3.7579c-0.2296,0.1532 -0.5403,0.0911 -0.6934,-0.1385c-0.1531,-0.2295 -0.0911,-0.5402 0.1385,-0.6934c0.2943,-0.1963 0.6118,-0.3669 0.9509,-0.5073c0.3392,-0.1405 0.6843,-0.2444 1.0312,-0.3137c0.2706,-0.0541 0.5342,0.1218 0.5883,0.3924c0.054,0.2706 -0.1218,0.5342 -0.3924,0.5882c-0.2841,0.0568 -0.5667,0.1419 -0.8444,0.2569c-0.2777,0.1151 -0.5377,0.2547 -0.7787,0.4154zM8.3771,3.0866c-0.2706,-0.0541 -0.4463,-0.3177 -0.3922,-0.5883c0.0542,-0.2706 0.3178,-0.4464 0.5884,-0.3922c0.7073,0.1415 1.3816,0.4208 1.9818,0.8209c0.2297,0.153 0.2918,0.4637 0.1388,0.6933c-0.1531,0.2297 -0.4638,0.2918 -0.6934,0.1388c-0.4916,-0.3277 -1.044,-0.5565 -1.6234,-0.6725zM3.7579,10.0008c0.1532,0.2296 0.0911,0.5403 -0.1385,0.6934c-0.2295,0.1531 -0.5402,0.0911 -0.6934,-0.1385c-0.1963,-0.2943 -0.3669,-0.6118 -0.5073,-0.9509c-0.1405,-0.3392 -0.2444,-0.6844 -0.3137,-1.0313c-0.0541,-0.2706 0.1218,-0.5341 0.3924,-0.5882c0.2706,-0.054 0.5342,0.1218 0.5882,0.3924c0.0568,0.2841 0.1419,0.5667 0.2569,0.8444c0.1151,0.2777 0.2547,0.5377 0.4154,0.7787zM3.0866,6.6229c-0.0541,0.2706 -0.3177,0.4463 -0.5883,0.3922c-0.2706,-0.0542 -0.4464,-0.3178 -0.3922,-0.5884c0.1415,-0.7073 0.4208,-1.3816 0.8209,-1.9818c0.153,-0.2297 0.4637,-0.2918 0.6933,-0.1388c0.2297,0.1531 0.2918,0.4638 0.1388,0.6934c-0.3277,0.4916 -0.5565,1.044 -0.6725,1.6234z" fill="#212121"/>
</svg>
