<svg width="20" height="20" viewBox="0 0 20 20" fill="none" xmlns="http://www.w3.org/2000/svg">
<path d="M6.007,12.795c-2.312,-0.651 -4.007,-2.775 -4.007,-5.295c-0,-3.038 2.462,-5.5 5.5,-5.5c2.52,0 4.644,1.695 5.295,4.007c-0.098,-0.005 -0.196,-0.007 -0.295,-0.007c-3.59,0 -6.5,2.91 -6.5,6.5c-0,0.099 0.002,0.197 0.007,0.295Zm1.394,-5.795l-2.401,0c-0.276,0 -0.5,0.224 -0.5,0.5c-0,0.276 0.224,0.5 0.5,0.5l1.499,-0c0.271,-0.36 0.573,-0.695 0.902,-1Zm5.099,11c-3.038,0 -5.5,-2.462 -5.5,-5.5c-0,-3.038 2.462,-5.5 5.5,-5.5c3.038,0 5.5,2.462 5.5,5.5c-0,3.038 -2.462,5.5 -5.5,5.5Zm2.854,-6.646c0.195,-0.196 0.195,-0.512 -0,-0.708c-0.196,-0.195 -0.512,-0.195 -0.708,0l-2.646,2.647l-1.146,-1.147c-0.196,-0.195 -0.512,-0.195 -0.708,0c-0.195,0.196 -0.195,0.512 0,0.708l1.5,1.5c0.196,0.195 0.512,0.195 0.708,-0l3,-3Z" fill="#212121"/>
</svg>
