<svg width="20" height="20" viewBox="0 0 20 20" fill="none" xmlns="http://www.w3.org/2000/svg">
<path d="M7.81,8l-2.81,0c-0.276,0 -0.5,-0.224 -0.5,-0.5c-0,-0.276 0.224,-0.5 0.5,-0.5l4.034,0c-0.448,0.283 -0.859,0.619 -1.224,1ZM12.5,18c-3.0376,0 -5.5,-2.4624 -5.5,-5.5c0,-3.0376 2.4624,-5.5 5.5,-5.5c3.0376,0 5.5,2.4624 5.5,5.5c0,3.0376 -2.4624,5.5 -5.5,5.5zM12.5,17c2.4853,0 4.5,-2.0147 4.5,-4.5c0,-2.4853 -2.0147,-4.5 -4.5,-4.5c-2.4853,0 -4.5,2.0147 -4.5,4.5c0,2.4853 2.0147,4.5 4.5,4.5zM15.3536,11.3536l-3,3c-0.1953,0.1952 -0.5119,0.1952 -0.7072,0l-1.5,-1.5c-0.1952,-0.1953 -0.1952,-0.5119 0,-0.7072c0.1953,-0.1952 0.5119,-0.1952 0.7072,0l1.1464,1.1465l2.6464,-2.6465c0.1953,-0.1952 0.5119,-0.1952 0.7072,0c0.1952,0.1953 0.1952,0.5119 0,0.7072zM6.0066,12.7948c-2.3119,-0.6507 -4.0066,-2.7749 -4.0066,-5.2948c0,-3.0376 2.4624,-5.5 5.5,-5.5c2.5199,0 4.6441,1.6947 5.2948,4.0066c-0.0977,-0.0044 -0.196,-0.0066 -0.2948,-0.0066c-0.2507,0 -0.4982,0.0142 -0.7415,0.0418c-0.6058,-1.7696 -2.2836,-3.0418 -4.2585,-3.0418c-2.4853,0 -4.5,2.0147 -4.5,4.5c0,1.9749 1.2722,3.6527 3.0418,4.2585c-0.0276,0.2433 -0.0418,0.4908 -0.0418,0.7415c0,0.0988 0.0022,0.1971 0.0066,0.2948z" fill="#212121"/>
</svg>
