<svg width="20" height="20" viewBox="0 0 20 20" xmlns="http://www.w3.org/2000/svg">
  <path d="M17.0233,11.9965c0.5982,0.3217 0.9768,0.9525 0.9768,1.6395c0,1.0274 -0.8366,1.864 -1.864,1.864h-12.272c-1.0274,0 -1.864,-0.8366 -1.864,-1.864c0,-0.6859 0.3748,-1.3165 0.9764,-1.6396l4.9129,-2.6942c0.3629,-0.1991 0.8192,-0.066 1.0182,0.2969c0.199,0.363 0.066,0.8192 -0.297,1.0183l-4.9129,2.6942l-0.0057,0.0031c-0.1187,0.0638 -0.1919,0.1872 -0.1919,0.3213c0,0.2006 0.1634,0.364 0.364,0.364h12.272c0.2006,0 0.364,-0.1634 0.364,-0.364c0,-0.133 -0.0714,-0.2562 -0.1872,-0.3185l-6.1039,-3.3465c-0.592,-0.325 -0.96,-0.947 -0.96,-1.622c0,-0.537 0.24,-0.97 0.501,-1.287c0.258,-0.313 0.578,-0.564 0.836,-0.752c0.252,-0.183 0.413,-0.478 0.413,-0.81c0,-0.552 -0.448,-1 -1,-1c-0.398,0 -0.742,0.232 -0.904,0.571c-0.178,0.374 -0.625,0.533 -0.999,0.355c-0.374,-0.178 -0.533,-0.626 -0.355,-1c0.401,-0.841 1.26,-1.426 2.258,-1.426c1.381,0 2.5,1.119 2.5,2.5c0,0.832 -0.407,1.57 -1.03,2.023c-0.233,0.169 -0.427,0.33 -0.561,0.493c-0.131,0.158 -0.159,0.264 -0.159,0.333c0,0.128 0.07,0.245 0.181,0.306z" fill="#212121" />
</svg>