<svg width="20" height="20" viewBox="0 0 20 20" fill="none" xmlns="http://www.w3.org/2000/svg">
<path d="M5.7626,3.3519c2.2915,-1.4039 4.9857,-1.5705 7.7118,-0.1701c3.851,1.9783 5.3742,5.921 4.0729,10.1505c-0.4131,1.3426 -1.2446,2.6509 -2.3077,3.4927c-1.1659,0.9232 -2.5687,1.3008 -4.0975,0.7782c-1.1782,-0.4028 -1.7845,-1.0129 -2.1475,-1.638c-0.3509,-0.6043 -0.4964,-1.306 -0.5591,-2.0763c-0.0157,-0.1926 -0.0256,-0.3663 -0.0356,-0.5429c-0.0071,-0.1237 -0.0141,-0.2488 -0.0237,-0.3843c-0.0175,-0.2458 -0.0403,-0.4998 -0.0975,-0.7359c-0.0374,-0.1538 -0.089,-0.3132 -0.197,-0.4466c-0.0899,-0.1109 -0.2147,-0.1855 -0.3682,-0.2324c-0.4465,-0.1364 -0.8049,-0.1327 -1.1132,-0.0351c-0.2796,0.0887 -0.5174,0.2431 -0.7026,0.3565c-0.0551,0.0337 -0.1071,0.0656 -0.1551,0.0938c-0.5006,0.2954 -0.8449,0.3802 -1.2108,0.3619c-0.3141,-0.0155 -0.8312,-0.1145 -1.6157,-0.754c-0.597,-0.4867 -0.9124,-1.1673 -0.9161,-2.062c-0.0028,-0.6952 0.2031,-1.5199 0.5973,-2.3698c0.7395,-1.5945 2.059,-3.1083 3.1653,-3.7862zM14.5,13c0.5523,0 1,-0.4477 1,-1c0,-0.5523 -0.4477,-1 -1,-1c-0.5523,0 -1,0.4477 -1,1c0,0.5523 0.4477,1 1,1zM9.5,6.75c0.5523,0 1,-0.4477 1,-1c0,-0.5523 -0.4477,-1 -1,-1c-0.5523,0 -1,0.4477 -1,1c0,0.5523 0.4477,1 1,1zM15.5,9c0,-0.5523 -0.4477,-1 -1,-1c-0.5523,0 -1,0.4477 -1,1c0,0.5523 0.4477,1 1,1c0.5523,0 1,-0.4477 1,-1zM13.5,14c0,-0.5523 -0.4477,-1 -1,-1c-0.5523,0 -1,0.4477 -1,1c0,0.5523 0.4477,1 1,1c0.5523,0 1,-0.4477 1,-1zM12.5,7.75c0.5523,0 1,-0.4477 1,-1c0,-0.5523 -0.4477,-1 -1,-1c-0.5523,0 -1,0.4477 -1,1c0,0.5523 0.4477,1 1,1z" fill="#212121"/>
</svg>
