<svg width="20" height="20" viewBox="0 0 20 20" fill="none" xmlns="http://www.w3.org/2000/svg">
<path d="M17.4955,12.6719c0.3138,0.3532 0.5045,0.8184 0.5045,1.3281v2c0,1.1046 -0.8954,2 -2,2h-12c-1.1046,0 -2,-0.8954 -2,-2v-2c0,-1.0514 0.8113,-1.9133 1.842,-1.9938l1.9435,1.9435c1.1716,1.1716 3.0711,1.1716 4.2427,0l1.9497,-1.9497h0.0657c-0.028,0.1667 -0.0436,0.3341 -0.0436,0.5c0,1.5446 1.0999,3 2.75,3c1.5887,0 2.6674,-1.3492 2.7455,-2.8281zM14.377,9.667c0.0949,-0.1062 0.2306,-0.167 0.373,-0.167c0.1424,0 0.2686,0.0504 0.3635,0.1567c0.0045,0.0052 0.0101,0.012 0.0168,0.0198c0.0493,0.0582 0.1525,0.18 0.2075,0.2496c0.1244,0.1577 0.2909,0.3806 0.4581,0.6416c0.3184,0.4965 0.7041,1.2274 0.7041,1.9323c0,1.0086 -0.6725,2 -1.75,2c-1.0775,0 -1.75,-0.9914 -1.75,-2c0,-0.7049 0.3857,-1.4358 0.7041,-1.9323c0.1672,-0.261 0.3337,-0.4839 0.4581,-0.6416c0.0607,-0.0768 0.1709,-0.2071 0.2114,-0.2551zM14.75,10.8074c-0.0655,0.0911 -0.1349,0.192 -0.2041,0.2999c-0.3061,0.4776 -0.5459,0.9972 -0.5459,1.3927c0,0.293 0.1003,0.5664 0.2481,0.7489c0.1357,0.1675 0.2992,0.2511 0.5019,0.2511c0.2027,0 0.3662,-0.0836 0.5019,-0.2511c0.1478,-0.1825 0.2481,-0.4559 0.2481,-0.7489c0,-0.3955 -0.2398,-0.9151 -0.5459,-1.3927c-0.0692,-0.1079 -0.1386,-0.2088 -0.2041,-0.2999zM8.5,2c0.2761,0 0.5,0.2239 0.5,0.5v1.0019c0.3767,0.0737 0.7363,0.2565 1.0282,0.5484l2.8284,2.8284c0.7811,0.781 0.7811,2.0474 0,2.8284l-3.5355,3.5355c-0.7811,0.7811 -2.0474,0.7811 -2.8285,0l-2.8284,-2.8284c-0.781,-0.781 -0.781,-2.0474 0,-2.8284l3.5356,-3.5355c0.2323,-0.2324 0.5075,-0.3956 0.8002,-0.4897v-1.0606c0,-0.2761 0.2239,-0.5 0.5,-0.5zM4.3713,9.7071l2.8285,2.8284c0.3905,0.3906 1.0236,0.3906 1.4142,0l3.5355,-3.5355h-8.0711c0,0.2559 0.0977,0.5118 0.2929,0.7071zM8,4.675c-0.0323,0.0252 -0.0634,0.0526 -0.0931,0.0824l-3.2427,3.2426h7.7345c-0.0462,-0.1516 -0.1293,-0.2943 -0.2492,-0.4142l-2.8284,-2.8284c-0.095,-0.095 -0.2044,-0.1669 -0.3211,-0.2157v1.4583c0,0.2761 -0.2239,0.5 -0.5,0.5c-0.2761,0 -0.5,-0.2239 -0.5,-0.5z" fill="#212121"/>
</svg>
