<svg width="20" height="20" viewBox="0 0 20 20" fill="none" xmlns="http://www.w3.org/2000/svg">
<path d="M10.7276,4.75h4.7724c0.9665,0 1.75,0.7835 1.75,1.75v7c0,0.9665 -0.7835,1.75 -1.75,1.75h-11c-0.9665,0 -1.75,-0.7835 -1.75,-1.75v-2.5855l1.3281,1.3281c1.1716,1.1716 3.0711,1.1716 4.2427,0l0.6796,-0.6796c0.0294,1.5209 1.1218,2.937 2.7494,2.937c1.6499,0 2.75,-1.4554 2.75,-3c0,-0.8973 -0.457,-1.8399 -0.8622,-2.472c-0.1882,-0.2935 -0.3753,-0.5443 -0.5154,-0.7216c-0.0064,-0.0081 -0.013,-0.0162 -0.0197,-0.0244l-0.2039,-0.2459c-0.0099,-0.012 -0.0198,-0.0236 -0.0299,-0.0348c-0.2239,-0.251 -0.5238,-0.4174 -0.8497,-0.4769c0.0648,-0.843 -0.2251,-1.7081 -0.8698,-2.3528z" fill="#212121"/>
</svg>
