<svg width="20" height="20" viewBox="0 0 20 20" fill="none" xmlns="http://www.w3.org/2000/svg">
<path d="M7 3H4C3.46957 3 2.96086 3.21071 2.58578 3.58578C2.21071 3.96086 2 4.46957 2 5V15C2 15.5304 2.21071 16.0391 2.58578 16.4142C2.96086 16.7893 3.46957 17 4 17H7C7.53043 17 8.03914 16.7893 8.41422 16.4142C8.78929 16.0391 9 15.5304 9 15V5C9 4.46957 8.78929 3.96086 8.41422 3.58578C8.03914 3.21071 7.53043 3 7 3ZM4 4H7C7.26522 4 7.51957 4.10536 7.70711 4.29289C7.89464 4.48043 8 4.73478 8 5V6H3V5C3 4.73478 3.10536 4.48043 3.29289 4.29289C3.48043 4.10536 3.73478 4 4 4ZM7 16H4C3.73478 16 3.48043 15.8946 3.29289 15.7071C3.10536 15.5196 3 15.2652 3 15V7H8V15C8 15.2652 7.89464 15.5196 7.70711 15.7071C7.51957 15.8946 7.26522 16 7 16ZM16 3H13C12.4696 3 11.9609 3.21071 11.5858 3.58578C11.2107 3.96086 11 4.46957 11 5V15C11 15.5304 11.2107 16.0391 11.5858 16.4142C11.9609 16.7893 12.4696 17 13 17H16C16.5304 17 17.0391 16.7893 17.4142 16.4142C17.7893 16.0391 18 15.5304 18 15V5C18 4.46957 17.7893 3.96086 17.4142 3.58578C17.0391 3.21071 16.5304 3 16 3ZM13 4H16C16.2652 4 16.5196 4.10536 16.7071 4.29289C16.8946 4.48043 17 4.73478 17 5V10H12V5C12 4.73478 12.1054 4.48043 12.2929 4.29289C12.4804 4.10536 12.7348 4 13 4ZM16 16H13C12.7348 16 12.4804 15.8946 12.2929 15.7071C12.1054 15.5196 12 15.2652 12 15V13H17V15C17 15.2652 16.8946 15.5196 16.7071 15.7071C16.5196 15.8946 16.2652 16 16 16Z" fill="#212121"/>
</svg>
