<svg width="20" height="20" viewBox="0 0 20 20" fill="none" xmlns="http://www.w3.org/2000/svg">
<path d="M17,12c0,-2.1662 -1.534,-3.977 -3.574,-4.4045l-0.0959,-0.719c0.1044,-0.0804 0.2033,-0.1676 0.2961,-0.2609c2.4962,0.5203 4.3738,2.7348 4.3738,5.3844c0,3.0376 -2.4624,5.5 -5.5,5.5c-1.5763,0 -2.9973,-0.6632 -3.9997,-1.7248v0.7247c0,0.2761 -0.2239,0.5 -0.5,0.5c-0.2761,0 -0.5,-0.2239 -0.5,-0.5v-2c0,-0.2761 0.2239,-0.5 0.5,-0.5h2c0.2761,0 0.5,0.2239 0.5,0.5c0,0.2761 -0.2239,0.5 -0.5,0.5h-0.8546c0.8244,0.9212 2.0219,1.5001 3.3543,1.5001c2.4853,0 4.5,-2.0147 4.5,-4.5zM5.9369,12.5c-0.2223,0.8622 -1.0057,1.5 -1.9369,1.5c-1.1038,0 -2,-0.8962 -2,-2c0,-1.0227 0.7693,-1.8672 1.7603,-1.9858l0.4881,-3.6604c-0.7318,-0.2974 -1.2484,-1.0157 -1.2484,-1.8538c0,-1.1038 0.8962,-2 2,-2c0.9312,0 1.7146,0.6378 1.9369,1.5h2.6262c0.2223,-0.8622 1.0057,-1.5 1.9369,-1.5c1.1038,0 2,0.8962 2,2c0,0.8381 -0.5166,1.5564 -1.2484,1.8538l0.4881,3.6604c0.991,0.1186 1.7603,0.9631 1.7603,1.9858c0,1.1038 -0.8962,2 -2,2c-0.9312,0 -1.7146,-0.6378 -1.9369,-1.5zM4.7516,10.1462c0.5811,0.2361 1.0265,0.7377 1.1853,1.3538h4.6262c0.1588,-0.6161 0.6042,-1.1177 1.1853,-1.3538l-0.4881,-3.6604c-0.8237,-0.0986 -1.4943,-0.6987 -1.6972,-1.4858h-2.6262c-0.2029,0.7871 -0.8735,1.3872 -1.6972,1.4858z" fill="#212121"/>
</svg>
