<svg width="20" height="20" viewBox="0 0 20 20" xmlns="http://www.w3.org/2000/svg">
  <path d="M14.6885,5.5c-1.1833,-1.2323 -2.8469,-2 -4.6885,-2c-2.3576,0 -4.4236,1.2582 -5.5634,3.1387c-0.2145,0.354 -0.6761,0.4672 -1.0301,0.2527c-0.354,-0.2146 -0.4672,-0.6761 -0.2526,-1.0301c1.4024,-2.314 3.9451,-3.8613 6.8461,-3.8613c2.2559,0 4.2951,0.9356 5.75,2.4399v-1.1899c0,-0.4142 0.3358,-0.75 0.75,-0.75c0.4142,0 0.75,0.3358 0.75,0.75v3c0,0.4142 -0.3358,0.75 -0.75,0.75h-3c-0.4142,0 -0.75,-0.3358 -0.75,-0.75c0,-0.4142 0.3358,-0.75 0.75,-0.75zM5.3115,14.5c1.1833,1.2323 2.8469,2 4.6885,2c2.3576,0 4.4236,-1.2582 5.5634,-3.1387c0.2145,-0.354 0.6761,-0.4672 1.0301,-0.2527c0.354,0.2146 0.4672,0.6761 0.2526,1.0301c-1.4024,2.314 -3.9451,3.8613 -6.8461,3.8613c-2.2559,0 -4.2951,-0.9356 -5.75,-2.4399v1.1899c0,0.4142 -0.3358,0.75 -0.75,0.75c-0.4142,0 -0.75,-0.3358 -0.75,-0.75v-3c0,-0.4142 0.3358,-0.75 0.75,-0.75h0.3805c0.056,-0.0063 0.1122,-0.0062 0.1674,0h2.4521c0.4142,0 0.75,0.3358 0.75,0.75c0,0.4142 -0.3358,0.75 -0.75,0.75zM7,7v-1.25c0,-0.4142 0.3358,-0.75 0.75,-0.75c0.4142,0 0.75,0.3358 0.75,0.75v5c0,0.4142 0.3358,0.75 0.75,0.75h5c0.4142,0 0.75,0.3358 0.75,0.75c0,0.4142 -0.3358,0.75 -0.75,0.75h-1.25v1.25c0,0.4142 -0.3358,0.75 -0.75,0.75c-0.4142,0 -0.75,-0.3358 -0.75,-0.75v-1.25h-2.25c-1.2426,0 -2.25,-1.0074 -2.25,-2.25v-2.25h-1.25c-0.4142,0 -0.75,-0.3358 -0.75,-0.75c0,-0.4142 0.3358,-0.75 0.75,-0.75zM11.5,10.5v-1.25c0,-0.4142 -0.3358,-0.75 -0.75,-0.75h-1.25v-1.5h1.25c1.2426,0 2.25,1.0074 2.25,2.25v1.25z" fill="#212121" />
</svg>