<svg width="20" height="20" viewBox="0 0 20 20" fill="none" xmlns="http://www.w3.org/2000/svg">
<path d="M2.8067,8.169c-0.4713,-0.1791 -0.8067,-0.6352 -0.8067,-1.169c0,-0.6899 0.5601,-1.25 1.25,-1.25c0.6899,0 1.25,0.5601 1.25,1.25c0,0.1286 -0.0195,0.2527 -0.0556,0.3695l1.8016,0.9319c0.2129,0.1101 0.4741,0.0536 0.6225,-0.1347l2.0297,-2.5762c-0.0945,-0.1759 -0.1482,-0.377 -0.1482,-0.5905c0,-0.6899 0.5601,-1.25 1.25,-1.25c0.6899,0 1.25,0.5601 1.25,1.25c0,0.2135 -0.0537,0.4146 -0.1482,0.5905l2.0297,2.5762c0.1484,0.1884 0.4096,0.2449 0.6225,0.1347l1.8016,-0.9319c-0.0361,-0.1168 -0.0556,-0.2409 -0.0556,-0.3695c0,-0.6899 0.5601,-1.25 1.25,-1.25c0.6899,0 1.25,0.5601 1.25,1.25c0,0.5338 -0.3353,0.9899 -0.8067,1.169l-1.579,7.5361c-0.0971,0.4632 -0.5055,0.7949 -0.9787,0.7949h-9.2712c-0.4732,0 -0.8816,-0.3317 -0.9787,-0.7949zM10,11c-0.6899,0 -1.25,0.5601 -1.25,1.25c0,0.6899 0.5601,1.25 1.25,1.25c0.6899,0 1.25,-0.5601 1.25,-1.25c0,-0.6899 -0.5601,-1.25 -1.25,-1.25z" fill="#212121"/>
</svg>
