<svg width="20" height="20" viewBox="0 0 20 20" fill="none" xmlns="http://www.w3.org/2000/svg">
<path d="M3.75,4.5h-1.25c-0.276,0 -0.5,-0.224 -0.5,-0.5c0,-0.276 0.224,-0.5 0.5,-0.5h4.75c1.1046,0 2,0.8954 2,2v4h5c1.1046,0 2,0.8954 2,2v4h1.25c0.276,0 0.5,0.224 0.5,0.5c0,0.276 -0.224,0.5 -0.5,0.5h-4.75c-1.1046,0 -2,-0.8954 -2,-2v-4h-5c-1.1046,0 -2,-0.8954 -2,-2zM8.25,9.5v-4c0,-0.5523 -0.4477,-1 -1,-1h-2.5v4c0,0.5523 0.4477,1 1,1zM15.25,15.5v-4c0,-0.5523 -0.4477,-1 -1,-1h-2.5v4c0,0.5523 0.4477,1 1,1z" fill="#212121"/>
</svg>
