<svg width="20" height="20" viewBox="0 0 20 20" fill="none" xmlns="http://www.w3.org/2000/svg">
<path d="M8.887,5.666c1.331,0.184 2.615,0.788 3.637,1.81c2.493,2.493 2.493,6.542 0,9.035l-0.756,0.757c-0.977,0.976 -2.559,0.976 -3.536,0l-5.5,-5.5c-0.976,-0.977 -0.976,-2.559 0,-3.536l0.757,-0.756c0.39,-0.391 0.819,-0.72 1.274,-0.988c-0.136,0.651 -0.184,1.317 -0.143,1.979l-0.071,0.07l-0.756,0.756c-0.391,0.39 -0.391,1.024 0,1.414l5.5,5.5c0.39,0.391 1.024,0.391 1.414,0l0.756,-0.756c1.908,-1.908 1.908,-5.006 0,-6.914c-0.902,-0.903 -2.071,-1.378 -3.254,-1.427c0.121,-0.513 0.347,-1.005 0.678,-1.444zM11.113,14.334c-1.331,-0.184 -2.615,-0.788 -3.637,-1.81c-2.493,-2.493 -2.493,-6.542 0,-9.035l0.756,-0.757c0.977,-0.976 2.559,-0.976 3.536,0l5.5,5.5c0.976,0.977 0.976,2.559 0,3.536l-0.757,0.756c-0.39,0.391 -0.819,0.72 -1.274,0.988c0.136,-0.651 0.184,-1.317 0.143,-1.979l0.071,-0.07l0.756,-0.756c0.391,-0.39 0.391,-1.024 0,-1.414l-5.5,-5.5c-0.39,-0.391 -1.024,-0.391 -1.414,0l-0.756,0.756c-1.908,1.908 -1.908,5.006 0,6.914c0.902,0.903 2.071,1.378 3.254,1.427c-0.121,0.513 -0.347,1.005 -0.678,1.444z" fill="#212121"/>
</svg>
