<svg width="20" height="20" viewBox="0 0 20 20" fill="none" xmlns="http://www.w3.org/2000/svg">
<path d="M11.71,14.295c-1.51,-0.088 -2.993,-0.708 -4.145,-1.86c-2.494,-2.493 -2.494,-6.542 0,-9.035l0.667,-0.668c0.977,-0.976 2.559,-0.976 3.536,0l5.5,5.5c0.976,0.977 0.976,2.559 0,3.536l-0.668,0.667c-0.436,0.436 -0.919,0.796 -1.434,1.08c0.083,-0.422 0.129,-0.849 0.138,-1.276c0.205,-0.154 0.402,-0.324 0.589,-0.511l0.668,-0.667c0.585,-0.586 0.585,-1.536 0,-2.122l-5.5,-5.5c-0.586,-0.585 -1.536,-0.585 -2.122,0l-0.667,0.668c-2.103,2.103 -2.103,5.518 0,7.621c1.064,1.065 2.465,1.59 3.861,1.577c-0.099,0.342 -0.24,0.675 -0.423,0.99zM8.291,5.705c1.509,0.088 2.993,0.707 4.145,1.859c2.493,2.494 2.493,6.542 0,9.036l-0.668,0.668c-0.977,0.976 -2.559,0.976 -3.536,0l-5.5,-5.5c-0.976,-0.977 -0.976,-2.559 0,-3.536l0.668,-0.668c0.436,-0.436 0.92,-0.795 1.434,-1.079c-0.083,0.421 -0.128,0.848 -0.137,1.276c-0.206,0.154 -0.403,0.324 -0.59,0.51l-0.668,0.668c-0.585,0.586 -0.585,1.536 0,2.122l5.5,5.5c0.586,0.585 1.536,0.585 2.122,0l0.668,-0.668c2.103,-2.103 2.103,-5.518 0,-7.622c-1.065,-1.064 -2.465,-1.59 -3.862,-1.577c0.099,-0.342 0.24,-0.674 0.424,-0.989z" fill="#212121"/>
</svg>
