<svg width="20" height="20" viewBox="0 0 20 20" fill="none" xmlns="http://www.w3.org/2000/svg">
<path d="M10.5303,17.7804c-0.2929,0.2929 -0.7677,0.2929 -1.0606,0l-2.5,-2.5c-0.2929,-0.2929 -0.2929,-0.7677 0,-1.0606c0.2929,-0.2929 0.7677,-0.2929 1.0606,0l1.2197,1.2196v-7.4393c0,-0.4142 0.3358,-0.75 0.75,-0.75c0.4142,0 0.75,0.3358 0.75,0.75v7.4393l1.2197,-1.2196c0.2929,-0.2929 0.7677,-0.2929 1.0606,0c0.2929,0.2929 0.2929,0.7677 0,1.0606zM4.25,7.75c0,2.5654 1.6801,4.7385 4,5.4788v-1.6047c-1.4743,-0.667 -2.5,-2.1508 -2.5,-3.8741c0,-2.3472 1.9028,-4.25 4.25,-4.25c2.3472,0 4.25,1.9028 4.25,4.25c0,1.7233 -1.0257,3.2071 -2.5,3.8741v1.6047c2.3199,-0.7403 4,-2.9134 4,-5.4788c0,-3.1756 -2.5744,-5.75 -5.75,-5.75c-3.1756,0 -5.75,2.5744 -5.75,5.75zM6.75,7.75c0,1.1506 0.5979,2.1615 1.5,2.7391v-2.489c0,-0.0421 0.0015,-0.0838 0.0044,-0.1251c-0.0029,-0.0413 -0.0044,-0.083 -0.0044,-0.125c0,-0.9665 0.7835,-1.75 1.75,-1.75c0.9665,0 1.75,0.7835 1.75,1.75c0,0.042 -0.0015,0.0837 -0.0044,0.125c0.0029,0.0413 0.0044,0.083 0.0044,0.1251v2.489c0.9021,-0.5775 1.5,-1.5885 1.5,-2.7391c0,-1.7949 -1.4551,-3.25 -3.25,-3.25c-1.7949,0 -3.25,1.4551 -3.25,3.25z" fill="#212121"/>
</svg>
