<svg width="20" height="20" viewBox="0 0 20 20" fill="none" xmlns="http://www.w3.org/2000/svg">
<path d="M10.5303,2.2197c-0.2929,-0.2929 -0.7677,-0.2929 -1.0606,0l-2.5,2.5c-0.2929,0.2929 -0.2929,0.7677 0,1.0606c0.2929,0.2929 0.7677,0.2929 1.0606,0l1.2197,-1.2196v7.4392c0,0.4142 0.3358,0.75 0.75,0.75c0.4142,0 0.75,-0.3358 0.75,-0.75v-7.4392l1.2197,1.2196c0.2929,0.2929 0.7677,0.2929 1.0606,0c0.2929,-0.2929 0.2929,-0.7677 0,-1.0606zM4.25,12.25c0,-2.5655 1.6801,-4.7385 4,-5.4789v1.6048c-1.4743,0.6669 -2.5,2.1507 -2.5,3.8741c0,2.3472 1.9028,4.25 4.25,4.25c2.3472,0 4.25,-1.9028 4.25,-4.25c0,-1.7234 -1.0257,-3.2072 -2.5,-3.8741v-1.6048c2.3199,0.7404 4,2.9135 4,5.4789c0,3.1756 -2.5744,5.75 -5.75,5.75c-3.1756,0 -5.75,-2.5744 -5.75,-5.75zM6.75,12.25c0,-1.1506 0.5979,-2.1616 1.5,-2.7391v2.7391c0,0.9665 0.7835,1.75 1.75,1.75c0.9665,0 1.75,-0.7835 1.75,-1.75v-2.7391c0.9021,0.5775 1.5,1.5885 1.5,2.7391c0,1.7949 -1.4551,3.25 -3.25,3.25c-1.7949,0 -3.25,-1.4551 -3.25,-3.25z" fill="#212121"/>
</svg>
