<svg width="20" height="20" viewBox="0 0 20 20" fill="none" xmlns="http://www.w3.org/2000/svg">
<path d="M2.8778,6.5149c0.2679,-0.0669 0.5394,0.0959 0.6064,0.3638l0.4103,1.6411c0.0868,0.3474 0.0466,0.7144 -0.1136,1.0347l-0.6109,1.2219c-0.0704,0.1408 -0.0704,0.3064 0,0.4472l0.7763,1.5528c0.1235,0.247 0.0234,0.5473 -0.2236,0.6708c-0.247,0.1235 -0.5473,0.0234 -0.6708,-0.2236l-0.7764,-1.5528c-0.2111,-0.4223 -0.2111,-0.9193 0,-1.3416l0.611,-1.2219c0.0534,-0.1068 0.0668,-0.2291 0.0379,-0.3449l-0.4104,-1.6411c-0.067,-0.2679 0.0959,-0.5394 0.3638,-0.6064zM17.4842,6.8787l0.4103,1.6411c0.0869,0.3474 0.0466,0.7144 -0.1136,1.0347l-0.6109,1.2219c-0.0704,0.1408 -0.0704,0.3064 0,0.4472l0.7763,1.5528c0.1235,0.247 0.0234,0.5473 -0.2236,0.6708c-0.247,0.1235 -0.5473,0.0234 -0.6708,-0.2236l-0.7764,-1.5528c-0.2111,-0.4223 -0.2111,-0.9193 0,-1.3416l0.611,-1.2219c0.0534,-0.1068 0.0668,-0.2291 0.0379,-0.3449l-0.4104,-1.6411c-0.067,-0.2679 0.0959,-0.5394 0.3638,-0.6064c0.2679,-0.067 0.5394,0.0959 0.6064,0.3638zM12.5,14.5h-5c-1.1038,0 -2,-0.8962 -2,-2v-5c0,-1.1038 0.8962,-2 2,-2h5c1.1038,0 2,0.8962 2,2v5c0,1.1038 -0.8962,2 -2,2zM10.5,13.5h2c0.5519,0 1,-0.4481 1,-1v-5c0,-0.5519 -0.4481,-1 -1,-1h-2zM11.75,12.5c-0.276,0 -0.5,-0.224 -0.5,-0.5c0,-0.276 0.224,-0.5 0.5,-0.5h0.5c0.276,0 0.5,0.224 0.5,0.5c0,0.276 -0.224,0.5 -0.5,0.5zM9.5,6.5h-2c-0.5519,0 -1,0.4481 -1,1v5c0,0.5519 0.4481,1 1,1h2zM7.75,12.5c-0.276,0 -0.5,-0.224 -0.5,-0.5c0,-0.276 0.224,-0.5 0.5,-0.5h0.5c0.276,0 0.5,0.224 0.5,0.5c0,0.276 -0.224,0.5 -0.5,0.5z" fill="#212121"/>
</svg>
