<svg width="20" height="20" viewBox="0 0 20 20" fill="none" xmlns="http://www.w3.org/2000/svg">
<path d="M7.8441,13.5876c-0.3462,0.1056 -0.7136,0.1624 -1.0941,0.1624c-2.0697,0 -3.75,-1.6803 -3.75,-3.75c0,-2.0697 1.6803,-3.75 3.75,-3.75c0.3805,0 0.7479,0.0568 1.0941,0.1624c0.381,-1.667 1.8741,-2.9124 3.6559,-2.9124c2.0697,0 3.75,1.6803 3.75,3.75c0,1.086 -0.4626,2.0649 -1.2014,2.75c0.7389,0.6851 1.2014,1.664 1.2014,2.75c0,2.0697 -1.6803,3.75 -3.75,3.75c-1.7818,0 -3.2749,-1.2454 -3.6559,-2.9124zM17.25,9.2505c0.4139,0 0.75,0.3361 0.75,0.75c0,0.4139 -0.3361,0.75 -0.75,0.75c-0.4139,0 -0.75,-0.3361 -0.75,-0.75c0,-0.4139 0.3361,-0.75 0.75,-0.75zM6,15.75c0.4139,0 0.75,0.3361 0.75,0.75c0,0.4139 -0.3361,0.75 -0.75,0.75c-0.4139,0 -0.75,-0.3361 -0.75,-0.75c0,-0.4139 0.3361,-0.75 0.75,-0.75zM6,2.75c0.4139,0 0.75,0.3361 0.75,0.75c0,0.4139 -0.3361,0.75 -0.75,0.75c-0.4139,0 -0.75,-0.3361 -0.75,-0.75c0,-0.4139 0.3361,-0.75 0.75,-0.75z" fill="#212121"/>
</svg>
