<svg width="20" height="20" viewBox="0 0 20 20" fill="none" xmlns="http://www.w3.org/2000/svg">
<path d="M7.8441,13.5876c-0.3462,0.1056 -0.7136,0.1624 -1.0941,0.1624c-2.0697,0 -3.75,-1.6803 -3.75,-3.75c0,-2.0697 1.6803,-3.75 3.75,-3.75c0.3805,0 0.7479,0.0568 1.0941,0.1624c0.381,-1.667 1.8741,-2.9124 3.6559,-2.9124c2.0697,0 3.75,1.6803 3.75,3.75c0,1.086 -0.4626,2.0649 -1.2014,2.75c0.7389,0.6851 1.2014,1.664 1.2014,2.75c0,2.0697 -1.6803,3.75 -3.75,3.75c-1.7818,0 -3.2749,-1.2454 -3.6559,-2.9124zM8.7522,12.862c0.0587,1.466 1.2675,2.638 2.7478,2.638c1.5178,0 2.75,-1.2322 2.75,-2.75c0,-0.9795 -0.5133,-1.8399 -1.2851,-2.3272c-0.1451,-0.0916 -0.2331,-0.2512 -0.2331,-0.4228c0,-0.1716 0.088,-0.3312 0.2331,-0.4228c0.7718,-0.4873 1.2851,-1.3477 1.2851,-2.3272c0,-1.5178 -1.2322,-2.75 -2.75,-2.75c-1.4803,0 -2.6891,1.172 -2.7478,2.638c-0.0068,0.1712 -0.1009,0.327 -0.2492,0.4128c-0.1483,0.0858 -0.3302,0.0897 -0.482,0.0103c-0.3802,-0.1988 -0.8126,-0.3111 -1.271,-0.3111c-1.5178,0 -2.75,1.2322 -2.75,2.75c0,1.5178 1.2322,2.75 2.75,2.75c0.4584,0 0.8908,-0.1123 1.271,-0.3111c0.1518,-0.0794 0.3337,-0.0755 0.482,0.0103c0.1483,0.0858 0.2424,0.2416 0.2492,0.4128zM17.25,9.2505c0.4139,0 0.75,0.3361 0.75,0.75c0,0.4139 -0.3361,0.75 -0.75,0.75c-0.4139,0 -0.75,-0.3361 -0.75,-0.75c0,-0.4139 0.3361,-0.75 0.75,-0.75zM6,15.75c0.4139,0 0.75,0.3361 0.75,0.75c0,0.4139 -0.3361,0.75 -0.75,0.75c-0.4139,0 -0.75,-0.3361 -0.75,-0.75c0,-0.4139 0.3361,-0.75 0.75,-0.75zM6,2.75c0.4139,0 0.75,0.3361 0.75,0.75c0,0.4139 -0.3361,0.75 -0.75,0.75c-0.4139,0 -0.75,-0.3361 -0.75,-0.75c0,-0.4139 0.3361,-0.75 0.75,-0.75z" fill="#212121"/>
</svg>
