<svg width="20" height="20" viewBox="0 0 20 20" fill="none" xmlns="http://www.w3.org/2000/svg">
<path d="M7.0019,17.42c-2.9329,-1.1864 -5.0019,-4.0613 -5.0019,-7.4195c0,-4.4186 3.5819,-8.0005 8.0005,-8.0005c4.2782,0 7.7721,3.3581 7.9897,7.5823c-0.1271,-0.044 -0.2607,-0.0711 -0.3977,-0.0795c-0.0648,-0.0145 -0.1452,-0.0366 -0.2473,-0.0651l-0.0931,-0.0262c-0.0865,-0.0244 -0.181,-0.0509 -0.2826,-0.0785c-0.1719,-1.8173 -1.0384,-3.4322 -2.3312,-4.5764l-0.0689,0.0746c-0.2014,0.2178 -0.48,0.5157 -0.7882,0.836c-0.6022,0.6258 -1.3514,1.3726 -1.8548,1.7524c0.0301,0.0664 0.1002,0.1763 0.2419,0.3593c0.0378,0.0489 0.0797,0.1015 0.1243,0.1576c0.2212,0.2779 0.5116,0.6429 0.7295,1.0805c-0.3654,0.0475 -0.7082,0.1164 -1.0288,0.2042c-0.1383,-0.2225 -0.3044,-0.4336 -0.4735,-0.6484c-0.0474,-0.0601 -0.0951,-0.1208 -0.1424,-0.1819c-0.1595,-0.2061 -0.3627,-0.4783 -0.4364,-0.7692c-0.0416,-0.1641 -0.0483,-0.354 0.0249,-0.5478c0.072,-0.1902 0.2028,-0.336 0.3516,-0.4476c0.428,-0.321 1.1276,-1.0128 1.7431,-1.6525c0.3025,-0.3142 0.5763,-0.6071 0.7747,-0.8216l0.0054,-0.0058c-1.1026,-0.7248 -2.4222,-1.1464 -3.8402,-1.1464c-0.0853,0 -0.1702,0.0015 -0.2547,0.0046c0.1174,0.2221 0.2526,0.5048 0.3725,0.8234c0.2807,0.7457 0.5266,1.8174 0.085,2.7577c-0.4042,0.8607 -1.0969,1.0842 -1.6322,1.2225l-0.0966,0.0248c-0.506,0.13 -0.7552,0.194 -0.9298,0.4591c-0.1702,0.2583 -0.1291,0.5745 0.0365,1.1142c0.0121,0.0395 0.0251,0.0809 0.0385,0.1236c0.0662,0.2111 0.1433,0.4568 0.1835,0.6878c0.0498,0.2864 0.0611,0.6358 -0.1131,0.9699c-0.1791,0.3437 -0.414,0.5741 -0.6894,0.7241c-0.2607,0.1421 -0.5329,0.1971 -0.747,0.2351l-0.0879,0.0155c-0.4078,0.0714 -0.6452,0.1129 -0.8672,0.3508c-0.1773,0.1899 -0.2787,0.5081 -0.3364,0.9414c-0.0238,0.178 -0.0381,0.3546 -0.0525,0.5337l-0.0078,0.0949c-0.0164,0.1989 -0.0361,0.4186 -0.0785,0.605l-0.0045,0.0196c0.6936,0.763 1.5533,1.3722 2.5221,1.7704c-0.0624,0.1155 -0.1233,0.2325 -0.1825,0.3511c-0.0952,0.1903 -0.1461,0.3911 -0.1566,0.5908zM8.7982,3.3545c-0.0531,-0.0958 -0.0991,-0.1729 -0.1327,-0.2274c-3.2277,0.6232 -5.6655,3.4636 -5.6655,6.8734c0,1.2829 0.3451,2.4852 0.9476,3.5192c0.0068,-0.0652 0.0145,-0.1312 0.0233,-0.1973c0.0623,-0.4674 0.193,-1.0593 0.5967,-1.4917c0.462,-0.495 1.0254,-0.5879 1.4038,-0.6504c0.0379,-0.0062 0.0738,-0.0121 0.1077,-0.0181c0.2033,-0.0361 0.3359,-0.0701 0.4432,-0.1286c0.0927,-0.0505 0.1893,-0.1321 0.281,-0.3082c0.0285,-0.0546 0.0475,-0.1478 0.0147,-0.3363c-0.0278,-0.1599 -0.0801,-0.3275 -0.1453,-0.5365c-0.0152,-0.0486 -0.0311,-0.0994 -0.0475,-0.1529c-0.1526,-0.4972 -0.3739,-1.2621 0.0843,-1.9577c0.3998,-0.6069 1.0395,-0.7624 1.4771,-0.8687c0.0473,-0.0116 0.0923,-0.0225 0.1343,-0.0333c0.467,-0.1207 0.7719,-0.2421 0.9773,-0.6794c0.2612,-0.5563 0.1432,-1.2924 -0.1158,-1.9804c-0.124,-0.3296 -0.2693,-0.6186 -0.3842,-0.8257zM17.9253,10.7371c0.0911,0.1474 0.0994,0.3315 0.0219,0.4864c-0.0512,0.1024 -0.1348,0.2375 -0.2185,0.3727l-0.0162,0.0262c-0.0955,0.1543 -0.2069,0.3347 -0.3241,0.5411c-0.2348,0.4132 -0.487,0.9199 -0.6605,1.4836c-0.034,0.1103 -0.0698,0.2377 -0.1089,0.3771c-0.1562,0.5566 -0.3665,1.3059 -0.7346,1.9363c-0.2383,0.4081 -0.5568,0.7972 -0.9966,1.0835c-0.4443,0.2893 -0.9857,0.4559 -1.6378,0.4559c-1.0591,0 -1.8076,-0.5339 -2.2726,-1.0347c-0.2327,-0.2506 -0.4015,-0.4997 -0.5125,-0.6861c-0.0266,-0.0446 -0.05,-0.0859 -0.0703,-0.1231c-0.6049,0.6122 -1.064,1.3011 -1.4473,2.0676c-0.1235,0.247 -0.4238,0.3472 -0.6708,0.2237c-0.247,-0.1235 -0.3471,-0.4239 -0.2236,-0.6709c0.7539,-1.5078 1.7829,-2.7458 3.4351,-3.7095c0.6636,-0.4157 1.4008,-0.7838 2.1978,-1.1026c0.2564,-0.1026 0.3811,-0.3936 0.2785,-0.65c-0.1025,-0.2563 -0.3935,-0.3811 -0.6499,-0.2785c-1.4315,0.5726 -2.7255,1.3135 -3.7764,2.2305c-0.0242,-0.1639 -0.038,-0.3374 -0.038,-0.5199c0,-0.7642 0.3093,-1.5121 0.9402,-2.1007c0.6264,-0.5845 1.5462,-0.9916 2.7478,-1.1418c1.1975,-0.1497 2.1948,-0.0161 2.952,0.1526c0.3281,0.0731 0.6138,0.1536 0.8412,0.2176l0.0949,0.0267c0.1233,0.0345 0.2201,0.0605 0.2989,0.0781c0.0386,0.0086 0.0685,0.0142 0.0913,0.0175c0.0112,0.0016 0.0196,0.0025 0.0256,0.003c0.0056,0.0005 0.0081,0.0005 0.0081,0.0005c0.1733,0 0.3342,0.0898 0.4253,0.2372z" fill="#212121"/>
</svg>
