<svg width="20" height="20" viewBox="0 0 20 20" fill="none" xmlns="http://www.w3.org/2000/svg">
<path d="M5.5,2h2c0.6531,0 1.2087,0.4174 1.4146,1h0.0854c1.1046,0 2,0.8954 2,2v2.3109c0.169,-0.0354 0.3606,-0.0609 0.5625,-0.0609c0.353,0 0.7629,0.0786 1.13,0.3456c0.3718,0.2704 0.6454,0.6944 0.7925,1.2831c0.0596,0.2381 -0.0625,0.4842 -0.2881,0.5809c-1.8994,0.814 -3.0152,2.0941 -3.6205,3.0325c-0.5281,0.8187 -1.4375,1.5079 -2.5179,1.5079h-1.8224c-0.947,0 -1.8126,-0.535 -2.2361,-1.3819l-0.6305,-1.261c-0.243,-0.486 -0.3695,-1.0219 -0.3695,-1.5653v-4.7918c0,-1.1046 0.8954,-2 2,-2h0.0853c0.206,-0.5826 0.7616,-1 1.4147,-1zM5.5,3c-0.2762,0 -0.5,0.2239 -0.5,0.5v4c0,0.2762 -0.2239,0.5 -0.5,0.5c-0.2761,0 -0.5,-0.2238 -0.5,-0.5v-3.5c-0.5523,0 -1,0.4477 -1,1v4.7918c0,0.3881 0.0904,0.7709 0.2639,1.1181l0.6305,1.2609c0.2541,0.5082 0.7735,0.8292 1.3417,0.8292h1.8224c0.6412,0 1.2723,-0.4217 1.6775,-1.0499c0.6363,-0.9865 1.7692,-2.3013 3.6392,-3.2138c-0.0852,-0.1655 -0.1819,-0.2672 -0.2709,-0.3319c-0.1485,-0.108 -0.3323,-0.1544 -0.5418,-0.1544c-0.2118,0 -0.4233,0.048 -0.5898,0.1012c-0.0814,0.0261 -0.1474,0.0519 -0.1918,0.0706c-0.022,0.0093 -0.0384,0.0167 -0.0483,0.0212l-0.01,0.0047c-0.1546,0.0767 -0.3386,0.0684 -0.4855,-0.0224c-0.1474,-0.0911 -0.2371,-0.252 -0.2371,-0.4253v-3c0,-0.5523 -0.4477,-1 -1,-1v3.5c0,0.2762 -0.2239,0.5 -0.5,0.5c-0.2762,0 -0.5,-0.2238 -0.5,-0.5v-4c0,-0.2761 -0.2239,-0.5 -0.5,-0.5h-0.5v4.5c0,0.2762 -0.2239,0.5 -0.5,0.5c-0.2762,0 -0.5,-0.2238 -0.5,-0.5v-4.5zM13.664,7.1234c2.4785,0.534 4.336,2.7384 4.336,5.3766c0,3.0376 -2.4624,5.5 -5.5,5.5c-2.1529,0 -4.017,-1.237 -4.9201,-3.0391c0.3423,-0.0516 0.6693,-0.1525 0.9763,-0.2922c0.7658,1.3897 2.2449,2.3313 3.9438,2.3313c2.4853,0 4.5,-2.0147 4.5,-4.5c0,-1.8087 -1.067,-3.3681 -2.6059,-4.0831c-0.1647,-0.5359 -0.4166,-0.9628 -0.7301,-1.2935zM15,11.75c0,0.4142 -0.3358,0.75 -0.75,0.75c-0.4142,0 -0.75,-0.3358 -0.75,-0.75c0,-0.4142 0.3358,-0.75 0.75,-0.75c0.4142,0 0.75,0.3358 0.75,0.75zM10.9473,14.2764c0.0858,0.1715 0.5505,0.7236 1.5528,0.7236c1.0023,0 1.4671,-0.5521 1.5528,-0.7236c0.1235,-0.247 0.4238,-0.3471 0.6708,-0.2236c0.247,0.1235 0.3471,0.4238 0.2236,0.6708c-0.2476,0.4952 -1.0495,1.2764 -2.4472,1.2764c-1.3977,0 -2.1996,-0.7812 -2.4472,-1.2764c-0.1235,-0.247 -0.0234,-0.5473 0.2236,-0.6708c0.247,-0.1235 0.5473,-0.0234 0.6708,0.2236z" fill="#212121"/>
</svg>
