<svg width="20" height="20" viewBox="0 0 20 20" fill="none" xmlns="http://www.w3.org/2000/svg">
<path d="M6.5,2c0.2761,0 0.5,0.2239 0.5,0.5v5c0,0.2761 0.2239,0.5 0.5,0.5c0.2761,0 0.5,-0.2239 0.5,-0.5v-4c0,-0.2761 0.2239,-0.5 0.5,-0.5c0.2761,0 0.5,0.2239 0.5,0.5v4.2512c0.0976,-0.0251 0.2025,-0.046 0.313,-0.0598c0.3158,-0.0395 0.6881,-0.0217 1.0668,0.1361c0.3822,0.1593 0.7377,0.4474 1.0362,0.8952c0.0824,0.1236 0.1056,0.2774 0.0633,0.4198c-0.0424,0.1424 -0.1458,0.2586 -0.2823,0.3171c-1.5032,0.6442 -2.2897,1.5722 -2.7082,2.3665c-0.544,1.0324 -1.6015,2.1739 -2.9888,2.1739h-0.2639c-0.947,0 -1.8126,-0.535 -2.2361,-1.382l-0.6305,-1.261c-0.243,-0.4859 -0.3695,-1.0218 -0.3695,-1.5652v-6.2918c0,-0.2761 0.2239,-0.5 0.5,-0.5c0.2761,0 0.5,0.2239 0.5,0.5v4c0,0.2761 0.2239,0.5 0.5,0.5c0.2761,0 0.5,-0.2239 0.5,-0.5v-5c0,-0.2761 0.2239,-0.5 0.5,-0.5c0.2761,0 0.5,0.2239 0.5,0.5v5c0,0.2761 0.2239,0.5 0.5,0.5c0.2761,0 0.5,-0.2239 0.5,-0.5v-5c0,-0.2761 0.2239,-0.5 0.5,-0.5zM7.3625,14.4676c0.8861,-0.5244 1.5828,-1.3626 2.011,-2.1753c0.3408,-0.6469 0.9932,-1.389 2.2174,-1.9136c0.4094,-0.1755 0.7197,-0.5241 0.8469,-0.9511c0.1269,-0.4271 0.0574,-0.8889 -0.1897,-1.2596c-0.2992,-0.4489 -0.6431,-0.7798 -1.0103,-1.0154l-0.0041,-0.0061c0.4066,-0.0958 0.8306,-0.1465 1.2664,-0.1465c3.0376,0 5.5,2.4624 5.5,5.5c0,3.0376 -2.4624,5.5 -5.5,5.5c-2.3443,0 -4.346,-1.4666 -5.1376,-3.5324zM15.0001,11.75c0,-0.4142 -0.3358,-0.75 -0.75,-0.75c-0.4142,0 -0.75,0.3358 -0.75,0.75c0,0.4142 0.3358,0.75 0.75,0.75c0.4142,0 0.75,-0.3358 0.75,-0.75zM10.9474,14.2764c-0.1235,-0.247 -0.4238,-0.3471 -0.6708,-0.2236c-0.247,0.1235 -0.3471,0.4238 -0.2236,0.6708c0.2476,0.4952 1.0495,1.2764 2.4472,1.2764c1.3977,0 2.1996,-0.7812 2.4472,-1.2764c0.1235,-0.247 0.0234,-0.5473 -0.2236,-0.6708c-0.247,-0.1235 -0.5473,-0.0234 -0.6708,0.2236c-0.0858,0.1715 -0.5505,0.7236 -1.5528,0.7236c-1.0023,0 -1.467,-0.5521 -1.5528,-0.7236z" fill="#212121"/>
</svg>
