<svg width="20" height="20" viewBox="0 0 20 20" fill="none" xmlns="http://www.w3.org/2000/svg">
<path d="M15.523,4.0809c0.2312,0.1507 0.2966,0.4607 0.146,0.6919c-0.1507,0.2312 -0.4607,0.2966 -0.6919,0.146c-3.6063,-2.3497 -6.8853,-1.7528 -8.5097,-0.9686c-0.2485,0.1199 -0.5477,0.0156 -0.6677,-0.233c-0.1199,-0.2485 -0.0156,-0.5476 0.233,-0.6676c1.8106,-0.874 5.4708,-1.5876 9.4903,1.0313zM3.9666,4.4483c0.2306,-0.1516 0.5408,-0.0874 0.6924,0.1431c0.1516,0.2306 0.0875,0.5409 -0.1431,0.6925c-0.5764,0.3789 -1.1166,1.0976 -1.3347,1.4691c-0.1397,0.238 -0.4463,0.3178 -0.6843,0.1781c-0.238,-0.1397 -0.3178,-0.4463 -0.1781,-0.6843c0.268,-0.4566 0.9394,-1.3329 1.6478,-1.7985zM17.741,11.9055c0.0521,0.271 -0.1256,0.5333 -0.3966,0.5854c-0.271,0.0521 -0.5333,-0.1256 -0.5854,-0.3966c-0.9591,-4.9888 -4.6557,-6.5536 -6.509,-6.5536c-0.276,0 -0.5,-0.2241 -0.5,-0.5c0,-0.276 0.224,-0.5 0.5,-0.5c2.1077,0 6.4002,1.691 7.491,7.3648zM7.8642,4.854c0.2593,-0.0942 0.5464,0.0399 0.6406,0.2993c0.0942,0.2594 -0.0399,0.5464 -0.2993,0.6407c-4.1359,1.5021 -5.0893,5.4773 -4.7097,8.1353c0.0391,0.2731 -0.151,0.5266 -0.4242,0.5656c-0.2732,0.039 -0.5267,-0.1511 -0.5657,-0.4242c-0.4306,-3.0145 0.6676,-7.513 5.3583,-9.2167zM14.4755,9.5562c0.1527,0.2298 0.0902,0.5404 -0.1397,0.6931c-0.2298,0.1528 -0.5404,0.0902 -0.6931,-0.1396c-0.8155,-1.2268 -1.8546,-1.942 -2.9702,-2.1229c-1.0653,-0.1727 -2.1166,0.1547 -2.9538,0.8029c-1.8524,1.4343 -2.607,4.3308 -1.0218,7.4858c0.1239,0.2466 0.0243,0.5473 -0.2222,0.6712c-0.2466,0.1239 -0.5474,0.0243 -0.6713,-0.2222c-1.8511,-3.6841 -0.8599,-7.0506 1.303,-8.7254c1.0552,-0.817 2.3836,-1.2171 3.7261,-0.9994c1.36,0.2205 2.649,1.0609 3.643,2.5565zM16.4194,14.0285c0.2677,0.067 0.4307,0.3387 0.3638,0.6064c-0.067,0.2677 -0.3387,0.4307 -0.6064,0.3638c-0.0057,-0.0014 -0.0798,-0.0151 -0.2136,-0.0739c-0.0341,-0.0149 -0.0801,-0.0365 -0.1362,-0.067c-0.0748,-0.0407 -0.1708,-0.0992 -0.2797,-0.1808c-0.1728,-0.1296 -0.3773,-0.3173 -0.5729,-0.5736c-0.3324,-0.436 -0.6706,-1.1012 -0.7237,-2.0764c-0.0149,-0.2756 0.1966,-0.5114 0.4721,-0.5264c0.2756,-0.015 0.5115,0.1965 0.5265,0.4721c0.0388,0.7143 0.2767,1.2049 0.5202,1.5242c0.1293,0.1694 0.2633,0.2943 0.3776,0.3799c0.0615,0.0462 0.1155,0.0796 0.1578,0.1026c0.0246,0.0134 0.0451,0.0231 0.06,0.0297c0.034,0.0149 0.053,0.0191 0.0545,0.0194zM9.75,12.4999c0,-0.276 0.2241,-0.5 0.5,-0.5c0.276,0 0.5,0.224 0.5,0.5c0,0.8885 0.0995,1.5881 0.3679,2.2731c0.2822,0.7198 0.7238,1.3857 1.2906,2.1885c0.1591,0.2254 0.1053,0.5377 -0.1201,0.6968c-0.2255,0.1592 -0.5377,0.1054 -0.6969,-0.1201c-0.6203,-0.8788 -1.0958,-1.6124 -1.4046,-2.4004c-0.3117,-0.7953 -0.4369,-1.6061 -0.4369,-2.6379zM12.9582,12.2451l0.0321,0.1555c0.0805,0.3865 0.1689,0.7806 0.2976,1.1748c0.2643,0.8092 0.6854,1.5788 1.4812,2.1661c0.2221,0.1639 0.2693,0.4772 0.1054,0.6993c-0.1639,0.222 -0.4772,0.2692 -0.6992,0.1053c-0.9806,-0.7238 -1.5123,-1.6632 -1.838,-2.6603c-0.1404,-0.4301 -0.2382,-0.8597 -0.3256,-1.2797l-0.033,-0.1597c-0.0562,-0.2732 -0.1128,-0.5605 -0.1873,-0.801c-0.3854,-1.2455 -1.8011,-1.5706 -2.6969,-0.8432c-0.5458,0.4433 -0.8248,1.1576 -0.8287,2.0738c-0.0048,1.1348 0.3946,2.5214 1.255,4.1392c0.0428,0.0804 0.0867,0.1614 0.1318,0.2429c0.1335,0.2415 0.0458,0.546 -0.1957,0.6795c-0.2416,0.1335 -0.546,0.0458 -0.6795,-0.1957c-0.0477,-0.0863 -0.0942,-0.172 -0.1395,-0.2571c-0.9574,-1.8002 -1.3774,-3.3504 -1.3721,-4.613c0.0054,-1.2668 0.4436,-2.233 1.1983,-2.8459c1.421,-1.154 3.6711,-0.652 4.2826,1.3237c0.0833,0.269 0.1487,0.5899 0.2115,0.8955z" fill="#212121"/>
</svg>
