<svg width="20" height="20" viewBox="0 0 20 20" fill="none" xmlns="http://www.w3.org/2000/svg">
<path d="M2.4719,4.0382c0.4699,-0.6519 1.2245,-1.0382 2.0281,-1.0382h9.5c1.0761,0 2.0314,0.6886 2.3717,1.7094l1.5,4.5c0.2541,0.7624 0.1263,1.6005 -0.3436,2.2524c-0.3707,0.5142 -0.9185,0.8632 -1.5278,0.9877v0.0505c0,1.3807 -1.1193,2.5 -2.5,2.5h-3.7929l-1.5607,1.5607c-0.2813,0.2813 -0.6628,0.4393 -1.0607,0.4393h-2.5857c-1.3808,0 -2.5,-1.1193 -2.5,-2.5l-0.0003,-9c0,-0.5182 0.1612,-1.0307 0.4719,-1.4618zM6,12.5c-1.0761,0 -2.0314,-0.6886 -2.3717,-1.7094l-0.628,-1.8841v5.5935c0,0.8284 0.6715,1.5 1.5,1.5h2.5857c0.1326,0 0.2598,-0.0527 0.3536,-0.1465l1.7071,-1.707c0.0938,-0.0938 0.2209,-0.1465 0.3536,-0.1465h4c0.8284,0 1.5,-0.6716 1.5,-1.5zM15.5,11.5c0.4822,0 0.9349,-0.2318 1.2169,-0.6229c0.2819,-0.3912 0.3586,-0.894 0.2061,-1.3514l-1.5,-4.5c-0.2041,-0.6126 -0.7774,-1.0257 -1.423,-1.0257h-9.5c-0.4822,0 -0.9349,0.2318 -1.2169,0.6229c-0.2819,0.3912 -0.3586,0.894 -0.2061,1.3514l1.5,4.5c0.2041,0.6126 0.7774,1.0257 1.423,1.0257z" fill="#212121"/>
</svg>
