<svg width="20" height="20" viewBox="0 0 20 20" fill="none" xmlns="http://www.w3.org/2000/svg">
<path d="M5.5,2l9,0.0003c1.3807,0 2.5,1.1192 2.5,2.5v2.5857c0,0.3979 -0.158,0.7794 -0.4393,1.0607l-1.5607,1.5607v3.7929c0,1.3807 -1.1193,2.5 -2.5,2.5h-0.0505c-0.1245,0.6093 -0.4735,1.1571 -0.9877,1.5278c-0.6519,0.4699 -1.49,0.5977 -2.2524,0.3436l-4.5,-1.5c-1.0208,-0.3403 -1.7094,-1.2956 -1.7094,-2.3717v-9.5c0,-0.8036 0.3863,-1.5582 1.0382,-2.0281c0.4311,-0.3107 0.9436,-0.4719 1.4618,-0.4719zM12.5,15.0003c0.8284,0 1.5,-0.6716 1.5,-1.5v-4c0,-0.1327 0.0527,-0.2598 0.1465,-0.3536l1.7071,-1.7071c0.0937,-0.0938 0.1464,-0.221 0.1464,-0.3536v-2.5857c0,-0.8285 -0.6716,-1.5 -1.5,-1.5h-5.5935l1.8841,0.628c1.0208,0.3403 1.7094,1.2956 1.7094,2.3717zM11.5,6c0,-0.6456 -0.4131,-1.2189 -1.0257,-1.423l-4.5,-1.5c-0.4574,-0.1525 -0.9602,-0.0758 -1.3514,0.2061c-0.3911,0.282 -0.6229,0.7347 -0.6229,1.2169v9.5c0,0.6456 0.4131,1.2189 1.0257,1.423l4.5,1.5c0.4574,0.1525 0.9602,0.0758 1.3514,-0.2061c0.3911,-0.282 0.6229,-0.7347 0.6229,-1.2169z" fill="#212121"/>
</svg>
