<svg width="20" height="20" viewBox="0 0 20 20" fill="none" xmlns="http://www.w3.org/2000/svg">
<path d="M7.8866,2h6.6134c1.3807,0 2.5,1.1193 2.5,2.5v2.5858c0,0.3978 -0.158,0.7793 -0.4393,1.0607l-1.5607,1.5606v3.7929c0,1.3807 -1.1193,2.5 -2.5,2.5v-10c0,-1.1856 -0.6982,-2.2599 -1.7816,-2.7414zM11.5,6v10c0,0.677 -0.3425,1.3081 -0.9102,1.677c-0.5676,0.3689 -1.2834,0.4256 -1.9021,0.1506l-4.5,-2c-0.7222,-0.321 -1.1877,-1.0372 -1.1877,-1.8276v-10c0,-0.677 0.3425,-1.3081 0.9102,-1.677c0.5676,-0.3689 1.2834,-0.4256 1.9021,-0.1506l4.5,2c0.7222,0.321 1.1877,1.0372 1.1877,1.8276z" fill="#212121"/>
</svg>
