<svg width="20" height="20" viewBox="0 0 20 20" fill="none" xmlns="http://www.w3.org/2000/svg">
<path d="M2,12.1134v-6.6134c0,-1.3807 1.1193,-2.5 2.5,-2.5h2.5858c0.3978,0 0.7793,0.158 1.0606,0.4393l1.5607,1.5607h3.7929c1.3807,0 2.5,1.1193 2.5,2.5h-10c-1.1856,0 -2.2599,0.6982 -2.7414,1.7816zM6,8.5h10c0.677,0 1.3081,0.3425 1.677,0.9102c0.3689,0.5676 0.4256,1.2834 0.1506,1.9021l-2,4.5c-0.321,0.7222 -1.0372,1.1877 -1.8276,1.1877h-10c-0.677,0 -1.3081,-0.3425 -1.677,-0.9102c-0.3689,-0.5676 -0.4256,-1.2834 -0.1506,-1.9021l2,-4.5c0.321,-0.7222 1.0372,-1.1877 1.8276,-1.1877z" fill="#212121"/>
</svg>
