<svg width="20" height="20" viewBox="0 0 20 20" fill="none" xmlns="http://www.w3.org/2000/svg">
<path d="M2,14.5l0.0003,-9c0,-1.3807 1.1192,-2.5 2.5,-2.5h2.5857c0.3979,0 0.7794,0.158 1.0607,0.4393l1.5607,1.5607h3.7929c1.3807,0 2.5,1.1193 2.5,2.5v0.0505c0.6093,0.1245 1.1571,0.4735 1.5278,0.9877c0.4699,0.6519 0.5977,1.49 0.3436,2.2524l-1.5,4.5c-0.3403,1.0208 -1.2956,1.7094 -2.3717,1.7094h-9.5c-0.8036,0 -1.5582,-0.3863 -2.0281,-1.0382c-0.3107,-0.4311 -0.4719,-0.9436 -0.4719,-1.4618zM15.0003,7.5c0,-0.8284 -0.6716,-1.5 -1.5,-1.5h-4c-0.1327,0 -0.2598,-0.0527 -0.3536,-0.1465l-1.7071,-1.707c-0.0938,-0.0938 -0.221,-0.1465 -0.3536,-0.1465h-2.5857c-0.8285,0 -1.5,0.6716 -1.5,1.5v5.5935l0.628,-1.8841c0.3403,-1.0208 1.2956,-1.7094 2.3717,-1.7094zM6,8.5c-0.6456,0 -1.2189,0.4131 -1.423,1.0257l-1.5,4.5c-0.1525,0.4574 -0.0758,0.9602 0.2061,1.3514c0.282,0.3911 0.7347,0.6229 1.2169,0.6229h9.5c0.6456,0 1.2189,-0.4131 1.423,-1.0257l1.5,-4.5c0.1525,-0.4574 0.0758,-0.9602 -0.2061,-1.3514c-0.282,-0.3911 -0.7347,-0.6229 -1.2169,-0.6229z" fill="#212121"/>
</svg>
