<svg width="20" height="20" viewBox="0 0 20 20" fill="none" xmlns="http://www.w3.org/2000/svg">
<path d="M4.0305,7.1752c0.7985,-0.6303 1.1121,-0.8939 1.4389,-1.4385c0.8652,-1.4421 1.5863,-2.1632 3.0284,-2.9563c1.9684,-1.0826 4.457,-0.6851 5.771,0.1442c1.599,1.0095 2.2793,2.1091 2.6824,2.8123c0.4032,0.7031 1.1442,2.1785 1.0383,3.7502c-0.0422,0.6264 -0.1131,0.9992 -0.1748,1.3232c-0.0927,0.4878 -0.1644,0.8646 -0.0846,1.8308c0.1332,1.6114 -0.6524,3.5968 -2.0206,4.452c-1.5201,0.9501 -3.3392,1.1531 -5.0497,0.4689c-1.2826,-0.513 -1.4499,-0.5068 -2.3711,-0.4722c-0.3046,0.0116 -0.6914,0.0261 -1.2277,0.0261c-2.1646,0 -3.6077,-1.2842 -4.358,-2.7272c-1.1163,-2.1466 -1.0545,-5.3329 1.3275,-7.2135zM4.6502,7.9601c-1.9683,1.5539 -1.9824,4.1935 -1.06,5.9672c0.5989,1.1518 1.7432,2.1886 3.4708,2.1886c0.5198,0 0.8948,-0.0142 1.1899,-0.0253c1.0795,-0.0407 1.2776,-0.0582 2.7803,0.543c1.4053,0.5621 2.8994,0.3921 4.1483,-0.3884c1.0772,-0.6734 1.6589,-2.2531 1.554,-3.5218c-0.0915,-1.1083 -0.0076,-1.5404 0.0989,-2.1c0.056,-0.2947 0.121,-0.6338 0.1594,-1.2036c0.0901,-1.3379 -0.565,-2.587 -0.9081,-3.1856c-0.3531,-0.6158 -0.9481,-1.5798 -2.3488,-2.464c-1.0826,-0.6833 -3.1332,-1.0056 -4.7552,-0.1136c-1.2644,0.6954 -1.8942,1.3302 -2.6528,2.5946c-0.3845,0.6408 -0.7372,0.9672 -1.6767,1.7089zM10.4082,14.9646c-2.4824,0 -4.4949,-2.0124 -4.4949,-4.4948c0,-2.4825 2.0125,-4.4949 4.4949,-4.4949c2.4825,0 4.4949,2.0124 4.4949,4.4949c0,2.4824 -2.0124,4.4948 -4.4949,4.4948zM10.4082,13.9646c1.9302,0 3.4949,-1.5647 3.4949,-3.4948c0,-1.9302 -1.5647,-3.4949 -3.4949,-3.4949c-1.9302,0 -3.4949,1.5647 -3.4949,3.4949c0,1.9301 1.5647,3.4948 3.4949,3.4948zM10.064,9.5802c-0.3205,-0.0428 -0.6481,0.1828 -0.6481,0.6402c0,0.2761 -0.2239,0.5 -0.5,0.5c-0.2762,0 -0.5,-0.2239 -0.5,-0.5c0,-1.0425 0.8409,-1.7568 1.7803,-1.6315c0.2737,0.0366 0.466,0.2881 0.4295,0.5618c-0.0365,0.2737 -0.288,0.466 -0.5617,0.4295z" fill="#212121"/>
</svg>
