<svg width="20" height="20" viewBox="0 0 20 20" fill="none" xmlns="http://www.w3.org/2000/svg">
<path d="M3.475,4.442c0.001,-0.001 0.001,-0.002 0.001,-0.003c-0.023,0.113 -0.013,0.063 -0.001,0.003zM3.475,4.442c-0.095,0.366 -0.454,0.609 -0.837,0.551c-0.409,-0.062 -0.691,-0.444 -0.63,-0.854c0.003,-0.015 0.005,-0.031 0.008,-0.047c0.004,-0.019 0.011,-0.053 0.011,-0.053l0.001,-0.007c0.002,-0.008 0.004,-0.018 0.005,-0.019c0.01,-0.048 0.029,-0.126 0.06,-0.224c0.062,-0.194 0.167,-0.451 0.331,-0.701c0.301,-0.459 0.842,-1.088 2.076,-1.088c1.075,0 1.687,0.52 2.046,1.041c0.372,0.539 0.563,1.289 0.446,2.07c-0.122,0.806 -0.431,1.232 -1.014,1.621c-0.27,0.18 -0.561,0.307 -0.951,0.459c-0.109,0.042 -0.229,0.089 -0.363,0.145c-0.254,0.106 -0.581,0.235 -0.822,0.545c-0.132,0.171 -0.219,0.377 -0.273,0.619h2.681c0.414,0 0.75,0.336 0.75,0.75c0,0.414 -0.336,0.75 -0.75,0.75h-3.5c-0.414,0 -0.75,-0.336 -0.75,-0.75c0,-0.995 0.232,-1.74 0.658,-2.289c0.427,-0.55 0.978,-0.821 1.428,-1.009c0.146,-0.061 0.277,-0.112 0.395,-0.158c0.271,-0.106 0.478,-0.186 0.666,-0.311c0.212,-0.141 0.317,-0.301 0.361,-0.595c0.056,-0.374 -0.019,-0.737 -0.197,-0.996c-0.141,-0.204 -0.389,-0.392 -0.811,-0.392c-0.484,0 -0.704,0.231 -0.822,0.411c-0.077,0.118 -0.126,0.239 -0.155,0.331c-0.013,0.043 -0.022,0.078 -0.027,0.099c-0.001,0.004 -0.002,0.011 -0.002,0.012c0,0 -0.01,0.047 -0.019,0.089zM3.476,4.439c0.004,-0.02 0.009,-0.045 0.015,-0.075c-0.003,0.025 -0.009,0.051 -0.015,0.075zM14.486,17c0.004,0 0.009,0 0.014,0h0.75c0.414,0 0.75,-0.336 0.75,-0.75c0,-0.414 -0.336,-0.75 -0.75,-0.75h-0.5c-0.966,0 -1.75,-0.784 -1.75,-1.75c0,-0.966 0.784,-1.75 1.75,-1.75h0.764c0.821,0 1.486,0.665 1.486,1.486v0.014c0,0.276 -0.224,0.5 -0.5,0.5c-0.276,0 -0.5,-0.224 -0.5,-0.5c0,-0.005 0,-0.009 0,-0.014c-0.008,-0.265 -0.221,-0.479 -0.486,-0.486c-0.004,0 -0.009,0 -0.014,0h-0.75c-0.414,0 -0.75,0.336 -0.75,0.75c0,0.414 0.336,0.75 0.75,0.75h0.5c0.966,0 1.75,0.784 1.75,1.75c0,0.966 -0.784,1.75 -1.75,1.75h-0.764c-0.821,0 -1.486,-0.665 -1.486,-1.486v-0.014c0,-0.276 0.224,-0.5 0.5,-0.5c0.276,0 0.5,0.224 0.5,0.5c0,0.005 0,0.009 0,0.014c0.008,0.265 0.221,0.479 0.486,0.486zM3.5,12h3c0.276,0 0.5,0.224 0.5,0.5c0,0.276 -0.224,0.5 -0.5,0.5h-2.5v2h1.5c0.276,0 0.5,0.224 0.5,0.5c0,0.276 -0.224,0.5 -0.5,0.5h-1.5v1.5c0,0.276 -0.224,0.5 -0.5,0.5c-0.276,0 -0.5,-0.224 -0.5,-0.5v-5c0,-0.276 0.224,-0.5 0.5,-0.5zM8.5,12h1.5c1.105,0 2,0.895 2,2c0,1.105 -0.895,2 -2,2h-1v1.5c0,0.276 -0.224,0.5 -0.5,0.5c-0.276,0 -0.5,-0.224 -0.5,-0.5v-5c0,-0.276 0.224,-0.5 0.5,-0.5zM11,14c0,-0.552 -0.448,-1 -1,-1h-1v2h1c0.552,0 1,-0.448 1,-1zM8.75,2c0.414,0 0.75,0.336 0.75,0.75v2.75h1.5v-2.75c0,-0.414 0.336,-0.75 0.75,-0.75c0.414,0 0.75,0.336 0.75,0.75v6.75c0,0.414 -0.336,0.75 -0.75,0.75c-0.414,0 -0.75,-0.336 -0.75,-0.75v-2.5h-2.25c-0.414,0 -0.75,-0.336 -0.75,-0.75v-3.5c0,-0.414 0.336,-0.75 0.75,-0.75zM15.75,2c1.243,0 2.25,1.007 2.25,2.25v3.5c0,1.243 -1.007,2.25 -2.25,2.25c-1.243,0 -2.25,-1.007 -2.25,-2.25v-3.5c0,-1.243 1.007,-2.25 2.25,-2.25zM15,4.25v3.5c0,0.414 0.336,0.75 0.75,0.75c0.414,0 0.75,-0.336 0.75,-0.75v-3.5c0,-0.414 -0.336,-0.75 -0.75,-0.75c-0.414,0 -0.75,0.336 -0.75,0.75z" fill="#212121"/>
</svg>
