<svg width="20" height="20" viewBox="0 0 20 20" fill="none" xmlns="http://www.w3.org/2000/svg">
<path d="M5.5,2.75c0,-0.337 -0.225,-0.633 -0.55,-0.723c-0.324,-0.089 -0.668,0.047 -0.842,0.335l-0.003,0.005c-0.003,0.005 -0.009,0.015 -0.018,0.028c-0.017,0.026 -0.045,0.068 -0.083,0.12c-0.076,0.106 -0.19,0.254 -0.338,0.416c-0.303,0.33 -0.714,0.68 -1.195,0.873c-0.384,0.154 -0.571,0.59 -0.417,0.975c0.154,0.384 0.59,0.571 0.975,0.417c0.365,-0.146 0.69,-0.341 0.971,-0.55v4.604c0,0.414 0.336,0.75 0.75,0.75c0.414,0 0.75,-0.336 0.75,-0.75zM13,4.5c0,-1.381 1.119,-2.5 2.5,-2.5c1.381,0 2.5,1.119 2.5,2.5v3c0,1.381 -1.119,2.5 -2.5,2.5c-1.381,0 -2.5,-1.119 -2.5,-2.5zM16.5,4.5c0,-0.552 -0.448,-1 -1,-1c-0.552,0 -1,0.448 -1,1v3c0,0.552 0.448,1 1,1c0.552,0 1,-0.448 1,-1zM3,12.5c0,-0.276 0.224,-0.5 0.5,-0.5h3c0.276,0 0.5,0.224 0.5,0.5c0,0.276 -0.224,0.5 -0.5,0.5h-2.5v2h1.5c0.276,0 0.5,0.224 0.5,0.5c0,0.276 -0.224,0.5 -0.5,0.5h-1.5v1.5c0,0.276 -0.224,0.5 -0.5,0.5c-0.276,0 -0.5,-0.224 -0.5,-0.5zM8,12.5c0,-0.276 0.224,-0.5 0.5,-0.5h1.5c1.105,0 2,0.896 2,2c0,1.105 -0.895,2 -2,2h-1v1.5c0,0.276 -0.224,0.5 -0.5,0.5c-0.276,0 -0.5,-0.224 -0.5,-0.5zM9,15h1c0.552,0 1,-0.448 1,-1c0,-0.552 -0.448,-1 -1,-1h-1zM14.75,12c-0.966,0 -1.75,0.784 -1.75,1.75c0,0.966 0.784,1.75 1.75,1.75h0.5c0.414,0 0.75,0.336 0.75,0.75c0,0.414 -0.336,0.75 -0.75,0.75h-0.764c-0.269,0 -0.486,-0.218 -0.486,-0.486v-0.014c0,-0.276 -0.224,-0.5 -0.5,-0.5c-0.276,0 -0.5,0.224 -0.5,0.5v0.014c0,0.821 0.665,1.486 1.486,1.486h0.764c0.966,0 1.75,-0.784 1.75,-1.75c0,-0.966 -0.784,-1.75 -1.75,-1.75h-0.5c-0.414,0 -0.75,-0.336 -0.75,-0.75c0,-0.414 0.336,-0.75 0.75,-0.75h0.764c0.269,0 0.486,0.217 0.486,0.486v0.014c0,0.276 0.224,0.5 0.5,0.5c0.276,0 0.5,-0.224 0.5,-0.5v-0.014c0,-0.821 -0.665,-1.486 -1.486,-1.486zM7.99,4.374l-0.002,0.009c-0.072,0.403 -0.456,0.674 -0.861,0.607c-0.409,-0.068 -0.685,-0.455 -0.617,-0.863c-0.069,0.414 0.001,-0.002 0.001,-0.002c0.003,-0.017 0.008,-0.043 0.008,-0.043c0.004,-0.021 0.01,-0.047 0.018,-0.078c0.015,-0.063 0.039,-0.146 0.074,-0.243c0.07,-0.192 0.187,-0.45 0.383,-0.711c0.411,-0.548 1.126,-1.05 2.256,-1.05c0.959,0 1.731,0.38 2.222,1.003c0.479,0.608 0.644,1.39 0.517,2.124c-0.14,0.816 -0.603,1.312 -1.147,1.628c-0.363,0.212 -0.816,0.366 -1.183,0.491c-0.107,0.037 -0.206,0.07 -0.294,0.103c-0.452,0.165 -0.767,0.327 -0.982,0.57c-0.114,0.128 -0.225,0.308 -0.298,0.581h3.165c0.414,0 0.75,0.336 0.75,0.75c0,0.414 -0.336,0.75 -0.75,0.75h-4c-0.199,0 -0.389,-0.079 -0.53,-0.22c-0.141,-0.14 -0.22,-0.331 -0.22,-0.53c0,-1.012 0.266,-1.769 0.761,-2.326c0.475,-0.536 1.089,-0.802 1.589,-0.984c0.166,-0.061 0.314,-0.111 0.448,-0.157c0.322,-0.11 0.566,-0.194 0.789,-0.324c0.242,-0.141 0.374,-0.293 0.424,-0.586c0.061,-0.354 -0.025,-0.698 -0.217,-0.942c-0.181,-0.23 -0.502,-0.431 -1.044,-0.431c-0.62,0 -0.905,0.248 -1.056,0.45c-0.086,0.114 -0.14,0.231 -0.172,0.32c-0.016,0.044 -0.025,0.078 -0.03,0.098c-0.002,0.008 -0.003,0.013 -0.004,0.015z" fill="#212121"/>
</svg>
