<svg width="20" height="20" viewBox="0 0 20 20" fill="none" xmlns="http://www.w3.org/2000/svg">
<path d="M16.3633,18.0011c-0.039,0 -0.078,-0.002 -0.118,-0.006c-0.33,-0.036 -0.641,-0.207 -0.861,-0.47l-0.75,-0.887c-0.253,-0.301 -0.625,-0.474 -1.018,-0.474h-3.232c-0.394,0 -0.765,0.173 -1.02,0.474l-0.748,0.888c-0.221,0.262 -0.532,0.433 -0.855,0.468c-0.382,0.038 -0.72,-0.099 -0.961,-0.377c-0.414,-0.478 -0.67,-1.042 -0.762,-1.677c-0.123,-0.842 0.054,-1.776 0.524,-2.774l1.099,-2.317c0.263,-0.551 0.778,-0.941 1.377,-1.044l0.708,-0.122c0.335,-0.058 0.68,0.008 0.968,0.181l0.117,0.07c0.205,0.123 0.442,0.188 0.683,0.188h0.971c0.241,0 0.479,-0.065 0.686,-0.19l0.114,-0.068c0.289,-0.173 0.629,-0.238 0.965,-0.182l0.712,0.123c0.599,0.103 1.114,0.493 1.375,1.043l1.1,2.316c0.472,1.003 0.648,1.937 0.525,2.777c-0.092,0.632 -0.348,1.197 -0.76,1.674c-0.218,0.251 -0.512,0.386 -0.839,0.386zM12.75,12.75c0,-0.414 -0.336,-0.75 -0.75,-0.75c-0.414,0 -0.75,0.336 -0.75,0.75c0,0.414 0.336,0.75 0.75,0.75c0.414,0 0.75,-0.336 0.75,-0.75zM5.6809,12.6914c-0.3198,-0.1122 -0.626,-0.2531 -0.9157,-0.4196l-2.1069,0.7023c-0.1759,0.0587 -0.3699,0.0151 -0.5039,-0.1131c-0.134,-0.1283 -0.1859,-0.3202 -0.135,-0.4986l0.6422,-2.2468c-0.4219,-0.7782 -0.6616,-1.6691 -0.6616,-2.6157c0,-3.0355 2.4644,-5.4999 5.4999,-5.4999c3.0355,0 5.4999,2.4644 5.4999,5.4999c0,0.517 -0.0715,1.0175 -0.2051,1.492c-0.0068,0.004 -0.0136,0.008 -0.0204,0.0121l-0.119,0.071c-0.052,0.031 -0.11,0.048 -0.17,0.048h-0.971c-0.059,0 -0.12,-0.017 -0.168,-0.045l-0.117,-0.071c-0.494,-0.298 -1.079,-0.405 -1.653,-0.309l-0.708,0.122c-0.919,0.158 -1.707,0.755 -2.11,1.6zM6.0004,8.5h1.9996c0.276,0 0.5,-0.224 0.5,-0.5c0,-0.276 -0.224,-0.5 -0.5,-0.5h-1.9996c-0.2759,0 -0.5,0.224 -0.5,0.5c0,0.276 0.2241,0.5 0.5,0.5zM6,6.5h3c0.276,0 0.5,-0.224 0.5,-0.5c0,-0.276 -0.224,-0.5 -0.5,-0.5h-3c-0.276,0 -0.5,0.224 -0.5,0.5c0,0.276 0.224,0.5 0.5,0.5z" fill="#212121"/>
</svg>
