<svg width="20" height="20" viewBox="0 0 20 20" fill="none" xmlns="http://www.w3.org/2000/svg">
<path d="M6,7c-0.276,0 -0.5,-0.224 -0.5,-0.5c0,-0.276 0.224,-0.5 0.5,-0.5h3c0.276,0 0.5,0.224 0.5,0.5c0,0.276 -0.224,0.5 -0.5,0.5zM6.0004,9c-0.2759,0 -0.5,-0.224 -0.5,-0.5c0,-0.276 0.2241,-0.5 0.5,-0.5h1.9996c0.276,0 0.5,0.224 0.5,0.5c0,0.276 -0.224,0.5 -0.5,0.5zM5.6809,12.6914c-0.3198,-0.1122 -0.626,-0.2531 -0.9157,-0.4196l-2.1069,0.7023c-0.1759,0.0587 -0.3699,0.0151 -0.5039,-0.1131c-0.134,-0.1283 -0.1859,-0.3202 -0.135,-0.4986l0.6422,-2.2468c-0.4219,-0.7782 -0.6616,-1.6691 -0.6616,-2.6157c0,-3.0355 2.4644,-5.4999 5.4999,-5.4999c3.0355,0 5.4999,2.4644 5.4999,5.4999c0,0.517 -0.0715,1.0175 -0.2051,1.492c-0.0068,0.004 -0.0136,0.008 -0.0204,0.0121l-0.119,0.071c-0.052,0.031 -0.11,0.048 -0.17,0.048h-0.7876c0.1951,-0.5036 0.3021,-1.051 0.3021,-1.6231c0,-2.4836 -2.0163,-4.4999 -4.4999,-4.4999c-2.4836,0 -4.4999,2.0163 -4.4999,4.4999c0,0.8383 0.2296,1.6233 0.6295,2.2955c0.0705,0.1184 0.0889,0.2606 0.0511,0.393l-0.4392,1.5373l1.4265,-0.4755c0.1426,-0.0476 0.2991,-0.0284 0.426,0.0522c0.3152,0.2 0.6569,0.3619 1.0186,0.4791zM16.3633,18.0011c-0.039,0 -0.078,-0.002 -0.118,-0.006c-0.33,-0.036 -0.641,-0.207 -0.861,-0.47l-0.75,-0.887c-0.253,-0.301 -0.625,-0.474 -1.018,-0.474h-3.232c-0.394,0 -0.765,0.173 -1.02,0.474l-0.748,0.888c-0.221,0.262 -0.532,0.433 -0.855,0.468c-0.382,0.038 -0.72,-0.099 -0.961,-0.377c-0.414,-0.478 -0.67,-1.042 -0.762,-1.677c-0.123,-0.842 0.054,-1.776 0.524,-2.774l1.099,-2.317c0.263,-0.551 0.778,-0.941 1.377,-1.044l0.708,-0.122c0.335,-0.058 0.68,0.008 0.968,0.181l0.117,0.07c0.205,0.123 0.442,0.188 0.683,0.188h0.971c0.241,0 0.479,-0.065 0.686,-0.19l0.114,-0.068c0.289,-0.173 0.629,-0.238 0.965,-0.182l0.712,0.123c0.599,0.103 1.114,0.493 1.375,1.043l1.1,2.316c0.472,1.003 0.648,1.937 0.525,2.777c-0.092,0.632 -0.348,1.197 -0.76,1.674c-0.218,0.251 -0.512,0.386 -0.839,0.386zM10.3843,15.1641h3.232c0.689,0 1.339,0.303 1.783,0.829l0.749,0.889c0.056,0.065 0.132,0.11 0.199,0.118c0.06,0.008 0.08,-0.019 0.098,-0.038c0.285,-0.331 0.463,-0.724 0.526,-1.165c0.095,-0.644 -0.052,-1.385 -0.438,-2.205l-1.1,-2.315c-0.121,-0.257 -0.361,-0.438 -0.641,-0.487l-0.708,-0.122c-0.096,-0.016 -0.201,0.004 -0.286,0.055l-0.113,0.066c-0.362,0.219 -0.777,0.333 -1.2,0.333h-0.971c-0.422,0 -0.836,-0.114 -1.199,-0.331l-0.117,-0.071c-0.082,-0.048 -0.185,-0.069 -0.283,-0.052l-0.707,0.122c-0.281,0.049 -0.521,0.231 -0.644,0.488l-1.098,2.316c-0.385,0.816 -0.533,1.557 -0.439,2.202c0.065,0.443 0.242,0.836 0.528,1.166c0.016,0.018 0.035,0.044 0.107,0.037c0.058,-0.007 0.134,-0.052 0.189,-0.117l0.749,-0.889c0.445,-0.527 1.096,-0.829 1.784,-0.829zM12.75,12.75c0,0.414 -0.336,0.75 -0.75,0.75c-0.414,0 -0.75,-0.336 -0.75,-0.75c0,-0.414 0.336,-0.75 0.75,-0.75c0.414,0 0.75,0.336 0.75,0.75z" fill="#212121"/>
</svg>
