<svg width="20" height="20" viewBox="0 0 20 20" fill="none" xmlns="http://www.w3.org/2000/svg">
  <path d="M4.083,11l-0.583,0c-0.276,-0 -0.5,-0.224 -0.5,-0.5c0,-0.276 0.224,-0.5 0.5,-0.5l13,0c0.276,-0 0.5,0.224 0.5,0.5c0,0.276 -0.224,0.5 -0.5,0.5l-0.583,-0c-0.391,2.328 -2.124,4.202 -4.375,4.8c0.14,-0.242 0.28,-0.53 0.411,-0.868c0.393,-1.008 0.679,-2.374 0.767,-3.932l-1.002,-0c-0.084,1.413 -0.339,2.652 -0.696,3.569c-0.168,0.431 -0.348,0.764 -0.522,1.003l0,1.428l2,0c0.276,0 0.5,0.224 0.5,0.5c-0,0.276 -0.224,0.5 -0.5,0.5l-5,0c-0.276,0 -0.5,-0.224 -0.5,-0.5c-0,-0.276 0.224,-0.5 0.5,-0.5l2,0l0,-1.428c-0.174,-0.239 -0.354,-0.572 -0.522,-1.003c-0.356,-0.917 -0.612,-2.156 -0.696,-3.569l-1.002,0c0.088,1.558 0.374,2.924 0.767,3.932c0.131,0.338 0.271,0.626 0.411,0.868c-2.251,-0.598 -3.984,-2.472 -4.375,-4.8Zm6.417,-6.573c0.174,0.24 0.354,0.573 0.522,1.004c0.357,0.917 0.612,2.156 0.696,3.569l-3.436,0c0.084,-1.413 0.34,-2.652 0.696,-3.569c0.168,-0.431 0.348,-0.764 0.522,-1.004l0,-1.927c-0,-0.276 0.224,-0.5 0.5,-0.5c0.276,-0 0.5,0.224 0.5,0.5l0,1.927Zm-3.22,4.573l-3.197,0c0.391,-2.327 2.124,-4.202 4.375,-4.8c-0.14,0.242 -0.28,0.53 -0.411,0.868c-0.393,1.008 -0.679,2.374 -0.767,3.932Zm4.262,-4.8c2.251,0.598 3.984,2.473 4.375,4.8l-3.197,-0c-0.088,-1.558 -0.374,-2.924 -0.767,-3.932c-0.131,-0.338 -0.271,-0.626 -0.411,-0.868Z" fill="#212121" />
</svg>
