<svg width="20" height="20" viewBox="0 0 20 20" fill="none" xmlns="http://www.w3.org/2000/svg">
  <path d="M4.021,10.5l-0.521,0c-0.276,-0 -0.5,-0.224 -0.5,-0.5c0,-0.276 0.224,-0.5 0.5,-0.5l0.521,0c0.24,-2.913 2.566,-5.239 5.479,-5.479l0,-1.521c-0,-0.276 0.224,-0.5 0.5,-0.5c0.276,-0 0.5,0.224 0.5,0.5l-0,1.521c2.913,0.24 5.239,2.566 5.479,5.479l0.521,0c0.276,-0 0.5,0.224 0.5,0.5c0,0.276 -0.224,0.5 -0.5,0.5l-0.521,-0c-0.24,2.913 -2.566,5.239 -5.479,5.479l0,1.021l2,0c0.276,0 0.5,0.224 0.5,0.5c-0,0.276 -0.224,0.5 -0.5,0.5l-5,0c-0.276,0 -0.5,-0.224 -0.5,-0.5c-0,-0.276 0.224,-0.5 0.5,-0.5l2,0l0,-1.021c-2.913,-0.24 -5.239,-2.566 -5.479,-5.479Zm4.271,-5.2c-1.77,0.644 -3.074,2.259 -3.267,4.2l2.237,0c0.056,-1.492 0.362,-2.796 0.787,-3.729c0.079,-0.172 0.16,-0.329 0.243,-0.471Zm6.683,4.2c-0.193,-1.941 -1.497,-3.556 -3.267,-4.2c0.083,0.142 0.164,0.299 0.242,0.471c0.426,0.933 0.732,2.237 0.788,3.729l2.237,0Zm-3.267,5.2c1.77,-0.644 3.074,-2.259 3.267,-4.2l-2.237,-0c-0.056,1.492 -0.362,2.796 -0.788,3.729c-0.078,0.172 -0.159,0.329 -0.242,0.471Zm-6.683,-4.2c0.193,1.941 1.497,3.556 3.267,4.2c-0.083,-0.142 -0.164,-0.299 -0.243,-0.471c-0.425,-0.933 -0.731,-2.237 -0.787,-3.729l-2.237,0Zm4.975,4.5c0.064,-0 0.197,-0.027 0.394,-0.21c0.209,-0.193 0.436,-0.515 0.647,-0.976c0.378,-0.83 0.642,-1.989 0.696,-3.314l-3.474,-0c0.054,1.325 0.318,2.484 0.696,3.314c0.211,0.461 0.438,0.783 0.647,0.976c0.197,0.183 0.33,0.21 0.394,0.21Zm-0,-10c-0.064,0 -0.197,0.027 -0.394,0.21c-0.209,0.193 -0.436,0.515 -0.647,0.976c-0.378,0.83 -0.642,1.989 -0.696,3.314l3.474,0c-0.054,-1.325 -0.318,-2.484 -0.696,-3.314c-0.211,-0.461 -0.438,-0.783 -0.647,-0.976c-0.197,-0.183 -0.33,-0.21 -0.394,-0.21Z" fill="#212121" />
</svg>
