<svg width="20" height="20" viewBox="0 0 20 20" fill="none" xmlns="http://www.w3.org/2000/svg">
<path d="M15.5378,14.2707l1.1823,-1.1822c0.2927,-0.2927 0.768,-0.2927 1.0606,0c0.2927,0.2927 0.2923,0.7675 -0.0007,1.0604l-1.1825,1.1815l-0.0041,-0.0041l-0.1443,0.1443c-0.104,0.118 -0.222,0.2312 -0.3425,0.3357c-1.3617,1.2903 -2.8218,2.1937 -4.7502,2.1937c-1.0987,0 -2.1551,-0.5434 -2.9253,-1.2495c-0.7595,-0.6961 -1.3378,-1.6422 -1.3378,-2.54c0,-0.3705 0.0362,-0.8122 0.0784,-1.2842l0.0192,-0.2122c0.0379,-0.4195 0.0785,-0.8684 0.1067,-1.3421c0.0661,-1.1092 0.0613,-2.3204 -0.2018,-3.4908c-0.0875,-0.389 0.2035,-0.7759 0.6188,-0.7759c0.9645,0 1.7465,0.7819 1.7465,1.7464v0.1483c0,0.2533 0.2797,0.391 0.4775,0.2634l2.8853,-2.8853c0.2927,-0.2927 0.768,-0.2927 1.0606,0c0.2927,0.2927 0.2927,0.7679 0,1.0606l-2.3854,2.3855c-0.1951,0.1951 -0.1951,0.5119 0,0.7071c0.1952,0.1951 0.512,0.1951 0.7071,0l3.2032,-3.2032c0.2927,-0.2927 0.768,-0.2927 1.0607,0c0.2927,0.2927 0.2927,0.768 0,1.0607l-3.0618,3.0617c-0.1951,0.1952 -0.1951,0.512 0,0.7071c0.1951,0.1952 0.512,0.1952 0.7071,0l2.588,-2.5879l0.0013,-0.0014c0.2927,-0.2927 0.768,-0.2927 1.0607,0c0.2927,0.2927 0.2927,0.768 0,1.0607l-0.0014,0.0013l-2.9333,2.9333c-0.1951,0.1952 -0.1951,0.512 0,0.7071c0.1951,0.1952 0.512,0.1952 0.7071,0zM6.1934,12.643c-0.6017,0.012 -1.2322,0.0715 -1.8822,0.2112c-0.449,0.098 -0.902,-0.238 -0.902,-0.722v-0.223c0,-0.965 0.57,-1.793 1.391,-2.168l-2.363,-2.359c-0.583,-0.586 -0.583,-1.535 0,-2.121c0.167,-0.168 0.367,-0.285 0.578,-0.36c-0.168,-0.519 -0.047,-1.109 0.363,-1.523c0.414,-0.41 1.008,-0.531 1.523,-0.363c0.075,-0.211 0.192,-0.411 0.36,-0.578c0.586,-0.583 1.535,-0.583 2.121,0l0.41,0.414c0.07,-0.149 0.168,-0.29 0.293,-0.414c0.586,-0.583 1.535,-0.583 2.117,0l1.086,1.085l0.035,0.032l0.192,0.191l0.336,0.34c0.035,0.035 0.066,0.078 0.089,0.121v0.004c0.3056,0.3417 0.5826,0.6911 0.8251,1.0548c-0.2379,0.0835 -0.4604,0.2191 -0.6483,0.407l-0.1693,0.1693c-0.3116,-0.4691 -0.6967,-0.928 -1.1475,-1.3931l-1.305,-1.304c-0.191,-0.192 -0.508,-0.192 -0.703,0c-0.195,0.195 -0.195,0.511 0,0.707l1.117,1.117c0.195,0.191 0.199,0.508 0.004,0.707c-0.195,0.195 -0.512,0.195 -0.707,0l-0.863,-0.86l-0.024,-0.023l-1.644,-1.648c-0.196,-0.192 -0.512,-0.192 -0.707,0c-0.184,0.187 -0.196,0.484 -0.024,0.679c0.539,0.539 1.075,1.074 1.61,1.614c0.195,0.195 0.195,0.511 0,0.707c-0.196,0.195 -0.512,0.195 -0.707,0l-1.586,-1.586v-0.004l-0.043,-0.039l-0.426,-0.43c-0.195,-0.195 -0.512,-0.195 -0.707,0c-0.191,0.195 -0.191,0.512 0,0.707l2.527,2.527c0.196,0.196 0.196,0.512 0,0.707c-0.191,0.196 -0.511,0.196 -0.707,0l-2.054,-2.058c-0.196,-0.192 -0.512,-0.196 -0.707,0c-0.192,0.195 -0.192,0.511 0,0.707l3.003,2.996c0.141,0.144 0.184,0.359 0.11,0.547c-0.078,0.187 -0.262,0.308 -0.465,0.308c-0.731,0 -1.332,0.567 -1.379,1.289c0.6513,-0.1186 1.2751,-0.1666 1.8637,-0.1735c-0.023,0.3369 -0.0524,0.6644 -0.0819,0.9833z" fill="#212121"/>
</svg>
