<svg width="20" height="20" viewBox="0 0 20 20" fill="none" xmlns="http://www.w3.org/2000/svg">
<path d="M6.2289,12.643c-0.6118,0.0106 -1.2536,0.0692 -1.918,0.2126c-0.449,0.0969 -0.8993,-0.2379 -0.8993,-0.7218v-0.2249c0,-0.9616 0.5699,-1.7903 1.3904,-2.1666l-2.3632,-2.3609c-0.5851,-0.5851 -0.5851,-1.5338 0,-2.1189c0.1678,-0.1677 0.3654,-0.2874 0.5758,-0.3589c-0.1684,-0.5189 -0.0465,-1.1115 0.3657,-1.5237c0.4121,-0.4121 1.0045,-0.534 1.5233,-0.3657c0.0716,-0.2102 0.1912,-0.4076 0.3588,-0.5752c0.5851,-0.5851 1.5337,-0.5851 2.1188,0l0.4126,0.4122c0.0714,-0.1492 0.1688,-0.2889 0.2924,-0.4125c0.5849,-0.5849 1.5333,-0.5849 2.1183,0l1.0864,1.0864l0.0317,0.0289l-0.0111,0.0306l0.0127,-0.029l0.1895,0.1924l0.3381,0.338c0.0364,0.0365 0.0658,0.0773 0.0886,0.1206l0.0016,0.0024c0.322,0.3631 0.6142,0.7352 0.8671,1.123c-0.3074,0.1138 -0.5969,0.29 -0.8488,0.5288c-0.3128,-0.4766 -0.7033,-0.9404 -1.1592,-1.4113l-1.3037,-1.3037c-0.1945,-0.1944 -0.5097,-0.1944 -0.7041,0c-0.1946,0.1946 -0.1944,0.51 0.0003,0.7044l1.1184,1.1166c0.1954,0.1951 0.1956,0.5117 0.0005,0.7071c-0.1951,0.1954 -0.5117,0.1957 -0.7071,0.0006l-0.8604,-0.8591l-0.0233,-0.0217l-1.6476,-1.6476c-0.1946,-0.1946 -0.51,-0.1946 -0.7046,0c-0.1861,0.1861 -0.1943,0.4828 -0.0244,0.6786c0.5379,0.537 1.0739,1.0756 1.6113,1.613c0.1952,0.1952 0.1952,0.5118 0,0.7071c-0.1953,0.1953 -0.5119,0.1953 -0.7071,0l-1.5868,-1.5873l-0.0015,-0.0011l-0.0408,-0.0424l-0.4279,-0.4273c-0.1948,-0.1944 -0.5103,-0.1943 -0.7049,0.0003c-0.1948,0.1947 -0.1948,0.5105 0,0.7052l2.5278,2.5278c0.1953,0.1953 0.1953,0.5119 0,0.7072c-0.1952,0.1952 -0.5118,0.1952 -0.7071,0l-2.0578,-2.0579c-0.1947,-0.1939 -0.51,-0.194 -0.7044,0.0003c-0.1945,0.1946 -0.1945,0.51 -0.0001,0.7046l3.0016,2.9986c0.1431,0.1429 0.1859,0.358 0.1086,0.5449c-0.0774,0.1869 -0.2597,0.3088 -0.462,0.3088c-0.7321,0 -1.3313,0.5692 -1.379,1.2889c0.6651,-0.1212 1.3032,-0.1683 1.904,-0.1737c-0.0251,0.3503 -0.0583,0.6825 -0.0901,1.0013zM7.8661,7.5882h0.225c0.9617,0 1.7903,0.5698 2.1666,1.3904l2.3607,-2.363c0.5852,-0.5852 1.534,-0.5853 2.1191,-0.0002c0.1677,0.1678 0.2873,0.3654 0.3589,0.5758c0.5188,-0.1684 1.1114,-0.0466 1.5236,0.3656c0.4121,0.4122 0.5341,1.0046 0.3658,1.5234c0.2102,0.0715 0.4076,0.1911 0.5752,0.3587c0.585,0.5852 0.585,1.5338 0,2.1189l-0.4123,0.4125c0.1492,0.0714 0.289,0.1689 0.4126,0.2924c0.5849,0.585 0.5849,1.5334 0,2.1183l-1.0859,1.0859l-0.0307,0.0337c-0.2113,0.2113 -0.4287,0.4159 -0.651,0.6155c-1.2656,1.123 -2.6399,1.8839 -4.4085,1.8839c-1.0988,0 -2.1557,-0.543 -2.9261,-1.2491c-0.7607,-0.6973 -1.3386,-1.6459 -1.3386,-2.545c0,-0.3658 0.0353,-0.7721 0.0768,-1.1953l0.0249,-0.2509c0.0353,-0.3532 0.0722,-0.7224 0.0989,-1.1134c0.0659,-0.9629 0.0673,-2.0282 -0.1767,-3.1588c-0.0969,-0.4491 0.2379,-0.8993 0.7217,-0.8993zM14.0306,8.027c0.1939,-0.1947 0.1941,-0.5101 -0.0002,-0.7045c-0.1946,-0.1945 -0.51,-0.1945 -0.7047,-0.0001l-2.9986,3.0016c-0.1429,0.1431 -0.358,0.1859 -0.5449,0.1086c-0.1869,-0.0774 -0.3088,-0.2598 -0.3088,-0.462c0,-0.7321 -0.569,-1.3313 -1.2889,-1.3792c0.2073,1.137 0.1978,2.1952 0.1343,3.1231c-0.0279,0.408 -0.0666,0.7957 -0.1021,1.1503l-0.0242,0.2433c-0.0414,0.4229 -0.072,0.7852 -0.072,1.0978c0,0.514 0.3644,1.2121 1.0143,1.8079c0.641,0.5875 1.4663,0.9862 2.2504,0.9862c1.6125,0 2.8621,-0.7605 4.1653,-2.0224l1.3037,-1.3037c0.1943,-0.1944 0.1943,-0.5096 0,-0.7041c-0.1947,-0.1945 -0.51,-0.1944 -0.7045,0.0003l-1.1166,1.1184c-0.1951,0.1955 -0.5117,0.1957 -0.7071,0.0006c-0.1954,-0.1951 -0.1956,-0.5117 -0.0005,-0.7071l0.8586,-0.86l0.0228,-0.0243l1.647,-1.647c0.1945,-0.1945 0.1945,-0.51 0,-0.7047c-0.1862,-0.1861 -0.4829,-0.1942 -0.6785,-0.0243l-0.7281,0.7291l-0.0341,0.0311l-0.8509,0.851c-0.1953,0.1953 -0.5119,0.1953 -0.7072,0c-0.1952,-0.1952 -0.1952,-0.5118 0,-0.7071l1.587,-1.5869l0.0445,-0.0427l0.4267,-0.4273c0.1944,-0.1948 0.1942,-0.5103 -0.0004,-0.7049c-0.1947,-0.1948 -0.5104,-0.1948 -0.7051,0l-2.5278,2.5278c-0.1953,0.1953 -0.5119,0.1953 -0.7072,0c-0.1952,-0.1952 -0.1952,-0.5118 0,-0.7071z" fill="#212121"/>
</svg>
