<svg width="20" height="20" viewBox="0 0 20 20" fill="none" xmlns="http://www.w3.org/2000/svg">
<path d="M15.7797,2.1467c-0.1962,-0.1961 -0.5106,-0.1955 -0.7023,0.0014c-0.1918,0.1969 -0.1882,0.5156 0.008,0.7117c1.4573,1.4573 2.1471,3.5262 1.8556,5.5667c-0.0393,0.2747 0.149,0.5318 0.4205,0.5742c0.2715,0.0424 0.5234,-0.1459 0.5626,-0.4206c0.337,-2.3584 -0.4602,-4.7492 -2.1444,-6.4334zM14.176,4.0741c0.237,-0.1417 0.544,-0.0644 0.6857,0.1726l0.2959,0.4949c0.4985,0.8339 0.766,1.7855 0.7749,2.7571c0.0026,0.2761 -0.2192,0.502 -0.4953,0.5046c-0.2762,0.0025 -0.5021,-0.2193 -0.5046,-0.4954c-0.0073,-0.794 -0.2259,-1.5717 -0.6333,-2.2532l-0.2959,-0.4948c-0.1417,-0.237 -0.0644,-0.5441 0.1726,-0.6858zM14.7737,10.4017c0.3262,1.0041 0.4527,2.0622 0.3724,3.1148l-0.1169,1.5321c-0.0458,0.5994 -0.3018,1.1632 -0.723,1.592c-0.2102,0.214 -0.4691,0.3742 -0.7544,0.4669l-2.4211,0.7867c-0.735,0.2388 -1.5415,0.0669 -2.1152,-0.4507c-0.7425,-0.6699 -1.4917,-1.3064 -2.3798,-1.7819l-1.6909,-0.9055c-0.5618,-0.3009 -1.1796,-0.5084 -1.7905,-0.7136c-0.2362,-0.0793 -0.4714,-0.1583 -0.7019,-0.2421c-0.1742,-0.0635 -0.3096,-0.2036 -0.3669,-0.38c-0.2329,-0.7167 0.0236,-1.6634 0.6039,-2.0784c0.7711,-0.5725 1.6425,-0.7573 2.5889,-0.6148c0.0496,0.0075 0.0984,0.0165 0.1467,0.0268l-1.5346,-4.7229c-0.256,-0.7878 0.1752,-1.6341 0.9631,-1.8901c0.1856,-0.0603 0.3744,-0.0824 0.5579,-0.0708c-0.0319,-0.6592 0.3773,-1.2845 1.0352,-1.4983c0.6578,-0.2137 1.3564,0.0516 1.7181,0.6037c0.1417,-0.1173 0.3075,-0.2103 0.493,-0.2706c0.7879,-0.256 1.6341,0.1751 1.8901,0.963l0.0264,0.0812c0.1317,-0.1009 0.2824,-0.1815 0.4492,-0.2357c0.7878,-0.256 1.6341,0.1752 1.8901,0.9631zM8.6457,4.4861l1.2361,3.8042c0.0853,0.2626 -0.0585,0.5447 -0.321,0.63c-0.2626,0.0853 -0.5447,-0.0584 -0.6301,-0.321l-1.5451,-4.7553c-0.0853,-0.2626 -0.3674,-0.4063 -0.63,-0.321c-0.2626,0.0853 -0.4063,0.3674 -0.321,0.63l1.5451,4.7553c0.0853,0.2626 -0.0584,0.5447 -0.3211,0.6301c-0.2626,0.0853 -0.5447,-0.0584 -0.63,-0.3211l-1.2361,-3.8042c-0.0853,-0.2626 -0.3674,-0.4063 -0.63,-0.321c-0.2626,0.0853 -0.4063,0.3674 -0.321,0.63l1.8536,5.7062c0.0467,0.1263 0.0425,0.271 -0.0234,0.4005c-0.1254,0.246 -0.4265,0.3439 -0.6725,0.2185l-0.0105,-0.0054c-0.2768,-0.141 -0.5472,-0.2788 -0.8593,-0.3258c-0.7699,-0.116 -2.2909,0.1404 -2.1345,1.2175c0.2097,0.0763 0.4226,0.149 0.6363,0.222c0.6086,0.2078 1.2229,0.4175 1.7856,0.7188l1.691,0.9055c0.9597,0.514 1.7748,1.1968 2.5775,1.9211c0.3083,0.2781 0.7415,0.3704 1.1364,0.2421l2.4211,-0.7866c0.1324,-0.043 0.2525,-0.1174 0.3499,-0.2167c0.256,-0.2605 0.4116,-0.6031 0.4393,-0.9673l0.117,-1.5321c0.0704,-0.9224 -0.0405,-1.8497 -0.3264,-2.7296l-1.8602,-5.7252c-0.0853,-0.2626 -0.3674,-0.4063 -0.63,-0.321c-0.2626,0.0853 -0.4064,0.3674 -0.321,0.63l1.0815,3.3287c0.0853,0.2626 -0.0584,0.5447 -0.321,0.63c-0.2626,0.0854 -0.5447,-0.0583 -0.63,-0.321l-1.5451,-4.7553c-0.0854,-0.2626 -0.3675,-0.4063 -0.6301,-0.321c-0.2626,0.0853 -0.4063,0.3674 -0.321,0.6301z" fill="#212121"/>
</svg>
