<svg width="20" height="20" viewBox="0 0 20 20" fill="none" xmlns="http://www.w3.org/2000/svg">
<path d="M4.6778,14.5657c0,0 0.0471,0.0451 0,0zM2,8c0,-0.1806 0.0967,-0.343 0.2471,-0.4313c0.0003,-0.0002 6.2351,-3.6564 6.2351,-3.6564c0.4454,-0.262 0.9641,-0.4123 1.5178,-0.4123c0.5537,0 1.0726,0.1505 1.5176,0.4121l6.2353,3.6566c0.1531,0.0897 0.2471,0.2539 0.2471,0.4313c0,0.1774 -0.094,0.3416 -0.2471,0.4313l-2.2528,1.3211l-0.0003,4.4298c0,0.1437 -0.0607,0.2733 -0.1578,0.3645c-0.0084,0.0079 -0.0171,0.0156 -0.0261,0.0229v0v0l0.0037,-0.0014c-0.0173,0.0162 -0.0414,0.0385 -0.0717,0.0654c-0.0636,0.0565 -0.1559,0.135 -0.2756,0.2277c-0.239,0.185 -0.5892,0.4283 -1.0438,0.6708c-0.9091,0.4848 -2.2394,0.9679 -3.9285,0.9679c-1.6891,0 -3.0194,-0.4831 -3.9284,-0.9679c-0.4547,-0.2425 -0.805,-0.4858 -1.0439,-0.6708c-0.1197,-0.0927 -0.212,-0.1711 -0.2756,-0.2277c-0.0318,-0.0283 -0.0567,-0.0514 -0.0743,-0.0679c-0.0061,-0.0059 -0.0138,-0.0133 -0.0235,-0.0225c-0.0951,-0.0911 -0.1543,-0.2192 -0.1543,-0.3613v-4.4294l-1.5,-0.8797v4.1272c0,0.276 -0.224,0.5 -0.5,0.5c-0.276,0 -0.5,-0.224 -0.5,-0.5zM14.5001,10.3389l-2.982,1.7486c-0.4455,0.262 -0.9644,0.4125 -1.5181,0.4125c-0.5537,0 -1.0726,-0.1505 -1.5176,-0.4121l-2.9824,-1.749v3.6192c0.0398,0.0333 0.0866,0.0712 0.14,0.1125c0.2064,0.1599 0.5093,0.3696 0.9022,0.5792c0.8001,0.4267 1.9712,0.8502 3.4578,0.8502c1.4866,0 2.6578,-0.4235 3.4579,-0.8503c0.3928,-0.2095 0.6957,-0.4193 0.9022,-0.5791c0.0533,-0.0413 0.1,-0.0791 0.1397,-0.1123zM8.9886,4.7746l-5.5002,3.2254l5.5002,3.2254c0.2967,0.1745 0.6426,0.2746 1.0114,0.2746c0.3688,0 0.7147,-0.1001 1.0114,-0.2746l5.5002,-3.2254l-5.5002,-3.2254c-0.2967,-0.1745 -0.6426,-0.2746 -1.0114,-0.2746c-0.3688,0 -0.7147,0.1001 -1.0114,0.2746z" fill="#212121"/>
</svg>
