<svg width="20" height="20" viewBox="0 0 20 20" fill="none" xmlns="http://www.w3.org/2000/svg">
<path d="M2,8c0,-0.1806 0.0967,-0.343 0.2471,-0.4313c0.0003,-0.0002 6.2351,-3.6564 6.2351,-3.6564c0.4454,-0.262 0.9641,-0.4123 1.5178,-0.4123c0.5537,0 1.0726,0.1505 1.5176,0.4121l6.2353,3.6566c0.1531,0.0897 0.2471,0.2539 0.2471,0.4313c0,0.1774 -0.094,0.3416 -0.2471,0.4313l-6.2348,3.6562c-0.4455,0.262 -0.9644,0.4125 -1.5181,0.4125c-0.5537,0 -1.0726,-0.1505 -1.5176,-0.4121l-5.4824,-3.2151v4.1272c0,0.276 -0.224,0.5 -0.5,0.5c-0.276,0 -0.5,-0.224 -0.5,-0.5zM15.5,10.9117l-0.0002,3.2705c0,0.1437 -0.0607,0.2733 -0.1578,0.3645c-0.0084,0.0079 -0.0171,0.0156 -0.0261,0.0229l0.0037,-0.0014c-0.0173,0.0162 -0.0414,0.0385 -0.0717,0.0654c-0.0636,0.0565 -0.1559,0.135 -0.2756,0.2277c-0.239,0.185 -0.5892,0.4283 -1.0438,0.6708c-0.9091,0.4848 -2.2394,0.9679 -3.9285,0.9679c-1.6891,0 -3.0194,-0.4831 -3.9284,-0.9679c-0.4547,-0.2425 -0.805,-0.4858 -1.0439,-0.6708c-0.1197,-0.0927 -0.212,-0.1711 -0.2756,-0.2277c-0.0318,-0.0283 -0.0567,-0.0514 -0.0743,-0.0679l-0.0235,-0.0225c-0.0951,-0.0911 -0.1543,-0.2192 -0.1543,-0.3613v-3.2702l3.4766,2.0388c0.5925,0.3484 1.2846,0.5495 2.0234,0.5495c0.7387,0 1.4308,-0.201 2.025,-0.5505z" fill="#212121"/>
</svg>
