<svg width="20" height="20" viewBox="0 0 20 20" fill="none" xmlns="http://www.w3.org/2000/svg">
<path d="M10,10c0.2761,0 0.5,0.2239 0.5,0.5v7c0,0.2761 -0.2239,0.5 -0.5,0.5c-0.27614,0 -0.5,-0.2239 -0.5,-0.5v-7c0,-0.2761 0.22386,-0.5 0.5,-0.5zM10,2c4.4183,0 8,3.58172 8,8v5.5c0,1.1046 -0.8954,2 -2,2h-0.5c-0.2761,0 -0.5,-0.2239 -0.5,-0.5v-6c0,-0.2761 0.2239,-0.5 0.5,-0.5h1.5v-.5c0,-3.86599 -3.134,-7 -7,-7c-3.86599,0 -7,3.13401 -7,7v.5h1.5c0.27614,0 0.5,0.2239 0.5,0.5v6c0,0.2761 -0.22386,0.5 -0.5,0.5h-0.5c-1.10457,0 -2,-0.8954 -2,-2v-5.5c0,-4.41828 3.58172,-8 8,-8zM3,15.5c0,0.5523 0.44772,1 1,1v-5h-1zM7.5,11.5c0.27614,0 0.5,0.2239 0.5,0.5v4c0,0.2761 -0.22386,0.5 -0.5,0.5c-0.27614,0 -0.5,-0.2239 -0.5,-0.5v-4c0,-0.2761 0.22386,-0.5 0.5,-0.5zM12.5,11.5c0.2761,0 0.5,0.2239 0.5,0.5v4c0,0.2761 -0.2239,0.5 -0.5,0.5c-0.2761,0 -0.5,-0.2239 -0.5,-0.5v-4c0,-0.2761 0.2239,-0.5 0.5,-0.5zM16,16.5c0.5523,0 1,-0.4477 1,-1v-4h-1z" fill="#212121"/>
</svg>
