<svg width="20" height="20" viewBox="0 0 20 20" fill="none" xmlns="http://www.w3.org/2000/svg">
<path d="M2.4941,6.375c-0.2233,-0.3867 -0.2233,-0.8633 0,-1.25l1.4433,-2.5c0.2233,-0.3867 0.636,-0.625 1.0826,-0.625h2.8867c0.4466,0 0.8593,0.2383 1.0826,0.625l1.4433,2.5c0.2233,0.3867 0.2233,0.8633 0,1.25l-1.4433,2.5c-0.2233,0.3867 -0.636,0.625 -1.0826,0.625h-2.8867c-0.4466,0 -0.8593,-0.2383 -1.0826,-0.625zM2.4941,14.875c-0.2233,-0.3867 -0.2233,-0.8633 0,-1.25l1.4433,-2.5c0.2233,-0.3867 0.636,-0.625 1.0826,-0.625h2.8867c0.4466,0 0.8593,0.2383 1.0826,0.625l1.4433,2.5c0.2233,0.3867 0.2233,0.8633 0,1.25l-1.4433,2.5c-0.2233,0.3867 -0.636,0.625 -1.0826,0.625h-2.8867c-0.4466,0 -0.8593,-0.2383 -1.0826,-0.625zM9.8553,10.625c-0.2233,-0.3867 -0.2233,-0.8633 0,-1.25l1.4433,-2.5c0.2233,-0.3867 0.636,-0.625 1.0826,-0.625h2.8867c0.4466,0 0.8593,0.2383 1.0826,0.625l1.4433,2.5c0.2234,0.3867 0.2234,0.8633 0.0001,1.25l-1.4434,2.5c-0.2233,0.3867 -0.636,0.625 -1.0826,0.625h-2.8867c-0.4466,0 -0.8593,-0.2383 -1.0825,-0.625z" fill="#212121"/>
</svg>
