<svg width="20" height="20" viewBox="0 0 20 20" fill="none" xmlns="http://www.w3.org/2000/svg">
<path d="M10,2c0.2761,0 0.5,0.22386 0.5,0.5v15l-0.0098,0.1006c-0.0465,0.228 -0.2485,0.3994 -0.4902,0.3994c-0.24171,0 -0.44371,-0.1714 -0.49023,-0.3994l-0.00977,-0.1006v-15c0,-0.27614 0.22386,-0.5 0.5,-0.5zM6,7c1.10457,0 2,0.89543 2,2v2c0,1.1046 -0.89543,2 -2,2h-2c-1.10457,0 -2,-0.8954 -2,-2v-2c0,-1.10457 0.89543,-2 2,-2zM16,7c1.1046,0 2,0.89543 2,2v2c0,1.1046 -0.8954,2 -2,2h-2c-1.1046,0 -2,-0.8954 -2,-2v-2c0,-1.10457 0.8954,-2 2,-2z" fill="#212121"/>
</svg>
