<svg width="20" height="20" viewBox="0 0 20 20" fill="none" xmlns="http://www.w3.org/2000/svg">
<path d="M10.3192,2.0126c-0.1053,-0.0084 -0.2118,-0.0126 -0.3192,-0.0126c-2.2091,0 -4,1.7909 -4,4c0,0.3921 0.0566,0.7717 0.1622,1.1307l-3.9865,3.9865c-0.1125,0.1125 -0.1757,0.2651 -0.1757,0.4242v2.8586c0,0.3314 0.2686,0.6 0.6,0.6h2.8c0.3314,0 0.6,-0.2686 0.6,-0.6v-1.4h1.9c0.3314,0 0.6,-0.2686 0.6,-0.6v-1.6929l0.7346,-0.7346c-0.2143,-0.2629 -0.4048,-0.546 -0.5682,-0.846l-0.9907,0.9907c-0.1125,0.1125 -0.1757,0.2651 -0.1757,0.4242v1.4586h-1.9c-0.3314,0 -0.6,0.2686 -0.6,0.6v1.4h-2v-2.2929l4.3194,-4.3194l-0.1178,-0.3038c-0.13,-0.3355 -0.2016,-0.7008 -0.2016,-1.0839c0,-1.366 0.9129,-2.5187 2.1619,-2.8814c0.3297,-0.4224 0.7198,-0.7954 1.1573,-1.106zM13.5,6.25c0.4142,0 0.75,-0.3358 0.75,-0.75c0,-0.4142 -0.3358,-0.75 -0.75,-0.75c-0.4142,0 -0.75,0.3358 -0.75,0.75c0,0.4142 0.3358,0.75 0.75,0.75zM9,6.5c0,-2.4853 2.0147,-4.5 4.5,-4.5c2.4853,0 4.5,2.0147 4.5,4.5c0,1.5609 -0.7949,2.9355 -2,3.7422v1.0507l0.7828,0.7828c0.2344,0.2343 0.2344,0.6142 0,0.8486l-1.0757,1.0757l1.0675,1.0674c0.2528,0.2529 0.2297,0.6694 -0.0495,0.8928l-2.3503,1.8803c-0.2191,0.1753 -0.5305,0.1753 -0.7496,0l-2.4,-1.92c-0.1423,-0.1139 -0.2252,-0.2863 -0.2252,-0.4686v-5.2097c-1.2051,-0.8067 -2,-2.1813 -2,-3.7422zM13.5,3c-1.933,0 -3.5,1.567 -3.5,3.5c0,1.2949 0.7029,2.4261 1.7504,3.0321c0.1545,0.0893 0.2496,0.2543 0.2496,0.4328v5.2948l2,1.6l1.7514,-1.4012l-1.0342,-1.0342c-0.2344,-0.2343 -0.2344,-0.6142 0,-0.8486l1.0757,-1.0757l-0.6172,-0.6172c-0.1125,-0.1125 -0.1757,-0.2651 -0.1757,-0.4242v-1.4937c0,-0.1785 0.0951,-0.3435 0.2496,-0.4328c1.0475,-0.606 1.7504,-1.7372 1.7504,-3.0321c0,-1.933 -1.567,-3.5 -3.5,-3.5z" fill="#212121"/>
</svg>
