<svg width="20" height="20" viewBox="0 0 20 20" fill="none" xmlns="http://www.w3.org/2000/svg">
<path d="M4,2.5v2.5c0,0.5523 0.4477,1 1,1h10c0.5523,0 1,-0.4477 1,-1v-2.5c0,-0.2761 0.2239,-0.5 0.5,-0.5c0.2761,0 0.5,0.2239 0.5,0.5v2.5c0,0.7403 -0.4022,1.3866 -1,1.7324v0.7676c0,0.8284 -0.6716,1.5 -1.5,1.5h-4v2.5c0,0.2761 -0.2239,0.5 -0.5,0.5c-0.2761,0 -0.5,-0.2239 -0.5,-0.5v-2.5h-4c-0.8284,0 -1.5,-0.6716 -1.5,-1.5v-0.7676c-0.5978,-0.3458 -1,-0.9921 -1,-1.7324v-2.5c0,-0.2761 0.2239,-0.5 0.5,-0.5c0.2761,0 0.5,0.2239 0.5,0.5zM5,7v0.5c0,0.2761 0.2239,0.5 0.5,0.5h9c0.2761,0 0.5,-0.2239 0.5,-0.5v-0.5zM5.5,13h1.5c0.2761,0 0.5,0.2239 0.5,0.5c0,0.2761 -0.2239,0.5 -0.5,0.5h-1.5c-0.2761,0 -0.5,-0.2239 -0.5,-0.5c0,-0.2761 0.2239,-0.5 0.5,-0.5zM12.5,13.5c0,-0.2761 0.2239,-0.5 0.5,-0.5h1.5c0.2761,0 0.5,0.2239 0.5,0.5c0,0.2761 -0.2239,0.5 -0.5,0.5h-1.5c-0.2761,0 -0.5,-0.2239 -0.5,-0.5zM10,14c-0.2761,0 -0.5,-0.2239 -0.5,-0.5c0,-0.2761 0.2239,-0.5 0.5,-0.5c0.2761,0 0.5,0.2239 0.5,0.5c0,0.2761 -0.2239,0.5 -0.5,0.5zM10,15c0.2761,0 0.5,0.2239 0.5,0.5v2c0,0.2761 -0.2239,0.5 -0.5,0.5c-0.2761,0 -0.5,-0.2239 -0.5,-0.5v-2c0,-0.2761 0.2239,-0.5 0.5,-0.5zM8.8535,14.8536l-1.4999,1.5c-0.1953,0.1952 -0.5119,0.1952 -0.7072,0c-0.1952,-0.1953 -0.1952,-0.5119 0.0001,-0.7072l1.4999,-1.5c0.1953,-0.1952 0.5119,-0.1952 0.7072,0c0.1952,0.1953 0.1952,0.5119 -0.0001,0.7072zM11.1464,14.1464c0.1953,-0.1952 0.5119,-0.1952 0.7072,0l1.5,1.5c0.1952,0.1953 0.1952,0.5119 0,0.7072c-0.1953,0.1952 -0.5119,0.1952 -0.7072,0l-1.5,-1.5c-0.1952,-0.1953 -0.1952,-0.5119 0,-0.7072z" fill="#212121"/>
</svg>
