<svg width="20" height="20" viewBox="0 0 20 20" fill="none" xmlns="http://www.w3.org/2000/svg">
<path d="M3.5,2h13c0.2761,0 0.5,0.2239 0.5,0.5v2.5c0,0.7492 -0.4119,1.4021 -1.0216,1.7448c-0.2893,0.1625 -0.623,0.2552 -0.9784,0.2552h-10c-0.3452,0 -0.6699,-0.0874 -0.9533,-0.2414c-0.0084,-0.0046 -0.0168,-0.0092 -0.0251,-0.0138c-0.6097,-0.3427 -1.0216,-0.9956 -1.0216,-1.7448v-2.5c0,-0.2761 0.2239,-0.5 0.5,-0.5zM10.5,9.5v2c0,0.2761 -0.2239,0.5 -0.5,0.5c-0.2761,0 -0.5,-0.2239 -0.5,-0.5v-2h-4c-0.8284,0 -1.5,-0.6716 -1.5,-1.5h12c0,0.8284 -0.6716,1.5 -1.5,1.5zM5,13.5c0,-0.2761 0.2239,-0.5 0.5,-0.5h1.5c0.2761,0 0.5,0.2239 0.5,0.5c0,0.2761 -0.2239,0.5 -0.5,0.5h-1.5c-0.2761,0 -0.5,-0.2239 -0.5,-0.5zM13,13h1.5c0.2761,0 0.5,0.2239 0.5,0.5c0,0.2761 -0.2239,0.5 -0.5,0.5h-1.5c-0.2761,0 -0.5,-0.2239 -0.5,-0.5c0,-0.2761 0.2239,-0.5 0.5,-0.5zM10.5,13.5c0,0.2761 -0.2239,0.5 -0.5,0.5c-0.2761,0 -0.5,-0.2239 -0.5,-0.5c0,-0.2761 0.2239,-0.5 0.5,-0.5c0.2761,0 0.5,0.2239 0.5,0.5zM10.5,15.5v2c0,0.2761 -0.2239,0.5 -0.5,0.5c-0.2761,0 -0.5,-0.2239 -0.5,-0.5v-2c0,-0.2761 0.2239,-0.5 0.5,-0.5c0.2761,0 0.5,0.2239 0.5,0.5zM8.8535,14.1464c0.1953,0.1953 0.1953,0.5119 0.0001,0.7072l-1.5001,1.5c-0.1952,0.1952 -0.5118,0.1952 -0.707,0c-0.1953,-0.1953 -0.1953,-0.5119 -0.0001,-0.7072l1.5001,-1.5c0.1952,-0.1952 0.5118,-0.1952 0.707,0zM11.1464,14.8536c-0.1952,-0.1953 -0.1952,-0.5119 0,-0.7072c0.1953,-0.1952 0.5119,-0.1952 0.7072,0l1.5,1.5c0.1952,0.1953 0.1952,0.5119 0,0.7072c-0.1953,0.1952 -0.5119,0.1952 -0.7072,0z" fill="#212121"/>
</svg>
