<svg width="32" height="32" viewBox="0 0 32 32" xmlns="http://www.w3.org/2000/svg">
  <path d="M12.894,4.407c-0.267,0.071 -0.541,-0.088 -0.613,-0.354c-0.071,-0.267 0.087,-0.541 0.354,-0.612c1.073,-0.288 2.201,-0.441 3.365,-0.441c1.164,-0 2.292,0.153 3.365,0.441c0.267,0.071 0.425,0.345 0.354,0.612c-0.072,0.266 -0.346,0.425 -0.613,0.354c-0.991,-0.266 -2.032,-0.407 -3.106,-0.407c-1.074,-0 -2.115,0.141 -3.106,0.407Zm9.772,1.615c-0.23,-0.153 -0.291,-0.464 -0.138,-0.693c0.154,-0.229 0.465,-0.291 0.694,-0.137c1.417,0.949 2.637,2.169 3.586,3.586c0.154,0.229 0.092,0.54 -0.137,0.694c-0.229,0.153 -0.54,0.092 -0.693,-0.138c-0.877,-1.308 -2.004,-2.435 -3.312,-3.312Zm4.927,6.872c-0.071,-0.267 0.088,-0.541 0.354,-0.613c0.267,-0.071 0.541,0.087 0.612,0.354c0.288,1.073 0.441,2.201 0.441,3.365c0,1.164 -0.153,2.292 -0.441,3.365c-0.071,0.267 -0.345,0.425 -0.612,0.354c-0.266,-0.072 -0.425,-0.346 -0.354,-0.613c0.266,-0.991 0.407,-2.032 0.407,-3.106c0,-1.074 -0.141,-2.115 -0.407,-3.106Zm-18.259,13.084c0.23,0.153 0.291,0.464 0.138,0.693c-0.154,0.229 -0.465,0.291 -0.694,0.137c-1.417,-0.949 -2.637,-2.169 -3.586,-3.586c-0.154,-0.229 -0.092,-0.54 0.137,-0.694c0.229,-0.153 0.54,-0.092 0.693,0.138c0.877,1.308 2.004,2.435 3.312,3.312Zm-4.927,-6.872c0.071,0.267 -0.088,0.541 -0.354,0.613c-0.267,0.071 -0.541,-0.087 -0.612,-0.354c-0.288,-1.073 -0.441,-2.201 -0.441,-3.365c0,-1.164 0.153,-2.292 0.441,-3.365c0.071,-0.267 0.345,-0.425 0.612,-0.354c0.266,0.072 0.425,0.346 0.354,0.613c-0.266,0.991 -0.407,2.032 -0.407,3.106c0,1.074 0.141,2.115 0.407,3.106Zm1.615,-9.772c-0.153,0.23 -0.464,0.291 -0.693,0.138c-0.229,-0.154 -0.291,-0.465 -0.137,-0.694c0.949,-1.417 2.169,-2.637 3.586,-3.586c0.229,-0.154 0.54,-0.092 0.694,0.137c0.153,0.229 0.092,0.54 -0.138,0.693c-1.308,0.877 -2.435,2.004 -3.312,3.312Zm20.167,20.289c-0,-0 -0.699,-1.632 -2.277,-3.219c-1.92,1.607 -4.089,2.596 -6.986,2.596c-0,-0 -1.624,-0.003 -2.924,-0.653c-0.96,-0.48 -1.743,-1.291 -1.743,-2.625c0,-1.333 0.783,-2.145 1.743,-2.625c1.3,-0.65 2.924,-0.653 2.924,-0.653c3.076,0 5.372,1.215 6.997,2.616c0.765,-0.719 1.496,-1.541 2.231,-2.433c0.175,-0.213 0.491,-0.244 0.704,-0.068c0.213,0.175 0.243,0.49 0.068,0.703c-0.748,0.909 -1.495,1.745 -2.273,2.481c1.7,1.727 2.455,3.486 2.455,3.486l0.031,0.072c0.026,0.061 0.041,0.128 0.041,0.199c-0,0.276 -0.224,0.5 -0.5,0.5c-0.207,-0 -0.384,-0.126 -0.46,-0.305l-0.031,-0.072Zm-3.019,-3.901c-1.47,-1.231 -3.521,-2.278 -6.244,-2.278c-0,0 -1.376,-0.003 -2.476,0.548c-0.64,0.32 -1.191,0.841 -1.191,1.73c0,0.889 0.551,1.411 1.191,1.731c1.1,0.55 2.476,0.547 2.476,0.547c2.581,-0 4.526,-0.871 6.244,-2.278Z" fill="#212121" />
</svg>