<svg width="20" height="20" viewBox="0 0 20 20" fill="none" xmlns="http://www.w3.org/2000/svg">
<path d="M10,3.5c0.5078,0 1.0022,0.0581 1.4766,0.1684c0.2688,0.0626 0.5377,-0.1049 0.6003,-0.3737c0.0625,-0.2688 -0.105,-0.5377 -0.3738,-0.6003c-0.5472,-0.1272 -1.1174,-0.1944 -1.7031,-0.1944c-0.5857,0 -1.1559,0.0672 -1.7031,0.1944c-0.2688,0.0626 -0.4363,0.3315 -0.3738,0.6003c0.0626,0.2688 0.3315,0.4363 0.6003,0.3737c0.4744,-0.1103 0.9688,-0.1684 1.4766,-0.1684zM15.5201,6.5681c0.1461,0.2341 0.4547,0.3057 0.6889,0.1597c0.2341,-0.146 0.3057,-0.4547 0.1597,-0.6888c-0.6078,-0.9747 -1.433,-1.7999 -2.4077,-2.4077c-0.2341,-0.146 -0.5428,-0.0744 -0.6888,0.1597c-0.146,0.2342 -0.0744,0.5428 0.1597,0.6889c0.8453,0.5271 1.5611,1.2429 2.0882,2.0882zM16.5,10c0,0.5078 -0.0581,1.0022 -0.1684,1.4766c-0.0626,0.2688 0.1049,0.5377 0.3737,0.6003c0.2688,0.0625 0.5377,-0.105 0.6003,-0.3738c0.1272,-0.5472 0.1944,-1.1174 0.1944,-1.7031c0,-0.5857 -0.0672,-1.1559 -0.1944,-1.7031c-0.0626,-0.2688 -0.3315,-0.4363 -0.6003,-0.3738c-0.2688,0.0626 -0.4363,0.3315 -0.3737,0.6003c0.1103,0.4744 0.1684,0.9688 0.1684,1.4766zM4.4799,13.4319c-0.1461,-0.2341 -0.4547,-0.3057 -0.6889,-0.1597c-0.2341,0.146 -0.3057,0.4547 -0.1597,0.6888c0.6078,0.9747 1.433,1.7999 2.4077,2.4077c0.2341,0.146 0.5428,0.0744 0.6888,-0.1597c0.146,-0.2342 0.0744,-0.5428 -0.1597,-0.6889c-0.8453,-0.5271 -1.5611,-1.2429 -2.0882,-2.0882zM3.5,10c0,-0.5078 0.0581,-1.0022 0.1684,-1.4766c0.0626,-0.2688 -0.1049,-0.5377 -0.3737,-0.6003c-0.2688,-0.0625 -0.5377,0.105 -0.6003,0.3738c-0.1272,0.5472 -0.1944,1.1174 -0.1944,1.7031c0,0.5857 0.0672,1.1559 0.1944,1.7031c0.0626,0.2688 0.3315,0.4363 0.6003,0.3738c0.2688,-0.0626 0.4363,-0.3315 0.3737,-0.6003c-0.1103,-0.4744 -0.1684,-0.9688 -0.1684,-1.4766zM6.5681,4.4799c0.2341,-0.1461 0.3057,-0.4547 0.1597,-0.6889c-0.146,-0.2341 -0.4547,-0.3057 -0.6888,-0.1597c-0.9747,0.6078 -1.7999,1.433 -2.4077,2.4077c-0.146,0.2341 -0.0744,0.5428 0.1597,0.6888c0.2342,0.146 0.5428,0.0744 0.6889,-0.1597c0.5271,-0.8453 1.2429,-1.5611 2.0882,-2.0882zM14.1627,14.8318c-0.9766,-0.7313 -2.225,-1.3318 -3.6627,-1.3318c-1.4136,0 -2.5,0.9398 -2.5,2c0,1.0602 1.0864,2 2.5,2c1.4627,0 2.7319,-0.4562 3.7993,-1.2436c0.8149,0.7753 1.2772,1.5094 1.2772,1.5094c0.1467,0.2337 0.4556,0.3044 0.6893,0.1577c0.2337,-0.1467 0.3044,-0.4556 0.1577,-0.6893c0,0 -0.4903,-0.7834 -1.3602,-1.6297c0.4873,-0.4769 0.9227,-1.0301 1.3052,-1.6436c0.146,-0.2341 0.0745,-0.5428 -0.1597,-0.6888c-0.2341,-0.146 -0.5428,-0.0744 -0.6888,0.1597c-0.3535,0.5669 -0.7578,1.0767 -1.213,1.5105c-0.0474,-0.0371 -0.0955,-0.074 -0.1443,-0.1105zM10.5,16.5c-0.4341,0 -0.8292,-0.126 -1.1139,-0.3395c-0.2286,-0.1715 -0.3861,-0.3991 -0.3861,-0.6605c0,-0.2614 0.1575,-0.489 0.3861,-0.6605c0.2847,-0.2135 0.6798,-0.3395 1.1139,-0.3395c1.1764,0 2.1958,0.4953 3.005,1.0891c-0.8585,0.5773 -1.8603,0.9109 -3.005,0.9109z" fill="#212121"/>
</svg>
