<svg width="20" height="20" viewBox="0 0 20 20" fill="none" xmlns="http://www.w3.org/2000/svg">
<path d="M10,3.75c0.4883,0 0.9637,0.0558 1.42,0.1619c0.4031,0.0938 0.8066,-0.1574 0.9004,-0.5605c0.0937,-0.4032 -0.1574,-0.8067 -0.5606,-0.9005c-0.5654,-0.1315 -1.1546,-0.2009 -1.7598,-0.2009c-0.6052,0 -1.1944,0.0694 -1.7598,0.2009c-0.4032,0.0938 -0.6543,0.4973 -0.5606,0.9005c0.0938,0.4031 0.4973,0.6543 0.9004,0.5605c0.4563,-0.1061 0.9317,-0.1619 1.42,-0.1619zM15.308,6.7004c0.219,0.3512 0.682,0.4586 1.0333,0.2395c0.3512,-0.219 0.4586,-0.682 0.2395,-1.0332c-0.6279,-1.007 -1.4805,-1.8596 -2.4875,-2.4875c-0.3512,-0.2191 -0.8142,-0.1117 -1.0332,0.2395c-0.2191,0.3513 -0.1117,0.8143 0.2395,1.0333c0.813,0.5069 1.5015,1.1954 2.0084,2.0084zM16.25,10c0,0.4883 -0.0558,0.9637 -0.1619,1.42c-0.0938,0.4031 0.1574,0.8066 0.5605,0.9004c0.4032,0.0937 0.8067,-0.1574 0.9005,-0.5606c0.1315,-0.5654 0.2009,-1.1546 0.2009,-1.7598c0,-0.6052 -0.0694,-1.1944 -0.2009,-1.7598c-0.0938,-0.4032 -0.4973,-0.6543 -0.9005,-0.5606c-0.4031,0.0938 -0.6543,0.4973 -0.5605,0.9004c0.1061,0.4563 0.1619,0.9317 0.1619,1.42zM4.692,13.2996c-0.219,-0.3512 -0.682,-0.4586 -1.0333,-0.2395c-0.3512,0.219 -0.4586,0.682 -0.2395,1.0332c0.6279,1.007 1.4805,1.8596 2.4875,2.4875c0.3512,0.2191 0.8142,0.1117 1.0332,-0.2395c0.2191,-0.3513 0.1117,-0.8143 -0.2395,-1.0333c-0.813,-0.5069 -1.5015,-1.1954 -2.0084,-2.0084zM3.75,10c0,-0.4883 0.0558,-0.9637 0.1619,-1.42c0.0938,-0.4031 -0.1574,-0.8066 -0.5605,-0.9004c-0.4032,-0.0937 -0.8067,0.1574 -0.9005,0.5606c-0.1315,0.5654 -0.2009,1.1546 -0.2009,1.7598c0,0.6052 0.0694,1.1944 0.2009,1.7598c0.0938,0.4032 0.4973,0.6543 0.9005,0.5606c0.4031,-0.0938 0.6543,-0.4973 0.5605,-0.9004c-0.1061,-0.4563 -0.1619,-0.9317 -0.1619,-1.42zM6.7004,4.692c0.3512,-0.219 0.4586,-0.682 0.2395,-1.0333c-0.219,-0.3512 -0.682,-0.4586 -1.0332,-0.2395c-1.007,0.6279 -1.8596,1.4805 -2.4875,2.4875c-0.2191,0.3512 -0.1117,0.8142 0.2395,1.0332c0.3513,0.2191 0.8143,0.1117 1.0333,-0.2395c0.5069,-0.813 1.1954,-1.5015 2.0084,-2.0084zM10.5,13.25c-1.4094,0 -2.5,1.0419 -2.5,2.25c0,1.2081 1.0906,2.25 2.5,2.25c1.4863,0 2.7812,-0.4527 3.8748,-1.2382c0.6442,0.6166 1.0038,1.1582 1.0038,1.1582c0.2318,0.343 0.6985,0.4332 1.0414,0.2014c0.343,-0.2318 0.4332,-0.6985 0.2014,-1.0414c0,0 -0.4072,-0.5937 -1.1374,-1.2976c0.4029,-0.4304 0.7687,-0.9132 1.0967,-1.4392c0.219,-0.3512 0.1116,-0.8142 -0.2396,-1.0332c-0.3513,-0.2191 -0.8142,-0.1117 -1.0333,0.2395c-0.2915,0.4676 -0.6188,0.8954 -0.9821,1.2713c-1.012,-0.714 -2.3161,-1.3208 -3.8257,-1.3208zM10.5,16.25c-0.5238,0 -1,-0.301 -1,-0.75c0,-0.449 0.4762,-0.75 1,-0.75c1.0019,0 1.8876,0.3392 2.6199,0.7863c-0.7625,0.4545 -1.6355,0.7137 -2.6199,0.7137z" fill="#212121"/>
</svg>
