<svg width="20" height="20" viewBox="0 0 20 20" fill="none" xmlns="http://www.w3.org/2000/svg">
<path d="M3.5,11c0.82843,0 1.5,-0.6716 1.5,-1.5c0,-0.82843 -0.67157,-1.5 -1.5,-1.5c-0.82843,0 -1.5,0.67157 -1.5,1.5c0,0.8284 0.67157,1.5 1.5,1.5zM7.875,11c0.82843,0 1.5,-0.6716 1.5,-1.5c0,-0.82843 -0.67157,-1.5 -1.5,-1.5c-0.82843,0 -1.5,0.67157 -1.5,1.5c0,0.8284 0.67157,1.5 1.5,1.5zM12.125,11c0.8284,0 1.5,-0.6716 1.5,-1.5c0,-0.82843 -0.6716,-1.5 -1.5,-1.5c-0.8284,0 -1.5,0.67157 -1.5,1.5c0,0.8284 0.6716,1.5 1.5,1.5zM18,9.5c0,0.8284 -0.6716,1.5 -1.5,1.5c-0.8284,0 -1.5,-0.6716 -1.5,-1.5c0,-0.82843 0.6716,-1.5 1.5,-1.5c0.8284,0 1.5,0.67157 1.5,1.5z" fill="#212121"/>
</svg>
