<svg width="20" height="20" viewBox="0 0 20 20" fill="none" xmlns="http://www.w3.org/2000/svg">
<path d="M15.4982,7.5424c-0.0159,1.3305 -0.7782,2.7224 -1.6513,3.8984c-0.8916,1.2008 -1.96,2.2586 -2.6815,2.921c-0.6645,0.6099 -1.6663,0.6099 -2.3308,0c-0.7216,-0.6625 -1.79,-1.7202 -2.6815,-2.921c-0.8731,-1.176 -1.6354,-2.5679 -1.6513,-3.8984c-0.0012,-0.014 -0.0018,-0.0281 -0.0018,-0.0424c0,-3.0376 2.4624,-5.5 5.5,-5.5c3.0376,0 5.5,2.4624 5.5,5.5c0,0.0143 -0.0006,0.0284 -0.0018,0.0424zM8.25,7.5c0,0.9665 0.7835,1.75 1.75,1.75c0.9665,0 1.75,-0.7835 1.75,-1.75c0,-0.9665 -0.7835,-1.75 -1.75,-1.75c-0.9665,0 -1.75,0.7835 -1.75,1.75zM14.2272,12.5818c0.7622,0.2366 1.3936,0.5336 1.8447,0.8681c0.6168,0.4574 0.9281,0.9997 0.9281,1.5501c0,0.5504 -0.3113,1.0927 -0.9281,1.5501c-1.1394,0.8449 -3.4284,1.4499 -6.0719,1.4499c-2.6435,0 -4.9325,-0.605 -6.0719,-1.4499c-0.6168,-0.4574 -0.9281,-0.9997 -0.9281,-1.5501c0,-0.5504 0.3113,-1.0927 0.9281,-1.5501c0.4511,-0.3345 1.0825,-0.6314 1.8447,-0.8681c0.2332,0.2887 0.4723,0.5666 0.7099,0.8302c-0.5764,0.1506 -1.0825,0.338 -1.4956,0.5547c-0.3307,0.1735 -0.5972,0.3626 -0.7776,0.5708c-0.1275,0.1472 -0.2095,0.2989 -0.2095,0.4625c0,0.1636 0.082,0.3153 0.2095,0.4625c0.1804,0.2082 0.4469,0.3973 0.7776,0.5708c1.1303,0.5929 2.9567,0.9667 5.0129,0.9667c2.0562,0 3.8826,-0.3738 5.0129,-0.9667c0.3307,-0.1735 0.5972,-0.3626 0.7776,-0.5708c0.1275,-0.1472 0.2095,-0.2989 0.2095,-0.4625c0,-0.1636 -0.082,-0.3153 -0.2095,-0.4625c-0.1804,-0.2082 -0.4469,-0.3973 -0.7776,-0.5708c-0.4131,-0.2167 -0.9192,-0.4041 -1.4956,-0.5548c0.2376,-0.2635 0.4767,-0.5415 0.7099,-0.8301z" fill="#212121"/>
</svg>
