<svg width="20" height="20" viewBox="0 0 20 20" fill="none" xmlns="http://www.w3.org/2000/svg">
  <path d="M16.5,4.5l-5.5,-0l0,0.25c0,0.414 -0.336,0.75 -0.75,0.75c-0.414,0 -0.75,-0.336 -0.75,-0.75l0,-1c0,-0.414 0.336,-0.75 0.75,-0.75l2.75,0l0,-0.25c-0,-0.414 0.336,-0.75 0.75,-0.75c0.414,-0 0.75,0.336 0.75,0.75l0,0.25l2.75,0c0.414,-0 0.75,0.336 0.75,0.75l0,1c-0,0.414 -0.336,0.75 -0.75,0.75c-0.414,-0 -0.75,-0.336 -0.75,-0.75l0,-0.25Zm-11.934,10l-1.113,3.01c-0.143,0.388 -0.575,0.587 -0.963,0.443c-0.388,-0.143 -0.587,-0.575 -0.443,-0.963l4.25,-11.5c0.108,-0.294 0.389,-0.49 0.703,-0.49c0.314,0 0.595,0.196 0.703,0.49l4.25,11.5c0.144,0.388 -0.055,0.82 -0.443,0.963c-0.388,0.144 -0.82,-0.055 -0.963,-0.443l-1.113,-3.01l-4.868,-0Zm4.314,-1.5l-1.88,-5.086l-1.88,5.086l3.76,-0Zm4.12,-3.5l-2.75,-0c-0.414,0 -0.75,-0.336 -0.75,-0.75c-0,-0.414 0.336,-0.75 0.75,-0.75l2.793,0c0.025,-0.071 0.061,-0.139 0.107,-0.2l0.6,-0.8l-2,-0c-0.414,-0 -0.75,-0.336 -0.75,-0.75c0,-0.414 0.336,-0.75 0.75,-0.75l3.5,-0c0.284,-0 0.544,0.161 0.671,0.415c0.127,0.254 0.099,0.558 -0.071,0.785l-0.975,1.3l2.375,-0c0.414,0 0.75,0.336 0.75,0.75c-0,0.414 -0.336,0.75 -0.75,0.75l-2.75,-0l0,1.875c0,0.897 -0.728,1.625 -1.625,1.625c-0.455,-0 -0.866,-0.187 -1.161,-0.488c-0.289,-0.296 -0.285,-0.771 0.011,-1.061c0.296,-0.289 0.771,-0.284 1.061,0.011c0.022,0.023 0.054,0.038 0.089,0.038c0.069,-0 0.125,-0.056 0.125,-0.125l0,-1.875Z" fill="#212121"/>
</svg>
