<svg width="20" height="20" viewBox="0 0 20 20" fill="none" xmlns="http://www.w3.org/2000/svg">
  <path d="M17,4l-6,0l0,0.5c-0,0.276 -0.224,0.5 -0.5,0.5c-0.276,-0 -0.5,-0.224 -0.5,-0.5l0,-1c-0,-0.276 0.224,-0.5 0.5,-0.5l3,0l0,-0.5c-0,-0.276 0.224,-0.5 0.5,-0.5c0.276,-0 0.5,0.224 0.5,0.5l0,0.5l3,0c0.276,-0 0.5,0.224 0.5,0.5l0,1c0,0.276 -0.224,0.5 -0.5,0.5c-0.276,0 -0.5,-0.224 -0.5,-0.5l0,-0.5Zm-3.5,4.5l-3,0c-0.276,-0 -0.5,-0.224 -0.5,-0.5c0,-0.276 0.224,-0.5 0.5,-0.5l3,0l0,-0.25c-0,-0.144 0.062,-0.281 0.171,-0.376l0.998,-0.874l-2.669,0c-0.276,-0 -0.5,-0.224 -0.5,-0.5c0,-0.276 0.224,-0.5 0.5,-0.5l4,0c0.208,-0 0.395,0.129 0.468,0.324c0.073,0.195 0.018,0.415 -0.139,0.552l-1.829,1.601l0,0.023l3,0c0.276,-0 0.5,0.224 0.5,0.5c0,0.276 -0.224,0.5 -0.5,0.5l-3,0l0,2.125c0,0.759 -0.616,1.375 -1.375,1.375c-0.385,-0 -0.733,-0.158 -0.982,-0.413c-0.193,-0.197 -0.19,-0.514 0.007,-0.707c0.197,-0.193 0.514,-0.19 0.707,0.007c0.068,0.07 0.163,0.113 0.268,0.113c0.207,0 0.375,-0.168 0.375,-0.375l-0,-2.125Zm-9.153,5.5l-1.379,3.676c-0.097,0.258 -0.385,0.389 -0.644,0.292c-0.258,-0.097 -0.389,-0.385 -0.292,-0.644l4.5,-12c0.073,-0.195 0.26,-0.324 0.468,-0.324c0.208,0 0.395,0.129 0.468,0.324l4.5,12c0.097,0.259 -0.034,0.547 -0.292,0.644c-0.259,0.097 -0.547,-0.034 -0.644,-0.292l-1.378,-3.676l-5.307,0Zm4.932,-1l-2.279,-6.076l-2.278,6.076l4.557,0Z" fill="#212121"/>
</svg>
