<svg width="32" height="32" viewBox="0 0 32 32" xmlns="http://www.w3.org/2000/svg">
  <path d="M16,22.5c1.1046,0 2,-0.8954 2,-2c0,-1.1046 -0.8954,-2 -2,-2c-1.1046,0 -2,0.8954 -2,2c0,1.1046 0.8954,2 2,2zM10,10c0,-3.31371 2.6863,-6 6,-6c3.3137,0 6,2.68629 6,6v1h0.5c2.4853,0 4.5,2.0147 4.5,4.5v10c0,2.4853 -2.0147,4.5 -4.5,4.5h-13c-2.48528,0 -4.5,-2.0147 -4.5,-4.5v-10c0,-2.4853 2.01472,-4.5 4.5,-4.5h0.5zM21,10c0,-2.76142 -2.2386,-5 -5,-5c-2.7614,0 -5,2.23858 -5,5v1h10zM9.5,12c-1.933,0 -3.5,1.567 -3.5,3.5v10c0,1.933 1.567,3.5 3.5,3.5h13c1.933,0 3.5,-1.567 3.5,-3.5v-10c0,-1.933 -1.567,-3.5 -3.5,-3.5z" fill="#212121" />
</svg>