<svg width="32" height="32" viewBox="0 0 32 32" xmlns="http://www.w3.org/2000/svg">
  <path d="M18,20.5c0,1.1046 -0.8954,2 -2,2c-1.1046,0 -2,-0.8954 -2,-2c0,-1.1046 0.8954,-2 2,-2c1.1046,0 2,0.8954 2,2zM20,7.5c0,-2.48528 2.0147,-4.5 4.5,-4.5c2.4853,0 4.5,2.01472 4.5,4.5v2c0,0.27614 0.2239,0.5 0.5,0.5c0.2761,0 0.5,-0.22386 0.5,-0.5v-2c0,-3.03757 -2.4624,-5.5 -5.5,-5.5c-3.0376,0 -5.5,2.46243 -5.5,5.5v3.5h-9.5c-2.48528,0 -4.5,2.0147 -4.5,4.5v10c0,2.4853 2.01472,4.5 4.5,4.5h13c2.4853,0 4.5,-2.0147 4.5,-4.5v-10c0,-2.4853 -2.0147,-4.5 -4.5,-4.5h-2.5zM22.5,12c1.933,0 3.5,1.567 3.5,3.5v10c0,1.933 -1.567,3.5 -3.5,3.5h-13c-1.933,0 -3.5,-1.567 -3.5,-3.5v-10c0,-1.933 1.567,-3.5 3.5,-3.5z" fill="#212121" />
</svg>