<svg width="20" height="20" viewBox="0 0 20 20" fill="none" xmlns="http://www.w3.org/2000/svg">
<path d="M13,8h0.5c1.3798,0 2.5,1.1202 2.5,2.5v5c0,1.3798 -1.1202,2.5 -2.5,2.5h-7c-1.3798,0 -2.5,-1.1202 -2.5,-2.5v-5c0,-1.3798 1.1202,-2.5 2.5,-2.5h5.5v-3c0,-1.6557 1.3443,-3 3,-3c1.6557,0 3,1.3443 3,3v1.5c0,0.276 -0.224,0.5 -0.5,0.5c-0.276,0 -0.5,-0.224 -0.5,-0.5v-1.5c0,-1.1038 -0.8962,-2 -2,-2c-1.1038,0 -2,0.8962 -2,2zM9,13c0,0.5519 0.4481,1 1,1c0.5519,0 1,-0.4481 1,-1c0,-0.5519 -0.4481,-1 -1,-1c-0.5519,0 -1,0.4481 -1,1z" fill="#212121"/>
</svg>
