<svg width="20" height="20" viewBox="0 0 20 20" fill="none" xmlns="http://www.w3.org/2000/svg">
<path d="M9.4798,4.334l1.3137,1.3146c0.1952,0.1953 0.1952,0.5118 -0.0002,0.7071c-0.1953,0.1952 -0.5119,0.1951 -0.7071,-0.0002l-0.9601,-0.9607l-0.9601,0.9607c-0.1952,0.1953 -0.5118,0.1954 -0.7071,0.0002c-0.1953,-0.1952 -0.1954,-0.5118 -0.0002,-0.7071l1.3137,-1.3146c0.0938,-0.0938 0.221,-0.1466 0.3537,-0.1466c0.1327,0 0.2599,0.0528 0.3537,0.1466zM8.0754,7.9615c0.4491,0.7197 0.2032,1.8189 -0.6047,2.6057c-0.7649,0.7449 -2.0528,1.266 -3.9404,1.1744c-0.0758,0.5162 -0.0041,0.9243 0.1457,1.2295c0.1833,0.3734 0.5022,0.6307 0.8996,0.7552c0.8146,0.2554 1.9875,-0.0482 2.8363,-1.1836c0.1653,-0.2211 0.4786,-0.2664 0.6998,-0.1011c0.2212,0.1654 0.2664,0.4787 0.1011,0.6999c-1.0732,1.4356 -2.6724,1.9352 -3.9363,1.5391c-0.6399,-0.2006 -1.1852,-0.6313 -1.4982,-1.2689c-0.3102,-0.6318 -0.3722,-1.4256 -0.1303,-2.3294c0.5401,-2.0181 1.6202,-3.1303 2.7133,-3.5874c0.5453,-0.228 1.0912,-0.2907 1.5605,-0.2168c0.4666,0.0734 0.9108,0.2942 1.1536,0.6834zM6.7731,9.8508c0.3521,-0.3429 0.4923,-0.6937 0.5178,-0.9669c0.016,-0.172 -0.013,-0.3115 -0.0639,-0.3931c-0.0495,-0.0794 -0.1925,-0.1827 -0.4606,-0.2249c-0.2754,-0.0433 -0.6338,-0.0096 -1.0193,0.1516c-0.6797,0.2842 -1.4521,0.9723 -1.9481,2.3331c1.5315,0.0322 2.4674,-0.4063 2.9741,-0.8998zM16.9159,7.3964c0.1952,0.1953 0.1953,0.5118 0,0.7071l-2.6598,2.6597c0.6677,1.1383 1.305,2.2179 1.4057,2.3655c0.0526,0.0772 0.198,0.2014 0.3697,0.2372c0.1334,0.0277 0.3356,0.0095 0.5884,-0.2827c0.1807,-0.2088 0.4964,-0.2315 0.7052,-0.0508c0.2088,0.1807 0.2316,0.4965 0.0509,0.7053c-0.4827,0.5577 -1.0424,0.7125 -1.5483,0.6071c-0.4613,-0.096 -0.8186,-0.3984 -0.992,-0.6526c-0.1051,-0.1541 -0.6817,-1.1283 -1.3102,-2.1983l-2.7346,2.7347c-0.1953,0.1951 -0.5118,0.1951 -0.7071,-0.0001c-0.1953,-0.1953 -0.1953,-0.5119 0,-0.7071l2.9189,-2.9189c-0.6121,-1.0454 -1.163,-1.9909 -1.2581,-2.1551c-0.0449,-0.0774 -0.1675,-0.1781 -0.3112,-0.1949c-0.1152,-0.0135 -0.3274,0.0234 -0.5929,0.3854c-0.1634,0.2226 -0.4763,0.2707 -0.699,0.1073c-0.2226,-0.1634 -0.2706,-0.4763 -0.1072,-0.6989c0.4454,-0.6069 0.9875,-0.8488 1.5155,-0.787c0.49,0.0573 0.8772,0.371 1.0601,0.6869c0.0943,0.1627 0.5721,0.9827 1.1238,1.9253l2.4751,-2.4751c0.1953,-0.1953 0.5118,-0.1952 0.7071,0z" fill="#212121"/>
</svg>
