<svg width="20" height="20" viewBox="0 0 20 20" fill="none" xmlns="http://www.w3.org/2000/svg">
<path d="M14.8472,13.5921l-0.009,-0.0142l-1.1211,-1.7485l-2.5505,2.3684c-0.3035,0.2818 -0.778,0.2642 -1.0599,-0.0393c-0.2819,-0.3035 -0.2643,-0.7781 0.0393,-1.0599l2.7486,-2.5523l-1.1061,-1.7255l-0.002,-0.0027c-0.0703,-0.0915 -0.1297,-0.127 -0.1609,-0.1303c-0.0113,-0.0012 -0.1391,-0.0001 -0.4004,0.3041c-0.2699,0.3142 -0.7434,0.3501 -1.0577,0.0802c-0.3141,-0.2699 -0.35,-0.7434 -0.0801,-1.0576c0.4966,-0.5781 1.0778,-0.8833 1.6954,-0.8184c0.5862,0.0615 0.9989,0.4387 1.2307,0.7585c0.0084,0.0116 0.0165,0.0234 0.0242,0.0354l0.9738,1.5191l2.2594,-2.098c0.3035,-0.2819 0.7781,-0.2643 1.06,0.0392c0.2819,0.3036 0.2642,0.7781 -0.0392,1.0599l-2.4577,2.2821l1.2608,1.9671c0.0581,0.0849 0.1132,0.1274 0.1557,0.1483c0.0387,0.019 0.0795,0.026 0.1213,0.0231c0.0969,-0.0068 0.176,-0.0597 0.2037,-0.1057c0.2129,-0.3553 0.6735,-0.4707 1.0288,-0.2577c0.3553,0.2129 0.4707,0.6735 0.2577,1.0288c-0.2881,0.4809 -0.8227,0.7916 -1.3855,0.831c-0.5993,0.0419 -1.2156,-0.2207 -1.6293,-0.8351zM14.9706,13.6049c-0.0232,0.0176 -0.0465,0.0273 -0.0465,0.0273c0.0197,0 0.0384,-0.0062 0.054,-0.0171c-0.0025,-0.0034 -0.005,-0.0068 -0.0075,-0.0102zM9.074,3.8684c0.281,-0.2412 0.696,-0.2412 0.977,0l1.5313,1.3146c0.3143,0.2698 0.3503,0.7433 0.0805,1.0576c-0.2699,0.3143 -0.7434,0.3503 -1.0575,0.0805l-1.0428,-0.8952l-1.0427,0.8952c-0.3143,0.2698 -0.7878,0.2338 -1.0576,-0.0805c-0.2698,-0.3143 -0.2338,-0.7878 0.0805,-1.0576zM8.0366,7.9703c0.2996,0.4389 0.3612,1.0067 0.2645,1.5279c-0.0981,0.5284 -0.3667,1.0752 -0.8199,1.5368c-0.7979,0.8129 -2.101,1.3072 -3.9338,1.1105c0.0277,0.1825 0.0884,0.3338 0.1671,0.4587c0.1689,0.2686 0.4606,0.4794 0.8453,0.6007c0.8094,0.2551 1.8477,0.0607 2.4823,-0.5915c0.2889,-0.2969 0.7637,-0.3033 1.0606,-0.0144c0.2968,0.2888 0.3033,0.7636 0.0144,1.0605c-1.0688,1.0983 -2.719,1.3824 -4.0084,0.976c-0.6616,-0.2086 -1.2737,-0.6125 -1.6637,-1.2323c-0.3968,-0.6304 -0.5215,-1.4161 -0.3163,-2.2947c0.463,-1.982 1.5984,-3.1378 2.7869,-3.6347c0.5892,-0.2463 1.193,-0.3301 1.7246,-0.2652c0.5246,0.0641 1.0747,0.2906 1.3964,0.7617zM6.4107,9.9842c0.2433,-0.2478 0.3717,-0.5234 0.4155,-0.7597c0.042,-0.2264 0.0018,-0.3641 -0.0284,-0.4084c-0.0126,-0.0184 -0.102,-0.0896 -0.3395,-0.1186c-0.257,-0.0313 -0.5984,0.0074 -0.9641,0.1603c-0.5905,0.2468 -1.243,0.7944 -1.6584,1.8096c1.3737,0.1209 2.1664,-0.2669 2.5749,-0.6832z" fill="#212121"/>
</svg>
