<svg width="20" height="20" viewBox="0 0 20 20" fill="none" xmlns="http://www.w3.org/2000/svg">
<path d="M13,11.9383v0.5617c0,1.1038 -0.8962,2 -2,2h-5.5c-1.1038,0 -2,-0.8962 -2,-2v-5c0,-1.1038 0.8962,-2 2,-2h5.5c1.1038,0 2,0.8962 2,2v0.5617l2.3569,-1.4504c0.2314,-0.1424 0.5218,-0.1486 0.759,-0.016c0.2371,0.1325 0.3841,0.383 0.3841,0.6547v5.5c0,0.2717 -0.147,0.5222 -0.3841,0.6547c-0.2372,0.1326 -0.5276,0.1264 -0.759,-0.016zM13,10.7641l2.5,1.5385l0.0003,-4.6054l-2.5003,1.5387zM12,7.5c0,-0.5519 -0.4481,-1 -1,-1h-5.5c-0.5519,0 -1,0.4481 -1,1v5c0,0.5519 0.4481,1 1,1h5.5c0.5519,0 1,-0.4481 1,-1zM6.2672,4.0786c-0.2333,0.1475 -0.5424,0.0779 -0.6898,-0.1554c-0.1475,-0.2332 -0.0778,-0.5423 0.1554,-0.6898c1.2354,-0.781 2.6989,-1.2334 4.2672,-1.2334c1.5683,0 3.0318,0.4524 4.2672,1.2334c0.2332,0.1475 0.3029,0.4566 0.1554,0.6898c-0.1474,0.2333 -0.4565,0.3029 -0.6898,0.1554c-1.0806,-0.6832 -2.3609,-1.0786 -3.7328,-1.0786c-1.3719,0 -2.6522,0.3954 -3.7328,1.0786zM13.7328,15.9214c0.2333,-0.1475 0.5424,-0.0779 0.6898,0.1554c0.1475,0.2332 0.0778,0.5423 -0.1554,0.6898c-1.2354,0.781 -2.6989,1.2334 -4.2672,1.2334c-1.5683,0 -3.0318,-0.4524 -4.2672,-1.2334c-0.2332,-0.1475 -0.3029,-0.4566 -0.1554,-0.6898c0.1474,-0.2333 0.4565,-0.3029 0.6898,-0.1554c1.0806,0.6832 2.3609,1.0786 3.7328,1.0786c1.3719,0 2.6522,-0.3954 3.7328,-1.0786z" fill="#212121"/>
</svg>
