<svg width="20" height="20" viewBox="0 0 20 20" fill="none" xmlns="http://www.w3.org/2000/svg">
<path d="M6.2672,4.0786c-0.2333,0.1475 -0.5424,0.0779 -0.6898,-0.1554c-0.1475,-0.2332 -0.0778,-0.5423 0.1554,-0.6898c1.2354,-0.781 2.6989,-1.2334 4.2672,-1.2334c1.5683,0 3.0318,0.4524 4.2672,1.2334c0.2332,0.1475 0.3029,0.4566 0.1554,0.6898c-0.1474,0.2333 -0.4565,0.3029 -0.6898,0.1554c-1.0806,-0.6832 -2.3609,-1.0786 -3.7328,-1.0786c-1.3719,0 -2.6522,0.3954 -3.7328,1.0786zM13.7328,15.9214c0.2333,-0.1475 0.5424,-0.0779 0.6898,0.1554c0.1475,0.2332 0.0778,0.5423 -0.1554,0.6898c-1.2354,0.781 -2.6989,1.2334 -4.2672,1.2334c-1.5683,0 -3.0318,-0.4524 -4.2672,-1.2334c-0.2332,-0.1475 -0.3029,-0.4566 -0.1554,-0.6898c0.1474,-0.2333 0.4565,-0.3029 0.6898,-0.1554c1.0806,0.6832 2.3609,1.0786 3.7328,1.0786c1.3719,0 2.6522,-0.3954 3.7328,-1.0786zM12,7.5v5c0,1.1038 -0.8962,2 -2,2h-5c-1.1038,0 -2,-0.8962 -2,-2v-5c0,-1.1038 0.8962,-2 2,-2h5c1.1038,0 2,0.8962 2,2zM17,7.25v5.5c0,0.2826 -0.1589,0.5413 -0.411,0.669c-0.2521,0.1278 -0.5546,0.1029 -0.7825,-0.0642l-2.8065,-2.0581v-2.5934l2.8065,-2.0581c0.2279,-0.1671 0.5304,-0.192 0.7825,-0.0642c0.2521,0.1277 0.411,0.3864 0.411,0.669z" fill="#212121"/>
</svg>
