<svg width="20" height="20" viewBox="0 0 20 20" fill="none" xmlns="http://www.w3.org/2000/svg">
<path d="M13.4743,4.1581c-0.0872,0.2618 -0.3706,0.4035 -0.6324,0.3162c-0.2618,-0.0872 -0.4035,-0.3706 -0.3162,-0.6324l0.5,-1.5c0.0872,-0.2618 0.3706,-0.4035 0.6324,-0.3162c0.2618,0.0872 0.4035,0.3706 0.3162,0.6324zM15.3293,5.3763c-0.2077,0.1817 -0.5239,0.1606 -0.7056,-0.047c-0.1817,-0.2077 -0.1606,-0.5239 0.047,-0.7056l2,-1.75c0.2077,-0.1817 0.5239,-0.1606 0.7056,0.047c0.1817,0.2077 0.1606,0.5239 -0.047,0.7056zM16.0825,7.4932c-0.2722,0.0454 -0.5301,-0.1388 -0.5755,-0.411c-0.0453,-0.2722 0.1388,-0.53 0.411,-0.5754l1.4998,-0.25c0.2722,-0.0454 0.53,0.1388 0.5754,0.411c0.0454,0.2722 -0.1388,0.53 -0.411,0.5754zM6.8509,16.6323l-1.7651,0.7492c-0.5462,0.2311 -1.2015,0.1241 -1.6461,-0.3205l-1,-1c-0.4593,-0.4593 -0.5581,-1.1435 -0.2965,-1.6998l5.0477,-10.713c0.1066,-0.2267 0.2576,-0.4372 0.4529,-0.6175c0.8111,-0.7487 2.0775,-0.698 2.8262,0.1131l6,6.5c0.7487,0.8111 0.698,2.0775 -0.1131,2.8262c-0.1739,0.1606 -0.369,0.2841 -0.575,0.3715l-3.0869,1.3103c0.0361,0.1939 0.055,0.3939 0.055,0.5982c0,1.7937 -1.4563,3.25 -3.25,3.25c-1.0924,0 -2.0597,-0.5402 -2.6491,-1.3677zM7.8039,16.2278c0.4126,0.4731 1.0197,0.7722 1.6961,0.7722c1.2418,0 2.25,-1.0082 2.25,-2.25c0,-0.0652 -0.0028,-0.1298 -0.0082,-0.1937z" fill="#212121"/>
</svg>
