<svg width="20" height="20" viewBox="0 0 20 20" fill="none" xmlns="http://www.w3.org/2000/svg">
<path d="M13.25,10c0,0.978 0.1733,1.7499 0.4868,2.2755c0.2783,0.4663 0.6685,0.7245 1.1382,0.7245c0.4697,0 0.8599,-0.2582 1.1382,-0.7245c0.3135,-0.5256 0.4868,-1.2975 0.4868,-2.2755c0,-3.5898 -2.9102,-6.5 -6.5,-6.5c-3.5898,0 -6.5,2.9102 -6.5,6.5c0,3.5898 2.9102,6.5 6.5,6.5c0.7646,0 1.5101,-0.1317 2.213,-0.3862c0.3895,-0.141 0.8195,0.0604 0.9606,0.4499c0.141,0.3895 -0.0605,0.8195 -0.4499,0.9605c-0.8661,0.3136 -1.7843,0.4758 -2.7237,0.4758c-4.4183,0 -8,-3.5818 -8,-8c0,-4.4183 3.5817,-8 8,-8c4.4182,0 8,3.5817 8,8c0,1.3127 -0.2778,2.3386 -0.6987,3.0441c-0.5835,0.978 -1.4413,1.4559 -2.4263,1.4559c-0.985,0 -1.8428,-0.4779 -2.4263,-1.4559c-0.0307,-0.0515 -0.0607,-0.1047 -0.0898,-0.1595c-0.0108,0.014 -0.0217,0.028 -0.0327,0.0418c-0.6663,0.8399 -1.639,1.3236 -2.8262,1.3236c-2.2926,0 -3.75,-1.8158 -3.75,-4.25c0,-2.4636 1.4102,-4.25 3.75,-4.25c0.8964,0 1.6564,0.2622 2.253,0.7243c0.0113,-0.4026 0.3416,-0.7243 0.747,-0.7243c0.3797,0 0.6935,0.2822 0.7432,0.6482l0.0068,0.1018zM11.75,10c0,-1.7026 -0.8268,-2.75 -2.25,-2.75c-1.4232,0 -2.25,1.0474 -2.25,2.75c0,1.6694 0.8673,2.75 2.25,2.75c1.3827,0 2.25,-1.0806 2.25,-2.75z" fill="#212121"/>
</svg>
