<svg width="20" height="20" viewBox="0 0 20 20" fill="none" xmlns="http://www.w3.org/2000/svg">
<path d="M12,2c0.2761,0 0.5,0.2239 0.5,0.5v1.5128c0.7126,0.0579 1.4119,0.3155 2.0071,0.7729l1.6393,-1.6392c0.1953,-0.1953 0.5119,-0.1953 0.7072,0c0.1952,0.1952 0.1952,0.5118 0,0.707l-1.6395,1.6395c0.4571,0.5953 0.7144,1.2946 0.7721,2.007h1.5138c0.2761,0 0.5,0.2239 0.5,0.5c0,0.2761 -0.2239,0.5 -0.5,0.5h-1.5641c-0.1346,0.7336 -0.4855,1.4353 -1.0528,2.0025l-0.3367,0.3368l1.3072,1.3071c0.1952,0.1953 0.1952,0.5119 0,0.7072c-0.1953,0.1952 -0.5119,0.1952 -0.7072,0l-1.3071,-1.3072l-2.2929,2.2929l1.3072,1.3071c0.1952,0.1953 0.1952,0.5119 0,0.7072c-0.1953,0.1952 -0.5119,0.1952 -0.7072,0l-1.3071,-1.3072l-0.3375,0.3374c-0.5671,0.5671 -1.2685,0.918 -2.0018,1.0527v1.5635c0,0.2761 -0.2239,0.5 -0.5,0.5c-0.2761,0 -0.5,-0.2239 -0.5,-0.5v-1.513c-0.7127,-0.0576 -1.4122,-0.315 -2.0077,-0.7722l-1.6417,1.6417c-0.1952,0.1952 -0.5118,0.1952 -0.7071,0c-0.1953,-0.1953 -0.1953,-0.5119 0,-0.7071l1.6416,-1.6416c-0.4576,-0.5954 -0.7153,-1.295 -0.7731,-2.0078h-1.512c-0.2761,0 -0.5,-0.2239 -0.5,-0.5c0,-0.2761 0.2239,-0.5 0.5,-0.5h1.5623c0.1345,-0.7337 0.4855,-1.4355 1.0528,-2.0029l0.3375,-0.3374l-1.3062,-1.3062c-0.1952,-0.1952 -0.1952,-0.5118 0,-0.7071c0.1953,-0.1952 0.5119,-0.1952 0.7071,0l1.3062,1.3062l2.2929,-2.2929l-1.3062,-1.3062c-0.1952,-0.1952 -0.1952,-0.5118 0,-0.7071c0.1953,-0.1952 0.5119,-0.1952 0.7071,0l1.3062,1.3062l0.3367,-0.3368c0.5675,-0.5675 1.2696,-0.9185 2.0036,-1.053v-1.5628c0,-0.2761 0.2239,-0.5 0.5,-0.5zM7.7505,12.9998c0.4142,0 0.75,-0.3358 0.75,-0.75c0,-0.4142 -0.3358,-0.75 -0.75,-0.75c-0.4142,0 -0.75,0.3358 -0.75,0.75c0,0.4142 0.3358,0.75 0.75,0.75zM13.0005,7.7498c0,-0.4142 -0.3358,-0.75 -0.75,-0.75c-0.4142,0 -0.75,0.3358 -0.75,0.75c0,0.4142 0.3358,0.75 0.75,0.75c0.4142,0 0.75,-0.3358 0.75,-0.75z" fill="#212121"/>
</svg>
