<svg width="20" height="20" viewBox="0 0 20 20" fill="none" xmlns="http://www.w3.org/2000/svg">
<path d="M10.9874,6.2384c-0.0825,0.1258 -0.1649,0.2477 -0.2449,0.3635c-0.3648,0.5279 -1.1202,0.5279 -1.485,0c-0.0089,-0.0129 -0.0178,-0.0258 -0.0268,-0.0389c-0.0768,-0.1117 -0.1555,-0.2287 -0.2342,-0.3491c-0.4988,-0.7633 -0.9965,-1.6629 -0.9965,-2.2139c0,-1.1046 0.8954,-2 2,-2c1.1046,0 2,0.8954 2,2c0,0.551 -0.4977,1.4506 -0.9965,2.2139c-0.0054,0.0082 -0.0107,0.0164 -0.0161,0.0245zM11,4c0,-0.5523 -0.4477,-1 -1,-1c-0.5523,0 -1,0.4477 -1,1c0,0.5523 0.4477,1 1,1c0.5523,0 1,-0.4477 1,-1zM12.0111,6.4919l5.1647,5.4404c0.5292,0.5575 0.8242,1.2968 0.8242,2.0655v1.0023c0,1.1046 -0.8954,2 -2,2h-12c-1.1046,0 -2,-0.8954 -2,-2v-1.0023c0,-0.7687 0.295,-1.508 0.8243,-2.0655l5.1646,-5.4404c0.056,0.091 0.1129,0.1809 0.1705,0.2691c0.0831,0.127 0.1662,0.2506 0.2472,0.3685l0.0282,0.0408c0.0409,0.0592 0.0841,0.1152 0.1293,0.1681l-2.8793,3.033c0.7678,0.5061 1.4037,0.7073 1.9602,0.747c0.6524,0.0466 1.2552,-0.1235 1.9157,-0.3937c0.225,-0.092 0.4578,-0.1975 0.7006,-0.3074c0.8978,-0.4064 1.9304,-0.8739 3.1957,-0.9499l-2.0211,-2.1291c0.0453,-0.0528 0.0885,-0.1089 0.1293,-0.168c0.0837,-0.1211 0.1699,-0.2486 0.2561,-0.38c0,0 0.0186,-0.0284 0.0193,-0.0294c0.0576,-0.0881 0.1146,-0.178 0.1705,-0.269z" fill="#212121"/>
</svg>
