<svg width="20" height="20" viewBox="0 0 20 20" fill="none" xmlns="http://www.w3.org/2000/svg">
<path d="M5.6925,3.2483l-1.7212,1.9124l-0.691,-0.691c-0.2929,-0.2929 -0.7677,-0.2929 -1.0606,0c-0.2929,0.2929 -0.2929,0.7677 0,1.0606l1.25,1.25c0.1455,0.1455 0.3443,0.2249 0.55,0.2195c0.2057,-0.0055 0.4001,-0.0951 0.5378,-0.2481l2.25,-2.5c0.2771,-0.3079 0.2521,-0.7821 -0.0558,-1.0592c-0.3079,-0.2771 -0.7821,-0.2521 -1.0592,0.0558zM9.25,6h8c0.4142,0 0.75,-0.3358 0.75,-0.75c0,-0.4142 -0.3358,-0.75 -0.75,-0.75h-8c-0.4142,0 -0.75,0.3358 -0.75,0.75c0,0.4142 0.3358,0.75 0.75,0.75zM9.25,11h8c0.4142,0 0.75,-0.3358 0.75,-0.75c0,-0.4142 -0.3358,-0.75 -0.75,-0.75h-8c-0.4142,0 -0.75,0.3358 -0.75,0.75c0,0.4142 0.3358,0.75 0.75,0.75zM17.25,14.5c0.4142,0 0.75,0.3358 0.75,0.75c0,0.4142 -0.3358,0.75 -0.75,0.75h-8c-0.4142,0 -0.75,-0.3358 -0.75,-0.75c0,-0.4142 0.3358,-0.75 0.75,-0.75zM4.5575,16.7517c-0.1377,0.153 -0.3321,0.2426 -0.5378,0.248c-0.2057,0.0054 -0.4045,-0.0739 -0.55,-0.2194l-1.25,-1.25c-0.2929,-0.2929 -0.2929,-0.7677 0,-1.0606c0.2929,-0.2929 0.7677,-0.2929 1.0606,0l0.6911,0.691l1.7211,-1.9124c0.2771,-0.3079 0.7513,-0.3329 1.0592,-0.0558c0.3079,0.2771 0.3329,0.7513 0.0558,1.0592z" fill="#212121"/>
</svg>
