<svg width="20" height="20" viewBox="0 0 20 20" fill="none" xmlns="http://www.w3.org/2000/svg">
<path d="M4.9573,6.0293c0.3214,0.0924 0.5428,0.3864 0.5428,0.7208v6.4999c0,0.4142 -0.3358,0.75 -0.75,0.75c-0.4142,0 -0.75,-0.3358 -0.75,-0.75v-4.445c-0.2415,0.191 -0.5242,0.3842 -0.8641,0.5882c-0.3552,0.2131 -0.8159,0.0979 -1.029,-0.2573c-0.2131,-0.3552 -0.0979,-0.8159 0.2572,-1.029c0.5807,-0.3484 0.9031,-0.6211 1.1275,-0.8677c0.2161,-0.2375 0.3615,-0.4699 0.5755,-0.8117l0.0474,-0.0758c0.1776,-0.2833 0.5214,-0.4148 0.8427,-0.3224zM9,6.0001c-0.3879,0 -0.7118,0.2958 -0.7469,0.6821l-0.25,2.7499c-0.0207,0.2272 0.0632,0.4514 0.2278,0.6093c0.1646,0.1578 0.3921,0.2322 0.6182,0.2021l1.3717,-0.1829c0.8097,-0.108 1.5292,0.5219 1.5292,1.3388c0,0.7392 -0.6125,1.3506 -1.3652,1.3506c-0.366,0 -0.7202,-0.1461 -0.9758,-0.4016l-0.3787,-0.3787c-0.2929,-0.2929 -0.7677,-0.2929 -1.0606,0c-0.2929,0.2929 -0.2929,0.7677 0,1.0606l0.3786,0.3787c0.5401,0.5401 1.2772,0.841 2.0365,0.841c1.5676,0 2.8652,-1.2695 2.8652,-2.8506c0,-1.7241 -1.5185,-3.0535 -3.2274,-2.8257l-0.4406,0.0588l0.1029,-1.1324h2.5651c0.4142,0 0.75,-0.3358 0.75,-0.75c0,-0.4142 -0.3358,-0.75 -0.75,-0.75zM6.75,14c0.2761,0 0.5,-0.2239 0.5,-0.5c0,-0.2761 -0.2239,-0.5 -0.5,-0.5c-0.2761,0 -0.5,0.2239 -0.5,0.5c0,0.2761 0.2239,0.5 0.5,0.5zM14.2197,10.2197c0.2929,-0.2929 0.7677,-0.2929 1.0606,0l0.7197,0.7197l0.7197,-0.7197c0.2929,-0.2929 0.7677,-0.2929 1.0606,0c0.2929,0.2929 0.2929,0.7678 0,1.0607l-0.7196,0.7196l0.7196,0.7197c0.2929,0.2929 0.2929,0.7677 0,1.0606c-0.2929,0.2929 -0.7677,0.2929 -1.0606,0l-0.7197,-0.7196l-0.7197,0.7196c-0.2929,0.2929 -0.7677,0.2929 -1.0606,0c-0.2929,-0.2929 -0.2929,-0.7677 0,-1.0606l0.7196,-0.7197l-0.7196,-0.7196c-0.2929,-0.2929 -0.2929,-0.7678 0,-1.0607z" fill="#212121"/>
</svg>
