<svg width="20" height="20" viewBox="0 0 20 20" fill="none" xmlns="http://www.w3.org/2000/svg">
<path d="M15.091,5.9247l-0.1381,0.347c-0.0882,0.2211 -0.2145,0.5376 -0.3671,0.9193c-0.3052,0.7633 -0.7158,1.7875 -1.1373,2.8305c-0.4213,1.0427 -0.854,2.1055 -1.2032,2.9456c-0.1746,0.4198 -0.329,0.7858 -0.451,1.0665c-0.1162,0.2673 -0.2163,0.4886 -0.2769,0.5936c-0.4836,0.8375 -1.5545,1.1245 -2.3921,0.6409c-0.8375,-0.4835 -1.1245,-1.5545 -0.6409,-2.392c0.0606,-0.105 0.2022,-0.3023 0.3756,-0.5366c0.1821,-0.2461 0.4218,-0.5628 0.6981,-0.9238c0.553,-0.7225 1.257,-1.6286 1.9494,-2.5149c0.6925,-0.8865 1.3741,-1.7542 1.8826,-2.4001c0.2542,-0.3231 0.4652,-0.5907 0.6126,-0.7776l0.2314,-0.2931l0.0373,-0.0421c0.158,-0.1596 0.4065,-0.1956 0.605,-0.0809c0.1646,0.095 0.2567,0.2714 0.2497,0.4524zM12.8788,5.5336c-0.8933,-0.3446 -1.8639,-0.5336 -2.8788,-0.5336c-3.0567,0 -5.7121,1.7141 -7.0591,4.2323c-0.1302,0.2433 -0.4334,0.3352 -0.6767,0.205c-0.2434,-0.1301 -0.3352,-0.4333 -0.2051,-0.6767c1.5153,-2.8327 4.5025,-4.7606 7.9409,-4.7606c1.2527,0 2.4455,0.2559 3.5291,0.7182l-0.007,0.0075l-0.0354,0.0399l-0.044,0.053l-0.2252,0.2853c-0.0905,0.1147 -0.205,0.2599 -0.3387,0.4297zM16.017,6.307c0.775,0.6972 1.4282,1.527 1.9239,2.4536c0.1301,0.2434 0.0383,0.5466 -0.2051,0.6767c-0.2433,0.1302 -0.5465,0.0383 -0.6767,-0.205c-0.3821,-0.7144 -0.8696,-1.3641 -1.4416,-1.9282c0.1069,-0.2675 0.1967,-0.4927 0.2642,-0.6619c0.0012,-0.0029 0.0023,-0.0058 0.0035,-0.0086l0.1059,-0.2663c0.0091,-0.0194 0.0178,-0.0395 0.0259,-0.0603zM14.9999,8.8463c0.4861,0.5846 0.8717,1.2558 1.1301,1.9871c0.092,0.2602 -0.0446,0.5461 -0.3048,0.638c-0.2602,0.092 -0.5461,-0.0446 -0.638,-0.3048c-0.1559,-0.4408 -0.3663,-0.8559 -0.6232,-1.2371c0.15,-0.3719 0.2968,-0.7368 0.4359,-1.0832zM13.8121,11.7853c0.0944,0.2964 0.1552,0.6077 0.1779,0.9295c0.0194,0.2753 -0.1883,0.5145 -0.4636,0.534c-0.1043,0.0073 -0.2035,-0.0179 -0.2875,-0.0671c0.1763,-0.4255 0.3711,-0.9004 0.5732,-1.3964zM9.3273,10.0757c-1.2655,0.2899 -2.2259,1.38 -2.3198,2.7095c-0.0194,0.2753 -0.2586,0.483 -0.5339,0.4636c-0.2753,-0.0195 -0.483,-0.2587 -0.4636,-0.534c0.1465,-2.0759 1.8768,-3.7148 3.99,-3.7148c0.0534,0 0.1066,0.001 0.1595,0.0031c-0.2869,0.3685 -0.5682,0.731 -0.8322,1.0726zM11.2263,7.6372c-0.3943,-0.0898 -0.8048,-0.1372 -1.2263,-0.1372c-2.3952,0 -4.4322,1.5305 -5.1872,3.6666c-0.0919,0.2602 -0.3778,0.3968 -0.638,0.3048c-0.2602,-0.0919 -0.3968,-0.3778 -0.3048,-0.638c0.8922,-2.5244 3.2993,-4.3334 6.13,-4.3334c0.6601,0 1.2972,0.0984 1.8974,0.2813c-0.2134,0.2718 -0.4393,0.5598 -0.6711,0.8559z" fill="#212121"/>
</svg>
