<svg width="20" height="20" viewBox="0 0 20 20" xmlns="http://www.w3.org/2000/svg">
  <path d="M5,12v-2h2v2zM15,4.4941c-0.0032,-0.8257 -0.6735,-1.4941 -1.5,-1.4941h-10c-0.8284,0 -1.5,0.6716 -1.5,1.5v7.1154v0.0081v1.8765c0,1.3807 1.1193,2.5 2.5,2.5h11c1.3807,0 2.5,-1.1193 2.5,-2.5v-6c0,-0.8284 -0.6716,-1.5 -1.5,-1.5h-0.5v7.2308c0,0.2761 -0.2239,0.5 -0.5,0.5c-0.2761,0 -0.5,-0.2239 -0.5,-0.5zM4,6.5c0,-0.2761 0.2239,-0.5 0.5,-0.5h8c0.2761,0 0.5,0.2239 0.5,0.5c0,0.2761 -0.2239,0.5 -0.5,0.5h-8c-0.2761,0 -0.5,-0.2239 -0.5,-0.5zM9.5,9h3c0.2761,0 0.5,0.2239 0.5,0.5c0,0.2761 -0.2239,0.5 -0.5,0.5h-3c-0.2761,0 -0.5,-0.2239 -0.5,-0.5c0,-0.2761 0.2239,-0.5 0.5,-0.5zM9,12.5c0,-0.2761 0.2239,-0.5 0.5,-0.5h3c0.2761,0 0.5,0.2239 0.5,0.5c0,0.2761 -0.2239,0.5 -0.5,0.5h-3c-0.2761,0 -0.5,-0.2239 -0.5,-0.5zM4.5,9h3c0.2761,0 0.5,0.2239 0.5,0.5v3c0,0.2761 -0.2239,0.5 -0.5,0.5h-3c-0.2761,0 -0.5,-0.2239 -0.5,-0.5v-3c0,-0.2761 0.2239,-0.5 0.5,-0.5z" fill="#212121" />
</svg>