<svg width="20" height="20" viewBox="0 0 20 20" fill="none" xmlns="http://www.w3.org/2000/svg">
<path d="M7.6903,8.4455c-0.0588,0.208 -0.0903,0.4276 -0.0903,0.6545c0,0.9338 0.5334,1.7431 1.3121,2.1398c0.3095,0.1577 0.6577,0.2502 1.0267,0.2594c0.0203,0.0005 0.0407,0.0008 0.0612,0.0008c0.0205,0 0.0409,-0.0003 0.0613,-0.0008c0.3689,-0.0092 0.7171,-0.1017 1.0266,-0.2594c0.7788,-0.3967 1.3121,-1.206 1.3121,-2.1398c0,-0.2269 -0.0315,-0.4465 -0.0903,-0.6545c-0.0917,-0.324 -0.2496,-0.6201 -0.4583,-0.8728c-0.4402,-0.533 -1.1061,-0.8727 -1.8514,-0.8727c-0.7453,0 -1.4112,0.3397 -1.8514,0.8727c-0.2087,0.2527 -0.3666,0.5488 -0.4583,0.8728zM9.7733,7.5894c0.074,-0.011 0.1497,-0.0167 0.2267,-0.0167c0.0771,0 0.1527,0.0057 0.2266,0.0167c0.5111,0.0761 0.9395,0.4053 1.1537,0.8561c0.0943,0.1983 0.147,0.4203 0.147,0.6545c0,0.6232 -0.3733,1.1592 -0.9084,1.3967c-0.1892,0.084 -0.3986,0.1306 -0.6189,0.1306c-0.2203,0 -0.4297,-0.0466 -0.6189,-0.1306c-0.5351,-0.2375 -0.9084,-0.7735 -0.9084,-1.3967c0,-0.2342 0.0528,-0.4562 0.147,-0.6545c0.2141,-0.4508 0.6426,-0.78 1.1536,-0.8561zM5.2598,12.231c0.0059,-0.0064 0.0118,-0.0127 0.0178,-0.0189c-1.4681,-0.3889 -2.2685,-1.4626 -2.2685,-2.4666v-0.4364c0,-0.241 0.1954,-0.4364 0.4364,-0.4364h3.162c0.02,-0.3035 0.0799,-0.5961 0.1744,-0.8727h-3.3364c-0.723,0 -1.3091,0.5861 -1.3091,1.3091v0.4364c0,1.3243 0.9616,2.6783 2.6544,3.2315c0.1078,-0.2789 0.2682,-0.5316 0.469,-0.746zM13.3925,8.8727h3.162c0.241,0 0.4364,0.1954 0.4364,0.4364v0.4364c0,1.004 -0.8004,2.0777 -2.2685,2.4666c0.0059,0.0063 0.0119,0.0126 0.0178,0.0189c0.2008,0.2144 0.3611,0.4671 0.4689,0.746c1.693,-0.5532 2.6545,-1.9072 2.6545,-3.2315v-0.4364c0,-0.723 -0.5861,-1.3091 -1.3091,-1.3091h-3.3364c0.0945,0.2766 0.1544,0.5692 0.1744,0.8727zM13.0545,12.5h-6.109c-0.3771,0 -0.7169,0.1594 -0.9558,0.4145c-0.2191,0.234 -0.3533,0.5486 -0.3533,0.8946v0.4364c0,1.7204 1.6228,3.4909 4.3636,3.4909c2.7408,0 4.3636,-1.7705 4.3636,-3.4909v-0.4364c0,-0.3931 -0.1732,-0.7457 -0.4475,-0.9857c-0.2302,-0.2014 -0.5317,-0.3234 -0.8616,-0.3234zM6.9455,13.3727h6.109c0.241,0 0.4364,0.1954 0.4364,0.4364v0.4364c0,1.2546 -1.2499,2.6181 -3.4909,2.6181c-2.241,0 -3.4909,-1.3635 -3.4909,-2.6181v-0.4364c0,-0.241 0.1954,-0.4364 0.4364,-0.4364zM6.5,2.2c-1.3255,0 -2.4,1.0745 -2.4,2.4c0,1.3255 1.0745,2.4 2.4,2.4c1.3255,0 2.4,-1.0745 2.4,-2.4c0,-1.3255 -1.0745,-2.4 -2.4,-2.4zM6.5,3.0727c0.8435,0 1.5273,0.6838 1.5273,1.5273c0,0.8435 -0.6838,1.5273 -1.5273,1.5273c-0.8435,0 -1.5273,-0.6838 -1.5273,-1.5273c0,-0.8435 0.6838,-1.5273 1.5273,-1.5273zM11.1,4.6c0,1.3255 1.0745,2.4 2.4,2.4c1.3255,0 2.4,-1.0745 2.4,-2.4c0,-1.3255 -1.0745,-2.4 -2.4,-2.4c-1.3255,0 -2.4,1.0745 -2.4,2.4zM15.0273,4.6c0,0.8435 -0.6838,1.5273 -1.5273,1.5273c-0.8435,0 -1.5273,-0.6838 -1.5273,-1.5273c0,-0.8435 0.6838,-1.5273 1.5273,-1.5273c0.8435,0 1.5273,0.6838 1.5273,1.5273z" fill="#212121"/>
</svg>
