<svg width="20" height="20" viewBox="0 0 20 20" fill="none" xmlns="http://www.w3.org/2000/svg">
<path d="M7.6,9.1c0,1.305 1.0416,2.3667 2.3388,2.3992c0.0203,0.0005 0.0407,0.0008 0.0612,0.0008c0.0205,0 0.0409,-0.0003 0.0613,-0.0008c1.2971,-0.0325 2.3387,-1.0942 2.3387,-2.3992c0,-0.5802 -0.2059,-1.1123 -0.5486,-1.5273c-0.4402,-0.533 -1.1061,-0.8727 -1.8514,-0.8727c-0.7453,0 -1.4112,0.3397 -1.8514,0.8727c-0.3427,0.415 -0.5486,0.9471 -0.5486,1.5273zM5.2598,12.231c0.4213,-0.45 1.0207,-0.731 1.6857,-0.731h0.6463c-0.6129,-0.6149 -0.9918,-1.4632 -0.9918,-2.4c0,-0.385 0.064,-0.755 0.1819,-1.1h-3.3364c-0.723,0 -1.3091,0.5861 -1.3091,1.3091v0.4364c0,1.3243 0.9616,2.6783 2.6544,3.2315c0.1078,-0.2789 0.2682,-0.5316 0.469,-0.746zM13.4,9.1c0,0.9368 -0.3789,1.7851 -0.9918,2.4h0.6463c0.665,0 1.2644,0.2811 1.6857,0.731c0.2008,0.2144 0.3611,0.4671 0.4689,0.746c1.693,-0.5532 2.6545,-1.9072 2.6545,-3.2315v-0.4364c0,-0.723 -0.5861,-1.3091 -1.3091,-1.3091h-3.3364c0.1179,0.345 0.1819,0.715 0.1819,1.1zM6.9455,12.5c-0.3771,0 -0.7169,0.1594 -0.9558,0.4145c-0.2191,0.234 -0.3533,0.5486 -0.3533,0.8946v0.4364c0,1.7204 1.6228,3.4909 4.3636,3.4909c2.7408,0 4.3636,-1.7705 4.3636,-3.4909v-0.4364c0,-0.346 -0.1342,-0.6606 -0.3533,-0.8946c-0.2389,-0.2551 -0.5787,-0.4145 -0.9558,-0.4145zM6.5,2.2c-1.3255,0 -2.4,1.0745 -2.4,2.4c0,1.3255 1.0745,2.4 2.4,2.4c1.3255,0 2.4,-1.0745 2.4,-2.4c0,-1.3255 -1.0745,-2.4 -2.4,-2.4zM13.5,2.2c-1.3255,0 -2.4,1.0745 -2.4,2.4c0,1.3255 1.0745,2.4 2.4,2.4c1.3255,0 2.4,-1.0745 2.4,-2.4c0,-1.3255 -1.0745,-2.4 -2.4,-2.4z" fill="#212121"/>
</svg>
