<svg width="20" height="20" viewBox="0 0 20 20" fill="none" xmlns="http://www.w3.org/2000/svg">
<path d="M12.2884,11h4.2116c0.8284,0 1.5,0.6716 1.5,1.5c0,0 0,3 -4,3c-0.6879,0 -1.2577,-0.0889 -1.7293,-0.2358c0.1944,-0.313 0.337,-0.6243 0.4416,-0.9131c0.361,0.0956 0.7866,0.1489 1.2877,0.1489c1.231,0 1.9857,-0.3199 2.4289,-0.7631c0.5533,-0.5533 0.5711,-1.2369 0.5711,-1.2369c0,-0.2761 -0.2239,-0.5 -0.5,-0.5h-3.6437c-0.1218,-0.3721 -0.3168,-0.7111 -0.5679,-1zM7,10c-1.7259,0 -3.125,-1.3991 -3.125,-3.125c0,-1.7259 1.3991,-3.125 3.125,-3.125c1.7259,0 3.125,1.3991 3.125,3.125c0,1.7259 -1.3991,3.125 -3.125,3.125zM7,9c1.1736,0 2.125,-0.9514 2.125,-2.125c0,-1.1736 -0.9514,-2.125 -2.125,-2.125c-1.1736,0 -2.125,0.9514 -2.125,2.125c0,1.1736 0.9514,2.125 2.125,2.125zM16.375,7.625c0,1.3117 -1.0633,2.375 -2.375,2.375c-1.3117,0 -2.375,-1.0633 -2.375,-2.375c0,-1.3117 1.0633,-2.375 2.375,-2.375c1.3117,0 2.375,1.0633 2.375,2.375zM15.375,7.625c0,-0.7594 -0.6156,-1.375 -1.375,-1.375c-0.7594,0 -1.375,0.6156 -1.375,1.375c0,0.7594 0.6156,1.375 1.375,1.375c0.7594,0 1.375,-0.6156 1.375,-1.375zM2,12.9048c0,-1.052 0.8528,-1.9048 1.9048,-1.9048h6.1904c1.052,0 1.9048,0.8528 1.9048,1.9048c0,0 0,3.8095 -5,3.8095c-5,0 -5,-3.8095 -5,-3.8095zM3,12.9047c0.0001,0.0037 0.0178,0.98 0.7927,1.7671c0.586,0.5954 1.5793,1.0425 3.2073,1.0425c1.628,0 2.6213,-0.4471 3.2073,-1.0425c0.7763,-0.7886 0.7927,-1.767 0.7927,-1.767c0,-0.4997 -0.4051,-0.9048 -0.9048,-0.9048h-6.1904c-0.4997,0 -0.9048,0.4051 -0.9048,0.9047z" fill="#212121"/>
</svg>
