<svg width="20" height="20" viewBox="0 0 20 20" fill="none" xmlns="http://www.w3.org/2000/svg">
<path d="M12.2702,15.2644c0.7407,-1.1922 0.7298,-2.3596 0.7298,-2.3596c0,-0.7288 -0.2683,-1.3949 -0.7116,-1.9048h4.2108c0.8284,0 1.5,0.6716 1.5,1.5c0,0 0,3 -4,3c-0.6879,0 -1.2574,-0.0887 -1.729,-0.2356zM7,10c-1.7259,0 -3.125,-1.3991 -3.125,-3.125c0,-1.7259 1.3991,-3.125 3.125,-3.125c1.7259,0 3.125,1.3991 3.125,3.125c0,1.7259 -1.3991,3.125 -3.125,3.125zM16.375,7.625c0,1.3117 -1.0633,2.375 -2.375,2.375c-1.3117,0 -2.375,-1.0633 -2.375,-2.375c0,-1.3117 1.0633,-2.375 2.375,-2.375c1.3117,0 2.375,1.0633 2.375,2.375zM2,12.9048c0,-1.052 0.8528,-1.9048 1.9048,-1.9048h6.1904c1.052,0 1.9048,0.8528 1.9048,1.9048c0,0 0,3.8095 -5,3.8095c-5,0 -5,-3.8095 -5,-3.8095z" fill="#212121"/>
</svg>
