<svg width="20" height="20" viewBox="0 0 20 20" fill="none" xmlns="http://www.w3.org/2000/svg">
<path d="M9.4762,2.5396c0.3366,0.1325 0.711,0.1325 1.0476,0l0.9551,-0.3759c1.1779,-0.4635 2.5114,0.0888 3.0164,1.2494l0.4096,0.9413c0.1444,0.3317 0.4091,0.5964 0.7408,0.7407l0.9411,0.4096c1.1607,0.5051 1.713,1.8385 1.2495,3.0163l-0.376,0.9553c-0.1324,0.3366 -0.1324,0.7108 0.0001,1.0475l0.3759,0.9551c0.4635,1.178 -0.0888,2.5113 -1.2494,3.0164l-0.9412,0.4096c-0.3317,0.1443 -0.5964,0.409 -0.7408,0.7408l-0.4096,0.9412c-0.505,1.1606 -1.8385,1.7129 -3.0163,1.2494l-0.9553,-0.376c-0.3366,-0.1324 -0.7108,-0.1324 -1.0475,0l-0.9551,0.376c-1.1779,0.4635 -2.5113,-0.0888 -3.0164,-1.2494l-0.4096,-0.9412c-0.1443,-0.3317 -0.409,-0.5964 -0.7408,-0.7408l-0.9412,-0.4096c-1.1606,-0.5051 -1.7129,-1.8384 -1.2494,-3.0163l0.3759,-0.9552c0.1325,-0.3367 0.1325,-0.711 0,-1.0476l-0.3759,-0.9551c-0.4635,-1.1779 0.0888,-2.5113 1.2494,-3.0164l0.9413,-0.4096c0.3317,-0.1444 0.5963,-0.409 0.7407,-0.7407l0.4096,-0.9412c0.5051,-1.1607 1.8385,-1.713 3.0164,-1.2495l0.9551,0.3759Zm-0.3662,0.9306l-0.9552,-0.3759c-0.6768,-0.2664 -1.4429,0.051 -1.7332,0.7179l-0.4096,0.9412c-0.2452,0.5636 -0.695,1.0134 -1.2586,1.2586l-0.9412,0.4096c-0.6669,0.2903 -0.9843,1.0565 -0.7179,1.7332l0.3759,0.9552c0.2251,0.572 0.2251,1.2079 0,1.78l-0.376,0.9552c-0.2663,0.6768 0.0511,1.4429 0.7179,1.7331l0.9413,0.4097c0.5636,0.2453 1.0134,0.695 1.2586,1.2586l0.4097,0.9413c0.2902,0.6668 1.0563,0.9841 1.7332,0.7178l0.9552,-0.3759c0.5719,-0.2251 1.2079,-0.225 1.7798,0l0.9553,0.376c0.6768,0.2662 1.443,-0.0511 1.7332,-0.7179l0.4096,-0.9413c0.2453,-0.5636 0.695,-1.0134 1.2586,-1.2586l0.9412,-0.4097c0.6669,-0.2902 0.9843,-1.0563 0.7179,-1.7332l-0.3759,-0.9552c-0.225,-0.572 -0.225,-1.2079 0,-1.7798l0.376,-0.9553c0.2663,-0.6768 -0.0511,-1.4429 -0.718,-1.7332l-0.9411,-0.4095c-0.5637,-0.2453 -1.0134,-0.6951 -1.2587,-1.2587l-0.4097,-0.9412c-0.2902,-0.6669 -1.0564,-0.9843 -1.7331,-0.7179l-0.9552,0.3759c-0.572,0.2251 -1.208,0.2251 -1.78,0Zm0.8857,1.5255c1.1046,0 2,0.8955 2,2c0,1.1046 -0.8954,2 -2,2c-1.1045,0 -2,-0.8954 -2,-2c0,-1.1045 0.8955,-2 2,-2Zm2.5,5c0.8285,0 1.5,0.6716 1.5,1.5c0,1.1161 -0.4589,2.0103 -1.2121,2.6148c-0.7413,0.595 -1.7348,0.8852 -2.7879,0.8852c-1.053,0 -2.0465,-0.2902 -2.7878,-0.8852c-0.7532,-0.6045 -1.2122,-1.4987 -1.2122,-2.6148c0,-0.8284 0.6716,-1.5 1.5,-1.5l5,0Z" fill="#212121"/>
</svg>
