<svg width="20" height="20" viewBox="0 0 20 20" fill="none" xmlns="http://www.w3.org/2000/svg">
<path d="M9.4762,2.5396c0.3366,0.1325 0.711,0.1325 1.0476,0l0.9551,-0.3759c1.1779,-0.4635 2.5114,0.0888 3.0164,1.2494l0.4096,0.9413c0.1444,0.3317 0.4091,0.5964 0.7408,0.7407l0.9411,0.4096c1.1607,0.5051 1.713,1.8385 1.2495,3.0163l-0.376,0.9553c-0.1324,0.3366 -0.1324,0.7108 0.0001,1.0475l0.3759,0.9551c0.4635,1.178 -0.0888,2.5113 -1.2494,3.0164l-0.9412,0.4096c-0.3317,0.1443 -0.5964,0.409 -0.7408,0.7408l-0.4096,0.9412c-0.505,1.1606 -1.8385,1.7129 -3.0163,1.2494l-0.9553,-0.376c-0.3366,-0.1324 -0.7108,-0.1324 -1.0475,0l-0.9551,0.376c-1.1779,0.4635 -2.5113,-0.0888 -3.0164,-1.2494l-0.4096,-0.9412c-0.1443,-0.3317 -0.409,-0.5964 -0.7408,-0.7408l-0.9412,-0.4096c-1.1606,-0.5051 -1.7129,-1.8384 -1.2494,-3.0163l0.3759,-0.9552c0.1325,-0.3367 0.1325,-0.711 0,-1.0476l-0.3759,-0.9551c-0.4635,-1.1779 0.0888,-2.5113 1.2494,-3.0164l0.9413,-0.4096c0.3317,-0.1444 0.5963,-0.409 0.7407,-0.7407l0.4096,-0.9412c0.5051,-1.1607 1.8385,-1.713 3.0164,-1.2495l0.9551,0.3759Zm0.5195,2.4561c-1.1045,0 -2,0.8955 -2,2c0,1.1046 0.8955,2 2,2c1.1046,0 2,-0.8954 2,-2c0,-1.1045 -0.8954,-2 -2,-2Zm2.5,5l-5,0c-0.8284,0 -1.5,0.6716 -1.5,1.5c0,1.1161 0.459,2.0103 1.2122,2.6148c0.7412,0.595 1.7347,0.8852 2.7878,0.8852c1.0531,0 2.0466,-0.2902 2.7879,-0.8852c0.7532,-0.6045 1.2121,-1.4987 1.2121,-2.6148c0,-0.8284 -0.6715,-1.5 -1.5,-1.5Z" fill="#212121"/>
</svg>
