<svg width="20" height="20" viewBox="0 0 20 20" fill="none" xmlns="http://www.w3.org/2000/svg">
<path d="M4,13.5v-0.5c0,-0.8284 0.6715,-1.5 1.5,-1.5h9c0.8285,0 1.5,0.6716 1.5,1.5v0.5c0,1.0142 -0.4431,1.9564 -1.2097,2.7167c-1.0817,1.0729 -2.8225,1.7833 -4.7903,1.7833c-1.9678,0 -3.7086,-0.7104 -4.7903,-1.7833c-0.7666,-0.7603 -1.2097,-1.7025 -1.2097,-2.7167zM15,13.5v-0.5c0,-0.2761 -0.2238,-0.5 -0.5,-0.5h-9.0001c-0.2761,0 -0.4999,0.2239 -0.4999,0.5v0.5c0,0.752 0.3455,1.443 0.9139,2.0067c0.9206,0.9132 2.4113,1.4933 4.0861,1.4933c1.6748,0 3.1655,-0.5801 4.0861,-1.4933c0.5684,-0.5637 0.9139,-1.2547 0.9139,-2.0067zM10,4.5c1.5178,0 2.75,1.2322 2.75,2.75c0,1.5178 -1.2322,2.75 -2.75,2.75c-1.5178,0 -2.75,-1.2322 -2.75,-2.75c0,-1.5178 1.2322,-2.75 2.75,-2.75zM10,5.5c-0.9659,0 -1.75,0.7841 -1.75,1.75c0,0.9659 0.7841,1.75 1.75,1.75c0.9659,0 1.75,-0.7841 1.75,-1.75c0,-0.9659 -0.7841,-1.75 -1.75,-1.75zM6.2565,9.2626c0.131,0.2429 0.0402,0.5465 -0.2027,0.6775c-0.2429,0.131 -0.5464,0.0401 -0.6774,-0.2027c-0.2298,-0.426 -0.4024,-0.8872 -0.5077,-1.3734c-0.0584,-0.2697 0.1132,-0.5361 0.3829,-0.5945c0.2697,-0.0584 0.5361,0.1132 0.5945,0.3829c0.0851,0.393 0.2247,0.7659 0.4104,1.1102zM5.9103,6.0903c-0.0752,0.2655 -0.3519,0.42 -0.6174,0.3448c-0.2655,-0.0753 -0.4199,-0.3519 -0.3447,-0.6174c0.1352,-0.4773 0.3363,-0.927 0.5928,-1.3386c0.1459,-0.2343 0.4545,-0.306 0.6887,-0.16c0.2342,0.1459 0.3059,0.4545 0.16,0.6887c-0.2074,0.3329 -0.37,0.6966 -0.4794,1.0825zM7.8716,3.5713c-0.2387,0.1385 -0.5449,0.0572 -0.6834,-0.1815c-0.1386,-0.2386 -0.0573,-0.5449 0.1814,-0.6834c0.4191,-0.2432 0.8748,-0.4301 1.3567,-0.5505c0.2677,-0.0668 0.5394,0.0963 0.6062,0.364c0.0669,0.2678 -0.0963,0.5394 -0.364,0.6063c-0.3897,0.0972 -0.7581,0.2484 -1.0969,0.4451zM11.0316,3.1262c-0.2677,-0.0669 -0.4308,-0.3385 -0.364,-0.6062c0.0669,-0.2678 0.3385,-0.4309 0.6062,-0.364c0.482,0.1203 0.9377,0.3072 1.3567,0.5505c0.2387,0.1385 0.32,0.4448 0.1814,0.6834c-0.1385,0.2387 -0.4447,0.32 -0.6834,0.1814c-0.3388,-0.1966 -0.7072,-0.3478 -1.0969,-0.4451zM13.6103,5.0079c-0.1459,-0.2342 -0.0742,-0.5428 0.1601,-0.6887c0.2342,-0.146 0.5428,-0.0742 0.6887,0.16c0.2565,0.4117 0.4575,0.8614 0.5927,1.3386c0.0753,0.2655 -0.0792,0.5422 -0.3447,0.6174c-0.2655,0.0752 -0.5422,-0.0793 -0.6174,-0.3448c-0.1093,-0.3859 -0.272,-0.7496 -0.4794,-1.0825zM14.1539,8.1525c0.0584,-0.2697 0.3248,-0.4413 0.5945,-0.3829c0.2697,0.0584 0.4412,0.3248 0.3828,0.5945c-0.1052,0.4862 -0.2778,0.9473 -0.5076,1.3733c-0.131,0.2428 -0.4345,0.3337 -0.6774,0.2027c-0.2429,-0.131 -0.3337,-0.4346 -0.2027,-0.6775c0.1857,-0.3443 0.3253,-0.7171 0.4104,-1.1101z" fill="#212121"/>
</svg>
