<svg width="20" height="20" viewBox="0 0 20 20" fill="none" xmlns="http://www.w3.org/2000/svg">
<path d="M14.2961,7.089l0.661,0.661h1.4179c0.8969,0 1.625,0.7281 1.625,1.625c0,0.8969 -0.7281,1.625 -1.625,1.625h-2.5466c-0.5732,0 -1.126,-0.1968 -1.5682,-0.5531l-0.5531,0.5531l1.1465,1.1464c0.0937,0.0938 0.1464,0.221 0.1464,0.3536v2.875c0,0.8969 -0.7281,1.625 -1.625,1.625c-0.8969,0 -1.625,-0.7281 -1.625,-1.625v-1.1679l-1.2807,-1.2807l-0.5929,0.4941c-0.4493,0.3745 -1.0156,0.5795 -1.6005,0.5795h-2.6509c-0.8969,0 -1.625,-0.7281 -1.625,-1.625c0,-0.8969 0.7281,-1.625 1.6207,-1.625l2.6733,-0.0231l0.4782,-0.4687c-0.4633,-0.2864 -0.7722,-0.799 -0.7722,-1.3832v-1.375c0,-1.3807 1.1193,-2.5 2.5,-2.5h2.2638c0.1245,-1.1243 1.0789,-2 2.2362,-2c1.2418,0 2.25,1.0082 2.25,2.25c0,0.7594 -0.377,1.4314 -0.9539,1.839zM7.9982,10.4569l-1.1482,1.1254c-0.0924,0.0905 -0.2163,0.1417 -0.3457,0.1429l-2.875,0.0248h-0.0043c-0.3449,0 -0.625,0.2801 -0.625,0.625c0,0.3449 0.2801,0.625 0.625,0.625h2.651c0.3508,0 0.6906,-0.123 0.9602,-0.3477l0.9437,-0.7864c0.1987,-0.1656 0.4908,-0.1523 0.6737,0.0305l1.75,1.75c0.0937,0.0938 0.1464,0.221 0.1464,0.3536v1.375c0,0.3449 0.2801,0.625 0.625,0.625c0.3449,0 0.625,-0.2801 0.625,-0.625v-2.6679l-1.3536,-1.3535c-0.1952,-0.1953 -0.1952,-0.5119 0,-0.7072l1.2501,-1.25c0.1951,-0.1951 0.512,-0.1951 0.7072,0l0.1603,0.1605c0.007,0.007 0.0136,0.0139 0.0177,0.0175c0.2799,0.2727 0.6554,0.4256 1.0467,0.4256h2.5466c0.3449,0 0.625,-0.2801 0.625,-0.625c0,-0.3449 -0.2801,-0.625 -0.625,-0.625h-1.625c-0.1326,0 -0.2598,-0.0527 -0.3536,-0.1464l-1.1203,-1.1204c-0.0905,0.0111 -0.1826,0.0168 -0.2761,0.0168c-0.9789,0 -1.8126,-0.6265 -2.1218,-1.5h-2.3783c-0.8283,0 -1.4999,0.6716 -1.4999,1.5v1.375c0,0.3449 0.2801,0.625 0.625,0.625c0.3449,0 0.625,-0.2801 0.625,-0.625v-1.125c0,-0.2761 0.2239,-0.5 0.5,-0.5h1.25c0.276,0 0.5,0.224 0.5,0.5c0,0.276 -0.224,0.5 -0.5,0.5h-0.75v0.625c0,0.7685 -0.5346,1.4131 -1.2518,1.5819zM13,4c-0.6899,0 -1.25,0.5601 -1.25,1.25c0,0.6899 0.5601,1.25 1.25,1.25c0.6899,0 1.25,-0.5601 1.25,-1.25c0,-0.6899 -0.5601,-1.25 -1.25,-1.25z" fill="#212121"/>
</svg>
