<svg width="20" height="20" viewBox="0 0 20 20" fill="none" xmlns="http://www.w3.org/2000/svg">
<path d="M4,13v-0.5c0,-0.8284 0.6715,-1.5 1.5,-1.5h9c0.8285,0 1.5,0.6716 1.5,1.5v0.5c0,1.0142 -0.4431,1.9564 -1.2097,2.7167c-1.0817,1.0729 -2.8225,1.7833 -4.7903,1.7833c-1.9678,0 -3.7086,-0.7104 -4.7903,-1.7833c-0.7666,-0.7603 -1.2097,-1.7025 -1.2097,-2.7167zM10,3c1.9317,0 3.5,1.5683 3.5,3.5c0,1.9317 -1.5683,3.5 -3.5,3.5c-1.9317,0 -3.5,-1.5683 -3.5,-3.5c0,-1.9317 1.5683,-3.5 3.5,-3.5zM16.4005,9.1996c0.1658,0.2206 0.1213,0.5343 -0.0993,0.7001c-0.2206,0.1658 -0.5343,0.1213 -0.7001,-0.0993c-0.6912,-0.9196 -1.1011,-2.0625 -1.1011,-3.3004c0,-1.2379 0.4099,-2.3808 1.1011,-3.3004c0.1658,-0.2206 0.4795,-0.2651 0.7001,-0.0993c0.2206,0.1658 0.2651,0.4795 0.0993,0.7001c-0.5654,0.7522 -0.9005,1.6871 -0.9005,2.6996c0,1.0125 0.3351,1.9474 0.9005,2.6996zM17.9164,7.8811c0.1528,0.2298 0.0902,0.5405 -0.1396,0.6932c-0.2298,0.1528 -0.5404,0.0903 -0.6932,-0.1395c-0.3686,-0.5544 -0.5836,-1.2197 -0.5836,-1.9348c0,-0.7151 0.215,-1.3804 0.5836,-1.9348c0.1528,-0.2298 0.4634,-0.2923 0.6932,-0.1395c0.2298,0.1527 0.2924,0.4634 0.1396,0.6932c-0.2632,0.3957 -0.4164,0.8707 -0.4164,1.3811c0,0.5104 0.1532,0.9854 0.4164,1.3811zM4.3989,9.8004c-0.1658,0.2206 -0.4795,0.2651 -0.7001,0.0993c-0.2206,-0.1658 -0.2651,-0.4795 -0.0993,-0.7001c0.5654,-0.7522 0.9005,-1.6871 0.9005,-2.6996c0,-1.0125 -0.3351,-1.9474 -0.9005,-2.6996c-0.1658,-0.2206 -0.1213,-0.5343 0.0993,-0.7001c0.2206,-0.1658 0.5343,-0.1213 0.7001,0.0993c0.6912,0.9196 1.1011,2.0625 1.1011,3.3004c0,1.2379 -0.4099,2.3808 -1.1011,3.3004zM2.9164,8.4348c-0.1528,0.2298 -0.4634,0.2923 -0.6932,0.1395c-0.2298,-0.1527 -0.2924,-0.4634 -0.1396,-0.6932c0.2632,-0.3957 0.4164,-0.8707 0.4164,-1.3811c0,-0.5104 -0.1532,-0.9854 -0.4164,-1.3811c-0.1528,-0.2298 -0.0902,-0.5405 0.1396,-0.6932c0.2298,-0.1528 0.5404,-0.0903 0.6932,0.1395c0.3686,0.5544 0.5836,1.2197 0.5836,1.9348c0,0.7151 -0.215,1.3804 -0.5836,1.9348z" fill="#212121"/>
</svg>
