<svg width="20" height="20" viewBox="0 0 20 20" fill="none" xmlns="http://www.w3.org/2000/svg">
<path d="M9,11.5l0,4c0,0.828 0.672,1.5 1.5,1.5l6,0c0.828,0 1.5,-0.672 1.5,-1.5l0,-4c0,-0.828 -0.672,-1.5 -1.5,-1.5l-6,0c-0.828,0 -1.5,0.672 -1.5,1.5Zm-1,3.5l0,-1l-3.5,0c-0.828,0 -1.5,-0.672 -1.5,-1.5l0,-7c0,-0.828 0.672,-1.5 1.5,-1.5l10,0c0.828,0 1.5,0.672 1.5,1.5l0,3.5l0.5,0c0.171,0 0.338,0.017 0.5,0.05l0,-3.55c0,-1.38 -1.12,-2.5 -2.5,-2.5l-10,0c-1.38,0 -2.5,1.12 -2.5,2.5l0,7c0,1.38 1.12,2.5 2.5,2.5l3.5,0Z" fill="#212121"/>
</svg>
