<svg width="20" height="20" viewBox="0 0 20 20" fill="none" xmlns="http://www.w3.org/2000/svg">
<path d="M9,15.5c0,0.8284 0.6716,1.5 1.5,1.5h6c0.8284,0 1.5,-0.6716 1.5,-1.5v-4c0,-0.8284 -0.6716,-1.5 -1.5,-1.5h-6c-0.8284,0 -1.5,0.6716 -1.5,1.5zM4.5,13c-0.8279,0 -1.5,-0.6721 -1.5,-1.5v-6c0,-0.8279 0.6721,-1.5 1.5,-1.5h9c0.8279,0 1.5,0.6721 1.5,1.5v3.5h1v-3.5c0,-1.3798 -1.1202,-2.5 -2.5,-2.5h-9c-1.3798,0 -2.5,1.1202 -2.5,2.5v6c0,1.3798 1.1202,2.5 2.5,2.5h3.5v-1zM4.6465,5.6465c-0.1954,0.1952 -0.1953,0.5118 -0.0001,0.707l2.1465,2.1465h-1.2929c-0.2761,0 -0.5,0.2239 -0.5,0.5c0,0.2761 0.2239,0.5 0.5,0.5h2.5c0.2761,0 0.5,-0.2239 0.5,-0.5v-2.5c0,-0.2761 -0.2239,-0.5 -0.5,-0.5c-0.2761,0 -0.5,0.2239 -0.5,0.5v1.2929l-2.1464,-2.1464c-0.1953,-0.1953 -0.5118,-0.1952 -0.7072,-0.0001z" fill="#212121"/>
</svg>
