<svg width="20" height="20" viewBox="0 0 20 20" fill="none" xmlns="http://www.w3.org/2000/svg">
<path d="M11,8.5v-4c0,-0.8284 -0.6716,-1.5 -1.5,-1.5h-6c-0.8284,0 -1.5,0.6716 -1.5,1.5v4c0,0.8284 0.6716,1.5 1.5,1.5h6c0.8284,0 1.5,-0.6716 1.5,-1.5zM12,8.5c0,1.3807 -1.1193,2.5 -2.5,2.5h-5.5v3.5c0,1.3798 1.1202,2.5 2.5,2.5h9c1.3798,0 2.5,-1.1202 2.5,-2.5v-6c0,-1.3798 -1.1202,-2.5 -2.5,-2.5h-3.5zM12.8536,11.1465l2.1464,2.1464v-1.2929c0,-0.2761 0.2239,-0.5 0.5,-0.5c0.2761,0 0.5,0.2239 0.5,0.5v2.5c0,0.2761 -0.2239,0.5 -0.5,0.5h-2.5c-0.2761,0 -0.5,-0.2239 -0.5,-0.5c0,-0.2761 0.2239,-0.5 0.5,-0.5h1.2929l-2.1464,-2.1464c-0.1953,-0.1953 -0.1953,-0.5119 0,-0.7071c0.1952,-0.1953 0.5118,-0.1953 0.7071,0z" fill="#212121"/>
</svg>
