<svg width="32" height="32" viewBox="0 0 32 32" xmlns="http://www.w3.org/2000/svg">
  <path d="M15,19.5c0,-1.933 1.567,-3.5 3.5,-3.5l8,0c1.933,0 3.5,1.567 3.5,3.5l0,5c0,1.933 -1.567,3.5 -3.5,3.5l-8,0c-1.933,0 -3.5,-1.567 -3.5,-3.5l0,-5Zm-1.475,5.5c-0.017,-0.165 -0.025,-0.331 -0.025,-0.5l0,-0.5l-7,0c-1.933,0 -3.5,-1.567 -3.5,-3.5l0,-12c0,-1.933 1.567,-3.5 3.5,-3.5l18,0c1.933,0 3.5,1.567 3.5,3.5l0,6.229c0.352,0.11 0.687,0.259 1,0.44l0,-6.669c0,-2.485 -2.015,-4.5 -4.5,-4.5l-18,0c-2.485,0 -4.5,2.015 -4.5,4.5l0,12c0,2.485 2.015,4.5 4.5,4.5l7.025,0Z" fill="#212121" />
</svg>