<svg width="20" height="20" viewBox="0 0 20 20" fill="none" xmlns="http://www.w3.org/2000/svg">
<path d="M10,2c-1.3807,0 -2.5,1.1193 -2.5,2.5c0,0.1882 0.0209,0.3718 0.0605,0.5484c-0.8932,0.2003 -1.5605,0.998 -1.5605,1.9516c0,0.5974 0.2619,1.1335 0.6771,1.5c-0.4152,0.3665 -0.6771,0.9026 -0.6771,1.5c0,1.1046 0.8954,2 2,2h1.5v3.5429l-2.6464,-2.6465c-0.1953,-0.1952 -0.5119,-0.1952 -0.7071,0c-0.1953,0.1953 -0.1953,0.5119 0,0.7072l3.3535,3.3535v0.5429c0,0.2761 0.2239,0.5 0.5,0.5c0.2761,0 0.5,-0.2239 0.5,-0.5v-0.5429l3.3536,-3.3535c0.1952,-0.1953 0.1952,-0.5119 0,-0.7072c-0.1953,-0.1952 -0.5119,-0.1952 -0.7072,0l-2.6464,2.6465v-3.5429h1.5c1.1046,0 2,-0.8954 2,-2c0,-0.5974 -0.2619,-1.1335 -0.6771,-1.5c0.4152,-0.3665 0.6771,-0.9026 0.6771,-1.5c0,-0.9536 -0.6673,-1.7513 -1.5605,-1.9516c0.0396,-0.1766 0.0605,-0.3602 0.0605,-0.5484c0,-1.3807 -1.1193,-2.5 -2.5,-2.5" fill="#212121"/>
</svg>
