<svg width="20" height="20" viewBox="0 0 20 20" fill="none" xmlns="http://www.w3.org/2000/svg">
<path d="M9.5,5.5h2.5c1.3798,0 2.5,1.1202 2.5,2.5v2.5h-1v-0.4645l-0.5073,0.5073c-1.2496,0.2132 -2.2367,1.2003 -2.4499,2.4499l-0.5073,0.5073h0.4645v1h-2.5c-1.3798,0 -2.5,-1.1202 -2.5,-2.5v-2.5h1v0.4645l0.5073,-0.5073c1.2496,-0.2132 2.2367,-1.2003 2.4499,-2.4499l0.5073,-0.5073h-0.4645zM12.6466,6.6463c-0.1959,-0.0938 -0.4151,-0.1463 -0.6466,-0.1463h-0.6213l-4.8787,4.8787v0.6213c0,0.2315 0.0525,0.4507 0.1463,0.6466zM13.5,8.6213v-0.6213c0,-0.2315 -0.0525,-0.4507 -0.1463,-0.6466l-6.0003,6.0003c0.1959,0.0938 0.4151,0.1463 0.6466,0.1463h0.6213zM8.5,4v2.5c0,1.1038 -0.8962,2 -2,2h-2.5c-1.1038,0 -2,-0.8962 -2,-2v-2.5c0,-1.1038 0.8962,-2 2,-2h2.5c1.1038,0 2,0.8962 2,2zM7.5,4c0,-0.5519 -0.4481,-1 -1,-1h-2.5c-0.5519,0 -1,0.4481 -1,1v2.5c0,0.5519 0.4481,1 1,1h2.5c0.5519,0 1,-0.4481 1,-1zM18,13.5v2.5c0,1.1038 -0.8962,2 -2,2h-2.5c-1.1038,0 -2,-0.8962 -2,-2v-2.5c0,-1.1038 0.8962,-2 2,-2h2.5c1.1038,0 2,0.8962 2,2zM17,13.5c0,-0.5519 -0.4481,-1 -1,-1h-2.5c-0.5519,0 -1,0.4481 -1,1v2.5c0,0.5519 0.4481,1 1,1h2.5c0.5519,0 1,-0.4481 1,-1z" fill="#212121"/>
</svg>
