<svg width="20" height="20" viewBox="0 0 20 20" fill="none" xmlns="http://www.w3.org/2000/svg">
<path d="M9.5,5.5h2.5c1.3798,0 2.5,1.1202 2.5,2.5v2.5h-1c-1.6557,0 -3,1.3443 -3,3v1h-2.5c-1.3798,0 -2.5,-1.1202 -2.5,-2.5v-2.5h1c1.6557,0 3,-1.3443 3,-3zM8.5,4v2.5c0,1.1038 -0.8962,2 -2,2h-2.5c-1.1038,0 -2,-0.8962 -2,-2v-2.5c0,-1.1038 0.8962,-2 2,-2h2.5c1.1038,0 2,0.8962 2,2zM7.5,4c0,-0.5519 -0.4481,-1 -1,-1h-2.5c-0.5519,0 -1,0.4481 -1,1v2.5c0,0.5519 0.4481,1 1,1h2.5c0.5519,0 1,-0.4481 1,-1zM18,13.5v2.5c0,1.1038 -0.8962,2 -2,2h-2.5c-1.1038,0 -2,-0.8962 -2,-2v-2.5c0,-1.1038 0.8962,-2 2,-2h2.5c1.1038,0 2,0.8962 2,2zM17,13.5c0,-0.5519 -0.4481,-1 -1,-1h-2.5c-0.5519,0 -1,0.4481 -1,1v2.5c0,0.5519 0.4481,1 1,1h2.5c0.5519,0 1,-0.4481 1,-1z" fill="#212121"/>
</svg>
