<svg width="20" height="20" viewBox="0 0 20 20" fill="none" xmlns="http://www.w3.org/2000/svg">
<path d="M10.75,2.75c0,-0.4142 -0.3358,-0.75 -0.75,-0.75c-0.4142,0 -0.75,0.3358 -0.75,0.75v5.75c0,0.4142 0.3358,0.75 0.75,0.75c0.4142,0 0.75,-0.3358 0.75,-0.75zM13.7432,4.0009c-0.3589,-0.2067 -0.8175,-0.0833 -1.0242,0.2756c-0.2068,0.3589 -0.0834,0.8175 0.2756,1.0242c1.1447,0.6594 2.0399,1.6781 2.5466,2.8981c0.5066,1.2201 0.5965,2.5733 0.2556,3.8496c-0.3409,1.2763 -1.0936,2.4044 -2.1411,3.2094c-1.0476,0.8049 -2.3315,1.2415 -3.6526,1.2422c-1.321,0.0007 -2.6054,-0.4346 -3.6538,-1.2384c-1.0484,-0.8038 -1.8022,-1.9312 -2.1445,-3.2071c-0.3422,-1.276 -0.2538,-2.6293 0.2516,-3.8498c0.5054,-1.2206 1.3995,-2.2403 2.5436,-2.9008c0.3587,-0.2071 0.4816,-0.6658 0.2745,-1.0246c-0.2071,-0.3587 -0.6658,-0.4816 -1.0245,-0.2745c-1.4301,0.8257 -2.5477,2.1003 -3.1795,3.626c-0.6317,1.5257 -0.7423,3.2173 -0.3144,4.8123c0.4278,1.5949 1.37,3.0041 2.6805,4.0089c1.3105,1.0047 2.916,1.5489 4.5673,1.548c1.6514,-0.0008 3.2563,-0.5467 4.5657,-1.5528c1.3094,-1.0061 2.2502,-2.4163 2.6764,-4.0117c0.4261,-1.5954 0.3138,-3.2869 -0.3195,-4.8119c-0.6334,-1.5251 -1.7523,-2.7985 -3.1833,-3.6227z" fill="#212121"/>
</svg>
