<svg width="20" height="20" viewBox="0 0 20 20" fill="none" xmlns="http://www.w3.org/2000/svg">
<path d="M14.2831,10.949c-0.2087,0.2588 -0.4405,0.4984 -0.6921,0.7156l1.1462,3.7973c0.2067,0.6847 -0.1036,1.461 -0.8149,1.7488c-3.3185,1.3428 -6.3318,0.7187 -7.9696,-0.0092c-0.6631,-0.2948 -0.9097,-1.0192 -0.7395,-1.6396l1.0941,-3.9873c-1.1098,-1.0065 -1.8073,-2.4597 -1.8073,-4.0746c0,-3.0355 2.4645,-5.5 5.5,-5.5c0.8998,0 1.7494,0.2165 2.4995,0.6003c-0.0059,0.4534 -0.0625,0.7977 -0.1565,1.0578c-0.6827,-0.4174 -1.485,-0.6581 -2.343,-0.6581c-2.4836,0 -4.5,2.0164 -4.5,4.5c0,2.4836 2.0164,4.5 4.5,4.5c1.226,0 2.3382,-0.4913 3.1501,-1.2877c0.2414,0.166 0.5341,0.2633 0.8499,0.2633c0.0968,0 0.1915,-0.0092 0.2831,-0.0266zM12.731,12.2742c-0.8049,0.4617 -1.7373,0.7258 -2.731,0.7258c-1.0354,0 -2.0044,-0.2868 -2.8319,-0.7851l-0.9901,3.6085c-0.062,0.2259 0.0404,0.4074 0.183,0.4708c1.4454,0.6424 4.1706,1.2154 7.1843,-0.004c0.1893,-0.0766 0.3068,-0.3017 0.2341,-0.5427zM14,2.0244c0.2761,0 0.5,0.2225 0.5,0.497c0,0.4628 0.0728,1.219 0.4724,1.8461c0.3748,0.5882 1.0824,1.1355 2.5276,1.1355c0.2761,0 0.5,0.2225 0.5,0.497c0,0.2745 -0.2239,0.4969 -0.5,0.4969c-0.3687,0 -1.1395,0.2232 -1.8208,0.7423c-0.6626,0.5049 -1.1792,1.2415 -1.1792,2.2394c0,0.2745 -0.2239,0.497 -0.5,0.497c-0.2761,0 -0.5,-0.2225 -0.5,-0.497c0,-0.5002 -0.1551,-1.2616 -0.6058,-1.8837c-0.4323,-0.5968 -1.1572,-1.098 -2.3942,-1.098c-0.2761,0 -0.5,-0.2224 -0.5,-0.4969c0,-0.2745 0.2239,-0.497 0.5,-0.497c0.5117,0 1.2548,-0.0086 1.8731,-0.3671c0.5638,-0.3269 1.1269,-1.011 1.1269,-2.6145c0,-0.2745 0.2239,-0.497 0.5,-0.497zM14.0407,4.7552c-0.2888,0.5673 -0.695,0.9675 -1.1638,1.2392c-0.0544,0.0316 -0.1093,0.0611 -0.1645,0.0889c0.4081,0.2542 0.7361,0.5756 0.9934,0.9308c0.1297,0.1791 0.2405,0.3653 0.3345,0.5538c0.2802,-0.4514 0.6443,-0.8232 1.0305,-1.1175c0.1567,-0.1194 0.3194,-0.2278 0.4843,-0.3251c-0.647,-0.2898 -1.1089,-0.726 -1.4275,-1.226c-0.0304,-0.0477 -0.0593,-0.0958 -0.0869,-0.1441z" fill="#212121"/>
</svg>
