<svg width="20" height="20" viewBox="0 0 20 20" fill="none" xmlns="http://www.w3.org/2000/svg">
<path d="M6.0164,12.6351c1.1006,0.8554 2.4831,1.3649 3.9836,1.3649c1.464,0 2.8156,-0.485 3.9027,-1.303l0.8346,2.7649c0.2067,0.6847 -0.1037,1.461 -0.8149,1.7488c-3.3186,1.3428 -6.3319,0.7187 -7.9696,-0.0092c-0.6631,-0.2948 -0.9098,-1.0192 -0.7395,-1.6396zM14.2831,10.949c-1.0085,1.2505 -2.5531,2.051 -4.2831,2.051c-3.0355,0 -5.5,-2.4645 -5.5,-5.5c0,-3.0355 2.4645,-5.5 5.5,-5.5c0.8998,0 1.7494,0.2165 2.4995,0.6003c-0.0128,0.9928 -0.2692,1.4625 -0.6279,1.6705c-0.4507,0.2612 -0.9987,0.2323 -1.3716,0.2323c-0.83,0 -1.5,0.6718 -1.5,1.4969c0,0.825 0.67,1.497 1.5,1.497c0.8106,0 1.3011,0.2935 1.5844,0.6845c0.3102,0.4282 0.4156,0.9528 0.4156,1.2971c0,0.8251 0.67,1.497 1.5,1.497c0.0968,0 0.1915,-0.0092 0.2831,-0.0266zM14,2.0244c0.2761,0 0.5,0.2225 0.5,0.497c0,0.4628 0.0728,1.219 0.4724,1.8461c0.3748,0.5882 1.0824,1.1356 2.5276,1.1356c0.2761,0 0.5,0.2224 0.5,0.4969c0,0.2745 -0.2239,0.497 -0.5,0.497c-0.3687,0 -1.1395,0.2231 -1.8208,0.7422c-0.6626,0.5049 -1.1792,1.2415 -1.1792,2.2394c0,0.2745 -0.2239,0.497 -0.5,0.497c-0.2761,0 -0.5,-0.2225 -0.5,-0.497c0,-0.5002 -0.1551,-1.2616 -0.6058,-1.8837c-0.4323,-0.5968 -1.1572,-1.0979 -2.3942,-1.0979c-0.2761,0 -0.5,-0.2225 -0.5,-0.497c0,-0.2745 0.2239,-0.4969 0.5,-0.4969c0.5117,0 1.2548,-0.0087 1.8731,-0.3672c0.5638,-0.3269 1.1269,-1.011 1.1269,-2.6145c0,-0.2745 0.2239,-0.497 0.5,-0.497z" fill="#212121"/>
</svg>
