<svg width="20" height="20" viewBox="0 0 20 20" fill="none" xmlns="http://www.w3.org/2000/svg">
<path d="M8.4146,14.4138c-0.7805,0.7805 -2.0479,0.7805 -2.8284,0l-3.0004,-2.9996c-0.7805,-0.7805 -0.7805,-2.0479 0,-2.8284l2.9996,-3.0004c0.7805,-0.7805 2.0479,-0.7805 2.8284,0l3.0008,3c0.7805,0.7805 0.7805,2.0479 0,2.8284zM7.7075,13.7067l3,-3c0.3903,-0.3902 0.3903,-1.0239 0,-1.4142l-3.0007,-3c-0.3903,-0.3902 -1.024,-0.3903 -1.4143,0l-2.9996,3.0003c-0.3902,0.3903 -0.3903,1.024 0,1.4143l3.0003,2.9996c0.3903,0.3902 1.024,0.3903 1.4143,0zM10.7072,6.4642l0.8778,-0.878c0.7805,-0.7805 2.0479,-0.7805 2.8284,0l3.0008,3c0.7805,0.7805 0.7805,2.0479 0,2.8284l-3,3c-0.7805,0.7805 -2.0479,0.7805 -2.8284,0l-0.879,-0.8788l0.7071,-0.7071l0.8789,0.8788c0.3903,0.3902 1.024,0.3903 1.4143,0l3,-3c0.3903,-0.3903 0.3903,-1.0239 0,-1.4142l-3.0007,-3c-0.3903,-0.3902 -1.024,-0.3903 -1.4143,0l-0.8777,0.8779z" fill="#212121"/>
</svg>
