<svg width="20" height="20" viewBox="0 0 20 20" fill="none" xmlns="http://www.w3.org/2000/svg">
<path d="M8.4146,14.4138c-0.7805,0.7805 -2.0479,0.7805 -2.8284,0l-3.0004,-2.9996c-0.7805,-0.7805 -0.7805,-2.0479 0,-2.8284l2.9996,-3.0004c0.7805,-0.7805 2.0479,-0.7805 2.8284,0l3.0008,3c0.7805,0.7805 0.7805,2.0479 0,2.8284zM10.7072,6.4642l0.8778,-0.878c0.7805,-0.7805 2.0479,-0.7805 2.8284,0l3.0008,3c0.7805,0.7805 0.7805,2.0479 0,2.8284l-3,3c-0.7805,0.7805 -2.0479,0.7805 -2.8284,0l-0.879,-0.8788l1.4149,-1.4149c1.1708,-1.1708 1.1708,-3.0718 0,-4.2426z" fill="#212121"/>
</svg>
