<svg width="20" height="20" viewBox="0 0 20 20" fill="none" xmlns="http://www.w3.org/2000/svg">
<path d="M11.5916,2.391c0.1983,-0.3636 0.6539,-0.4976 1.0175,-0.2993c1.9541,1.0658 4.8492,3.242 5.3862,8.0754c0.0458,0.4117 -0.2509,0.7825 -0.6625,0.8282c-0.4117,0.0458 -0.7825,-0.2509 -0.8283,-0.6625c-0.4629,-4.1664 -2.901,-5.9901 -4.6136,-6.9243c-0.3637,-0.1983 -0.4976,-0.6539 -0.2993,-1.0175zM8.6943,4.2161l4.4999,10.9998c0.1569,0.3833 -0.0268,0.8212 -0.4102,0.9781c-0.3833,0.1568 -0.8213,-0.0268 -0.9781,-0.4102l-1.4457,-3.5339h-4.7202l-1.4457,3.5339c-0.1568,0.3834 -0.5947,0.567 -0.9781,0.4102c-0.3834,-0.1569 -0.567,-0.5948 -0.4102,-0.9781l4.5,-10.9998c0.1153,-0.2819 0.3896,-0.466 0.6941,-0.466c0.3046,0 0.5789,0.1841 0.6942,0.466zM9.7466,10.7499l-1.7465,-4.2691l-1.7464,4.2691zM12.1221,4.5989c1.9767,1.1295 3.092,3.097 3.3703,5.045c0.0586,0.41 -0.2263,0.7899 -0.6364,0.8485c-0.41,0.0586 -0.7899,-0.2263 -0.8485,-0.6364c-0.2217,-1.5519 -1.1064,-3.0844 -2.6296,-3.9548c-0.3596,-0.2055 -0.4846,-0.6636 -0.2791,-1.0232c0.2055,-0.3597 0.6637,-0.4846 1.0233,-0.2791z" fill="#212121"/>
</svg>
