<svg width="20" height="20" viewBox="0 0 20 20" fill="none" xmlns="http://www.w3.org/2000/svg">
<path d="M12.3088,6.4989l-1.4428,-2.4989c-0.1786,-0.3094 -0.5087,-0.5 -0.866,-0.5c-0.3573,0 -0.6874,0.1906 -0.866,0.5l-1.2231,2.1184c-0.207,0.3585 -0.666,0.4815 -1.0245,0.2745c-0.3585,-0.2069 -0.4815,-0.666 -0.2745,-1.0245l1.223,-2.1184c0.4466,-0.7735 1.2719,-1.25 2.1651,-1.25c0.8932,0 1.7185,0.4765 2.1651,1.25l1.4427,2.4989l0.2634,-0.9831c0.1072,-0.3998 0.5188,-0.6374 0.9186,-0.5303c0.3998,0.1071 0.6375,0.5187 0.5303,0.9186l-0.732,2.732c-0.1072,0.4001 -0.5185,0.6375 -0.9186,0.5303l-2.732,-0.732c-0.3999,-0.1072 -0.6375,-0.5187 -0.5304,-0.9186c0.1072,-0.3998 0.5188,-0.6374 0.9186,-0.5303zM12.3107,16l0.7196,0.7197c0.2927,0.2927 0.2927,0.7679 0,1.0606c-0.2927,0.2927 -0.7679,0.2927 -1.0606,0l-2,-2c-0.2929,-0.2929 -0.2929,-0.7677 0,-1.0606l2,-2c0.2927,-0.2927 0.7679,-0.2927 1.0606,0c0.2927,0.2927 0.2927,0.7679 0,1.0606l-0.7196,0.7197h2.8855c0.3572,0 0.6874,-0.1906 0.866,-0.5c0.1786,-0.3094 0.1786,-0.6906 0,-1l-1.2231,-2.1184c-0.207,-0.3585 -0.084,-0.8176 0.2745,-1.0245c0.3585,-0.207 0.8176,-0.084 1.0245,0.2745l1.2231,2.1184c0.4466,0.7735 0.4466,1.7265 0,2.5c-0.4466,0.7735 -1.2719,1.25 -2.165,1.25zM4.0815,9.7511l-0.9831,0.2634c-0.3998,0.1071 -0.8114,-0.1305 -0.9185,-0.5303c-0.1072,-0.3999 0.1305,-0.8114 0.5303,-0.9186l2.7321,-0.732c0.4001,-0.1072 0.8113,0.1302 0.9185,0.5303l0.7321,2.732c0.1071,0.3999 -0.1305,0.8115 -0.5304,0.9186c-0.3998,0.1071 -0.8114,-0.1305 -0.9185,-0.5303l-0.2634,-0.9831l-1.4428,2.4989c-0.1786,0.3094 -0.1786,0.6906 0,1c0.1787,0.3094 0.5088,0.5 0.866,0.5h2.4462c0.4139,0 0.75,0.3361 0.75,0.75c0,0.4139 -0.3361,0.75 -0.75,0.75h-2.4461c-0.8932,0 -1.7185,-0.4765 -2.1651,-1.25c-0.4466,-0.7735 -0.4466,-1.7265 0,-2.5z" fill="#212121"/>
</svg>
