<svg width="20" height="20" viewBox="0 0 20 20" fill="none" xmlns="http://www.w3.org/2000/svg">
<path d="M16.7197,15.2803l-5.75,-6.25c-0.2929,-0.2929 -0.2929,-0.7677 0,-1.0606l5.75,-5.75c0.2929,-0.2929 0.7677,-0.2929 1.0606,0c0.2929,0.2929 0.2929,0.7677 0,1.0606l-5.2196,5.2197l5.2196,5.7197c0.2929,0.2929 0.2929,0.7677 0,1.0606c-0.2929,0.2929 -0.7677,0.2929 -1.0606,0zM3.2803,5.2197l5.75,5.75c0.2929,0.2929 0.2929,0.7677 0,1.0606l-5.75,5.75c-0.2929,0.2929 -0.7677,0.2929 -1.0606,0c-0.2929,-0.2929 -0.2929,-0.7677 0,-1.0606l5.2196,-5.2197l-5.2196,-5.2197c-0.2929,-0.2929 -0.2929,-0.7677 0,-1.0606c0.2929,-0.2929 0.7677,-0.2929 1.0606,0z" fill="#212121"/>
</svg>
