<svg width="20" height="20" viewBox="0 0 20 20" fill="none" xmlns="http://www.w3.org/2000/svg">
<path d="M16.1452,12.4628c-0.6045,-0.1914 -1.0391,-0.4795 -1.2734,-0.8252l-2.6122,-4.4918c0.0208,-0.0032 0.0416,-0.0018 0.0624,-0.0052c0.2725,-0.0449 0.4561,-0.3027 0.4111,-0.5752c-0.0459,-0.2725 -0.2969,-0.4604 -0.5752,-0.4111c-2.2349,0.3695 -4.2847,-1.0577 -4.6631,-3.1168c-0.0498,-0.271 -0.3096,-0.4512 -0.582,-0.4014c-0.2657,0.0488 -0.4403,0.3 -0.4011,0.5651c-1.3515,0.4581 -2.3282,1.1985 -2.8977,2.2079c-0.522,0.9248 -0.6006,1.8686 -0.6123,2.5083l-0.647,0.8091c-0.2607,0.3262 -0.374,0.75 -0.311,1.1631c0.063,0.4126 0.2974,0.7832 0.6436,1.0166l7.5146,5.0713c0.9951,0.6689 2.1543,1.0225 3.3516,1.0225h2.0205c1.1992,0 2.2305,-0.8398 2.4004,-1.9541c0.2001,-1.3126 -0.8077,-2.2589 -1.8292,-2.5831zM15.5739,15.9999h-2.0205c-0.998,0 -1.9639,-0.2949 -2.793,-0.8516l-7.5137,-5.0708c-0.1171,-0.0791 -0.1933,-0.1992 -0.2143,-0.3388c-0.0215,-0.1397 0.0152,-0.2779 0.1035,-0.3877l0.288,-0.3602l7.8932,5.3265c0.665,0.4463 1.4375,0.6826 2.2363,0.6826h3.3942c-0.146,0.5739 -0.7069,1 -1.3737,1zM11.6716,10.412c0.167,0.2891 0.2109,0.627 0.124,0.9492c-0.0869,0.3222 -0.2939,0.5918 -0.584,0.7578l-0.7355,0.4246l-3.2272,-2.178l2.2147,-1.2787c0.5962,-0.3457 1.3633,-0.1396 1.708,0.458zM6.3269,9.7432l-2.3277,-1.571l0.002,-0.2197c0.0083,-0.5278 0.0674,-1.3145 0.4839,-2.0522c0.2461,-0.436 0.6102,-0.8034 1.0647,-1.1146l1.7161,2.9716c0.167,0.2891 0.2114,0.626 0.125,0.9487c-0.0864,0.3227 -0.2935,0.5922 -0.5826,0.7592z" fill="#212121"/>
</svg>
