<svg width="20" height="20" viewBox="0 0 20 20" fill="none" xmlns="http://www.w3.org/2000/svg">
<path d="M18,4v1.5c0,0.5523 -0.4477,1 -1,1h-2v9.5c0,1.1038 -0.8962,2 -2,2h-9.1c-1.0314,0 -1.9,-0.7831 -1.9,-1.85v-2.15c0,-0.5523 0.4477,-1 1,-1h1v-9c0,-1.1046 0.8954,-2 2,-2h10c1.1038,0 2,0.8962 2,2zM14,4c0,-0.3642 0.0975,-0.7058 0.2679,-1h-8.2679c-0.5523,0 -1,0.4477 -1,1v9h6c0.5523,0 1,0.4477 1,1v2c0,0.5523 0.4477,1 1,1c0.5523,0 1,-0.4477 1,-1zM3,14v2.125c0,0.4916 0.3954,0.875 0.9167,0.875h7.3509c-0.1702,-0.2942 -0.2676,-0.6357 -0.2676,-1v-2zM17,5.5v-1.5c0,-0.5519 -0.4481,-1 -1,-1c-0.5519,0 -1,0.4481 -1,1v1.5z" fill="#212121"/>
</svg>
