<svg width="20" height="20" viewBox="0 0 20 20" fill="none" xmlns="http://www.w3.org/2000/svg">
<path d="M12,16.5704v-2.0704c0,-0.4142 -0.4477,-1 -1,-1h-7v-9.5c0,-1.1046 0.8954,-2 2,-2h10.2l0.05,0.0006c0.1196,0.0029 0.2366,0.0164 0.35,0.0394c-0.8813,0.1789 -1.5521,0.9372 -1.5975,1.86h-0.0025v12.6907c-0.0109,0.819 -0.6784,1.4093 -1.5,1.4093c-0.8285,0 -1.5,-0.6013 -1.5,-1.4296zM17,6.5h-1v-2.5c0,-0.5523 0.4477,-1 1,-1c0.5523,0 1,0.4477 1,1v1.5c0,0.5523 -0.4477,1 -1,1zM11,14.5v2.0704c0,0.5446 0.169,1.0347 0.4581,1.4296h-7.8748c-0.8594,0 -1.5833,-0.6526 -1.5833,-1.5417v-1.4583c0,-0.2761 0.2239,-0.5 0.5,-0.5z" fill="#212121"/>
</svg>
