<svg width="20" height="20" viewBox="0 0 20 20" fill="none" xmlns="http://www.w3.org/2000/svg">
<path d="M13.5352 14.5961C12.4267 15.4751 11.0246 16 9.5 16C5.91015 16 3 13.0899 3 9.5C3 5.91015 5.91015 3 9.5 3C13.0899 3 16 5.91015 16 9.5C16 11.0247 15.475 12.4268 14.596 13.5353L17.78033 16.71967A.75 .75 180 0 1 16.71967 17.78033L13.5352 14.5961ZM14.5 9.5C14.5 6.73858 12.2614 4.5 9.5 4.5C6.73858 4.5 4.5 6.73858 4.5 9.5C4.5 12.2614 6.73858 14.5 9.5 14.5C12.2614 14.5 14.5 12.2614 14.5 9.5Z" fill="#212121"/>
</svg>
