<svg width="20" height="20" viewBox="0 0 20 20" fill="none" xmlns="http://www.w3.org/2000/svg">
<path d="M2.3868,7.5366c0.3476,-1.0749 0.9202,-2.0617 1.6757,-2.8979c0.1357,-0.1502 0.3486,-0.2038 0.5393,-0.1356l1.7984,0.643c0.4713,0.1684 0.9899,-0.0771 1.1583,-0.5484c0.0166,-0.0463 0.0294,-0.094 0.0382,-0.1424l0.3426,-1.8805c0.0363,-0.1995 0.1895,-0.3573 0.3878,-0.3995c0.5461,-0.1162 1.1059,-0.1753 1.6732,-0.1753c0.5669,0 1.1264,0.059 1.6721,0.1751c0.1982,0.0422 0.3514,0.1998 0.3878,0.3992l0.3437,1.8811c0.0897,0.4922 0.5617,0.8186 1.054,0.7289c0.0485,-0.0089 0.0962,-0.0217 0.1425,-0.0382l1.7983,-0.643c0.1907,-0.0682 0.4036,-0.0146 0.5394,0.1356c0.7554,0.8363 1.328,1.823 1.6756,2.8979c0.0623,0.1927 0.0022,0.4039 -0.1522,0.535l-1.4577,1.2376c-0.3815,0.3239 -0.428,0.8959 -0.1042,1.2774c0.0319,0.0375 0.0669,0.0724 0.1044,0.1043l1.4576,1.2375c0.1544,0.1311 0.2144,0.3423 0.1521,0.535c-0.3475,1.0749 -0.9202,2.0616 -1.6756,2.8978c-0.1357,0.1503 -0.3487,0.2038 -0.5393,0.1357l-1.7985,-0.643c-0.4712,-0.1684 -0.9898,0.0774 -1.1584,0.5484c-0.0164,0.0463 -0.0293,0.0941 -0.0382,0.1426l-0.3434,1.8807c-0.0365,0.1994 -0.1896,0.357 -0.3878,0.3992c-0.5457,0.1162 -1.1053,0.1752 -1.6722,0.1752c-0.5673,0 -1.1271,-0.0591 -1.6732,-0.1753c-0.1983,-0.0422 -0.3515,-0.2 -0.3878,-0.3995l-0.3426,-1.8805c-0.0898,-0.4924 -0.5618,-0.8187 -1.0541,-0.729c-0.0484,0.0088 -0.0963,0.0217 -0.1425,0.0383l-1.7983,0.6429c-0.1907,0.0682 -0.4036,0.0146 -0.5394,-0.1356c-0.7554,-0.8362 -1.3281,-1.8229 -1.6756,-2.8979c-0.0623,-0.1927 -0.0022,-0.4039 0.1521,-0.535l1.4578,-1.2376c0.3814,-0.324 0.4281,-0.8958 0.1042,-1.2774c-0.0319,-0.0375 -0.0667,-0.0723 -0.1043,-0.1042l-1.4576,-1.2376c-0.1544,-0.1311 -0.2145,-0.3423 -0.1522,-0.535zM8.0003,10c0,1.1046 0.8954,2 2,2c1.1045,0 2,-0.8954 2,-2c0,-1.1046 -0.8955,-2 -2,-2c-1.1046,0 -2,0.8954 -2,2z" fill="#212121"/>
</svg>
