<svg width="20" height="20" viewBox="0 0 20 20" fill="none" xmlns="http://www.w3.org/2000/svg">
<path d="M3.127,11.482c-0.451,-0.529 -0.809,-1.141 -1.046,-1.81c-0.068,-0.19 -0.014,-0.402 0.136,-0.538l1.225,-1.106c0.164,-0.148 0.164,-0.408 -0,-0.557l-1.225,-1.105c-0.15,-0.136 -0.203,-0.348 -0.136,-0.538c0.237,-0.669 0.595,-1.281 1.046,-1.809c0.132,-0.154 0.342,-0.213 0.535,-0.151l1.568,0.507c0.211,0.068 0.436,-0.061 0.482,-0.278l0.345,-1.613c0.043,-0.198 0.2,-0.35 0.399,-0.387c0.337,-0.062 0.686,-0.097 1.044,-0.097c0.358,0 0.708,0.035 1.045,0.097c0.199,0.036 0.356,0.189 0.398,0.387l0.345,1.613c0.047,0.217 0.271,0.346 0.482,0.278l1.569,-0.508c0.192,-0.062 0.403,-0.002 0.534,0.151c0.451,0.529 0.809,1.141 1.046,1.81c0.068,0.19 0.014,0.402 -0.136,0.538l-1.225,1.106c-0.164,0.148 -0.164,0.408 0,0.557l1.225,1.105c0.15,0.136 0.203,0.348 0.136,0.538c-0.237,0.669 -0.595,1.281 -1.046,1.809c-0.132,0.154 -0.342,0.213 -0.535,0.151l-1.568,-0.507c-0.211,-0.068 -0.436,0.061 -0.482,0.278l-0.345,1.613c-0.043,0.198 -0.2,0.35 -0.399,0.387c-0.337,0.062 -0.686,0.097 -1.044,0.097c-0.358,-0 -0.708,-0.035 -1.045,-0.097c-0.199,-0.036 -0.356,-0.189 -0.398,-0.387l-0.345,-1.613c-0.047,-0.217 -0.271,-0.346 -0.482,-0.278l-1.569,0.508c-0.192,0.062 -0.403,0.002 -0.534,-0.151Zm0.555,-0.907l1.24,-0.402c0.776,-0.25 1.597,0.225 1.768,1.021l0.273,1.275c0.176,0.02 0.355,0.031 0.537,0.031c0.182,-0 0.361,-0.011 0.537,-0.032l0.273,-1.274c0.17,-0.795 0.992,-1.27 1.767,-1.021l1.24,0.401c0.213,-0.287 0.394,-0.598 0.538,-0.93l-0.968,-0.874c-0.602,-0.545 -0.602,-1.495 0,-2.04l0.969,-0.875c-0.145,-0.331 -0.326,-0.643 -0.538,-0.93l-1.24,0.402c-0.776,0.25 -1.597,-0.225 -1.768,-1.021l-0.273,-1.275c-0.176,-0.02 -0.355,-0.031 -0.537,-0.031c-0.182,0 -0.361,0.011 -0.537,0.032l-0.273,1.274c-0.17,0.795 -0.992,1.27 -1.767,1.021l-1.24,-0.401c-0.213,0.287 -0.394,0.598 -0.538,0.93l0.968,0.874c0.602,0.545 0.602,1.495 -0,2.04l-0.969,0.875c0.145,0.331 0.326,0.643 0.538,0.93Zm3.818,-4.825c1.105,0 2,0.895 2,2c0,1.105 -0.895,2 -2,2c-1.104,-0 -2,-0.896 -2,-2c0,-1.104 0.896,-2 2,-2Zm0,1c-0.552,0 -1,0.448 -1,1c0,0.552 0.448,1 1,1c0.552,-0 1,-0.448 1,-1c0,-0.552 -0.448,-1 -1,-1ZM14.5,11c0.129,0 0.257,0.007 0.382,0.02c0.174,0.02 0.31,0.155 0.347,0.327l0.193,0.906c0.055,0.253 0.316,0.404 0.563,0.324l0.88,-0.285c0.167,-0.054 0.352,-0.004 0.456,0.137c0.15,0.205 0.279,0.427 0.383,0.662c0.07,0.161 0.021,0.346 -0.109,0.463l-0.688,0.621c-0.192,0.174 -0.192,0.476 0,0.65l0.688,0.62c0.13,0.117 0.179,0.302 0.109,0.463c-0.104,0.235 -0.233,0.457 -0.383,0.662c-0.104,0.142 -0.29,0.191 -0.456,0.137l-0.88,-0.284c-0.247,-0.08 -0.508,0.071 -0.563,0.324l-0.193,0.905c-0.037,0.172 -0.172,0.307 -0.347,0.327c-0.125,0.014 -0.253,0.021 -0.382,0.021c-0.129,-0 -0.257,-0.007 -0.382,-0.021c-0.175,-0.02 -0.31,-0.155 -0.347,-0.327l-0.193,-0.905c-0.055,-0.253 -0.316,-0.404 -0.563,-0.324l-0.88,0.284c-0.166,0.054 -0.352,0.005 -0.456,-0.137c-0.15,-0.205 -0.279,-0.427 -0.383,-0.662c-0.07,-0.161 -0.021,-0.346 0.109,-0.463l0.688,-0.62c0.192,-0.174 0.192,-0.476 -0,-0.65l-0.688,-0.621c-0.13,-0.117 -0.179,-0.302 -0.109,-0.463c0.104,-0.235 0.233,-0.457 0.383,-0.662c0.104,-0.141 0.289,-0.191 0.456,-0.137l0.88,0.285c0.247,0.08 0.508,-0.071 0.563,-0.324l0.193,-0.906c0.037,-0.172 0.173,-0.307 0.347,-0.327c0.125,-0.013 0.253,-0.02 0.382,-0.02Zm0,2.5c-0.552,-0 -1,0.448 -1,1c0,0.552 0.448,1 1,1c0.552,-0 1,-0.448 1,-1c0,-0.552 -0.448,-1 -1,-1Z" fill="#212121"/>
</svg>
