<svg width="20" height="20" viewBox="0 0 20 20" fill="none" xmlns="http://www.w3.org/2000/svg">
<path d="M3.127,11.482c-0.451,-0.529 -0.809,-1.141 -1.046,-1.81c-0.068,-0.19 -0.014,-0.402 0.136,-0.538l1.225,-1.106c0.164,-0.148 0.164,-0.408 -0,-0.557l-1.225,-1.105c-0.15,-0.136 -0.203,-0.348 -0.136,-0.538c0.237,-0.669 0.595,-1.281 1.046,-1.809c0.132,-0.154 0.342,-0.213 0.535,-0.151l1.568,0.507c0.211,0.068 0.436,-0.061 0.482,-0.278l0.345,-1.613c0.043,-0.198 0.2,-0.35 0.399,-0.387c0.337,-0.062 0.686,-0.097 1.044,-0.097c0.358,0 0.708,0.035 1.045,0.097c0.199,0.036 0.356,0.189 0.398,0.387l0.345,1.613c0.047,0.217 0.271,0.346 0.482,0.278l1.569,-0.508c0.192,-0.062 0.403,-0.002 0.534,0.151c0.451,0.529 0.809,1.141 1.046,1.81c0.068,0.19 0.014,0.402 -0.136,0.538l-1.225,1.106c-0.164,0.148 -0.164,0.408 0,0.557l1.225,1.105c0.15,0.136 0.203,0.348 0.136,0.538c-0.237,0.669 -0.595,1.281 -1.046,1.809c-0.132,0.154 -0.342,0.213 -0.535,0.151l-1.568,-0.507c-0.211,-0.068 -0.436,0.061 -0.482,0.278l-0.345,1.613c-0.043,0.198 -0.2,0.35 -0.399,0.387c-0.337,0.062 -0.686,0.097 -1.044,0.097c-0.358,-0 -0.708,-0.035 -1.045,-0.097c-0.199,-0.036 -0.356,-0.189 -0.398,-0.387l-0.345,-1.613c-0.047,-0.217 -0.271,-0.346 -0.482,-0.278l-1.569,0.508c-0.192,0.062 -0.403,0.002 -0.534,-0.151Zm4.373,-5.232c-0.828,0 -1.5,0.672 -1.5,1.5c-0,0.828 0.672,1.5 1.5,1.5c0.828,-0 1.5,-0.672 1.5,-1.5c0,-0.828 -0.672,-1.5 -1.5,-1.5ZM14.5,11c0.129,0 0.257,0.007 0.382,0.02c0.174,0.02 0.31,0.155 0.347,0.327l0.193,0.906c0.055,0.253 0.316,0.404 0.563,0.324l0.88,-0.285c0.167,-0.054 0.352,-0.004 0.456,0.137c0.15,0.205 0.279,0.427 0.383,0.662c0.07,0.161 0.021,0.346 -0.109,0.463l-0.688,0.621c-0.192,0.174 -0.192,0.476 0,0.65l0.688,0.62c0.13,0.117 0.179,0.302 0.109,0.463c-0.104,0.235 -0.233,0.457 -0.383,0.662c-0.104,0.142 -0.29,0.191 -0.456,0.137l-0.88,-0.284c-0.247,-0.08 -0.508,0.071 -0.563,0.324l-0.193,0.905c-0.037,0.172 -0.172,0.307 -0.347,0.327c-0.125,0.014 -0.253,0.021 -0.382,0.021c-0.129,-0 -0.257,-0.007 -0.382,-0.021c-0.175,-0.02 -0.31,-0.155 -0.347,-0.327l-0.193,-0.905c-0.055,-0.253 -0.316,-0.404 -0.563,-0.324l-0.88,0.284c-0.166,0.054 -0.352,0.005 -0.456,-0.137c-0.15,-0.205 -0.279,-0.427 -0.383,-0.662c-0.07,-0.161 -0.021,-0.346 0.109,-0.463l0.688,-0.62c0.192,-0.174 0.192,-0.476 -0,-0.65l-0.688,-0.621c-0.13,-0.117 -0.179,-0.302 -0.109,-0.463c0.104,-0.235 0.233,-0.457 0.383,-0.662c0.104,-0.141 0.289,-0.191 0.456,-0.137l0.88,0.285c0.247,0.08 0.508,-0.071 0.563,-0.324l0.193,-0.906c0.037,-0.172 0.173,-0.307 0.347,-0.327c0.125,-0.013 0.253,-0.02 0.382,-0.02Zm0,2.5c-0.552,-0 -1,0.448 -1,1c0,0.552 0.448,1 1,1c0.552,-0 1,-0.448 1,-1c0,-0.552 -0.448,-1 -1,-1Z" fill="#212121"/>
</svg>
