<svg width="20" height="20" viewBox="0 0 20 20" fill="none" xmlns="http://www.w3.org/2000/svg">
<path d="M12.7948,6.0066c-0.0977,-0.0044 -0.196,-0.0066 -0.2948,-0.0066c-3.5899,0 -6.5,2.9101 -6.5,6.5c0,0.0988 0.0022,0.1971 0.0066,0.2948c-2.3119,-0.6508 -4.0066,-2.7749 -4.0066,-5.2948c0,-3.0376 2.4624,-5.5 5.5,-5.5c2.5199,0 4.644,1.6947 5.2948,4.0066zM8.8536,5.1465c-0.1953,-0.1953 -0.5119,-0.1953 -0.7071,0l-2.3965,2.3964l-0.8965,-0.8964c-0.1952,-0.1953 -0.5118,-0.1953 -0.707,0c-0.1953,0.1952 -0.1953,0.5118 0,0.7071l1.25,1.25c0.1952,0.1952 0.5118,0.1952 0.7071,0l2.75,-2.75c0.1952,-0.1953 0.1952,-0.5119 0,-0.7071zM12.5,18c-3.0376,0 -5.5,-2.4624 -5.5,-5.5c0,-3.0376 2.4624,-5.5 5.5,-5.5c3.0376,0 5.5,2.4624 5.5,5.5c0,3.0376 -2.4624,5.5 -5.5,5.5zM10.8536,10.1464c-0.1953,-0.1952 -0.5119,-0.1952 -0.7072,0c-0.1952,0.1953 -0.1952,0.5119 0,0.7072l1.6465,1.6464l-1.6465,1.6464c-0.1952,0.1953 -0.1952,0.5119 0,0.7072c0.1953,0.1952 0.5119,0.1952 0.7072,0l1.6464,-1.6465l1.6464,1.6465c0.1953,0.1952 0.5119,0.1952 0.7072,0c0.1952,-0.1953 0.1952,-0.5119 0,-0.7072l-1.6465,-1.6464l1.6465,-1.6464c0.1952,-0.1953 0.1952,-0.5119 0,-0.7072c-0.1953,-0.1952 -0.5119,-0.1952 -0.7072,0l-1.6464,1.6465z" fill="#212121"/>
</svg>
