<svg width="20" height="20" viewBox="0 0 20 20" fill="none" xmlns="http://www.w3.org/2000/svg">
<path d="M6.0066,12.7948c-2.3119,-0.6508 -4.0066,-2.7749 -4.0066,-5.2948c0,-3.0376 2.4624,-5.5 5.5,-5.5c2.5199,0 4.644,1.6947 5.2948,4.0066c-0.0977,-0.0044 -0.196,-0.0066 -0.2948,-0.0066c-0.2507,0 -0.4982,0.0142 -0.7415,0.0418c-0.6058,-1.7696 -2.2836,-3.0418 -4.2585,-3.0418c-2.4853,0 -4.5,2.0147 -4.5,4.5c0,1.9749 1.2722,3.6527 3.0418,4.2585c-0.0276,0.2433 -0.0418,0.4908 -0.0418,0.7415c0,0.0988 0.0022,0.1971 0.0066,0.2948zM8.8536,5.1465c0.1952,0.1952 0.1952,0.5118 0,0.7071l-2.75,2.75c-0.1953,0.1952 -0.5119,0.1952 -0.7071,0l-1.2501,-1.25c-0.1952,-0.1953 -0.1952,-0.5119 0,-0.7071c0.1953,-0.1953 0.5119,-0.1953 0.7071,0l0.8965,0.8964l2.3965,-2.3964c0.1952,-0.1953 0.5118,-0.1953 0.7071,0zM12.5,18c-3.0376,0 -5.5,-2.4624 -5.5,-5.5c0,-3.0376 2.4624,-5.5 5.5,-5.5c3.0376,0 5.5,2.4624 5.5,5.5c0,3.0376 -2.4624,5.5 -5.5,5.5zM12.5,17c2.4853,0 4.5,-2.0147 4.5,-4.5c0,-2.4853 -2.0147,-4.5 -4.5,-4.5c-2.4853,0 -4.5,2.0147 -4.5,4.5c0,2.4853 2.0147,4.5 4.5,4.5zM10.8536,10.1464l1.6464,1.6465l1.6464,-1.6465c0.1953,-0.1952 0.5119,-0.1952 0.7072,0c0.1952,0.1953 0.1952,0.5119 0,0.7072l-1.6465,1.6464l1.6465,1.6464c0.1952,0.1953 0.1952,0.5119 0,0.7072c-0.1953,0.1952 -0.5119,0.1952 -0.7072,0l-1.6464,-1.6465l-1.6464,1.6465c-0.1953,0.1952 -0.5119,0.1952 -0.7072,0c-0.1952,-0.1953 -0.1952,-0.5119 0,-0.7072l1.6465,-1.6464l-1.6465,-1.6464c-0.1952,-0.1953 -0.1952,-0.5119 0,-0.7072c0.1953,-0.1952 0.5119,-0.1952 0.7072,0z" fill="#212121"/>
</svg>
