<svg width="20" height="20" viewBox="0 0 20 20" fill="none" xmlns="http://www.w3.org/2000/svg">
<path d="M9.2755,14.1684c0.2945,-0.2403 0.7302,-0.2235 1.0049,0.0508c0.2744,0.2746 0.2909,0.7103 0.0507,1.0049l-2.5517,2.5566c-0.2929,0.2926 -0.7677,0.2926 -1.0606,0c-0.2924,-0.2928 -0.2925,-0.7678 0,-1.0605zM3.7764,15.1679c0.2943,-0.24 0.7283,-0.2229 1.003,0.0508c0.2929,0.2929 0.2928,0.7686 0,1.0615l-1.499,1.5c-0.2929,0.2928 -0.7687,0.2919 -1.0616,-0.001c-0.2919,-0.2929 -0.2916,-0.7679 0.001,-1.0605zM14.672,9.3036c0.0933,-0.4004 0.6524,-0.4012 0.7587,-0.0214l0.126,0.7041c0.1362,0.763 0.7179,1.3701 1.4746,1.5381l0.6621,0.1464l0.0518,0.0196c0.3336,0.1245 0.3284,0.5732 0.041,0.7138l-0.0693,0.0235l-0.711,0.1279c-0.7609,0.1376 -1.3654,0.7188 -1.5332,1.4736l-0.1474,0.6661c-0.0934,0.4002 -0.6523,0.4009 -0.7588,0.0214l-0.126,-0.705c-0.1362,-0.7629 -0.718,-1.3702 -1.4746,-1.5381l-0.6621,-0.1465c-0.4132,-0.0963 -0.4014,-0.6897 0.0156,-0.7686l0.668,-0.1181c0.7629,-0.1362 1.3691,-0.7181 1.5371,-1.4746zM7.7198,11.2187c0.2928,-0.2922 0.7678,-0.2922 1.0606,0c0.2925,0.2928 0.2923,0.7677 0,1.0605l-2.3096,2.3028c-0.2946,0.24 -0.7285,0.2226 -1.0029,-0.0518c-0.2925,-0.293 -0.2928,-0.7678 0,-1.0605zM5.7198,9.2197c0.2928,-0.2927 0.7677,-0.2925 1.0606,0c0.2924,0.2929 0.2927,0.7677 0,1.0605l-3.5,3.5c-0.2929,0.2927 -0.7677,0.2926 -1.0606,0c-0.2925,-0.2928 -0.2926,-0.7677 0,-1.0605zM9.9239,2.4667c0.1317,-0.6224 1.0207,-0.6224 1.1524,0l0.1992,0.9981c0.2281,1.1401 1.1197,2.0316 2.2597,2.2597l0.9971,0.1993c0.6041,0.1271 0.6226,0.9667 0.0557,1.1377l-1.0528,0.2109c-1.14,0.2281 -2.0316,1.1196 -2.2597,2.2598l-0.1992,0.997l-0.0274,0.0782c-0.1761,0.5047 -0.8496,0.5109 -1.0693,0.0839l-0.0371,-0.1035l-0.2149,-1.0615c-0.2304,-1.137 -1.1204,-2.0252 -2.2578,-2.2529l-1.0029,-0.2002c-0.603,-0.1275 -0.6219,-0.9658 -0.0567,-1.1377l1.0547,-0.211c1.1401,-0.2281 2.0317,-1.1195 2.2598,-2.2597z" fill="#212121"/>
</svg>
