<svg width="20" height="20" viewBox="0 0 20 20" fill="none" xmlns="http://www.w3.org/2000/svg">
<path d="M10.3159,2.2729c0.6399,-0.5939 1.6802,-0.14 1.6802,0.733v13.9877c0,0.8731 -1.0403,1.3269 -1.6802,0.733l-3.8722,-3.5933c-0.0925,-0.0859 -0.214,-0.1335 -0.3401,-0.1335h-2.6075c-0.8284,0 -1.5,-0.6716 -1.5,-1.5v-5c0,-0.8285 0.6716,-1.5 1.5,-1.5h2.6075c0.1261,0 0.2476,-0.0477 0.3401,-0.1335zM15,8.7929v-2.7929c0,-0.2022 0.1218,-0.3845 0.3087,-0.4619c0.1868,-0.0774 0.4019,-0.0347 0.5449,0.1083l2,2c0.1952,0.1953 0.1952,0.5119 0,0.7072l-1.6465,1.6464l1.6465,1.6464c0.1952,0.1953 0.1952,0.5119 0,0.7072l-2,2c-0.143,0.143 -0.3581,0.1857 -0.5449,0.1083c-0.1869,-0.0774 -0.3087,-0.2597 -0.3087,-0.4619v-2.7929l-1.1464,1.1465c-0.1952,0.1951 -0.512,0.1951 -0.7072,0c-0.1951,-0.1952 -0.1951,-0.512 0,-0.7072l1.6465,-1.6464l-1.6465,-1.6464c-0.1951,-0.1952 -0.1951,-0.512 0,-0.7072c0.1952,-0.1951 0.512,-0.1951 0.7072,0zM16,8.7929l0.7929,-0.7929l-0.7929,-0.7929zM16,11.2071v1.5858l0.7929,-0.7929z" fill="#212121"/>
</svg>
