<svg width="20" height="20" viewBox="0 0 20 20" fill="none" xmlns="http://www.w3.org/2000/svg">
<path d="M9.1043,2.8992c0.3668,-0.7432 1.4267,-0.7432 1.7935,0l1.9304,3.9115l4.3166,0.6273c0.8203,0.1192 1.1478,1.1271 0.5542,1.7057l-3.1235,3.0446l0.7374,4.2992c0.1401,0.8169 -0.7173,1.4399 -1.451,1.0542l-3.8608,-2.0298l-3.8609,2.0298c-0.7336,0.3857 -1.5911,-0.2373 -1.451,-1.0542l0.7374,-4.2992l-3.1235,-3.0446c-0.5935,-0.5786 -0.266,-1.5865 0.5542,-1.7057l4.3166,-0.6273zM10.0011,3.3418l-1.9305,3.9115c-0.1456,0.2951 -0.4272,0.4997 -0.7529,0.547l-4.3166,0.6273l3.1235,3.0446c0.2357,0.2298 0.3432,0.5608 0.2876,0.8852l-0.7374,4.2991l3.8609,-2.0298c0.2913,-0.1531 0.6394,-0.1531 0.9307,0l3.8609,2.0298l-0.7374,-4.2991c-0.0556,-0.3244 0.0519,-0.6554 0.2876,-0.8852l3.1235,-3.0446l-4.3166,-0.6273c-0.3257,-0.0473 -0.6072,-0.2519 -0.7529,-0.547zM3.7226,12.584c0.2297,-0.1531 0.5404,-0.091 0.6934,0.1386c0.1531,0.2297 0.091,0.5404 -0.1386,0.6934l-1.5,1c-0.2297,0.1531 -0.5404,0.091 -0.6934,-0.1386c-0.1531,-0.2297 -0.091,-0.5404 0.1386,-0.6934zM15.7226,13.416c-0.2296,-0.153 -0.2917,-0.4637 -0.1386,-0.6934c0.153,-0.2296 0.4637,-0.2917 0.6934,-0.1386l1.5,1c0.2296,0.153 0.2917,0.4637 0.1386,0.6934c-0.153,0.2296 -0.4637,0.2917 -0.6934,0.1386zM15.3123,5.8904c-0.2154,0.1724 -0.5303,0.1374 -0.7027,-0.0781c-0.1724,-0.2154 -0.1374,-0.5303 0.0781,-0.7027l2.5,-2c0.2154,-0.1724 0.5303,-0.1374 0.7027,0.0781c0.1724,0.2154 0.1374,0.5303 -0.0781,0.7027zM5.3123,5.1096c0.2155,0.1724 0.2505,0.4873 0.0781,0.7027c-0.1724,0.2155 -0.4873,0.2505 -0.7027,0.0781l-2.5,-2c-0.2155,-0.1724 -0.2505,-0.4873 -0.0781,-0.7027c0.1724,-0.2155 0.4873,-0.2505 0.7027,-0.0781z" fill="#212121"/>
</svg>
