<svg width="20" height="20" viewBox="0 0 20 20" fill="none" xmlns="http://www.w3.org/2000/svg">
<path d="M16.7626,8.1872c0.1548,0.5783 0.2374,1.186 0.2374,1.8128c0,3.8634 -3.1366,7 -7,7c-3.8634,0 -7,-3.1366 -7,-7c0,-3.8634 3.1366,-7 7,-7c0.6268,0 1.2345,0.0826 1.8128,0.2374l-0.841,0.841c-0.3163,-0.0516 -0.641,-0.0784 -0.9718,-0.0784c-3.3115,0 -6,2.6885 -6,6c0,3.3115 2.6885,6 6,6c3.3115,0 6,-2.6885 6,-6c0,-0.3308 -0.0268,-0.6555 -0.0784,-0.9718zM17.2678,6.2677l-5.5,5.5001c-0.061,0.061 -0.1368,0.1052 -0.2199,0.1282l-3.9142,1.0858c-0.1737,0.0482 -0.3598,-0.0008 -0.4873,-0.1282c-0.1274,-0.1275 -0.1764,-0.3136 -0.1282,-0.4873l1.0858,-3.9142c0.023,-0.0831 0.0672,-0.1589 0.1282,-0.2199l5.5,-5.5c0.9757,-0.9756 2.5599,-0.9756 3.5356,0c0.9756,0.9757 0.9756,2.5599 0,3.5355z" fill="#212121"/>
</svg>
