<svg width="20" height="20" viewBox="0 0 20 20" fill="none" xmlns="http://www.w3.org/2000/svg">
<path d="M15.75,12.4053v0.5947c0,2.7614 -2.2386,5 -5,5c-2.7614,0 -5,-2.2386 -5,-5v-0.8123c-2.1283,-0.3571 -3.75,-2.2081 -3.75,-4.4378v-4.9999c0,-0.4142 0.3358,-0.75 0.75,-0.75h1.5c0.4142,0 0.75,0.3358 0.75,0.75c0,0.4142 -0.3358,0.75 -0.75,0.75h-0.75v4.2499c0,1.6568 1.3432,3 3,3c1.6569,0 3,-1.3432 3,-3v-4.2499h-0.75c-0.4142,0 -0.75,-0.3358 -0.75,-0.75c0,-0.4142 0.3358,-0.75 0.75,-0.75h1.5c0.4142,0 0.75,0.3358 0.75,0.75v4.9999c0,2.2297 -1.6217,4.0807 -3.75,4.4378v0.8123c0,2.0711 1.6789,3.75 3.75,3.75c2.0711,0 3.25,-1.6789 3.25,-3.75v-0.5947c-1.2933,-0.3334 -2.25,-1.5085 -2.25,-2.9053c0,-1.6557 1.3443,-3 3,-3c1.6557,0 3,1.3443 3,3c0,1.3968 -0.9567,2.5719 -2.25,2.9053zM15,8c-0.8279,0 -1.5,0.6721 -1.5,1.5c0,0.8279 0.6721,1.5 1.5,1.5c0.8279,0 1.5,-0.6721 1.5,-1.5c0,-0.8279 -0.6721,-1.5 -1.5,-1.5z" fill="#212121"/>
</svg>
