<svg width="20" height="20" viewBox="0 0 20 20" fill="none" xmlns="http://www.w3.org/2000/svg">
<path d="M14.3163,9h-0.3163c-0.6,0 -1,0.4 -1,1v1c0,3.9 -3.1,7 -7,7h-0.5c-0.3,0 -0.5,-0.2 -0.5,-0.5c0,-0.3 0.2,-0.5 0.5,-0.5h0.5c3.3,0 6,-2.7 6,-6v-1c0,-1.0065 0.7535,-1.8455 1.7242,-1.9809c0.0464,0.3054 0.1871,0.5992 0.4222,0.8344c0.0537,0.0538 0.1106,0.1026 0.1699,0.1465zM16.2929,6h-2.7929c-1.9,0 -3.5,1.6 -3.5,3.5v1c0,2.5 -2,4.5 -4.5,4.5h-3c-0.3,0 -0.5,-0.2 -0.5,-0.5c0,-0.3 0.2,-0.5 0.5,-0.5h3c1.9,0 3.5,-1.6 3.5,-3.5v-1c0,-2.5 2,-4.5 4.5,-4.5h2.7929l-1.4394,-1.4393c-0.1952,-0.1953 -0.1952,-0.5119 0,-0.7071c0.1953,-0.1953 0.5119,-0.1953 0.7072,0l2.2815,2.2815c0.0974,0.0912 0.1582,0.221 0.1582,0.3649c0,0.1439 -0.0608,0.2737 -0.1582,0.3649l-2.2815,2.2815c-0.1953,0.1953 -0.5119,0.1953 -0.7072,0c-0.1952,-0.1952 -0.1952,-0.5118 0,-0.7071zM2.5,12c-0.3,0 -0.5,-0.2 -0.5,-0.5c0,-0.3 0.2,-0.5 0.5,-0.5h2.5c0.6,0 1,-0.4 1,-1v-1c0,-3.9 3.1,-7 7,-7h0.5c0.3,0 0.5,0.2 0.5,0.5c0,0.3 -0.2,0.5 -0.5,0.5h-0.5c-3.3,0 -6,2.7 -6,6v1c0,1.1 -0.9,2 -2,2z" fill="#212121"/>
</svg>
