<svg width="20" height="20" viewBox="0 0 20 20" fill="none" xmlns="http://www.w3.org/2000/svg">
<path d="M4.9885,11h0.0115c0.5523,0 1,-0.4477 1,-1v-1c0,-3.866 3.134,-7 7,-7h0.5c0.2761,0 0.5,0.2239 0.5,0.5c0,0.2761 -0.2239,0.5 -0.5,0.5h-0.5c-3.3137,0 -6,2.6863 -6,6v1c0,0.8079 -0.479,1.5039 -1.1685,1.8195c-0.3778,-0.3778 -0.6732,-0.6731 -0.6732,-0.6731c-0.0537,-0.0538 -0.1105,-0.1025 -0.1698,-0.1464zM7.4317,13.4197c0.9453,-0.6267 1.5683,-1.7006 1.5683,-2.9197v-1c0,-2.4853 2.0147,-4.5 4.5,-4.5h4c0.2761,0 0.5,0.2239 0.5,0.5c0,0.2761 -0.2239,0.5 -0.5,0.5h-4c-1.933,0 -3.5,1.567 -3.5,3.5v1c0,1.6113 -0.8468,3.0247 -2.1197,3.8197c-0.0422,-0.3518 -0.2063,-0.6665 -0.4486,-0.9zM6.012,17c3.3082,-0.0065 5.988,-2.6903 5.988,-6v-1c0,-1.1046 0.8954,-2 2,-2h3.5c0.2761,0 0.5,0.2239 0.5,0.5c0,0.2761 -0.2239,0.5 -0.5,0.5h-3.5c-0.5523,0 -1,0.4477 -1,1v1c0,3.866 -3.134,7 -7,7h-0.5c-0.135,0 -0.2575,-0.0535 -0.3475,-0.1405c0.0019,-0.002 0.0039,-0.0039 0.0058,-0.0059zM2.5,14c-0.2761,0 -0.5,0.2239 -0.5,0.5c0,0.2761 0.2239,0.5 0.5,0.5h2.6835l-1.4393,1.4393c-0.1953,0.1953 -0.1953,0.5119 0,0.7072c0.1952,0.1952 0.5118,0.1952 0.7071,0l2.2815,-2.2816c0.0974,-0.0912 0.1582,-0.221 0.1582,-0.3649c0,-0.1439 -0.0608,-0.2737 -0.1582,-0.3649l-2.2815,-2.2816c-0.1953,-0.1952 -0.5119,-0.1952 -0.7071,0c-0.1953,0.1953 -0.1953,0.5119 0,0.7072l1.4393,1.4393z" fill="#212121"/>
</svg>
