<svg width="20" height="20" viewBox="0 0 20 20" fill="none" xmlns="http://www.w3.org/2000/svg">
<path d="M10.9811,17.3742l-1.1865,0.4837c-0.7765,0.3168 -1.6689,0.0664 -2.1672,-0.6082l-0.2486,-0.3365c-0.4963,-0.6718 -0.4757,-1.5943 0.0501,-2.2433l0.9224,-1.1388c0.2471,1.6455 1.2431,3.0459 2.6298,3.8431zM13.6458,8.375c2.4048,0 4.3542,1.9494 4.3542,4.3542c0,2.4048 -1.9494,4.3541 -4.3542,4.3541c-2.4047,0 -4.3541,-1.9494 -4.3541,-4.3541c0,-2.4048 1.9494,-4.3542 4.3541,-4.3542zM10.4208,7.9139c-0.627,1.634 -2.2113,2.7944 -4.0666,2.7944c-2.4048,0 -4.3542,-1.9494 -4.3542,-4.3541c0,-2.4048 1.9494,-4.3542 4.3542,-4.3542c0.1787,0 0.355,0.0108 0.5281,0.0317l0.1513,0.023c-0.2983,0.1026 -0.5836,0.2467 -0.8494,0.4312c-1.5706,1.09 -1.9721,3.2503 -0.903,4.8211c1.0733,1.5769 3.218,1.9732 4.7946,0.8791c0.1202,-0.0833 0.2352,-0.1742 0.345,-0.2722zM11.274,2.4186l0.0831,0.0929l0.0832,0.1121l0.4047,0.5952c0.3269,0.4802 0.3161,1.1133 -0.0235,1.581l-0.0843,0.1057l-1.7258,1.9997c-0.1507,0.1762 -0.3197,0.3303 -0.5057,0.4594c-1.1171,0.7752 -2.6373,0.4971 -3.3978,-0.6202c-0.7623,-1.12 -0.4734,-2.6598 0.6464,-3.4369c0.207,-0.1437 0.4303,-0.2531 0.6643,-0.3269l2.3962,-0.8874c0.5127,-0.1902 1.0837,-0.0572 1.4592,0.3254zM10.2339,3.049c-0.1925,0.1164 -0.2687,0.352 -0.1913,0.5551l0.0363,0.0743l0.2373,0.3921l0.0489,0.0667c0.1439,0.1629 0.388,0.2048 0.5805,0.0883c0.1925,-0.1165 0.2686,-0.352 0.1912,-0.5551l-0.0363,-0.0743l-0.2373,-0.3921l-0.0489,-0.0667c-0.1438,-0.1629 -0.3878,-0.2048 -0.5804,-0.0883z" fill="#212121"/>
</svg>
