<svg width="20" height="20" viewBox="0 0 20 20" fill="none" xmlns="http://www.w3.org/2000/svg">
<path d="M4.5,5c-1.3807,0 -2.5,1.1193 -2.5,2.5v4c0,1.3807 1.1193,2.5 2.5,2.5h9c1.3807,0 2.5,-1.1193 2.5,-2.5v-4c0,-1.3807 -1.1193,-2.5 -2.5,-2.5zM5.5,9.5c0,-0.2761 0.2239,-0.5 0.5,-0.5h6c0.2761,0 0.5,0.2239 0.5,0.5c0,0.2761 -0.2239,0.5 -0.5,0.5h-6c-0.2761,0 -0.5,-0.2239 -0.5,-0.5zM4.5039,14.9997c0.4561,0.6072 1.1823,1 2.0002,1h7c2.4853,0 4.5,-2.0147 4.5,-4.5v-2c0,-0.8179 -0.3928,-1.5441 -1,-2.0002v4.0002c0,1.933 -1.567,3.5 -3.5,3.5z" fill="#212121"/>
</svg>
