<svg width="20" height="20" viewBox="0 0 20 20" fill="none" xmlns="http://www.w3.org/2000/svg">
<path d="M2,7.5c0,-1.3807 1.1193,-2.5 2.5,-2.5h9c1.3807,0 2.5,1.1193 2.5,2.5v4c0,1.3807 -1.1193,2.5 -2.5,2.5h-9c-1.3807,0 -2.5,-1.1193 -2.5,-2.5zM4.5,6c-0.8284,0 -1.5,0.6716 -1.5,1.5v4c0,0.8284 0.6716,1.5 1.5,1.5h9c0.8284,0 1.5,-0.6716 1.5,-1.5v-4c0,-0.8284 -0.6716,-1.5 -1.5,-1.5zM6.5041,15.9997c-0.8179,0 -1.5441,-0.3928 -2.0002,-1h9.0002c1.933,0 3.5,-1.567 3.5,-3.5v-4c0.6072,0.4561 1,1.1821 1,2v2c0,2.4853 -2.0147,4.5 -4.5,4.5zM6,9c-0.2761,0 -0.5,0.2239 -0.5,0.5c0,0.2761 0.2239,0.5 0.5,0.5h6c0.2761,0 0.5,-0.2239 0.5,-0.5c0,-0.2761 -0.2239,-0.5 -0.5,-0.5z" fill="#212121"/>
</svg>
