<svg width="20" height="20" viewBox="0 0 20 20" fill="none" xmlns="http://www.w3.org/2000/svg">
  <path d="M17.5,11l-15,0c-0.276,0 -0.5,-0.224 -0.5,-0.5c-0,-0.276 0.224,-0.5 0.5,-0.5l3.202,0l1.575,-3.5l1.096,0l-1.575,3.5l6.404,0l-1.575,-3.5l1.096,0l1.575,3.5l3.202,0c0.276,0 0.5,0.224 0.5,0.5c-0,0.276 -0.224,0.5 -0.5,0.5Zm-2.5,-5.5l-10,0c-0.276,0 -0.5,-0.224 -0.5,-0.5c-0,-0.276 0.224,-0.5 0.5,-0.5l10,0c0.276,0 0.5,0.224 0.5,0.5c-0,0.276 -0.224,0.5 -0.5,0.5Zm-10.198,6.5l1.096,0l-1.442,3.205c-0.113,0.252 -0.41,0.364 -0.661,0.251c-0.252,-0.113 -0.364,-0.409 -0.251,-0.661l1.258,-2.795Zm9.3,0l1.096,0l1.258,2.795c0.113,0.251 0.001,0.548 -0.251,0.661c-0.251,0.113 -0.548,0.001 -0.661,-0.251l-1.442,-3.205Z" fill="#212121"/>
</svg>
