<svg width="20" height="20" viewBox="0 0 20 20" fill="none" xmlns="http://www.w3.org/2000/svg">
  <path d="M14.75,5.5l-9.5,0c-0.414,0 -0.75,-0.336 -0.75,-0.75c-0,-0.414 0.336,-0.75 0.75,-0.75c-0,0 3.255,-0 3.264,0c-0,0 2.99,-0 2.999,-0l3.237,0c0.414,0 0.75,0.336 0.75,0.75c-0,0.414 -0.336,0.75 -0.75,0.75Zm2.5,6l-14.5,0c-0.414,-0 -0.75,-0.336 -0.75,-0.75c0,-0.414 0.336,-0.75 0.75,-0.75l2.816,0l1.417,-3.5l1.618,0l-1.417,3.5l5.632,0l-1.417,-3.5l1.618,0l1.417,3.5l2.816,0c0.414,-0 0.75,0.336 0.75,0.75c0,0.414 -0.336,0.75 -0.75,0.75Zm-12.696,1l1.618,0l-1.227,3.031c-0.155,0.384 -0.593,0.57 -0.976,0.414c-0.384,-0.155 -0.57,-0.593 -0.414,-0.976l0.999,-2.469Zm10.892,-0l0.999,2.469c0.156,0.383 -0.03,0.821 -0.414,0.976c-0.383,0.156 -0.821,-0.03 -0.976,-0.414l-1.227,-3.031l1.618,0Z" fill="#212121"/>
</svg>
