<svg width="20" height="20" viewBox="0 0 20 20" fill="none" xmlns="http://www.w3.org/2000/svg">
<path d="M4.5 2C3.11929 2 2 3.11929 2 4.5V12.5C2 13.8807 3.11929 15 4.5 15H8.5C8.77614 15 9 14.7761 9 14.5L9 9H14.5C14.7761 9 15 8.77614 15 8.5V4.5C15 3.11929 13.8807 2 12.5 2H4.5ZM8 9L8 14H4.5C3.67157 14 3 13.3284 3 12.5V9H8ZM8 8H3V4.5C3 3.67157 3.67157 3 4.5 3H8L8 8ZM9 8L9 3H12.5C13.3284 3 14 3.67157 14 4.5V8H9ZM10,12c0,-1.1046 0.8954,-2 2,-2h4c1.1046,0 2,0.8954 2,2v4c0,1.1046 -0.8954,2 -2,2h-4c-1.1046,0 -2,-0.8954 -2,-2z" fill="#212121"/>
</svg>
