<svg width="20" height="20" viewBox="0 0 20 20" fill="none" xmlns="http://www.w3.org/2000/svg">
  <path d="M17.852,6.117c0.247,0.332 0.178,0.802 -0.155,1.049c-0.332,0.247 -0.802,0.178 -1.049,-0.154c-0.094,-0.127 -0.195,-0.247 -0.303,-0.359c-0.734,-0.766 -1.745,-1.153 -2.831,-1.153c-1.085,0 -2.096,0.387 -2.831,1.153c-0.768,0.801 -1.183,1.956 -1.183,3.347c0,1.391 0.415,2.546 1.183,3.347c0.735,0.766 1.746,1.153 2.831,1.153c1.086,0 2.097,-0.387 2.831,-1.153c0.108,-0.112 0.209,-0.232 0.303,-0.358c0.247,-0.333 0.717,-0.402 1.049,-0.155c0.333,0.247 0.402,0.717 0.155,1.049c-0.132,0.177 -0.273,0.345 -0.424,0.502c-1.017,1.061 -2.41,1.615 -3.914,1.615c-1.503,0 -2.896,-0.554 -3.913,-1.615c-1.01,-1.053 -1.601,-2.557 -1.601,-4.385c0,-1.828 0.591,-3.332 1.601,-4.385c1.017,-1.061 2.41,-1.615 3.913,-1.615c1.504,-0 2.897,0.554 3.914,1.615c0.151,0.157 0.292,0.325 0.424,0.502Zm-13.102,-2.117c1.518,0 2.75,1.232 2.75,2.75c0,1.518 -1.232,2.75 -2.75,2.75c-1.518,0 -2.75,-1.232 -2.75,-2.75c-0,-1.518 1.232,-2.75 2.75,-2.75Zm0,1.5c-0.69,0 -1.25,0.56 -1.25,1.25c0,0.69 0.56,1.25 1.25,1.25c0.69,0 1.25,-0.56 1.25,-1.25c0,-0.69 -0.56,-1.25 -1.25,-1.25Z" fill="#212121"/>
</svg>
