<svg width="20" height="20" viewBox="0 0 20 20" fill="none" xmlns="http://www.w3.org/2000/svg">
<path d="M4.75,4c1.5178,0 2.75,1.2322 2.75,2.75c0,1.5178 -1.2322,2.75 -2.75,2.75c-1.5178,0 -2.75,-1.2322 -2.75,-2.75c0,-1.5178 1.2322,-2.75 2.75,-2.75zM4.75,5.5c-0.6899,0 -1.25,0.5601 -1.25,1.25c0,0.6899 0.5601,1.25 1.25,1.25c0.6899,0 1.25,-0.5601 1.25,-1.25c0,-0.6899 -0.5601,-1.25 -1.25,-1.25zM10.6822,6.6424c-0.7055,0.7346 -1.1822,1.8509 -1.1822,3.3576c0,1.5067 0.4767,2.623 1.1822,3.3576c0.7062,0.7354 1.6923,1.1424 2.8178,1.1424c1.1255,0 2.1116,-0.407 2.8178,-1.1424c0.1302,-0.1356 0.2526,-0.2842 0.3657,-0.4458c0.1704,-0.2436 0.4377,-0.4118 0.7349,-0.4118c0.5608,0 0.9463,0.5623 0.6491,1.0378c-0.1952,0.3124 -0.4186,0.5993 -0.6678,0.8588c-1.013,1.0549 -2.4018,1.6034 -3.8997,1.6034c-1.4979,0 -2.8867,-0.5485 -3.8997,-1.6034c-1.0137,-1.0556 -1.6003,-2.5644 -1.6003,-4.3966c0,-1.8322 0.5866,-3.341 1.6003,-4.3966c1.013,-1.0549 2.4018,-1.6034 3.8997,-1.6034c1.4979,0 2.8867,0.5485 3.8997,1.6034c0.2492,0.2595 0.4726,0.5464 0.6678,0.8588c0.2972,0.4755 -0.0883,1.0378 -0.6491,1.0378c-0.2972,0 -0.5645,-0.1682 -0.7349,-0.4117c-0.1131,-0.1617 -0.2355,-0.3103 -0.3657,-0.4459c-0.7062,-0.7354 -1.6923,-1.1424 -2.8178,-1.1424c-1.1255,0 -2.1116,0.407 -2.8178,1.1424z" fill="#212121"/>
</svg>
