<svg width="20" height="20" viewBox="0 0 20 20" fill="none" xmlns="http://www.w3.org/2000/svg">
<path d="M10.7476,7.25c0,-0.4142 -0.3358,-0.75 -0.75,-0.75c-0.4142,0 -0.75,0.3358 -0.75,0.75l0.0024,4.3954c-0.733,0.2967 -1.25,1.0153 -1.25,1.8546c0,1.1046 0.8954,2 2,2c1.1046,0 2,-0.8954 2,-2c0,-0.8393 -0.517,-1.5579 -1.25,-1.8546zM6.5,5.5v-0.0024c0,-1.9317 1.5659,-3.4976 3.4976,-3.4976c1.9316,0 3.4976,1.5659 3.4976,3.4976l0.0006,5.1685c0.6274,0.7734 1.0042,1.7603 1.0042,2.8339c0,2.4853 -2.0147,4.5 -4.5,4.5c-2.4853,0 -4.5,-2.0147 -4.5,-4.5c0,-1.0736 0.3768,-2.0606 1.0043,-2.834c-0.0008,-1.7369 -0.0086,-3.4797 -0.0086,-5.166zM8,5.4976c-0.0054,2.081 0.0044,3.6621 0.0044,5.7431l-0.201,0.216c-0.4991,0.5363 -0.8034,1.2534 -0.8034,2.0433c0,1.6569 1.3432,3 3,3c1.6569,0 3,-1.3431 3,-3c0,-0.7898 -0.3042,-1.5069 -0.8033,-2.0432l-0.2009,-0.2159l-0.0006,-5.7433c0,-1.1032 -0.8944,-1.9976 -1.9976,-1.9976c-1.1032,0 -1.9976,0.8944 -1.9976,1.9976z" fill="#212121"/>
</svg>
