<svg width="20" height="20" viewBox="0 0 20 20" xmlns="http://www.w3.org/2000/svg">
  <path d="M13.981,13.546c-0.076,0.266 -0.352,0.42 -0.618,0.344c-0.265,-0.076 -0.419,-0.353 -0.343,-0.618c0.067,-0.237 0.218,-0.555 0.516,-0.817c0.307,-0.271 0.739,-0.455 1.311,-0.455c1.167,-0 1.846,0.854 1.846,1.636c-0,0.304 -0.059,0.776 -0.38,1.181c-0.043,0.054 -0.089,0.105 -0.139,0.153c0.036,0.03 0.072,0.063 0.106,0.098c0.05,0.051 0.098,0.107 0.142,0.169c0.175,0.247 0.271,0.549 0.271,0.899c-0,0.63 -0.213,1.122 -0.598,1.448c-0.371,0.312 -0.836,0.416 -1.248,0.416c-0.387,-0 -0.774,-0.064 -1.109,-0.276c-0.345,-0.219 -0.573,-0.554 -0.713,-0.977c-0.086,-0.262 0.057,-0.545 0.319,-0.631c0.262,-0.087 0.545,0.056 0.631,0.319c0.044,0.131 0.093,0.227 0.145,0.298l0.014,0.019l0.033,0.038l0.015,0.016l0.016,0.016c0.025,0.023 0.05,0.041 0.075,0.057c0.038,0.024 0.082,0.045 0.136,0.063c0.106,0.036 0.247,0.058 0.438,0.058c0.26,0 0.468,-0.067 0.603,-0.18c0.119,-0.101 0.243,-0.29 0.243,-0.683c-0,-0.162 -0.041,-0.257 -0.086,-0.32c-0.048,-0.067 -0.123,-0.128 -0.233,-0.179c-0.233,-0.11 -0.538,-0.138 -0.752,-0.138c-0.276,0 -0.5,-0.224 -0.5,-0.5c0,-0.276 0.224,-0.5 0.5,-0.5c0.574,0 0.804,-0.175 0.908,-0.305c0.121,-0.153 0.163,-0.362 0.163,-0.558c-0,-0.218 -0.219,-0.637 -0.846,-0.637c-0.343,0 -0.536,0.104 -0.65,0.205c-0.123,0.108 -0.188,0.245 -0.216,0.341Zm-4.145,-0.546c-0.465,0 -0.835,0.421 -0.835,0.864c-0,0.276 -0.224,0.5 -0.5,0.5c-0.277,-0 -0.5,-0.224 -0.5,-0.5c-0,-0.921 0.746,-1.864 1.835,-1.864c0.635,0 1.247,0.297 1.59,0.824c0.358,0.55 0.369,1.267 -0.046,1.975c-0.212,0.36 -0.503,0.633 -0.786,0.856c-0.142,0.112 -0.288,0.216 -0.425,0.314l-0.059,0.042l-0.015,0.01c-0.112,0.079 -0.218,0.154 -0.32,0.231c-0.323,0.243 -0.556,0.466 -0.678,0.748l2.097,0c0.276,0 0.5,0.224 0.5,0.5c-0,0.276 -0.224,0.5 -0.5,0.5l-2.642,0l-0.026,-0.001l-0.025,0.001c-0.277,0 -0.5,-0.224 -0.5,-0.5c-0,-1.037 0.606,-1.621 1.173,-2.047c0.12,-0.091 0.244,-0.178 0.361,-0.261l0.057,-0.04c0.136,-0.097 0.263,-0.188 0.382,-0.282c0.239,-0.188 0.421,-0.37 0.543,-0.578c0.252,-0.428 0.193,-0.734 0.07,-0.923c-0.137,-0.211 -0.415,-0.369 -0.751,-0.369Zm-4.831,1.255c-0.182,0.179 -0.38,0.341 -0.587,0.479c-0.23,0.154 -0.54,0.091 -0.693,-0.138c-0.153,-0.23 -0.091,-0.541 0.138,-0.694c0.601,-0.4 1.05,-1.04 1.153,-1.509c0.055,-0.25 0.288,-0.415 0.536,-0.391c0.254,0.024 0.453,0.238 0.453,0.498l-0,5c-0,0.276 -0.224,0.5 -0.5,0.5c-0.276,0 -0.5,-0.224 -0.5,-0.5l-0,-3.245Zm0.495,-4.755l0,-7c0,-0.276 0.224,-0.5 0.5,-0.5c0.276,-0 0.5,0.224 0.5,0.5l0,1.5l0.25,0c0.276,-0 0.5,0.224 0.5,0.5c0,0.276 -0.224,0.5 -0.5,0.5l-0.25,0l0,4.5c0,0.276 -0.224,0.5 -0.5,0.5c-0.276,-0 -0.5,-0.224 -0.5,-0.5Zm10.75,0l0,-7c0,-0.276 0.224,-0.5 0.5,-0.5c0.276,0 0.5,0.224 0.5,0.5l0,1.5l0.25,0c0.276,-0 0.5,0.224 0.5,0.5c0,0.276 -0.224,0.5 -0.5,0.5l-0.25,0l0,4.5c0,0.276 -0.224,0.5 -0.5,0.5c-0.276,0 -0.5,-0.224 -0.5,-0.5Zm-5.5,0l0,-7c0,-0.276 0.224,-0.5 0.5,-0.5c0.276,0 0.5,0.224 0.5,0.5l0,1.5l0.25,0c0.276,-0 0.5,0.224 0.5,0.5c0,0.276 -0.224,0.5 -0.5,0.5l-0.25,0l0,4.5c0,0.276 -0.224,0.5 -0.5,0.5c-0.276,0 -0.5,-0.224 -0.5,-0.5Zm-8.108,-1.521c-0.264,0.079 -0.543,-0.072 -0.621,-0.337c-0.079,-0.265 0.073,-0.543 0.337,-0.621c0.647,-0.192 1.037,-0.724 1.276,-1.321c0.217,-0.543 0.316,-1.147 0.351,-1.7l-1.485,-0c-0.276,0 -0.5,-0.224 -0.5,-0.5c0,-0.276 0.224,-0.5 0.5,-0.5l2,-0c0.133,-0 0.26,0.053 0.354,0.146c0.094,0.094 0.146,0.221 0.146,0.354c0,0.785 -0.105,1.737 -0.437,2.571c-0.352,0.881 -0.966,1.626 -1.921,1.908Zm5.623,-4.6c0.067,-0.268 0.339,-0.431 0.607,-0.364c0.267,0.067 0.43,0.339 0.363,0.606l-0.798,3.192l1.192,-0.298c0.268,-0.067 0.539,0.096 0.606,0.364c0.067,0.267 -0.096,0.539 -0.363,0.606l-2,0.5c-0.171,0.043 -0.351,-0.007 -0.475,-0.131c-0.124,-0.125 -0.174,-0.305 -0.132,-0.475l1,-4Zm6.735,-0.379c0.276,0 0.5,0.224 0.5,0.5c0,0.276 -0.224,0.5 -0.5,0.5l-1,-0l0,2.837l1.113,-0.318c0.265,-0.076 0.542,0.078 0.618,0.344c0.076,0.265 -0.078,0.542 -0.343,0.618l-1.75,0.5c-0.151,0.043 -0.314,0.013 -0.439,-0.082c-0.125,-0.094 -0.199,-0.242 -0.199,-0.399l0,-4c0,-0.133 0.053,-0.26 0.147,-0.354c0.093,-0.093 0.221,-0.146 0.353,-0.146l1.5,0Z" fill="#212121" />
</svg>
