<svg width="20" height="20" viewBox="0 0 20 20" xmlns="http://www.w3.org/2000/svg">
  <path d="M15,2.75l0,12.572l1.447,-1.579c0.28,-0.305 0.755,-0.326 1.06,-0.046c0.305,0.28 0.326,0.754 0.046,1.06l-2.75,3c-0.142,0.155 -0.343,0.243 -0.553,0.243c-0.21,0 -0.411,-0.088 -0.553,-0.243l-2.75,-3c-0.28,-0.305 -0.259,-0.78 0.046,-1.06c0.306,-0.28 0.78,-0.259 1.06,0.046l1.447,1.579l0,-12.572c0,-0.414 0.336,-0.75 0.75,-0.75c0.414,0 0.75,0.336 0.75,0.75Zm-8.307,8.212l2.5,6c0.159,0.382 -0.022,0.821 -0.404,0.98c-0.383,0.16 -0.822,-0.021 -0.981,-0.403l-0.433,-1.039l-2.75,0l-0.432,1.039c-0.16,0.382 -0.599,0.563 -0.981,0.403c-0.383,-0.159 -0.563,-0.598 -0.404,-0.98l2.5,-6c0.116,-0.28 0.389,-0.462 0.692,-0.462c0.303,0 0.576,0.182 0.693,0.462Zm0.057,4.038l-0.75,-1.8l-0.75,1.8l1.5,0Zm-3.981,-6.25c-0.48,-0.695 -0.769,-1.557 -0.769,-2.504c0,-2.408 1.852,-4.246 4,-4.246c2.148,0 4,1.838 4,4.246c0,0.947 -0.289,1.809 -0.769,2.504l0.019,0c0.414,-0 0.75,0.336 0.75,0.75c0,0.414 -0.336,0.75 -0.75,0.75l-1.518,-0c-0.482,-0 -0.857,-0.412 -0.857,-0.861c0,-0.272 0.133,-0.502 0.24,-0.625c0.107,-0.123 0.195,-0.18 0.246,-0.217c0.684,-0.488 1.139,-1.329 1.139,-2.301c0,-1.533 -1.133,-2.746 -2.5,-2.746c-1.367,0 -2.5,1.213 -2.5,2.746c0,0.971 0.454,1.811 1.137,2.299l0.002,0.002c0.052,0.037 0.14,0.095 0.246,0.217c0.107,0.123 0.24,0.353 0.24,0.625c0,0.449 -0.375,0.861 -0.857,0.861l-1.518,-0c-0.414,-0 -0.75,-0.336 -0.75,-0.75c0,-0.414 0.336,-0.75 0.75,-0.75l0.019,-0Z" fill="#212121" />
</svg>
