<svg width="20" height="20" viewBox="0 0 20 20" xmlns="http://www.w3.org/2000/svg">
  <path d="M17.338,3.005c0.378,0.044 0.664,0.364 0.664,0.745l-0,5.5c-0,0.414 -0.336,0.75 -0.75,0.75c-0.414,-0 -0.75,-0.336 -0.75,-0.75l-0,-3.143c-0.107,0.082 -0.22,0.162 -0.342,0.238c-0.351,0.22 -0.814,0.114 -1.034,-0.237c-0.22,-0.351 -0.114,-0.813 0.237,-1.033c0.474,-0.297 0.767,-0.681 0.943,-0.996c0.088,-0.157 0.144,-0.293 0.178,-0.385l0.039,-0.12c0.089,-0.368 0.438,-0.612 0.815,-0.569Zm-15.338,4.745c-0,-0.414 0.336,-0.75 0.75,-0.75l3,-0c0.414,-0 0.75,0.336 0.75,0.75c-0,0.815 -0.135,1.968 -0.642,2.996c-0.521,1.057 -1.453,2.001 -2.991,2.245c-0.409,0.065 -0.793,-0.215 -0.858,-0.624c-0.065,-0.409 0.215,-0.793 0.624,-0.858c0.957,-0.151 1.525,-0.707 1.88,-1.426c0.245,-0.497 0.379,-1.06 0.442,-1.583l-2.205,-0c-0.414,-0 -0.75,-0.336 -0.75,-0.75Zm6.5,-3c-0,-0.414 -0.336,-0.75 -0.75,-0.75c-0.414,-0 -0.75,0.336 -0.75,0.75l-0,10.5c-0,0.414 0.336,0.75 0.75,0.75c0.414,0 0.75,-0.336 0.75,-0.75l-0,-10.5Zm5.25,-0.75c0.414,-0 0.75,0.336 0.75,0.75l-0,10.5c-0,0.414 -0.336,0.75 -0.75,0.75c-0.414,0 -0.75,-0.336 -0.75,-0.75l-0,-10.5c-0,-0.414 0.336,-0.75 0.75,-0.75Zm-2.262,1.884c0.074,-0.407 -0.196,-0.798 -0.604,-0.872c-0.407,-0.074 -0.798,0.196 -0.872,0.604l-1,5.5c-0.044,0.241 0.033,0.489 0.206,0.662c0.173,0.174 0.42,0.253 0.661,0.211l2.003,-0.35c0.408,-0.072 0.681,-0.46 0.61,-0.868c-0.071,-0.408 -0.46,-0.681 -0.868,-0.61l-0.944,0.165l0.808,-4.442Z" style="fill:#212121;fill-rule:nonzero;"/>
</svg>
