<svg width="20" height="20" viewBox="0 0 20 20" xmlns="http://www.w3.org/2000/svg">
  <path d="M14.086,12.719l-4,4.999c-0.133,0.167 -0.331,0.269 -0.544,0.281c-0.213,0.012 -0.421,-0.068 -0.572,-0.219l-2.25,-2.25c-0.293,-0.293 -0.293,-0.767 -0,-1.06c0.293,-0.293 0.768,-0.293 1.06,-0l1.658,1.657l3.477,-4.345c0.258,-0.324 0.73,-0.376 1.054,-0.118c0.323,0.259 0.376,0.731 0.117,1.055Zm-9.086,-2.469l0,-6.5c-0,-0.414 0.336,-0.75 0.75,-0.75c0.414,-0 0.75,0.336 0.75,0.75l-0,1.25c0.414,-0 0.75,0.336 0.75,0.75c0,0.414 -0.336,0.75 -0.75,0.75l0,3.75c-0,0.414 -0.336,0.75 -0.75,0.75c-0.414,-0 -0.75,-0.336 -0.75,-0.75Zm5.5,0l-0,-6.5c-0,-0.414 0.336,-0.75 0.75,-0.75c0.414,0 0.75,0.336 0.75,0.75l-0,1.25c0.414,-0 0.75,0.336 0.75,0.75c0,0.414 -0.336,0.75 -0.75,0.75l-0,3.75c-0,0.414 -0.336,0.75 -0.75,0.75c-0.414,0 -0.75,-0.336 -0.75,-0.75Zm5.25,0l-0,-6.5c-0,-0.414 0.336,-0.75 0.75,-0.75c0.414,0 0.75,0.336 0.75,0.75l-0,1.25c0.414,-0 0.75,0.336 0.75,0.75c0,0.414 -0.336,0.75 -0.75,0.75l-0,3.75c-0,0.414 -0.336,0.75 -0.75,0.75c-0.414,0 -0.75,-0.336 -0.75,-0.75Zm-2.75,-5.5c0,-0.414 0.336,-0.75 0.75,-0.75l1,0c0.414,0 0.75,0.336 0.75,0.75c-0,0.414 -0.336,0.75 -0.75,0.75l-0.25,0l0,1.789l0.068,-0.017c0.402,-0.1 0.809,0.145 0.91,0.546c0.1,0.402 -0.145,0.809 -0.546,0.91l-1,0.25c-0.224,0.056 -0.461,0.005 -0.643,-0.137c-0.182,-0.142 -0.289,-0.36 -0.289,-0.591l0,-3.5Zm-9.779,0.75l-0.471,0c-0.414,0 -0.75,-0.336 -0.75,-0.75c-0,-0.414 0.336,-0.75 0.75,-0.75l1.25,0c0.414,0 0.75,0.336 0.75,0.75c0,0.689 -0.065,1.54 -0.28,2.293c-0.261,0.915 -0.762,1.622 -1.433,1.9c-0.382,0.158 -0.821,-0.023 -0.98,-0.406c-0.158,-0.382 0.023,-0.821 0.406,-0.98c0.305,-0.127 0.446,-0.508 0.564,-0.925c0.104,-0.364 0.163,-0.756 0.194,-1.132Zm4.796,-0.907c0.086,-0.405 0.485,-0.663 0.89,-0.576c0.405,0.086 0.663,0.485 0.576,0.89l-0.475,2.216l0.255,-0.085c0.393,-0.13 0.818,0.082 0.949,0.475c0.13,0.393 -0.082,0.818 -0.475,0.949l-1.5,0.5c-0.255,0.085 -0.537,0.026 -0.737,-0.153c-0.201,-0.18 -0.29,-0.453 -0.233,-0.716l0.75,-3.5Z" fill="#212121" />
</svg>
