<svg width="20" height="20" viewBox="0 0 20 20" fill="none" xmlns="http://www.w3.org/2000/svg">
<path d="M2.4014,6.0495l0.4141,-0.9466l1.2264,-2.8033c0.0797,-0.182 0.2595,-0.2996 0.4581,-0.2996c0.1986,0 0.3785,0.1176 0.4581,0.2996l1.2264,2.8033l0.0082,0.0187l0.406,0.9279c0.1106,0.253 -0.0047,0.5478 -0.2577,0.6585c-0.253,0.1106 -0.5478,-0.0047 -0.6585,-0.2577l-0.2791,-0.6379h-1.8068l-0.2791,0.6379c-0.1107,0.253 -0.4055,0.3683 -0.6585,0.2577c-0.253,-0.1107 -0.3683,-0.4055 -0.2576,-0.6585zM4.5,3.7474l-0.4659,1.065h0.9319zM3.0781,8.125c0,-0.2761 0.2239,-0.5 0.5,-0.5h1.1719c0.7939,0 1.4375,0.6436 1.4375,1.4375c0,0.2975 -0.0904,0.5739 -0.2452,0.8032c0.2943,0.2632 0.4796,0.6458 0.4796,1.0718c0,0.7939 -0.6436,1.4375 -1.4375,1.4375h-1.4063c-0.2761,0 -0.5,-0.2239 -0.5,-0.5zM4.0781,9.5h0.6719c0.2416,0 0.4375,-0.1959 0.4375,-0.4375c0,-0.2416 -0.1959,-0.4375 -0.4375,-0.4375h-0.6719zM5.4219,10.9375c0,-0.2416 -0.1959,-0.4375 -0.4375,-0.4375h-0.9063v0.875h0.9063c0.2416,0 0.4375,-0.1959 0.4375,-0.4375zM5.6028,14.6404l-0.0204,-0.0262c-0.1742,-0.2165 -0.4394,-0.3642 -0.8409,-0.3642c-0.4022,0 -0.6673,0.1472 -0.8411,0.3629c-0.1857,0.2305 -0.2995,0.5794 -0.2995,1.0121c0,0.4327 0.1138,0.7816 0.2995,1.0121c0.1738,0.2157 0.4389,0.3629 0.8411,0.3629c0.4015,0 0.6668,-0.1478 0.841,-0.3643l0.0204,-0.0263c0.1304,-0.1731 0.3161,-0.3125 0.5329,-0.3125c0.3485,0 0.6061,0.3328 0.4411,0.6399c-0.0617,0.1148 -0.1333,0.2239 -0.2154,0.3259c-0.3732,0.4638 -0.9291,0.7373 -1.62,0.7373c-0.69,0 -1.2461,-0.2718 -1.6198,-0.7354c-0.3618,-0.449 -0.5208,-1.0381 -0.5208,-1.6396c0,-0.6015 0.159,-1.1906 0.5208,-1.6396c0.3737,-0.4636 0.9298,-0.7354 1.6198,-0.7354c0.6909,0 1.2468,0.2735 1.6201,0.7374c0.082,0.1019 0.1536,0.211 0.2153,0.3259c0.165,0.307 -0.0926,0.6398 -0.4411,0.6398c-0.2168,0 -0.4026,-0.1395 -0.533,-0.3127zM8.75,4h7.5c0.4142,0 0.75,0.3358 0.75,0.75c0,0.4142 -0.3358,0.75 -0.75,0.75h-7.5c-0.4142,0 -0.75,-0.3358 -0.75,-0.75c0,-0.4142 0.3358,-0.75 0.75,-0.75zM8.75,9.5h7.5c0.4142,0 0.75,0.3358 0.75,0.75c0,0.4142 -0.3358,0.75 -0.75,0.75h-7.5c-0.4142,0 -0.75,-0.3358 -0.75,-0.75c0,-0.4142 0.3358,-0.75 0.75,-0.75zM8.75,15h7.5c0.4142,0 0.75,0.3358 0.75,0.75c0,0.4142 -0.3358,0.75 -0.75,0.75h-7.5c-0.4142,0 -0.75,-0.3358 -0.75,-0.75c0,-0.4142 0.3358,-0.75 0.75,-0.75z" fill="#212121"/>
</svg>
