<svg width="32" height="32" viewBox="0 0 32 32" xmlns="http://www.w3.org/2000/svg">
  <path d="M2,4.5c0,-0.27614 0.22386,-0.5 0.5,-0.5h27c0.2761,0 0.5,0.22386 0.5,0.5c0,0.27614 -0.2239,0.5 -0.5,0.5h-27c-0.27614,0 -0.5,-0.22386 -0.5,-0.5zM2,26.5c0,-0.2761 0.22386,-0.5 0.5,-0.5h27c0.2761,0 0.5,0.2239 0.5,0.5c0,0.2761 -0.2239,0.5 -0.5,0.5h-27c-0.27614,0 -0.5,-0.2239 -0.5,-0.5zM19,11c-0.2761,0 -0.5,0.2239 -0.5,0.5c0,0.2761 0.2239,0.5 0.5,0.5h10.5c0.2761,0 0.5,-0.2239 0.5,-0.5c0,-0.2761 -0.2239,-0.5 -0.5,-0.5zM18.5,19.5c0,-0.2761 0.2239,-0.5 0.5,-0.5h10.5c0.2761,0 0.5,0.2239 0.5,0.5c0,0.2761 -0.2239,0.5 -0.5,0.5h-10.5c-0.2761,0 -0.5,-0.2239 -0.5,-0.5zM17,16c0,4.1421 -3.3579,7.5 -7.5,7.5c-4.14214,0 -7.5,-3.3579 -7.5,-7.5c0,-4.1421 3.35786,-7.5 7.5,-7.5c4.1421,0 7.5,3.3579 7.5,7.5zM4.5,15.75c0,0.4142 0.33579,0.75 0.75,0.75h8.5c0.4142,0 0.75,-0.3358 0.75,-0.75c0,-0.4142 -0.3358,-0.75 -0.75,-0.75h-8.5c-0.41421,0 -0.75,0.3358 -0.75,0.75z" fill="#212121" />
</svg>