<svg width="20" height="20" viewBox="0 0 20 20" xmlns="http://www.w3.org/2000/svg">
  <path d="M7.207,7.5l3.293,0c0.276,0 0.5,0.224 0.5,0.5c0,0.276 -0.224,0.5 -0.5,0.5l-3.5,0l0,2.119c0,0.763 -0.618,1.381 -1.381,1.381c-0.323,0 -0.636,-0.113 -0.884,-0.32l-0.055,-0.046c-0.212,-0.177 -0.241,-0.492 -0.064,-0.704c0.177,-0.212 0.492,-0.241 0.704,-0.064l0.055,0.046c0.069,0.057 0.155,0.088 0.244,0.088c0.21,0 0.381,-0.171 0.381,-0.381l0,-2.119l-3.5,0c-0.276,0 -0.5,-0.224 -0.5,-0.5c0,-0.276 0.224,-0.5 0.5,-0.5l3.5,-0c0,-0.128 0.049,-0.256 0.146,-0.354l1.147,-1.146l-2.793,0c-0.276,0 -0.5,-0.224 -0.5,-0.5c0,-0.276 0.224,-0.5 0.5,-0.5l4,0c0.128,0 0.256,0.049 0.354,0.146c0.195,0.196 0.195,0.512 -0,0.708l-1.647,1.646Zm-0.707,-5.5c0.276,0 0.5,0.224 0.5,0.5l0,0.5l3.5,0c0.276,0 0.5,0.224 0.5,0.5l0,1c0,0.276 -0.224,0.5 -0.5,0.5c-0.276,0 -0.5,-0.224 -0.5,-0.5l0,-0.5l-7,0l0,0.5c0,0.276 -0.224,0.5 -0.5,0.5c-0.276,0 -0.5,-0.224 -0.5,-0.5l0,-1c0,-0.276 0.224,-0.5 0.5,-0.5l3.5,0l0,-0.5c0,-0.276 0.224,-0.5 0.5,-0.5Zm7.39,10.812l-4,5c-0.088,0.111 -0.22,0.179 -0.362,0.187c-0.142,0.008 -0.281,-0.045 -0.382,-0.145l-2.25,-2.25c-0.195,-0.196 -0.195,-0.512 0,-0.708c0.196,-0.195 0.512,-0.195 0.708,0l1.855,1.855l3.651,-4.563c0.172,-0.216 0.487,-0.251 0.702,-0.078c0.216,0.172 0.251,0.487 0.078,0.702Zm-0.926,-4.124l-1,2.498c-0.102,0.256 -0.393,0.381 -0.65,0.278c-0.256,-0.102 -0.381,-0.393 -0.278,-0.65l3,-7.5c0.076,-0.19 0.26,-0.314 0.464,-0.314c0.204,0 0.388,0.124 0.464,0.314l3,7.5c0.103,0.257 -0.022,0.548 -0.278,0.65c-0.257,0.103 -0.548,-0.022 -0.65,-0.278l-1,-2.499l-3.072,0.001Zm2.672,-1l-1.136,-2.842l-1.136,2.842l2.272,-0Z" fill="#212121" />
</svg>
