<svg width="20" height="20" viewBox="0 0 20 20" xmlns="http://www.w3.org/2000/svg">
  <path d="M6,2c0.303,0 0.576,0.182 0.693,0.462l2.5,6c0.159,0.382 -0.022,0.821 -0.404,0.98c-0.383,0.16 -0.822,-0.021 -0.981,-0.404l-0.433,-1.038l-2.75,0l-0.432,1.038c-0.16,0.383 -0.599,0.564 -0.981,0.404c-0.383,-0.159 -0.563,-0.598 -0.404,-0.98l2.5,-6c0.116,-0.28 0.389,-0.462 0.692,-0.462Zm0,2.7l-0.75,1.8l1.5,0l-0.75,-1.8Zm9,-1.95c0,-0.414 -0.336,-0.75 -0.75,-0.75c-0.414,-0 -0.75,0.336 -0.75,0.75l0,12.572l-1.447,-1.579c-0.28,-0.305 -0.755,-0.326 -1.06,-0.046c-0.305,0.28 -0.326,0.755 -0.046,1.06l2.75,3c0.142,0.155 0.343,0.243 0.553,0.243c0.21,0 0.411,-0.088 0.553,-0.243l2.75,-3c0.28,-0.306 0.259,-0.78 -0.046,-1.06c-0.306,-0.28 -0.78,-0.259 -1.06,0.046l-1.447,1.579l-0,-12.572Zm-10,7.75c-0,0.276 -0.224,0.5 -0.5,0.5c-0.276,0 -0.5,-0.224 -0.5,-0.5c-0,-0.276 0.224,-0.5 0.5,-0.5c0.276,0 0.5,0.224 0.5,0.5Zm-3,4c-0,-2.046 1.913,-3.5 4,-3.5c2.087,0 4,1.454 4,3.5c-0,2.046 -1.913,3.5 -4,3.5c-2.087,0 -4,-1.454 -4,-3.5Zm4,-2c-1.503,0 -2.5,1.008 -2.5,2c-0,0.992 0.997,2 2.5,2c1.503,0 2.5,-1.008 2.5,-2c-0,-0.992 -0.997,-2 -2.5,-2Zm1.5,-1.5c0.276,0 0.5,-0.224 0.5,-0.5c-0,-0.276 -0.224,-0.5 -0.5,-0.5c-0.276,0 -0.5,0.224 -0.5,0.5c-0,0.276 0.224,0.5 0.5,0.5Z" style="fill:#212121;fill-rule:nonzero;"/>
</svg>
