<svg width="20" height="20" viewBox="0 0 20 20" xmlns="http://www.w3.org/2000/svg">
    <path d="M11.25,6.75c0,1.173 -0.307,3.2 -1.213,4.964c-1.036,2.016 -2.89,3.786 -5.791,3.786c-1.242,0 -2.25,-1.008 -2.25,-2.25c0,-1.242 1.008,-2.25 2.25,-2.25c0.938,0 1.453,-0.691 1.788,-1.343c0.111,-0.214 0.206,-0.435 0.288,-0.657l-2.072,0c-1.242,0 -2.25,-1.008 -2.25,-2.25c-0,-1.242 1.008,-2.25 2.25,-2.25l4.75,0c1.243,0 2.25,1.007 2.25,2.25Zm0,8.5l0,-10.5c0,-1.242 1.008,-2.25 2.25,-2.25c1.242,0 2.25,1.008 2.25,2.25l0,1.75c1.242,0 2.25,1.008 2.25,2.25c-0,1.242 -1.008,2.25 -2.25,2.25l0,4.25c0,1.242 -1.008,2.25 -2.25,2.25c-1.242,0 -2.25,-1.008 -2.25,-2.25Zm-7.004,-1.25c2.246,0 3.654,-1.411 4.457,-2.972c0.781,-1.52 1.047,-3.267 1.047,-4.278c0,-0.414 -0.336,-0.75 -0.75,-0.75l-4.75,0c-0.414,0 -0.75,0.336 -0.75,0.75c0,0.414 0.336,0.75 0.75,0.75l3.953,0c-0.095,0.829 -0.344,1.889 -0.835,2.843c-0.568,1.106 -1.531,2.157 -3.122,2.157c-0.414,0 -0.75,0.336 -0.75,0.75c0,0.414 0.336,0.75 0.75,0.75Zm8.504,1.25c0,0.414 0.336,0.75 0.75,0.75c0.414,-0 0.75,-0.336 0.75,-0.75l0,-5.75l1.5,-0c0.414,0 0.75,-0.336 0.75,-0.75c0,-0.414 -0.336,-0.75 -0.75,-0.75l-1.5,-0l0,-3.25c0,-0.414 -0.336,-0.75 -0.75,-0.75c-0.414,-0 -0.75,0.336 -0.75,0.75l0,10.5Z" fill="#212121" />
</svg>
