<svg width="20" height="20" viewBox="0 0 20 20" xmlns="http://www.w3.org/2000/svg">
  <path d="M5,2.5c0,0.276 -0.224,0.5 -0.5,0.5c-0.276,0 -0.5,-0.224 -0.5,-0.5c0,-0.276 0.224,-0.5 0.5,-0.5c0.276,0 0.5,0.224 0.5,0.5Zm-3,4c0,-2.003 1.866,-3.5 4,-3.5c2.134,0 4,1.497 4,3.5c0,2.003 -1.866,3.5 -4,3.5c-2.134,0 -4,-1.497 -4,-3.5Zm4,-2.5c-1.732,0 -3,1.189 -3,2.5c0,1.311 1.268,2.5 3,2.5c1.732,0 3,-1.189 3,-2.5c0,-1.311 -1.268,-2.5 -3,-2.5Zm8.5,-2c0.276,0 0.5,0.224 0.5,0.5l0,13.793l2.146,-2.147c0.196,-0.195 0.512,-0.195 0.708,0c0.195,0.196 0.195,0.512 -0,0.708l-3,3c-0.196,0.195 -0.512,0.195 -0.708,-0l-3,-3c-0.195,-0.196 -0.195,-0.512 0,-0.708c0.196,-0.195 0.512,-0.195 0.708,0l2.146,2.147l0,-13.793c0,-0.276 0.224,-0.5 0.5,-0.5Zm-7,1c-0.276,0 -0.5,-0.224 -0.5,-0.5c0,-0.276 0.224,-0.5 0.5,-0.5c0.276,0 0.5,0.224 0.5,0.5c0,0.276 -0.224,0.5 -0.5,0.5Zm-1.5,8c0.202,-0 0.384,0.121 0.462,0.308l2.5,6c0.106,0.254 -0.015,0.547 -0.27,0.653c-0.254,0.107 -0.547,-0.014 -0.653,-0.269l-0.498,-1.194l-0.041,0.002l-3,-0l-0.041,-0.002l-0.497,1.194c-0.107,0.255 -0.399,0.376 -0.654,0.269c-0.255,-0.106 -0.376,-0.399 -0.269,-0.653l2.5,-6c0.077,-0.187 0.259,-0.308 0.461,-0.308Zm0,1.8l-1.125,2.7l2.25,-0l-1.125,-2.7Z" fill="#212121" />
</svg>
