<svg width="20" height="20" viewBox="0 0 20 20" fill="none" xmlns="http://www.w3.org/2000/svg">
<path d="M9,4c0.2761,0 0.5,0.2239 0.5,0.5v11c0,0.2761 -0.2239,0.5 -0.5,0.5c-0.2761,0 -0.5,-0.2239 -0.5,-0.5v-5.5h-5.5v5.5c0,0.2761 -0.2239,0.5 -0.5,0.5c-0.2761,0 -0.5,-0.2239 -0.5,-0.5v-11c0,-0.2761 0.2239,-0.5 0.5,-0.5c0.2761,0 0.5,0.2239 0.5,0.5v4.5h5.5v-4.5c0,-0.2761 0.2239,-0.5 0.5,-0.5zM16.25,4c0.276,0 0.5,0.224 0.5,0.5c0,0.276 -0.224,0.5 -0.5,0.5h-3.9197l-0.2812,3h1.8259c2.2766,0 4.125,1.8484 4.125,4.125c0,2.2766 -1.8484,4.125 -4.125,4.125c-1.4958,0 -2.8068,-0.7977 -3.53,-1.9908c-0.143,-0.236 -0.0675,-0.5438 0.1685,-0.6868c0.236,-0.143 0.5437,-0.0676 0.6867,0.1684c0.548,0.9042 1.5413,1.5092 2.6748,1.5092c1.7247,0 3.125,-1.4003 3.125,-3.125c0,-1.7247 -1.4003,-3.125 -3.125,-3.125h-2.375c-0.1407,0 -0.2749,-0.0593 -0.3697,-0.1634c-0.0947,-0.104 -0.1413,-0.2432 -0.1281,-0.3833l0.375,-4c0.0241,-0.2569 0.2397,-0.4533 0.4978,-0.4533z
" fill="#212121"/>
</svg>
