<svg width="20" height="20" viewBox="0 0 20 20" xmlns="http://www.w3.org/2000/svg">
  <path d="M5.53,9.22l0.47,0.469l0.47,-0.469c0.293,-0.293 0.767,-0.293 1.06,-0c0.293,0.293 0.293,0.767 0,1.06l-1,1c-0.293,0.293 -0.767,0.293 -1.06,0l-1,-1c-0.293,-0.293 -0.293,-0.767 -0,-1.06c0.293,-0.293 0.767,-0.293 1.06,-0Zm-1.28,2.78l3.5,0c0.286,0 0.548,0.163 0.674,0.421c0.126,0.257 0.094,0.563 -0.082,0.79l-2.559,3.289l1.967,0c0.414,0 0.75,0.336 0.75,0.75c0,0.414 -0.336,0.75 -0.75,0.75l-3.5,0c-0.286,0 -0.548,-0.163 -0.674,-0.42c-0.126,-0.258 -0.094,-0.564 0.082,-0.79l2.559,-3.29l-1.967,0c-0.414,0 -0.75,-0.336 -0.75,-0.75c-0,-0.414 0.336,-0.75 0.75,-0.75Zm10,-10c0.414,0 0.75,0.336 0.75,0.75l0,12.572l1.447,-1.579c0.28,-0.305 0.755,-0.326 1.06,-0.046c0.305,0.28 0.326,0.755 0.046,1.06l-2.75,3c-0.142,0.155 -0.343,0.243 -0.553,0.243c-0.21,0 -0.411,-0.088 -0.553,-0.243l-2.75,-3c-0.28,-0.306 -0.259,-0.78 0.046,-1.06c0.306,-0.28 0.78,-0.259 1.06,0.046l1.447,1.579l0,-12.572c0,-0.414 0.336,-0.75 0.75,-0.75Zm-9.242,5.25l-0.312,0.779c-0.153,0.384 -0.59,0.571 -0.975,0.417c-0.384,-0.153 -0.571,-0.59 -0.417,-0.975l2,-5c0.114,-0.284 0.389,-0.471 0.696,-0.471c0.307,0 0.582,0.187 0.696,0.471l2,5c0.154,0.385 -0.033,0.822 -0.417,0.975c-0.385,0.154 -0.822,-0.033 -0.975,-0.417l-0.312,-0.779l-1.984,0Zm1.384,-1.5l-0.392,-0.981l-0.392,0.981l0.784,0Z" fill="#212121" />
</svg>
