<svg width="20" height="20" viewBox="0 0 20 20" fill="none" xmlns="http://www.w3.org/2000/svg">
<path d="M8.25,4c0.4142,0 0.75,0.3358 0.75,0.75v10.5c0,0.4142 -0.3358,0.75 -0.75,0.75c-0.4142,0 -0.75,-0.3358 -0.75,-0.75v-4.75h-4v4.75c0,0.4142 -0.3358,0.75 -0.75,0.75c-0.4142,0 -0.75,-0.3358 -0.75,-0.75v-10.5c0,-0.4142 0.3358,-0.75 0.75,-0.75c0.4142,0 0.75,0.3358 0.75,0.75v4.25h4v-4.25c0,-0.4142 0.3358,-0.75 0.75,-0.75zM11.2607,9.3362c0.716,-0.6734 1.6798,-1.0862 2.7393,-1.0862c2.2077,0 4,1.7923 4,4c0,2.2077 -1.7923,4 -4,4c-1.8901,0 -3.4755,-1.314 -3.8927,-3.0773c-0.2178,-0.9204 -0.3573,-2.1302 -0.3573,-3.1727c0,-1.551 0.1742,-3.079 0.7862,-4.2393c0.316,-0.5988 0.7547,-1.1106 1.3469,-1.4696c0.5947,-0.3602 1.3022,-0.5411 2.1169,-0.5411c0.8959,0 1.6602,0.2181 2.2863,0.6502c0.62,0.4281 1.053,1.0311 1.3478,1.7182c0.1633,0.3804 -0.013,0.8217 -0.3934,0.985c-0.3804,0.1632 -0.8218,-0.0131 -0.985,-0.3935c-0.1827,-0.4257 -0.4373,-0.8099 -0.8216,-1.0752c-0.391,-0.2699 -0.8745,-0.3847 -1.4341,-0.3847c-0.5139,0 -0.9644,0.0968 -1.3396,0.324c-0.3543,0.2148 -0.6085,0.5284 -0.7975,0.8866c-0.4222,0.8005 -0.5655,1.8163 -0.6022,2.8756zM11.567,12.8273c0.2607,1.102 1.2518,1.9227 2.433,1.9227c1.3798,0 2.5,-1.1202 2.5,-2.5c0,-1.3798 -1.1202,-2.5 -2.5,-2.5c-1.3798,0 -2.5,1.1202 -2.5,2.5c0,0.1987 0.0231,0.392 0.067,0.5773z
" fill="#212121"/>
</svg>
