<svg width="20" height="20" viewBox="0 0 20 20" xmlns="http://www.w3.org/2000/svg">
  <path d="M2,12.75c0,-0.414 0.336,-0.75 0.75,-0.75l6,0c0.414,0 0.75,0.336 0.75,0.75l0,4.5c0,0.414 -0.336,0.75 -0.75,0.75c-0.414,0 -0.75,-0.336 -0.75,-0.75l0,-3.75l-5.25,0c-0.414,0 -0.75,-0.336 -0.75,-0.75Zm12.25,-10.75c0.414,0 0.75,0.336 0.75,0.75l0,12.572l1.447,-1.579c0.28,-0.305 0.755,-0.326 1.06,-0.046c0.305,0.28 0.326,0.755 0.046,1.06l-2.75,3c-0.142,0.155 -0.343,0.243 -0.553,0.243c-0.21,0 -0.411,-0.088 -0.553,-0.243l-2.75,-3c-0.28,-0.306 -0.259,-0.78 0.046,-1.06c0.306,-0.28 0.78,-0.259 1.06,0.046l1.447,1.579l0,-12.572c0,-0.414 0.336,-0.75 0.75,-0.75Zm-5.5,2.75l-6,0c-0.414,-0 -0.75,-0.336 -0.75,-0.75c0,-0.414 0.336,-0.75 0.75,-0.75l2.25,0l0,-0.5c-0,-0.414 0.336,-0.75 0.75,-0.75c0.414,-0 0.75,0.336 0.75,0.75l0,0.5l2.25,0c0.414,-0 0.75,0.336 0.75,0.75c0,0.414 -0.336,0.75 -0.75,0.75Zm-3,0.5c1.21,0 2.277,0.438 2.942,1.081c0.518,0.501 0.808,1.126 0.808,1.794c0,0.668 -0.29,1.293 -0.808,1.794c-0.665,0.643 -1.732,1.081 -2.942,1.081c-1.21,0 -2.277,-0.438 -2.942,-1.081c-0.518,-0.501 -0.808,-1.126 -0.808,-1.794c0,-0.668 0.29,-1.293 0.808,-1.794c0.665,-0.643 1.732,-1.081 2.942,-1.081Zm0,1.5c-0.658,0 -1.256,0.179 -1.687,0.485c-0.329,0.232 -0.563,0.535 -0.563,0.89c0,0.355 0.234,0.658 0.563,0.89c0.431,0.306 1.029,0.485 1.687,0.485c0.658,0 1.256,-0.179 1.687,-0.485c0.329,-0.232 0.563,-0.535 0.563,-0.89c0,-0.355 -0.234,-0.658 -0.563,-0.89c-0.431,-0.306 -1.029,-0.485 -1.687,-0.485Z" fill="#212121" />
</svg>
