<svg width="20" height="20" viewBox="0 0 20 20" fill="none" xmlns="http://www.w3.org/2000/svg">
<path d="M14.7492,5.7929l0.0006,0.0405c-0.0001,0.2688 -0.0206,0.7938 0.1563,1.2747c0.0546,0.1482 0.1333,0.3057 0.2721,0.4276c0.1385,0.1215 0.3194,0.1852 0.5306,0.2102c0.1532,0.0181 0.6265,0.0055 0.8422,-0.5023c0.1619,-0.381 0.6026,-0.5588 0.9836,-0.397c0.381,0.1619 0.5589,0.6026 0.397,0.9836c-0.6118,1.4399 -1.9649,1.4567 -2.3993,1.4053c-0.5402,-0.064 -0.9891,-0.2614 -1.3436,-0.5724c-0.3411,-0.2995 -0.5561,-0.6727 -0.6902,-1.0367c-0.2493,-0.6773 -0.2489,-1.4132 -0.2487,-1.7925c0,-0.0111 -0.0001,-0.0669 0.0001,-0.0758l0.0002,-0.0065c0.0006,-0.0216 0.002,-0.0505 0.0038,-0.0846c0.0038,-0.077 0.0114,-0.1844 0.0263,-0.3108c0.0293,-0.2499 0.0891,-0.5966 0.2147,-0.9534c0.1254,-0.3563 0.3314,-0.7637 0.6728,-1.0873c0.3679,-0.3485 0.8547,-0.5657 1.4529,-0.5657c0.0026,0 0.0244,0.0002 0.0318,0.0002c0.2658,-0.0004 0.7279,-0.0002 1.1781,0.2351c0.495,0.2587 0.8735,0.74 1.1213,1.4724c0.1327,0.3921 -0.078,0.8182 -0.4701,0.9508c-0.3921,0.1327 -0.8181,-0.078 -0.9508,-0.4701c-0.0988,-0.2922 -0.1977,-0.5205 -0.3952,-0.6237c-0.1817,-0.095 -0.3733,-0.0647 -0.4806,-0.0645c-0.0003,0 -0.0245,-0.0001 -0.0362,-0.0002c-0.1714,0.0004 -0.314,0.0547 -0.4195,0.1546c-0.1534,0.1454 -0.2332,0.3362 -0.2895,0.4963c-0.083,0.2357 -0.1206,0.4656 -0.1399,0.6305c-0.0101,0.0855 -0.0154,0.1587 -0.018,0.2108c-0.001,0.0191 -0.002,0.036 -0.0028,0.0509zM4.6963,2.7501c0.3136,0.0044 0.5913,0.2035 0.6962,0.4991l1.7742,5c0.1385,0.3904 -0.0657,0.8191 -0.456,0.9576c-0.3904,0.1385 -0.8191,-0.0656 -0.9576,-0.456l-0.089,-0.2508h-2.1097l-0.1048,0.2708c-0.1495,0.3862 -0.5839,0.5782 -0.9701,0.4286c-0.3863,-0.1495 -0.5783,-0.5839 -0.4287,-0.9701l1.9355,-5c0.1132,-0.2925 0.3964,-0.4837 0.71,-0.4792zM4.6551,5.6566l-0.52,1.3434h0.9967zM8.0002,3.5c0,-0.4142 0.3358,-0.75 0.75,-0.75h1.5076c0.1682,-0.0001 0.6627,-0.0003 1.1258,0.2602c0.2504,0.1408 0.4894,0.3557 0.6604,0.6681c0.1689,0.3085 0.2496,0.6718 0.2496,1.0805c0,0.4055 -0.0897,0.7463 -0.2413,1.0245c0.1036,0.0981 0.1999,0.214 0.2829,0.3504c0.1911,0.3137 0.2829,0.6875 0.2829,1.1077c0,0.8435 -0.4024,1.4008 -0.9228,1.7033c-0.462,0.2685 -0.9576,0.3052 -1.1952,0.3052h-1.6285v-0.0097c-0.0395,0.0065 -0.08,0.0098 -0.1214,0.0098c-0.4142,0 -0.75,-0.3358 -0.75,-0.75zM10.2819,5.2501c0.1016,-0.0012 0.2526,-0.0231 0.3569,-0.0864c0.0428,-0.0259 0.0727,-0.0556 0.0955,-0.0965c0.0231,-0.0416 0.0593,-0.1319 0.0593,-0.3084c0,-0.212 -0.0413,-0.3163 -0.0653,-0.3603c-0.0219,-0.0399 -0.0467,-0.0622 -0.08,-0.0809c-0.097,-0.0546 -0.2411,-0.0676 -0.3981,-0.0676h-0.75v1.0001zM10.5001,7.7499c0.1205,0 0.3089,-0.0251 0.4414,-0.1021c0.0556,-0.0323 0.0913,-0.0678 0.1161,-0.11c0.0241,-0.0413 0.0605,-0.1274 0.0605,-0.2964c0,-0.2005 -0.0425,-0.2922 -0.064,-0.3276c-0.0206,-0.0339 -0.0492,-0.061 -0.1007,-0.0865c-0.1365,-0.0676 -0.3263,-0.0772 -0.5176,-0.0772h-0.9356v0.9998zM5.30034 10.752C5.68831 10.7807 5.99414 11.1046 5.99414 11.4999V16.4999C5.99414 16.9141 5.65835 17.2499 5.24414 17.2499C4.82993 17.2499 4.49414 16.9141 4.49414 16.4999V13.8013C4.42911 13.8506 4.36307 13.8976 4.29623 13.9421C3.95159 14.1719 3.48593 14.0788 3.25617 13.7341C3.0264 13.3895 3.11953 12.9238 3.46418 12.6941C4.024 12.3208 4.42548 11.7313 4.51117 11.3396C4.558 11.1256 4.69194 10.953 4.86764 10.8511C4.99558 10.7769 5.14565 10.7401 5.30034 10.752ZM9.83545 12.25C9.52626 12.25 9.25024 12.5405 9.25024 12.8636C9.25024 13.2779 8.91446 13.6136 8.50024 13.6136C8.08603 13.6136 7.75024 13.2779 7.75024 12.8636C7.75024 11.8231 8.59095 10.75 9.83545 10.75C10.545 10.75 11.2409 11.0818 11.635 11.6876C12.0517 12.3282 12.0515 13.1479 11.5948 13.9254C11.3604 14.3243 11.0426 14.6193 10.7488 14.8514C10.6014 14.9678 10.4506 15.0755 10.3131 15.1727L10.253 15.2151C10.135 15.2984 10.0283 15.3737 9.9248 15.4515C9.78456 15.5571 9.66811 15.6542 9.57368 15.75H11.1932C11.6074 15.75 11.9432 16.0858 11.9432 16.5C11.9432 16.9142 11.6074 17.25 11.1932 17.25H8.55151C8.54293 17.25 8.53439 17.2499 8.52588 17.2496C8.51737 17.2499 8.50882 17.25 8.50024 17.25C8.08603 17.25 7.75024 16.9142 7.75024 16.5C7.75024 15.3423 8.4378 14.6933 9.02286 14.253C9.14625 14.1601 9.27405 14.07 9.39102 13.9875L9.44733 13.9477C9.58363 13.8514 9.7058 13.7637 9.81914 13.6742C10.0469 13.4943 10.202 13.3348 10.3015 13.1655C10.5123 12.8067 10.4414 12.6036 10.3776 12.5055C10.2912 12.3727 10.097 12.25 9.83545 12.25ZM14.7216 12.615C14.7394 12.5528 14.7833 12.4621 14.8627 12.392C14.9279 12.3345 15.0612 12.25 15.3466 12.25C15.8386 12.25 15.9428 12.5593 15.9428 12.6364C15.9428 12.8065 15.9054 12.9496 15.8344 13.039C15.7894 13.0955 15.6399 13.25 15.1222 13.25C14.708 13.25 14.3722 13.5858 14.3722 14C14.3722 14.4142 14.708 14.75 15.1222 14.75C15.3243 14.75 15.5845 14.7778 15.7675 14.8637C15.8494 14.9021 15.8865 14.9387 15.9035 14.9625C15.9153 14.9791 15.9428 15.0228 15.9428 15.1364C15.9428 15.4707 15.841 15.5841 15.7883 15.6286C15.7129 15.6922 15.5696 15.75 15.3466 15.75C15.0856 15.75 14.9648 15.7044 14.9064 15.6675C14.8624 15.6396 14.7845 15.5743 14.7129 15.3565C14.5834 14.963 14.1595 14.749 13.766 14.8785C13.3726 15.008 13.1586 15.4319 13.288 15.8253C13.4407 16.2894 13.6994 16.6786 14.1041 16.9348C14.4944 17.1819 14.9345 17.25 15.3466 17.25C15.7967 17.25 16.3264 17.1373 16.7559 16.7748C17.208 16.3932 17.4428 15.8248 17.4428 15.1364C17.4428 14.7385 17.3334 14.3845 17.1251 14.0922C17.0915 14.0449 17.0561 14.0005 17.0194 13.9587C17.3814 13.4945 17.4428 12.963 17.4428 12.6364C17.4428 11.7134 16.6494 10.75 15.3466 10.75C14.7182 10.75 14.226 10.9534 13.8704 11.2671C13.529 11.5682 13.3567 11.932 13.2793 12.2032C13.1655 12.6015 13.3962 13.0165 13.7945 13.1303C14.1928 13.244 14.6079 13.0133 14.7216 12.615Z" fill="#212121"/>
</svg>
