<svg width="20" height="20" viewBox="0 0 20 20" fill="none" xmlns="http://www.w3.org/2000/svg">
<path d="M3.51999,3.27047c-0.12849,0.11357 -0.25969,0.22953 -0.42146,0.22953h-0.09988c-0.27615,0 -0.51043,-0.23027 -0.42053,-0.49136c0.0928,-0.26951 0.263,-0.49389 0.49005,-0.66118c0.33619,-0.24769 0.76291,-0.34746 1.18048,-0.34746c0.85661,0 1.75,0.57322 1.75,1.5v0.46291c0.00089,0.01225 0.00135,0.02461 0.00135,0.03709v0.57153c0,0.02443 -0.00045,0.04875 -0.00135,0.07297v1.3555c0,0.27614 -0.22386,0.5 -0.5,0.5c-0.1929,0 -0.36028,-0.10923 -0.44367,-0.26921c-0.28798,0.17107 -0.62429,0.26931 -0.98355,0.26931h-0.07138c-0.82845,0 -1.50005,-0.6716 -1.50005,-1.50005c0,-0.82846 0.6716,-1.50005 1.50005,-1.50005h0.9986c0,-0.17779 -0.22591,-0.5 -0.75,-0.5c-0.2728,0 -0.47107,0.0669 -0.5873,0.15254c-0.04767,0.03512 -0.09433,0.07636 -0.14136,0.11793zM4.99865,4.62212v-0.12212h-0.9986c-0.27617,0 -0.50005,0.22388 -0.50005,0.50005c0,0.27617 0.22388,0.50005 0.50005,0.50005h0.07138c0.49586,0 0.90094,-0.38867 0.92722,-0.87798zM8.5,4c-0.27614,0 -0.5,0.22386 -0.5,0.5c0,0.27614 0.22386,0.5 0.5,0.5h8c0.2761,0 0.5,-0.22386 0.5,-0.5c0,-0.27614 -0.2239,-0.5 -0.5,-0.5zM8.5,9.5c-0.27614,0 -0.5,0.22386 -0.5,0.5c0,0.27614 0.22386,0.5 0.5,0.5h8c0.2761,0 0.5,-0.22386 0.5,-0.5c0,-0.27614 -0.2239,-0.5 -0.5,-0.5zM8.5,15c-0.27614,0 -0.5,0.2239 -0.5,0.5c0,0.2761 0.22386,0.5 0.5,0.5h8c0.2761,0 0.5,-0.2239 0.5,-0.5c0,-0.2761 -0.2239,-0.5 -0.5,-0.5zM3.5,15.75c0,-0.3855 0.11573,-0.6929 0.30528,-0.8987c0.18336,-0.1991 0.47964,-0.3513 0.94472,-0.3513c0.45772,0 0.75196,0.1484 0.93579,0.3432c0.18955,0.2008 0.506,0.21 0.70682,0.0204c0.20081,-0.1895 0.20994,-0.506 0.02039,-0.7068c-0.39936,-0.4231 -0.97139,-0.6568 -1.663,-0.6568c-0.70159,0 -1.28031,0.2395 -1.68028,0.6738c-0.39378,0.4276 -0.56972,0.9952 -0.56972,1.5762c0,0.581 0.17594,1.1486 0.56972,1.5762c0.39997,0.4343 0.97869,0.6738 1.68028,0.6738c0.69161,0 1.26364,-0.2337 1.663,-0.6568c0.18955,-0.2008 0.18042,-0.5173 -0.02039,-0.7068c-0.20082,-0.1896 -0.51727,-0.1804 -0.70682,0.0204c-0.18383,0.1948 -0.47807,0.3432 -0.93579,0.3432c-0.46508,0 -0.76136,-0.1522 -0.94472,-0.3513c-0.18955,-0.2058 -0.30528,-0.5132 -0.30528,-0.8987zM4,8c0,-0.27614 -0.22386,-0.5 -0.5,-0.5c-0.27614,0 -0.5,0.22386 -0.5,0.5v4c0,0.2761 0.22386,0.5 0.5,0.5c0.17952,0 0.33695,-0.0946 0.42513,-0.2367c0.2885,0.1613 0.61677,0.2367 0.94987,0.2367c1.0756,0 1.875,-0.9373 1.875,-2c0,-1.06273 -0.7994,-2 -1.875,-2c-0.30461,0 -0.60519,0.06302 -0.875,0.19718zM4,10.5c0,-0.39504 0.11915,-0.63366 0.25711,-0.77228c0.1399,-0.14055 0.34816,-0.22772 0.61789,-0.22772c0.44319,0 0.875,0.40587 0.875,1c0,0.5941 -0.43181,1 -0.875,1c-0.26973,0 -0.47799,-0.0872 -0.61789,-0.2277c-0.13796,-0.1386 -0.25711,-0.3773 -0.25711,-0.7723z" fill="#212121"/>
</svg>
