<svg width="20" height="20" viewBox="0 0 20 20" xmlns="http://www.w3.org/2000/svg">
  <path d="M12.679,16.383c-0.025,-0.021 -0.048,-0.044 -0.069,-0.071l-5.064,-6.338l-2.579,6.706c-0.099,0.257 -0.389,0.386 -0.646,0.287c-0.258,-0.099 -0.387,-0.389 -0.288,-0.646l5.001,-13c0.099,-0.258 0.388,-0.387 0.646,-0.288c0.258,0.1 0.386,0.389 0.287,0.647l-1.856,4.824l8.111,-5.42c0.23,-0.153 0.54,-0.091 0.694,0.138c0.153,0.23 0.091,0.54 -0.138,0.694l-8.339,5.572l4.617,5.781c0.112,-0.214 0.366,-0.322 0.602,-0.243c0.262,0.087 0.404,0.37 0.316,0.632l-0.666,2c-0.088,0.262 -0.371,0.404 -0.633,0.316c-0.262,-0.087 -0.403,-0.37 -0.316,-0.632l0.32,-0.959Z" fill="#212121" />
</svg>
