<svg width="20" height="20" viewBox="0 0 20 20" xmlns="http://www.w3.org/2000/svg">
  <path d="M9,4.25l-5.5,0c0,0.414 -0.336,0.75 -0.75,0.75c-0.414,0 -0.75,-0.336 -0.75,-0.75l0,-0.75c0,-0.414 0.336,-0.75 0.75,-0.75l2.75,0c0,-0.414 0.336,-0.75 0.75,-0.75c0.414,0 0.75,0.336 0.75,0.75l2.75,0c0.414,0 0.75,0.336 0.75,0.75l0,0.75c0,0.414 -0.336,0.75 -0.75,0.75c-0.414,0 -0.75,-0.336 -0.75,-0.75Zm-1.689,3l2.439,0c0.414,0 0.75,0.336 0.75,0.75c0,0.414 -0.336,0.75 -0.75,0.75l-2.75,0l0,1.625c0,0.897 -0.728,1.625 -1.625,1.625c-0.455,0 -0.866,-0.187 -1.161,-0.488c-0.289,-0.296 -0.285,-0.771 0.011,-1.061c0.296,-0.289 0.771,-0.284 1.061,0.011c0.022,0.023 0.054,0.038 0.089,0.038c0.069,0 0.125,-0.056 0.125,-0.125l-0,-1.625l-2.75,0c-0.414,0 -0.75,-0.336 -0.75,-0.75c-0,-0.414 0.336,-0.75 0.75,-0.75l2.75,0c0,-0.192 0.073,-0.384 0.22,-0.53l0.219,-0.22l-1.689,0c-0.414,0 -0.75,-0.336 -0.75,-0.75c-0,-0.414 0.336,-0.75 0.75,-0.75l3.5,0c0.192,0 0.384,0.073 0.53,0.22c0.293,0.292 0.293,0.768 0,1.06l-0.969,0.97Zm6.775,5.469l-4,4.999c-0.134,0.167 -0.332,0.269 -0.545,0.281c-0.213,0.012 -0.42,-0.068 -0.571,-0.219l-2.25,-2.25c-0.293,-0.293 -0.293,-0.767 -0,-1.06c0.293,-0.293 0.767,-0.293 1.06,-0l1.658,1.657l3.476,-4.345c0.259,-0.324 0.731,-0.376 1.054,-0.118c0.324,0.259 0.376,0.731 0.118,1.055Zm-0.972,-3.578l-0.669,1.642c-0.157,0.383 -0.595,0.568 -0.978,0.412c-0.383,-0.157 -0.568,-0.595 -0.412,-0.978l2.75,-6.75c0.115,-0.282 0.39,-0.467 0.695,-0.467c0.305,0 0.58,0.185 0.695,0.467l2.75,6.75c0.156,0.383 -0.029,0.821 -0.412,0.978c-0.383,0.156 -0.821,-0.029 -0.978,-0.412l-0.669,-1.642l-2.772,-0Zm2.161,-1.5l-0.775,-1.903l-0.775,1.903l1.55,-0Z" fill="#212121" />
</svg>
