<svg width="20" height="20" viewBox="0 0 20 20" fill="none" xmlns="http://www.w3.org/2000/svg">
<path d="M15,13.5h-4c-0.3603,0 -0.6927,-0.1938 -0.8702,-0.5073c-0.1775,-0.3135 -0.1727,-0.6983 0.0127,-1.0072l4.5,-7.5c0.2313,-0.3854 0.6913,-0.5692 1.1244,-0.4492c0.4332,0.12 0.7331,0.5142 0.7331,0.9637v7l0.7495,0.0015c0.4139,0 0.7505,0.3366 0.7505,0.7505c0,0.4139 -0.3366,0.7495 -0.7508,0.7495l-0.7482,-0.0005v1.751c0,0.4142 -0.3359,0.7499 -0.75,0.75c-0.4142,0 -0.75,-0.3358 -0.75,-0.75zM11.8831,12h3.1169v-5.1949zM8.5,4c0.4142,0 0.75,0.3358 0.75,0.75v10.5c0,0.4142 -0.3358,0.75 -0.75,0.75c-0.4142,0 -0.75,-0.3358 -0.75,-0.75v-4.75h-4.25v4.75c0,0.4142 -0.3358,0.75 -0.75,0.75c-0.4142,0 -0.75,-0.3358 -0.75,-0.75v-10.5c0,-0.4142 0.3358,-0.75 0.75,-0.75c0.4142,0 0.75,0.3358 0.75,0.75v4.25h4.25v-4.25c0,-0.4142 0.3358,-0.75 0.75,-0.75z
" fill="#212121"/>
</svg>
