<svg width="20" height="20" viewBox="0 0 20 20" xmlns="http://www.w3.org/2000/svg">
  <path d="M15,2.5l0,13.793l2.146,-2.147c0.196,-0.195 0.512,-0.195 0.708,0c0.195,0.196 0.195,0.512 -0,0.708l-3,3c-0.196,0.195 -0.512,0.195 -0.708,-0l-3,-3c-0.195,-0.196 -0.195,-0.512 0,-0.708c0.196,-0.195 0.512,-0.195 0.708,0l2.146,2.147l0,-13.793c0,-0.276 0.224,-0.5 0.5,-0.5c0.276,0 0.5,0.224 0.5,0.5Zm-12.5,-0.5l7,0c0.276,0 0.5,0.224 0.5,0.5l0,5c0,0.276 -0.224,0.5 -0.5,0.5c-0.276,0 -0.5,-0.224 -0.5,-0.5l0,-4.5l-6.5,0c-0.276,0 -0.5,-0.224 -0.5,-0.5c0,-0.276 0.224,-0.5 0.5,-0.5Zm7,10l-7,0c-0.276,-0 -0.5,-0.224 -0.5,-0.5c0,-0.276 0.224,-0.5 0.5,-0.5l3,0l0,-0.5c-0,-0.276 0.224,-0.5 0.5,-0.5c0.276,-0 0.5,0.224 0.5,0.5l0,0.5l3,0c0.276,-0 0.5,0.224 0.5,0.5c0,0.276 -0.224,0.5 -0.5,0.5Zm-3.5,1c1.287,0 2.424,0.373 3.132,0.925c0.561,0.437 0.868,0.991 0.868,1.575c0,0.584 -0.307,1.138 -0.868,1.575c-0.708,0.552 -1.845,0.925 -3.132,0.925c-1.287,0 -2.424,-0.373 -3.132,-0.925c-0.561,-0.437 -0.868,-0.991 -0.868,-1.575c0,-0.584 0.307,-1.138 0.868,-1.575c0.708,-0.552 1.845,-0.925 3.132,-0.925Zm0,1c-1.031,0 -1.95,0.272 -2.517,0.714c-0.288,0.224 -0.483,0.486 -0.483,0.786c0,0.3 0.195,0.562 0.483,0.786c0.567,0.442 1.486,0.714 2.517,0.714c1.031,0 1.95,-0.272 2.517,-0.714c0.288,-0.224 0.483,-0.486 0.483,-0.786c0,-0.3 -0.195,-0.562 -0.483,-0.786c-0.567,-0.442 -1.486,-0.714 -2.517,-0.714Z" fill="#212121" />
</svg>
