<svg width="20" height="20" viewBox="0 0 20 20" fill="none" xmlns="http://www.w3.org/2000/svg">
<path d="M8.5519,10.6004h-5.9515c-0.3311,0 -0.6,-0.2689 -0.6,-0.6c0,-0.3312 0.2689,-0.6 0.6,-0.6h5.9515l-4.2084,-4.2083c-0.2341,-0.2342 -0.2341,-0.6144 0,-0.8486c0.2342,-0.2341 0.6144,-0.2341 0.8486,0l4.2083,4.2084v-5.9515c0,-0.3312 0.2689,-0.6 0.6,-0.6c0.3311,0 0.6,0.2688 0.6,0.6v5.9515l4.2083,-4.2084c0.2342,-0.2341 0.6144,-0.2341 0.8486,0c0.2341,0.2342 0.2341,0.6144 0,0.8486l-4.2084,4.2083h5.9515c0.3311,0 0.6,0.2688 0.6,0.6c0,0.3311 -0.2689,0.6 -0.6,0.6h-5.9515l4.2084,4.2083c0.2341,0.2342 0.2341,0.6144 0,0.8485c-0.2342,0.2342 -0.6144,0.2342 -0.8486,0l-4.2083,-4.2083v5.9515c0,0.3311 -0.2689,0.6 -0.6,0.6c-0.3311,0 -0.6,-0.2689 -0.6,-0.6v-5.9515l-4.2083,4.2083c-0.2342,0.2342 -0.6144,0.2342 -0.8486,0c-0.2341,-0.2341 -0.2341,-0.6143 0,-0.8485z" fill="#212121"/>
</svg>
