<svg width="20" height="20" viewBox="0 0 20 20" fill="none" xmlns="http://www.w3.org/2000/svg">
<path d="M15.6747,12.4997l0.7381,2.2351c0.1298,0.3931 0.5543,0.6068 0.9474,0.477c0.393,-0.1298 0.6068,-0.5543 0.477,-0.9473l-3.4674,-10.5c-0.1003,-0.3038 -0.3822,-0.5105 -0.7021,-0.5148c-0.3199,-0.0043 -0.6073,0.1948 -0.7157,0.4958l-3.7826,10.5c-0.1403,0.3894 0.062,0.8195 0.4514,0.9598c0.3894,0.1403 0.8195,-0.062 0.9598,-0.4514l0.8121,-2.2542zM11.9331,10.9997l1.6937,-4.7016l1.5526,4.7016zM6.4143,9.1709c0.3548,0.1775 0.4951,0.4462 0.5502,0.7571c-0.3516,-0.0854 -0.726,-0.1429 -1.1051,-0.1621c-0.8236,-0.0417 -1.7518,0.0941 -2.5262,0.6104c-2.0778,1.385 -1.3535,4.1943 0.7233,4.7489c1.0543,0.2816 2.074,-0.0308 2.9454,-0.569c0.0288,0.3879 0.3527,0.6936 0.7479,0.6936c0.4142,0 0.75,-0.3358 0.75,-0.75v-3.9998l0.0001,-0.0435c0.0015,-0.5022 0.0057,-1.9168 -1.4146,-2.6272c-0.6432,-0.3216 -1.3604,-0.4154 -1.9893,-0.3912c-0.6249,0.0241 -1.2339,0.1674 -1.6816,0.3912c-0.3705,0.1852 -0.5207,0.6357 -0.3354,1.0062c0.1852,0.3705 0.6357,0.5207 1.0062,0.3354c0.219,-0.1094 0.61,-0.2162 1.0685,-0.2339c0.4544,-0.0175 0.9038,0.0555 1.2606,0.2339zM6.9998,12.6799c-0.8881,0.8127 -1.8053,1.1966 -2.5563,0.9961c-0.9237,-0.2467 -1.2017,-1.4361 -0.2783,-2.0516c0.4172,-0.2781 0.9895,-0.3923 1.6183,-0.3605c0.4372,0.0222 0.8621,0.1134 1.2163,0.2354z" fill="#212121"/>
</svg>
