<svg width="20" height="20" viewBox="0 0 20 20" fill="none" xmlns="http://www.w3.org/2000/svg">
<path d="M4.5,3c0.2761,0 0.5,-0.2239 0.5,-0.5c0,-0.2761 -0.2239,-0.5 -0.5,-0.5c-0.2761,0 -0.5,0.2239 -0.5,0.5c0,0.2761 0.2239,0.5 0.5,0.5zM4.5,3.5c0.2761,0 0.5,0.2239 0.5,0.5v2.25c0,0.2761 -0.2239,0.5 -0.5,0.5c-0.2761,0 -0.5,-0.2239 -0.5,-0.5v-2.25c0,-0.2761 0.2239,-0.5 0.5,-0.5zM4.5,9.125c0.2761,0 0.5,0.2239 0.5,0.5v2.25c0,0.2761 -0.2239,0.5 -0.5,0.5c-0.2761,0 -0.5,-0.2239 -0.5,-0.5v-2.25c0,-0.2761 0.2239,-0.5 0.5,-0.5zM5,15.25c0,-0.2761 -0.2239,-0.5 -0.5,-0.5c-0.2761,0 -0.5,0.2239 -0.5,0.5v2.25c0,0.2761 0.2239,0.5 0.5,0.5c0.2761,0 0.5,-0.2239 0.5,-0.5zM8,4.5c0,-0.2761 0.2239,-0.5 0.5,-0.5h8c0.2761,0 0.5,0.2239 0.5,0.5c0,0.2761 -0.2239,0.5 -0.5,0.5h-8c-0.2761,0 -0.5,-0.2239 -0.5,-0.5zM8,10c0,-0.2761 0.2239,-0.5 0.5,-0.5h8c0.2761,0 0.5,0.2239 0.5,0.5c0,0.2761 -0.2239,0.5 -0.5,0.5h-8c-0.2761,0 -0.5,-0.2239 -0.5,-0.5zM8,15.5c0,-0.2761 0.2239,-0.5 0.5,-0.5h8c0.2761,0 0.5,0.2239 0.5,0.5c0,0.2761 -0.2239,0.5 -0.5,0.5h-8c-0.2761,0 -0.5,-0.2239 -0.5,-0.5zM5,8.125c0,0.2761 -0.2239,0.5 -0.5,0.5c-0.2761,0 -0.5,-0.2239 -0.5,-0.5c0,-0.2761 0.2239,-0.5 0.5,-0.5c0.2761,0 0.5,0.2239 0.5,0.5zM4.5,14.25c0.2761,0 0.5,-0.2239 0.5,-0.5c0,-0.2761 -0.2239,-0.5 -0.5,-0.5c-0.2761,0 -0.5,0.2239 -0.5,0.5c0,0.2761 0.2239,0.5 0.5,0.5z" fill="#212121"/>
</svg>
