<svg width="20" height="20" viewBox="0 0 20 20" fill="none" xmlns="http://www.w3.org/2000/svg">
<path d="M8.75,4c0.4142,0 0.75,0.3358 0.75,0.75v10.5c0,0.4142 -0.3358,0.75 -0.75,0.75c-0.4142,0 -0.75,-0.3358 -0.75,-0.75v-4.75h-4.5v4.75c0,0.4142 -0.3358,0.75 -0.75,0.75c-0.4142,0 -0.75,-0.3358 -0.75,-0.75v-10.5c0,-0.4142 0.3358,-0.75 0.75,-0.75c0.4142,0 0.75,0.3358 0.75,0.75v4.25h4.5v-4.25c0,-0.4142 0.3358,-0.75 0.75,-0.75zM16.25,4c0.4139,0 0.75,0.3361 0.75,0.75c0,0.4139 -0.3361,0.75 -0.75,0.75h-3.692l-0.2344,2.5h1.5514c2.2766,0 4.125,1.8484 4.125,4.125c0,2.2766 -1.8484,4.125 -4.125,4.125c-1.4287,0 -2.6889,-0.7276 -3.4291,-1.8326c-0.2304,-0.3439 -0.1382,-0.8101 0.2057,-1.0405c0.3439,-0.2304 0.8101,-0.1382 1.0405,0.2057c0.4713,0.7035 1.2733,1.1674 2.1829,1.1674c1.4488,0 2.625,-1.1762 2.625,-2.625c0,-1.4488 -1.1762,-2.625 -2.625,-2.625h-2.375c-0.2111,0 -0.4124,-0.089 -0.5545,-0.245c-0.1422,-0.1561 -0.2119,-0.3648 -0.1922,-0.575l0.375,-4c0.0361,-0.3854 0.3596,-0.68 0.7467,-0.68z
" fill="#212121"/>
</svg>
