<svg width="20" height="20" viewBox="0 0 20 20" fill="none" xmlns="http://www.w3.org/2000/svg">
<path d="M2,4.25c0,-0.4142 0.3358,-0.75 0.75,-0.75h14.5c0.4142,0 0.75,0.3358 0.75,0.75c0,0.4142 -0.3358,0.75 -0.75,0.75h-14.5c-0.4142,0 -0.75,-0.3358 -0.75,-0.75zM2,9.25c0,-0.4142 0.3358,-0.75 0.75,-0.75h12c1.7949,0 3.25,1.4551 3.25,3.25c0,1.7949 -1.4551,3.25 -3.25,3.25h-3.3987l0.2249,0.2699c0.2651,0.3182 0.2221,0.7911 -0.0961,1.0563c-0.3182,0.2651 -0.7911,0.2221 -1.0563,-0.0961l-1.25,-1.5c-0.2317,-0.2781 -0.2317,-0.6821 0,-0.9602l1.25,-1.5c0.2652,-0.3182 0.7381,-0.3612 1.0563,-0.0961c0.3182,0.2652 0.3612,0.7381 0.0961,1.0563l-0.2249,0.2699h3.3987c0.9665,0 1.75,-0.7835 1.75,-1.75c0,-0.9665 -0.7835,-1.75 -1.75,-1.75h-12c-0.4142,0 -0.75,-0.3358 -0.75,-0.75zM2,14.25c0,-0.4142 0.3358,-0.75 0.75,-0.75h3.5c0.4142,0 0.75,0.3358 0.75,0.75c0,0.4142 -0.3358,0.75 -0.75,0.75h-3.5c-0.4142,0 -0.75,-0.3358 -0.75,-0.75z" fill="#212121"/>
</svg>
