<svg width="20" height="20" viewBox="0 0 20 20" xmlns="http://www.w3.org/2000/svg">
  <path d="M13.891,12.812l-4,5c-0.089,0.111 -0.221,0.179 -0.363,0.187c-0.142,0.008 -0.281,-0.045 -0.381,-0.145l-2.25,-2.25c-0.196,-0.196 -0.196,-0.512 -0,-0.708c0.195,-0.195 0.511,-0.195 0.707,0l1.855,1.855l3.651,-4.563c0.172,-0.216 0.487,-0.251 0.703,-0.078c0.215,0.172 0.25,0.487 0.078,0.702Zm-8.391,-2.312l0,-7c-0,-0.276 0.224,-0.5 0.5,-0.5c0.276,-0 0.5,0.224 0.5,0.5l0,1.5l0.25,0c0.276,-0 0.5,0.224 0.5,0.5c0,0.276 -0.224,0.5 -0.5,0.5l-0.25,0l0,4.5c0,0.276 -0.224,0.5 -0.5,0.5c-0.276,-0 -0.5,-0.224 -0.5,-0.5Zm10.75,0l0,-7c0,-0.276 0.224,-0.5 0.5,-0.5c0.276,0 0.5,0.224 0.5,0.5l0,1.5l0.25,0c0.276,-0 0.5,0.224 0.5,0.5c-0,0.276 -0.224,0.5 -0.5,0.5l-0.25,0l0,4.5c0,0.276 -0.224,0.5 -0.5,0.5c-0.276,0 -0.5,-0.224 -0.5,-0.5Zm-5.5,0l0,-7c0,-0.276 0.224,-0.5 0.5,-0.5c0.276,0 0.5,0.224 0.5,0.5l0,1.5l0.25,0c0.276,-0 0.5,0.224 0.5,0.5c0,0.276 -0.224,0.5 -0.5,0.5l-0.25,0l0,4.5c0,0.276 -0.224,0.5 -0.5,0.5c-0.276,0 -0.5,-0.224 -0.5,-0.5Zm-8.108,-1.521c-0.265,0.079 -0.543,-0.072 -0.621,-0.337c-0.079,-0.265 0.072,-0.543 0.337,-0.621c0.647,-0.192 1.037,-0.724 1.276,-1.321c0.216,-0.543 0.316,-1.147 0.351,-1.7l-1.485,-0c-0.276,0 -0.5,-0.224 -0.5,-0.5c-0,-0.276 0.224,-0.5 0.5,-0.5l2,-0c0.133,-0 0.26,0.053 0.354,0.146c0.093,0.094 0.146,0.221 0.146,0.354c0,0.785 -0.105,1.737 -0.438,2.571c-0.351,0.881 -0.966,1.626 -1.92,1.908Zm5.623,-4.6c0.067,-0.268 0.339,-0.431 0.606,-0.364c0.268,0.067 0.431,0.339 0.364,0.606l-0.798,3.192l1.192,-0.298c0.267,-0.067 0.539,0.096 0.606,0.364c0.067,0.267 -0.096,0.539 -0.364,0.606l-2,0.5c-0.17,0.043 -0.35,-0.007 -0.475,-0.131c-0.124,-0.125 -0.174,-0.305 -0.131,-0.475l1,-4Zm6.735,-0.379c0.276,0 0.5,0.224 0.5,0.5c-0,0.276 -0.224,0.5 -0.5,0.5l-1,-0l-0,2.837l1.113,-0.318c0.265,-0.076 0.542,0.078 0.618,0.344c0.076,0.265 -0.078,0.542 -0.344,0.618l-1.75,0.5c-0.151,0.043 -0.313,0.013 -0.438,-0.082c-0.125,-0.094 -0.199,-0.242 -0.199,-0.399l0,-4c0,-0.133 0.053,-0.26 0.146,-0.354c0.094,-0.093 0.221,-0.146 0.354,-0.146l1.5,0Z" fill="#212121" />
</svg>
