<svg width="20" height="20" viewBox="0 0 20 20" fill="none" xmlns="http://www.w3.org/2000/svg">
<path d="M2.5009,4c-0.2762,0 -0.5,-0.2239 -0.5,-0.5c0,-0.2761 0.2238,-0.5 0.5,-0.5h15c0.2761,0 0.5,0.2239 0.5,0.5c0,0.2761 -0.2239,0.5 -0.5,0.5zM2.5009,9c-0.2762,0 -0.5,-0.2239 -0.5,-0.5c0,-0.2761 0.2238,-0.5 0.5,-0.5h15c0.2761,0 0.5,0.2239 0.5,0.5c0,0.2761 -0.2239,0.5 -0.5,0.5zM8.9397,12.4875c-0.1846,-0.2855 -0.5486,-0.4875 -0.9775,-0.4875c-0.6129,0 -1.0935,0.5546 -1.0935,1.1364c0,0.2761 -0.2238,0.5 -0.5,0.5c-0.2761,0 -0.5,-0.2239 -0.5,-0.5c0,-1.0547 0.8522,-2.1364 2.0935,-2.1364c0.73,0 1.4284,0.3434 1.8171,0.9443c0.4034,0.6235 0.4222,1.4416 -0.0575,2.2625c-0.2439,0.4174 -0.58,0.7354 -0.9133,1.0001c-0.167,0.1326 -0.3394,0.2565 -0.5032,0.3729c-0.0238,0.0169 -0.0474,0.0336 -0.0708,0.0502c-0.1405,0.0998 -0.2735,0.1941 -0.4022,0.2914c-0.4393,0.3325 -0.7569,0.6471 -0.8917,1.0786h2.5957c0.2762,0 0.5,0.2239 0.5,0.5c0,0.2761 -0.2238,0.5 -0.5,0.5h-3.1676c-0.2761,0 -0.5,-0.2239 -0.5,-0.5c0,-1.1948 0.6913,-1.8698 1.3603,-2.376c0.1419,-0.1074 0.2889,-0.2117 0.4288,-0.3109c0.0229,-0.0163 0.0457,-0.0324 0.0682,-0.0484c0.163,-0.1159 0.3163,-0.2264 0.4606,-0.3409c0.2892,-0.2297 0.5174,-0.4571 0.6718,-0.7215c0.3171,-0.5427 0.2514,-0.9519 0.0813,-1.2148zM12.9074,12c-0.4301,0 -0.6834,0.1326 -0.8378,0.2695c-0.1641,0.1455 -0.2506,0.3272 -0.2878,0.458c-0.0754,0.2656 -0.3519,0.4198 -0.6175,0.3444c-0.2657,-0.0754 -0.4199,-0.3519 -0.3444,-0.6176c0.0764,-0.2692 0.2479,-0.6329 0.5861,-0.9329c0.3478,-0.3085 0.8411,-0.5214 1.5014,-0.5214c1.3439,0 2.1066,0.9842 2.1066,1.8636c0,0.3528 -0.0679,0.8933 -0.4315,1.3533c-0.0719,0.0909 -0.1526,0.1754 -0.2425,0.2526c0.1352,0.1002 0.2619,0.2232 0.3689,0.3742c0.1965,0.2773 0.3051,0.619 0.3051,1.0199c0,0.7308 -0.2445,1.2913 -0.6785,1.6596c-0.4193,0.3559 -0.9502,0.4768 -1.4281,0.4768c-0.4524,0 -0.8939,-0.0758 -1.2726,-0.3168c-0.388,-0.247 -0.6486,-0.6279 -0.8091,-1.1186c-0.0859,-0.2624 0.0572,-0.5448 0.3196,-0.6307c0.2625,-0.0859 0.5449,0.0572 0.6308,0.3197c0.1071,0.3275 0.2482,0.492 0.3957,0.586c0.1569,0.0998 0.3847,0.1604 0.7356,0.1604c0.3254,0 0.5978,-0.0837 0.781,-0.2392c0.1684,-0.1429 0.3256,-0.4006 0.3256,-0.8972c0,-0.2126 -0.0547,-0.3482 -0.121,-0.4417c-0.0696,-0.0982 -0.1744,-0.1811 -0.3165,-0.2481c-0.2971,-0.1401 -0.6769,-0.1738 -0.9368,-0.1738c-0.2762,0 -0.5,-0.2239 -0.5,-0.5c0,-0.2761 0.2238,-0.5 0.5,-0.5c0.7051,0 1.0114,-0.2175 1.1583,-0.4033c0.1646,-0.2082 0.216,-0.4858 0.216,-0.7331c0,-0.3206 -0.3084,-0.8636 -1.1066,-0.8636zM3.7609,17.5v-4.1352c-0.2552,0.2769 -0.5438,0.5273 -0.8496,0.7323c-0.2294,0.1538 -0.54,0.0925 -0.6938,-0.1369c-0.1537,-0.2294 -0.0924,-0.5399 0.137,-0.6937c0.7323,-0.4909 1.2886,-1.2786 1.4178,-1.8728c0,0 0.1091,-0.3937 0.4606,-0.3937c0.5008,0 0.528,0.5 0.528,0.5v6c0,0.2761 -0.2239,0.5 -0.5,0.5c-0.2762,0 -0.5,-0.2239 -0.5,-0.5zM16.5009,14c-0.2762,0 -0.5,-0.2239 -0.5,-0.5c0,-0.2761 0.2238,-0.5 0.5,-0.5h1c0.2761,0 0.5,0.2239 0.5,0.5c0,0.2761 -0.2239,0.5 -0.5,0.5z" fill="#212121"/>
</svg>
