<svg width="20" height="20" viewBox="0 0 20 20" xmlns="http://www.w3.org/2000/svg">
  <path d="M15,2.5c0,-0.276 -0.224,-0.5 -0.5,-0.5c-0.276,0 -0.5,0.224 -0.5,0.5l0,13.793l-2.146,-2.147c-0.196,-0.195 -0.512,-0.195 -0.708,0c-0.195,0.196 -0.195,0.512 0,0.708l3,3c0.196,0.195 0.512,0.195 0.708,-0l3,-3c0.195,-0.196 0.195,-0.512 -0,-0.708c-0.196,-0.195 -0.512,-0.195 -0.708,0l-2.146,2.147l0,-13.793Zm-13,12c0,-2.002 1.866,-3.5 4,-3.5c2.134,0 4,1.498 4,3.5c0,2.002 -1.866,3.5 -4,3.5c-2.134,0 -4,-1.498 -4,-3.5Zm4,-2.5c-1.732,0 -3,1.189 -3,2.5c0,1.311 1.268,2.5 3,2.5c1.732,0 3,-1.189 3,-2.5c0,-1.311 -1.268,-2.5 -3,-2.5Zm-1.5,-1c0.276,0 0.5,-0.224 0.5,-0.5c0,-0.276 -0.224,-0.5 -0.5,-0.5c-0.276,0 -0.5,0.224 -0.5,0.5c0,0.276 0.224,0.5 0.5,0.5Zm3.5,-0.5c0,0.276 -0.224,0.5 -0.5,0.5c-0.276,0 -0.5,-0.224 -0.5,-0.5c0,-0.276 0.224,-0.5 0.5,-0.5c0.276,0 0.5,0.224 0.5,0.5Zm-2,-8.5c0.202,0 0.384,0.121 0.462,0.308l2.5,6c0.106,0.255 -0.015,0.547 -0.27,0.654c-0.254,0.106 -0.547,-0.015 -0.653,-0.27l-0.498,-1.194c-0.013,0.001 -0.027,0.002 -0.041,0.002l-3,0c-0.014,0 -0.027,-0.001 -0.041,-0.002l-0.497,1.194c-0.107,0.255 -0.399,0.376 -0.654,0.27c-0.255,-0.107 -0.376,-0.399 -0.269,-0.654l2.5,-6c0.077,-0.187 0.259,-0.308 0.461,-0.308Zm0,1.8l-1.125,2.7l2.25,0l-1.125,-2.7Z" style="fill:#212121;fill-rule:nonzero;"/>
</svg>
