<svg width="20" height="20" viewBox="0 0 20 20" xmlns="http://www.w3.org/2000/svg">
  <path d="M9,12.584l0,2.916c0,0.828 -0.672,1.5 -1.5,1.5c-0.828,0 -1.5,-0.672 -1.5,-1.5l0,-11c0,-0.828 0.672,-1.5 1.5,-1.5c0.828,0 1.5,0.672 1.5,1.5l0,2.916l3.365,-3.896c0.541,-0.627 1.489,-0.697 2.115,-0.155c0.627,0.541 0.697,1.488 0.155,2.115l-3.903,4.52l3.556,4.117c0.273,-0.374 0.714,-0.617 1.212,-0.617c0.828,0 1.5,0.672 1.5,1.5l0,1.5c0,0.828 -0.672,1.5 -1.5,1.5c-0.691,0 -1.274,-0.469 -1.447,-1.105c-0.577,0.228 -1.26,0.081 -1.688,-0.415l-3.365,-3.896Z" fill="#212121" />
</svg>
