<svg width="20" height="20" viewBox="0 0 20 20" xmlns="http://www.w3.org/2000/svg">
  <path d="M5.993,12.25l0,5c0,0.414 -0.336,0.75 -0.75,0.75c-0.414,0 -0.75,-0.336 -0.75,-0.75l0,-2.698c-0.065,0.049 -0.131,0.096 -0.198,0.14c-0.344,0.23 -0.81,0.137 -1.04,-0.208c-0.23,-0.344 -0.137,-0.81 0.208,-1.04c0.56,-0.373 0.961,-0.962 1.047,-1.354c0.047,-0.214 0.181,-0.387 0.357,-0.489c0.128,-0.074 0.278,-0.111 0.432,-0.099c0.388,0.029 0.694,0.353 0.694,0.748Zm3.256,1.364c0,0.414 -0.336,0.75 -0.75,0.75c-0.414,-0 -0.75,-0.336 -0.75,-0.75c0,-1.041 0.841,-2.114 2.085,-2.114c0.71,0 1.406,0.332 1.8,0.938c0.417,0.64 0.416,1.46 -0.04,2.238c-0.235,0.398 -0.552,0.694 -0.846,0.926c-0.148,0.116 -0.298,0.224 -0.436,0.321l-0.06,0.042c-0.118,0.084 -0.225,0.159 -0.328,0.237c-0.141,0.105 -0.257,0.203 -0.351,0.298l1.619,0c0.414,0 0.75,0.336 0.75,0.75c0,0.415 -0.336,0.75 -0.75,0.75l-2.642,0l-0.025,-0l-0.011,0l-0.015,0c-0.414,0 -0.75,-0.335 -0.75,-0.75c0,-1.157 0.688,-1.806 1.273,-2.247c0.123,-0.093 0.251,-0.183 0.368,-0.265l0.056,-0.04c0.137,-0.096 0.259,-0.184 0.372,-0.273c0.228,-0.18 0.383,-0.34 0.482,-0.509c0.211,-0.359 0.14,-0.562 0.077,-0.66c-0.087,-0.133 -0.281,-0.256 -0.543,-0.256c-0.309,0 -0.585,0.291 -0.585,0.614Zm5.613,-0.472c-0.08,0.07 -0.124,0.161 -0.141,0.223c-0.114,0.399 -0.529,0.629 -0.928,0.516c-0.398,-0.114 -0.628,-0.529 -0.515,-0.928c0.078,-0.271 0.25,-0.634 0.591,-0.936c0.356,-0.313 0.848,-0.517 1.477,-0.517c1.302,0 2.096,0.964 2.096,1.887c-0,0.326 -0.062,0.858 -0.424,1.322c0.037,0.042 0.072,0.086 0.106,0.133c0.208,0.293 0.318,0.647 0.318,1.045c-0,0.688 -0.235,1.256 -0.687,1.638c-0.43,0.363 -0.959,0.475 -1.409,0.475c-0.412,0 -0.853,-0.068 -1.243,-0.315c-0.405,-0.256 -0.663,-0.645 -0.816,-1.109c-0.129,-0.394 0.085,-0.818 0.478,-0.947c0.393,-0.13 0.817,0.084 0.947,0.478c0.072,0.218 0.149,0.283 0.193,0.311c0.059,0.037 0.18,0.082 0.441,0.082c0.223,0 0.366,-0.058 0.441,-0.121c0.053,-0.045 0.155,-0.158 0.155,-0.492c-0,-0.114 -0.028,-0.158 -0.04,-0.174c-0.017,-0.024 -0.054,-0.061 -0.136,-0.099c-0.183,-0.086 -0.443,-0.114 -0.645,-0.114c-0.414,0 -0.75,-0.335 -0.75,-0.75c0,-0.414 0.336,-0.75 0.75,-0.75c0.518,0 0.667,-0.154 0.712,-0.211c0.071,-0.089 0.109,-0.232 0.109,-0.402c-0,-0.077 -0.104,-0.387 -0.597,-0.387c-0.285,0 -0.418,0.085 -0.483,0.142Zm-9.862,-3.892l0,-6.5c-0,-0.414 0.336,-0.75 0.75,-0.75c0.414,-0 0.75,0.336 0.75,0.75l-0,1.25c0.414,-0 0.75,0.336 0.75,0.75c0,0.414 -0.336,0.75 -0.75,0.75l0,3.75c-0,0.414 -0.336,0.75 -0.75,0.75c-0.414,-0 -0.75,-0.336 -0.75,-0.75Zm5.5,0l-0,-6.5c-0,-0.414 0.336,-0.75 0.75,-0.75c0.414,0 0.75,0.336 0.75,0.75l-0,1.25c0.414,-0 0.75,0.336 0.75,0.75c0,0.414 -0.336,0.75 -0.75,0.75l-0,3.75c-0,0.414 -0.336,0.75 -0.75,0.75c-0.414,0 -0.75,-0.336 -0.75,-0.75Zm5.25,0l-0,-6.5c-0,-0.414 0.336,-0.75 0.75,-0.75c0.414,0 0.75,0.336 0.75,0.75l-0,1.25c0.414,-0 0.75,0.336 0.75,0.75c0,0.414 -0.336,0.75 -0.75,0.75l-0,3.75c-0,0.414 -0.336,0.75 -0.75,0.75c-0.414,0 -0.75,-0.336 -0.75,-0.75Zm-2.75,-5.5c0,-0.414 0.336,-0.75 0.75,-0.75l1,-0c0.414,0 0.75,0.336 0.75,0.75c-0,0.414 -0.336,0.75 -0.75,0.75l-0.25,-0l0,1.789l0.068,-0.017c0.402,-0.1 0.809,0.145 0.91,0.546c0.1,0.402 -0.145,0.809 -0.546,0.91l-1,0.25c-0.224,0.056 -0.461,0.005 -0.643,-0.137c-0.182,-0.142 -0.289,-0.36 -0.289,-0.591l0,-3.5Zm-9.779,0.75l-0.471,-0c-0.414,0 -0.75,-0.336 -0.75,-0.75c-0,-0.414 0.336,-0.75 0.75,-0.75l1.25,-0c0.414,0 0.75,0.336 0.75,0.75c0,0.689 -0.065,1.54 -0.28,2.293c-0.261,0.915 -0.762,1.622 -1.433,1.9c-0.382,0.158 -0.821,-0.023 -0.98,-0.406c-0.158,-0.382 0.023,-0.821 0.406,-0.98c0.305,-0.127 0.446,-0.508 0.564,-0.925c0.104,-0.364 0.163,-0.756 0.194,-1.132Zm4.796,-0.907c0.086,-0.405 0.485,-0.663 0.89,-0.576c0.405,0.086 0.663,0.485 0.576,0.89l-0.475,2.216l0.255,-0.085c0.393,-0.13 0.818,0.082 0.949,0.475c0.13,0.393 -0.082,0.818 -0.475,0.949l-1.5,0.5c-0.255,0.085 -0.537,0.026 -0.737,-0.153c-0.201,-0.18 -0.29,-0.453 -0.233,-0.716l0.75,-3.5Z" fill="#212121" />
</svg>
