<svg width="20" height="20" viewBox="0 0 20 20" xmlns="http://www.w3.org/2000/svg">
  <path d="M14.25,2c0.414,0 0.75,0.336 0.75,0.75l0,12.572l1.447,-1.579c0.28,-0.305 0.755,-0.326 1.06,-0.046c0.305,0.28 0.326,0.755 0.046,1.06l-2.75,3c-0.142,0.155 -0.343,0.243 -0.553,0.243c-0.21,0 -0.411,-0.088 -0.553,-0.243l-2.75,-3c-0.28,-0.306 -0.259,-0.78 0.046,-1.06c0.306,-0.28 0.78,-0.259 1.06,0.046l1.447,1.579l0,-12.572c0,-0.414 0.336,-0.75 0.75,-0.75Zm-9.633,14.563l-0.429,0.986c-0.165,0.38 -0.607,0.554 -0.987,0.389c-0.38,-0.165 -0.554,-0.607 -0.389,-0.987l2.5,-5.75c0.119,-0.274 0.39,-0.451 0.688,-0.451c0.299,-0 0.569,0.177 0.688,0.451l2.5,5.75c0.165,0.38 -0.009,0.822 -0.389,0.987c-0.379,0.165 -0.822,-0.009 -0.987,-0.389l-0.429,-0.986l-2.766,-0Zm2.114,-1.5l-0.731,-1.682l-0.731,1.682l1.462,-0Zm-2.114,-5.751l-0.429,0.987c-0.165,0.38 -0.607,0.554 -0.987,0.389c-0.38,-0.165 -0.554,-0.608 -0.389,-0.987l1.838,-4.226c-0.399,-0.366 -0.65,-0.892 -0.65,-1.475c0,-1.104 0.896,-2 2,-2c1.104,-0 2,0.896 2,2c0,0.583 -0.25,1.109 -0.65,1.475l1.838,4.226c0.165,0.379 -0.009,0.822 -0.389,0.987c-0.379,0.165 -0.822,-0.009 -0.987,-0.389l-0.429,-0.987l-2.766,0Zm2.114,-1.5l-0.731,-1.681l-0.731,1.681l1.462,0Zm-0.731,-4.312c-0.276,-0 -0.5,0.224 -0.5,0.5c0,0.276 0.224,0.5 0.5,0.5c0.276,-0 0.5,-0.224 0.5,-0.5c0,-0.276 -0.224,-0.5 -0.5,-0.5Z" fill="#212121" />
</svg>
