<svg width="20" height="20" viewBox="0 0 20 20" fill="none" xmlns="http://www.w3.org/2000/svg">
<path d="M3.7295,17.5v-3.963c-0.2576,0.2698 -0.5488,0.5133 -0.857,0.7119c-0.2321,0.1496 -0.5415,0.0828 -0.6911,-0.1493c-0.1497,-0.2322 -0.0828,-0.5416 0.1493,-0.6912c0.7337,-0.4729 1.2839,-1.2275 1.4107,-1.788c0.0556,-0.2461 0.284,-0.4083 0.5284,-0.388c0.2573,0.0205 0.4597,0.2358 0.4597,0.4984v5.7692c0,0.2761 -0.2239,0.5 -0.5,0.5c-0.2762,0 -0.5,-0.2239 -0.5,-0.5zM8.9453,12.6983c-0.1809,-0.2691 -0.5451,-0.4675 -0.9824,-0.4675c-0.6308,0 -1.0935,0.5421 -1.0935,1.0734c0,0.2761 -0.2239,0.5 -0.5,0.5c-0.2762,0 -0.5,-0.2239 -0.5,-0.5c0,-1.0422 0.87,-2.0734 2.0935,-2.0734c0.7215,0 1.4197,0.326 1.8121,0.9092c0.4107,0.6104 0.4279,1.4127 -0.0569,2.2106c-0.2458,0.4044 -0.5836,0.7112 -0.9165,0.9654c-0.167,0.1275 -0.3394,0.2467 -0.5032,0.3586l-0.0708,0.0483c-0.1405,0.0959 -0.2735,0.1866 -0.4021,0.2802c-0.4309,0.3134 -0.7382,0.6063 -0.8756,0.9969h2.5871c0.2761,0 0.5,0.2239 0.5,0.5c0,0.2761 -0.2239,0.5 -0.5,0.5h-3.1676c-0.2762,0 -0.5,-0.2239 -0.5,-0.5c0,-1.167 0.7025,-1.8215 1.3677,-2.3055c0.142,-0.1033 0.2889,-0.2035 0.4288,-0.2989l0.0683,-0.0467c0.163,-0.1113 0.3163,-0.2176 0.4605,-0.3277c0.2896,-0.2211 0.5162,-0.4388 0.6688,-0.6899c0.3119,-0.5134 0.2446,-0.8911 0.0818,-1.133zM12.9082,12.2308c-0.4355,0 -0.6913,0.1294 -0.8452,0.2607c-0.1624,0.1385 -0.2463,0.3097 -0.2818,0.4298c-0.0782,0.2649 -0.3563,0.4162 -0.6212,0.3379c-0.2648,-0.0782 -0.4161,-0.3563 -0.3379,-0.6211c0.0781,-0.2645 0.2522,-0.6177 0.592,-0.9075c0.3484,-0.2971 0.8391,-0.4998 1.4941,-0.4998c1.3252,0 2.1066,0.9366 2.1066,1.8112c0,0.3447 -0.0693,0.8727 -0.4376,1.3206c-0.0652,0.0793 -0.1376,0.1535 -0.2173,0.2219c0.1255,0.0929 0.2434,0.2057 0.3444,0.3427c0.1993,0.2705 0.3105,0.6057 0.3105,0.9994c0,0.7139 -0.2494,1.2603 -0.6859,1.6166c-0.419,0.3419 -0.947,0.4568 -1.4207,0.4568c-0.4497,0 -0.8882,-0.0723 -1.2651,-0.303c-0.3881,-0.2375 -0.6519,-0.6064 -0.8148,-1.0848c-0.089,-0.2615 0.0508,-0.5455 0.3122,-0.6345c0.2615,-0.089 0.5455,0.0508 0.6345,0.3122c0.1049,0.3083 0.2427,0.4639 0.3901,0.5542c0.1586,0.0971 0.3895,0.1559 0.7431,0.1559c0.3296,0 0.6049,-0.0818 0.7884,-0.2316c0.1659,-0.1354 0.3182,-0.3757 0.3182,-0.8418c0,-0.1964 -0.0522,-0.3201 -0.1155,-0.4061c-0.0676,-0.0917 -0.1714,-0.1715 -0.3152,-0.2367c-0.2997,-0.1359 -0.6824,-0.1684 -0.9437,-0.1684c-0.2761,0 -0.5,-0.2239 -0.5,-0.5c0,-0.2762 0.2239,-0.5 0.5,-0.5c0.7119,0 1.0198,-0.2121 1.1644,-0.3879c0.16,-0.1946 0.21,-0.4533 0.21,-0.6855c0,-0.2793 -0.2897,-0.8112 -1.1066,-0.8112zM2.7515,9c-0.4142,0 -0.75,-0.3358 -0.75,-0.75c0,-0.4142 0.3358,-0.75 0.75,-0.75h14.5c0.4142,0 0.75,0.3358 0.75,0.75c0,0.4142 -0.3358,0.75 -0.75,0.75zM2.7515,4c-0.4142,0 -0.75,-0.3358 -0.75,-0.75c0,-0.4142 0.3358,-0.75 0.75,-0.75h14.5c0.4142,0 0.75,0.3358 0.75,0.75c0,0.4142 -0.3358,0.75 -0.75,0.75zM16.7515,14c-0.4142,0 -0.75,-0.3358 -0.75,-0.75c0,-0.4142 0.3358,-0.75 0.75,-0.75h0.5c0.4142,0 0.75,0.3358 0.75,0.75c0,0.4142 -0.3358,0.75 -0.75,0.75z" fill="#212121"/>
</svg>
