<svg width="20" height="20" viewBox="0 0 20 20" fill="none" xmlns="http://www.w3.org/2000/svg">
<path d="M3.09853,3.5c0.16177,0 0.29297,-0.11596 0.42146,-0.22953c0.04703,-0.04157 0.09369,-0.08281 0.14136,-0.11793c0.11623,-0.08564 0.3145,-0.15254 0.5873,-0.15254c0.52409,0 0.75,0.32221 0.75,0.5h-0.9986c-0.82845,0 -1.50005,0.67159 -1.50005,1.50005c0,0.82845 0.6716,1.50005 1.50005,1.50005h0.07138c0.35926,0 0.69557,-0.09824 0.98355,-0.26931c0.08339,0.15998 0.25077,0.26921 0.44367,0.26921c0.27614,0 0.5,-0.22386 0.5,-0.5v-1.3555c0.0009,-0.02422 0.00135,-0.04854 0.00135,-0.07297v-0.57153c0,-0.01248 -0.00046,-0.02484 -0.00135,-0.03709v-0.46291c0,-0.92678 -0.89339,-1.5 -1.75,-1.5c-0.41757,0 -0.84429,0.09977 -1.18048,0.34746c-0.22705,0.16729 -0.39725,0.39167 -0.49005,0.66118c-0.0899,0.26109 0.14438,0.49136 0.42053,0.49136zM4.99865,4.5v0.12212c-0.02628,0.48931 -0.43136,0.87798 -0.92722,0.87798h-0.07138c-0.27617,0 -0.50005,-0.22388 -0.50005,-0.50005c0,-0.27617 0.22388,-0.50005 0.50005,-0.50005zM8.75,4c-0.41421,0 -0.75,0.33579 -0.75,0.75c0,0.41421 0.33579,0.75 0.75,0.75h7.5c0.4142,0 0.75,-0.33579 0.75,-0.75c0,-0.41421 -0.3358,-0.75 -0.75,-0.75zM8.75,9.5c-0.41421,0 -0.75,0.33579 -0.75,0.75c0,0.4142 0.33579,0.75 0.75,0.75h7.5c0.4142,0 0.75,-0.3358 0.75,-0.75c0,-0.41421 -0.3358,-0.75 -0.75,-0.75zM8.75,15c-0.41421,0 -0.75,0.3358 -0.75,0.75c0,0.4142 0.33579,0.75 0.75,0.75h7.5c0.4142,0 0.75,-0.3358 0.75,-0.75c0,-0.4142 -0.3358,-0.75 -0.75,-0.75zM3.5,7.5c0.27614,0 0.5,0.22386 0.5,0.5v0.69718c0.26981,-0.13416 0.57039,-0.19718 0.875,-0.19718c1.0756,0 1.875,0.93727 1.875,2c0,1.0627 -0.7994,2 -1.875,2c-0.3331,0 -0.66137,-0.0754 -0.94987,-0.2367c-0.08818,0.1421 -0.24561,0.2367 -0.42513,0.2367c-0.27614,0 -0.5,-0.2239 -0.5,-0.5v-4c0,-0.27614 0.22386,-0.5 0.5,-0.5zM4.25711,11.2723c0.1399,0.1405 0.34816,0.2277 0.61789,0.2277c0.44319,0 0.875,-0.4059 0.875,-1c0,-0.59413 -0.43181,-1 -0.875,-1c-0.26973,0 -0.47799,0.08717 -0.61789,0.22772c-0.13796,0.13862 -0.25711,0.37724 -0.25711,0.77228c0,0.395 0.11915,0.6337 0.25711,0.7723zM3.5,15.75c0,-0.3855 0.11573,-0.6929 0.30528,-0.8987c0.18336,-0.1991 0.47964,-0.3513 0.94472,-0.3513c0.45772,0 0.75196,0.1484 0.93579,0.3432c0.18955,0.2008 0.506,0.21 0.70682,0.0204c0.20081,-0.1895 0.20994,-0.506 0.02039,-0.7068c-0.39936,-0.4231 -0.97139,-0.6568 -1.663,-0.6568c-0.70159,0 -1.28031,0.2395 -1.68028,0.6738c-0.39378,0.4276 -0.56972,0.9952 -0.56972,1.5762c0,0.581 0.17594,1.1486 0.56972,1.5762c0.39997,0.4343 0.97869,0.6738 1.68028,0.6738c0.69161,0 1.26364,-0.2337 1.663,-0.6568c0.18955,-0.2008 0.18042,-0.5173 -0.02039,-0.7068c-0.20082,-0.1896 -0.51727,-0.1804 -0.70682,0.0204c-0.18383,0.1948 -0.47807,0.3432 -0.93579,0.3432c-0.46508,0 -0.76136,-0.1522 -0.94472,-0.3513c-0.18955,-0.2058 -0.30528,-0.5132 -0.30528,-0.8987z" fill="#212121"/>
</svg>
