<svg width="20" height="20" viewBox="0 0 20 20" xmlns="http://www.w3.org/2000/svg">
  <path d="M12.409,16.402l-4.781,-5.931l-2.172,6.033c-0.14,0.39 -0.57,0.592 -0.96,0.452c-0.39,-0.14 -0.592,-0.57 -0.451,-0.96l4.5,-12.5c0.14,-0.39 0.57,-0.592 0.959,-0.451c0.39,0.14 0.592,0.57 0.452,0.959l-1.412,3.923l7.294,-4.803c0.346,-0.228 0.811,-0.132 1.039,0.214c0.227,0.346 0.132,0.811 -0.214,1.039l-7.853,5.17l4.288,5.32c0.184,-0.117 0.417,-0.153 0.639,-0.079c0.393,0.131 0.605,0.556 0.475,0.949l-0.584,1.75c-0.131,0.393 -0.556,0.605 -0.949,0.475c-0.392,-0.131 -0.605,-0.556 -0.474,-0.949l0.204,-0.611Z" fill="#212121" />
</svg>
