<svg width="20" height="20" viewBox="0 0 20 20" fill="none" xmlns="http://www.w3.org/2000/svg">
<path d="M11.75,4v10.5c0,0.4142 0.3358,0.75 0.75,0.75c0.4142,0 0.75,-0.3358 0.75,-0.75v-0.1569c0.4926,0.4134 1.0969,0.6569 1.75,0.6569c1.6569,0 3,-1.567 3,-3.5c0,-1.933 -1.3431,-3.5 -3,-3.5c-0.6531,0 -1.2574,0.2435 -1.75,0.6569v-4.6569c0,-0.4142 -0.3358,-0.75 -0.75,-0.75c-0.4142,0 -0.75,0.3358 -0.75,0.75zM13.5,11.5c0,-1.3298 0.8802,-2 1.5,-2c0.6198,0 1.5,0.6702 1.5,2c0,1.3298 -0.8802,2 -1.5,2c-0.6198,0 -1.5,-0.6702 -1.5,-2zM8.5497,12.5l0.7381,2.2351c0.1298,0.3931 0.5543,0.6068 0.9474,0.477c0.393,-0.1298 0.6068,-0.5543 0.477,-0.9473l-3.4674,-10.5c-0.1003,-0.3037 -0.3822,-0.5105 -0.7021,-0.5147c-0.3199,-0.0043 -0.6073,0.1947 -0.7157,0.4957l-3.7826,10.5c-0.1403,0.3894 0.062,0.8195 0.4514,0.9598c0.3894,0.1403 0.8195,-0.062 0.9598,-0.4514l0.8121,-2.2542zM4.8081,11l1.6937,-4.7016l1.5526,4.7016z" fill="#212121"/>
</svg>
