<svg width="20" height="20" viewBox="0 0 20 20" fill="none" xmlns="http://www.w3.org/2000/svg">
<path d="M8.4998,3.9999c-0.2762,0 -0.5,0.2238 -0.5,0.5c0,0.2761 0.2238,0.5 0.5,0.5h8c0.2761,0 0.5,-0.2239 0.5,-0.5c0,-0.2762 -0.2239,-0.5 -0.5,-0.5zM8.4998,9.5c-0.2762,0 -0.5,0.2239 -0.5,0.5c0,0.2761 0.2238,0.5 0.5,0.5h8c0.2761,0 0.5,-0.2239 0.5,-0.5c0,-0.2761 -0.2239,-0.5 -0.5,-0.5zM7.9998,15.4999c0,-0.2762 0.2238,-0.5 0.5,-0.5h8c0.2761,0 0.5,0.2238 0.5,0.5c0,0.2761 -0.2239,0.5 -0.5,0.5h-8c-0.2762,0 -0.5,-0.2239 -0.5,-0.5zM3.5289,16.7844c0.0103,0.0106 0.0331,0.0361 0.0766,0.0652c0.0881,0.0588 0.2835,0.1504 0.6601,0.1504c0.5085,0 0.6717,-0.2839 0.6781,-0.4563c0.0034,-0.0914 -0.0299,-0.1821 -0.1106,-0.2551c-0.0862,-0.0781 -0.2579,-0.1636 -0.5675,-0.1636c-0.2761,0 -0.5,-0.2239 -0.5,-0.5c0,-0.2762 0.2239,-0.5 0.5,-0.5c0.3096,0 0.4812,-0.0855 0.5675,-0.1636c0.0807,-0.0731 0.114,-0.1638 0.1106,-0.2552c-0.0064,-0.1724 -0.1696,-0.4562 -0.6781,-0.4562c-0.3766,0 -0.572,0.0916 -0.6602,0.1504c-0.0434,0.029 -0.0677,0.0541 -0.0767,0.0649c-0.0009,0.0014 -0.0017,0.0024 -0.0028,0.0035c-0.1314,0.2267 -0.4181,0.3159 -0.6558,0.1972c-0.2468,-0.1235 -0.3466,-0.4241 -0.2235,-0.6709l0.0066,-0.0128l0.0082,-0.0149c0.0063,-0.0112 0.0143,-0.0247 0.0237,-0.0393c0.0185,-0.0288 0.0434,-0.0638 0.0758,-0.1027c0.0646,-0.0775 0.1585,-0.1695 0.2899,-0.257c0.2649,-0.1767 0.656,-0.3184 1.2148,-0.3184c0.9844,0 1.6485,0.6474 1.6774,1.4187c0.0129,0.3435 -0.1066,0.6876 -0.3595,0.9563c0.2528,0.2686 0.3724,0.6127 0.3595,0.9562c-0.0289,0.7713 -0.693,1.4188 -1.6774,1.4188c-0.5588,0 -0.9499,-0.1417 -1.2149,-0.3184c-0.1313,-0.0876 -0.2252,-0.1795 -0.2898,-0.2571c-0.0324,-0.0388 -0.0573,-0.0739 -0.0758,-0.1028c-0.0091,-0.0141 -0.0172,-0.0276 -0.0234,-0.0386l-0.0082,-0.0148l-0.0067,-0.0128c-0.1235,-0.247 -0.0236,-0.548 0.2233,-0.6715c0.2376,-0.1187 0.5244,-0.0305 0.6558,0.1961zM3.4434,8.9511c-0.1955,0.1918 -0.5092,0.1903 -0.7033,-0.0038c-0.1953,-0.1952 -0.1939,-0.5132 0.0014,-0.7084l0.0048,-0.0045l0.0088,-0.0088c0.01,-0.009 0.0188,-0.0169 0.0269,-0.0241l0.0042,-0.0035c0.0211,-0.0188 0.0489,-0.0432 0.0837,-0.0706c0.0737,-0.0579 0.1788,-0.1323 0.3128,-0.2061c0.2674,-0.1471 0.6588,-0.2962 1.146,-0.2963c0.003,0.0001 0.0056,0.0004 0.0084,0.0005c0.3571,0.0057 0.7444,0.0988 1.0556,0.3292c0.3308,0.2449 0.5447,0.6239 0.5447,1.1079c0,0.5244 -0.2319,0.8912 -0.5461,1.1531c-0.2372,0.1977 -0.5414,0.3472 -0.789,0.4687c-0.0393,0.0193 -0.0772,0.0379 -0.1132,0.0559c-0.2876,0.1438 -0.5061,0.2699 -0.6593,0.4384c-0.0509,0.056 -0.0973,0.1199 -0.135,0.1964h1.7426c0.2761,0 0.5,0.2239 0.5,0.5c0,0.2761 -0.2244,0.5 -0.5005,0.5h-2.3433c-0.2761,0 -0.5,-0.2239 -0.5,-0.5c0,-0.5896 0.1902,-1.0323 0.4963,-1.3691c0.2869,-0.3156 0.6549,-0.5116 0.952,-0.6602c0.0471,-0.0235 0.0928,-0.0461 0.1358,-0.0674c0.2506,-0.1241 0.433,-0.2139 0.5734,-0.3309c0.124,-0.1034 0.1863,-0.2064 0.1863,-0.3849c0,-0.1563 -0.0571,-0.243 -0.1399,-0.3043c-0.1023,-0.0758 -0.2682,-0.1292 -0.4732,-0.1333c-0.2772,0.0008 -0.5018,0.0857 -0.6595,0.1724c-0.0788,0.0434 -0.1387,0.0862 -0.177,0.1162c-0.0187,0.0147 -0.0318,0.026 -0.0389,0.0324zM5,2.5v3.75c0,0.2761 -0.2239,0.5 -0.5,0.5c-0.2761,0 -0.5,-0.2239 -0.5,-0.5c0,0 0,-2.352 -0.0005,-2.3515c-0.195,0.166 -0.4221,0.3249 -0.6821,0.4549c-0.247,0.1235 -0.5474,0.0234 -0.6709,-0.2236c-0.1235,-0.247 -0.0234,-0.5473 0.2236,-0.6708c0.3833,-0.1916 0.6813,-0.4858 0.8879,-0.7441c0.1022,-0.1276 0.1784,-0.2421 0.2283,-0.3232c0.0229,-0.0371 0.0452,-0.0748 0.0655,-0.1134c0.1078,-0.2039 0.3346,-0.3189 0.5631,-0.2649c0.2257,0.0532 0.3851,0.2547 0.3851,0.4866z" fill="#212121"/>
</svg>
