<svg width="20" height="20" viewBox="0 0 20 20" xmlns="http://www.w3.org/2000/svg">
  <path d="M5.354,9.646l0.646,0.647l0.646,-0.647c0.196,-0.195 0.512,-0.195 0.708,0c0.195,0.196 0.195,0.512 -0,0.708l-1,1c-0.094,0.093 -0.221,0.146 -0.354,0.146c-0.133,0 -0.26,-0.053 -0.354,-0.146l-1,-1c-0.195,-0.196 -0.195,-0.512 0,-0.708c0.196,-0.195 0.512,-0.195 0.708,0Zm-1.354,2.354l4,0c0.192,0 0.367,0.11 0.451,0.283c0.083,0.174 0.06,0.379 -0.061,0.529l-3.35,4.188l2.96,0c0.276,0 0.5,0.224 0.5,0.5c0,0.276 -0.224,0.5 -0.5,0.5l-4,0c-0.192,0 -0.367,-0.11 -0.451,-0.283c-0.083,-0.174 -0.059,-0.379 0.061,-0.529l3.35,-4.188l-2.96,0c-0.276,0 -0.5,-0.224 -0.5,-0.5c0,-0.276 0.224,-0.5 0.5,-0.5Zm10.5,-10c0.276,0 0.5,0.224 0.5,0.5l0,13.793l2.146,-2.147c0.196,-0.195 0.512,-0.195 0.708,0c0.195,0.196 0.195,0.512 -0,0.708l-3,3c-0.196,0.195 -0.512,0.195 -0.708,-0l-3,-3c-0.195,-0.196 -0.195,-0.512 0,-0.708c0.196,-0.195 0.512,-0.195 0.708,0l2.146,2.147l0,-13.793c0,-0.276 0.224,-0.5 0.5,-0.5Zm-9.801,5l-0.486,1.189c-0.105,0.256 -0.397,0.378 -0.652,0.274c-0.256,-0.105 -0.378,-0.397 -0.274,-0.652l2.25,-5.5c0.077,-0.188 0.26,-0.311 0.463,-0.311c0.203,0 0.386,0.123 0.463,0.311l2.25,5.5c0.104,0.255 -0.018,0.547 -0.274,0.652c-0.255,0.104 -0.547,-0.018 -0.652,-0.274l-0.486,-1.189l-2.602,-0Zm2.193,-1l-0.892,-2.179l-0.892,2.179l1.784,-0Z" fill="#212121" />
</svg>
