<svg width="20" height="20" viewBox="0 0 20 20" xmlns="http://www.w3.org/2000/svg">
  <path d="M14.5,16.75c-0.509,0.383 -1.235,0.323 -1.673,-0.157l-4.827,-5.287l0,4.444c0,0.69 -0.56,1.25 -1.25,1.25c-0.69,0 -1.25,-0.56 -1.25,-1.25l0,-11.5c0,-0.69 0.56,-1.25 1.25,-1.25c0.69,0 1.25,0.56 1.25,1.25l0,4.444l4.827,-5.287c0.465,-0.51 1.256,-0.546 1.766,-0.08c0.51,0.465 0.546,1.256 0.08,1.766l-4.48,4.907l4.388,4.806c0.179,-0.471 0.635,-0.806 1.169,-0.806c0.69,0 1.25,0.56 1.25,1.25l0,1.5c0,0.69 -0.56,1.25 -1.25,1.25c-0.69,0 -1.25,-0.559 -1.25,-1.25Z" style="fill:#212121;fill-rule:nonzero;"/>
</svg>
