<svg width="20" height="20" viewBox="0 0 20 20" fill="none" xmlns="http://www.w3.org/2000/svg">
<path d="M15.2109,4.2315c0.4458,-0.4717 1.2891,-0.171 1.2891,0.5234v7.2451h1c0.2758,0.0003 0.5,0.224 0.5,0.5c-0.0002,0.2758 -0.2243,0.4997 -0.5,0.5h-1v2.5c-0.0002,0.2758 -0.2242,0.4997 -0.5,0.5c-0.276,0 -0.4998,-0.224 -0.5,-0.5v-2.5h-4.3105c-0.8,-0.0003 -1.2761,-0.8934 -0.8301,-1.5576l4.7676,-7.1065l0.0839,-0.1045zM9,4c0.2761,0 0.5,0.2239 0.5,0.5v11c0,0.2761 -0.2239,0.5 -0.5,0.5c-0.2761,0 -0.5,-0.2239 -0.5,-0.5v-5.5h-5.5v5.5c0,0.2761 -0.2239,0.5 -0.5,0.5c-0.2761,0 -0.5,-0.2239 -0.5,-0.5v-11c0,-0.2761 0.2239,-0.5 0.5,-0.5c0.2761,0 0.5,0.2239 0.5,0.5v4.5h5.5v-4.5c0,-0.2761 0.2239,-0.5 0.5,-0.5zM11.1895,12h4.3105v-6.4248z" fill="#212121"/>
</svg>
