<svg width="20" height="20" viewBox="0 0 20 20" fill="none" xmlns="http://www.w3.org/2000/svg">
<path d="M8.5,4c0.2761,0 0.5,0.2239 0.5,0.5v11c0,0.2761 -0.2239,0.5 -0.5,0.5c-0.2761,0 -0.5,-0.2239 -0.5,-0.5v-5.5h-5v5.5c0,0.2761 -0.2239,0.5 -0.5,0.5c-0.2761,0 -0.5,-0.2239 -0.5,-0.5v-11c0,-0.2761 0.2239,-0.5 0.5,-0.5c0.2761,0 0.5,0.2239 0.5,0.5v4.5h5v-4.5c0,-0.2761 0.2239,-0.5 0.5,-0.5zM10,10c0,-1.6351 0.2827,-3.1726 0.9504,-4.3181c0.6886,-1.1809 1.7822,-1.9319 3.2996,-1.9319c1.5283,0 2.6201,0.7608 3.306,1.9433l0.0035,0.006l0.01,0.0185l0.1559,0.2863c0.0411,0.0727 0.0646,0.1566 0.0646,0.2459c0,0.276 -0.224,0.5 -0.5,0.5c-0.1922,0 -0.3593,-0.1087 -0.4429,-0.2679l-0.156,-0.2867l-0.0035,-0.0063c-0.5075,-0.8713 -1.3096,-1.4391 -2.4376,-1.4391c-1.122,0 -1.9265,0.5624 -2.4357,1.4356c-0.589,1.0105 -0.8143,2.372 -0.8143,3.8144l0.0023,0.25c0.6506,-1.1977 1.8663,-2 3.2477,-2c2.0591,0 3.75,1.7825 3.75,4c0,2.2175 -1.6909,4 -3.75,4c-0.0723,0 -0.1441,-0.0022 -0.2154,-0.0065l-0.0035,-0.0002c-1.4039,-0.0692 -2.4257,-0.802 -3.0806,-1.9252c-0.6678,-1.1455 -0.9505,-2.6831 -0.9505,-4.3181zM14.0856,15.2448l0.007,0.0004c0.0521,0.0032 0.1046,0.0048 0.1574,0.0048c1.5284,0 2.75,-1.354 2.75,-3c0,-1.646 -1.2216,-3 -2.75,-3c-1.5284,0 -2.75,1.354 -2.75,3c0,1.5866 1.1341,2.9014 2.5856,2.9948z
" fill="#212121"/>
</svg>
