<svg width="20" height="20" viewBox="0 0 20 20" xmlns="http://www.w3.org/2000/svg">
    <path d="M11.5,15.25l0,-10.5c0,-1.104 0.896,-2 2,-2c1.104,0 2,0.896 2,2l0,2l0.25,-0c1.104,0 2,0.896 2,2c-0,1.104 -0.896,2 -2,2l-0.25,0l0,4.5c0,1.104 -0.896,2 -2,2c-1.104,0 -2,-0.896 -2,-2Zm1.25,0c0,0.414 0.336,0.75 0.75,0.75c0.414,-0 0.75,-0.336 0.75,-0.75l0,-5.75l1.5,-0c0.414,0 0.75,-0.336 0.75,-0.75c0,-0.414 -0.336,-0.75 -0.75,-0.75l-1.5,-0l0,-3.25c0,-0.414 -0.336,-0.75 -0.75,-0.75c-0.414,-0 -0.75,0.336 -0.75,0.75l0,10.5Zm-8.504,0c-1.104,0 -2,-0.896 -2,-2c0,-1.104 0.896,-2 2,-2c1.047,0 1.637,-0.751 2.011,-1.479c0.17,-0.332 0.306,-0.679 0.413,-1.021l-2.42,0c-1.104,0 -2,-0.896 -2,-2c-0,-1.104 0.896,-2 2,-2l4.75,0c1.105,0 2,0.895 2,2c0,1.146 -0.3,3.126 -1.186,4.85c-0.997,1.94 -2.776,3.65 -5.568,3.65Zm0,-1.25c2.246,0 3.654,-1.411 4.457,-2.972c0.781,-1.52 1.047,-3.267 1.047,-4.278c0,-0.414 -0.336,-0.75 -0.75,-0.75l-4.75,-0c-0.414,0 -0.75,0.336 -0.75,0.75c0,0.414 0.336,0.75 0.75,0.75l3.953,-0c-0.095,0.829 -0.344,1.889 -0.835,2.843c-0.568,1.106 -1.531,2.157 -3.122,2.157c-0.414,0 -0.75,0.336 -0.75,0.75c0,0.414 0.336,0.75 0.75,0.75Z" fill="#212121" />
</svg>
