<svg width="20" height="20" viewBox="0 0 20 20" fill="none" xmlns="http://www.w3.org/2000/svg">
<path d="M17.0687,3.0198c-0.086,0.0213 -0.1662,0.0576 -0.2376,0.1058c-0.1547,0.104 -0.271,0.2655 -0.314,0.4619c-0.097,0.4437 -0.544,1.0948 -1.1606,1.5059c-0.3446,0.2298 -0.4378,0.6954 -0.208,1.0401c0.2298,0.3447 0.6954,0.4378 1.0401,0.208c0.1059,-0.0706 0.21,-0.147 0.3114,-0.2284v3.137c0,0.4142 0.3358,0.75 0.75,0.75c0.4142,0 0.75,-0.3358 0.75,-0.75v-5.5024c0,-0.3941 -0.3041,-0.7173 -0.6905,-0.7476c-0.0824,-0.0067 -0.1635,0.0004 -0.2408,0.0197zM10.2032,15.0329c0.1442,0.1507 0.3334,0.2171 0.5397,0.2171c0.2098,0 0.3993,-0.0705 0.548,-0.2192c0.1385,-0.1385 0.2092,-0.3123 0.2182,-0.505c0.1476,0.146 0.3132,0.273 0.4954,0.3799c0.3988,0.2311 0.8491,0.3443 1.3429,0.3443c0.8811,0 1.6051,-0.3264 2.1463,-0.9795c0.5372,-0.6527 0.7933,-1.5093 0.7933,-2.5443c0,-1.0312 -0.2562,-1.8858 -0.7933,-2.5382c-0.5402,-0.6563 -1.2572,-0.9857 -2.1281,-0.9857c-0.4829,0 -0.9268,0.1139 -1.3246,0.3444c-0.1776,0.1041 -0.3388,0.2268 -0.4822,0.3669v-2.3477c0,-0.2205 -0.069,-0.4209 -0.2201,-0.5791c-0.1483,-0.1596 -0.342,-0.2368 -0.5593,-0.2368c-0.2181,0 -0.4123,0.0776 -0.5636,0.2349l-0.0035,0.0038c-0.1467,0.1589 -0.2123,0.3587 -0.2123,0.5772v7.9169c0,0.2055 0.0611,0.3951 0.1996,0.5462zM11.5527,11.7262c0,-0.6569 0.1599,-1.1613 0.457,-1.5363c0.2989,-0.3762 0.6699,-0.5565 1.1308,-0.5565c0.4869,0 0.8539,0.1785 1.1284,0.5353c0.2809,0.3651 0.435,0.8755 0.435,1.5575c0,0.6861 -0.1542,1.1982 -0.4346,1.5631c-0.2741,0.3526 -0.6412,0.5297 -1.1288,0.5297c-0.4616,0 -0.8326,-0.1789 -1.1311,-0.5509c-0.2967,-0.3747 -0.4567,-0.8808 -0.4567,-1.5419zM7.5567,12.75l0.7395,2.0089c0.143,0.3885 0.5744,0.5877 0.9629,0.4447c0.3884,-0.143 0.5877,-0.5744 0.4447,-0.9629l-2.869,-7.7937l-0.0016,-0.0045c-0.0782,-0.2081 -0.1949,-0.3838 -0.3574,-0.5065c-0.1702,-0.1284 -0.3708,-0.186 -0.5884,-0.186c-0.225,0 -0.4324,0.0567 -0.6082,0.1851c-0.1687,0.1234 -0.2903,0.3031 -0.369,0.5151l-0.0008,0.0022l-2.8633,7.789c-0.1429,0.3885 0.0566,0.8199 0.4451,0.9627c0.3885,0.1429 0.8199,-0.0566 0.9627,-0.4451l0.7386,-2.009zM4.7439,11.25l1.1295,-3.0726l1.1311,3.0726z" fill="#212121"/>
</svg>
