<svg width="20" height="20" viewBox="0 0 20 20" fill="none" xmlns="http://www.w3.org/2000/svg">
<path d="M2,4.5c0,-0.2761 0.2239,-0.5 0.5,-0.5h15c0.2761,0 0.5,0.2239 0.5,0.5c0,0.2761 -0.2239,0.5 -0.5,0.5h-15c-0.2761,0 -0.5,-0.2239 -0.5,-0.5zM2,9.5c0,-0.2761 0.2239,-0.5 0.5,-0.5h12.5c1.6569,0 3,1.3431 3,3c0,1.6569 -1.3431,3 -3,3h-4.2929l0.6465,0.6464c0.1952,0.1953 0.1952,0.5119 0,0.7072c-0.1953,0.1952 -0.5119,0.1952 -0.7072,0l-1.5,-1.5c-0.1952,-0.1953 -0.1952,-0.5119 0,-0.7072l1.5,-1.5c0.1953,-0.1952 0.5119,-0.1952 0.7072,0c0.1952,0.1953 0.1952,0.5119 0,0.7072l-0.6465,0.6464h4.2929c1.1046,0 2,-0.8954 2,-2c0,-1.1046 -0.8954,-2 -2,-2h-12.5c-0.2761,0 -0.5,-0.2239 -0.5,-0.5zM2,14.5c0,-0.2761 0.2239,-0.5 0.5,-0.5h4c0.2761,0 0.5,0.2239 0.5,0.5c0,0.2761 -0.2239,0.5 -0.5,0.5h-4c-0.2761,0 -0.5,-0.2239 -0.5,-0.5z" fill="#212121"/>
</svg>
