<svg width="20" height="20" viewBox="0 0 20 20" fill="none" xmlns="http://www.w3.org/2000/svg">
<path d="M8.5497,12.5l0.7381,2.2351c0.1298,0.3931 0.5543,0.6068 0.9474,0.477c0.393,-0.1298 0.6068,-0.5543 0.477,-0.9473l-3.4674,-10.5c-0.1003,-0.3037 -0.3822,-0.5105 -0.7021,-0.5147c-0.3199,-0.0043 -0.6073,0.1947 -0.7157,0.4957l-3.7826,10.5c-0.1403,0.3894 0.062,0.8195 0.4514,0.9598c0.3894,0.1403 0.8195,-0.062 0.9598,-0.4514l0.8121,-2.2542zM4.8081,11l1.6937,-4.7016l1.5526,4.7016zM12,15.25h2.5c1.9329,0 3.5,-1.5671 3.5,-3.5c0,-1.3103 -0.7201,-2.4525 -1.7862,-3.0524c0.4892,-0.5516 0.7862,-1.2774 0.7862,-2.0726c0,-1.7259 -1.3992,-3.125 -3.125,-3.125h-1.875c-0.4142,0 -0.75,0.3358 -0.75,0.75v10.25c0,0.4142 0.3358,0.75 0.75,0.75zM14.5,9.75c1.1045,0 2,0.8955 2,2c0,1.1045 -0.8955,2 -2,2h-1.75v-4zM12.75,8.25v-3.25h1.125c0.8974,0 1.625,0.7275 1.625,1.625c0,0.8975 -0.7276,1.625 -1.625,1.625z" fill="#212121"/>
</svg>
