<svg width="20" height="20" viewBox="0 0 20 20" fill="none" xmlns="http://www.w3.org/2000/svg">
<path d="M12.9335,7.7548c0.0002,-0.0012 0.0004,-0.0023 0.0007,-0.0035c0.0747,-0.3814 0.1639,-0.903 0.2233,-1.4671c0.0625,-0.593 0.0892,-1.2169 0.0445,-1.7757c-0.0576,-0.72 -0.2396,-1.2679 -0.4725,-1.6173c-0.0743,-0.1115 -0.212,-0.2815 -0.4061,-0.4849c-0.5941,-0.6227 -1.9085,-0.5992 -2.3108,0.5595c-0.2489,0.7168 -0.5825,1.6124 -0.9211,2.2916c-0.9246,1.8551 -1.5092,3.043 -3.1212,4.4731c-0.2285,0.2028 -0.5029,0.3423 -0.7663,0.4464c-1.2878,0.5091 -2.006,1.7529 -1.7924,2.8211l0.3265,1.6325c0.1745,0.8727 0.8272,1.5719 1.6858,1.806l5.1787,1.4124c2.3753,0.6478 4.7959,-0.8776 5.2363,-3.3001l0.6326,-3.4789c0.3138,-1.7261 -1.0123,-3.315 -2.7667,-3.315z" fill="#212121"/>
</svg>
