<svg width="20" height="20" viewBox="0 0 20 20" fill="none" xmlns="http://www.w3.org/2000/svg">
<path d="M7.9303,6.6033l0.3981,-0.0002c1.1229,0 1.9244,1.0878 1.5919,2.1602l-0.6382,2.0584c-0.3324,1.0717 -1.4628,1.679 -2.5398,1.3643l-3.3008,-0.9644c-0.5045,-0.1475 -0.9099,-0.5243 -1.0938,-1.0167l-0.2422,-0.6487c-0.2856,-0.7648 0.0248,-1.6239 0.7333,-2.0295l0.9032,-0.517c0.3052,-0.1747 0.5537,-0.4335 0.7159,-0.7457l1.0057,-1.935c0.4297,-0.827 1.2036,-0.916 1.6298,-0.7733c0.6234,0.2089 0.8928,0.5859 1.0312,1.033c0.1052,0.3403 0.1169,0.7863 0.0172,1.2783c-0.0524,0.2585 -0.1302,0.5125 -0.2115,0.7363zM6.7393,6.8428c0.0001,-0.0002 0.0032,-0.0057 0.0032,-0.0057c0.0079,-0.0155 0.0182,-0.0369 0.0311,-0.0632c0.031,-0.0636 0.0742,-0.1562 0.1217,-0.2692c0.0953,-0.2272 0.2039,-0.5275 0.2664,-0.8363c0.0612,-0.3018 0.0721,-0.5754 0.0075,-0.7842c-0.0518,-0.1676 -0.1597,-0.3019 -0.3934,-0.3802c-0.1211,-0.0405 -0.3029,0.0513 -0.4249,0.2861l-1.0056,1.9351c-0.2507,0.4823 -0.6348,0.8824 -1.1065,1.1524l-0.9032,0.517c-0.2834,0.1622 -0.4075,0.5058 -0.2933,0.8118l0.2422,0.6487c0.0736,0.1969 0.2358,0.3477 0.4376,0.4067l3.3006,0.9644c0.5531,0.1615 1.1336,-0.1503 1.3042,-0.7007l0.6382,-2.0584c0.133,-0.4289 -0.1876,-0.864 -0.6367,-0.864l-1.1622,0.0005c-0.1821,0.0001 -0.3498,-0.0988 -0.4379,-0.2582c-0.087,-0.1574 -0.0827,-0.3494 0.011,-0.5026zM12.0697,13.3967l-0.3981,0.0002c-1.1229,0 -1.9244,-1.0878 -1.5919,-2.1602l0.6382,-2.0584c0.3324,-1.0717 1.4628,-1.679 2.5398,-1.3643l3.3008,0.9644c0.5045,0.1475 0.9099,0.5243 1.0938,1.0167l0.2422,0.6487c0.2856,0.7648 -0.0248,1.6239 -0.7333,2.0295l-0.9032,0.517c-0.3052,0.1747 -0.5537,0.4335 -0.7159,0.7457l-1.0057,1.935c-0.4297,0.827 -1.2036,0.916 -1.6298,0.7733c-0.6234,-0.2089 -0.8928,-0.5859 -1.0312,-1.033c-0.1052,-0.3403 -0.1169,-0.7863 -0.0172,-1.2783c0.0524,-0.2585 0.1302,-0.5125 0.2115,-0.7363zM13.2609,13.1568c-0.0001,0.0003 -0.0034,0.0061 -0.0034,0.0061c-0.0079,0.0155 -0.0182,0.0369 -0.0311,0.0632c-0.031,0.0636 -0.0742,0.1562 -0.1217,0.2692c-0.0953,0.2272 -0.2039,0.5275 -0.2664,0.8363c-0.0612,0.3018 -0.0721,0.5754 -0.0075,0.7842c0.0518,0.1676 0.1597,0.3019 0.3934,0.3802c0.1211,0.0405 0.3029,-0.0513 0.4249,-0.2861l1.0056,-1.9351c0.2507,-0.4823 0.6348,-0.8824 1.1065,-1.1524l0.9032,-0.517c0.2834,-0.1622 0.4075,-0.5058 0.2933,-0.8118l-0.2422,-0.6487c-0.0736,-0.1969 -0.2358,-0.3477 -0.4376,-0.4067l-3.3006,-0.9644c-0.5531,-0.1615 -1.1336,0.1503 -1.3042,0.7007l-0.6382,2.0584c-0.133,0.4289 0.1876,0.864 0.6367,0.864l1.1622,-0.0005c0.1821,-0.0001 0.3498,0.0988 0.4379,0.2582c0.0869,0.1573 0.0827,0.349 -0.0108,0.5022z" fill="#212121"/>
</svg>
