<svg width="20" height="20" viewBox="0 0 20 20" fill="none" xmlns="http://www.w3.org/2000/svg">
<path d="M7.9303,6.6033l0.3981,-0.0002c1.1229,0 1.9244,1.0878 1.5919,2.1602l-0.6382,2.0584c-0.3324,1.0717 -1.4628,1.679 -2.5398,1.3643l-3.3008,-0.9644c-0.5045,-0.1475 -0.9099,-0.5243 -1.0938,-1.0167l-0.2422,-0.6487c-0.2856,-0.7648 0.0248,-1.6239 0.7333,-2.0295l0.9032,-0.517c0.3052,-0.1747 0.5537,-0.4335 0.7159,-0.7457l1.0057,-1.935c0.4297,-0.827 1.2036,-0.916 1.6298,-0.7733c0.6234,0.2089 0.8928,0.5859 1.0312,1.033c0.1052,0.3403 0.1169,0.7863 0.0172,1.2783c-0.0524,0.2585 -0.1302,0.5125 -0.2115,0.7363zM12.0697,13.3967l-0.3981,0.0002c-1.1229,0 -1.9244,-1.0878 -1.5919,-2.1602l0.6382,-2.0584c0.3324,-1.0717 1.4628,-1.679 2.5398,-1.3643l3.3008,0.9644c0.5045,0.1475 0.9099,0.5243 1.0938,1.0167l0.2422,0.6487c0.2856,0.7648 -0.0248,1.6239 -0.7333,2.0295l-0.9032,0.517c-0.3052,0.1747 -0.5537,0.4335 -0.7159,0.7457l-1.0057,1.935c-0.4297,0.827 -1.2036,0.916 -1.6298,0.7733c-0.6234,-0.2089 -0.8928,-0.5859 -1.0312,-1.033c-0.1052,-0.3403 -0.1169,-0.7863 -0.0172,-1.2783c0.0524,-0.2585 0.1302,-0.5125 0.2115,-0.7363z" fill="#212121"/>
</svg>
