<svg width="20" height="20" viewBox="0 0 20 20" fill="none" xmlns="http://www.w3.org/2000/svg">
<path d="M10.4749 2.16953C10.1987 1.94349 9.80135 1.94349 9.52507 2.16953L6.77507 4.41953C6.45449 4.68183 6.40724 5.15434 6.66953 5.47493C6.93183 5.79551 7.40434 5.84276 7.72493 5.58047L10 3.71905L12.2751 5.58047C12.5957 5.84276 13.0682 5.79551 13.3305 5.47493C13.5928 5.15434 13.5455 4.68183 13.2249 4.41953L10.4749 2.16953ZM13.2249 15.5805L10.4749 17.8305C10.1987 18.0565 9.80135 18.0565 9.52507 17.8305L6.77507 15.5805C6.45449 15.3182 6.40724 14.8457 6.66953 14.5251C6.93183 14.2045 7.40434 14.1572 7.72493 14.4195L10 16.281L12.2751 14.4195C12.5957 14.1572 13.0682 14.2045 13.3305 14.5251C13.5928 14.8457 13.5455 15.3182 13.2249 15.5805ZM2.125,9.5c0,-0.7589 0.6161,-1.375 1.375,-1.375c0.7589,0 1.375,0.6161 1.375,1.375v1c0,0.7589 -0.6161,1.375 -1.375,1.375c-0.7589,0 -1.375,-0.6161 -1.375,-1.375zM3,9.5v1c0,0.2759 0.2241,0.5 0.5,0.5c0.276,0 0.5,-0.2241 0.5,-0.5v-1c0,-0.276 -0.2241,-0.5 -0.5,-0.5c-0.276,0 -0.5,0.224 -0.5,0.5zM5.625,9.5c0,-0.7589 0.6161,-1.375 1.375,-1.375c0.7589,0 1.375,0.6161 1.375,1.375v1c0,0.7589 -0.6161,1.375 -1.375,1.375c-0.7589,0 -1.375,-0.6161 -1.375,-1.375zM6.5,9.5v1c0,0.2759 0.224,0.5 0.5,0.5c0.276,0 0.5,-0.2241 0.5,-0.5v-1c0,-0.276 -0.2241,-0.5 -0.5,-0.5c-0.276,0 -0.5,0.224 -0.5,0.5zM11.625,9.5c0,-0.7589 0.6161,-1.375 1.375,-1.375c0.7589,0 1.375,0.6161 1.375,1.375v1c0,0.7589 -0.6161,1.375 -1.375,1.375c-0.7589,0 -1.375,-0.6161 -1.375,-1.375zM12.5,9.5v1c0,0.2759 0.2241,0.5 0.5,0.5c0.276,0 0.5,-0.2241 0.5,-0.5v-1c0,-0.276 -0.224,-0.5 -0.5,-0.5c-0.276,0 -0.5,0.224 -0.5,0.5zM15.125,9.5c0,-0.7589 0.6161,-1.375 1.375,-1.375c0.7589,0 1.375,0.6161 1.375,1.375v1c0,0.7589 -0.6161,1.375 -1.375,1.375c-0.7589,0 -1.375,-0.6161 -1.375,-1.375zM16,9.5v1c0,0.2759 0.224,0.5 0.5,0.5c0.276,0 0.5,-0.2241 0.5,-0.5v-1c0,-0.276 -0.2241,-0.5 -0.5,-0.5c-0.276,0 -0.5,0.224 -0.5,0.5zM10,8.125c0.4139,0 0.75,0.3361 0.75,0.75c0,0.4139 -0.3361,0.75 -0.75,0.75c-0.4139,0 -0.75,-0.3361 -0.75,-0.75c0,-0.4139 0.3361,-0.75 0.75,-0.75zM10,10.375c0.4139,0 0.75,0.336 0.75,0.75c0,0.4139 -0.3361,0.75 -0.75,0.75c-0.4139,0 -0.75,-0.3361 -0.75,-0.75c0,-0.414 0.3361,-0.75 0.75,-0.75z" fill="#212121"/>
</svg>
