<svg width="20" height="20" viewBox="0 0 20 20" fill="none" xmlns="http://www.w3.org/2000/svg">
  <path d="M14.884,12.285c-1.016,1.63 -2.824,2.715 -4.883,2.715c-2.745,0 -5.043,-1.927 -5.614,-4.5l8.784,0c0.288,0.813 0.916,1.465 1.713,1.785Zm1.116,0.215l-0.003,3.5c0,1.105 -0.895,2 -2,2l-8,0c-0.729,-0 -1.213,-0.757 -0.908,-1.419l0.883,-1.915c1.125,0.838 2.519,1.334 4.028,1.334c2.548,0 4.768,-1.415 5.917,-3.501l0.083,0.001Zm0.5,-10.5c0.828,0 1.5,0.672 1.5,1.5l-0,6c-0,1.105 -0.895,2 -2,2c-1.105,0 -2,-0.895 -2,-2l-0,-6c-0,-0.828 0.672,-1.5 1.5,-1.5l1,0Zm-3.5,7.5l-8.5,0c-0.828,0 -1.5,-0.672 -1.5,-1.5c-0,-0.828 0.672,-1.5 1.5,-1.5l8.5,0l-0,3Z" fill="#212121"/>
</svg>
