<svg width="20" height="20" viewBox="0 0 20 20" fill="none" xmlns="http://www.w3.org/2000/svg">
  <path d="M6.404,13.736c-1.028,-0.826 -1.767,-1.998 -2.039,-3.339c-0.793,-0.266 -1.365,-1.015 -1.365,-1.897c0,-1.105 0.895,-2 2,-2l8,0l0,-3c-0,-0.828 0.672,-1.5 1.5,-1.5l2,0c0.828,0 1.5,0.672 1.5,1.5l-0,5.5c-0,1.209 -0.858,2.218 -1.999,2.45l0,4.55c0,1.105 -0.896,2 -2,2l-8,0c-0.729,-0 -1.214,-0.757 -0.908,-1.419l1.311,-2.845Zm8.597,-1.648c-0.987,1.733 -2.85,2.905 -5.001,2.912c-0.997,-0 -1.936,-0.254 -2.754,-0.702l-1.245,2.702l8,0c0.552,0 1,-0.448 1,-1l0,-3.912Zm-1.001,-8.588l0,5.5c0,0.828 0.672,1.5 1.5,1.5c0.828,-0 1.5,-0.672 1.5,-1.5l0,-5.5c0,-0.276 -0.224,-0.5 -0.5,-0.5l-2,0c-0.276,0 -0.5,0.224 -0.5,0.5Zm-1,4l-8,0c-0.552,0 -1,0.448 -1,1c-0,0.502 0.37,0.918 0.853,0.99l0.029,0.003c0.039,0.005 0.078,0.007 0.118,0.007l8.05,0c-0.033,-0.162 -0.05,-0.329 -0.05,-0.5l0,-1.5Zm1.194,3.632c-0.269,-0.165 -0.505,-0.38 -0.694,-0.632l-7.888,-0c0.455,2.003 2.248,3.5 4.388,3.5c1.908,0 3.54,-1.19 4.194,-2.868Z" fill="#212121"/>
</svg>
