<svg width="20" height="20" viewBox="0 0 20 20" fill="none" xmlns="http://www.w3.org/2000/svg">
<path d="M13.4703,6.667c-0.1208,0.341 -0.2527,0.8102 -0.3531,1.1936c0.5699,-0.0846 1.1487,-0.2039 1.7689,-0.3476c0.269,-0.0623 0.5376,0.1053 0.5999,0.3743c0.0623,0.269 -0.1052,0.5376 -0.3742,0.5999c-0.7734,0.1791 -1.5023,0.3258 -2.2407,0.4158c-0.0958,0.4537 -0.1703,0.868 -0.2266,1.2473c0.4751,-0.1042 0.9287,-0.1446 1.3545,-0.1294v-0.0208c0,-0.2761 0.2239,-0.5 0.5,-0.5c0.2762,0 0.5,0.2239 0.5,0.5c0,0.0566 -0.0005,0.1128 -0.0017,0.1687c1.1413,0.3097 1.9802,1.0712 2.3456,2.0577c0.6144,1.659 -0.2148,3.6523 -2.6408,4.7305c-0.2523,0.1122 -0.5478,-0.0015 -0.66,-0.2538c-0.1121,-0.2524 0.0015,-0.5478 0.2539,-0.66c2.0739,-0.9217 2.4947,-2.4284 2.1091,-3.4694c-0.2183,-0.5897 -0.7281,-1.1245 -1.4928,-1.3873c-0.23,1.5373 -0.8919,2.7602 -1.6839,3.6062c0.0836,0.173 0.1668,0.351 0.2351,0.5226c0.1021,0.2565 -0.0231,0.5473 -0.2797,0.6494c-0.2566,0.1021 -0.5474,-0.0231 -0.6495,-0.2797c-0.0283,-0.0711 -0.0572,-0.1386 -0.0869,-0.2047c-0.42,0.2992 -0.8575,0.5067 -1.2775,0.6033c-0.5763,0.1326 -1.2075,0.0682 -1.6365,-0.3893c-0.6448,-0.6889 -0.6904,-1.8331 -0.2485,-2.853c0.3797,-0.8764 1.1331,-1.7234 2.2993,-2.3008c0.0539,-0.467 0.1351,-0.9814 0.2484,-1.5515c-0.4406,0.0187 -0.8929,0.0144 -1.3673,-0.0176c-0.2755,-0.0186 -0.4838,-0.257 -0.4652,-0.5325c0.0185,-0.2755 0.257,-0.4838 0.5325,-0.4652c0.5301,0.0357 1.0309,0.0341 1.5234,0.002c0.1039,-0.4211 0.2946,-1.1425 0.4716,-1.6424c0.0921,-0.2603 0.3778,-0.3966 0.6381,-0.3045c0.2604,0.0921 0.3967,0.3779 0.3046,0.6382zM13.9265,11.0164c-0.3881,-0.0095 -0.816,0.0397 -1.2814,0.1623c-0.0407,0.0142 -0.081,0.0287 -0.1207,0.0435c-0.0587,0.8324 -0.0104,1.4489 0.0868,1.9347c0.046,0.23 0.1038,0.4345 0.169,0.6229c0.5352,-0.6841 0.9782,-1.6131 1.1463,-2.7634zM10.2025,13.2388c-0.3489,0.8052 -0.215,1.4773 0.0607,1.7718c0.0935,0.0995 0.2986,0.1868 0.6825,0.0985c0.3115,-0.0717 0.6848,-0.2519 1.0658,-0.5513c-0.1463,-0.3377 -0.2849,-0.7253 -0.3808,-1.2046c-0.0908,-0.4535 -0.1414,-0.9788 -0.1303,-1.612c-0.6574,0.441 -1.074,0.9809 -1.2979,1.4976zM4.8941,4.6874c-0.4862,0.0187 -0.9135,0.1315 -1.1706,0.2601c-0.247,0.1235 -0.5473,0.0234 -0.6708,-0.2236c-0.1235,-0.247 -0.0234,-0.5473 0.2236,-0.6708c0.4096,-0.2048 0.9822,-0.342 1.5794,-0.365c0.5998,-0.0231 1.2724,0.0672 1.8678,0.365c1.2798,0.64 1.2774,1.9081 1.2764,2.4094v0.0377v3.9998c0,0.2761 -0.2239,0.5 -0.5,0.5c-0.2761,0 -0.5,-0.2239 -0.5,-0.5v-0.4114c-0.9131,0.6658 -2.0107,1.0938 -3.1289,0.7952c-1.8845,-0.5032 -2.5344,-3.0426 -0.6491,-4.2993c0.715,-0.4766 1.5838,-0.6089 2.3749,-0.5688c0.4901,0.0248 0.9713,0.1166 1.4003,0.2496c-0.0153,-0.4787 -0.1123,-1.0135 -0.7209,-1.3178c-0.4045,-0.2023 -0.8986,-0.2788 -1.3821,-0.2601zM6.9999,7.3253c-0.408,-0.1609 -0.9228,-0.284 -1.4537,-0.3109c-0.6612,-0.0335 -1.2928,0.0843 -1.7696,0.4022c-1.1158,0.7437 -0.7634,2.2031 0.3524,2.5011c0.902,0.2409 1.9381,-0.2474 2.8709,-1.1288zM11.5283,2.0152c2.0977,0.1216 4.0025,0.9616 5.4717,2.2766v-0.7918c0,-0.2762 0.2239,-0.5 0.5,-0.5c0.2761,0 0.5,0.2238 0.5,0.5v2c0,0.2761 -0.2239,0.5 -0.5,0.5h-2c-0.2761,0 -0.5,-0.2239 -0.5,-0.5c0,-0.2762 0.2239,-0.5 0.5,-0.5h0.7916c-1.301,-1.1484 -2.9774,-1.8796 -4.8212,-1.9864c-0.2756,-0.016 -0.4862,-0.2525 -0.4702,-0.5281c0.016,-0.2757 0.2524,-0.4862 0.5281,-0.4703zM4.5,15h-0.7918c1.3008,1.1482 2.9769,1.8793 4.8202,1.9863c0.2756,0.016 0.4861,0.2525 0.4701,0.5282c-0.016,0.2757 -0.2524,0.4862 -0.5281,0.4702c-2.0972,-0.1218 -4.0014,-0.9617 -5.4704,-2.2763v0.7916c0,0.2762 -0.2239,0.5 -0.5,0.5c-0.2761,0 -0.5,-0.2238 -0.5,-0.5v-2c0,-0.2761 0.2239,-0.5 0.5,-0.5h2c0.2761,0 0.5,0.2239 0.5,0.5c0,0.2762 -0.2239,0.5 -0.5,0.5z" fill="#212121"/>
</svg>
