<svg width="20" height="20" viewBox="0 0 20 20" fill="none" xmlns="http://www.w3.org/2000/svg">
<path d="M15.2745,10.2858v0.0162c1.1406,0.3672 2.0102,1.125 2.4425,2.1044c0.3895,0.8828 0.3904,1.8996 -0.0812,2.8416c-0.4671,0.9328 -1.3662,1.7351 -2.6811,2.2927c-0.3813,0.1617 -0.8215,-0.0164 -0.9833,-0.3977c-0.1617,-0.3813 0.0164,-0.8216 0.3977,-0.9833c1.0655,-0.4518 1.6523,-1.0378 1.9254,-1.5832c0.2676,-0.5348 0.2623,-1.0837 0.0501,-1.5645c-0.2013,-0.4563 -0.6189,-0.8926 -1.2278,-1.1666c-0.2895,1.3907 -0.9484,2.5183 -1.7326,3.3366c0.0701,0.1384 0.1378,0.2786 0.1947,0.4116c0.1627,0.3809 -0.0141,0.8216 -0.3951,0.9843c-0.3808,0.1628 -0.8215,-0.0141 -0.9843,-0.395c0,0 -0.0097,-0.0226 -0.0146,-0.0336c-0.4219,0.2535 -0.8557,0.432 -1.2749,0.5216c-0.6506,0.1389 -1.4138,0.0842 -1.9429,-0.4544c-0.7763,-0.7912 -0.8091,-2.0751 -0.3115,-3.1711c0.4254,-0.9366 1.2557,-1.8223 2.5144,-2.4249c0.0606,-0.442 0.1457,-0.9222 0.2587,-1.4464c-0.4789,0.0165 -0.9596,0.0117 -1.4403,-0.0187c-0.4134,-0.0261 -0.7274,-0.3823 -0.7013,-0.7957c0.0261,-0.4134 0.3824,-0.7274 0.7958,-0.7013c0.5719,0.0361 1.1487,0.032 1.7275,-0.0044c0.1105,-0.3849 0.2471,-0.8265 0.3777,-1.1703c0.1472,-0.3871 0.5804,-0.5817 0.9675,-0.4346c0.3872,0.1472 0.5818,0.5804 0.4347,0.9675c-0.0515,0.1356 -0.1052,0.2924 -0.1583,0.4563c0.4513,-0.0704 0.9019,-0.156 1.3503,-0.2533c0.4048,-0.0878 0.8042,0.1691 0.892,0.5739c0.0878,0.4048 -0.1692,0.8042 -0.5739,0.892c-0.6884,0.1493 -1.3925,0.2752 -2.1058,0.3632c-0.0908,0.3862 -0.1656,0.7441 -0.226,1.0764c0.358,-0.0525 0.7057,-0.0733 1.0402,-0.0648c0.0956,-0.3043 0.3799,-0.5251 0.7157,-0.5251c0.4143,0 0.75,0.3364 0.75,0.7506zM11.1072,12.3773c-0.0002,-0.0106 -0.0063,-0.0203 -0.0158,-0.0251c-0.0096,-0.0048 -0.021,-0.0038 -0.0296,0.0025c-0.5479,0.3992 -0.8977,0.8583 -1.0924,1.2873c-0.3517,0.7745 -0.183,1.3494 0.0272,1.5637c0.0324,0.033 0.1898,0.1443 0.6121,0.0542c0.2796,-0.0598 0.6145,-0.1999 0.9646,-0.43c0.0115,-0.0076 0.016,-0.0223 0.0106,-0.035c-0.1263,-0.2992 -0.243,-0.6392 -0.3292,-1.0406c-0.0865,-0.402 -0.1399,-0.854 -0.1475,-1.377zM12.6743,13.7257c0.0029,0.0105 0.0115,0.0183 0.0222,0.0204c0.0107,0.002 0.0216,-0.0022 0.0281,-0.0109c0.4405,-0.5834 0.8028,-1.3216 0.9834,-2.2028c0.0017,-0.0084 -0.0005,-0.0171 -0.0059,-0.0238c-0.0054,-0.0066 -0.0135,-0.0105 -0.0221,-0.0105c-0.3527,-0.0003 -0.7354,0.0427 -1.1461,0.1392c-0.0123,0.0028 -0.0212,0.0134 -0.022,0.0259c-0.0511,0.7771 0.001,1.351 0.0975,1.8c0.0197,0.0913 0.0414,0.1787 0.0649,0.2625zM5.1537,4.6872c-0.4585,0.0176 -0.8495,0.1244 -1.0685,0.2339c-0.3705,0.1852 -0.821,0.0351 -1.0062,-0.3354c-0.1853,-0.3705 -0.0351,-0.821 0.3354,-1.0062c0.4477,-0.2239 1.0567,-0.3672 1.6816,-0.3912c0.6289,-0.0242 1.3461,0.0695 1.9893,0.3912c1.4203,0.7103 1.4161,2.125 1.4146,2.6272l-0.0001,0.0435v3.9998c0,0.4142 -0.3358,0.75 -0.75,0.75c-0.3952,0 -0.7191,-0.3058 -0.7479,-0.6937c-0.8714,0.5383 -1.8911,0.8506 -2.9454,0.5691c-2.0768,-0.5546 -2.8011,-3.3639 -0.7233,-4.7489c0.7744,-0.5163 1.7026,-0.6522 2.5262,-0.6105c0.3791,0.0192 0.7535,0.0768 1.1051,0.1622c-0.0551,-0.3109 -0.1954,-0.5797 -0.5502,-0.7571c-0.3568,-0.1785 -0.8062,-0.2514 -1.2606,-0.2339zM6.9998,7.2495c-0.3542,-0.122 -0.7791,-0.2133 -1.2163,-0.2354c-0.6288,-0.0318 -1.2011,0.0824 -1.6183,0.3605c-0.9234,0.6155 -0.6454,1.8049 0.2783,2.0516c0.751,0.2005 1.6682,-0.1835 2.5563,-0.9961z" fill="#212121"/>
</svg>
