<svg width="20" height="20" viewBox="0 0 20 20" fill="none" xmlns="http://www.w3.org/2000/svg">
<path d="M5.5,8.896c-0.441,-0.193 -0.75,-0.634 -0.75,-1.146c0,-0.69 0.56,-1.25 1.25,-1.25c0.69,-0 1.25,0.56 1.25,1.25c-0,0.512 -0.309,0.953 -0.75,1.146l0,0.923c0,0.289 0.124,0.563 0.342,0.753l2.658,2.326l0,-8.398l-0.543,-0c-0.186,0 -0.357,-0.103 -0.443,-0.268c-0.087,-0.165 -0.074,-0.365 0.032,-0.517l1.044,-1.5c0.093,-0.135 0.246,-0.215 0.41,-0.215c0.164,0 0.317,0.08 0.41,0.215l1.044,1.5c0.106,0.152 0.119,0.352 0.032,0.517c-0.086,0.165 -0.257,0.268 -0.443,0.268l-0.543,-0l-0,6.398l2.658,-2.326c0.218,-0.19 0.342,-0.464 0.342,-0.753l-0,-0.819l-0.25,-0c-0.276,-0 -0.5,-0.224 -0.5,-0.5l-0,-1.5c-0,-0.276 0.224,-0.5 0.5,-0.5l1.5,-0c0.276,-0 0.5,0.224 0.5,0.5l-0,1.5c-0,0.276 -0.224,0.5 -0.5,0.5l-0.25,-0l-0,0.819c-0,0.577 -0.249,1.126 -0.683,1.506l-3.317,2.902l-0,2.346c0.723,0.215 1.25,0.885 1.25,1.677c-0,0.966 -0.784,1.75 -1.75,1.75c-0.966,-0 -1.75,-0.784 -1.75,-1.75c-0,-0.79 0.525,-1.459 1.244,-1.676c-0.026,-0.248 -0.145,-0.48 -0.336,-0.646l-2.975,-2.603c-0.434,-0.38 -0.683,-0.929 -0.683,-1.506l0,-0.923Z" fill="#212121"/>
</svg>
