<svg width="20" height="20" viewBox="0 0 20 20" fill="none" xmlns="http://www.w3.org/2000/svg">
<path d="M5,9.299c-0.448,-0.259 -0.75,-0.744 -0.75,-1.299c0,-0.828 0.672,-1.5 1.5,-1.5c0.828,0 1.5,0.672 1.5,1.5c0,0.555 -0.302,1.04 -0.75,1.299l0,0.774c0,0.215 0.092,0.42 0.254,0.562l2.496,2.203l0,-7.838l-0.571,0c-0.184,0 -0.353,-0.101 -0.44,-0.263c-0.087,-0.162 -0.078,-0.359 0.023,-0.513l1.321,-2c0.092,-0.14 0.249,-0.224 0.417,-0.224c0.168,0 0.325,0.084 0.417,0.224l1.321,2c0.101,0.154 0.11,0.351 0.023,0.513c-0.087,0.162 -0.256,0.263 -0.44,0.263l-0.571,0l0,6.338l2.496,-2.203c0.162,-0.142 0.254,-0.347 0.254,-0.562l0,-0.573l-0.25,-0c-0.276,-0 -0.5,-0.224 -0.5,-0.5l0,-2c0,-0.276 0.224,-0.5 0.5,-0.5l2,0c0.276,0 0.5,0.224 0.5,0.5l-0,2c-0,0.276 -0.224,0.5 -0.5,0.5l-0.25,-0l-0,0.573c-0,0.646 -0.277,1.26 -0.761,1.687l-3.489,3.078l-0,1.331c0.591,0.281 1,0.883 1,1.581c0,0.966 -0.784,1.75 -1.75,1.75c-0.966,-0 -1.75,-0.784 -1.75,-1.75c0,-0.642 0.346,-1.203 0.861,-1.508c-0.033,-0.046 -0.071,-0.089 -0.115,-0.127l-3.235,-2.855c-0.484,-0.427 -0.761,-1.041 -0.761,-1.687l0,-0.774Z" fill="#212121"/>
</svg>
