<svg width="20" height="20" viewBox="0 0 20 20" fill="none" xmlns="http://www.w3.org/2000/svg">
  <path d="M4.513,14.49c-1.408,-0.12 -2.513,-1.301 -2.513,-2.74c0,-4.556 3.694,-8.25 8.25,-8.25l2.75,0c1.381,0 2.5,1.119 2.5,2.5l0,7.5l1.5,0l0,-1.5c0,-0.276 0.224,-0.5 0.5,-0.5c0.276,0 0.5,0.224 0.5,0.5l0,4c0,0.276 -0.224,0.5 -0.5,0.5c-0.276,0 -0.5,-0.224 -0.5,-0.5l0,-1.5l-8.014,0c-0.124,1.124 -1.079,2 -2.236,2c-1.161,0 -2.117,-0.881 -2.237,-2.01Zm4.359,-0.99l5.628,-0l0,-7.5c0,-0.828 -0.672,-1.5 -1.5,-1.5l-2.75,-0c-4.004,0 -7.25,3.246 -7.25,7.25c0,0.926 0.719,1.684 1.63,1.746c0.31,-0.871 1.143,-1.496 2.12,-1.496c0.979,0 1.813,0.626 2.122,1.5Zm4.128,-6.5l0,2.5c0,0.552 -0.448,1 -1,1l-2.5,0c-0.552,0 -1,-0.448 -1,-1l0,-2.5c0,-0.552 0.448,-1 1,-1l2.5,0c0.552,0 1,0.448 1,1Zm-3.5,0l0,2.5l2.5,-0l-0,-2.5l-2.5,0Zm-2.75,6c-0.69,0 -1.25,0.56 -1.25,1.25c0,0.69 0.56,1.25 1.25,1.25c0.69,0 1.25,-0.56 1.25,-1.25c0,-0.69 -0.56,-1.25 -1.25,-1.25Z" fill="#212121"/>
</svg>
