<svg width="20" height="20" viewBox="0 0 20 20" fill="none" xmlns="http://www.w3.org/2000/svg">
  <path d="M15,3c1.105,0 2,0.895 2,2v1c0,0.552 -0.448,1 -1,1h-0.778l1.136,3.034c0.934,0.169 1.642,0.984 1.642,1.966v1c0,1.105 -0.895,2 -2,2h-0.05c-0.231,1.141 -1.24,2 -2.45,2c-1.21,0 -2.219,-0.859 -2.45,-2h-2.1c-0.231,1.141 -1.241,2 -2.45,2c-1.209,0 -2.219,-0.859 -2.45,-2h-0.05c-1.105,0 -2,-0.895 -2,-2v-8c0,-1.105 0.895,-2 2,-2zM6.5,13c-0.828,0 -1.5,0.672 -1.5,1.5c0,0.828 0.672,1.5 1.5,1.5c0.828,0 1.5,-0.672 1.5,-1.5c0,-0.828 -0.672,-1.5 -1.5,-1.5zM13.5,13c-0.828,0 -1.5,0.672 -1.5,1.5c0,0.828 0.672,1.5 1.5,1.5c0.828,0 1.5,-0.672 1.5,-1.5c0,-0.828 -0.672,-1.5 -1.5,-1.5zM3,13c0,0.552 0.448,1 1,1h0.05c0.231,-1.141 1.241,-2 2.45,-2c1.209,0 2.219,0.859 2.45,2h2.1c0.231,-1.141 1.241,-2 2.45,-2c1.21,0 2.219,0.859 2.45,2h0.05c0.552,0 1,-0.448 1,-1v-1c0,-0.552 -0.448,-1 -1,-1h-13zM4,4c-0.552,0 -1,0.448 -1,1v5h7.5v-2c0,-1.105 0.895,-2 2,-2h3.5v-1c0,-0.552 -0.448,-1 -1,-1zM12.5,7c-0.552,0 -1,0.448 -1,1v2h3.778l-1.125,-3zM8,5c0.552,0 1,0.448 1,1v2c0,0.552 -0.448,1 -1,1h-3c-0.518,0 -0.944,-0.393 -0.995,-0.897l-0.005,-0.103v-2c0,-0.552 0.448,-1 1,-1zM5,8h3v-2h-3z" fill="#212121"/>
</svg>
