<svg width="20" height="20" viewBox="0 0 20 20" xmlns="http://www.w3.org/2000/svg">
  <path d="M7.3963,13.5c-0.3268,1.1537 -1.3885,2 -2.6463,2c-1.5178,0 -2.75,-1.2322 -2.75,-2.75c0,-1.5178 1.2322,-2.75 2.75,-2.75c0.749,0 1.4284,0.3001 1.9245,0.7864l6.0736,-3.4705c0.1557,-0.089 0.2519,-0.2547 0.2519,-0.4342v-2.8817c0,-0.1801 0.0969,-0.3463 0.2537,-0.4351c0.1567,-0.0888 0.3491,-0.0863 0.5035,0.0064l1.4421,0.8652c1.4273,0.8564 2.3007,2.3994 2.3007,4.064c0,0.5864 -0.3142,1.1278 -0.8233,1.4187l-0.4526,0.2586c1.0376,0.3936 1.7759,1.3974 1.7759,2.5722c0,1.5178 -1.2322,2.75 -2.75,2.75c-1.5178,0 -2.75,-1.2322 -2.75,-2.75c0,-0.1591 0.0135,-0.315 0.0395,-0.4667l-1.3222,0.7555c-0.5289,0.3022 -1.1274,0.4612 -1.7365,0.4612zM5.7505,11.3144c-0.2836,-0.1981 -0.6286,-0.3144 -1.0005,-0.3144c-0.9659,0 -1.75,0.7841 -1.75,1.75c0,0.9659 0.7841,1.75 1.75,1.75c0.6975,0 1.3003,-0.409 1.5814,-1h-1.5815c-0.3401,0 -0.6376,-0.2288 -0.7249,-0.5575c-0.0873,-0.3287 0.0576,-0.675 0.3528,-0.8437zM14.3739,11.2351c-0.5223,0.3029 -0.8739,0.8682 -0.8739,1.5149c0,0.9659 0.7841,1.75 1.75,1.75c0.9659,0 1.75,-0.7841 1.75,-1.75c0,-0.9659 -0.7841,-1.75 -1.75,-1.75c-0.3111,0 -0.6034,0.0814 -0.8566,0.2239c-0.0065,0.0037 -0.013,0.0074 -0.0195,0.0112zM7.6606,6.3976c0.6201,-0.5579 1.4404,-0.8976 2.3394,-0.8976c0.7434,0 1.4329,0.2323 2,0.6281v0.4635l-2,1.1428zM5.9857,10.0283l-2.1923,-2.2967c-0.3636,-0.3809 -0.3926,-0.971 -0.0681,-1.3857c0.3244,-0.4148 0.9041,-0.5286 1.3614,-0.2674l3.9055,2.2318z" fill="#212121" />
</svg>