<svg width="20" height="20" viewBox="0 0 20 20" fill="none" xmlns="http://www.w3.org/2000/svg">
<path d="M10.5316,14.5c-0.7369,1.4812 -2.2662,2.5 -4.0316,2.5c-2.4836,0 -4.5,-2.0164 -4.5,-4.5c0,-1.7454 0.9959,-3.2601 2.4499,-4.0063l0.662,-3.7542c0.1264,-0.7169 0.7493,-1.2395 1.4772,-1.2395h2.8218c0.7279,0 1.3508,0.5226 1.4772,1.2395l0.5749,3.2605h1.537v-2c0,-0.276 0.224,-0.5 0.5,-0.5c0.276,0 0.5,0.224 0.5,0.5v2h0.75c1.3807,0 2.5,1.1193 2.5,2.5v1.5c0,0.2206 -0.0286,0.4345 -0.0822,0.6382c0.5107,0.4579 0.8322,1.1226 0.8322,1.8618c0,1.3798 -1.1202,2.5 -2.5,2.5c-1.3798,0 -2.5,-1.1202 -2.5,-2.5zM10.4476,8l-0.5443,-3.0868c-0.0421,-0.239 -0.2498,-0.4132 -0.4924,-0.4132h-2.8218c-0.2426,0 -0.4502,0.1742 -0.4924,0.4132l-0.5627,3.1909c0.3112,-0.0682 0.6345,-0.1041 0.966,-0.1041zM6.5,9c-1.9317,0 -3.5,1.5683 -3.5,3.5c0,1.9317 1.5683,3.5 3.5,3.5c1.9317,0 3.5,-1.5683 3.5,-3.5c0,-1.9317 -1.5683,-3.5 -3.5,-3.5zM9.3273,9c1.02,0.8253 1.6727,2.087 1.6727,3.5c0,0.3436 -0.0386,0.6783 -0.1117,1h2.32c0.3861,-0.8826 1.2674,-1.5 2.2917,-1.5c0.2597,0 0.5102,0.0397 0.7458,0.1133c0.0028,-0.0374 0.0042,-0.0752 0.0042,-0.1133v-1.5001c0,-0.8283 -0.6716,-1.4999 -1.5,-1.4999zM15.5,13c-0.8279,0 -1.5,0.6721 -1.5,1.5c0,0.8279 0.6721,1.5 1.5,1.5c0.8279,0 1.5,-0.6721 1.5,-1.5c0,-0.8279 -0.6721,-1.5 -1.5,-1.5z" fill="#212121"/>
</svg>
