<svg width="20" height="20" viewBox="0 0 20 20" fill="none" xmlns="http://www.w3.org/2000/svg">
  <path d="M15,3c1.105,0 2,0.895 2,2v1c0,0.552 -0.448,1 -1,1h-0.778l1.136,3.034c0.934,0.169 1.642,0.984 1.642,1.966v1c0,1.105 -0.895,2 -2,2h-0.05c-0.231,1.141 -1.24,2 -2.45,2c-1.21,0 -2.219,-0.859 -2.45,-2h-2.1c-0.231,1.141 -1.241,2 -2.45,2c-1.209,0 -2.219,-0.859 -2.45,-2h-0.05c-1.105,0 -2,-0.895 -2,-2v-8c0,-1.105 0.895,-2 2,-2zM6.5,13c-0.828,0 -1.5,0.672 -1.5,1.5c0,0.828 0.672,1.5 1.5,1.5c0.828,0 1.5,-0.672 1.5,-1.5c0,-0.828 -0.672,-1.5 -1.5,-1.5zM13.5,13c-0.828,0 -1.5,0.672 -1.5,1.5c0,0.828 0.672,1.5 1.5,1.5c0.828,0 1.5,-0.672 1.5,-1.5c0,-0.828 -0.672,-1.5 -1.5,-1.5zM12.5,7c-0.552,0 -1,0.448 -1,1v2h3.778l-1.125,-3zM5,6c-0.552,0 -1,0.448 -1,1v2l0.005,0.103c0.051,0.504 0.477,0.897 0.995,0.897h3c0.552,0 1,-0.448 1,-1v-2c0,-0.552 -0.448,-1 -1,-1z
" fill="#212121"/>
</svg>
