<svg width="20" height="20" viewBox="0 0 20 20" fill="none" xmlns="http://www.w3.org/2000/svg">
<path d="M7.75,2c-0.4142,0 -0.75,0.3358 -0.75,0.75v1.25h-0.8604c-1.1917,0 -2.2177,0.8411 -2.4514,2.0097l-0.1982,0.9903h-0.74c-0.4142,0 -0.75,0.3358 -0.75,0.75c0,0.4142 0.3358,0.75 0.75,0.75h0.44l-0.1111,0.5599c-0.6234,0.182 -1.0789,0.7579 -1.0789,1.4401v3c0,0.8284 0.6716,1.5 1.5,1.5h13c0.8284,0 1.5,-0.6716 1.5,-1.5v-3c0,-0.6822 -0.4555,-1.2581 -1.0789,-1.4401l-0.1121,-0.5599h0.441l0.1018,-0.0069c0.366,-0.0496 0.6482,-0.3634 0.6482,-0.7431l-0.0068,-0.1018c-0.0497,-0.366 -0.3635,-0.6482 -0.7432,-0.6482h-0.741l-0.1972,-0.9903c-0.2337,-1.1686 -1.2597,-2.0097 -2.4514,-2.0097h-0.8604v-1.25c0,-0.4142 -0.3358,-0.75 -0.75,-0.75zM6.1396,5h7.7208c0.715,0 1.3306,0.5047 1.4709,1.2058l0.5588,2.7942h-11.7802l0.5588,-2.7942c0.1403,-0.7011 0.7559,-1.2058 1.4709,-1.2058zM4.5,12c0,-0.5523 0.4477,-1 1,-1c0.5523,0 1,0.4477 1,1c0,0.5523 -0.4477,1 -1,1c-0.5523,0 -1,-0.4477 -1,-1zM13.5,12c0,-0.5523 0.4477,-1 1,-1c0.5523,0 1,0.4477 1,1c0,0.5523 -0.4477,1 -1,1c-0.5523,0 -1,-0.4477 -1,-1zM6,17v-1h-2v1c0,0.5523 0.4477,1 1,1c0.5523,0 1,-0.4477 1,-1zM16,16v1c0,0.5523 -0.4477,1 -1,1c-0.5523,0 -1,-0.4477 -1,-1v-1z" fill="#212121"/>
</svg>
