<svg width="20" height="20" viewBox="0 0 20 20" fill="none" xmlns="http://www.w3.org/2000/svg">
<path d="M10,13v-6c0,-0.8279 0.6721,-1.5 1.5,-1.5c0.0023,0 0.0047,0 0.007,0h0.4923c0.8279,0 1.5007,0.6721 1.5007,1.5v6c0,0.8279 -0.6721,1.5 -1.5,1.5h-0.5c-0.8279,0 -1.5,-0.6721 -1.5,-1.5zM10,10c0,0.4421 -0.2335,0.8513 -0.6141,1.0762l-5.5,3.25c-0.3864,0.2283 -0.8656,0.2319 -1.2554,0.0095c-0.3899,-0.2225 -0.6305,-0.6369 -0.6305,-1.0857v-6.5c0,-0.4488 0.2406,-0.8632 0.6305,-1.0857c0.3898,-0.2224 0.869,-0.2188 1.2554,0.0095l5.5,3.25c0.3806,0.2249 0.6141,0.6341 0.6141,1.0762zM16,5.5c0.0023,0 0.0047,0 0.007,0h0.4923c0.8279,0 1.5007,0.6721 1.5007,1.5v6c0,0.8279 -0.6721,1.5 -1.5,1.5h-0.5c-0.8279,0 -1.5,-0.6721 -1.5,-1.5v-6c0,-0.8279 0.6721,-1.5 1.5,-1.5z" fill="#212121"/>
</svg>
