<svg width="20" height="20" viewBox="0 0 20 20" fill="none" xmlns="http://www.w3.org/2000/svg">
<path d="M5.8254,6.1204c0.2097,0.1797 0.2339,0.4953 0.0542,0.705l-2.7211,3.1746l2.7211,3.1746c0.1797,0.2097 0.1555,0.5253 -0.0542,0.705c-0.2097,0.1797 -0.5253,0.1555 -0.705,-0.0542l-3,-3.5c-0.1605,-0.1872 -0.1605,-0.4635 0,-0.6508l3,-3.5c0.1797,-0.2097 0.4953,-0.2339 0.705,-0.0542zM14.1204,13.1746l2.7211,-3.1746l-2.7211,-3.1746c-0.1797,-0.2097 -0.1554,-0.5253 0.0542,-0.705c0.2097,-0.1797 0.5253,-0.1555 0.705,0.0542l3,3.5c0.1605,0.1873 0.1605,0.4636 0,0.6508l-3,3.5c-0.1797,0.2097 -0.4953,0.2339 -0.705,0.0542c-0.2096,-0.1797 -0.2339,-0.4953 -0.0542,-0.705zM6.5,11c-0.5523,0 -1,-0.4477 -1,-1c0,-0.5523 0.4477,-1 1,-1c0.5523,0 1,0.4477 1,1c0,0.5523 -0.4477,1 -1,1zM11,10c0,0.5523 -0.4477,1 -1,1c-0.5523,0 -1,-0.4477 -1,-1c0,-0.5523 0.4477,-1 1,-1c0.5523,0 1,0.4477 1,1zM13.5,11c-0.5523,0 -1,-0.4477 -1,-1c0,-0.5523 0.4477,-1 1,-1c0.5523,0 1,0.4477 1,1c0,0.5523 -0.4477,1 -1,1z" fill="#212121"/>
</svg>
