<svg width="20" height="20" viewBox="0 0 20 20" fill="none" xmlns="http://www.w3.org/2000/svg">
<path d="M5.7073,6.1556c0.3283,0.2525 0.3897,0.7234 0.1372,1.0517l-2.1483,2.7927l2.1483,2.7928c0.2525,0.3283 0.1911,0.7992 -0.1372,1.0517c-0.3283,0.2526 -0.7992,0.1911 -1.0518,-0.1372l-2.5,-3.25c-0.2073,-0.2696 -0.2073,-0.645 0,-0.9145l2.5,-3.25c0.2526,-0.3284 0.7235,-0.3898 1.0518,-0.1372zM14.1556,12.7928l2.1482,-2.7928l-2.1482,-2.7927c-0.2526,-0.3283 -0.1912,-0.7992 0.1372,-1.0517c0.3283,-0.2526 0.7992,-0.1912 1.0517,0.1372l2.5,3.25c0.2074,0.2695 0.2074,0.6449 0,0.9145l-2.5,3.25c-0.2525,0.3283 -0.7234,0.3898 -1.0517,0.1372c-0.3284,-0.2525 -0.3898,-0.7234 -0.1372,-1.0517zM6.5,11c-0.5523,0 -1,-0.4477 -1,-1c0,-0.5523 0.4477,-1 1,-1c0.5523,0 1,0.4477 1,1c0,0.5523 -0.4477,1 -1,1zM11,10c0,0.5523 -0.4477,1 -1,1c-0.5523,0 -1,-0.4477 -1,-1c0,-0.5523 0.4477,-1 1,-1c0.5523,0 1,0.4477 1,1zM13.5,11c-0.5523,0 -1,-0.4477 -1,-1c0,-0.5523 0.4477,-1 1,-1c0.5523,0 1,0.4477 1,1c0,0.5523 -0.4477,1 -1,1z" fill="#212121"/>
</svg>
