<svg width="20" height="20" viewBox="0 0 20 20" fill="none" xmlns="http://www.w3.org/2000/svg">
<path d="M8,2.5v1.5h6.5c0.8284,0 1.5,0.6716 1.5,1.5v6.8486c0,0.0987 -0.0292,0.1952 -0.084,0.2774l-1.916,2.874v1c0,0.8284 -0.6716,1.5 -1.5,1.5h-5c-0.8284,0 -1.5,-0.6716 -1.5,-1.5v-1l-1.916,-2.874c-0.0548,-0.0822 -0.084,-0.1787 -0.084,-0.2774v-6.8486c0,-0.8284 0.6716,-1.5 1.5,-1.5h1.5v-1.5c0,-0.2761 0.2239,-0.5 0.5,-0.5c0.2761,0 0.5,0.2239 0.5,0.5zM5.5,5c-0.2761,0 -0.5,0.2239 -0.5,0.5v6.6972l1.916,2.874c0.0548,0.0822 0.084,0.1787 0.084,0.2774v1.1514c0,0.2761 0.2239,0.5 0.5,0.5h5c0.2761,0 0.5,-0.2239 0.5,-0.5v-1.1514c0,-0.0987 0.0292,-0.1952 0.084,-0.2774l1.916,-2.874v-6.6972c0,-0.2761 -0.2239,-0.5 -0.5,-0.5zM7.5,7h5c0.2761,0 0.5,0.2239 0.5,0.5v3c0,0.2761 -0.2239,0.5 -0.5,0.5h-5c-0.2761,0 -0.5,-0.2239 -0.5,-0.5v-3c0,-0.2761 0.2239,-0.5 0.5,-0.5zM8,10h4v-2h-4zM8,13.5c0,-0.2761 0.2239,-0.5 0.5,-0.5h3c0.2761,0 0.5,0.2239 0.5,0.5c0,0.2761 -0.2239,0.5 -0.5,0.5h-3c-0.2761,0 -0.5,-0.2239 -0.5,-0.5z" fill="#212121"/>
</svg>
