<svg width="20" height="20" viewBox="0 0 20 20" fill="none" xmlns="http://www.w3.org/2000/svg">
<path d="M9.75,10h-7c-0.4142,0 -0.75,-0.3358 -0.75,-0.75c0,-0.4142 0.3358,-0.75 0.75,-0.75h7c0.9659,0 1.75,-0.7841 1.75,-1.75c0,-0.9659 -0.7841,-1.75 -1.75,-1.75c-0.9122,0 -1.6627,0.6993 -1.7429,1.5908c-0.0371,0.4123 -0.4019,0.7169 -0.8141,0.6798c-0.4123,-0.037 -0.7169,-0.4018 -0.6799,-0.8141c0.149,-1.6563 1.5422,-2.9565 3.2369,-2.9565c1.7937,0 3.25,1.4563 3.25,3.25c0,1.7937 -1.4563,3.25 -3.25,3.25zM6,4c0,1.1046 -0.8954,2 -2,2c-1.1046,0 -2,-0.8954 -2,-2c0,-1.1046 0.8954,-2 2,-2c1.1046,0 2,0.8954 2,2zM4.75,4c0,-0.4142 -0.3358,-0.75 -0.75,-0.75c-0.4142,0 -0.75,0.3358 -0.75,0.75c0,0.4142 0.3358,0.75 0.75,0.75c0.4142,0 0.75,-0.3358 0.75,-0.75zM15.5503,8c1.3528,0 2.4494,1.0966 2.4494,2.4494v0.0506c0,1.3807 -1.1193,2.5 -2.5,2.5h-0.9161c0.1074,0.2708 0.1664,0.566 0.1664,0.875c0,1.3136 -1.0684,2.375 -2.3781,2.375c-0.7932,0 -1.537,-0.3953 -1.9792,-1.0558l-0.0159,-0.0237c-0.2305,-0.3442 -0.1383,-0.81 0.2059,-1.0405c0.3442,-0.2304 0.8101,-0.1382 1.0405,0.206l0.0159,0.0237c0.1628,0.2432 0.4384,0.3903 0.7328,0.3903c0.4851,0 0.8781,-0.3936 0.8781,-0.875c0,-0.4832 -0.3918,-0.875 -0.875,-0.875h-9.625c-0.4142,0 -0.75,-0.3358 -0.75,-0.75c0,-0.4142 0.3358,-0.75 0.75,-0.75h12.7497c0.5523,0 1,-0.4477 1,-1v-0.0506c0,-0.5243 -0.4251,-0.9494 -0.9494,-0.9494c-0.3596,0 -0.6884,0.2032 -0.8492,0.5248l-0.0303,0.0606c-0.1852,0.3705 -0.6357,0.5207 -1.0062,0.3354c-0.3705,-0.1852 -0.5207,-0.6357 -0.3354,-1.0062l0.0303,-0.0606c0.4149,-0.8298 1.263,-1.354 2.1908,-1.354zM7,18c-1.1046,0 -2,-0.8954 -2,-2c0,-1.1046 0.8954,-2 2,-2c1.1046,0 2,0.8954 2,2c0,1.1046 -0.8954,2 -2,2zM7,16.75c0.4142,0 0.75,-0.3358 0.75,-0.75c0,-0.4142 -0.3358,-0.75 -0.75,-0.75c-0.4142,0 -0.75,0.3358 -0.75,0.75c0,0.4142 0.3358,0.75 0.75,0.75zM18,5c0,1.1046 -0.8954,2 -2,2c-1.1046,0 -2,-0.8954 -2,-2c0,-1.1046 0.8954,-2 2,-2c1.1046,0 2,0.8954 2,2zM16.75,5c0,-0.4142 -0.3358,-0.75 -0.75,-0.75c-0.4142,0 -0.75,0.3358 -0.75,0.75c0,0.4142 0.3358,0.75 0.75,0.75c0.4142,0 0.75,-0.3358 0.75,-0.75z" fill="#212121"/>
</svg>
