<svg width="20" height="20" viewBox="0 0 20 20" fill="none" xmlns="http://www.w3.org/2000/svg">
<path d="M12,13.5c0,2.4836 -2.0164,4.5 -4.5,4.5c-2.4836,0 -4.5,-2.0164 -4.5,-4.5c0,-2.1455 1.5048,-3.9424 3.5157,-4.3918l1.5624,-1.8269l-0.5547,-0.3311l-0.5361,0.5371c-0.6834,0.6831 -1.7913,0.6831 -2.4746,0c-0.6831,-0.6835 -0.6833,-1.7913 0,-2.4746l1.501,-1.5l0.1094,-0.1016c0.566,-0.4767 1.3795,-0.5488 2.0244,-0.164l2.8984,1.7304c-0.0299,-0.1546 -0.0459,-0.3142 -0.0459,-0.4775c0,-1.3807 1.1193,-2.5 2.5,-2.5c1.3807,0 2.5,1.1193 2.5,2.5c0,1.3807 -1.1193,2.5 -2.5,2.5c-0.0502,0 -0.0999,-0.0049 -0.1494,-0.0078c0.0065,0.0293 0.0154,0.0581 0.0205,0.0879c0.0857,0.5049 -0.0545,1.0231 -0.3828,1.416l-1.2578,1.5039h3.5205c0.5305,0.0002 1.0332,0.2414 1.3652,0.6553c0.3317,0.4137 0.4575,0.9559 0.3428,1.4736l-1,4.5039c-0.2095,0.9432 -1.1437,1.538 -2.0869,1.3291c-0.9435,-0.2095 -1.5386,-1.1444 -1.3291,-2.0879l0.5273,-2.374zM7.9078,9.0183c0.912,0.0821 1.7459,0.4367 2.4195,0.9817h0.0995l1.7949,-2.1455c0.1404,-0.1683 0.2006,-0.3904 0.164,-0.6064c-0.0367,-0.2163 -0.1672,-0.4061 -0.3554,-0.5186l-4.3955,-2.623c-0.2578,-0.1539 -0.5786,-0.1375 -0.8174,0.0312l-0.0967,0.082l-1.501,1.5c-0.2928,0.2929 -0.2927,0.7677 0,1.0606c0.2929,0.2926 0.7677,0.2927 1.0606,0l1.0869,-1.0879l2.2412,1.3379zM11.2413,11c0.3011,0.4495 0.5234,0.9561 0.647,1.5h2.4281l-0.7978,3.5908c-0.0898,0.4044 0.1659,0.8048 0.5703,0.8946c0.404,0.0892 0.8048,-0.1653 0.8945,-0.5694l1,-4.5039c0.049,-0.2217 -0.0054,-0.4546 -0.1475,-0.6318c-0.1422,-0.1772 -0.3578,-0.2801 -0.5849,-0.2803zM7.5,10c-1.9317,0 -3.5,1.5683 -3.5,3.5c0,1.9317 1.5683,3.5 3.5,3.5c1.9317,0 3.5,-1.5683 3.5,-3.5c0,-1.9317 -1.5683,-3.5 -3.5,-3.5zM13.5,3c-0.8284,0 -1.5,0.6716 -1.5,1.5c0,0.8284 0.6716,1.5 1.5,1.5c0.8284,0 1.5,-0.6716 1.5,-1.5c0,-0.8284 -0.6716,-1.5 -1.5,-1.5z
" fill="#212121"/>
</svg>
