<svg width="20" height="20" viewBox="0 0 20 20" fill="none" xmlns="http://www.w3.org/2000/svg">
<path d="M12.4736,3.7884c0.085,0.1821 0.0545,0.4054 -0.0933,0.5587c-0.1917,0.1987 -0.5082,0.2045 -0.707,0.0128l-1.3269,-1.2403c-0.1937,-0.1868 -0.5004,-0.1868 -0.6941,-0.0001l-1.3063,1.2413c-0.1988,0.1917 -0.5153,0.1859 -0.7069,-0.0129c-0.1917,-0.1988 -0.1859,-0.5153 0.0129,-0.707l1.3062,-1.2413c0.5811,-0.5602 1.5013,-0.5601 2.0823,0.0002c0.5493,0.5383 1.1251,1.0973 1.4331,1.3886zM12.3888,3.6619c-0.0069,-0.0071 -0.0141,-0.0144 -0.0213,-0.0218c0.0074,0.0071 0.0145,0.0144 0.0213,0.0218zM12.4736,3.7884c-0.0211,-0.0453 -0.0494,-0.088 -0.0848,-0.1265c0.4271,0.4375 0.374,0.4001 0.0848,0.1265zM4.36,8.3469l-1.2414,1.3062c-0.1866,0.1937 -0.1867,0.5003 -0.0001,0.694l1.262,1.306c0.1916,0.1989 0.1857,0.5154 -0.0132,0.707c-0.1989,0.1916 -0.5154,0.1856 -0.707,-0.0132l-1.262,-1.3061c-0.5598,-0.5811 -0.5596,-1.5008 0.0004,-2.0817l1.2413,-1.3062c0.1917,-0.1988 0.5082,-0.2046 0.707,-0.013c0.1988,0.1917 0.2046,0.5082 0.013,0.707zM16.359,7.6529l1.2461,1.3112c0.5612,0.5821 0.56,1.5043 -0.0028,2.085l-1.2442,1.2998c-0.1922,0.1982 -0.5088,0.2032 -0.7071,0.011c-0.1982,-0.1922 -0.2032,-0.5087 -0.011,-0.707l1.2442,-1.2998c0.1876,-0.1935 0.188,-0.5009 0.001,-0.695l-1.2461,-1.3112c-0.1917,-0.1988 -0.1859,-0.5153 0.0129,-0.707c0.1988,-0.1916 0.5153,-0.1858 0.707,0.013zM8.3459,15.6408l1.3116,1.2451c0.1941,0.1869 0.5013,0.1865 0.6948,-0.001l1.2988,-1.2431c0.1983,-0.1922 0.5148,-0.1872 0.707,0.0111c0.1922,0.1983 0.1872,0.5149 -0.0111,0.707l-1.2988,1.2431c-0.5804,0.5625 -1.5023,0.5639 -2.0845,0.0031l-1.3116,-1.2451c-0.1988,-0.1916 -0.2048,-0.5081 -0.0132,-0.707c0.1916,-0.1989 0.5081,-0.2048 0.707,-0.0132zM8,6h4c1.1046,0 2,0.8953 2,2v4c0,1.1045 -0.8954,2 -2,2h-4c-1.1046,0 -2,-0.8955 -2,-2v-4c0,-1.1047 0.8954,-2 2,-2zM7,8v4c0,0.5522 0.4477,1 1,1h4c0.5523,0 1,-0.4478 1,-1v-4c0,-0.5524 -0.4477,-1 -1,-1h-4c-0.5523,0 -1,0.4476 -1,1z" fill="#212121"/>
</svg>
