<svg width="100%" height="100%" viewBox="0 0 52 52" xmlns="http://www.w3.org/2000/svg">
  <path fill="#7a67f8"
    d="M35.46256,40.04935h-0.01198c-2.8497,-0.00503 -5.39578,-1.97983 -8.58096,-5.16501l-6.91935,-6.86232l2.16267,-2.18472l6.9263,6.86951c3.0704,3.0692 4.86859,4.26544 6.41733,4.26831h0.00479c1.56479,0 3.46171,-1.25998 6.54793,-4.34643l3.53576,-3.58129c1.78118,-1.78142 2.56597,-3.33495 2.40422,-4.75476c-0.12988,-1.1543 -0.89263,-2.3932 -2.39727,-3.89808l-0.03307,-0.03379c-1.62542,-1.72942 -3.6134,-3.65749 -5.69029,-4.72481c-0.38533,-1.97384 -1.64842,-3.52761 -1.82815,-3.81206c3.7972,0.5581 7.18606,3.69727 9.74317,6.41397c2.78356,2.78979 5.79405,7.16498 -0.01797,12.97604l-3.53456,3.58249c-3.24605,3.24509 -5.83526,5.25296 -8.72881,5.25296" />
  <path fill="#f85977"
    d="M26.1179,29.80822l6.48203,-6.552c3.07112,-3.07135 4.26735,-4.86955 4.26927,-6.41805c0.00407,-1.56455 -1.25495,-3.46363 -4.34524,-6.55296l-3.58153,-3.53456c-3.6424,-3.6424 -5.84988,-2.81159 -8.65357,-0.00791l-0.03307,0.03283c-1.53747,1.4457 -3.23191,3.17703 -4.33924,5.0023c-1.02946,0.07285 -2.35749,0.42343 -3.99082,1.51567c0.90461,-3.39174 3.7313,-6.41206 6.20645,-8.74151c2.78955,-2.78476 7.16594,-5.795 12.977,0.01701l3.58249,3.53456c3.24988,3.25084 5.25799,5.84197 5.252,8.74055c-0.00503,2.84946 -1.97912,5.39554 -5.16406,8.58072l-6.47915,6.54888z" />
  <path fill="#159bff"
    d="M13.26072,39.89167c-3.5777,-0.75987 -6.76575,-3.72938 -9.19993,-6.31524c-1.271,-1.27412 -2.98245,-3.247 -3.2609,-5.71018c-0.27366,-2.41045 0.79869,-4.78783 3.27792,-7.26682l3.53648,-3.58249c3.24509,-3.24509 5.83406,-5.25296 8.72665,-5.25296h0.01294c2.84946,0.00503 5.39578,1.97983 8.57976,5.16406l7.0351,6.96512l-2.16147,2.18664l-7.04229,-6.97207c-3.07135,-3.07135 -4.86859,-4.26664 -6.41709,-4.26951h-0.00599c-1.56359,0 -3.46076,1.25902 -6.54697,4.34524l-3.53552,3.58249c-1.78142,1.78118 -2.56621,3.33495 -2.40542,4.75476c0.13084,1.1543 0.89263,2.39224 2.39847,3.89784l0.03283,0.03403c1.54754,1.64651 3.42481,3.4737 5.39266,4.56594c0.16774,1.73637 1.19816,3.29206 1.58253,3.87412" />
  <path fill="#67e5ad"
    d="M27.03736,50.99451c-1.92208,0 -4.10776,-0.88472 -6.54697,-3.32488l-3.58249,-3.53456c-6.99724,-6.99724 -7.01305,-10.39497 -0.0889,-17.32031l6.79163,-6.86136l2.18975,2.1586l-6.8017,6.87143c-3.07112,3.07135 -4.2664,4.86955 -4.26927,6.41709c-0.00312,1.56551 1.25591,3.46459 4.34524,6.55296l3.58249,3.53552c3.64048,3.64144 5.84892,2.81159 8.65261,0.00815l0.03403,-0.03307c1.65154,-1.55257 3.49454,-3.45476 4.58582,-5.42861c1.65849,-0.13971 2.89571,-0.83967 3.82931,-1.43587c-0.79893,3.53169 -3.73226,6.67972 -6.29248,9.08802c-1.61751,1.61559 -3.77108,3.30691 -6.42907,3.30691" />
</svg>