<svg width="20" height="20" viewBox="0 0 20 20" fill="none" xmlns="http://www.w3.org/2000/svg">
<path d="M18,4.5v11c0,0.4142 -0.3358,0.75 -0.75,0.75c-0.4142,0 -0.75,-0.3358 -0.75,-0.75v-11c0,-0.4142 0.3358,-0.75 0.75,-0.75c0.4142,0 0.75,0.3358 0.75,0.75zM14.25,10.75h-9.6893l2.7196,2.7197c0.2929,0.2929 0.2929,0.7677 0,1.0606c-0.2929,0.2929 -0.7677,0.2929 -1.0606,0l-3.9963,-3.9963c-0.0134,-0.0132 -0.0263,-0.0269 -0.0387,-0.0411c-0.048,-0.0549 -0.0866,-0.1151 -0.1159,-0.1786c-0.0441,-0.0956 -0.0688,-0.2021 -0.0688,-0.3143c0,-0.1108 0.024,-0.2159 0.0671,-0.3106c0.0301,-0.0662 0.0703,-0.1289 0.1207,-0.1858c0.0113,-0.0128 0.0231,-0.0252 0.0352,-0.0373l3.9967,-3.9966c0.2929,-0.2929 0.7677,-0.2929 1.0606,0c0.2929,0.2929 0.2929,0.7677 0,1.0606l-2.7196,2.7197h9.6893c0.4142,0 0.75,0.3358 0.75,0.75c0,0.4142 -0.3358,0.75 -0.75,0.75z" fill="#212121"/>
</svg>
