<svg width="20" height="20" viewBox="0 0 20 20" fill="none" xmlns="http://www.w3.org/2000/svg">
<path d="M13.5,4.75c0,-0.4142 -0.3358,-0.75 -0.75,-0.75h-7c-0.4142,0 -0.75,0.3358 -0.75,0.75c0,0.4142 0.3358,0.75 0.75,0.75h7c0.4142,0 0.75,-0.3358 0.75,-0.75zM12.75,9h-10c-0.4142,0 -0.75,0.3358 -0.75,0.75c0,0.4142 0.3358,0.75 0.75,0.75h10c0.4142,0 0.75,-0.3358 0.75,-0.75c0,-0.4142 -0.3358,-0.75 -0.75,-0.75zM12.75,14h-5c-0.4142,0 -0.75,0.3358 -0.75,0.75c0,0.4142 0.3358,0.75 0.75,0.75h5c0.4142,0 0.75,-0.3358 0.75,-0.75c0,-0.4142 -0.3358,-0.75 -0.75,-0.75zM16.7197,7.7197l-1.5,1.5c-0.2929,0.2929 -0.2929,0.7677 0,1.0606l1.5,1.5c0.2929,0.2929 0.7677,0.2929 1.0606,0c0.2929,-0.2929 0.2929,-0.7677 0,-1.0606l-0.9696,-0.9697l0.9696,-0.9697c0.2929,-0.2929 0.2929,-0.7677 0,-1.0606c-0.2929,-0.2929 -0.7677,-0.2929 -1.0606,0z" fill="#212121"/>
</svg>
