<svg width="20" height="20" viewBox="0 0 20 20" fill="none" xmlns="http://www.w3.org/2000/svg">
<path d="M9.1659,3.5953c0.8404,-0.8407 1.9615,-1.2597 3.0638,-1.4515c1.1015,-0.1916 2.224,-0.1637 3.1192,-0.0778c1.3822,0.1327 2.4522,1.2032 2.5849,2.5859c0.0858,0.8956 0.1138,2.0186 -0.0778,3.1206c-0.1917,1.1025 -0.6105,2.2241 -1.4508,3.0648c-1.4142,1.4147 -3.6544,1.6656 -5.3486,1.6238c-0.1858,-0.0046 -0.3417,0.1393 -0.3536,0.3177c-0.096,1.435 -0.3851,3.1873 -1.1545,4.6304c-0.265,0.4971 -0.769,0.6788 -1.229,0.5586c-0.4359,-0.114 -0.793,-0.4856 -0.8875,-0.9881c-0.122,-0.6488 -0.284,-1.394 -0.4794,-2.0384c-0.0974,-0.3213 -0.2005,-0.6086 -0.3072,-0.8422c-0.1085,-0.2374 -0.2057,-0.3859 -0.2809,-0.4612c-0.0752,-0.0752 -0.2239,-0.1726 -0.4613,-0.2813c-0.2336,-0.107 -0.5211,-0.2104 -0.8426,-0.3081c-0.6446,-0.1959 -1.3902,-0.3587 -2.0389,-0.4812c-0.5021,-0.0949 -0.8733,-0.4523 -0.987,-0.8885c-0.1199,-0.4602 0.062,-0.9641 0.5589,-1.229c1.4433,-0.7693 3.1959,-1.0576 4.631,-1.1528c0.1784,-0.0118 0.3223,-0.1678 0.3178,-0.3536c-0.0414,-1.6945 0.2101,-3.9341 1.6235,-5.3481zM9.8732,4.3022c-1.215,1.2156 -1.3666,3.1601 -1.3311,4.6168c0.0177,0.7269 -0.5535,1.3295 -1.2513,1.3758c-1.3088,0.0868 -2.9106,0.3358 -4.2268,1.0375c-0.0415,0.0221 -0.0716,0.0559 -0.0616,0.0944c0.0221,0.085 0.1071,0.1395 0.2049,0.1579c0.6823,0.1289 1.4662,0.301 2.1441,0.5071c0.3695,0.1123 0.6995,0.2326 0.9681,0.3557c0.393,0.1799 0.6279,0.3592 0.7524,0.4837c0.1244,0.1246 0.3034,0.3593 0.483,0.7524c0.1227,0.2685 0.2427,0.5983 0.3547,0.9677c0.2055,0.6777 0.3768,1.4613 0.5052,2.1437c0.0184,0.0979 0.0727,0.1832 0.1577,0.2054c0.0382,0.01 0.0716,-0.0203 0.0936,-0.0616c0.7017,-1.3162 0.9516,-2.9178 1.0391,-4.2267c0.0468,-0.6979 0.6494,-1.2684 1.376,-1.2506c1.4563,0.0359 3.4011,-0.115 4.6168,-1.3311c0.6909,-0.6912 1.0152,-1.6227 1.1728,-2.5291c0.1752,-1.0077 0.146,-2.0348 0.0675,-2.8538c-0.0865,-0.9015 -0.7839,-1.5995 -1.685,-1.6859c-0.8185,-0.0786 -1.845,-0.1077 -2.8523,0.0675c-0.906,0.1577 -1.837,0.4822 -2.5278,1.1732zM13.5,4.25c0.4143,0 0.75,0.3358 0.75,0.75c0,0.4142 -0.3357,0.75 -0.75,0.75c-0.4142,0 -0.75,-0.3358 -0.75,-0.75c0,-0.4142 0.3358,-0.75 0.75,-0.75z" fill="#212121"/>
</svg>
