<svg width="20" height="20" viewBox="0 0 20 20" fill="none" xmlns="http://www.w3.org/2000/svg">
<path d="M4.0305,7.1752c0.7985,-0.6303 1.1121,-0.8939 1.4389,-1.4385c0.8652,-1.4421 1.5863,-2.1632 3.0284,-2.9563c1.9684,-1.0826 4.457,-0.6851 5.771,0.1442c1.599,1.0095 2.2793,2.1091 2.6824,2.8123c0.4032,0.7031 1.1442,2.1785 1.0383,3.7502c-0.0422,0.6264 -0.1131,0.9992 -0.1748,1.3232c-0.0927,0.4878 -0.1644,0.8646 -0.0846,1.8308c0.1332,1.6114 -0.6524,3.5968 -2.0206,4.452c-1.5201,0.9501 -3.3392,1.1531 -5.0497,0.4689c-1.2826,-0.513 -1.4499,-0.5068 -2.3711,-0.4722c-0.3046,0.0116 -0.6914,0.0261 -1.2277,0.0261c-2.1646,0 -3.6077,-1.2842 -4.358,-2.7272c-1.1163,-2.1466 -1.0545,-5.3329 1.3275,-7.2135zM14.9,10.465c0,-2.4825 -2.0125,-4.495 -4.495,-4.495c-2.4825,0 -4.495,2.0125 -4.495,4.495c0,2.4825 2.0125,4.495 4.495,4.495c2.4825,0 4.495,-2.0125 4.495,-4.495zM10.469,9.6089c-0.5043,-0.0728 -1.2115,0.3728 -1.2115,1.1729c0,0.2761 -0.2238,0.5 -0.4999,0.5c-0.2762,0 -0.5001,-0.2239 -0.5001,-0.5c0,-1.4408 1.2789,-2.3179 2.3544,-2.1626c0.2733,0.0395 0.4629,0.293 0.4234,0.5663c-0.0395,0.2733 -0.293,0.4629 -0.5663,0.4234z" fill="#212121"/>
</svg>
