<svg width="20" height="20" viewBox="0 0 20 20" fill="none" xmlns="http://www.w3.org/2000/svg">
<path d="M8.5485,2.36l0.933,0.3672c0.3329,0.131 0.7031,0.131 1.0359,0l0.9331,-0.3672c1.1421,-0.4495 2.4351,0.0861 2.9249,1.2115l0.4001,0.9195c0.1427,0.328 0.4044,0.5897 0.7325,0.7325l0.9194,0.4001c1.1254,0.4898 1.6611,1.7827 1.2115,2.9249l-0.3671,0.933c-0.1311,0.3329 -0.1311,0.7031 0,1.0359l0.3671,0.9331c0.4496,1.1421 -0.0861,2.4351 -1.2115,2.9249l-0.9194,0.4001c-0.3281,0.1427 -0.5898,0.4044 -0.7325,0.7325l-0.4001,0.9194c-0.4898,1.1254 -1.7828,1.6611 -2.9249,1.2115l-0.9331,-0.3671c-0.3328,-0.1311 -0.703,-0.1311 -1.0359,0l-0.933,0.3671c-1.1422,0.4496 -2.4351,-0.0861 -2.9249,-1.2115l-0.4001,-0.9194c-0.1428,-0.3281 -0.4045,-0.5898 -0.7325,-0.7325l-0.9195,-0.4001c-1.1254,-0.4898 -1.661,-1.7828 -1.2115,-2.9249l0.3672,-0.9331c0.131,-0.3328 0.131,-0.703 0,-1.0359l-0.3672,-0.933c-0.4495,-1.1422 0.0861,-2.4351 1.2115,-2.9249l0.9195,-0.4001c0.328,-0.1428 0.5897,-0.4045 0.7325,-0.7325l0.4001,-0.9195c0.4898,-1.1254 1.7827,-1.661 2.9249,-1.2115zM8.1822,3.2905c-0.641,-0.2522 -1.3668,0.0484 -1.6417,0.6801l-0.4001,0.9194c-0.2437,0.56 -0.6904,1.0067 -1.2504,1.2504l-0.9194,0.4001c-0.6317,0.2749 -0.9323,1.0006 -0.68,1.6417l0.3672,0.9331c0.2236,0.5683 0.2236,1.2002 0,1.7683l-0.3673,0.9331c-0.2522,0.6411 0.0484,1.3668 0.6801,1.6418l0.9192,0.4c0.56,0.2436 1.0069,0.6904 1.2506,1.2504l0.4001,0.9195c0.275,0.6317 1.0007,0.9323 1.6417,0.68l0.933,-0.3671c0.5683,-0.2238 1.2003,-0.2238 1.7684,-0.0001l0.9331,0.3672c0.6411,0.2523 1.3668,-0.0483 1.6418,-0.68l0.4,-0.9193c0.2436,-0.5601 0.6905,-1.007 1.2504,-1.2505l0.9195,-0.4001c0.6317,-0.275 0.9323,-1.0007 0.68,-1.6418l-0.3671,-0.9329c-0.2238,-0.5683 -0.2238,-1.2003 -0.0001,-1.7684l0.3672,-0.9332c0.2523,-0.641 -0.0483,-1.3667 -0.68,-1.6417l-0.9195,-0.4001c-0.56,-0.2437 -1.0068,-0.6906 -1.2503,-1.2504l-0.4001,-0.9194c-0.275,-0.6317 -1.0007,-0.9323 -1.6418,-0.68l-0.9331,0.3672c-0.5681,0.2236 -1.2,0.2236 -1.7683,0zM12.6258,7.6673c0.1834,-0.2064 0.4995,-0.225 0.7059,-0.0415c0.1834,0.163 0.2185,0.4309 0.0952,0.6333l-0.0537,0.0726l-4,4.5c-0.1699,0.1911 -0.4517,0.22 -0.655,0.0813l-0.0723,-0.06l-2,-2c-0.1952,-0.1952 -0.1952,-0.5118 0,-0.7071c0.1736,-0.1735 0.443,-0.1928 0.6379,-0.0578l0.0692,0.0578l1.6251,1.6251z" fill="#212121"/>
</svg>
