<svg width="20" height="20" viewBox="0 0 20 20" fill="none" xmlns="http://www.w3.org/2000/svg">
<path d="M5.7452,10.8133c0.1562,-0.1375 0.2548,-0.3389 0.2548,-0.5633v-1c0,-4.0041 3.2459,-7.25 7.25,-7.25h0.5c0.4142,0 0.75,0.3358 0.75,0.75c0,0.4142 -0.3358,0.75 -0.75,0.75h-0.5c-3.1756,0 -5.75,2.5744 -5.75,5.75v1c0,0.6386 -0.2661,1.2151 -0.6934,1.6246zM7.883,12.9522c0.6844,-0.5958 1.117,-1.4735 1.117,-2.4522v-1c0,-2.6233 2.1266,-4.75 4.75,-4.75h3.5c0.4142,0 0.75,0.3358 0.75,0.75c0,0.4142 -0.3358,0.75 -0.75,0.75h-3.5c-1.7949,0 -3.25,1.4551 -3.25,3.25v1c0,1.5999 -0.7911,3.0152 -2.0034,3.8759c-0.0283,-0.5152 -0.2328,-1.0224 -0.6136,-1.4237zM7.5886,16.3434c2.53,-0.6033 4.4114,-2.8786 4.4114,-5.5934v-1c0,-1.2426 1.0074,-2.25 2.25,-2.25h3c0.4142,0 0.75,0.3358 0.75,0.75c0,0.4142 -0.3358,0.75 -0.75,0.75h-3c-0.4142,0 -0.75,0.3358 -0.75,0.75v1c0,4.0041 -3.2459,7.25 -7.25,7.25h-0.318zM3.4268,11.6768c0.2929,-0.2929 0.7677,-0.2929 1.0606,0l2.2929,2.2929c0.2929,0.2929 0.2929,0.7677 0,1.0606l-2.2929,2.2929c-0.2929,0.2929 -0.7677,0.2929 -1.0606,0c-0.2929,-0.2929 -0.2929,-0.7677 0,-1.0606l1.0125,-1.0126h-1.6893c-0.4142,0 -0.75,-0.3358 -0.75,-0.75c0,-0.4142 0.3358,-0.75 0.75,-0.75h1.6893l-1.0125,-1.0126c-0.2929,-0.2929 -0.2929,-0.7677 0,-1.0606z" fill="#212121"/>
</svg>
