<svg width="20" height="20" viewBox="0 0 20 20" fill="none" xmlns="http://www.w3.org/2000/svg">
<path d="M3.07175 8.10113C2.71314 6.48355 3.73374 4.88153 5.35132 4.52292L11.8993 3.07127C13.5169 2.71266 15.1189 3.73325 15.4775 5.35083L16.1756 8.49993H15.1514L14.5012 5.56727C14.2621 4.48889 13.1941 3.80849 12.1157 4.04756L5.56776 5.49922C4.48938 5.73829 3.80898 6.8063 4.04805 7.88469L4.18444 8.49993H3.16016L3.07175 8.10113ZM15.8165 11.4999H16.8407L16.9292 11.8988C17.2878 13.5164 16.2672 15.1184 14.6496 15.4771L8.10161 16.9287C6.48403 17.2873 4.88202 16.2667 4.52341 14.6491L3.82525 11.4999H4.84952L5.4997 14.4327C5.73878 15.5111 6.80679 16.1915 7.88517 15.9524L14.4332 14.5008C15.5115 14.2617 16.1919 13.1937 15.9529 12.1153L15.8165 11.4999ZM2,10C2,9.724 2.224,9.5 2.5,9.5L4,9.5C4.276,9.5 4.5,9.724 4.5,10C4.5,10.276 4.276,10.5 4,10.5L2.5,10.5C2.224,10.5 2,10.276 2,10ZM6.5,10C6.5,9.724 6.724,9.5 7,9.5L8.5,9.5C8.776,9.5 9,9.724 9,10C9,10.276 8.776,10.5 8.5,10.5L7,10.5C6.724,10.5 6.5,10.276 6.5,10ZM11.5,9.5C11.224,9.5 11,9.724 11,10C11,10.276 11.224,10.5 11.5,10.5L13,10.5C13.276,10.5 13.5,10.276 13.5,10C13.5,9.724 13.276,9.5 13,9.5L11.5,9.5ZM15.5,10C15.5,9.724 15.724,9.5 16,9.5L17.5,9.5C17.776,9.5 18,9.724 18,10C18,10.276 17.776,10.5 17.5,10.5L16,10.5C15.724,10.5 15.5,10.276 15.5,10Z" fill="#212121"/>
</svg>
