<svg width="20" height="20" viewBox="0 0 20 20" fill="none" xmlns="http://www.w3.org/2000/svg">
<path d="M10,13v-6c0,-0.8279 0.6721,-1.5 1.5,-1.5c0.0023,0 0.0047,0 0.007,0h0.4923c0.8279,0 1.5007,0.6721 1.5007,1.5v6c0,0.8279 -0.6721,1.5 -1.5,1.5h-0.5c-0.8279,0 -1.5,-0.6721 -1.5,-1.5zM10,10c0,0.4421 -0.2335,0.8513 -0.6141,1.0762l-5.5,3.25c-0.3864,0.2283 -0.8656,0.2319 -1.2554,0.0095c-0.3899,-0.2225 -0.6305,-0.6369 -0.6305,-1.0857v-6.5c0,-0.4488 0.2406,-0.8632 0.6305,-1.0857c0.3898,-0.2224 0.869,-0.2188 1.2554,0.0095l5.5,3.25c0.3806,0.2249 0.6141,0.6341 0.6141,1.0762zM11.9993,13.5c0.276,0 0.5007,-0.224 0.5007,-0.5v-6c0,-0.276 -0.224,-0.5 -0.5,-0.5h-0.5c-0.276,0 -0.5,0.224 -0.5,0.5v6c0,0.2743 0.2214,0.4974 0.4977,0.5001c0.0031,-0.0001 0.0062,-0.0001 0.0093,-0.0001zM3.3772,6.5348c-0.0773,-0.0457 -0.1731,-0.0464 -0.2511,-0.0019c-0.078,0.0445 -0.1261,0.1273 -0.1261,0.2171v6.5c0,0.0898 0.0481,0.1726 0.1261,0.2171c0.078,0.0445 0.1738,0.0438 0.2511,-0.0019l5.5,-3.25c0.0761,-0.0449 0.1228,-0.1268 0.1228,-0.2152c0,-0.0884 -0.0467,-0.1703 -0.1228,-0.2152zM16,5.5c0.0023,0 0.0047,0 0.007,0h0.4923c0.8279,0 1.5007,0.6721 1.5007,1.5v6c0,0.8279 -0.6721,1.5 -1.5,1.5h-0.5c-0.8279,0 -1.5,-0.6721 -1.5,-1.5v-6c0,-0.8279 0.6721,-1.5 1.5,-1.5zM16,13.5001c0.0038,-0.0001 0.0076,-0.0001 0.0114,-0.0001h0.4746c0.0083,0 0.0163,0.0002 0.0282,-0.0002c0.2694,-0.0076 0.4858,-0.2286 0.4858,-0.4998v-6c0,-0.276 -0.2241,-0.5 -0.5,-0.5h-0.5c-0.276,0 -0.5,0.224 -0.5,0.5v6c0,0.276 0.224,0.5001 0.5,0.5001z" fill="#212121"/>
</svg>
