<svg width="20" height="20" viewBox="0 0 20 20" fill="none" xmlns="http://www.w3.org/2000/svg">
<path d="M9.99766 1.99957C13.1466 1.99957 15.7416 4.33445 15.9821 7.35498L15.9955 7.57719L16 7.80171L15.999 11.3976L16.9244 13.6197C16.947 13.6739 16.9647 13.7298 16.9774 13.7867L16.9926 13.8729L17.0013 14.0041C17.0013 14.4522 16.7048 14.8383 16.2521 14.9673L16.1358 14.9941L16.0013 15.0041L12.4996 15.0036L12.4946 15.1649C12.4095 16.4685 11.3252 17.4996 10 17.4996C8.67453 17.4996 7.58998 16.468 7.50533 15.1639L7.49962 15.0036L3.99891 15.0041C3.91096 15.0041 3.82358 14.9925 3.73902 14.9698L3.61456 14.9273C3.20378 14.7563 2.96181 14.3388 3.01221 13.8752L3.0333 13.7478L3.07572 13.6198L3.99902 11.4006L4.0001 7.79238L4.0044 7.56781C4.12702 4.45072 6.77104 1.99957 9.99766 1.99957ZM11.4996 15.0036H8.49962L8.50697 15.145C8.57552 15.8576 9.14275 16.4246 9.85556 16.4927L10 16.4996C10.7797 16.4996 11.4205 15.9047 11.4931 15.144L11.4996 15.0036ZM9.99766 2.99957C7.37511 2.99957 5.22717 4.92329 5.01715 7.38455L5.00393 7.5968L5.00002 7.80171V11.4996L4.96161 11.6917L3.9989 14.0041L15.9566 14.0061L16.0019 14.0041L15.0384 11.6918L15 11.4996L15.0001 7.81199L14.996 7.60788C14.8909 5.03448 12.6947 2.99957 9.99766 2.99957ZM17,8C16.724,8 16.5,7.776 16.5,7.5C16.5,7.224 16.724,7 17,7L17.5,7C17.776,7 18,7.224 18,7.5C18,7.776 17.776,8 17.5,8L17,8ZM2.5,8C2.224,8 2,7.776 2,7.5C2,7.224 2.224,7 2.5,7L3,7C3.276,7 3.5,7.224 3.5,7.5C3.5,7.776 3.276,8 3,8L2.5,8ZM17.2,2.851C17.421,2.685 17.734,2.73 17.9,2.951C18.066,3.172 18.021,3.485 17.8,3.651L16.334,4.751C16.113,4.916 15.799,4.871 15.634,4.651C15.468,4.43 15.513,4.116 15.734,3.951L17.2,2.851ZM2.2,3.651C1.979,3.485 1.934,3.172 2.1,2.951C2.266,2.73 2.579,2.685 2.8,2.851L4.266,3.951C4.487,4.116 4.532,4.43 4.366,4.651C4.201,4.871 3.887,4.916 3.666,4.751L2.2,3.651Z" fill="#212121"/>
</svg>
