<svg width="20" height="20" viewBox="0 0 20 20" fill="none" xmlns="http://www.w3.org/2000/svg">
<path d="M4.9573,6.0293c0.3214,0.0924 0.5428,0.3864 0.5428,0.7208v6.4999c0,0.4142 -0.3358,0.75 -0.75,0.75c-0.4142,0 -0.75,-0.3358 -0.75,-0.75v-4.445c-0.2415,0.191 -0.5242,0.3842 -0.8641,0.5882c-0.3552,0.2131 -0.8159,0.0979 -1.029,-0.2573c-0.2131,-0.3552 -0.0979,-0.8159 0.2572,-1.029c0.5807,-0.3484 0.9031,-0.6211 1.1275,-0.8677c0.2161,-0.2375 0.3615,-0.4699 0.5755,-0.8117l0.0474,-0.0758c0.1776,-0.2833 0.5214,-0.4148 0.8427,-0.3224zM13.25,8.25c0,0.5782 -0.227,1.0746 -0.5864,1.4529c0.5067,0.4408 0.8364,1.0639 0.8364,1.7971c0,1.4717 -1.3284,2.5 -2.75,2.5c-1.4216,0 -2.75,-1.0283 -2.75,-2.5c0,-0.7332 0.3297,-1.3563 0.8364,-1.7971c-0.3594,-0.3783 -0.5864,-0.8747 -0.5864,-1.4529c0,-1.3469 1.2319,-2.2499 2.5,-2.2499c1.2681,0 2.5,0.903 2.5,2.2499zM10.75,7.5001c-0.6649,-0.0001 -1,0.44 -1,0.7499c0,0.31 0.3351,0.75 1,0.75c0.6649,0 1,-0.44 1,-0.75c0,-0.3099 -0.3351,-0.7499 -1,-0.7499zM9.5,11.5c0,0.4614 0.4624,1 1.25,1c0.7876,0 1.25,-0.5386 1.25,-1c0,-0.4613 -0.4624,-1 -1.25,-1c-0.7876,0 -1.25,0.5387 -1.25,1zM14.2197,10.2197c0.2929,-0.2929 0.7677,-0.2929 1.0606,0l0.7197,0.7197l0.7197,-0.7197c0.2929,-0.2929 0.7677,-0.2929 1.0606,0c0.2929,0.2929 0.2929,0.7678 0,1.0607l-0.7196,0.7196l0.7196,0.7197c0.2929,0.2929 0.2929,0.7677 0,1.0606c-0.2929,0.2929 -0.7677,0.2929 -1.0606,0l-0.7197,-0.7196l-0.7197,0.7196c-0.2929,0.2929 -0.7677,0.2929 -1.0606,0c-0.2929,-0.2929 -0.2929,-0.7677 0,-1.0606l0.7196,-0.7197l-0.7196,-0.7196c-0.2929,-0.2929 -0.2929,-0.7678 0,-1.0607zM7.5,13.5c0,0.2761 -0.2239,0.5 -0.5,0.5c-0.2761,0 -0.5,-0.2239 -0.5,-0.5c0,-0.2761 0.2239,-0.5 0.5,-0.5c0.2761,0 0.5,0.2239 0.5,0.5z" fill="#212121"/>
</svg>
