<svg width="20" height="20" viewBox="0 0 20 20" fill="none" xmlns="http://www.w3.org/2000/svg">
<path d="M17,8c0,-1.9317 -1.5683,-3.5 -3.5,-3.5c-1.1883,0 -2.2391,0.5935 -2.8719,1.5h-4.1281c-0.2761,0 -0.5,0.2239 -0.5,0.5c0,0.2761 0.2239,0.5 0.5,0.5h3.6452c-0.0945,0.3169 -0.1452,0.6525 -0.1452,1v0.5h-3.5c-0.2761,0 -0.5,0.2239 -0.5,0.5c0,0.2761 0.2239,0.5 0.5,0.5h3.5v0.5854c-0.1564,-0.0553 -0.3247,-0.0854 -0.5,-0.0854c-0.6531,0 -1.2087,0.4175 -1.4146,1h-1.5854c-0.2761,0 -0.5,0.2239 -0.5,0.5c0,0.2761 0.2239,0.5 0.5,0.5h1.5c0,2.5176 1.6918,4.6396 4.0002,5.2927c-0.0002,-0.0001 -0.0002,0.7073 -0.0002,0.7073h-7.5c-0.8284,0 -1.5,-0.6716 -1.5,-1.5v-13c0,-0.8284 0.6716,-1.5 1.5,-1.5h11c0.8284,0 1.5,0.6716 1.5,1.5zM9.5,11c0.2761,0 0.5,0.2239 0.5,0.5v0.5c0,1.933 1.567,3.5 3.5,3.5c1.933,0 3.5,-1.567 3.5,-3.5v-0.5c0,-0.2761 0.2239,-0.5 0.5,-0.5c0.2761,0 0.5,0.2239 0.5,0.5v0.5c0,2.3163 -1.75,4.2238 -4,4.4725v1.0275c0,0.2761 -0.2239,0.5 -0.5,0.5c-0.2761,0 -0.5,-0.2239 -0.5,-0.5v-1.0275c-2.25,-0.2487 -4,-2.1562 -4,-4.4725v-0.5c0,-0.2761 0.2239,-0.5 0.5,-0.5zM11,8c0,-1.3798 1.1202,-2.5 2.5,-2.5c1.3798,0 2.5,1.1202 2.5,2.5v4c0,1.3798 -1.1202,2.5 -2.5,2.5c-1.3798,0 -2.5,-1.1202 -2.5,-2.5z" fill="#212121"/>
</svg>
