<svg width="20" height="20" viewBox="0 0 20 20" fill="none" xmlns="http://www.w3.org/2000/svg">
<path d="M9.9776,4h5.5222c1.3807,0 2.5,1.1193 2.5,2.5v7c0,1.3807 -1.1193,2.5 -2.5,2.5h-11c-1.3808,0 -2.5,-1.1193 -2.5,-2.5v-3.3357l2.0783,2.0783c1.1716,1.1716 3.0711,1.1716 4.2427,0l0.6796,-0.6796c0.0294,1.5209 1.1218,2.937 2.7494,2.937c1.6499,0 2.75,-1.4554 2.75,-3c0,-0.8973 -0.457,-1.8399 -0.8622,-2.472c-0.1882,-0.2935 -0.3753,-0.5443 -0.5154,-0.7216c-0.0064,-0.0081 -0.013,-0.0162 -0.0197,-0.0244l-0.2039,-0.2459c-0.0099,-0.012 -0.0198,-0.0236 -0.0299,-0.0348c-0.2239,-0.251 -0.5238,-0.4174 -0.8497,-0.4769c0.0648,-0.843 -0.2251,-1.7081 -0.8698,-2.3528zM5.9997,2.5c0,-0.2761 0.2239,-0.5 0.5,-0.5c0.2761,0 0.5,0.2239 0.5,0.5v0.6737c0.4804,0.0223 0.9542,0.2168 1.3211,0.5837l2.1213,2.1213c0.781,0.781 0.781,2.0474 0,2.8284l-2.8284,2.8284c-0.7811,0.7811 -2.0474,0.7811 -2.8285,0l-2.1213,-2.1213c-0.781,-0.781 -0.781,-2.0474 0,-2.8284l2.8284,-2.8284c0.153,-0.153 0.3245,-0.276 0.5074,-0.369zM3.0781,8c0,0.2559 0.0977,0.5118 0.2929,0.7071l2.1213,2.1213c0.3906,0.3906 1.0237,0.3906 1.4143,0l2.8284,-2.8284zM5.9997,6v-1.3358l-2.3358,2.3358h6.3203c-0.0462,-0.1516 -0.1293,-0.2943 -0.2492,-0.4142l-2.1213,-2.1213c-0.1716,-0.1716 -0.3899,-0.2678 -0.614,-0.2886v1.8241c0,0.2761 -0.2239,0.5 -0.5,0.5c-0.2761,0 -0.5,-0.2239 -0.5,-0.5zM11.162,8.9261l0.2148,-0.2591c0.0949,-0.1062 0.2305,-0.167 0.373,-0.167c0.1424,0 0.2781,0.0608 0.3729,0.167l0.2148,0.2591c0.1245,0.1577 0.2909,0.3806 0.4582,0.6416c0.3183,0.4966 0.7041,1.2274 0.7041,1.9323c0,1.0086 -0.6726,2 -1.75,2c-1.0775,0 -1.75,-0.9914 -1.75,-2c0,-0.7049 0.3857,-1.4357 0.704,-1.9323c0.1673,-0.261 0.3337,-0.4839 0.4582,-0.6416zM11.7498,9.8074c-0.0656,0.0911 -0.1349,0.192 -0.2041,0.2999c-0.3061,0.4776 -0.5459,0.9972 -0.5459,1.3927c0,0.293 0.1002,0.5664 0.248,0.7489c0.1357,0.1675 0.2993,0.2511 0.502,0.2511c0.2026,0 0.3662,-0.0836 0.5019,-0.2511c0.1478,-0.1825 0.2481,-0.4559 0.2481,-0.7489c0,-0.3955 -0.2398,-0.9151 -0.546,-1.3927c-0.0691,-0.1079 -0.1385,-0.2088 -0.204,-0.2999z" fill="#212121"/>
</svg>
