<svg width="20" height="20" viewBox="0 0 20 20" fill="none" xmlns="http://www.w3.org/2000/svg">
<path d="M17.8535,2.1464c0.1953,0.1953 0.1953,0.5119 0,0.7071l-4.4092,4.4093c-0.106,-0.127 -0.2186,-0.2503 -0.3377,-0.3694c-0.1192,-0.1192 -0.2425,-0.2318 -0.3695,-0.3377l4.4093,-4.4093c0.1953,-0.1952 0.5118,-0.1952 0.7071,0zM12.3995,7.6005c-1.7574,-1.7574 -4.6066,-1.7574 -6.364,0l-0.068,0.068l6.364,6.364l0.068,-0.0681c1.7573,-1.7573 1.7573,-4.6066 0,-6.3639zM2.2428,10.0002l2.9013,-1.7409l0.0023,0.0024l6.5001,6.5c0.0315,0.0315 0.0662,0.058 0.103,0.0793l-1.7497,2.9162c-0.0792,0.1321 -0.2148,0.2202 -0.3676,0.2391c-0.1529,0.0188 -0.3058,-0.0339 -0.4147,-0.1427l-7.0711,-7.0711c-0.1088,-0.1089 -0.1615,-0.2618 -0.1427,-0.4147c0.0189,-0.1528 0.107,-0.2884 0.2391,-0.3676z" fill="#212121"/>
</svg>
