<svg width="20" height="20" viewBox="0 0 20 20" fill="none" xmlns="http://www.w3.org/2000/svg">
<path d="M14.5,9.999C14.5,12.484 12.485,14.499 10,14.499C7.515,14.499 5.5,12.484 5.5,9.999C5.5,7.514 7.515,5.499 10,5.499C12.485,5.499 14.5,7.514 14.5,9.999ZM11.853,8.853C12.049,8.658 12.049,8.341 11.853,8.146C11.658,7.951 11.342,7.951 11.146,8.146L10,9.292L8.853,8.146C8.658,7.951 8.342,7.951 8.146,8.146C7.951,8.341 7.951,8.658 8.146,8.853L9.293,9.999L8.146,11.146C7.951,11.341 7.951,11.658 8.146,11.853C8.342,12.048 8.658,12.048 8.853,11.853L10,10.706L11.146,11.853C11.342,12.048 11.658,12.048 11.853,11.853C12.049,11.658 12.049,11.341 11.853,11.146L10.707,9.999L11.853,8.853ZM10.056,4.499C8.629,4.485 7.199,5.022 6.111,6.11C3.963,8.258 3.963,11.74 6.111,13.888C6.3,14.077 6.499,14.249 6.706,14.405C6.927,14.57 6.972,14.884 6.806,15.105C6.641,15.326 6.327,15.37 6.106,15.205C5.861,15.021 5.626,14.818 5.404,14.595C2.865,12.057 2.865,7.941 5.404,5.403C6.541,4.266 7.994,3.638 9.481,3.52L8.737,2.776C8.542,2.581 8.542,2.265 8.737,2.069C8.933,1.874 9.249,1.874 9.444,2.069L11.263,3.888C11.458,4.083 11.458,4.399 11.263,4.595L11.221,4.637L11.183,4.628C10.824,4.55 10.423,4.503 10.056,4.499ZM9.944,15.501C11.371,15.515 12.801,14.978 13.889,13.89C16.037,11.742 16.037,8.26 13.889,6.112C13.7,5.923 13.501,5.751 13.294,5.595C13.073,5.43 13.028,5.116 13.194,4.895C13.359,4.674 13.673,4.63 13.894,4.795C14.139,4.979 14.374,5.182 14.596,5.405C17.135,7.943 17.135,12.059 14.596,14.597C13.459,15.734 12.006,16.362 10.519,16.48L11.263,17.224C11.458,17.419 11.458,17.735 11.263,17.931C11.067,18.126 10.751,18.126 10.556,17.931L8.737,16.112C8.542,15.917 8.542,15.601 8.737,15.405L8.779,15.363L8.817,15.372C9.176,15.45 9.577,15.497 9.944,15.501Z" fill="#212121"/>
</svg>
