<svg width="20" height="20" viewBox="0 0 20 20" fill="none" xmlns="http://www.w3.org/2000/svg">
<path d="M14.752,5.742c0.0026,-0.0521 0.0079,-0.1253 0.018,-0.2108c0.0193,-0.1649 0.0569,-0.3948 0.1399,-0.6305c0.0563,-0.1601 0.1361,-0.3509 0.2895,-0.4963c0.1055,-0.0999 0.2481,-0.1542 0.4195,-0.1546c0.0117,0.0001 0.0359,0.0002 0.0362,0.0002c0.1073,-0.0002 0.2989,-0.0305 0.4806,0.0645c0.1975,0.1032 0.2964,0.3315 0.3952,0.6237c0.1327,0.3921 0.5587,0.6028 0.9508,0.4701c0.3921,-0.1326 0.6028,-0.5587 0.4701,-0.9508c-0.2478,-0.7324 -0.6263,-1.2137 -1.1213,-1.4724c-0.4502,-0.2353 -0.9123,-0.2355 -1.1781,-0.2351c-0.0074,0 -0.0292,-0.0002 -0.0318,-0.0002c-0.5982,0 -1.085,0.2172 -1.4529,0.5657c-0.3414,0.3236 -0.5474,0.731 -0.6728,1.0873c-0.1256,0.3568 -0.1854,0.7035 -0.2147,0.9534c-0.0149,0.1264 -0.0225,0.2338 -0.0263,0.3108c-0.0018,0.0341 -0.0032,0.063 -0.0038,0.0846l-0.0002,0.0065c-0.0002,0.0089 -0.0001,0.0647 -0.0001,0.0758c-0.0002,0.3793 -0.0006,1.1152 0.2487,1.7925c0.1341,0.364 0.3491,0.7372 0.6902,1.0367c0.3545,0.311 0.8034,0.5084 1.3436,0.5724c0.4344,0.0514 1.7875,0.0346 2.3993,-1.4053c0.1619,-0.381 -0.016,-0.8217 -0.397,-0.9836c-0.381,-0.1618 -0.8217,0.016 -0.9836,0.397c-0.2157,0.5078 -0.689,0.5204 -0.8422,0.5023c-0.2112,-0.025 -0.3921,-0.0887 -0.5306,-0.2102c-0.1388,-0.1219 -0.2175,-0.2794 -0.2721,-0.4276c-0.1769,-0.4809 -0.1564,-1.0059 -0.1563,-1.2747l-0.0006,-0.0405c0.0008,-0.0149 0.0018,-0.0318 0.0028,-0.0509zM3.9863,3.2293l-1.9355,5c-0.1496,0.3862 0.0424,0.8206 0.4287,0.9701c0.3862,0.1496 0.8206,-0.0424 0.9701,-0.4286l0.1048,-0.2708h2.1097l0.089,0.2508c0.1385,0.3904 0.5672,0.5945 0.9576,0.456c0.3903,-0.1385 0.5945,-0.5672 0.456,-0.9576l-1.7742,-5c-0.1049,-0.2956 -0.3826,-0.4947 -0.6962,-0.4991c-0.3136,-0.0045 -0.5968,0.1867 -0.71,0.4792zM5.1318,7h-0.9967l0.52,-1.3434zM8.0002,8.5c0,0.4142 0.3358,0.75 0.75,0.75c0.0414,0 0.0819,-0.0033 0.1214,-0.0098v0.0097h1.6285c0.2376,0 0.7332,-0.0367 1.1952,-0.3052c0.5204,-0.3025 0.9228,-0.8598 0.9228,-1.7033c0,-0.4202 -0.0918,-0.794 -0.2829,-1.1077c-0.083,-0.1364 -0.1793,-0.2523 -0.2829,-0.3504c0.1516,-0.2782 0.2413,-0.619 0.2413,-1.0245c0,-0.4087 -0.0807,-0.772 -0.2496,-1.0805c-0.171,-0.3124 -0.41,-0.5273 -0.6604,-0.6681c-0.4631,-0.2605 -0.9576,-0.2603 -1.1258,-0.2602h-1.5076c-0.4142,0 -0.75,0.3358 -0.75,0.75zM9.5002,5.2501v-1.0001h0.75c0.157,0 0.3011,0.013 0.3981,0.0676c0.0333,0.0187 0.0581,0.041 0.08,0.0809c0.024,0.044 0.0653,0.1483 0.0653,0.3603c0,0.1765 -0.0362,0.2668 -0.0593,0.3084c-0.0228,0.0409 -0.0527,0.0706 -0.0955,0.0965c-0.1043,0.0633 -0.2553,0.0852 -0.3569,0.0864zM9.5002,7.7499v-0.9998h0.9356c0.1913,0 0.3811,0.0096 0.5176,0.0772c0.0515,0.0255 0.0801,0.0526 0.1007,0.0865c0.0215,0.0354 0.064,0.1271 0.064,0.3276c0,0.169 -0.0364,0.2551 -0.0605,0.2964c-0.0248,0.0422 -0.0605,0.0777 -0.1161,0.11c-0.1325,0.077 -0.3209,0.1021 -0.4414,0.1021zM2.75,13h14.5c0.4142,0 0.75,-0.3358 0.75,-0.75c0,-0.4142 -0.3358,-0.75 -0.75,-0.75h-14.5c-0.4142,0 -0.75,0.3358 -0.75,0.75c0,0.4142 0.3358,0.75 0.75,0.75zM2.75,15.5h14.5c0.4142,0 0.75,0.3358 0.75,0.75c0,0.4142 -0.3358,0.75 -0.75,0.75h-14.5c-0.4142,0 -0.75,-0.3358 -0.75,-0.75c0,-0.4142 0.3358,-0.75 0.75,-0.75" fill="#212121"/>
</svg>
