<svg width="20" height="20" viewBox="0 0 20 20" fill="none" xmlns="http://www.w3.org/2000/svg">
<path d="M14,18h-7.5c-0.1969,0 -0.3754,-0.1155 -0.4561,-0.2951c-0.0807,-0.1796 -0.0484,-0.3898 0.0823,-0.537l2.3738,-2.6679l-2.3738,-2.6679c-0.1307,-0.1472 -0.163,-0.3574 -0.0823,-0.537c0.0807,-0.1796 0.2592,-0.2951 0.4561,-0.2951h7.5c0.3898,0 0.7643,0.1517 1.0441,0.4231l2.6929,2.5384c0.3039,0.2947 0.3039,0.7823 0,1.077l-2.6929,2.5384c-0.2798,0.2714 -0.6543,0.4231 -1.0441,0.4231zM15,10.2087v-5.2087c0,-1.1046 -0.8954,-2 -2,-2h-8c-1.1046,0 -2,0.8954 -2,2v8c0,1.1046 0.8954,2 2,2h1.7105l-0.8857,1h-0.8248c-1.6569,0 -3,-1.3431 -3,-3v-8c0,-1.6569 1.3431,-3 3,-3h8c1.6569,0 3,1.3432 3,3v5.9499l-0.2686,-0.2532c-0.215,-0.2065 -0.4631,-0.3709 -0.7314,-0.488zM5,5.5c0,-0.2761 0.2239,-0.5 0.5,-0.5h7c0.2761,0 0.5,0.2239 0.5,0.5c0,0.2761 -0.2239,0.5 -0.5,0.5h-7c-0.2761,0 -0.5,-0.2239 -0.5,-0.5zM5.5,8h4c0.2761,0 0.5,0.2239 0.5,0.5c0,0.2761 -0.2239,0.5 -0.5,0.5h-4c-0.2761,0 -0.5,-0.2239 -0.5,-0.5c0,-0.2761 0.2239,-0.5 0.5,-0.5z" fill="#212121"/>
</svg>
