<svg width="20" height="20" viewBox="0 0 20 20" fill="none" xmlns="http://www.w3.org/2000/svg">
<path d="M6 2C4.89543 2 4 2.89543 4 4V7.5C4 8.60457 4.89543 9.5 6 9.5H14C15.1046 9.5 16 8.60457 16 7.5V4C16 2.89543 15.1046 2 14 2H6ZM5 4C5 3.44772 5.44772 3 6 3H14C14.5523 3 15 3.44772 15 4V7.5C15 8.05228 14.5523 8.5 14 8.5H6C5.44772 8.5 5 8.05228 5 7.5V3Z" fill="#212121"/>
<path d="M6 10.5C4.89543 10.5 4 11.3954 4 12.5V16C4 17.1046 4.89543 18 6 18H14C15.1046 18 16 17.1046 16 16V12.5C16 11.3954 15.1046 10.5 14 10.5H6ZM5 12.5C5 11.9477 5.44772 11.5 6 11.5H14C14.5523 11.5 15 11.9477 15 12.5V16C15 16.5523 14.5523 17 14 17H6C5.44772 17 5 16.5523 5 16V12.5Z" fill="#212121"/>
</svg>
