<svg width="20" height="20" viewBox="0 0 20 20" fill="none" xmlns="http://www.w3.org/2000/svg">
<path d="M8.7001,8.7483c0.4097,0.0273 0.7645,-0.2797 0.7975,-0.6877c0.0002,-0.0022 0.0008,-0.0069 0.0018,-0.0138c0.0028,-0.0183 0.0085,-0.0505 0.0193,-0.0917c0.0221,-0.0848 0.0618,-0.193 0.1289,-0.2964c0.1091,-0.1678 0.3381,-0.4087 0.9524,-0.4087c0.5802,0 0.8617,0.1856 1.0037,0.38c0.158,0.2162 0.2659,0.6101 0.1572,1.243c-0.0535,0.3114 -0.1867,0.4631 -0.4026,0.5969c-0.204,0.1264 -0.4231,0.2064 -0.7191,0.3145c-0.1275,0.0465 -0.2692,0.0982 -0.4301,0.1611c-0.474,0.1853 -1.0569,0.4561 -1.5048,0.9978c-0.4611,0.5579 -0.7043,1.3074 -0.7043,2.3067c0,0.1989 0.0791,0.3897 0.2197,0.5303c0.1406,0.1407 0.3314,0.2197 0.5303,0.2197h3.75c0.4142,0 0.75,-0.3358 0.75,-0.75c0,-0.4142 -0.3358,-0.75 -0.75,-0.75h-2.9224c0.0689,-0.2849 0.1751,-0.4706 0.2828,-0.6009c0.1958,-0.2368 0.4789,-0.394 0.8948,-0.5565c0.0798,-0.0312 0.1716,-0.0646 0.2709,-0.1007c0.3427,-0.1247 0.7758,-0.2822 1.1223,-0.497c0.523,-0.3241 0.9538,-0.8206 1.0908,-1.6179c0.149,-0.8671 0.057,-1.7232 -0.4243,-2.382c-0.4974,-0.6806 -1.2947,-0.995 -2.2149,-0.995c-1.1356,0 -1.8317,0.5092 -2.21,1.0913c-0.1766,0.2716 -0.2714,0.5384 -0.3227,0.7348c-0.0259,0.0994 -0.0417,0.1844 -0.0513,0.2482c-0.0048,0.032 -0.008,0.059 -0.0103,0.0801c-0.0011,0.0106 -0.002,0.0198 -0.0026,0.0274l-0.0013,0.0165c-0.0002,0.0027 -0.0235,0.3531 -0.0001,0.0018c-0.0276,0.4133 0.2851,0.7707 0.6984,0.7982zM15.2803,10.2197c-0.2929,-0.2929 -0.7677,-0.2929 -1.0606,0c-0.2929,0.2929 -0.2929,0.7677 0,1.0606l0.7196,0.7197l-0.7196,0.7197c-0.2929,0.2929 -0.2929,0.7677 0,1.0606c0.2929,0.2929 0.7677,0.2929 1.0606,0l0.7197,-0.7196l0.7197,0.7196c0.2929,0.2929 0.7677,0.2929 1.0606,0c0.2929,-0.2929 0.2929,-0.7677 0,-1.0606l-0.7196,-0.7197l0.7196,-0.7197c0.2929,-0.2929 0.2929,-0.7677 0,-1.0606c-0.2929,-0.2929 -0.7677,-0.2929 -1.0606,0l-0.7197,0.7196zM7.25,13.5c0,0.2761 -0.2239,0.5 -0.5,0.5c-0.2761,0 -0.5,-0.2239 -0.5,-0.5c0,-0.2761 0.2239,-0.5 0.5,-0.5c0.2761,0 0.5,0.2239 0.5,0.5zM4.9573,6.0292c0.3214,0.0924 0.5428,0.3864 0.5428,0.7208v6.5c0,0.4142 -0.3358,0.75 -0.75,0.75c-0.4142,0 -0.75,-0.3358 -0.75,-0.75v-4.445c-0.2415,0.1909 -0.5242,0.3842 -0.8641,0.5881c-0.3552,0.2131 -0.8159,0.098 -1.029,-0.2572c-0.2131,-0.3552 -0.0979,-0.8159 0.2572,-1.029c0.5807,-0.3484 0.9031,-0.6212 1.1275,-0.8678c0.2161,-0.2375 0.3615,-0.4698 0.5755,-0.8116l0.0474,-0.0758c0.1776,-0.2834 0.5214,-0.4149 0.8427,-0.3225z" fill="#212121"/>
</svg>
