<svg width="20" height="20" viewBox="0 0 20 20" fill="none" xmlns="http://www.w3.org/2000/svg">
<path d="M14.7492,5.7929l0.0006,0.0405c-0.0001,0.2688 -0.0206,0.7938 0.1563,1.2747c0.0546,0.1482 0.1333,0.3057 0.2721,0.4276c0.1385,0.1215 0.3194,0.1852 0.5306,0.2102c0.1532,0.0181 0.6265,0.0055 0.8422,-0.5023c0.1619,-0.381 0.6026,-0.5588 0.9836,-0.397c0.381,0.1619 0.5589,0.6026 0.397,0.9836c-0.6118,1.4399 -1.9649,1.4567 -2.3993,1.4053c-0.5402,-0.064 -0.9891,-0.2614 -1.3436,-0.5724c-0.3411,-0.2995 -0.5561,-0.6727 -0.6902,-1.0367c-0.2493,-0.6773 -0.2489,-1.4132 -0.2487,-1.7925c0,-0.0111 -0.0001,-0.0669 0.0001,-0.0758l0.0002,-0.0065c0.0006,-0.0216 0.002,-0.0505 0.0038,-0.0846c0.0038,-0.077 0.0114,-0.1844 0.0263,-0.3108c0.0293,-0.2499 0.0891,-0.5966 0.2147,-0.9534c0.1254,-0.3563 0.3314,-0.7637 0.6728,-1.0873c0.3679,-0.3485 0.8547,-0.5657 1.4529,-0.5657c0.0026,0 0.0244,0.0002 0.0318,0.0002c0.2658,-0.0004 0.7279,-0.0002 1.1781,0.2351c0.495,0.2587 0.8735,0.74 1.1213,1.4724c0.1327,0.3921 -0.078,0.8182 -0.4701,0.9508c-0.3921,0.1327 -0.8181,-0.078 -0.9508,-0.4701c-0.0988,-0.2922 -0.1977,-0.5205 -0.3952,-0.6237c-0.1817,-0.095 -0.3733,-0.0647 -0.4806,-0.0645c-0.0003,0 -0.0245,-0.0001 -0.0362,-0.0002c-0.1714,0.0004 -0.314,0.0547 -0.4195,0.1546c-0.1534,0.1454 -0.2332,0.3362 -0.2895,0.4963c-0.083,0.2357 -0.1206,0.4656 -0.1399,0.6305c-0.0101,0.0855 -0.0154,0.1587 -0.018,0.2108c-0.001,0.0191 -0.002,0.036 -0.0028,0.0509zM4.6963,2.7501c0.3136,0.0044 0.5913,0.2035 0.6962,0.4991l1.7742,5c0.1385,0.3904 -0.0657,0.8191 -0.456,0.9576c-0.3904,0.1385 -0.8191,-0.0656 -0.9576,-0.456l-0.089,-0.2508h-2.1097l-0.1048,0.2708c-0.1495,0.3862 -0.5839,0.5782 -0.9701,0.4286c-0.3863,-0.1495 -0.5783,-0.5839 -0.4287,-0.9701l1.9355,-5c0.1132,-0.2925 0.3964,-0.4837 0.71,-0.4792zM4.6551,5.6566l-0.52,1.3434h0.9967zM8.0002,3.5c0,-0.4142 0.3358,-0.75 0.75,-0.75h1.5076c0.1682,-0.0001 0.6627,-0.0003 1.1258,0.2602c0.2504,0.1408 0.4894,0.3557 0.6604,0.6681c0.1689,0.3085 0.2496,0.6718 0.2496,1.0805c0,0.4055 -0.0897,0.7463 -0.2413,1.0245c0.1036,0.0981 0.1999,0.214 0.2829,0.3504c0.1911,0.3137 0.2829,0.6875 0.2829,1.1077c0,0.8435 -0.4024,1.4008 -0.9228,1.7033c-0.462,0.2685 -0.9576,0.3052 -1.1952,0.3052h-1.6285v-0.0097c-0.0395,0.0065 -0.08,0.0098 -0.1214,0.0098c-0.4142,0 -0.75,-0.3358 -0.75,-0.75zM10.2819,5.2501c0.1016,-0.0012 0.2526,-0.0231 0.3569,-0.0864c0.0428,-0.0259 0.0727,-0.0556 0.0955,-0.0965c0.0231,-0.0416 0.0593,-0.1319 0.0593,-0.3084c0,-0.212 -0.0413,-0.3163 -0.0653,-0.3603c-0.0219,-0.0399 -0.0467,-0.0622 -0.08,-0.0809c-0.097,-0.0546 -0.2411,-0.0676 -0.3981,-0.0676h-0.75v1.0001zM10.5001,7.7499c0.1205,0 0.3089,-0.0251 0.4414,-0.1021c0.0556,-0.0323 0.0913,-0.0678 0.1161,-0.11c0.0241,-0.0413 0.0605,-0.1274 0.0605,-0.2964c0,-0.2005 -0.0425,-0.2922 -0.064,-0.3276c-0.0206,-0.0339 -0.0492,-0.061 -0.1007,-0.0865c-0.1365,-0.0676 -0.3263,-0.0772 -0.5176,-0.0772h-0.9356v0.9998zM13.9443 10.975C14.2066 10.6544 14.1594 10.1819 13.8388 9.91955C13.5182 9.65726 13.0457 9.70451 12.7834 10.0251L9.21729 14.3837L7.53057 12.697C7.23768 12.4041 6.76281 12.4041 6.46991 12.697C6.17702 12.9899 6.17702 13.4647 6.46991 13.7576L8.74264 16.0304C8.89247 16.1802 9.0987 16.2596 9.31033 16.2491C9.52197 16.2385 9.71926 16.139 9.85344 15.975L13.9443 10.975Z" fill="#212121"/>
</svg>
