<svg width="20" height="20" viewBox="0 0 20 20" fill="none" xmlns="http://www.w3.org/2000/svg">
<path d="M3.2803,14.7197l0.7197,0.7196v-12.6893c0,-0.4142 0.3358,-0.75 0.75,-0.75c0.4142,0 0.75,0.3358 0.75,0.75v12.6893l0.7197,-0.7196c0.2929,-0.2929 0.7677,-0.2929 1.0606,0c0.2929,0.2929 0.2929,0.7677 0,1.0606l-2,2c-0.2929,0.2929 -0.7677,0.2929 -1.0606,0l-2,-2c-0.2929,-0.2929 -0.2929,-0.7677 0,-1.0606c0.2929,-0.2929 0.7677,-0.2929 1.0606,0zM10,18c-0.4142,0 -0.75,-0.3358 -0.75,-0.75v-14.5c0,-0.4142 0.3358,-0.75 0.75,-0.75c0.4142,0 0.75,0.3358 0.75,0.75v14.5c0,0.4142 -0.3358,0.75 -0.75,0.75zM17.7803,5.2803c-0.2929,0.2929 -0.7677,0.2929 -1.0606,0l-0.7197,-0.7196v12.6893c0,0.4142 -0.3358,0.75 -0.75,0.75c-0.4142,0 -0.75,-0.3358 -0.75,-0.75v-12.6893l-0.7197,0.7196c-0.2929,0.2929 -0.7677,0.2929 -1.0606,0c-0.2929,-0.2929 -0.2929,-0.7677 0,-1.0606l2,-2c0.2929,-0.2929 0.7677,-0.2929 1.0606,0l2,2c0.2929,0.2929 0.2929,0.7677 0,1.0606z" fill="#212121"/>
</svg>
