<svg width="20" height="20" viewBox="0 0 20 20" fill="none" xmlns="http://www.w3.org/2000/svg">
<path d="M12.25,6v1.5c0,0.8279 -0.6721,1.5 -1.5,1.5h-1.5c-0.8279,0 -1.5,-0.6721 -1.5,-1.5v-1.5c0,-0.8279 0.6721,-1.5 1.5,-1.5h1.5c0.8279,0 1.5,0.6721 1.5,1.5zM6.75,6v1.5c0,0.8279 -0.6721,1.5 -1.5,1.5h-1.5c-0.8279,0 -1.5,-0.6721 -1.5,-1.5v-1.5c0,-0.8279 0.6721,-1.5 1.5,-1.5h1.5c0.8279,0 1.5,0.6721 1.5,1.5zM17.75,6v1.5c0,0.8279 -0.6721,1.5 -1.5,1.5h-1.5c-0.8279,0 -1.5,-0.6721 -1.5,-1.5v-1.5c0,-0.8279 0.6721,-1.5 1.5,-1.5h1.5c0.8279,0 1.5,0.6721 1.5,1.5zM17.75,11.5v1.5c0,0.8279 -0.6721,1.5 -1.5,1.5h-1.5c-0.8279,0 -1.5,-0.6721 -1.5,-1.5v-1.5c0,-0.8279 0.6721,-1.5 1.5,-1.5h1.5c0.8279,0 1.5,0.6721 1.5,1.5zM12.25,11.5v1.5c0,0.8279 -0.6721,1.5 -1.5,1.5h-1.5c-0.8279,0 -1.5,-0.6721 -1.5,-1.5v-1.5c0,-0.8279 0.6721,-1.5 1.5,-1.5h1.5c0.8279,0 1.5,0.6721 1.5,1.5zM6.75,11.5v1.5c0,0.8279 -0.6721,1.5 -1.5,1.5h-1.5c-0.8279,0 -1.5,-0.6721 -1.5,-1.5v-1.5c0,-0.8279 0.6721,-1.5 1.5,-1.5h1.5c0.8279,0 1.5,0.6721 1.5,1.5z" fill="#212121" />
</svg>
