<svg width="20" height="20" viewBox="0 0 20 20" fill="none" xmlns="http://www.w3.org/2000/svg">
<path d="M14.5,8v4c0,1.3798 -1.1202,2.5 -2.5,2.5h-4c-1.3798,0 -2.5,-1.1202 -2.5,-2.5v-4c0,-1.3798 1.1202,-2.5 2.5,-2.5h4c1.3798,0 2.5,1.1202 2.5,2.5zM4.5,8.5h-0.5c-1.1038,0 -2,-0.8962 -2,-2v-2.5c0,-1.1038 0.8962,-2 2,-2h2.5c1.1038,0 2,0.8962 2,2v0.5h-0.5c-0.1697,0 -0.3367,0.0121 -0.5,0.0355v-0.5355c0,-0.5519 -0.4481,-1 -1,-1h-2.5c-0.5519,0 -1,0.4481 -1,1v2.5c0,0.5519 0.4481,1 1,1h0.5355c-0.0234,0.1633 -0.0355,0.3303 -0.0355,0.5zM15.5,11.5h0.5c1.1038,0 2,0.8962 2,2v2.5c0,1.1038 -0.8962,2 -2,2h-2.5c-1.1038,0 -2,-0.8962 -2,-2v-0.5h0.5c0.1697,0 0.3367,-0.0121 0.5,-0.0355v0.5355c0,0.5519 0.4481,1 1,1h2.5c0.5519,0 1,-0.4481 1,-1v-2.5c0,-0.5519 -0.4481,-1 -1,-1h-0.5355c0.0234,-0.1633 0.0355,-0.3303 0.0355,-0.5z" fill="#212121"/>
</svg>
