<svg width="20" height="20" viewBox="0 0 20 20" fill="none" xmlns="http://www.w3.org/2000/svg">
<path d="M13.6322,6.8822l1.3678,1.3678h1.625c0.7589,0 1.375,0.6161 1.375,1.375c0,0.7589 -0.6161,1.375 -1.375,1.375h-2.7966c-0.5304,0 -1.0391,-0.2107 -1.4142,-0.5858l-0.1642,-0.1642l-1,1l1.3535,1.3535c0.0938,0.0938 0.1465,0.221 0.1465,0.3536v2.6679c0,0.7589 -0.6161,1.375 -1.375,1.375c-0.7589,0 -1.375,-0.6161 -1.375,-1.375v-1.375l-1.5,-1.5l-0.9437,0.7864c-0.3595,0.2996 -0.8125,0.4636 -1.2804,0.4636h-2.7759c-0.7589,0 -1.375,-0.6161 -1.375,-1.375c0,-0.7589 0.6161,-1.375 1.375,-1.375h3.625c0.5636,0 1.1041,-0.2239 1.5026,-0.6224c0.3985,-0.3985 0.6224,-0.939 0.6224,-1.5026v-0.875h0.75c0.276,0 0.5,-0.224 0.5,-0.5c0,-0.276 -0.224,-0.5 -0.5,-0.5h-1.25c-0.2761,0 -0.5,0.2239 -0.5,0.5v1.375c0,0.6209 -0.5041,1.125 -1.125,1.125c-0.6209,0 -1.125,-0.5041 -1.125,-1.125v-1.875c0,-0.5304 0.2107,-1.0391 0.5858,-1.4142c0.3751,-0.3751 0.8838,-0.5858 1.4142,-0.5858h3.25c0,-0.9659 0.7841,-1.75 1.75,-1.75c0.9659,0 1.75,0.7841 1.75,1.75c0,0.743 -0.464,1.3785 -1.1178,1.6322z" fill="#212121"/>
</svg>
