<svg width="20" height="20" viewBox="0 0 20 20" fill="none" xmlns="http://www.w3.org/2000/svg">
<path d="M4.5001,11.7863c-1.4559,-0.5152 -2.5001,-1.9048 -2.5001,-3.5363c0,-2.0697 1.6803,-3.75 3.75,-3.75h5c2.0697,0 3.75,1.6803 3.75,3.75c0,2.0697 -1.6803,3.75 -3.75,3.75h-1c-0.4139,0 -0.75,-0.3361 -0.75,-0.75c0,-0.4139 0.3361,-0.75 0.75,-0.75h1c1.2418,0 2.25,-1.0082 2.25,-2.25c0,-1.2418 -1.0082,-2.25 -2.25,-2.25h-5c-1.2418,0 -2.25,1.0082 -2.25,2.25c0,0.8782 0.5042,1.6396 1.2387,2.0101c-0.1549,0.4687 -0.2387,0.9696 -0.2387,1.4899c0,0.0121 0,0.0242 0.0001,0.0363zM15.4999,8.2137c1.4559,0.5152 2.5001,1.9048 2.5001,3.5363c0,2.0697 -1.6803,3.75 -3.75,3.75h-5c-2.0697,0 -3.75,-1.6803 -3.75,-3.75c0,-2.0697 1.6803,-3.75 3.75,-3.75h1c0.4139,0 0.75,0.3361 0.75,0.75c0,0.4139 -0.3361,0.75 -0.75,0.75h-1c-1.2418,0 -2.25,1.0082 -2.25,2.25c0,1.2418 1.0082,2.25 2.25,2.25h5c1.2418,0 2.25,-1.0082 2.25,-2.25c0,-0.8782 -0.5042,-1.6396 -1.2387,-2.0101c0.1549,-0.4687 0.2387,-0.9696 0.2387,-1.4899c0,-0.0121 0,-0.0242 -0.0001,-0.0363z" fill="#212121"/>
</svg>
