<svg width="20" height="20" viewBox="0 0 20 20" fill="none" xmlns="http://www.w3.org/2000/svg">
<path d="M2.8556,7.3542l2.6444,-2.6444v11.7902c0,0.2761 0.2239,0.5 0.5,0.5c0.2762,0 0.5,-0.2239 0.5,-0.5v-11.7947l2.6489,2.6489c0.1953,0.1953 0.5118,0.1953 0.7071,0c0.1953,-0.1953 0.1953,-0.5119 0,-0.7071l-3.4901,-3.4901l-0.0099,-0.0102c-0.0378,-0.0378 -0.0802,-0.0683 -0.1253,-0.0915c-0.0716,-0.0369 -0.1503,-0.0553 -0.229,-0.0553h-0.0017c-0.1538,0 -0.2914,0.0695 -0.3831,0.1787l-3.4684,3.4684c-0.1952,0.1952 -0.1952,0.5118 0,0.7071c0.1953,0.1952 0.5119,0.1952 0.7071,0zM17.1443,12.6458l-2.6443,2.6444v-11.7902c0,-0.2761 -0.2239,-0.5 -0.5,-0.5c-0.2762,0 -0.5,0.2239 -0.5,0.5v11.7947l-2.6489,-2.6489c-0.1953,-0.1953 -0.5119,-0.1953 -0.7072,0c-0.1952,0.1953 -0.1952,0.5119 0,0.7071l3.4901,3.4901l0.01,0.0103c0.0378,0.0377 0.0801,0.0682 0.1253,0.0914c0.0716,0.0369 0.1503,0.0553 0.229,0.0553h0.0017c0.1538,0 0.2914,-0.0695 0.3831,-0.1787l3.4683,-3.4684c0.1953,-0.1952 0.1953,-0.5118 0,-0.7071c-0.1952,-0.1952 -0.5118,-0.1952 -0.7071,0z" fill="#212121"/>
</svg>
