<svg width="20" height="20" viewBox="0 0 20 20" fill="none" xmlns="http://www.w3.org/2000/svg">
<path d="M15.4999,8.2137c1.4559,0.5152 2.5001,1.9048 2.5001,3.5363c0,2.0697 -1.6803,3.75 -3.75,3.75h-5c-2.0697,0 -3.75,-1.6803 -3.75,-3.75c0,-2.0697 1.6803,-3.75 3.75,-3.75h1.25c0.276,0 0.5,0.224 0.5,0.5c0,0.276 -0.224,0.5 -0.5,0.5h-1.25c-1.5178,0 -2.75,1.2322 -2.75,2.75c0,1.5178 1.2322,2.75 2.75,2.75h5c1.5178,0 2.75,-1.2322 2.75,-2.75c0,-1.1094 -0.6584,-2.0663 -1.6055,-2.5009c0.0691,-0.3222 0.1055,-0.6564 0.1055,-0.9991c0,-0.0121 0,-0.0242 -0.0001,-0.0363zM4.5001,11.7863c-1.4559,-0.5152 -2.5001,-1.9048 -2.5001,-3.5363c0,-2.0697 1.6803,-3.75 3.75,-3.75h5c2.0697,0 3.75,1.6803 3.75,3.75c0,2.0697 -1.6803,3.75 -3.75,3.75h-1.25c-0.276,0 -0.5,-0.224 -0.5,-0.5c0,-0.276 0.224,-0.5 0.5,-0.5h1.25c1.5178,0 2.75,-1.2322 2.75,-2.75c0,-1.5178 -1.2322,-2.75 -2.75,-2.75h-5c-1.5178,0 -2.75,1.2322 -2.75,2.75c0,1.1094 0.6584,2.0663 1.6055,2.5009c-0.0691,0.3222 -0.1055,0.6564 -0.1055,0.9991c0,0.0121 0,0.0242 0.0001,0.0363z" fill="#212121"/>
</svg>
