<svg width="20" height="20" viewBox="0 0 20 20" fill="none" xmlns="http://www.w3.org/2000/svg">
<path d="M4.5,10c1.3807,0 2.5,-1.1193 2.5,-2.5v-3c0,-1.3807 -1.1193,-2.5 -2.5,-2.5c-1.3807,0 -2.5,1.1193 -2.5,2.5c0,1.3807 1.1193,2.5 2.5,2.5h0.1071c0.3157,0 0.617,-0.0611 0.8929,-0.1721v0.6721c0,0.5523 -0.4477,1 -1,1h-0.25c-0.4142,0 -0.75,-0.3358 -0.75,-0.75c0,-0.4142 -0.3358,-0.75 -0.75,-0.75c-0.4142,0 -0.75,0.3358 -0.75,0.75c0,1.2426 1.0074,2.25 2.25,2.25zM5.5,4.5v0.1071c0,0.4932 -0.3998,0.8929 -0.8929,0.8929h-0.1071c-0.5523,0 -1,-0.4477 -1,-1c0,-0.5523 0.4477,-1 1,-1c0.5523,0 1,0.4477 1,1zM10.5,2c-1.3807,0 -2.5,1.1193 -2.5,2.5v3c0,1.3807 1.1193,2.5 2.5,2.5c1.3807,0 2.5,-1.1193 2.5,-2.5c0,-1.3807 -1.1193,-2.5 -2.5,-2.5h-0.1071c-0.3157,0 -0.617,0.0611 -0.8929,0.1721v-0.6721c0,-0.5523 0.4477,-1 1,-1h0.25c0.4142,0 0.75,0.3358 0.75,0.75c0,0.4142 0.3358,0.75 0.75,0.75c0.4142,0 0.75,-0.3358 0.75,-0.75c0,-1.2426 -1.0074,-2.25 -2.25,-2.25zM9.5,7.5v-0.1071c0,-0.4932 0.3997,-0.8929 0.8929,-0.8929h0.1071c0.5523,0 1,0.4477 1,1c0,0.5523 -0.4477,1 -1,1c-0.5523,0 -1,-0.4477 -1,-1zM15.5,4c0,-0.2761 0.2238,-0.5 0.5,-0.5c0.2762,0 0.5,0.2239 0.5,0.5v4c0,0.2761 -0.2238,0.5 -0.5,0.5c-0.2762,0 -0.5,-0.2239 -0.5,-0.5zM16,2c-1.1046,0 -2,0.8954 -2,2v4c0,1.1046 0.8954,2 2,2c1.1046,0 2,-0.8954 2,-2v-4c0,-1.1046 -0.8954,-2 -2,-2zM3.5,12c-0.2761,0 -0.5,0.2239 -0.5,0.5v5c0,0.2761 0.2239,0.5 0.5,0.5c0.2761,0 0.5,-0.2239 0.5,-0.5v-1.5h1.5c0.2761,0 0.5,-0.2239 0.5,-0.5c0,-0.2761 -0.2239,-0.5 -0.5,-0.5h-1.5v-2h2.5c0.2761,0 0.5,-0.2239 0.5,-0.5c0,-0.2761 -0.2239,-0.5 -0.5,-0.5zM8.5,12c-0.2761,0 -0.5,0.2239 -0.5,0.5v5c0,0.2761 0.2239,0.5 0.5,0.5c0.2761,0 0.5,-0.2239 0.5,-0.5v-1.5h1c1.1046,0 2,-0.8954 2,-2c0,-1.1046 -0.8954,-2 -2,-2zM11,14c0,0.5523 -0.4477,1 -1,1h-1v-2h1c0.5523,0 1,0.4477 1,1zM13,13.75c0,-0.9665 0.7835,-1.75 1.75,-1.75h0.75c0.8284,0 1.5,0.6716 1.5,1.5c0,0.2761 -0.2239,0.5 -0.5,0.5c-0.2761,0 -0.5,-0.2239 -0.5,-0.5c0,-0.2761 -0.2239,-0.5 -0.5,-0.5h-0.75c-0.4142,0 -0.75,0.3358 -0.75,0.75c0,0.4142 0.3358,0.75 0.75,0.75h0.5c0.9665,0 1.75,0.7835 1.75,1.75c0,0.9665 -0.7835,1.75 -1.75,1.75h-0.75c-0.8284,0 -1.5,-0.6716 -1.5,-1.5c0,-0.2761 0.2239,-0.5 0.5,-0.5c0.2761,0 0.5,0.2239 0.5,0.5c0,0.2761 0.2239,0.5 0.5,0.5h0.75c0.4142,0 0.75,-0.3358 0.75,-0.75c0,-0.4142 -0.3358,-0.75 -0.75,-0.75h-0.5c-0.9665,0 -1.75,-0.7835 -1.75,-1.75z" fill="#212121"/>
</svg>
