<svg width="20" height="20" viewBox="0 0 20 20" xmlns="http://www.w3.org/2000/svg">
  <path d="M7.3963,13.5c-0.3268,1.1537 -1.3885,2 -2.6463,2c-1.5178,0 -2.75,-1.2322 -2.75,-2.75c0,-1.5178 1.2322,-2.75 2.75,-2.75c0.749,0 1.4284,0.3001 1.9245,0.7864l0.0226,-0.0129l-2.9037,-3.0419c-0.3636,-0.3809 -0.3926,-0.971 -0.0681,-1.3857c0.3244,-0.4148 0.9041,-0.5286 1.3614,-0.2674l1.9248,1.0999c0.615,-1.0062 1.7239,-1.6784 2.9885,-1.6784c1.2355,0 2.3223,0.6415 2.9452,1.6093c0.0354,-0.0693 0.0548,-0.147 0.0548,-0.2276v-2.8817c0,-0.1801 0.0969,-0.3463 0.2537,-0.4351c0.1567,-0.0888 0.3491,-0.0863 0.5035,0.0064l1.4421,0.8652c1.4273,0.8564 2.3007,2.3994 2.3007,4.064c0,0.5864 -0.3142,1.1278 -0.8233,1.4187l-0.4526,0.2586c1.0376,0.3936 1.7759,1.3974 1.7759,2.5722c0,1.5178 -1.2322,2.75 -2.75,2.75c-1.5178,0 -2.75,-1.2322 -2.75,-2.75c0,-0.1591 0.0135,-0.315 0.0395,-0.4667l-1.3222,0.7555c-0.5289,0.3022 -1.1274,0.4612 -1.7365,0.4612c-0.4967,0 -1.2685,0 -2.0845,0zM5.7505,11.3144c-0.2836,-0.1981 -0.6286,-0.3144 -1.0005,-0.3144c-0.9659,0 -1.75,0.7841 -1.75,1.75c0,0.9659 0.7841,1.75 1.75,1.75c0.6975,0 1.3003,-0.409 1.5814,-1c-0.585,0 -1.1411,0 -1.5815,0c-0.3401,0 -0.6376,-0.2288 -0.7249,-0.5575c-0.0873,-0.3287 0.0575,-0.675 0.3528,-0.8437zM7.5916,10.2624l1.4006,-0.8004l-4.4017,-2.5152c-0.0261,-0.0149 -0.0591,-0.0084 -0.0776,0.0152c-0.0186,0.0237 -0.0169,0.0574 0.0038,0.0791zM10,8.8862l2.1198,-1.2113c-0.4422,-0.7055 -1.2266,-1.1749 -2.1198,-1.1749c-0.8932,0 -1.6776,0.4694 -2.1198,1.1748zM13.9039,10.3519l2.2766,-1.301c0.1976,-0.1128 0.3195,-0.3229 0.3195,-0.5504c0,-1.3134 -0.6891,-2.5308 -1.8152,-3.2065l-0.6848,-0.4109v1.9986c0,0.5383 -0.2884,1.0354 -0.7558,1.3024l-7.5529,4.3159c1.301,0 2.9439,0 3.7895,0c0.4351,0 0.8626,-0.1135 1.2404,-0.3294c0,0 3.1725,-1.8129 3.1827,-1.8187zM14.3739,11.2351c-0.5223,0.3029 -0.8739,0.8682 -0.8739,1.5149c0,0.9659 0.7841,1.75 1.75,1.75c0.9659,0 1.75,-0.7841 1.75,-1.75c0,-0.9659 -0.7841,-1.75 -1.75,-1.75c-0.3111,0 -0.6034,0.0814 -0.8566,0.2239c-0.0065,0.0037 -0.013,0.0074 -0.0195,0.0112z" fill="#212121" />
</svg>