<svg width="20" height="20" viewBox="0 0 20 20" fill="none" xmlns="http://www.w3.org/2000/svg">
<path d="M5.418,6.126C4.534,7.171 4,8.523 4,10C4,11.882 4.867,13.562 6.222,14.661C6.436,14.835 6.751,14.802 6.925,14.588C7.099,14.374 7.066,14.059 6.852,13.885C5.721,12.967 5,11.568 5,10C5,8.799 5.423,7.698 6.129,6.836L13.164,13.871C12.353,14.535 11.33,14.949 10.211,14.996L10.854,14.354C11.049,14.158 11.049,13.842 10.854,13.646C10.658,13.451 10.342,13.451 10.146,13.646L8.646,15.146C8.553,15.24 8.5,15.367 8.5,15.5C8.5,15.633 8.553,15.76 8.646,15.854L10.146,17.354C10.342,17.549 10.658,17.549 10.854,17.354C11.049,17.158 11.049,16.842 10.854,16.646L10.204,15.997C11.601,15.95 12.877,15.426 13.874,14.582L17.146,17.854C17.342,18.049 17.658,18.049 17.854,17.854C18.049,17.658 18.049,17.342 17.854,17.146L2.854,2.146C2.658,1.951 2.342,1.951 2.146,2.146C1.951,2.342 1.951,2.658 2.146,2.854L5.418,6.126ZM14.434,12.313L15.169,13.048C15.697,12.155 16,11.113 16,10C16,8.118 15.133,6.438 13.778,5.339C13.564,5.165 13.249,5.198 13.075,5.412C12.901,5.626 12.934,5.941 13.148,6.115C14.279,7.033 15,8.432 15,10C15,10.834 14.796,11.621 14.434,12.313ZM6.952,4.831L7.687,5.566C8.32,5.235 9.033,5.036 9.788,5.004L9.146,5.646C8.951,5.842 8.951,6.158 9.146,6.354C9.342,6.549 9.658,6.549 9.854,6.354L11.354,4.854C11.549,4.658 11.549,4.342 11.354,4.146L9.854,2.646C9.658,2.451 9.342,2.451 9.146,2.646C8.951,2.842 8.951,3.158 9.146,3.354L9.796,4.003C8.76,4.038 7.791,4.335 6.952,4.831Z" fill="#212121"/>
</svg>
