<svg width="20" height="20" viewBox="0 0 20 20" fill="none" xmlns="http://www.w3.org/2000/svg">
<path d="M9,13.5c-0.8284,0 -1.5,-0.6717 -1.5,-1.5c0,-0.2729 0.0729,-0.5288 0.2003,-0.7493c-0.6388,-0.2556 -1.1847,-0.6941 -1.573,-1.2507h-0.5733c-0.4531,0 -0.8977,0.1231 -1.2863,0.3563l-2.0249,1.215c-0.2367,0.1419 -0.3135,0.4493 -0.1715,0.6859c0.1419,0.2367 0.4493,0.3135 0.6859,0.1715l1.7428,-1.0456v3.6169c0,0.663 0.2634,1.2989 0.7322,1.7678c0.4689,0.4688 1.1048,0.7322 1.7678,0.7322h6c0.663,0 1.2989,-0.2634 1.7678,-0.7322c0.4688,-0.4689 0.7322,-1.1048 0.7322,-1.7678v-3.6169l1.7428,1.0456c0.2366,0.142 0.544,0.0652 0.6859,-0.1715c0.142,-0.2366 0.0652,-0.544 -0.1715,-0.6859l-2.0249,-1.215c-0.3886,-0.2332 -0.8332,-0.3563 -1.2863,-0.3563h-0.6749c-0.6372,2.0285 -2.5323,3.5 -4.7711,3.5zM13.5,2.75c-0.4142,0 -0.75,0.3358 -0.75,0.75c0,0.4142 0.3358,0.75 0.75,0.75c0.4142,0 0.75,-0.3358 0.75,-0.75c0,-0.4142 -0.3358,-0.75 -0.75,-0.75zM6.5,8c0,1.3807 1.1193,2.5 2.5,2.5c1.1046,0 2,-0.8954 2,-2c0,-0.8284 -0.6716,-1.5 -1.5,-1.5c-0.5523,0 -1,0.4477 -1,1c0,0.2761 0.2239,0.5 0.5,0.5c0.2761,0 0.5,-0.2239 0.5,-0.5c0.2761,0 0.5,0.2239 0.5,0.5c0,0.5523 -0.4477,1 -1,1c-0.8284,0 -1.5,-0.6716 -1.5,-1.5c0,-1.1046 0.8954,-2 2,-2c1.3807,0 2.5,1.1193 2.5,2.5c0,1.6569 -1.3431,3 -3,3c-0.2761,0 -0.5,0.2239 -0.5,0.5c0,0.2761 0.2239,0.5 0.5,0.5c2.2091,0 4,-1.7909 4,-4c0,-1.933 -1.567,-3.5 -3.5,-3.5c-1.6568,0 -3,1.3431 -3,3zM16.5,5c-0.2761,0 -0.5,0.2239 -0.5,0.5v0.5h-0.5c-0.2761,0 -0.5,0.2239 -0.5,0.5c0,0.2761 0.2239,0.5 0.5,0.5h0.5v0.5c0,0.2761 0.2239,0.5 0.5,0.5c0.2761,0 0.5,-0.2239 0.5,-0.5v-0.5h0.5c0.2761,0 0.5,-0.2239 0.5,-0.5c0,-0.2761 -0.2239,-0.5 -0.5,-0.5h-0.5v-0.5c0,-0.2761 -0.2239,-0.5 -0.5,-0.5z" fill="#212121"/>
</svg>
