<svg width="20" height="20" viewBox="0 0 20 20" fill="none" xmlns="http://www.w3.org/2000/svg">
<path d="M16.1558,2.6968c-0.4574,-0.2568 -1.0696,-0.4078 -1.7383,-0.5042c-1.3368,-0.1926 -3.1149,-0.1926 -4.8858,-0.1926h-0.0317c-0.2761,0 -0.5,0.2239 -0.5,0.5c0,0.2761 0.2239,0.5 0.5,0.5c1.8086,0 3.5172,0.0012 4.7749,0.1824c0.6326,0.0911 1.0973,0.2213 1.3914,0.3864c0.2757,0.1547 0.3337,0.2945 0.3337,0.4312c0,0.1495 -0.0625,0.2881 -0.3138,0.4372c-0.2722,0.1616 -0.704,0.2904 -1.2935,0.3811c-1.1724,0.1804 -2.7536,0.1817 -4.3927,0.1817h-0.032c-1.601,0 -3.2561,0 -4.5128,0.1933c-0.6292,0.0968 -1.2131,0.2492 -1.6518,0.5095c-0.4597,0.2728 -0.8034,0.6967 -0.8034,1.2972c0,0.7917 0.6458,1.2671 1.3219,1.5247c0.7046,0.2685 1.6474,0.3929 2.6781,0.3929v-1c-0.9693,0 -1.7765,-0.1195 -2.322,-0.3273c-0.5738,-0.2187 -0.678,-0.4521 -0.678,-0.5903c0,-0.1495 0.0625,-0.2881 0.3137,-0.4372c0.2723,-0.1616 0.7041,-0.2904 1.2936,-0.3811c1.1724,-0.1804 2.7536,-0.1817 4.3927,-0.1817h0.032c1.601,0 3.2561,0 4.5128,-0.1933c0.6292,-0.0968 1.2131,-0.2492 1.6518,-0.5095c0.4597,-0.2728 0.8034,-0.6967 0.8034,-1.2972c0,-0.6133 -0.3682,-1.036 -0.8442,-1.3032zM9.382,16.8722c0.1564,0.3282 0.4073,0.6331 0.7188,0.8431c0.3158,0.213 0.7197,0.3438 1.1534,0.2603l1.8187,-0.3499c0.5383,-0.1037 0.9677,-0.5102 1.1007,-1.042l0.7559,-3.0252c0.3204,-1.2821 -0.4942,-2.5722 -1.7895,-2.8341l-2.14,-0.4326v-1.7918c0,-0.8279 -0.6721,-1.5 -1.5,-1.5c-0.8279,0 -1.5,0.6721 -1.5,1.5v3.6564l-1.068,-0.4596c-0.9855,-0.4241 -2.1213,0.0991 -2.4394,1.1238c-0.1134,0.3653 0.0386,0.7608 0.3676,0.956l3.6081,2.1415l0.0205,0.0116c0.4635,0.2482 0.733,0.6064 0.8932,0.9425z" fill="#212121"/>
</svg>
