<svg width="20" height="20" viewBox="0 0 20 20" fill="none" xmlns="http://www.w3.org/2000/svg">
<path d="M17,8v-4.5c0,-0.8284 -0.6716,-1.5 -1.5,-1.5h-11c-0.8284,0 -1.5,0.6716 -1.5,1.5v13c0,0.8284 0.6716,1.5 1.5,1.5h7.5v-0.7073c-0.2739,-0.0775 -0.5392,-0.1756 -0.794,-0.2927h-6.706c-0.2761,0 -0.5,-0.2239 -0.5,-0.5v-13c0,-0.2761 0.2239,-0.5 0.5,-0.5h11c0.2761,0 0.5,0.2239 0.5,0.5v2.0515c0.6185,0.6314 1,1.4957 1,2.4485zM10,8.5h-3.5c-0.2761,0 -0.5,0.2239 -0.5,0.5c0,0.2761 0.2239,0.5 0.5,0.5h3.5zM10.6281,6h-4.1281c-0.2761,0 -0.5,0.2239 -0.5,0.5c0,0.2761 0.2239,0.5 0.5,0.5h3.6452c0.1076,-0.3612 0.2721,-0.698 0.4829,-1zM8.0853,11h-1.5853c-0.2761,0 -0.5,0.2239 -0.5,0.5c0,0.2761 0.2239,0.5 0.5,0.5h1.5v-0.5c0,-0.1753 0.0301,-0.3436 0.0853,-0.5zM9.5,11c-0.2761,0 -0.5,0.2239 -0.5,0.5v0.5c0,2.3163 1.75,4.2238 4,4.4725v1.0275c0,0.2761 0.2239,0.5 0.5,0.5c0.2761,0 0.5,-0.2239 0.5,-0.5v-1.0275c2.25,-0.2487 4,-2.1562 4,-4.4725v-0.5c0,-0.2761 -0.2239,-0.5 -0.5,-0.5c-0.2761,0 -0.5,0.2239 -0.5,0.5v0.5c0,1.933 -1.567,3.5 -3.5,3.5c-1.933,0 -3.5,-1.567 -3.5,-3.5v-0.5c0,-0.2761 -0.2239,-0.5 -0.5,-0.5zM11,12c0,1.3798 1.1202,2.5 2.5,2.5c1.3798,0 2.5,-1.1202 2.5,-2.5v-4c0,-1.3798 -1.1202,-2.5 -2.5,-2.5c-1.3798,0 -2.5,1.1202 -2.5,2.5zM13.5,6.5c0.8279,0 1.5,0.6721 1.5,1.5v4c0,0.8279 -0.6721,1.5 -1.5,1.5c-0.8279,0 -1.5,-0.6721 -1.5,-1.5v-4c0,-0.8279 0.6721,-1.5 1.5,-1.5z" fill="#212121"/>
</svg>
