<svg width="20" height="20" viewBox="0 0 20 20" fill="none" xmlns="http://www.w3.org/2000/svg">
<path d="M13.5323,8.1458c2.468,0 4.4687,2.0007 4.4687,4.4688c0,2.468 -2.0007,4.4687 -4.4687,4.4687c-0.3474,0 -0.6853,-0.0396 -1.0099,-0.1146l-0.0786,0.0299l-2.0365,0.831c-0.9194,0.3752 -1.9691,0.1139 -2.6066,-0.6315l-0.1024,-0.1287l-0.2486,-0.3365c-0.5859,-0.7932 -0.5955,-1.8658 -0.041,-2.666l0.1037,-0.1382l1.4412,-1.7791c0.0503,-0.0625 0.1026,-0.1232 0.1571,-0.1819c0.3126,-2.1613 2.1732,-3.8219 4.4216,-3.8219zM9.0826,13.579l-0.7932,0.9791c-0.3433,0.4238 -0.381,1.013 -0.1063,1.4738l0.3197,0.4435c0.3253,0.4402 0.889,0.624 1.4051,0.471c0,0 1.1964,-0.4807 1.1959,-0.4809c-1.0155,-0.6418 -1.7597,-1.6745 -2.0212,-2.8865zM10.0637,12.6146c-0.0002,0.0073 0,0.0084 0,0zM10.0637,12.6146c0,1.5887 1.0679,2.9279 2.5247,3.3388c0.0011,0.0003 0.0022,0.0005 0.0033,0.0008l0.165,0.0422c0.0018,0.0003 0.0035,0.0007 0.0053,0.0012l0.1941,0.0382c0.0016,0.0002 0.0032,0.0005 0.0048,0.0008l0.1721,0.0232c0.0018,0.0002 0.0036,0.0004 0.0054,0.0006l0.1575,0.0147l0.0021,0.0002l0.1714,0.0075h0.002l0.2394,-0.004h0.0017c1.8321,-0.0938 3.2885,-1.609 3.2885,-3.4642c0,-1.9158 -1.553,-3.4688 -3.4687,-3.4688c-1.4885,0 -2.758,0.9376 -3.2503,2.2544c-0.0438,0.1179 -0.0816,0.2387 -0.1129,0.3618l-0.058,0.278l-0.0296,0.2169l-0.0127,0.1651c0,0 -0.0038,0.1597 -0.0051,0.1926zM6.4723,2c0.6053,0 1.1824,0.1203 1.7088,0.3383l0.6343,-0.2092c0.8819,-0.2925 1.8453,-0.0221 2.4468,0.6667l0.1084,0.134l0.1045,0.1519l0.2671,0.4235c0.4862,0.7708 0.4663,1.7494 -0.0425,2.5078l-0.1011,0.1395l-0.1128,0.132l-0.5649,0.6114c-0.215,2.2677 -2.1247,4.0416 -4.4486,4.0416c-2.468,0 -4.4687,-2.0008 -4.4687,-4.4688c0,-2.468 2.0007,-4.4687 4.4687,-4.4687zM9.1278,7.3598l0.0021,-0.0021l1.6071,-1.7358l0.0021,-0.0024l0.0835,-0.0974l0.0023,-0.0029c0.3061,-0.3943 0.3555,-0.9286 0.1337,-1.3704l-0.0641,-0.1135c-0.0014,-0.0019 -0.0027,-0.0039 -0.004,-0.006l-0.251,-0.3987l-0.0694,-0.1014l-0.002,-0.0028c-0.3058,-0.406 -0.8204,-0.5924 -1.3112,-0.4832l-0.004,0.0007l-0.1231,0.0345l-2.1641,0.7172c-0.0014,0.0005 -0.0029,0.0009 -0.0044,0.0013c-0.2138,0.0581 -0.4192,0.1493 -0.6107,0.2725c-1.0177,0.6549 -1.3221,2.0124 -0.6805,3.0298c0.6396,1.0139 1.9784,1.3071 2.9927,0.6545c0.1121,-0.0721 0.2179,-0.1542 0.3172,-0.2455zM9.2244,8.5805l-0.0204,0.0141c-1.4812,0.9531 -3.4431,0.5229 -4.3797,-0.9619c-0.9347,-1.4821 -0.4932,-3.4529 0.9852,-4.4043c0.1291,-0.083 0.2628,-0.1562 0.398,-0.2185c-1.792,0.1353 -3.2039,1.6322 -3.2039,3.4588c0,1.9157 1.553,3.4688 3.4687,3.4688c1.1211,0 2.1179,-0.5319 2.7521,-1.357zM10.2189,4.4017c0.1429,0.2363 0.0677,0.5435 -0.1686,0.6864c-0.21,0.1271 -0.4762,0.0813 -0.6332,-0.0964c-0.0012,-0.0013 -0.0023,-0.0028 -0.0035,-0.0044l-0.0478,-0.0651l-0.0075,-0.0121l-0.2318,-0.3831c-0.1429,-0.2363 -0.0672,-0.5438 0.169,-0.6867c0.2101,-0.127 0.4762,-0.0812 0.6332,0.0965c0.0013,0.0013 0.0025,0.0029 0.0038,0.0047l0.0464,0.0632c0.0012,0.0015 0.0022,0.0031 0.0032,0.0048l0.2318,0.3831z" fill="#212121"/>
</svg>
