<svg width="20" height="20" viewBox="0 0 20 20" fill="none" xmlns="http://www.w3.org/2000/svg">
<path d="M10.5303,2.2197c-0.2929,-0.2929 -0.7677,-0.2929 -1.0606,0l-4,4c-0.2929,0.2929 -0.2929,0.7677 0,1.0606c0.2929,0.2929 0.7677,0.2929 1.0606,0l2.7197,-2.7196v9.6893c0,0.4142 0.3358,0.75 0.75,0.75c0.4142,0 0.75,-0.3358 0.75,-0.75v-9.6893l2.7197,2.7196c0.2929,0.2929 0.7677,0.2929 1.0606,0c0.2929,-0.2929 0.2929,-0.7677 0,-1.0606zM4.5,16.5c-0.4142,0 -0.75,0.3358 -0.75,0.75c0,0.4142 0.3358,0.75 0.75,0.75h11c0.4142,0 0.75,-0.3358 0.75,-0.75c0,-0.4142 -0.3358,-0.75 -0.75,-0.75z" fill="#212121"/>
</svg>
