<svg width="20" height="20" viewBox="0 0 20 20" fill="none" xmlns="http://www.w3.org/2000/svg">
<path d="M9.5,6.5c-1.1613,0 -2.1685,0.6599 -2.6671,1.6252c-0.2128,0.4118 -0.3329,0.8793 -0.3329,1.3748c0,1.6569 1.3431,3 3,3h5.9393l-0.7196,-0.7197c-0.2929,-0.2929 -0.2929,-0.7677 0,-1.0606c0.2929,-0.2929 0.7677,-0.2929 1.0606,0l2,2c0.2929,0.2929 0.2929,0.7677 0,1.0606l-2,2c-0.2929,0.2929 -0.7677,0.2929 -1.0606,0c-0.2929,-0.2929 -0.2929,-0.7677 0,-1.0606l0.7196,-0.7197h-5.9393c-2.4853,0 -4.5,-2.0147 -4.5,-4.5c0,-0.6014 0.118,-1.1753 0.3321,-1.6998c0.6706,-1.6426 2.2841,-2.8002 4.1679,-2.8002c2.4853,0 4.5,2.0147 4.5,4.5c0,0.7184 -0.1684,1.3975 -0.4678,2h-1.7961c0.475,-0.5308 0.7639,-1.2316 0.7639,-2c0,-1.6569 -1.3431,-3 -3,-3zM2.75,12.5h2.1395c0.3829,0.5873 0.875,1.0969 1.4474,1.5h-3.5869c-0.4142,0 -0.75,-0.3358 -0.75,-0.75c0,-0.4142 0.3358,-0.75 0.75,-0.75z" fill="#212121"/>
</svg>
