<svg width="20" height="20" viewBox="0 0 20 20" fill="none" xmlns="http://www.w3.org/2000/svg">
<path d="M9,11.5v4c0,0.8284 0.6716,1.5 1.5,1.5h6c0.8284,0 1.5,-0.6716 1.5,-1.5v-4c0,-0.8284 -0.6716,-1.5 -1.5,-1.5h-6c-0.8284,0 -1.5,0.6716 -1.5,1.5zM8,11.5c0,-1.3807 1.1193,-2.5 2.5,-2.5h5.5v-3.5c0,-1.3798 -1.1202,-2.5 -2.5,-2.5h-9c-1.3798,0 -2.5,1.1202 -2.5,2.5v6c0,1.3798 1.1202,2.5 2.5,2.5h3.5zM4.1465,5.1465c0.1952,-0.1953 0.5118,-0.1953 0.707,-0.0001l2.1465,2.1465v-1.2929c0,-0.2761 0.2239,-0.5 0.5,-0.5c0.2761,0 0.5,0.2239 0.5,0.5v2.5c0,0.2761 -0.2239,0.5 -0.5,0.5h-2.5c-0.2761,0 -0.5,-0.2239 -0.5,-0.5c0,-0.2761 0.2239,-0.5 0.5,-0.5h1.2929l-2.1464,-2.1464c-0.1953,-0.1953 -0.1953,-0.5119 -0.0001,-0.7072z" fill="#212121"/>
</svg>
