<svg width="20" height="20" viewBox="0 0 20 20" fill="none" xmlns="http://www.w3.org/2000/svg">
<path d="M16.1452,12.4628c-0.6045,-0.1914 -1.0391,-0.4795 -1.2734,-0.8252l-2.6122,-4.4918c0.0208,-0.0032 0.0416,-0.0018 0.0624,-0.0052c0.2725,-0.0449 0.4561,-0.3027 0.4111,-0.5752c-0.0459,-0.2725 -0.2969,-0.4604 -0.5752,-0.4111c-2.2349,0.3695 -4.2847,-1.0577 -4.6631,-3.1168c-0.0498,-0.271 -0.3096,-0.4512 -0.582,-0.4014c-0.2657,0.0488 -0.4403,0.3 -0.4011,0.5651c-1.3515,0.4581 -2.3282,1.1985 -2.8977,2.2079c-0.522,0.9248 -0.6006,1.8686 -0.6123,2.5083l-0.647,0.8091c-0.2607,0.3262 -0.374,0.75 -0.311,1.1631c0.063,0.4126 0.2974,0.7832 0.6436,1.0166l7.5146,5.0713c0.9951,0.6689 2.1543,1.0225 3.3516,1.0225h2.0205c1.1992,0 2.2305,-0.8398 2.4004,-1.9541c0.2001,-1.3126 -0.8077,-2.2589 -1.8292,-2.5831zM11.1248,7.1851l2.8993,4.9827c0.3828,0.5664 0.9941,0.9863 1.8184,1.248c0.3315,0.105 0.6589,0.3092 0.8812,0.584h-3.1703c-0.5986,0 -1.1797,-0.1777 -1.6777,-0.5117l-1.3995,-0.9446l0.7355,-0.4246c0.29,-0.166 0.4971,-0.4355 0.584,-0.7578c0.0869,-0.3223 0.043,-0.6602 -0.124,-0.9492l-0.5,-0.8672c-0.3447,-0.5977 -1.1118,-0.8037 -1.708,-0.458l-2.2146,1.2787l-0.9221,-0.6223l0.4814,-0.278c0.289,-0.1669 0.496,-0.4364 0.5824,-0.7591c0.0864,-0.3227 0.042,-0.6597 -0.125,-0.9487l-1.7185,-2.9758c0.3563,-0.2452 0.7709,-0.4539 1.251,-0.6198c0.7063,1.7148 2.3767,2.9003 4.3265,3.0234zM8.1709,10.9878l1.7927,-1.0347c0.1191,-0.0688 0.2725,-0.0273 0.3418,0.0913l0.4995,0.8667c0.0449,0.0781 0.0352,0.1533 0.0249,0.1904c-0.0098,0.0371 -0.0381,0.1064 -0.1167,0.1514l-1.1584,0.6689zM4.4851,5.9003c0.0856,-0.1519 0.1961,-0.2893 0.3072,-0.4263l1.6078,2.7838c0.0449,0.0776 0.0347,0.1523 0.0249,0.1895c-0.0103,0.0375 -0.0386,0.1068 -0.1167,0.1517l-0.9036,0.5218l-1.4055,-0.9485l0.002,-0.2197c0.0083,-0.5279 0.0674,-1.3145 0.4839,-2.0523zM15.5739,15.9999h-2.0205c-0.998,0 -1.9639,-0.2949 -2.793,-0.8516l-7.5137,-5.0708c-0.1171,-0.0791 -0.1933,-0.1992 -0.2143,-0.3388c-0.0215,-0.1397 0.0152,-0.2779 0.1035,-0.3877l0.288,-0.3602l7.8932,5.3265c0.665,0.4463 1.4375,0.6826 2.2363,0.6826h3.3942c-0.146,0.5739 -0.7069,1 -1.3737,1z" fill="#212121"/>
</svg>
