<svg width="20" height="20" viewBox="0 0 20 20" fill="none" xmlns="http://www.w3.org/2000/svg">
<path d="M5.7626,3.3519c2.2915,-1.4039 4.9857,-1.5705 7.7118,-0.1701c3.851,1.9783 5.3742,5.921 4.0729,10.1505c-0.4131,1.3426 -1.2446,2.6509 -2.3077,3.4927c-1.1659,0.9232 -2.5687,1.3008 -4.0975,0.7782c-1.1782,-0.4028 -1.7845,-1.0129 -2.1475,-1.638c-0.3509,-0.6043 -0.4964,-1.306 -0.5591,-2.0763c-0.0157,-0.1926 -0.0256,-0.3663 -0.0356,-0.5429c-0.0071,-0.1237 -0.0141,-0.2488 -0.0237,-0.3843c-0.0175,-0.2458 -0.0403,-0.4998 -0.0975,-0.7359c-0.0374,-0.1538 -0.089,-0.3132 -0.197,-0.4466c-0.0899,-0.1109 -0.2147,-0.1855 -0.3682,-0.2324c-0.4465,-0.1364 -0.8049,-0.1327 -1.1132,-0.0351c-0.2796,0.0887 -0.5174,0.2431 -0.7026,0.3565c-0.0551,0.0337 -0.1071,0.0656 -0.1551,0.0938c-0.5006,0.2954 -0.8449,0.3802 -1.2108,0.3619c-0.3141,-0.0155 -0.8312,-0.1145 -1.6157,-0.754c-0.597,-0.4867 -0.9124,-1.1673 -0.9161,-2.062c-0.0028,-0.6952 0.2031,-1.5199 0.5973,-2.3698c0.7395,-1.5945 2.059,-3.1083 3.1653,-3.7862zM6.285,4.2046c-0.9767,0.5985 -2.1277,1.9465 -2.7805,3.3542c-0.3241,0.6988 -0.5068,1.3734 -0.5045,1.945c0.0023,0.5561 0.1768,0.9885 0.548,1.291c0.5111,0.4166 0.8288,0.5202 1.0334,0.5304c0.2,0.0099 0.3797,-0.0632 0.6533,-0.2246c0.0437,-0.0257 0.0911,-0.0548 0.1414,-0.0855c0.2419,-0.1482 0.5569,-0.3409 0.9222,-0.4567c0.4725,-0.1497 1.0229,-0.1771 1.7075,0.032c0.3596,0.11 0.6426,0.2997 0.8531,0.5596c0.205,0.2533 0.3207,0.5479 0.3916,0.8401c0.0701,0.2891 0.1018,0.5998 0.1232,0.9009c0.0099,0.1405 0.0173,0.2702 0.0246,0.3984c0.0095,0.1686 0.0189,0.3344 0.0339,0.5183c0.0499,0.6125 0.1482,1.1749 0.4272,1.6554c0.2689,0.4631 0.7332,0.8954 1.6062,1.1938c1.1777,0.4026 2.2551,0.0952 3.1533,-0.6159c0.9124,-0.7225 1.618,-1.8505 1.9726,-3.0028c1.1485,-3.7329 -0.1752,-7.2209 -3.5741,-8.9669c-2.3797,-1.2225 -4.732,-1.0922 -6.7324,0.1333zM9.5,6.5c-0.4142,0 -0.75,-0.3358 -0.75,-0.75c0,-0.4142 0.3358,-0.75 0.75,-0.75c0.4142,0 0.75,0.3358 0.75,0.75c0,0.4142 -0.3358,0.75 -0.75,0.75zM15.25,9c0,0.4142 -0.3358,0.75 -0.75,0.75c-0.4142,0 -0.75,-0.3358 -0.75,-0.75c0,-0.4142 0.3358,-0.75 0.75,-0.75c0.4142,0 0.75,0.3358 0.75,0.75zM13.25,14c0,0.4142 -0.3358,0.75 -0.75,0.75c-0.4142,0 -0.75,-0.3358 -0.75,-0.75c0,-0.4142 0.3358,-0.75 0.75,-0.75c0.4142,0 0.75,0.3358 0.75,0.75zM12.5,7.5c-0.4142,0 -0.75,-0.3358 -0.75,-0.75c0,-0.4142 0.3358,-0.75 0.75,-0.75c0.4142,0 0.75,0.3358 0.75,0.75c0,0.4142 -0.3358,0.75 -0.75,0.75zM14.5,12.75c-0.4142,0 -0.75,-0.3358 -0.75,-0.75c0,-0.4142 0.3358,-0.75 0.75,-0.75c0.4142,0 0.75,0.3358 0.75,0.75c0,0.4142 -0.3358,0.75 -0.75,0.75z" fill="#212121"/>
</svg>
