<svg width="20" height="20" viewBox="0 0 20 20" fill="none" xmlns="http://www.w3.org/2000/svg">
<path d="M7.5,9.25v1c0,1.2426 -1.0074,2.25 -2.25,2.25h-2.5c-0.4142,0 -0.75,-0.3358 -0.75,-0.75c0,-0.4142 0.3358,-0.75 0.75,-0.75h2.5c0.4142,0 0.75,-0.3358 0.75,-0.75v-1c0,-3.7027 2.7757,-6.7571 6.3598,-7.1959c-0.1591,0.4906 -0.1453,1.0251 0.0413,1.5081c-2.7731,0.4104 -4.9011,2.8006 -4.9011,5.6878zM13.5,10.7499c0,4.0041 -3.2459,7.25 -7.25,7.25h-0.5c-0.4142,0 -0.75,-0.3358 -0.75,-0.75c0,-0.4143 0.3358,-0.75 0.75,-0.75h0.5c3.1756,0 5.75,-2.5744 5.75,-5.75v-0.9999c0,-0.3989 0.1038,-0.7736 0.2859,-1.0985c0.0786,0.4357 0.2863,0.8527 0.6231,1.1895c0.1777,0.1776 0.3777,0.3194 0.591,0.4252v0.4838zM15.4393,6.2499h-1.6893c-1.7949,0 -3.25,1.4551 -3.25,3.25v1c0,2.6234 -2.1266,4.75 -4.75,4.75h-3c-0.4142,0 -0.75,-0.3358 -0.75,-0.75c0,-0.4142 0.3358,-0.75 0.75,-0.75h3c1.7949,0 3.25,-1.4551 3.25,-3.25v-1c0,-2.6234 2.1266,-4.75 4.75,-4.75h1.6893l-1.4696,-1.4697c-0.2929,-0.2929 -0.2929,-0.7677 0,-1.0606c0.2929,-0.2929 0.7677,-0.2929 1.0606,0l2.75,2.75c0.2929,0.2929 0.2929,0.7677 0,1.0606l-2.75,2.75c-0.2929,0.2929 -0.7677,0.2929 -1.0606,0c-0.2929,-0.2929 -0.2929,-0.7677 0,-1.0606z" fill="#212121"/>
</svg>
