<svg width="20" height="20" viewBox="0 0 20 20" fill="none" xmlns="http://www.w3.org/2000/svg">
<path d="M4.5,11.3831v3.6169c0,0.663 0.2634,1.2989 0.7322,1.7678c0.4689,0.4688 1.1048,0.7322 1.7678,0.7322h6c0.663,0 1.2989,-0.2634 1.7678,-0.7322c0.4688,-0.4689 0.7322,-1.1048 0.7322,-1.7678v-3.6169l1.7428,1.0456c0.2366,0.142 0.544,0.0652 0.6859,-0.1715c0.142,-0.2366 0.0652,-0.544 -0.1715,-0.6859l-2.5,-1.5c-0.1544,-0.0927 -0.3468,-0.0952 -0.5035,-0.0064c-0.1568,0.0888 -0.2537,0.255 -0.2537,0.4351v4.5c0,0.3978 -0.158,0.7794 -0.4393,1.0607c-0.2813,0.2813 -0.6629,0.4393 -1.0607,0.4393h-6c-0.3978,0 -0.7794,-0.158 -1.0607,-0.4393c-0.2813,-0.2813 -0.4393,-0.6629 -0.4393,-1.0607v-4.5c0,-0.1801 -0.0969,-0.3463 -0.2537,-0.4351c-0.1567,-0.0888 -0.3491,-0.0863 -0.5035,0.0064l-2.5,1.5c-0.2367,0.1419 -0.3135,0.4493 -0.1715,0.6859c0.1419,0.2367 0.4493,0.3135 0.6859,0.1715zM13.5,2.75c-0.4142,0 -0.75,0.3358 -0.75,0.75c0,0.4142 0.3358,0.75 0.75,0.75c0.4142,0 0.75,-0.3358 0.75,-0.75c0,-0.4142 -0.3358,-0.75 -0.75,-0.75zM6.5,8c0,1.3807 1.1193,2.5 2.5,2.5c1.1046,0 2,-0.8954 2,-2c0,-0.8284 -0.6716,-1.5 -1.5,-1.5c-0.5523,0 -1,0.4477 -1,1c0,0.2761 0.2239,0.5 0.5,0.5c0.2761,0 0.5,-0.2239 0.5,-0.5c0.2761,0 0.5,0.2239 0.5,0.5c0,0.5523 -0.4477,1 -1,1c-0.8284,0 -1.5,-0.6716 -1.5,-1.5c0,-1.1046 0.8954,-2 2,-2c1.3807,0 2.5,1.1193 2.5,2.5c0,1.6569 -1.3431,3 -3,3c-0.2761,0 -0.5,0.2239 -0.5,0.5c0,0.2761 0.2239,0.5 0.5,0.5c2.2091,0 4,-1.7909 4,-4c0,-1.933 -1.567,-3.5 -3.5,-3.5c-1.6568,0 -3,1.3432 -3,3zM16.5,5c-0.2761,0 -0.5,0.2239 -0.5,0.5v0.5h-0.5c-0.2761,0 -0.5,0.2239 -0.5,0.5c0,0.2761 0.2239,0.5 0.5,0.5h0.5v0.5c0,0.2761 0.2239,0.5 0.5,0.5c0.2761,0 0.5,-0.2239 0.5,-0.5v-0.5h0.5c0.2761,0 0.5,-0.2239 0.5,-0.5c0,-0.2761 -0.2239,-0.5 -0.5,-0.5h-0.5v-0.5c0,-0.2761 -0.2239,-0.5 -0.5,-0.5z" fill="#212121"/>
</svg>
