<svg width="20" height="20" viewBox="0 0 20 20" fill="none" xmlns="http://www.w3.org/2000/svg">
<path d="M13,2c1.1046,0 2,0.8954 2,2v10c0,1.1046 -0.8954,2 -2,2h-7c-1.1046,0 -2,-0.8954 -2,-2v-10c0,-0.069 0.0035,-0.1373 0.0103,-0.2045c0.1024,-1.0085 0.9542,-1.7955 1.9897,-1.7955zM14,4c0,-0.5523 -0.4477,-1 -1,-1h-7c-0.5149,0 -0.9389,0.3892 -0.9939,0.8894c-0.004,0.0363 -0.0061,0.0732 -0.0061,0.1106v10c0,0.5523 0.4477,1 1,1h7c0.5523,0 1,-0.4477 1,-1zM7.5,6c-0.276,0 -0.5,-0.224 -0.5,-0.5c0,-0.276 0.224,-0.5 0.5,-0.5h4c0.276,0 0.5,0.224 0.5,0.5c0,0.276 -0.224,0.5 -0.5,0.5zM7.5,9.5c-0.276,0 -0.5,-0.224 -0.5,-0.5c0,-0.276 0.224,-0.5 0.5,-0.5h4c0.276,0 0.5,0.224 0.5,0.5c0,0.276 -0.224,0.5 -0.5,0.5zM7.5,13c-0.276,0 -0.5,-0.224 -0.5,-0.5c0,-0.276 0.224,-0.5 0.5,-0.5h4c0.276,0 0.5,0.224 0.5,0.5c0,0.276 -0.224,0.5 -0.5,0.5zM16,14v-10c0.5519,0 1,0.4481 1,1v9.0606c0,2.1757 -1.7637,3.9394 -3.9394,3.9394h-6.0606c-0.5523,0 -1,-0.4477 -1,-1h7c1.6569,0 3,-1.3431 3,-3z" fill="#212121"/>
</svg>
