<svg width="20" height="20" viewBox="0 0 20 20" fill="none" xmlns="http://www.w3.org/2000/svg">
<path d="M9.146,2.646C9.342,2.451 9.658,2.451 9.854,2.646L11.354,4.146C11.549,4.342 11.549,4.658 11.354,4.854L9.854,6.354C9.658,6.549 9.342,6.549 9.146,6.354C8.951,6.158 8.951,5.842 9.146,5.646L9.788,5.004C7.125,5.115 5,7.309 5,10C5,11.568 5.721,12.967 6.852,13.885C7.066,14.059 7.099,14.374 6.925,14.588C6.751,14.802 6.436,14.835 6.222,14.661C4.867,13.562 4,11.882 4,10C4,6.754 6.577,4.111 9.796,4.003L9.146,3.354C8.951,3.158 8.951,2.842 9.146,2.646ZM13.075,5.412C13.249,5.198 13.564,5.165 13.778,5.339C15.133,6.438 16,8.118 16,10C16,13.246 13.423,15.889 10.204,15.997L10.854,16.646C11.049,16.842 11.049,17.158 10.854,17.354C10.658,17.549 10.342,17.549 10.146,17.354L8.646,15.854C8.553,15.76 8.5,15.633 8.5,15.5C8.5,15.367 8.553,15.24 8.646,15.146L10.146,13.646C10.342,13.451 10.658,13.451 10.854,13.646C11.049,13.842 11.049,14.158 10.854,14.354L10.211,14.996C12.875,14.885 15,12.691 15,10C15,8.432 14.279,7.033 13.148,6.115C12.934,5.941 12.901,5.626 13.075,5.412Z" fill="#212121"/>
</svg>
