<svg width="20" height="20" viewBox="0 0 20 20" fill="none" xmlns="http://www.w3.org/2000/svg">
<path d="M15.0752,9.3496c-0.5044,0-0.981,0.0918-1.4175,0.2734C13.6049,9.645,13.5526,9.6552,13.5,9.6718V9.6123c0-1.0508,0.584-1.9951,1.5234-2.4648c0.2471-0.124,0.3472-0.4238,0.2236-0.6709c-0.124-0.2461-0.4233-0.3467-0.6709-0.2236c-0.6644,0.3323-1.1942,0.8408-1.5541,1.451c-0.5561-0.8986-1.5427-1.5037-2.6749-1.5037H9.8501c-0.2764,0-0.5,0.2236-0.5,0.5v0.4971c0,0.8792,0.3635,1.6736,0.9459,2.2458C9.1945,9.7264,8,10.7344,8,12.6211c0,2.25,1.3862,4.0986,1.9824,4.7891C10.3052,17.7852,10.7935,18,11.3213,18h0.0366c0.5264,0,1.0303-0.2246,1.3833-0.6162l0.0796-0.0879c0.0264-0.0293,0.0547-0.0557,0.083-0.0771c0.0552-0.041,0.1377-0.0391,0.1899-0.002c0.0308,0.0234,0.0591,0.0498,0.0879,0.082l0.0776,0.0859C13.6118,17.7754,14.1157,18,14.6787,18c0.5278,0,1.0161-0.2148,1.3389-0.5889c0.5962-0.6914,1.9824-2.54,1.9824-4.79C18,10.3643,16.2896,9.3496,15.0752,9.3496z M12.5,9.3496c-1.1846-0.001-2.1484-0.9648-2.1499-2.1494C11.5352,7.2021,12.4985,8.165,12.5,9.3496z M15.2607,16.7578c-0.2544,0.293-0.9058,0.3477-1.2617-0.0459l-0.0786-0.0879c-0.0674-0.0742-0.1416-0.1416-0.2236-0.2041c-0.2051-0.1543-0.4502-0.2314-0.6958-0.2314c-0.2466,0-0.4937,0.0781-0.7002,0.2334c-0.0796,0.0605-0.1538,0.1279-0.2227,0.2051l-0.0806,0.0879C11.8345,16.8965,11.6016,17,11.3579,17h-0.0366c-0.2402,0-0.4468-0.0859-0.582-0.2432C10.2163,16.1514,9,14.5352,9,12.6211c0-1.6553,1.1807-2.2715,1.9248-2.2715c0.3721,0,0.7192,0.0664,1.0317,0.1953c0.291,0.1221,0.6357,0.2529,1.0449,0.2549c0.436-0.001,0.8154-0.1602,1.041-0.2539c0.3135-0.1299,0.6606-0.1963,1.0327-0.1963c0.7441,0,1.9248,0.6162,1.9248,2.2715C17,14.5352,15.7837,16.1514,15.2607,16.7578zM7.4359,15H5c-0.5523,0-1-0.4477-1-1v-1h0.5C4.7761,13,5,12.7761,5,12.5S4.7761,12,4.5,12H4V9.5h0.5C4.7761,9.5,5,9.2761,5,9S4.7761,8.5,4.5,8.5H4V6h0.5C4.7761,6,5,5.7761,5,5.5S4.7761,5,4.5,5H4V4c0-0.5523,0.4477-1,1-1h6.5c0.5523,0,1,0.4477,1,1v1.815c0.1689,0.1039,0.335,0.2131,0.4883,0.3412c0.1599-0.1515,0.3318-0.2897,0.5117-0.4175V4c0-1.1046-0.8954-2-2-2H5C3.8954,2,3,2.8954,3,4v1H2.5C2.2239,5,2,5.2239,2,5.5S2.2239,6,2.5,6H3v2.5H2.5C2.2239,8.5,2,8.7239,2,9s0.2239,0.5,0.5,0.5H3V12H2.5C2.2239,12,2,12.2239,2,12.5S2.2239,13,2.5,13H3v1c0,1.1046,0.8954,2,2,2h2.852C7.6981,15.6918,7.5609,15.3528,7.4359,15zM10.8413,11.3818c-0.6567,0.3271-1.0176,1.0342-0.897,1.7598l0.0596,0.3574c0.0405,0.2451,0.2524,0.418,0.4927,0.418c0.0273,0,0.0547-0.002,0.0825-0.0068c0.2725-0.0449,0.4565-0.3027,0.4111-0.5752l-0.0596-0.3574c-0.0479-0.2891,0.0952-0.5703,0.3569-0.7012c0.2471-0.123,0.3477-0.4229,0.2241-0.6699C11.3896,11.3604,11.0903,11.2578,10.8413,11.3818z" fill="#212121"/>
</svg>
