<svg width="20" height="20" viewBox="0 0 20 20" fill="none" xmlns="http://www.w3.org/2000/svg">
<path d="M3,8.0003v-1.8599c0,-0.5851 0.3402,-1.1167 0.8714,-1.3619l4.6619,-2.1517c0.9306,-0.4295 2.0028,-0.4295 2.9334,0l4.6619,2.1517c0.5312,0.2452 0.8714,0.7768 0.8714,1.3619v1.8599h-1v-1.8599c0,-0.195 -0.1134,-0.3722 -0.2905,-0.454l-4.6619,-2.1516c-0.6647,-0.3068 -1.4305,-0.3068 -2.0953,0l-4.6618,2.1516c-0.1771,0.0818 -0.2905,0.259 -0.2905,0.454v1.8599zM17,13.4146v0.4461c0,0.5851 -0.3402,1.1168 -0.8714,1.362l-4.6619,2.1516c-0.9306,0.4295 -2.0028,0.4295 -2.9334,0l-4.6619,-2.1516c-0.5312,-0.2452 -0.8714,-0.7769 -0.8714,-1.362v-0.4461c0.2893,-0.1023 0.5379,-0.2908 0.7149,-0.5347c0.0386,0.0245 0.0776,0.0488 0.117,0.0728c0.0553,0.0338 0.1113,0.0672 0.1681,0.1001v0.8079c0,0.1951 0.1134,0.3723 0.2905,0.454l4.6618,2.1517c0.6648,0.3068 1.4306,0.3068 2.0953,0l4.6619,-2.1517c0.1771,-0.0817 0.2905,-0.2589 0.2905,-0.454v-0.8088c0.0562,-0.0326 0.1117,-0.0657 0.1665,-0.0992c0.0398,-0.0243 0.0792,-0.0488 0.1182,-0.0735c0.177,0.2442 0.4257,0.433 0.7153,0.5354zM6.0403,6.8037c0.1088,-0.2539 0.4027,-0.3714 0.6565,-0.2627l3.3031,1.4156l3.303,-1.4156c0.2538,-0.1087 0.5478,0.0088 0.6566,0.2627c0.1087,0.2538 -0.0088,0.5477 -0.2627,0.6565l-3.1969,1.3701v2.1703c0,0.2762 -0.2239,0.5 -0.5,0.5c-0.2762,0 -0.5,-0.2238 -0.5,-0.5v-2.1703l-3.197,-1.3701c-0.2538,-0.1088 -0.3714,-0.4027 -0.2626,-0.6565zM2,12v-2.5c0,-0.1326 0.0526,-0.2598 0.1464,-0.3536c0.0938,-0.0937 0.221,-0.1464 0.3536,-0.1464h2.5c0.2761,0 0.5,0.2239 0.5,0.5c0,0.2761 -0.2239,0.5 -0.5,0.5h-0.2942c-0.2042,0 -0.9795,0 -1.2253,-0.0003l-0.0018,0.0039c0.1097,0.1551 0.2385,0.3082 0.3866,0.4582c0.1059,0.1072 0.2216,0.2128 0.3473,0.3163c0.184,0.1515 0.3893,0.2985 0.6164,0.4398c0.0151,0.0095 0.0304,0.0188 0.0457,0.0282c0.3601,0.2201 0.7637,0.4185 1.2039,0.59c1.1115,0.4329 2.4556,0.6933 3.9206,0.6933c1.4657,0 2.8104,-0.2607 3.9223,-0.694c0.4395,-0.1713 0.8426,-0.3695 1.2022,-0.5893c0.2453,-0.1499 0.4658,-0.3064 0.6621,-0.468c0.1263,-0.1039 0.2424,-0.21 0.3487,-0.3177c0.1476,-0.1496 0.276,-0.3023 0.3851,-0.4568l-0.0017,-0.0036h-1.5177c-0.2762,0 -0.5,-0.2239 -0.5,-0.5c0,-0.2761 0.2238,-0.5 0.5,-0.5h2.4999c0.1326,0 0.2597,0.0527 0.3535,0.1464c0.0938,0.0938 0.1465,0.221 0.1465,0.3536l0.0001,2.5c0,0.2761 -0.2239,0.5 -0.5,0.5c-0.2762,0 -0.5,-0.2239 -0.5,-0.5c0,0 -0.0001,-0.8053 -0.0002,-0.9789l-0.0069,-0.0146c-0.227,0.2503 -0.4888,0.4871 -0.7813,0.7081c-0.1777,0.1343 -0.3669,0.2628 -0.5667,0.3848c-1.4449,0.883 -3.4409,1.43 -5.6459,1.43c-2.205,0 -4.201,-0.547 -5.6459,-1.43c-0.1992,-0.1217 -0.3879,-0.2498 -0.5653,-0.3837c-0.2923,-0.2207 -0.5538,-0.4572 -0.781,-0.7074l-0.007,0.0149v0.9768c0,0.2761 -0.2239,0.5 -0.5,0.5c-0.2761,0 -0.5,-0.2239 -0.5,-0.5z" fill="#212121"/>
</svg>
