<svg width="20" height="20" viewBox="0 0 20 20" fill="none" xmlns="http://www.w3.org/2000/svg">
<path d="M12.5,2.5c0,-0.2761 -0.2239,-0.5 -0.5,-0.5c-0.2761,0 -0.5,0.2239 -0.5,0.5v1.5628c-0.734,0.1345 -1.4361,0.4855 -2.0036,1.053l-0.3367,0.3368l-1.3061,-1.3062c-0.1953,-0.1952 -0.5119,-0.1952 -0.7072,0c-0.1952,0.1953 -0.1952,0.5119 0.0001,0.7071l1.3061,1.3062l-2.2929,2.2929l-1.3062,-1.3062c-0.1952,-0.1952 -0.5118,-0.1952 -0.7071,0c-0.1952,0.1953 -0.1952,0.5119 0,0.7071l1.3062,1.3062l-0.3375,0.3374c-0.5673,0.5674 -0.9183,1.2692 -1.0528,2.0029h-1.5623c-0.2761,0 -0.5,0.2239 -0.5,0.5c0,0.2761 0.2239,0.5 0.5,0.5h1.512c0.0578,0.7128 0.3155,1.4124 0.7731,2.0078l-1.6416,1.6416c-0.1953,0.1952 -0.1953,0.5118 0,0.7071c0.1953,0.1952 0.5119,0.1952 0.7071,0l1.6417,-1.6417c0.5955,0.4572 1.295,0.7146 2.0077,0.7722v1.513c0,0.2761 0.2239,0.5 0.5,0.5c0.2761,0 0.5,-0.2239 0.5,-0.5v-1.5635c0.7333,-0.1347 1.4347,-0.4856 2.0018,-1.0527l0.3375,-0.3374l1.3071,1.3072c0.1953,0.1952 0.5119,0.1952 0.7072,0c0.1952,-0.1953 0.1952,-0.5119 0,-0.7072l-1.3072,-1.3071l2.2929,-2.2929l1.3071,1.3072c0.1953,0.1952 0.5119,0.1952 0.7072,0c0.1952,-0.1953 0.1952,-0.5119 0,-0.7072l-1.3072,-1.3071l0.3367,-0.3368c0.5673,-0.5672 0.9182,-1.2689 1.0528,-2.0025h1.5641c0.2761,0 0.5,-0.2239 0.5,-0.5c0,-0.2761 -0.2239,-0.5 -0.5,-0.5h-1.5138c-0.0577,-0.7124 -0.315,-1.4118 -0.7721,-2.007l1.6395,-1.6395c0.1952,-0.1952 0.1952,-0.5118 0,-0.7071c-0.1953,-0.1952 -0.5119,-0.1952 -0.7072,0l-1.6393,1.6393c-0.5952,-0.4574 -1.2945,-0.715 -2.0071,-0.7729zM5,12.2422v-0.1036c0.0129,-0.7015 0.2869,-1.3991 0.8223,-1.9344l4.3812,-4.3813c1.097,-1.0969 2.8755,-1.0969 3.9725,0c1.097,1.097 1.097,2.8755 0,3.9725l-4.3813,4.3813c-1.0969,1.0969 -2.8755,1.0969 -3.9724,0c-0.5354,-0.5353 -0.8094,-1.2329 -0.8223,-1.9345zM7.75,13c0.4142,0 0.75,-0.3358 0.75,-0.75c0,-0.4142 -0.3358,-0.75 -0.75,-0.75c-0.4142,0 -0.75,0.3358 -0.75,0.75c0,0.4142 0.3358,0.75 0.75,0.75zM13,7.75c0,0.4142 -0.3358,0.75 -0.75,0.75c-0.4142,0 -0.75,-0.3358 -0.75,-0.75c0,-0.4142 0.3358,-0.75 0.75,-0.75c0.4142,0 0.75,0.3358 0.75,0.75z" fill="#212121"/>
</svg>
