<svg width="20" height="20" viewBox="0 0 20 20" fill="none" xmlns="http://www.w3.org/2000/svg">
<path d="M9.75,5.5c0.4142,0 0.75,0.3358 0.75,0.75v5.6893l2.4697,-2.4696c0.2929,-0.2929 0.7677,-0.2929 1.0606,0c0.2929,0.2929 0.2929,0.7677 0,1.0606l-3.75,3.75c-0.2929,0.2929 -0.7677,0.2929 -1.0606,0l-3.75,-3.75c-0.2929,-0.2929 -0.2929,-0.7677 0,-1.0606c0.2929,-0.2929 0.7677,-0.2929 1.0606,0l2.4697,2.4696v-5.6893c0,-0.4142 0.3358,-0.75 0.75,-0.75zM16,2.75c0,-0.4142 -0.3358,-0.75 -0.75,-0.75c-0.4142,0 -0.75,0.3358 -0.75,0.75c0,0.1381 -0.1119,0.25 -0.25,0.25h-9c-0.1381,0 -0.25,-0.1119 -0.25,-0.25c0,-0.4142 -0.3358,-0.75 -0.75,-0.75c-0.4142,0 -0.75,0.3358 -0.75,0.75c0,0.9665 0.7835,1.75 1.75,1.75h9c0.9665,0 1.75,-0.7835 1.75,-1.75zM16,17.25c0,0.4142 -0.3358,0.75 -0.75,0.75c-0.4142,0 -0.75,-0.3358 -0.75,-0.75c0,-0.1381 -0.1119,-0.25 -0.25,-0.25h-9c-0.1381,0 -0.25,0.1119 -0.25,0.25c0,0.4142 -0.3358,0.75 -0.75,0.75c-0.4142,0 -0.75,-0.3358 -0.75,-0.75c0,-0.9665 0.7835,-1.75 1.75,-1.75h9c0.9665,0 1.75,0.7835 1.75,1.75z" fill="#212121"/>
</svg>
