<svg width="20" height="20" viewBox="0 0 20 20" fill="none" xmlns="http://www.w3.org/2000/svg">
<path d="M12.2795,11h4.2139c0.7994,0 1.4474,0.648 1.4474,1.4474c0,0.0019 0,0.0038 0,0.0057c0,0 -0.0017,1.03 -0.8262,1.8546c-0.5492,0.5491 -1.4641,1.0081 -2.9896,1.0081c-0.6948,0 -1.2627,-0.0952 -1.7272,-0.2507c0.1777,-0.3231 0.3029,-0.639 0.3912,-0.9245c0.3638,0.1119 0.8044,0.1752 1.336,0.1752c1.1565,0 1.8661,-0.2989 2.2824,-0.7152c0.5016,-0.5016 0.5319,-1.1179 0.5334,-1.157c-0.002,-0.2453 -0.2016,-0.4436 -0.4474,-0.4436h-3.6416c-0.1235,-0.3722 -0.3199,-0.7112 -0.5723,-1zM2,12.921c0,-1.0609 0.8601,-1.921 1.9211,-1.921h6.1578c1.061,0 1.9211,0.8601 1.9211,1.9211v0.0035c0,0 -0.0009,1.3723 -1.0819,2.4705c-0.7197,0.7312 -1.9188,1.3417 -3.9181,1.3417c-1.9993,0 -3.1984,-0.6105 -3.9181,-1.3417c-1.0795,-1.0966 -1.0819,-2.4666 -1.0819,-2.4705zM3,12.9184c0.0007,0.0346 0.0288,0.9972 0.7945,1.7752c0.5859,0.5951 1.5782,1.0432 3.2055,1.0432c1.6273,0 2.6196,-0.4481 3.2055,-1.0432c0.7658,-0.778 0.7937,-1.7408 0.7945,-1.7752c-0.0014,-0.5075 -0.4132,-0.9184 -0.9211,-0.9184h-6.1578c-0.5078,0 -0.9197,0.4109 -0.9211,0.9184zM7,10c-1.7259,0 -3.125,-1.3991 -3.125,-3.125c0,-1.7259 1.3991,-3.125 3.125,-3.125c1.7259,0 3.125,1.3991 3.125,3.125c0,1.7259 -1.3991,3.125 -3.125,3.125zM7,9c1.1736,0 2.125,-0.9514 2.125,-2.125c0,-1.1736 -0.9514,-2.125 -2.125,-2.125c-1.1736,0 -2.125,0.9514 -2.125,2.125c0,1.1736 0.9514,2.125 2.125,2.125zM16.5,7.625c0,1.3117 -1.0633,2.375 -2.375,2.375c-1.3117,0 -2.375,-1.0633 -2.375,-2.375c0,-1.3117 1.0633,-2.375 2.375,-2.375c1.3117,0 2.375,1.0633 2.375,2.375zM15.5,7.625c0,-0.7594 -0.6156,-1.375 -1.375,-1.375c-0.7594,0 -1.375,0.6156 -1.375,1.375c0,0.7594 0.6156,1.375 1.375,1.375c0.7594,0 1.375,-0.6156 1.375,-1.375z" fill="#212121"/>
</svg>
