<svg width="20" height="20" viewBox="0 0 20 20" fill="none" xmlns="http://www.w3.org/2000/svg">
<path d="M2.2821,8.0868c-0.3237,-0.2584 -0.3767,-0.7303 -0.1184,-1.0541c1.2159,-1.5235 3.352,-3.5017 6.1144,-4.1025c2.4747,-0.5382 5.2976,0.0597 8.2219,2.7367v-2.1664c0,-0.4142 0.3357,-0.75 0.75,-0.75c0.4142,0 0.75,0.3358 0.75,0.75v4c0,0.4142 -0.3358,0.75 -0.75,0.75h-4.5c-0.4143,0 -0.75,-0.3358 -0.75,-0.75c0,-0.4142 0.3357,-0.75 0.75,-0.75h2.7132c-2.6173,-2.3878 -4.9605,-2.769 -6.8664,-2.3545c-2.2793,0.4957 -4.1432,2.1722 -5.2607,3.5724c-0.2583,0.3237 -0.7302,0.3767 -1.054,0.1184zM13.5,10.7505c0.9665,0 1.75,0.7835 1.75,1.75v3c0,0.9665 -0.7835,1.75 -1.75,1.75h-7c-0.9665,0 -1.75,-0.7835 -1.75,-1.75v-3c0,-0.9665 0.7835,-1.75 1.75,-1.75zM6.25,15.5005c0,0.1381 0.1119,0.25 0.25,0.25h7c0.1381,0 0.25,-0.1119 0.25,-0.25v-3c0,-0.1381 -0.1119,-0.25 -0.25,-0.25h-7c-0.1381,0 -0.25,0.1119 -0.25,0.25z" fill="#212121"/>
</svg>
