<svg width="20" height="20" viewBox="0 0 20 20" fill="none" xmlns="http://www.w3.org/2000/svg">
<path d="M9,4c-0.2761,0 -0.5,0.2239 -0.5,0.5c0,0.2761 0.2239,0.5 0.5,0.5h2c0.2761,0 0.5,-0.2239 0.5,-0.5c0,-0.2761 -0.2239,-0.5 -0.5,-0.5zM3.5,5.5c0,-1.933 1.567,-3.5 3.5,-3.5h6c1.933,0 3.5,1.567 3.5,3.5v2.5h1c0.2761,0 0.5,0.2239 0.5,0.5c0,0.2761 -0.2239,0.5 -0.5,0.5h-1v7.5c0,0.8284 -0.6716,1.5 -1.5,1.5h-1c-0.8284,0 -1.5,-0.6716 -1.5,-1.5v-0.5h-5v0.5c0,0.8284 -0.6716,1.5 -1.5,1.5h-1c-0.8284,0 -1.5,-0.6716 -1.5,-1.5v-7.5h-1c-0.2761,0 -0.5,-0.2239 -0.5,-0.5c0,-0.2761 0.2239,-0.5 0.5,-0.5h1zM15.5,5.5c0,-1.3807 -1.1193,-2.5 -2.5,-2.5h-6c-1.3807,0 -2.5,1.1193 -2.5,2.5v4.5h11zM13.5,16v0.5c0,0.2761 0.2239,0.5 0.5,0.5h1c0.2761,0 0.5,-0.2239 0.5,-0.5v-0.5zM4.5,16v0.5c0,0.2761 0.2239,0.5 0.5,0.5h1c0.2761,0 0.5,-0.2239 0.5,-0.5v-0.5zM8,13c0,-0.5523 -0.4477,-1 -1,-1c-0.5523,0 -1,0.4477 -1,1c0,0.5523 0.4477,1 1,1c0.5523,0 1,-0.4477 1,-1zM13,14c0.5523,0 1,-0.4477 1,-1c0,-0.5523 -0.4477,-1 -1,-1c-0.5523,0 -1,0.4477 -1,1c0,0.5523 0.4477,1 1,1z" fill="#212121"/>
</svg>
