<svg width="20" height="20" viewBox="0 0 20 20" fill="none" xmlns="http://www.w3.org/2000/svg">
<path d="M12.8536,17.3535c0.2185,-0.2186 0.5203,-0.3535 0.8535,-0.3535h1.3784c0.2061,0.5824 0.7619,1 1.4145,1c0.8279,0 1.5,-0.6721 1.5,-1.5c0,-0.8279 -0.6721,-1.5 -1.5,-1.5c-0.6526,0 -1.2084,0.4176 -1.4145,1h-1.3784c-0.6092,0 -1.1612,0.2468 -1.5607,0.6465c-0.2185,0.2186 -0.5203,0.3535 -0.8535,0.3535l-1.9288,0.0001l8.1969,-8.1968c0.5858,-0.5858 0.5858,-1.5355 0,-2.1213l-4.2426,-4.2427c-0.5858,-0.5858 -1.5356,-0.5858 -2.1214,0l-8.7596,8.7597c-0.5858,0.5858 -0.5858,1.5355 0,2.1213l4.2426,4.2426c0.313,0.3131 0.73,0.4588 1.1397,0.4373l3.4732,-0.0002c0.6092,0 1.1612,-0.2468 1.5607,-0.6465zM4.8313,10.2192l4.9498,4.9498l-1.6869,1.6868c-0.1952,0.1953 -0.5118,0.1953 -0.7071,0l-4.2426,-4.2426c-0.1953,-0.1953 -0.1953,-0.5118 0,-0.7071l1.6869,-1.6869z" fill="#212121"/>
</svg>
