<svg width="20" height="20" viewBox="0 0 20 20" fill="none" xmlns="http://www.w3.org/2000/svg">
<path d="M8,7c-0.2761,0 -0.5,0.2239 -0.5,0.5c0,0.2761 0.2239,0.5 0.5,0.5h4c0.2761,0 0.5,-0.2239 0.5,-0.5c0,-0.2761 -0.2239,-0.5 -0.5,-0.5zM6.5,9.5c0,-0.2761 0.2239,-0.5 0.5,-0.5h6c0.2761,0 0.5,0.2239 0.5,0.5c0,0.2761 -0.2239,0.5 -0.5,0.5h-6c-0.2761,0 -0.5,-0.2239 -0.5,-0.5zM8,11c-0.2761,0 -0.5,0.2239 -0.5,0.5c0,0.2761 0.2239,0.5 0.5,0.5h4c0.2761,0 0.5,-0.2239 0.5,-0.5c0,-0.2761 -0.2239,-0.5 -0.5,-0.5zM3.5,2c-0.8284,0 -1.5,0.6716 -1.5,1.5c0,0.6531 0.4174,1.2087 1,1.4147v7.0853c0,1.6569 1.3432,3 3,3h3.5v2h-3c-0.2761,0 -0.5,0.2239 -0.5,0.5c0,0.2761 0.2239,0.5 0.5,0.5h7c0.2761,0 0.5,-0.2239 0.5,-0.5c0,-0.2761 -0.2239,-0.5 -0.5,-0.5h-3v-2h3.5c1.6569,0 3,-1.3431 3,-3v-7.0854c0.5826,-0.2059 1,-0.7615 1,-1.4146c0,-0.8284 -0.6716,-1.5 -1.5,-1.5zM4,12v-7h12v7c0,1.1046 -0.8954,2 -2,2h-8c-1.1046,0 -2,-0.8954 -2,-2z" fill="#212121"/>
</svg>
