<svg width="20" height="20" viewBox="0 0 20 20" fill="none" xmlns="http://www.w3.org/2000/svg">
<path d="M4,16c-1.1046,0 -2,-0.8954 -2,-2v-8c0,-1.1046 0.8954,-2 2,-2h0.625c1.1046,0 2,0.8954 2,2v8c0,1.1046 -0.8954,2 -2,2zM3,14c0,0.5523 0.4477,1 1,1h0.625c0.5523,0 1,-0.4477 1,-1v-8c0,-0.5523 -0.4477,-1 -1,-1h-0.625c-0.5523,0 -1,0.4477 -1,1zM9.6875,16c-1.1046,0 -2,-0.8954 -2,-2v-8c0,-1.1046 0.8954,-2 2,-2h0.625c1.1046,0 2,0.8954 2,2v8c0,1.1046 -0.8954,2 -2,2zM8.6875,14c0,0.5523 0.4477,1 1,1h0.625c0.5523,0 1,-0.4477 1,-1v-8c0,-0.5523 -0.4477,-1 -1,-1h-0.625c-0.5523,0 -1,0.4477 -1,1zM15.375,16c-1.1046,0 -2,-0.8954 -2,-2v-8c0,-1.1046 0.8954,-2 2,-2h0.625c1.1046,0 2,0.8954 2,2v8c0,1.1046 -0.8954,2 -2,2zM14.375,14c0,0.5523 0.4477,1 1,1h0.625c0.5523,0 1,-0.4477 1,-1v-8c0,-0.5523 -0.4477,-1 -1,-1h-0.625c-0.5523,0 -1,0.4477 -1,1z" fill="#212121"/>
</svg>
