<svg width="20" height="20" viewBox="0 0 20 20" fill="none" xmlns="http://www.w3.org/2000/svg">
<path d="M2.8221,11.6646c-0.5235,-0.9369 -0.8221,-2.016 -0.8221,-3.1646c0,-3.5874 2.9126,-6.5 6.5,-6.5c3.5874,0 6.5,2.9126 6.5,6.5c0,3.5874 -2.9126,6.5 -6.5,6.5c-1.0459,0 -2.0345,-0.2477 -2.9095,-0.687l-2.3208,0.6499c-0.3638,0.1019 -0.754,-0.0099 -1.0086,-0.289c-0.2545,-0.2792 -0.3301,-0.678 -0.1952,-1.0309zM3.9317,11.5621l-0.9317,2.4379l2.7113,-0.7594c0.8179,0.4825 1.7712,0.7594 2.7887,0.7594c3.0355,0 5.5,-2.4645 5.5,-5.5c0,-3.0355 -2.4645,-5.5 -5.5,-5.5c-3.0355,0 -5.5,2.4645 -5.5,5.5c0,1.1331 0.3434,2.1866 0.9317,3.0621zM15.7532,6.5862c1.3759,1.1922 2.2468,2.9521 2.2468,4.9138c0,1.1486 -0.2987,2.228 -0.8221,3.1644l0.7562,1.9786c0.1349,0.3529 0.0594,0.7517 -0.1952,1.0308c-0.2546,0.2792 -0.6448,0.391 -1.0086,0.2891l-2.3203,-0.6502c-0.8759,0.4397 -1.864,0.6873 -2.91,0.6873c-1.9618,0 -3.7218,-0.871 -4.914,-2.247c0.5603,0.1477 1.1464,0.2323 1.7501,0.2452c0.8951,0.6311 1.9865,1.0018 3.1639,1.0018c1.0175,0 1.9708,-0.2769 2.7887,-0.7594l2.7113,0.7594l-0.9317,-2.4378c0.5883,-0.8755 0.9317,-1.9291 0.9317,-3.0622c0,-1.1774 -0.3707,-2.2688 -1.0018,-3.1639c-0.0129,-0.6035 -0.0973,-1.1895 -0.245,-1.7499z" fill="#212121"/>
</svg>
