<svg width="20" height="20" viewBox="0 0 20 20" fill="none" xmlns="http://www.w3.org/2000/svg">
<path d="M9.5,6c-1.4737,0 -2.7347,0.9108 -3.2507,2.2003c-0.1608,0.4018 -0.2493,0.8404 -0.2493,1.2997c0,1.933 1.567,3.5 3.5,3.5h6.7929l-1.1465,-1.1464c-0.1952,-0.1953 -0.1952,-0.5119 0,-0.7072c0.1953,-0.1952 0.5119,-0.1952 0.7072,0l2,2c0.1952,0.1953 0.1952,0.5119 0,0.7072l-2,2c-0.1953,0.1952 -0.5119,0.1952 -0.7072,0c-0.1952,-0.1953 -0.1952,-0.5119 0,-0.7072l1.1465,-1.1464h-6.7929c-2.4853,0 -4.5,-2.0147 -4.5,-4.5c0,-0.5181 0.0876,-1.0158 0.2487,-1.479c0.6118,-1.7588 2.2841,-3.021 4.2513,-3.021c2.4853,0 4.5,2.0147 4.5,4.5c0,0.9251 -0.2791,1.785 -0.7578,2.5h-1.2927c0.6483,-0.6353 1.0505,-1.5207 1.0505,-2.5c0,-1.933 -1.567,-3.5 -3.5,-3.5zM2.5,13h2.7572c0.3133,0.3794 0.6766,0.7161 1.0797,1h-3.8369c-0.2761,0 -0.5,-0.2239 -0.5,-0.5c0,-0.2761 0.2239,-0.5 0.5,-0.5z" fill="#212121"/>
</svg>
