<svg width="20" height="20" viewBox="0 0 20 20" fill="none" xmlns="http://www.w3.org/2000/svg">
<path d="M3,12h-0.5c-0.276,0 -0.5,-0.224 -0.5,-0.5v-2.5c0,-0.276 0.224,-0.5 0.5,-0.5h0.5c0,-1.6569 1.3432,-3 3,-3h2.25v-1.25c0,-0.276 0.224,-0.5 0.5,-0.5h2.5c0.276,0 0.5,0.224 0.5,0.5v1.25h2.25c1.6568,0 3,1.3431 3,3h0.5c0.276,0 0.5,0.224 0.5,0.5v2.5c0,0.276 -0.224,0.5 -0.5,0.5h-0.5v1.5c0,1.6569 -1.3431,3 -3,3h-0.9645c-0.7956,0 -1.5587,-0.3161 -2.1213,-0.8787l-0.5607,-0.5607c-0.1952,-0.1952 -0.5118,-0.1952 -0.7071,0.0001l-0.5606,0.5606c-0.5626,0.5626 -1.3257,0.8787 -2.1213,0.8787h-0.9645c-1.6569,0 -3,-1.3431 -3,-3zM14,6.5h-8c-1.1046,0 -2,0.8954 -2,2v5.0001c0,1.1045 0.8954,1.9999 2,1.9999h0.9645c0.5304,0 1.0391,-0.2107 1.4142,-0.5858l0.5606,-0.5607c0.5858,-0.5857 1.5356,-0.5857 2.1214,0l0.5607,0.5607c0.375,0.3751 0.8837,0.5858 1.4142,0.5858h0.9644c1.1046,0 2,-0.8954 2,-2v-5.0001c0,-1.1045 -0.8954,-1.9999 -2,-1.9999zM6,11c-0.276,0 -0.5,-0.224 -0.5,-0.5c0,-0.276 0.224,-0.5 0.5,-0.5h1.75c0.276,0 0.5,0.224 0.5,0.5c0,0.276 -0.224,0.5 -0.5,0.5zM10,7.5c0.4139,0 0.75,0.3361 0.75,0.75c0,0.4139 -0.3361,0.75 -0.75,0.75c-0.4139,0 -0.75,-0.3361 -0.75,-0.75c0,-0.4139 0.3361,-0.75 0.75,-0.75zM12.25,11c-0.276,0 -0.5,-0.224 -0.5,-0.5c0,-0.276 0.224,-0.5 0.5,-0.5h1.75c0.276,0 0.5,0.224 0.5,0.5c0,0.276 -0.224,0.5 -0.5,0.5z" fill="#212121"/>
</svg>
