<svg width="20" height="20" viewBox="0 0 20 20" fill="none" xmlns="http://www.w3.org/2000/svg">
<path d="M12.7343,6.25c-0.8175,-0.7061 -1.7469,-1.509 -2.1973,-1.8985c-0.6136,-0.5305 -1.4131,-0.8515 -2.287,-0.8515c-1.9317,0 -3.5,1.5683 -3.5,3.5c0,1.0484 0.4622,1.9897 1.1934,2.6314c0.7482,0.6566 8.0508,7.0545 8.0508,7.0545c0.3114,0.2728 0.3427,0.747 0.0699,1.0583c-0.2728,0.3114 -0.747,0.3427 -1.0583,0.0699c0,0 -7.3035,-6.3986 -8.0518,-7.0552c-1.0445,-0.9167 -1.704,-2.2614 -1.704,-3.7589c0,-2.7596 2.2404,-5 5,-5c1.2488,0 2.3913,0.4588 3.268,1.2168c0.5038,0.4356 1.6068,1.3884 2.482,2.1444v-2.3612c0,-0.4139 0.3361,-0.75 0.75,-0.75c0.4139,0 0.75,0.3361 0.75,0.75v4c0,0.4142 -0.3358,0.75 -0.75,0.75h-4c-0.4139,0 -0.75,-0.3361 -0.75,-0.75c0,-0.4139 0.3361,-0.75 0.75,-0.75z" fill="#212121"/>
</svg>
