<svg width="20" height="20" viewBox="0 0 20 20" fill="none" xmlns="http://www.w3.org/2000/svg">
<path d="M9.9968,9.25c0.6993,0 1.338,0.2616 1.8234,0.6922c0.8625,-0.5846 1.4298,-1.5727 1.4298,-2.6922c0,-1.7937 -1.4563,-3.25 -3.25,-3.25c-1.7937,0 -3.25,1.4563 -3.25,3.25c0,1.1179 0.5656,2.1047 1.4261,2.6897c0.4851,-0.4291 1.1227,-0.6897 1.8207,-0.6897zM9.9968,13.75c0.9658,0 1.75,-0.7841 1.75,-1.75c0,-0.9659 -0.7842,-1.75 -1.75,-1.75c-0.6791,0 -1.2683,0.3876 -1.5584,0.9535c-1.5739,-0.6229 -2.6884,-2.1591 -2.6884,-3.9535c0,-2.3456 1.9044,-4.25 4.25,-4.25c2.2705,0 4.1277,1.7842 4.2442,4.0259c0.0143,0.2756 0.2497,0.4877 0.5253,0.4734c0.2756,-0.0143 0.4877,-0.2497 0.4733,-0.5252c-0.1438,-2.7695 -2.4378,-4.9741 -5.2428,-4.9741c-2.8976,0 -5.25,2.3524 -5.25,5.25c0,2.2872 1.4658,4.2348 3.5085,4.9538c0.1011,0.87 0.8413,1.5462 1.7383,1.5462zM12.7468,12c0,1.5178 -1.2323,2.75 -2.75,2.75c-1.1879,0 -2.2003,-0.7547 -2.5847,-1.8104c-0.7212,-0.3288 -1.3691,-0.7907 -1.9122,-1.3542c-0.5825,0.2059 -0.9999,0.7615 -0.9999,1.4146v0.5c0,2.4501 2.4374,4.5 5.5,4.5c3.0626,0 5.5,-2.0499 5.5,-4.5v-0.5c0,-0.8284 -0.6716,-1.5 -1.5,-1.5h-1.2987c0.0299,0.1622 0.0455,0.3293 0.0455,0.5z" fill="#212121"/>
</svg>
