<svg width="20" height="20" viewBox="0 0 20 20" fill="none" xmlns="http://www.w3.org/2000/svg">
<path d="M16.1328,12.7754c-0.6045-0.1914-1.0391-0.4795-1.2734-0.8252l-2.6122-4.4918c0.0208-0.0032,0.0416-0.0018,0.0624-0.0052c0.2725-0.0449,0.4561-0.3027,0.4111-0.5752c-0.0459-0.2725-0.2969-0.4604-0.5752-0.4111C9.9106,6.8364,7.8608,5.4092,7.4824,3.3501c-0.0498-0.271-0.3096-0.4512-0.582-0.4014C6.6347,2.9975,6.4601,3.2487,6.4993,3.5138C5.1478,3.9719,4.1711,4.7123,3.6016,5.7217C3.0796,6.6465,3.001,7.5903,2.9893,8.23l-0.647,0.8091c-0.2607,0.3262-0.374,0.75-0.311,1.1631c0.063,0.4126,0.2974,0.7832,0.6436,1.0166l7.5146,5.0713c0.9951,0.6689,2.1543,1.0225,3.3516,1.0225h2.0205c1.1992,0,2.2305-0.8398,2.4004-1.9541C18.1621,14.0459,17.1543,13.0996,16.1328,12.7754z M11.1124,7.4977l2.8993,4.9827c0.3828,0.5664,0.9941,0.9863,1.8184,1.248c0.3315,0.105,0.6589,0.3092,0.8812,0.584H13.541c-0.5986,0-1.1797-0.1777-1.6777-0.5117l-1.3995-0.9446l0.7355-0.4246c0.29-0.166,0.4971-0.4355,0.584-0.7578s0.043-0.6602-0.124-0.9492l-0.5-0.8672c-0.3447-0.5977-1.1118-0.8037-1.708-0.458l-2.2146,1.2787l-0.9221-0.6223l0.4814-0.278C7.085,9.6108,7.292,9.3413,7.3784,9.0186s0.042-0.6597-0.125-0.9487L5.5349,5.0941c0.3563-0.2452,0.7709-0.4539,1.251-0.6198C7.4922,6.1891,9.1626,7.3746,11.1124,7.4977z M8.1585,11.3004l1.7927-1.0347c0.1191-0.0688,0.2725-0.0273,0.3418,0.0913l0.4995,0.8667c0.0449,0.0781,0.0352,0.1533,0.0249,0.1904c-0.0098,0.0371-0.0381,0.1064-0.1167,0.1514l-1.1584,0.6689L8.1585,11.3004z M4.4727,6.2129C4.5583,6.061,4.6688,5.9236,4.7799,5.7866l1.6078,2.7838c0.0449,0.0776,0.0347,0.1523,0.0249,0.1895C6.4023,8.7974,6.374,8.8667,6.2959,8.9116L5.3923,9.4334L3.9868,8.4849l0.002-0.2197C3.9971,7.7373,4.0562,6.9507,4.4727,6.2129z M15.5615,16.3125H13.541c-0.998,0-1.9639-0.2949-2.793-0.8516l-7.5137-5.0708C3.1172,10.311,3.041,10.1909,3.02,10.0513C2.9985,9.9116,3.0352,9.7734,3.1235,9.6636l0.288-0.3602l7.8932,5.3265c0.665,0.4463,1.4375,0.6826,2.2363,0.6826h3.3942C16.7892,15.8864,16.2283,16.3125,15.5615,16.3125z" fill="#212121"/>
</svg>
