<svg width="20" height="20" viewBox="0 0 20 20" fill="none" xmlns="http://www.w3.org/2000/svg">
<path d="M2.75,5.5c0.4142,0 0.75,-0.3358 0.75,-0.75c0,-0.4142 -0.3358,-0.75 -0.75,-0.75c-0.4142,0 -0.75,0.3358 -0.75,0.75c0,0.4142 0.3358,0.75 0.75,0.75zM18,4.75c0,0.4142 -0.3358,0.75 -0.75,0.75c-0.4142,0 -0.75,-0.3358 -0.75,-0.75c0,-0.4142 0.3358,-0.75 0.75,-0.75c0.4142,0 0.75,0.3358 0.75,0.75zM10.2043,4.0437c-0.13,-0.0582 -0.2786,-0.0582 -0.4086,0l-0.0163,0.0073l-0.0412,0.0191c-0.0354,0.0164 -0.0863,0.0405 -0.1505,0.0718c-0.1285,0.0626 -0.3105,0.1542 -0.5283,0.2717c-0.4345,0.2346 -1.0171,0.5756 -1.6026,0.9994c-0.5827,0.4218 -1.1857,0.938 -1.6472,1.527c-0.4598,0.5867 -0.8096,1.2852 -0.8096,2.06c0,0.7111 0.1485,1.3875 0.416,2h-2.166v-4.5c0,-0.2761 -0.2239,-0.5 -0.5,-0.5c-0.2761,0 -0.5,0.2239 -0.5,0.5v10.5c0,0.5523 0.4477,1 1,1h13.5c0.5523,0 1,-0.4477 1,-1v-10.5c0,-0.2761 -0.2239,-0.5 -0.5,-0.5c-0.2761,0 -0.5,0.2239 -0.5,0.5v4.5h-2.166c0.2676,-0.6125 0.416,-1.2889 0.416,-2c0,-0.7748 -0.3498,-1.4733 -0.8096,-2.06c-0.4615,-0.589 -1.0645,-1.1052 -1.6472,-1.527c-0.5855,-0.4238 -1.1681,-0.7648 -1.6026,-0.9994c-0.2178,-0.1175 -0.3998,-0.2091 -0.5283,-0.2717c-0.0642,-0.0313 -0.1151,-0.0554 -0.1505,-0.0719l-0.0412,-0.019l-0.0163,-0.0074zM16.75,17.0001h-4.75v-2c0,-1.1046 -0.8954,-2 -2,-2c-1.1046,0 -2,0.8954 -2,2v2h-4.75v-5h13.5zM10,14.0001c0.5523,0 1,0.4477 1,1v2h-2v-2c0,-0.5523 0.4477,-1 1,-1zM13.4033,7.5569c0.384,0.49 0.5967,0.9754 0.5967,1.4432c0,0.7286 -0.1948,1.4117 -0.5351,2h-6.9298c-0.3403,-0.5883 -0.5351,-1.2714 -0.5351,-2c0,-0.4678 0.2127,-0.9532 0.5967,-1.4432c0.3822,-0.4878 0.9042,-0.9412 1.4465,-1.3338c0.5395,-0.3905 1.0819,-0.7085 1.4912,-0.9294c0.1896,-0.1023 0.3495,-0.1832 0.4656,-0.2402c0.1161,0.057 0.2759,0.1379 0.4656,0.2402c0.4093,0.2209 0.9517,0.5389 1.4912,0.9294c0.5423,0.3926 1.0643,0.846 1.4465,1.3338z" fill="#212121"/>
</svg>
