<svg width="20" height="20" viewBox="0 0 20 20" fill="none" xmlns="http://www.w3.org/2000/svg">
<path d="M15.6595,3.8715c0.3468,0.2259 0.4449,0.691 0.219,1.0378c-0.226,0.3468 -0.691,0.4449 -1.0379,0.2189c-3.5029,-2.2823 -6.6866,-1.7146 -8.2645,-0.9529c-0.3728,0.1799 -0.8216,0.0234 -1.0015,-0.3494c-0.18,-0.3728 -0.0234,-0.8215 0.3494,-1.0014c1.8571,-0.8965 5.6126,-1.6393 9.7355,1.047zM3.8292,4.2394c0.3459,-0.2274 0.8113,-0.1312 1.0387,0.2147c0.2274,0.3459 0.1312,0.8113 -0.2147,1.0387c-0.5434,0.3572 -1.0508,1.0365 -1.2564,1.3868c-0.2095,0.3569 -0.6695,0.4766 -1.0264,0.2671c-0.357,-0.2095 -0.4767,-0.6695 -0.2672,-1.0265c0.2805,-0.4778 0.9847,-1.3935 1.726,-1.8808zM17.9865,11.8583c0.0781,0.4065 -0.1884,0.8 -0.5949,0.8781c-0.4065,0.0782 -0.8,-0.1884 -0.8781,-0.5949c-0.9262,-4.8177 -4.4738,-6.3508 -6.2635,-6.3508c-0.4139,0 -0.75,-0.3361 -0.75,-0.75c0,-0.414 0.3361,-0.75 0.75,-0.75c2.1714,0 6.6128,1.7224 7.7365,7.5676zM7.7788,4.619c0.3891,-0.1413 0.8197,0.0599 0.961,0.449c0.1413,0.389 -0.0599,0.8196 -0.4489,0.9609c-3.9972,1.4518 -4.9145,5.2961 -4.5476,7.865c0.0586,0.4098 -0.2266,0.79 -0.6364,0.8485c-0.4098,0.0585 -0.79,-0.2266 -0.8485,-0.6364c-0.4433,-3.1036 0.6911,-7.7329 5.5204,-9.487zM14.6837,9.4178c0.2291,0.3447 0.1353,0.8106 -0.2095,1.0397c-0.3447,0.2292 -0.8106,0.1353 -1.0397,-0.2094c-0.7708,-1.1597 -1.7474,-1.8435 -2.802,-2.0146c-0.996,-0.1614 -1.9781,0.1478 -2.7608,0.7539c-1.7747,1.3742 -2.4702,4.1531 -0.9514,7.1758c0.1859,0.3699 0.0365,0.8211 -0.3334,1.0069c-0.3699,0.1859 -0.821,0.0365 -1.0069,-0.3334c-1.9176,-3.8164 -0.8673,-7.3003 1.3734,-9.0353c1.1096,-0.8592 2.5073,-1.2774 3.9192,-1.0485c1.421,0.2304 2.7724,1.1021 3.8111,2.6649zM16.48,13.786c0.4016,0.1004 0.6461,0.5079 0.5457,0.9095c-0.1004,0.4016 -0.5079,0.6461 -0.9095,0.5457c-0.0067,-0.0017 -0.0948,-0.0178 -0.2534,-0.0874c-0.039,-0.0171 -0.0914,-0.0416 -0.1553,-0.0764c-0.0829,-0.0451 -0.1894,-0.1099 -0.3101,-0.2003c-0.1875,-0.1406 -0.4096,-0.3441 -0.6217,-0.6221c-0.3547,-0.4651 -0.718,-1.174 -0.7746,-2.2144c-0.0225,-0.4134 0.2948,-0.7672 0.7082,-0.7897c0.4133,-0.0224 0.7671,0.2949 0.7896,0.7082c0.0353,0.649 0.2481,1.096 0.4694,1.3862c0.1126,0.1476 0.2291,0.2568 0.3287,0.3315c0.0497,0.0372 0.0932,0.0644 0.1274,0.083c0.0166,0.009 0.0309,0.0159 0.0409,0.0203c0.009,0.0039 0.0143,0.0058 0.0147,0.0059zM9.5,12.4999c0,-0.4139 0.3361,-0.75 0.75,-0.75c0.414,0 0.75,0.3361 0.75,0.75c0,0.8527 0.0931,1.5244 0.3507,2.1818c0.246,0.6277 0.6187,1.2122 1.09,1.8902c0.2363,0.3399 0.1521,0.8077 -0.1878,1.0439c-0.3399,0.2363 -0.8076,0.1522 -1.0439,-0.1877c-0.5469,-0.7868 -0.9694,-1.4707 -1.2549,-2.1991c-0.3225,-0.8229 -0.4541,-1.6615 -0.4541,-2.7291zM13.2031,12.1947l0.032,0.155c0.0786,0.3777 0.1647,0.7629 0.2905,1.1481c0.2489,0.7622 0.6424,1.4893 1.392,2.0426c0.333,0.2458 0.4038,0.7158 0.158,1.0488c-0.2458,0.3331 -0.7158,0.4039 -1.0488,0.158c-1.0267,-0.7578 -1.5861,-1.7397 -1.9271,-2.7838c-0.1434,-0.4391 -0.2436,-0.8776 -0.3326,-1.3055l-0.0333,-0.1611c-0.0545,-0.2651 -0.1089,-0.5441 -0.1812,-0.7775c-0.329,-1.0629 -1.536,-1.3438 -2.3005,-0.723c-0.4936,0.4009 -0.7328,1.0522 -0.7363,1.8808c-0.0047,1.1028 0.3895,2.4485 1.2258,4.0207c0.1943,0.3655 0.0554,0.82 -0.31,1.0144c-0.3655,0.1943 -0.82,0.0554 -1.0144,-0.31c-0.9817,-1.8458 -1.4069,-3.4369 -1.4014,-4.7315c0.0058,-1.3545 0.4838,-2.3835 1.2907,-3.0388c1.5523,-1.2607 4.011,-0.7145 4.679,1.4438c0.0855,0.2761 0.1531,0.6053 0.2176,0.919z" fill="#212121"/>
</svg>
