<svg width="20" height="20" viewBox="0 0 20 20" fill="none" xmlns="http://www.w3.org/2000/svg">
<path d="M12.2795,11h4.2139c0.7994,0 1.4474,0.648 1.4474,1.4474c0,0.0019 0,0.0038 0,0.0057c0,0 -0.0017,1.03 -0.8262,1.8546c-0.5492,0.5491 -1.4641,1.0081 -2.9896,1.0081c-0.6948,0 -1.2627,-0.0952 -1.7272,-0.2507c0.6097,-1.109 0.6022,-2.1333 0.6022,-2.1333c0,-0.0036 0,-0.0072 0,-0.0107c0,-0.7356 -0.2718,-1.4076 -0.7205,-1.9211zM2,12.921c0,-1.0609 0.8601,-1.921 1.9211,-1.921h6.1578c1.061,0 1.9211,0.8601 1.9211,1.9211v0.0035c0,0 -0.0009,1.3723 -1.0819,2.4705c-0.7197,0.7312 -1.9188,1.3417 -3.9181,1.3417c-1.9993,0 -3.1984,-0.6105 -3.9181,-1.3417c-1.0795,-1.0966 -1.0819,-2.4666 -1.0819,-2.4705zM7,10c-1.7259,0 -3.125,-1.3991 -3.125,-3.125c0,-1.7259 1.3991,-3.125 3.125,-3.125c1.7259,0 3.125,1.3991 3.125,3.125c0,1.7259 -1.3991,3.125 -3.125,3.125zM16.5,7.625c0,1.3117 -1.0633,2.375 -2.375,2.375c-1.3117,0 -2.375,-1.0633 -2.375,-2.375c0,-1.3117 1.0633,-2.375 2.375,-2.375c1.3117,0 2.375,1.0633 2.375,2.375z" fill="#212121"/>
</svg>
