<svg width="20" height="20" viewBox="0 0 20 20" fill="none" xmlns="http://www.w3.org/2000/svg">
<path d="M4,8.5h-0.7929c-0.4882,0 -0.9284,-0.2941 -1.1152,-0.7452c-0.1869,-0.451 -0.0836,-0.9702 0.2616,-1.3154l2.6465,-2.6465c0.1875,-0.1875 0.4419,-0.2929 0.7071,-0.2929h8.5858c0.2652,0 0.5195,0.1054 0.7071,0.2929l2.6464,2.6465c0.3453,0.3452 0.4485,0.8644 0.2617,1.3154c-0.1869,0.4511 -0.627,0.7452 -1.1152,0.7452h-0.7929v5.5c0,0.5304 -0.2107,1.0391 -0.5858,1.4142c-0.3751,0.3751 -0.8838,0.5858 -1.4142,0.5858h-8c-0.5304,0 -1.0391,-0.2107 -1.4142,-0.5858c-0.3751,-0.3751 -0.5858,-0.8838 -0.5858,-1.4142zM5,8.5v5.5c0,0.2652 0.1054,0.5196 0.2929,0.7071c0.1875,0.1875 0.4419,0.2929 0.7071,0.2929h8c0.2652,0 0.5196,-0.1054 0.7071,-0.2929c0.1875,-0.1875 0.2929,-0.4419 0.2929,-0.7071v-5.5zM7.375,12.625c-0.4833,0 -0.875,-0.3917 -0.875,-0.875c0,-0.4833 0.3917,-0.875 0.875,-0.875c0.4832,0 0.875,0.3917 0.875,0.875c0,0.4833 -0.3918,0.875 -0.875,0.875zM12.625,12.625c-0.4833,0 -0.875,-0.3917 -0.875,-0.875c0,-0.4833 0.3917,-0.875 0.875,-0.875c0.4833,0 0.875,0.3917 0.875,0.875c0,0.4833 -0.3917,0.875 -0.875,0.875zM10.8753,11.75c0,0.4833 -0.3918,0.875 -0.875,0.875c-0.4833,0 -0.875,-0.3917 -0.875,-0.875c0,-0.4833 0.3917,-0.875 0.875,-0.875c0.4832,0 0.875,0.3917 0.875,0.875zM3.2071,7.5h13.5858c0.0837,0 0.1593,-0.0505 0.1913,-0.1278c0.0321,-0.0774 0.0144,-0.1665 -0.0449,-0.2258l-2.6464,-2.6464h-8.5858l-2.6465,2.6465c-0.0592,0.0592 -0.0769,0.1483 -0.0449,0.2257c0.0321,0.0773 0.1076,0.1278 0.1914,0.1278z" fill="#212121"/>
</svg>
