<svg width="20" height="20" viewBox="0 0 20 20" fill="none" xmlns="http://www.w3.org/2000/svg">
<path d="M6,16v1c0,0.5523 -0.4477,1 -1,1c-0.5523,0 -1,-0.4477 -1,-1v-1zM16,16v1c0,0.5523 -0.4477,1 -1,1c-0.5523,0 -1,-0.4477 -1,-1v-1zM13.8604,4c1.1917,0 2.2177,0.8411 2.4514,2.0097l0.1972,0.9903h0.741c0.3797,0 0.6935,0.2822 0.7432,0.6482l0.0068,0.1018c0,0.3797 -0.2822,0.6935 -0.6482,0.7432l-0.1018,0.0068h-0.441l0.1121,0.5599c0.6234,0.182 1.0789,0.7579 1.0789,1.4401v3c0,0.8284 -0.6716,1.5 -1.5,1.5h-13c-0.8284,0 -1.5,-0.6716 -1.5,-1.5v-3c0,-0.6822 0.4555,-1.2581 1.0789,-1.4401l0.1111,-0.5599h-0.44c-0.4142,0 -0.75,-0.3358 -0.75,-0.75c0,-0.4142 0.3358,-0.75 0.75,-0.75h0.74l0.1982,-0.9903c0.2337,-1.1686 1.2597,-2.0097 2.4514,-2.0097zM5.5,11c-0.5523,0 -1,0.4477 -1,1c0,0.5523 0.4477,1 1,1c0.5523,0 1,-0.4477 1,-1c0,-0.5523 -0.4477,-1 -1,-1zM14.5,11c-0.5523,0 -1,0.4477 -1,1c0,0.5523 0.4477,1 1,1c0.5523,0 1,-0.4477 1,-1c0,-0.5523 -0.4477,-1 -1,-1zM13.8604,5h-7.7208c-0.715,0 -1.3306,0.5047 -1.4709,1.2058l-0.5588,2.7942h11.7802l-0.5588,-2.7942c-0.1403,-0.7011 -0.7559,-1.2058 -1.4709,-1.2058z" fill="#212121"/>
</svg>
