<svg width="20" height="20" viewBox="0 0 20 20" fill="none" xmlns="http://www.w3.org/2000/svg">
<path d="M2,8C2,4.686 4.686,2 8,2C11.314,2 14,4.686 14,8C14,11.314 11.314,14 8,14C6.906,14 5.88,13.707 4.996,13.195L2.658,13.974C2.482,14.033 2.288,13.989 2.154,13.861C2.02,13.733 1.968,13.541 2.019,13.363L2.731,10.872C2.265,10.019 2,9.04 2,8ZM8.5,8.5L6.5,8.5C6.224,8.5 6,8.724 6,9C6,9.276 6.224,9.5 6.5,9.5L8.5,9.5C8.776,9.5 9,9.276 9,9C9,8.724 8.776,8.5 8.5,8.5ZM6.5,6.5C6.224,6.5 6,6.724 6,7C6,7.276 6.224,7.5 6.5,7.5L9.5,7.5C9.776,7.5 10,7.276 10,7C10,6.724 9.776,6.5 9.5,6.5L6.5,6.5ZM14.929,9L16,9C17.105,9 18,9.895 18,11L18,16C18,17.105 17.105,18 16,18L9,18C7.895,18 7,17.105 7,16L7,14.929C7.327,14.976 7.661,15 8,15L8,16C8,16.552 8.448,17 9,17L16,17C16.552,17 17,16.552 17,16L17,12.809L12.724,14.947C12.583,15.018 12.417,15.018 12.276,14.947L11.018,14.318C11.378,14.145 11.722,13.943 12.045,13.714L12.5,13.941L17,11.691L17,11C17,10.448 16.552,10 16,10L14.71,10C14.807,9.676 14.88,9.342 14.929,9Z" fill="#212121"/>
</svg>
