<svg width="20" height="20" viewBox="0 0 20 20" fill="none" xmlns="http://www.w3.org/2000/svg">
<path d="M8.0363,15.5h-5.5363c-0.276,0 -0.5,-0.224 -0.5,-0.5c0,-0.276 0.224,-0.5 0.5,-0.5h4.3113c-0.2939,-0.3062 -0.5582,-0.6411 -0.7882,-1h-1.5231c-0.276,0 -0.5,-0.224 -0.5,-0.5c0,-0.276 0.224,-0.5 0.5,-0.5h0.9989c-0.3214,-0.7697 -0.4989,-1.6143 -0.4989,-2.5c0,-1.7458 0.6897,-3.3317 1.8113,-4.5h-3.3113c-0.276,0 -0.5,-0.224 -0.5,-0.5c0,-0.276 0.224,-0.5 0.5,-0.5h4.5363c1.003,-0.6334 2.1909,-1 3.4637,-1c3.5874,0 6.5,2.9126 6.5,6.5c0,3.5874 -2.9126,6.5 -6.5,6.5c-1.2728,0 -2.4607,-0.3666 -3.4637,-1zM8.876,8.0831c-0.3936,0.5375 -0.626,1.2003 -0.626,1.9169c0,0.7166 0.2324,1.3794 0.626,1.9169l0.9011,-0.9011c-0.176,-0.2978 -0.2771,-0.6451 -0.2771,-1.0158c0,-0.3707 0.1011,-0.718 0.2771,-1.0158zM9.5831,12.624c0.5375,0.3936 1.2003,0.626 1.9169,0.626c0.7166,0 1.3794,-0.2324 1.9169,-0.626l-0.9011,-0.9011c-0.2978,0.176 -0.6451,0.2771 -1.0158,0.2771c-0.3707,0 -0.718,-0.1011 -1.0158,-0.2771zM14.124,11.9169c0.3936,-0.5375 0.626,-1.2003 0.626,-1.9169c0,-0.7166 -0.2324,-1.3794 -0.626,-1.9169l-0.9011,0.9011c0.176,0.2978 0.2771,0.6451 0.2771,1.0158c0,0.3707 -0.1011,0.718 -0.2771,1.0158zM13.4169,7.376c-0.5375,-0.3936 -1.2003,-0.626 -1.9169,-0.626c-0.7166,0 -1.3794,0.2324 -1.9169,0.626l0.9011,0.9011c0.2978,-0.176 0.6451,-0.2771 1.0158,-0.2771c0.3707,0 0.718,0.1011 1.0158,0.2771zM11.5,9c-0.5519,0 -1,0.4481 -1,1c0,0.5519 0.4481,1 1,1c0.5519,0 1,-0.4481 1,-1c0,-0.5519 -0.4481,-1 -1,-1z" fill="#212121"/>
</svg>
