<svg width="20" height="20" viewBox="0 0 20 20" fill="none" xmlns="http://www.w3.org/2000/svg">
<path d="M14.6189,17h-9.2195c-1.5159,0 -1.9124,-0.6027 -2.0854,-0.8911c-0.2075,-0.3458 -0.2605,-0.754 -0.2587,-1.2554l0.0002,-0.0816c0,0 0,-5.633 0.0004,-5.6326c-1.1851,-1.1294 -1.2919,-2.6082 -0.7357,-3.8677c0.5819,-1.3178 1.8838,-2.2716 3.3097,-2.2716h6.6843l2.3348,0.0002c0.002,0 0.004,0 0.0059,0c1.6171,0.0192 3.3451,1.3846 3.3451,3.3809c0,1.1514 -0.6775,2.2149 -1.1566,2.7432c-0.0103,0.6956 0.0173,1.6112 0.0475,2.5476c0.0001,0.0027 0.0092,0.2845 0.0093,0.2874c0.0319,0.9824 0.064,1.9783 0.064,2.812c0,1.2931 -0.3578,1.6405 -0.5436,1.8037c-0.1308,0.1147 -0.3445,0.2728 -0.8046,0.3579c-0.241,0.0445 -0.5608,0.0671 -0.9971,0.0671zM14.4111,16h0.1483c0.0213,0 0.0411,0.0013 0.0595,0.0039v-0.0039c0.3567,0 0.6183,-0.0141 0.8154,-0.0505c0.1829,-0.0338 0.2746,-0.0805 0.3267,-0.1261c0.1057,-0.093 0.2032,-0.3168 0.2032,-1.0521c0,-0.8241 -0.032,-1.8085 -0.0635,-2.7795l-0.0001,-0.0052c-0.0001,-0.002 -0.0088,-0.2732 -0.0089,-0.2757l-0.0001,-0.0034c-0.034,-1.0524 -0.0638,-2.0751 -0.0438,-2.8048c0.0036,-0.1322 0.0595,-0.2577 0.1555,-0.3488c0.3549,-0.3371 0.9967,-1.2112 0.9967,-2.1728c0,-1.3499 -1.1222,-2.2897 -2.2197,-2.3748c0.7507,0.6547 1.1879,1.5093 1.1937,2.3571c0.0001,0.0192 -0.0004,0.0384 -0.0014,0.0575c-0.0553,1.032 -0.3287,1.6315 -0.6183,2.0568c-0.2145,0.3149 -0.4377,0.5318 -0.7013,0.7775c-0.0374,0.0348 -0.0758,0.0706 -0.1156,0.1088c-0.0197,0.9255 -0.0113,2.4073 -0.0033,3.5867c0.0043,0.631 0.0086,1.2549 0.0086,1.8206c0,0.4561 -0.0273,0.7747 -0.0743,1.0043c-0.017,0.0833 -0.0364,0.1577 -0.0573,0.2244zM12.3141,4h-6.6842c-1.0382,0 -1.9712,0.716 -2.3949,1.6755c-0.4137,0.937 -0.314,2.0454 0.6443,2.86c0.1118,0.095 0.1762,0.2343 0.1762,0.381v5.8548l-0.0002,0.0839c0,0.009 0,0.0178 -0.0004,0.0265l-0.0002,0.0078c-0.001,0.2778 0.0004,0.511 0.1168,0.705c0.0987,0.1644 0.3635,0.4055 1.2279,0.4055h6.9146c0.3574,0 0.6094,-0.0141 0.793,-0.0497c0.1657,-0.0321 0.2354,-0.0737 0.2704,-0.1081c0.0347,-0.034 0.0775,-0.1021 0.1114,-0.2672c0.0375,-0.1837 0.0539,-0.4388 0.0539,-0.8037c0,-0.5636 -0.0043,-1.1852 -0.0085,-1.8138c-0.0087,-1.2818 -0.0176,-2.9174 0.0087,-3.825c0.0037,-0.1276 0.056,-0.2489 0.1463,-0.3392c0.0999,-0.0998 0.1935,-0.1872 0.282,-0.2697c0.2077,-0.1935 0.3876,-0.3607 0.5566,-0.6089c0.2169,-0.3184 0.4044,-0.7724 0.4461,-1.5444l0.0001,-0.0029c-0.0052,-0.5962 -0.3482,-1.1815 -0.8847,-1.6364c-0.544,-0.4613 -1.2216,-0.7309 -1.7752,-0.731zM11.25,8v4c0,0.2761 -0.2239,0.5 -0.5,0.5h-4c-0.2761,0 -0.5,-0.2239 -0.5,-0.5v-4c0,-0.2761 0.2239,-0.5 0.5,-0.5h4c0.2761,0 0.5,0.2239 0.5,0.5zM10.25,8.5h-3v3h3z" fill="#212121"/>
</svg>
