<svg width="20" height="20" viewBox="0 0 20 20" fill="none" xmlns="http://www.w3.org/2000/svg">
<path d="M10.3201 2.11589C10.1347 1.96137 9.86533 1.96137 9.67991 2.11589L6.67991 4.61589C6.46777 4.79267 6.43911 5.10795 6.61589 5.32009C6.79267 5.53223 7.10795 5.56089 7.32009 5.38411L10 3.15085L12.6799 5.38411C12.892 5.56089 13.2073 5.53223 13.3841 5.32009C13.5609 5.10795 13.5322 4.79267 13.3201 4.61589L10.3201 2.11589ZM13.3201 15.3841L10.3201 17.8841C10.1347 18.0386 9.86533 18.0386 9.67991 17.8841L6.67991 15.3841C6.46777 15.2073 6.43911 14.892 6.61589 14.6799C6.79267 14.4678 7.10795 14.4391 7.32009 14.6159L10 16.8491L12.6799 14.6159C12.892 14.4391 13.2073 14.4678 13.3841 14.6799C13.5609 14.892 13.5322 15.2073 13.3201 15.3841ZM2.125,9.5c0,-0.7589 0.6161,-1.375 1.375,-1.375c0.7589,0 1.375,0.6161 1.375,1.375v1c0,0.7589 -0.6161,1.375 -1.375,1.375c-0.7589,0 -1.375,-0.6161 -1.375,-1.375zM3,9.5v1c0,0.2759 0.2241,0.5 0.5,0.5c0.276,0 0.5,-0.2241 0.5,-0.5v-1c0,-0.276 -0.2241,-0.5 -0.5,-0.5c-0.276,0 -0.5,0.224 -0.5,0.5zM5.625,9.5c0,-0.7589 0.6161,-1.375 1.375,-1.375c0.7589,0 1.375,0.6161 1.375,1.375v1c0,0.7589 -0.6161,1.375 -1.375,1.375c-0.7589,0 -1.375,-0.6161 -1.375,-1.375zM6.5,9.5v1c0,0.2759 0.224,0.5 0.5,0.5c0.276,0 0.5,-0.2241 0.5,-0.5v-1c0,-0.276 -0.2241,-0.5 -0.5,-0.5c-0.276,0 -0.5,0.224 -0.5,0.5zM11.625,9.5c0,-0.7589 0.6161,-1.375 1.375,-1.375c0.7589,0 1.375,0.6161 1.375,1.375v1c0,0.7589 -0.6161,1.375 -1.375,1.375c-0.7589,0 -1.375,-0.6161 -1.375,-1.375zM12.5,9.5v1c0,0.2759 0.2241,0.5 0.5,0.5c0.276,0 0.5,-0.2241 0.5,-0.5v-1c0,-0.276 -0.224,-0.5 -0.5,-0.5c-0.276,0 -0.5,0.224 -0.5,0.5zM15.125,9.5c0,-0.7589 0.6161,-1.375 1.375,-1.375c0.7589,0 1.375,0.6161 1.375,1.375v1c0,0.7589 -0.6161,1.375 -1.375,1.375c-0.7589,0 -1.375,-0.6161 -1.375,-1.375zM16,9.5v1c0,0.2759 0.224,0.5 0.5,0.5c0.276,0 0.5,-0.2241 0.5,-0.5v-1c0,-0.276 -0.2241,-0.5 -0.5,-0.5c-0.276,0 -0.5,0.224 -0.5,0.5zM10,8.125c0.4139,0 0.75,0.3361 0.75,0.75c0,0.4139 -0.3361,0.75 -0.75,0.75c-0.4139,0 -0.75,-0.3361 -0.75,-0.75c0,-0.4139 0.3361,-0.75 0.75,-0.75zM10,10.375c0.4139,0 0.75,0.336 0.75,0.75c0,0.4139 -0.3361,0.75 -0.75,0.75c-0.4139,0 -0.75,-0.3361 -0.75,-0.75c0,-0.414 0.3361,-0.75 0.75,-0.75z" fill="#212121"/>
</svg>
