<svg width="20" height="20" viewBox="0 0 20 20" fill="none" xmlns="http://www.w3.org/2000/svg">
<path d="M18,5.25c0,1.7949 -1.4551,3.25 -3.25,3.25c-1.7949,0 -3.25,-1.4551 -3.25,-3.25c0,-1.7949 1.4551,-3.25 3.25,-3.25c1.7949,0 3.25,1.4551 3.25,3.25zM9.1719,15.5947c1.9325,-0.7511 3.3796,-2.4747 3.7401,-4.5698c1.7376,0.205 3.0855,1.683 3.0855,3.4757c0,1.933 -1.567,3.5 -3.5,3.5c-1.5509,0 -2.8662,-1.0087 -3.3256,-2.4059zM12,10c0,2.7614 -2.2386,5 -5,5c-2.7614,0 -5,-2.2386 -5,-5c0,-2.7614 2.2386,-5 5,-5c2.7614,0 5,2.2386 5,5zM7.0286,7.5052c-0.092,0.2604 0.0444,0.5461 0.3048,0.6381c0.7097,0.2508 1.2731,0.8141 1.5242,1.5237c0.0921,0.2603 0.3778,0.3967 0.6381,0.3046c0.2604,-0.0922 0.3967,-0.3779 0.3046,-0.6382c-0.3518,-0.9943 -1.1392,-1.7814 -2.1337,-2.1329c-0.2603,-0.0921 -0.546,0.0444 -0.638,0.3047z" fill="#212121"/>
</svg>
