<svg width="20" height="20" viewBox="0 0 20 20" fill="none" xmlns="http://www.w3.org/2000/svg">
<path d="M10,2c0.1074,0 0.2139,0.0042 0.3192,0.0126c-1.4035,0.9965 -2.3192,2.635 -2.3192,4.4874c0,1.3168 0.4628,2.5256 1.2346,3.4725l-0.7346,0.7346v1.6929c0,0.3314 -0.2686,0.6 -0.6,0.6h-1.9v1.4c0,0.3314 -0.2686,0.6 -0.6,0.6h-2.8c-0.3314,0 -0.6,-0.2686 -0.6,-0.6v-2.8586c0,-0.1591 0.0632,-0.3117 0.1757,-0.4242l3.9865,-3.9865c-0.1056,-0.359 -0.1622,-0.7386 -0.1622,-1.1307c0,-2.2091 1.7909,-4 4,-4zM9,6.5c0,-2.4853 2.0147,-4.5 4.5,-4.5c2.4853,0 4.5,2.0147 4.5,4.5c0,1.5609 -0.7949,2.9355 -2,3.7422v1.0507l0.7828,0.7828c0.2344,0.2343 0.2344,0.6142 0,0.8486l-1.0757,1.0757l1.0675,1.0674c0.2528,0.2529 0.2297,0.6694 -0.0495,0.8928l-2.3503,1.8803c-0.2191,0.1753 -0.5305,0.1753 -0.7496,0l-2.4,-1.92c-0.1423,-0.1139 -0.2252,-0.2863 -0.2252,-0.4686v-5.2097c-1.2051,-0.8067 -2,-2.1813 -2,-3.7422zM14.25,5.5c0,-0.4142 -0.3358,-0.75 -0.75,-0.75c-0.4142,0 -0.75,0.3358 -0.75,0.75c0,0.4142 0.3358,0.75 0.75,0.75c0.4142,0 0.75,-0.3358 0.75,-0.75z" fill="#212121"/>
</svg>
