<svg width="20" height="20" viewBox="0 0 20 20" fill="none" xmlns="http://www.w3.org/2000/svg">
<path d="M5.418,6.126C4.534,7.171 4,8.523 4,10C4,11.853 4.841,13.51 6.159,14.61C6.477,14.875 6.95,14.832 7.215,14.514C7.481,14.196 7.438,13.723 7.12,13.458C6.129,12.631 5.5,11.389 5.5,10C5.5,8.937 5.868,7.961 6.484,7.191L12.809,13.516C12.187,14.014 11.429,14.35 10.6,14.46L11.03,14.03C11.323,13.737 11.323,13.263 11.03,12.97C10.737,12.677 10.263,12.677 9.97,12.97L8.22,14.72C8.079,14.86 8,15.051 8,15.25C8,15.449 8.079,15.64 8.22,15.78L9.97,17.53C10.263,17.823 10.737,17.823 11.03,17.53C11.323,17.237 11.323,16.763 11.03,16.47L10.537,15.976C11.804,15.864 12.957,15.358 13.874,14.582L17.146,17.854C17.342,18.049 17.658,18.049 17.854,17.854C18.049,17.658 18.049,17.342 17.854,17.146L2.854,2.146C2.658,1.951 2.342,1.951 2.146,2.146C1.951,2.342 1.951,2.658 2.146,2.854L5.418,6.126ZM8.97,5.97C8.787,6.152 8.718,6.406 8.764,6.642L9.358,7.236C9.594,7.282 9.848,7.213 10.03,7.03L11.78,5.28C12.073,4.987 12.073,4.513 11.78,4.22L10.03,2.47C9.737,2.177 9.263,2.177 8.97,2.47C8.677,2.763 8.677,3.237 8.97,3.53L9.463,4.024C8.552,4.104 7.7,4.389 6.952,4.831L8.06,5.939C8.475,5.74 8.926,5.603 9.4,5.54L8.97,5.97ZM14.061,11.94L15.169,13.048C15.697,12.155 16,11.113 16,10C16,8.147 15.159,6.49 13.841,5.39C13.523,5.125 13.05,5.168 12.785,5.486C12.519,5.804 12.562,6.277 12.88,6.542C13.871,7.369 14.5,8.611 14.5,10C14.5,10.695 14.343,11.353 14.061,11.94Z" fill="#212121"/>
</svg>
