<svg width="20" height="20" viewBox="0 0 20 20" fill="none" xmlns="http://www.w3.org/2000/svg">
<path d="M6.8082,16.5707l-1.669,0.7864c-0.5562,0.2618 -1.2404,0.163 -1.6999,-0.2964l-1,-1c-0.4594,-0.4595 -0.5581,-1.1438 -0.2963,-1.7l5.0478,-10.7131c0.0957,-0.2033 0.2271,-0.3939 0.395,-0.5618c0.7805,-0.7805 2.0479,-0.7805 2.8284,0l6,6c0.7805,0.7805 0.7805,2.0479 0,2.8284c-0.1679,0.168 -0.3586,0.2996 -0.5617,0.3952l-3.2339,1.5237c0.0855,0.2908 0.1314,0.5985 0.1314,0.9169c0,1.7937 -1.4563,3.25 -3.25,3.25c-1.1193,0 -2.1072,-0.567 -2.6918,-1.4293zM11.6979,14.2669l-3.9692,1.8701c0.4121,0.5253 1.0525,0.863 1.7713,0.863c1.2418,0 2.25,-1.0082 2.25,-2.25c0,-0.1658 -0.018,-0.3275 -0.0521,-0.4831zM13.0358,2.3143c0.1024,-0.2562 0.3937,-0.381 0.6499,-0.2785c0.2562,0.1024 0.381,0.3937 0.2785,0.6499l-0.5,1.25c-0.1024,0.2562 -0.3937,0.381 -0.6499,0.2785c-0.2562,-0.1024 -0.381,-0.3937 -0.2785,-0.6499zM16.6464,2.6464c0.1952,-0.1951 0.512,-0.1951 0.7072,0c0.1951,0.1952 0.1951,0.512 0,0.7072l-2,2c-0.1952,0.1951 -0.512,0.1951 -0.7072,0c-0.1951,-0.1952 -0.1951,-0.512 0,-0.7072zM16.4357,7.4642c-0.2562,0.1025 -0.5475,-0.0223 -0.6499,-0.2785c-0.1025,-0.2562 0.0223,-0.5475 0.2785,-0.6499l1.25,-0.5c0.2562,-0.1025 0.5475,0.0223 0.6499,0.2785c0.1025,0.2562 -0.0223,0.5475 -0.2785,0.6499z" fill="#212121"/>
</svg>
