<svg width="20" height="20" viewBox="0 0 20 20" fill="none" xmlns="http://www.w3.org/2000/svg">
<path d="M3.2586,10.7184c0.4815,1.0834 1.5558,1.7816 2.7414,1.7816h10c0,1.3807 -1.1193,2.5 -2.5,2.5h-3.7929l-1.5607,1.5607c-0.2813,0.2813 -0.6628,0.4393 -1.0606,0.4393h-2.5858c-1.3807,0 -2.5,-1.1193 -2.5,-2.5v-6.6134zM4.1724,10.3123l-2,-4.5c-0.275,-0.6187 -0.2183,-1.3345 0.1506,-1.9021c0.3689,-0.5677 1,-0.9102 1.677,-0.9102h10c0.7904,0 1.5066,0.4655 1.8276,1.1877l2,4.5c0.275,0.6187 0.2183,1.3345 -0.1506,1.9021c-0.3689,0.5677 -1,0.9102 -1.677,0.9102h-10c-0.7904,0 -1.5066,-0.4655 -1.8276,-1.1877z" fill="#212121"/>
</svg>
