<svg width="20" height="20" viewBox="0 0 20 20" fill="none" xmlns="http://www.w3.org/2000/svg">
<path d="M8.75,18c-0.062,0-0.1255-0.0078-0.1885-0.0244l-0.1621-0.042c-0.1431-0.04-0.3052-0.0879-0.5015-0.1504c-0.3643-0.1172-0.9146-0.3125-1.4746-0.582c-0.6533-0.3174-1.1812-0.667-1.5693-1.043C4.2871,15.6094,4,15.001,4,14.3496c0-0.7168,0.2876-1.3584,0.8545-1.9062c0.4287-0.416,0.9673-0.7344,1.5273-1.0488l0.1284-0.0732c0.3936-0.2188,0.834-0.4644,1.125-0.7148C7.957,10.332,8,10.146,8,10c0-0.1362-0.04-0.354-0.3848-0.6733c-0.3179-0.2944-0.7935-0.582-1.2134-0.8359c-0.5449-0.3291-1.1035-0.666-1.5366-1.0669C4.291,6.8906,4,6.2939,4,5.6499C4,4.998,4.2871,4.3901,4.853,3.8428c0.3892-0.3765,0.9175-0.7275,1.5708-1.043C6.979,2.5312,7.5303,2.3345,7.895,2.2173c0.1992-0.0645,0.3652-0.1118,0.48-0.144l0.1841-0.0483c0.4019-0.1064,0.8105,0.1333,0.916,0.5342c0.1055,0.4004-0.1333,0.8105-0.5342,0.916L8.7686,3.5205C8.6792,3.5459,8.5327,3.5874,8.356,3.6445C8.0356,3.748,7.5547,3.9189,7.0767,4.1504C6.5674,4.3965,6.1704,4.6558,5.896,4.9209C5.6333,5.1748,5.5,5.4204,5.5,5.6499c0,0.1357,0.04,0.3535,0.3853,0.6738c0.3193,0.2959,0.7896,0.5796,1.2871,0.8799c0.4868,0.2944,1.0322,0.624,1.4624,1.0225C9.209,8.7583,9.5,9.355,9.5,10c0,0.6646-0.291,1.2354-0.8892,1.7451c-0.4038,0.3486-0.9146,0.6328-1.3657,0.8838l-0.1255,0.0713c-0.4727,0.2656-0.9199,0.5273-1.2212,0.8213C5.6221,13.7881,5.5,14.043,5.5,14.3496c0,0.2305,0.1333,0.4756,0.3965,0.7305c0.2734,0.2646,0.6709,0.5234,1.1802,0.7705c0.481,0.2324,0.96,0.4023,1.2773,0.5039c0.1768,0.0557,0.3242,0.0996,0.4385,0.1318l0.145,0.0381c0.4009,0.1035,0.6421,0.5127,0.5381,0.9141C9.3882,17.7764,9.0835,18,8.75,18zM15.251,18c-0.0645,0-0.1289-0.0078-0.1934-0.0254l-0.1475-0.0391c-0.1494-0.041-0.3135-0.0889-0.5127-0.1523c-0.3672-0.1182-0.9199-0.3145-1.4746-0.583c-0.6514-0.3154-1.1787-0.665-1.5684-1.041C10.7871,15.6104,10.5,15.002,10.5,14.3496c0-0.7168,0.2876-1.3584,0.8555-1.9062c0.4287-0.4189,0.9678-0.7354,1.5273-1.0498l0.126-0.0713c0.3945-0.2197,0.835-0.4653,1.1279-0.7168C14.457,10.332,14.5,10.146,14.5,10c0-0.1362-0.04-0.354-0.3848-0.6733c-0.3184-0.2954-0.7939-0.5825-1.2139-0.8359c-0.5459-0.3301-1.1035-0.667-1.5352-1.0659C10.791,6.8921,10.5,6.2949,10.5,5.6499c0-0.6514,0.2866-1.2593,0.8525-1.8071c0.3906-0.3765,0.918-0.7271,1.5693-1.0425c0.5645-0.272,1.1123-0.4673,1.4736-0.5835c0.1992-0.064,0.3652-0.1113,0.4805-0.1436l0.1826-0.0483c0.4033-0.105,0.8115,0.1333,0.917,0.5337s-0.1338,0.8105-0.5342,0.9165l-0.1719,0.0454c-0.0908,0.0254-0.2373,0.0669-0.4131,0.124c-0.3184,0.1021-0.7959,0.272-1.2812,0.5063c-0.5078,0.2461-0.9053,0.5054-1.1807,0.7705C12.1328,5.1748,12,5.4204,12,5.6499c0,0.1362,0.04,0.3545,0.3848,0.6738c0.3193,0.2949,0.7881,0.5786,1.2852,0.8789c0.4883,0.2944,1.0342,0.624,1.4648,1.0239C15.709,8.7583,16,9.355,16,10c0,0.6646-0.29,1.2354-0.8877,1.7451c-0.4062,0.3486-0.917,0.6328-1.3672,0.8848l-0.126,0.0713c-0.4717,0.2637-0.918,0.5244-1.2197,0.8193C12.1221,13.7881,12,14.043,12,14.3496c0,0.2305,0.1338,0.4756,0.3965,0.7305c0.2744,0.2646,0.6719,0.5244,1.1807,0.7705c0.4756,0.2305,0.957,0.4014,1.2773,0.5039c0.1738,0.0547,0.3203,0.0986,0.4473,0.1338l0.1406,0.0371c0.4004,0.1055,0.6387,0.5166,0.5322,0.917C15.8857,17.7783,15.582,18,15.251,18z" fill="#212121"/>
</svg>
