<svg width="20" height="20" viewBox="0 0 20 20" fill="none" xmlns="http://www.w3.org/2000/svg">
<path d="M15.7797,2.1467c-0.1962,-0.1961 -0.5107,-0.1955 -0.7024,0.0014c-0.1917,0.1969 -0.1881,0.5156 0.008,0.7117c1.4574,1.4573 2.1471,3.5262 1.8556,5.5667c-0.0392,0.2747 0.1491,0.5318 0.4206,0.5742c0.2714,0.0424 0.5233,-0.1459 0.5626,-0.4206c0.3369,-2.3584 -0.4603,-4.7492 -2.1444,-6.4334zM14.1742,4.0744c0.237,-0.1417 0.544,-0.0644 0.6857,0.1726l0.2958,0.4948c0.4986,0.834 0.7661,1.7856 0.775,2.7572c0.0025,0.2761 -0.2192,0.502 -0.4954,0.5046c-0.2761,0.0025 -0.502,-0.2193 -0.5045,-0.4954c-0.0073,-0.794 -0.2259,-1.5717 -0.6334,-2.2532l-0.2958,-0.4949c-0.1417,-0.237 -0.0645,-0.544 0.1726,-0.6857zM8.943,8.5024l-1.7768,-5.4686c-0.128,-0.3939 -0.5512,-0.6095 -0.9451,-0.4815c-0.3939,0.128 -0.6095,0.5511 -0.4815,0.945l1.7768,5.4686c0.0854,0.2626 -0.0584,0.5447 -0.321,0.63c-0.2626,0.0854 -0.5447,-0.0584 -0.63,-0.321l-1.4679,-4.5175c-0.128,-0.3939 -0.5511,-0.6095 -0.945,-0.4815c-0.394,0.128 -0.6095,0.5511 -0.4815,0.945l2.0085,6.1817c-0.7608,-0.2004 -1.5555,-0.283 -2.1338,-0.0951c-0.9236,0.3001 -1.5998,0.8607 -1.5423,1.6741c0.0035,0.0489 0.0148,0.0968 0.0299,0.1433c0.0464,0.1431 0.1575,0.2559 0.2998,0.3045l1.5523,0.5306c1.2567,0.4295 2.5387,1.1368 3.5495,1.9892c0.5469,0.4611 1.0651,0.9541 1.5794,1.451c0.5517,0.5327 0.8731,0.7842 1.9133,0.4462l2.8965,-0.9411c0.9077,-0.2949 1.0882,-0.914 1.2408,-2.5061c0.1526,-1.592 0.0411,-3.1093 -0.1305,-3.6377l-2.2404,-6.8951c-0.128,-0.394 -0.5511,-0.6096 -0.9451,-0.4816c-0.3939,0.128 -0.6095,0.5511 -0.4815,0.9451l1.1588,3.5664c0.0853,0.2627 -0.0584,0.5448 -0.321,0.6301c-0.2626,0.0853 -0.5447,-0.0584 -0.63,-0.321l-1.6224,-4.9931c-0.128,-0.3939 -0.5511,-0.6095 -0.945,-0.4815c-0.394,0.128 -0.6096,0.5511 -0.4816,0.945l1.4679,4.5176c0.0853,0.2626 -0.0585,0.5447 -0.3211,0.63c-0.2625,0.0853 -0.5447,-0.0584 -0.63,-0.321z" fill="#212121"/>
</svg>
