<svg width="20" height="20" viewBox="0 0 20 20" fill="none" xmlns="http://www.w3.org/2000/svg">
<path d="M5,6c0,-2.2091 1.7909,-4 4,-4c2.2091,0 4,1.7909 4,4c0,2.2091 -1.7909,4 -4,4c-2.2091,0 -4,-1.7909 -4,-4zM9,3c-1.6569,0 -3,1.3432 -3,3c0,1.6569 1.3432,3 3,3c1.6569,0 3,-1.3431 3,-3c0,-1.6569 -1.3431,-3 -3,-3zM2,13c0,-1.1131 0.9032,-2 2.0087,-2h9.9913c1.1045,0 2,0.8956 2,2c0,1.6912 -0.8328,2.9663 -2.135,3.7966c-1.282,0.8174 -3.0103,1.2034 -4.865,1.2034c-1.8547,0 -3.583,-0.386 -4.865,-1.2034c-1.3022,-0.8303 -2.135,-2.1054 -2.135,-3.7966zM4.0087,12c-0.5608,0 -1.0087,0.4467 -1.0087,1c0,1.3088 0.6223,2.2837 1.6726,2.9534c1.0706,0.6826 2.5923,1.0466 4.3274,1.0466c1.7351,0 3.2568,-0.364 4.3274,-1.0466c1.0503,-0.6697 1.6726,-1.6446 1.6726,-2.9534c0,-0.5522 -0.4478,-1 -1,-1zM16.2917,2.7063c-0.1139,-0.2514 -0.0022,-0.5479 0.2492,-0.6618c0.2513,-0.1138 0.5479,-0.0022 0.6617,0.2492c0.5121,1.1305 0.7974,2.3854 0.7974,3.7063c0,1.3209 -0.2853,2.5758 -0.7974,3.7063c-0.1138,0.2514 -0.4104,0.363 -0.6617,0.2492c-0.2514,-0.1139 -0.3631,-0.4104 -0.2492,-0.6618c0.4551,-1.0047 0.7083,-2.1198 0.7083,-3.2937c0,-1.1739 -0.2532,-2.289 -0.7083,-3.2937zM14.0419,3.8004c-0.1106,-0.2529 0.0049,-0.5479 0.2577,-0.6585c0.2528,-0.1106 0.5479,0.0049 0.6585,0.2577c0.3484,0.7965 0.5419,1.676 0.5419,2.6004c0,0.9244 -0.1935,1.8039 -0.5419,2.6004c-0.1106,0.2528 -0.4057,0.3683 -0.6585,0.2577c-0.2528,-0.1106 -0.3683,-0.4056 -0.2577,-0.6585c0.2947,-0.6737 0.4581,-1.4177 0.4581,-2.1996c0,-0.7819 -0.1634,-1.5259 -0.4581,-2.1996z" fill="#212121"/>
</svg>
