<svg width="20" height="20" viewBox="0 0 20 20" fill="none" xmlns="http://www.w3.org/2000/svg">
<path d="M12.9335,12.2433c0.0002,0.0011 0.0004,0.0023 0.0007,0.0035c0.0747,0.3814 0.1639,0.903 0.2233,1.4671c0.0625,0.593 0.0892,1.2169 0.0445,1.7756c-0.0576,0.7201 -0.2396,1.268 -0.4725,1.6174c-0.0743,0.1115 -0.212,0.2815 -0.4061,0.4849c-0.5941,0.6227 -1.9085,0.5992 -2.3108,-0.5595c-0.2489,-0.7168 -0.5825,-1.6124 -0.9211,-2.2916c-0.9246,-1.8551 -1.5092,-3.0431 -3.1212,-4.4731c-0.2285,-0.2028 -0.5029,-0.3424 -0.7663,-0.4464c-1.2878,-0.5091 -2.006,-1.7529 -1.7924,-2.8212l0.3265,-1.6324c0.1745,-0.8727 0.8272,-1.5719 1.6858,-1.806l5.1787,-1.4124c2.3753,-0.6478 4.7959,0.8776 5.2363,3.3001l0.6326,3.4789c0.3138,1.7261 -1.0123,3.315 -2.7667,3.315zM11.8673,12.0312c-0.0442,-0.0855 -0.0627,-0.1818 -0.0536,-0.2772c-0.0024,-0.1111 0.0322,-0.2211 0.1006,-0.3118c0.0945,-0.1252 0.2422,-0.1989 0.3991,-0.1989l1.3914,-0.0001c1.1305,0 1.985,-1.0238 1.7828,-2.1362l-0.6325,-3.4788c-0.3356,-1.8456 -2.1797,-3.0078 -3.9894,-2.5142l-5.1787,1.4123c-0.4932,0.1345 -0.8681,0.5361 -0.9683,1.0374l-0.3265,1.6325c-0.132,0.6599 0.3838,1.3805 1.1794,1.695c0.3665,0.1448 0.7443,0.3461 1.0624,0.6283c1.7243,1.5297 2.3634,2.7907 3.3525,4.7751c0.3562,0.7144 0.7089,1.6557 0.9708,2.4097c0.1137,0.3276 0.4747,0.3732 0.6426,0.1972c0.1408,-0.1475 0.2436,-0.2683 0.2975,-0.3492c0.1636,-0.2454 0.2674,-0.6369 0.3078,-1.1425c0.04,-0.5007 0.0138,-1.0598 -0.0422,-1.5912c-0.0558,-0.5304 -0.1399,-1.0209 -0.2102,-1.3795c-0.0331,-0.1692 -0.0632,-0.3087 -0.0855,-0.4079z" fill="#212121"/>
</svg>
