<svg width="20" height="20" viewBox="0 0 20 20" fill="none" xmlns="http://www.w3.org/2000/svg">
<path d="M8.97,2.47C9.263,2.177 9.737,2.177 10.03,2.47L11.78,4.22C12.073,4.513 12.073,4.987 11.78,5.28L10.03,7.03C9.737,7.323 9.263,7.323 8.97,7.03C8.677,6.737 8.677,6.263 8.97,5.97L9.4,5.54C7.198,5.833 5.5,7.718 5.5,10C5.5,11.389 6.129,12.631 7.12,13.458C7.438,13.723 7.481,14.196 7.215,14.514C6.95,14.832 6.477,14.875 6.159,14.61C4.841,13.51 4,11.853 4,10C4,6.867 6.401,4.295 9.463,4.024L8.97,3.53C8.677,3.237 8.677,2.763 8.97,2.47ZM12.785,5.486C13.05,5.168 13.523,5.125 13.841,5.39C15.159,6.49 16,8.147 16,10C16,13.133 13.599,15.705 10.537,15.976L11.03,16.47C11.323,16.763 11.323,17.237 11.03,17.53C10.737,17.823 10.263,17.823 9.97,17.53L8.22,15.78C8.079,15.64 8,15.449 8,15.25C8,15.051 8.079,14.86 8.22,14.72L9.97,12.97C10.263,12.677 10.737,12.677 11.03,12.97C11.323,13.263 11.323,13.737 11.03,14.03L10.6,14.46C12.802,14.167 14.5,12.282 14.5,10C14.5,8.611 13.871,7.369 12.88,6.542C12.562,6.277 12.519,5.804 12.785,5.486Z" fill="#212121"/>
</svg>
