<svg width="20" height="20" viewBox="0 0 20 20" fill="none" xmlns="http://www.w3.org/2000/svg">
<path d="M9.1659,3.5953c0.8404,-0.8407 1.9615,-1.2597 3.0638,-1.4515c1.1015,-0.1916 2.224,-0.1637 3.1192,-0.0778c1.3822,0.1327 2.4522,1.2032 2.5849,2.5859c0.0858,0.8956 0.1138,2.0186 -0.0778,3.1206c-0.1917,1.1025 -0.6105,2.2241 -1.4508,3.0648c-1.4142,1.4147 -3.6544,1.6656 -5.3486,1.6238c-0.1858,-0.0046 -0.3417,0.1393 -0.3536,0.3177c-0.096,1.435 -0.3851,3.1873 -1.1545,4.6304c-0.265,0.4971 -0.769,0.6788 -1.229,0.5586c-0.4359,-0.114 -0.793,-0.4856 -0.8875,-0.9881c-0.122,-0.6488 -0.284,-1.394 -0.4794,-2.0384c-0.0974,-0.3213 -0.2005,-0.6086 -0.3072,-0.8422c-0.1085,-0.2374 -0.2057,-0.3859 -0.2809,-0.4612c-0.0752,-0.0752 -0.2239,-0.1726 -0.4613,-0.2813c-0.2336,-0.107 -0.5211,-0.2104 -0.8426,-0.3081c-0.6446,-0.1959 -1.3902,-0.3587 -2.0389,-0.4812c-0.5021,-0.0949 -0.8733,-0.4523 -0.987,-0.8885c-0.1199,-0.4602 0.062,-0.9641 0.5589,-1.229c1.4433,-0.7693 3.1959,-1.0576 4.631,-1.1528c0.1784,-0.0118 0.3223,-0.1678 0.3178,-0.3536c-0.0414,-1.6945 0.2101,-3.9341 1.6235,-5.3481zM13.5,4.25c-0.4142,0 -0.75,0.3358 -0.75,0.75c0,0.4142 0.3358,0.75 0.75,0.75c0.4143,0 0.75,-0.3358 0.75,-0.75c0,-0.4142 -0.3357,-0.75 -0.75,-0.75z" fill="#212121"/>
</svg>
