<svg width="20" height="20" viewBox="0 0 20 20" fill="none" xmlns="http://www.w3.org/2000/svg">
<path d="M18,12.5c0,-3.0376 -2.4624,-5.5 -5.5,-5.5c-3.0376,0 -5.5,2.4624 -5.5,5.5c0,3.0376 2.4624,5.5 5.5,5.5c3.0376,0 5.5,-2.4624 5.5,-5.5zM8,12.5c0,-2.4853 2.0147,-4.5 4.5,-4.5c2.4853,0 4.5,2.0147 4.5,4.5c0,2.4853 -2.0147,4.5 -4.5,4.5c-2.4853,0 -4.5,-2.0147 -4.5,-4.5zM15.3536,10.6464c-0.1953,-0.1952 -0.5119,-0.1952 -0.7072,0l-2.6464,2.6465l-1.1464,-1.1465c-0.1953,-0.1952 -0.5119,-0.1952 -0.7072,0c-0.1952,0.1953 -0.1952,0.5119 0,0.7072l1.5,1.5c0.1953,0.1952 0.5119,0.1952 0.7072,0l3,-3c0.1952,-0.1953 0.1952,-0.5119 0,-0.7072zM6,12.5c0,-0.2515 0.0143,-0.4996 0.0422,-0.7436c-0.3676,-0.1261 -0.7184,-0.2993 -1.0427,-0.5155c-0.2296,-0.153 -0.5403,-0.0909 -0.6934,0.1388c-0.153,0.2296 -0.0909,0.5403 0.1388,0.6933c0.4801,0.32 1.0077,0.5628 1.5616,0.7196c-0.0043,-0.097 -0.0065,-0.1946 -0.0065,-0.2926zM12.5,6c0.0985,0 0.1964,0.0022 0.2938,0.0065c-0.0581,-0.2053 -0.1288,-0.4093 -0.2125,-0.6113c-0.1404,-0.3391 -0.311,-0.6566 -0.5073,-0.9509c-0.1532,-0.2296 -0.4639,-0.2916 -0.6934,-0.1385c-0.2296,0.1531 -0.2917,0.4638 -0.1385,0.6934c0.1607,0.241 0.3003,0.501 0.4154,0.7787c0.0362,0.0876 0.0695,0.1757 0.0999,0.2641c0.2437,-0.0277 0.4915,-0.042 0.7426,-0.042zM5.7779,3.3425c0.2777,-0.115 0.5603,-0.2001 0.8444,-0.2569c0.2706,-0.054 0.4464,-0.3176 0.3924,-0.5882c-0.0541,-0.2706 -0.3177,-0.4465 -0.5883,-0.3924c-0.3469,0.0693 -0.692,0.1732 -1.0312,0.3137c-0.3391,0.1404 -0.6566,0.311 -0.9509,0.5073c-0.2296,0.1532 -0.2916,0.4639 -0.1385,0.6934c0.1531,0.2296 0.4638,0.2917 0.6934,0.1385c0.241,-0.1607 0.501,-0.3003 0.7787,-0.4154zM10.0005,3.7591c0.2296,0.153 0.5403,0.0909 0.6934,-0.1388c0.153,-0.2296 0.0909,-0.5403 -0.1388,-0.6933c-0.6002,-0.4001 -1.2745,-0.6794 -1.9818,-0.8209c-0.2706,-0.0542 -0.5342,0.1216 -0.5884,0.3922c-0.0541,0.2706 0.1216,0.5342 0.3922,0.5883c0.5794,0.116 1.1318,0.3448 1.6234,0.6725zM3.3425,9.2221c-0.115,-0.2777 -0.2001,-0.5603 -0.2569,-0.8444c-0.054,-0.2706 -0.3176,-0.4464 -0.5882,-0.3924c-0.2706,0.0541 -0.4465,0.3176 -0.3924,0.5882c0.0693,0.3469 0.1732,0.6921 0.3137,1.0313c0.1404,0.3391 0.311,0.6566 0.5073,0.9509c0.1532,0.2296 0.4639,0.2916 0.6934,0.1385c0.2296,-0.1531 0.2917,-0.4638 0.1385,-0.6934c-0.1607,-0.241 -0.3003,-0.501 -0.4154,-0.7787zM3.7591,4.9995c0.153,-0.2296 0.0909,-0.5403 -0.1388,-0.6934c-0.2296,-0.153 -0.5403,-0.0909 -0.6933,0.1388c-0.4001,0.6002 -0.6794,1.2745 -0.8209,1.9818c-0.0542,0.2706 0.1216,0.5342 0.3922,0.5884c0.2706,0.0541 0.5342,-0.1216 0.5883,-0.3922c0.116,-0.5794 0.3448,-1.1318 0.6725,-1.6234z" fill="#212121"/>
</svg>
