<svg width="20" height="20" viewBox="0 0 20 20" fill="none" xmlns="http://www.w3.org/2000/svg">
<path d="M9.0498,16.5615C8.8911,16.4932,7.5,15.8477,7.5,14.2822c0-0.7734,0.3335-1.1318,0.7944-1.627C8.8315,12.084,9.5,11.3721,9.5,10c0-1.3652-0.6665-2.0806-1.2021-2.6553C7.8345,6.8477,7.5,6.4888,7.5,5.7139c0-1.6147,1.4722-2.2451,1.5352-2.2715c0.3823-0.1587,0.5635-0.5977,0.4043-0.9805C9.2808,2.0801,8.8438,1.8994,8.459,2.0576C7.5459,2.437,6,3.6343,6,5.7139c0,1.3657,0.6655,2.0801,1.2007,2.6538C7.665,8.8657,8,9.2251,8,10c0,0.7778-0.335,1.1348-0.8027,1.6328C6.6641,12.2061,6,12.9189,6,14.2822c0,2.5244,2.2046,3.5479,2.4561,3.6562C8.5527,17.9805,8.6533,18,8.7524,18c0.2905,0,0.5669-0.1699,0.689-0.4531C9.6055,17.167,9.4302,16.7256,9.0498,16.5615zM14.0527,16.5605C13.9893,16.5332,12.5,15.877,12.5,14.2812c0-0.7764,0.334-1.1338,0.7988-1.6299C13.834,12.0781,14.5,11.3652,14.5,10s-0.665-2.0796-1.2012-2.6548C12.835,6.8486,12.5,6.4893,12.5,5.7144c0-1.6123,1.4717-2.2446,1.5342-2.271c0.3818-0.1592,0.5645-0.5977,0.4062-0.9795c-0.1582-0.3828-0.5928-0.5645-0.9766-0.4077C12.5488,2.4321,11,3.6255,11,5.7144c0,1.3662,0.667,2.0806,1.2021,2.6543C12.665,8.8657,13,9.2251,13,10c0,0.7734-0.335,1.1318-0.7988,1.6289C11.666,12.2002,11,12.9121,11,14.2812c0,2.0547,1.5469,3.2666,2.4609,3.6582C13.5576,17.9805,13.6582,18,13.7568,18c0.291,0,0.5674-0.1699,0.6895-0.4541C14.6094,17.165,14.4326,16.7236,14.0527,16.5605z" fill="#212121"/>
</svg>
