<svg width="20" height="20" viewBox="0 0 20 20" fill="none" xmlns="http://www.w3.org/2000/svg">
<path d="M10.3536 4.14645C10.1583 3.95118 9.84171 3.95118 9.64645 4.14645L6.64645 7.14645C6.45118 7.34171 6.45118 7.65829 6.64645 7.85355C6.84171 8.04882 7.15829 8.04882 7.35355 7.85355L10 5.20711L12.6464 7.85355C12.8417 8.04882 13.1583 8.04882 13.3536 7.85355C13.5488 7.65829 13.5488 7.34171 13.3536 7.14645L10.3536 4.14645ZM17.75,11.5v1.5c0,0.8279 -0.6721,1.5 -1.5,1.5h-1.5c-0.8279,0 -1.5,-0.6721 -1.5,-1.5v-1.5c0,-0.8279 0.6721,-1.5 1.5,-1.5h1.5c0.8279,0 1.5,0.6721 1.5,1.5zM12.25,11.5v1.5c0,0.8279 -0.6721,1.5 -1.5,1.5h-1.5c-0.8279,0 -1.5,-0.6721 -1.5,-1.5v-1.5c0,-0.8279 0.6721,-1.5 1.5,-1.5h1.5c0.8279,0 1.5,0.6721 1.5,1.5zM6.75,11.5v1.5c0,0.8279 -0.6721,1.5 -1.5,1.5h-1.5c-0.8279,0 -1.5,-0.6721 -1.5,-1.5v-1.5c0,-0.8279 0.6721,-1.5 1.5,-1.5h1.5c0.8279,0 1.5,0.6721 1.5,1.5z" fill="#212121"/>
</svg>
