<svg width="20" height="20" viewBox="0 0 20 20" fill="none" xmlns="http://www.w3.org/2000/svg">
<path d="M7,7.5c0,1.3807 -1.1193,2.5 -2.5,2.5c-1.3807,0 -2.5,-1.1193 -2.5,-2.5c0,-0.2761 0.2239,-0.5 0.5,-0.5c0.2761,0 0.5,0.2239 0.5,0.5c0,0.8284 0.6716,1.5 1.5,1.5c0.8284,0 1.5,-0.6716 1.5,-1.5v-0.9998c-0.4178,0.3138 -0.9372,0.4998 -1.5,0.4998c-1.3807,0 -2.5,-1.1193 -2.5,-2.5c0,-1.3807 1.1193,-2.5 2.5,-2.5c1.3807,0 2.5,1.1193 2.5,2.5zM6,4.5c0,-0.8284 -0.6716,-1.5 -1.5,-1.5c-0.8284,0 -1.5,0.6716 -1.5,1.5c0,0.8284 0.6716,1.5 1.5,1.5c0.8284,0 1.5,-0.6716 1.5,-1.5zM10.5,2c-1.3807,0 -2.5,1.1193 -2.5,2.5v3c0,1.3807 1.1193,2.5 2.5,2.5c1.3807,0 2.5,-1.1193 2.5,-2.5c0,-1.3807 -1.1193,-2.5 -2.5,-2.5c-0.5628,0 -1.0822,0.186 -1.5,0.4998v-0.9998c0,-0.8284 0.6716,-1.5 1.5,-1.5c0.8284,0 1.5,0.6716 1.5,1.5c0,0.2761 0.2239,0.5 0.5,0.5c0.2761,0 0.5,-0.2239 0.5,-0.5c0,-1.3807 -1.1193,-2.5 -2.5,-2.5zM10.5,9c-0.8284,0 -1.5,-0.6716 -1.5,-1.5c0,-0.8284 0.6716,-1.5 1.5,-1.5c0.8284,0 1.5,0.6716 1.5,1.5c0,0.8284 -0.6716,1.5 -1.5,1.5zM16,3c-0.5523,0 -1,0.4477 -1,1v4c0,0.5523 0.4477,1 1,1c0.5523,0 1,-0.4477 1,-1v-4c0,-0.5523 -0.4477,-1 -1,-1zM14,4c0,-1.1046 0.8954,-2 2,-2c1.1046,0 2,0.8954 2,2v4c0,1.1046 -0.8954,2 -2,2c-1.1046,0 -2,-0.8954 -2,-2zM3.5,12c-0.2761,0 -0.5,0.2239 -0.5,0.5v5c0,0.2761 0.2239,0.5 0.5,0.5c0.2761,0 0.5,-0.2239 0.5,-0.5v-1.5h1.5c0.2761,0 0.5,-0.2239 0.5,-0.5c0,-0.2761 -0.2239,-0.5 -0.5,-0.5h-1.5v-2h2.5c0.2761,0 0.5,-0.2239 0.5,-0.5c0,-0.2761 -0.2239,-0.5 -0.5,-0.5zM8.5,12c-0.2761,0 -0.5,0.2239 -0.5,0.5v5c0,0.2761 0.2239,0.5 0.5,0.5c0.2761,0 0.5,-0.2239 0.5,-0.5v-1.5h1c1.1046,0 2,-0.8954 2,-2c0,-1.1046 -0.8954,-2 -2,-2zM10,15h-1v-2h1c0.5523,0 1,0.4477 1,1c0,0.5523 -0.4477,1 -1,1zM13,13.75c0,-0.9665 0.7835,-1.75 1.75,-1.75h0.75c0.8284,0 1.5,0.6716 1.5,1.5c0,0.2761 -0.2239,0.5 -0.5,0.5c-0.2761,0 -0.5,-0.2239 -0.5,-0.5c0,-0.2761 -0.2239,-0.5 -0.5,-0.5h-0.75c-0.4142,0 -0.75,0.3358 -0.75,0.75c0,0.4142 0.3358,0.75 0.75,0.75h0.5c0.9665,0 1.75,0.7835 1.75,1.75c0,0.9665 -0.7835,1.75 -1.75,1.75h-0.75c-0.8284,0 -1.5,-0.6716 -1.5,-1.5c0,-0.2761 0.2239,-0.5 0.5,-0.5c0.2761,0 0.5,0.2239 0.5,0.5c0,0.2761 0.2239,0.5 0.5,0.5h0.75c0.4142,0 0.75,-0.3358 0.75,-0.75c0,-0.4142 -0.3358,-0.75 -0.75,-0.75h-0.5c-0.9665,0 -1.75,-0.7835 -1.75,-1.75z" fill="#212121"/>
</svg>
