<svg width="20" height="20" viewBox="0 0 20 20" fill="none" xmlns="http://www.w3.org/2000/svg">
<path d="M6.0303,7.2803c-0.2929,0.2929 -0.7677,0.2929 -1.0606,0c-0.2929,-0.2929 -0.2929,-0.7677 0,-1.0606l4,-4c0.2929,-0.2929 0.7677,-0.2929 1.0606,0l4,4c0.2929,0.2929 0.2929,0.7677 0,1.0606c-0.2929,0.2929 -0.7677,0.2929 -1.0606,0l-2.7197,-2.7196v5.1893c0,1.9473 0.2452,3.3213 0.7403,4.3664c0.4856,1.0253 1.2426,1.7987 2.3956,2.4905c0.3552,0.2131 0.4703,0.6738 0.2572,1.029c-0.2131,0.3552 -0.6738,0.4703 -1.029,0.2572c-1.347,-0.8082 -2.34,-1.7848 -2.9794,-3.1345c-0.6299,-1.3298 -0.8847,-2.9559 -0.8847,-5.0086v-5.1893z" fill="#212121"/>
</svg>
