<svg width="20" height="20" viewBox="0 0 20 20" fill="none" xmlns="http://www.w3.org/2000/svg">
<path d="M16.1328,12.7754c-0.6045-0.1914-1.0391-0.4795-1.2734-0.8252l-2.6122-4.4918c0.0208-0.0032,0.0416-0.0018,0.0624-0.0052c0.2725-0.0449,0.4561-0.3027,0.4111-0.5752c-0.0459-0.2725-0.2969-0.4604-0.5752-0.4111C9.9106,6.8364,7.8608,5.4092,7.4824,3.3501c-0.0498-0.271-0.3096-0.4512-0.582-0.4014C6.6347,2.9975,6.4601,3.2487,6.4993,3.5138C5.1478,3.9719,4.1711,4.7123,3.6016,5.7217C3.0796,6.6465,3.001,7.5903,2.9893,8.23l-0.647,0.8091c-0.2607,0.3262-0.374,0.75-0.311,1.1631c0.063,0.4126,0.2974,0.7832,0.6436,1.0166l7.5146,5.0713c0.9951,0.6689,2.1543,1.0225,3.3516,1.0225h2.0205c1.1992,0,2.2305-0.8398,2.4004-1.9541C18.1621,14.0459,17.1543,13.0996,16.1328,12.7754z M15.5615,16.3125H13.541c-0.998,0-1.9639-0.2949-2.793-0.8516l-7.137-5.0708C3.1172,10.311,3.041,10.1909,3.02,10.0513C2.9985,9.9116,3.0352,9.7734,3.1235,9.6636l0.288-0.3602l7.8932,5.3265c0.665,0.4463,1.4375,0.6826,2.2363,0.6826h3.3942C16.7892,15.8864,16.2283,16.3125,15.5615,16.3125z M11.6592,10.7246c0.167,0.2891,0.2109,0.627,0.124,0.9492s-0.2939,0.5918-0.584,0.7578l-0.7355,0.4246l-3.2272-2.178l2.2147-1.2787c0.5962-0.3457,1.3633-0.1396,1.708,0.458L11.6592,10.7246z M6.3145,10.0558l-2.3277-1.571l0.002-0.2197c0.0083-0.5278,0.0674-1.3145,0.4839-2.0522c0.2461-0.436,0.6102-0.8034,1.0647-1.1146l1.7161,2.9716c0.167,0.2891,0.2114,0.626,0.125,0.9487S7.085,9.6108,6.7959,9.7778L6.3145,10.0558z" fill="#212121"/>
</svg>
