<svg width="20" height="20" viewBox="0 0 20 20" fill="none" xmlns="http://www.w3.org/2000/svg">
<path d="M3,9v-1h1v-1h13v2h-1v1h-1v1h-3v-1h-1v-1h-1v1h-1v1h-3v-1h-1v-1zM3,9v2h-1v-2zM13,9v-1h-1v1zM13,9v1h1v-1zM7,9v-1h-1v1zM7,9v1h1v-1zM4.2562,6c1.2655,-1.813 3.3671,-3 5.7438,-3c2.3767,0 4.4783,1.187 5.7438,3zM16.929,11c-0.4859,3.3904 -3.4051,6 -6.929,6c-3.1686,0 -5.8482,-2.1098 -6.7096,-5h0.7096v-1h1v1h5v-1h1v1h5v-1zM12.6665,12.9805c-0.7079,0.6338 -1.6425,1.0195 -2.6665,1.0195c-1.024,0 -1.9586,-0.3857 -2.6665,-1.0195c-0.2055,-0.1841 -0.5219,-0.1666 -0.706,0.0389c-0.1841,0.2056 -0.1666,0.522 0.039,0.7061c0.8849,0.7924 2.0533,1.2745 3.3335,1.2745c1.2802,0 2.4486,-0.4821 3.3335,-1.2745c0.2056,-0.1841 0.2231,-0.5005 0.039,-0.7061c-0.1841,-0.2055 -0.5005,-0.223 -0.706,-0.0389z" fill="#212121"/>
</svg>
