<svg width="20" height="20" viewBox="0 0 20 20" fill="none" xmlns="http://www.w3.org/2000/svg">
<path d="M2.1273,13.2978l3,-8c0.2928,-0.7807 1.039,-1.2978 1.8727,-1.2978h9c0.656,0 1.2702,0.3217 1.6439,0.8608c0.3736,0.5392 0.4591,1.2273 0.2288,1.8414l-3,8c-0.2928,0.7807 -1.039,1.2978 -1.8727,1.2978h-9c-0.656,0 -1.2702,-0.3217 -1.6439,-0.8608c-0.3736,-0.5392 -0.4591,-1.2273 -0.2288,-1.8414zM3.0637,13.6489c-0.1152,0.3071 -0.0724,0.6511 0.1144,0.9207c0.1868,0.2696 0.4939,0.4304 0.8219,0.4304h9c0.4168,0 0.79,-0.2586 0.9363,-0.6489l3,-8c0.1152,-0.3071 0.0724,-0.6511 -0.1144,-0.9207c-0.1868,-0.2696 -0.4939,-0.4304 -0.8219,-0.4304h-9c-0.4168,0 -0.79,0.2586 -0.9363,0.6489z" fill="#212121"/>
</svg>
