<svg width="20" height="20" viewBox="0 0 20 20" fill="none" xmlns="http://www.w3.org/2000/svg">
<path d="M17.8535,2.1464c0.1953,0.1953 0.1953,0.5119 0,0.7071l-5.1199,5.1199c1.4151,1.7669 1.3037,4.3532 -0.3341,5.991l-0.31,0.3101l-2.0897,3.4828c-0.0792,0.132 -0.2148,0.2202 -0.3676,0.239c-0.1529,0.0188 -0.3058,-0.0338 -0.4147,-0.1427l-7.0711,-7.0711c-0.1088,-0.1089 -0.1615,-0.2618 -0.1427,-0.4146c0.0189,-0.1528 0.107,-0.2885 0.2391,-0.3677l3.4827,-2.0897l0.31,-0.31c1.6379,-1.6379 4.2241,-1.7493 5.991,-0.3342l5.1199,-5.1199c0.1953,-0.1952 0.5118,-0.1952 0.7071,0zM11.6923,13.2573c1.3669,-1.3668 1.3669,-3.5829 0,-4.9497c-1.3668,-1.3668 -3.5828,-1.3668 -4.9497,0zM5.958,8.9372l-2.6516,1.591l6.1654,6.1655l1.591,-2.6517z" fill="#212121"/>
</svg>
