<svg width="20" height="20" viewBox="0 0 20 20" fill="none" xmlns="http://www.w3.org/2000/svg">
<path d="M3.5,3c-0.8284,0 -1.5,0.6716 -1.5,1.5v4c0,0.8284 0.6716,1.5 1.5,1.5h8.5c0.8284,0 1.5,-0.6716 1.5,-1.5v-4c0,-0.8284 -0.6716,-1.5 -1.5,-1.5zzM3.5,11c-0.8284,0 -1.5,0.6716 -1.5,1.5v4c0,0.8284 0.6716,1.5 1.5,1.5h8.5c0.8284,0 1.5,-0.6716 1.5,-1.5v-4c0,-0.8284 -0.6716,-1.5 -1.5,-1.5zM16.4998,12.437c-0.1597,0.0411 -0.3272,0.063 -0.4998,0.063c-0.1726,0 -0.3402,-0.0219 -0.5,-0.063c-0.8626,-0.222 -1.5,-1.0051 -1.5,-1.937c0,-0.9319 0.6374,-1.715 1.5,-1.937c0.0001,0 -0.0001,0 0,0c0.1598,-0.0411 0.3274,-0.063 0.5,-0.063c0.1726,0 0.3402,0.0219 0.5,0.063c0.8626,0.222 1.5,1.0051 1.5,1.937c0,0.9319 -0.6376,1.715 -1.5002,1.937c0,0 0.0001,0 0,0zM16,3c0.2761,0 0.5,0.2239 0.5,0.5v4.0415c-0.1626,-0.0273 -0.3296,-0.0415 -0.5,-0.0415c-0.1704,0 -0.3374,0.0142 -0.5,0.0415v-4.0415c0,-0.2761 0.2239,-0.5 0.5,-0.5zM16,13.5c-0.1704,0 -0.3374,-0.0142 -0.5,-0.0415v4.0415c0,0.2761 0.2239,0.5 0.5,0.5c0.2761,0 0.5,-0.2239 0.5,-0.5v-4.0415c-0.1626,0.0273 -0.3296,0.0415 -0.5,0.0415z" fill="#212121"/>
</svg>
