<svg width="20" height="20" viewBox="0 0 20 20" fill="none" xmlns="http://www.w3.org/2000/svg">
<path d="M10,2c-1.3807,0 -2.5,1.1193 -2.5,2.5c0,0.1882 0.0209,0.3718 0.0605,0.5484c-0.8932,0.2003 -1.5605,0.998 -1.5605,1.9516c0,0.5974 0.2619,1.1335 0.6771,1.5c-0.4152,0.3665 -0.6771,0.9026 -0.6771,1.5c0,1.1046 0.8954,2 2,2h1.5v3.5429l-2.6464,-2.6465c-0.1953,-0.1952 -0.5119,-0.1952 -0.7071,0c-0.1953,0.1953 -0.1953,0.5119 0,0.7072l3.3535,3.3535v0.5429c0,0.2761 0.2239,0.5 0.5,0.5c0.2761,0 0.5,-0.2239 0.5,-0.5v-0.5429l3.3536,-3.3535c0.1952,-0.1953 0.1952,-0.5119 0,-0.7072c-0.1953,-0.1952 -0.5119,-0.1952 -0.7072,0l-2.6464,2.6465v-3.5429h1.5c1.1046,0 2,-0.8954 2,-2c0,-0.5974 -0.2619,-1.1335 -0.6771,-1.5c0.4152,-0.3665 0.6771,-0.9026 0.6771,-1.5c0,-0.9536 -0.6673,-1.7513 -1.5605,-1.9516c0.0396,-0.1766 0.0605,-0.3602 0.0605,-0.5484c0,-1.3807 -1.1193,-2.5 -2.5,-2.5zM12,11h-4c-0.5523,0 -1,-0.4477 -1,-1c0,-0.5523 0.4477,-1 1,-1c0.2761,0 0.5,-0.2239 0.5,-0.5c0,-0.2761 -0.2239,-0.5 -0.5,-0.5c-0.5523,0 -1,-0.4477 -1,-1c0,-0.5523 0.4477,-1 1,-1h0.2676c0.1787,0 0.3438,-0.0954 0.4331,-0.2502c0.0893,-0.1548 0.0891,-0.3455 -0.0003,-0.5002c-0.1274,-0.2201 -0.2004,-0.4755 -0.2004,-0.7496c0,-0.8284 0.6716,-1.5 1.5,-1.5c0.8284,0 1.5,0.6716 1.5,1.5c0,0.2741 -0.073,0.5295 -0.2004,0.7496c-0.0895,0.1547 -0.0896,0.3454 -0.0003,0.5002c0.0893,0.1548 0.2544,0.2502 0.4331,0.2502h0.2676c0.5523,0 1,0.4477 1,1c0,0.5523 -0.4477,1 -1,1c-0.2761,0 -0.5,0.2239 -0.5,0.5c0,0.2761 0.2239,0.5 0.5,0.5c0.5523,0 1,0.4477 1,1c0,0.5523 -0.4477,1 -1,1z" fill="#212121"/>
</svg>
