<svg width="20" height="20" viewBox="0 0 20 20" fill="none" xmlns="http://www.w3.org/2000/svg">
<path d="M4.3689,15.2619l-2,-6.25c-0.3311,-1.0347 0.044,-2.1648 0.928,-2.7962l5.25,-3.75c0.8692,-0.6209 2.037,-0.6209 2.9062,0l5.25,3.75c0.884,0.6314 1.2591,1.7615 0.928,2.7962l-2,6.25c-0.3314,1.0355 -1.2939,1.7381 -2.3811,1.7381h-6.5c-1.0872,0 -2.0497,-0.7026 -2.3811,-1.7381zM5.3214,14.9572c0.1988,0.6212 0.7763,1.0428 1.4286,1.0428h6.5c0.6523,0 1.2298,-0.4216 1.4286,-1.0428l2,-6.25c0.1987,-0.6209 -0.0263,-1.2989 -0.5567,-1.6778l-5.25,-3.75c-0.5216,-0.3725 -1.2222,-0.3725 -1.7438,0l-5.25,3.75c-0.5304,0.3789 -0.7554,1.0569 -0.5567,1.6778z" fill="#212121"/>
</svg>
