<svg width="20" height="20" viewBox="0 0 20 20" xmlns="http://www.w3.org/2000/svg">
  <path d="M13.2436,15.2143c0.4695,-0.2134 0.9394,-0.6395 1.3792,-1.0792c1.1679,-1.1679 2.1083,-2.3523 2.6823,-3.3004c0.3338,-0.5514 0.5338,-1.0116 0.6237,-1.3465c0.0987,-0.3681 0.1443,-0.8679 -0.1973,-1.2095c-0.3416,-0.3416 -0.8412,-0.296 -1.2094,-0.1972c-0.335,0.0899 -0.7952,0.2899 -1.3465,0.6237c-0.948,0.5741 -2.1324,1.5145 -3.3001,2.6824c-0.4399,0.4397 -0.8659,0.9099 -1.0794,1.3792c-0.1155,0.2544 -0.1688,0.488 -0.1778,0.7043c-0.5991,-0.0518 -1.2161,0.1516 -1.6746,0.6101c-0.2283,0.2282 -0.3429,0.4456 -0.4296,0.712c-0.0235,0.0723 -0.0428,0.1433 -0.0658,0.23l-0.0133,0.0502c-0.015,0.0561 -0.0327,0.1245 -0.0607,0.1946c-0.0374,0.0936 -0.0996,0.1847 -0.2095,0.2687c-0.1389,0.1059 -0.3782,0.2299 -0.8041,0.356c-0.1691,0.05 -0.2993,0.1854 -0.3427,0.3563c-0.0434,0.1709 0.0064,0.352 0.1311,0.4767c0.7805,0.7805 1.6301,1.2153 2.4801,1.2687c0.8069,0.0507 1.6017,-0.2329 2.2982,-0.9294c0.458,-0.458 0.6614,-1.0742 0.6102,-1.6728c0.217,-0.0088 0.4512,-0.062 0.706,-0.1779zM9.4651,15.1026c0.038,-0.117 0.0854,-0.2141 0.1856,-0.3143c0.4334,-0.4334 1.1362,-0.4334 1.5696,0c0.4334,0.4335 0.4334,1.1362 0,1.5696c-0.4654,0.4653 -0.9892,0.6724 -1.5283,0.6385c-0.4196,-0.0264 -0.832,-0.1905 -1.2317,-0.4671c0.1317,-0.0704 0.2324,-0.1376 0.3113,-0.1978c0.2817,-0.2152 0.4356,-0.4528 0.5314,-0.6927c0.0443,-0.1109 0.0744,-0.2184 0.0981,-0.3071l-0.0046,0.0035l0.001,-0.0025l0.0042,-0.0032l0.0136,-0.0512c0.0175,-0.0664 0.0317,-0.1204 0.0498,-0.1757zM17.0025,9.0604c-0.0101,0.0596 -0.0257,0.1171 -0.0396,0.1686c-0.0728,0.2715 -0.2427,0.6409 -0.5132,1.0877c-0.5416,0.8946 -1.4321,2.0093 -2.5339,3.1113c-0.3505,0.3503 -0.712,0.7059 -1.0861,0.876c-0.1683,0.0765 -0.3146,0.1026 -0.4475,0.0828c-0.1297,-0.0194 -0.2903,-0.0893 -0.4798,-0.2788c-0.1895,-0.1895 -0.2594,-0.3501 -0.2787,-0.4799c-0.0198,-0.1327 0.0063,-0.279 0.0828,-0.4475c0.1701,-0.374 0.5257,-0.7356 0.8761,-1.0859c1.1017,-1.1018 2.2165,-1.9924 3.111,-2.5341c0.4468,-0.2706 0.8162,-0.4404 1.0876,-0.5133c0.0517,-0.0138 0.1091,-0.0295 0.1687,-0.0396c0.0153,-0.0026 0.0378,-0.0041 0.0575,-0.0049c-0.0008,0.0198 -0.0023,0.0423 -0.0049,0.0576zM7,2.5v1.0606c-0.2927,0.0941 -0.5679,0.2573 -0.8002,0.4897l-3.5356,3.5355c-0.781,0.781 -0.781,2.0474 0,2.8284l2.8284,2.8284c0.7811,0.7811 2.0474,0.7811 2.8285,0l3.5355,-3.5355c0.7811,-0.781 0.7811,-2.0474 0,-2.8284l-2.8284,-2.8284c-0.2919,-0.2919 -0.6515,-0.4747 -1.0282,-0.5484v-1.0019c0,-0.2761 -0.2239,-0.5 -0.5,-0.5c-0.2761,0 -0.5,0.2239 -0.5,0.5zM7,6c0,0.2761 0.2239,0.5 0.5,0.5c0.2761,0 0.5,-0.2239 0.5,-0.5v-1.4583c0.1167,0.0488 0.2261,0.1207 0.3211,0.2157l2.8284,2.8284c0.1199,0.1199 0.203,0.2626 0.2492,0.4142h-7.7345l3.2427,-3.2426c0.0297,-0.0298 0.0608,-0.0572 0.0931,-0.0824zM3.0784,9h8.0711l-3.5355,3.5355c-0.3906,0.3906 -1.0237,0.3906 -1.4142,0l-2.8285,-2.8284c-0.1952,-0.1953 -0.2929,-0.4512 -0.2929,-0.7071z" fill="#212121" />
</svg>