<svg width="20" height="20" viewBox="0 0 20 20" fill="none" xmlns="http://www.w3.org/2000/svg">
<path d="M4.3833,9.2284l-1.5661,0.4196c-0.2665,0.0714 -0.5409,-0.087 -0.6123,-0.3535c-0.0715,-0.2666 0.087,-0.541 0.3535,-0.6124l2.7321,-0.7321c0.2667,-0.0714 0.5409,0.0869 0.6123,0.3536l0.7321,2.7321c0.0714,0.2665 -0.087,0.5409 -0.3536,0.6123c-0.2665,0.0714 -0.5409,-0.087 -0.6123,-0.3535l-0.4197,-1.5661l-1.7445,3.0216c-0.2679,0.4641 -0.2679,1.0359 0,1.5c0.2679,0.4641 0.7631,0.75 1.2991,0.75h2.6961c0.276,0 0.5,0.224 0.5,0.5c0,0.276 -0.224,0.5 -0.5,0.5h-2.6962c-0.8931,0 -1.7184,-0.4765 -2.165,-1.25c-0.4466,-0.7735 -0.4466,-1.7265 0,-2.5zM13.0436,6.7716l-1.7446,-3.0216c-0.2679,-0.4641 -0.7631,-0.75 -1.299,-0.75c-0.5359,0 -1.0311,0.2859 -1.2991,0.75l-1.348,2.3349c-0.138,0.239 -0.444,0.321 -0.683,0.183c-0.239,-0.1379 -0.321,-0.444 -0.183,-0.683l1.348,-2.3349c0.4466,-0.7735 1.2719,-1.25 2.1651,-1.25c0.8932,0 1.7185,0.4765 2.1651,1.25l1.7445,3.0216l0.4196,-1.5661c0.0714,-0.2665 0.3458,-0.4249 0.6124,-0.3535c0.2665,0.0714 0.425,0.3458 0.3535,0.6123l-0.732,2.7321c-0.0715,0.2667 -0.3456,0.425 -0.6124,0.3536l-2.732,-0.7321c-0.2666,-0.0714 -0.425,-0.3458 -0.3536,-0.6124c0.0714,-0.2665 0.3458,-0.4249 0.6124,-0.3535zM11.7071,16l1.1465,1.1464c0.1951,0.1952 0.1951,0.512 0,0.7072c-0.1952,0.1951 -0.512,0.1951 -0.7072,0l-2,-2c-0.1952,-0.1953 -0.1952,-0.5119 0,-0.7072l2,-2c0.1952,-0.1951 0.512,-0.1951 0.7072,0c0.1951,0.1952 0.1951,0.512 0,0.7072l-1.1465,1.1464h3.489c0.5359,0 1.0311,-0.2859 1.2991,-0.75c0.2679,-0.4641 0.2679,-1.0359 0,-1.5l-1.3481,-2.3349c-0.138,-0.239 -0.056,-0.5451 0.183,-0.683c0.239,-0.138 0.5451,-0.056 0.683,0.183l1.3481,2.3349c0.4466,0.7735 0.4466,1.7265 0,2.5c-0.4466,0.7735 -1.2719,1.25 -2.1651,1.25z" fill="#212121"/>
</svg>
