<svg width="20" height="20" viewBox="0 0 20 20" fill="none" xmlns="http://www.w3.org/2000/svg">
<path d="M12.7197,11.7197c0.2929,-0.2929 0.7677,-0.2929 1.0606,0l0.7197,0.7197v-7.6893c0,-0.4143 0.3358,-0.75 0.75,-0.75c0.4142,0 0.75,0.3357 0.75,0.75v7.6893l0.7197,-0.7197c0.2929,-0.2929 0.7677,-0.2929 1.0606,0c0.2929,0.2929 0.2929,0.7678 0,1.0607l-2,2c-0.2929,0.2929 -0.7677,0.2929 -1.0606,0l-2,-2c-0.2929,-0.2929 -0.2929,-0.7678 0,-1.0607zM3.5,14.25c0,0.4139 -0.3361,0.75 -0.75,0.75c-0.4139,0 -0.75,-0.3361 -0.75,-0.75v-9.5c0,-0.3185 0.2012,-0.6023 0.5017,-0.7077c0.3006,-0.1055 0.635,-0.0095 0.834,0.2392l3.4143,4.2679l3.4143,-4.2679c0.199,-0.2487 0.5334,-0.3447 0.834,-0.2392c0.3005,0.1054 0.5017,0.3892 0.5017,0.7077v9.5c0,0.4139 -0.3361,0.75 -0.75,0.75c-0.4139,0 -0.75,-0.3361 -0.75,-0.75v-7.3619l-2.6643,3.3304c-0.1424,0.1779 -0.3579,0.2815 -0.5857,0.2815c-0.2278,0 -0.4433,-0.1036 -0.5857,-0.2815l-2.6643,-3.3304z" fill="#212121"/>
</svg>
