<svg width="16" height="16" viewBox="0 0 16 16" fill="none" xmlns="http://www.w3.org/2000/svg">
<path d="M2,13.5v-11c0,-0.2761 0.2239,-0.5 0.5,-0.5h11c0.2761,0 0.5,0.2239 0.5,0.5v8c0,0.2761 -0.2239,0.5 -0.5,0.5h-10.5v2.5c0,0.2761 -0.2239,0.5 -0.5,0.5c-0.2761,0 -0.5,-0.2239 -0.5,-0.5zM5,3h-1l3.5,3.5l-3.5,3.5h1l3.5,-3.5zM10.7929,6.5l-3.5,-3.5h-1.2929l3.5,3.5l-3.5,3.5h1.2929zM13,4v-1h-4.2929l1,1zM13,6.5v-1.25h-2.0429l0.8965,0.8965c0.0976,0.0976 0.1464,0.2255 0.1464,0.3535zM13,9v-1.25h-2.0429l-1.25,1.25zM3,3v2.0854c0.1564,-0.0553 0.3247,-0.0854 0.5,-0.0854c0.8284,0 1.5,0.6716 1.5,1.5c0,0.8284 -0.6716,1.5 -1.5,1.5c-0.1753,0 -0.3436,-0.0301 -0.5,-0.0854v2.0854l3.5,-3.5zM3,6.5c0,0.2761 0.2239,0.5 0.5,0.5c0.2761,0 0.5,-0.2239 0.5,-0.5c0,-0.2761 -0.2239,-0.5 -0.5,-0.5c-0.2761,0 -0.5,0.2239 -0.5,0.5z" fill="#212121"/>
</svg>
