<svg width="16" height="16" viewBox="0 0 16 16" fill="none" xmlns="http://www.w3.org/2000/svg">
<path d="M2,2.5c0,-0.2761 0.2239,-0.5 0.5,-0.5h11c0.2761,0 0.5,0.2239 0.5,0.5v8c0,0.2761 -0.2239,0.5 -0.5,0.5h-10.5v2.5c0,0.2761 -0.2239,0.5 -0.5,0.5c-0.2761,0 -0.5,-0.2239 -0.5,-0.5zM3,9v1h0.5l3.5,-3.5l-3.5,-3.5h-0.5v1l2.5,2.5zM5,10h1.2929l3.5,-3.5l-3.5,-3.5h-1.2929l3.5,3.5zM9.9571,7.75l-1.25,1.25h4.2929v-1.25zM13,6.5v-1.25h-3.0429l0.8965,0.8965c0.0976,0.0976 0.1464,0.2255 0.1464,0.3535zM13,4v-1h-5.2929l1,1z" fill="#212121"/>
</svg>
